<svg width="322" height="322" viewBox="0 0 322 322" fill="none" xmlns="http://www.w3.org/2000/svg">
<g id="background_16:9_blue">
<g id="background_16:9_blue_2" filter="url(#filter0_d_9559_190907)">
<path d="M297 191C297 198.611 303.074 204.803 310.639 204.995L311 205V295C311 303.837 303.837 311 295 311H27C18.1636 311 11 303.836 11 295V205C18.732 205 25 198.732 25 191C25 183.268 18.732 177 11 177V27C11 18.1635 18.1635 11 27 11H295C303.837 11 311 18.1634 311 27V177C303.268 177 297 183.268 297 191Z" fill="#081C26" fill-opacity="0.6" shape-rendering="crispEdges"/>
<path d="M297 191L296 191L296 191L297 191ZM310.639 204.995L310.613 205.995L310.625 205.995L310.639 204.995ZM311 205H312V204.013L311.014 204L311 205ZM311 295L312 295V295H311ZM295 311L295 312H295L295 311ZM27 311L27 312H27V311ZM11 295L12 295V295H11ZM11 205V204H10V205H11ZM25 191L26 191V191H25ZM11 177H10V178H11V177ZM27 11L27 10L27 10L27 11ZM295 11L295 10H295V11ZM311 27L312 27L312 27L311 27ZM311 177L311 178L312 178V177H311ZM297 191L296 191C296 199.155 302.508 205.789 310.613 205.995L310.639 204.995L310.664 203.995C303.64 203.817 298 198.067 298 191L297 191ZM310.639 204.995L310.625 205.995L310.986 206L311 205L311.014 204L310.652 203.995L310.639 204.995ZM311 205H310V295H311H312V205H311ZM311 295L310 295C310 303.284 303.284 310 295 310L295 311L295 312C304.389 312 312 304.389 312 295L311 295ZM295 311V310H27V311V312H295V311ZM27 311L27 310C18.7158 310 12 303.284 12 295L11 295L10 295C10 304.389 17.6113 312 27 312L27 311ZM11 295H12V205H11H10V295H11ZM11 205V206C19.2843 206 26 199.284 26 191L25 191L24 191C24 198.18 18.1797 204 11 204V205ZM25 191H26C26 182.716 19.2843 176 11 176V177V178C18.1797 178 24 183.82 24 191H25ZM11 177H12V27H11H10V177H11ZM11 27H12C12 18.7157 18.7157 12 27 12L27 11L27 10C17.6112 10 10 17.6112 10 27H11ZM27 11V12H295V11V10H27V11ZM295 11L295 12C303.284 12 310 18.7157 310 27L311 27L312 27C312 17.6112 304.389 10 295 10L295 11ZM311 27H310V177H311H312V27H311ZM311 177L311 176C302.716 176 296 182.716 296 191H297H298C298 183.82 303.82 178 311 178L311 177Z" fill="url(#paint0_linear_9559_190907)" fill-opacity="0.4"/>
</g>
<g id="mask_16:9">
<g id="Mask group">
<mask id="mask0_9559_190907" style="mask-type:alpha" maskUnits="userSpaceOnUse" x="10" y="10" width="302" height="302">
<g id="Union">
<path d="M297 191C297 198.611 303.074 204.803 310.639 204.995L311 205V295C311 303.837 303.837 311 295 311H27C18.1636 311 11 303.836 11 295V205C18.732 205 25 198.732 25 191C25 183.268 18.732 177 11 177V27C11 18.1635 18.1635 11 27 11H295C303.837 11 311 18.1634 311 27V177C303.268 177 297 183.268 297 191Z" fill="#260808" fill-opacity="0.5"/>
<path d="M297 191L296.5 191L296.5 191L297 191ZM310.639 204.995L310.626 205.495L310.632 205.495L310.639 204.995ZM311 205H311.5V204.507L311.007 204.5L311 205ZM311 295L311.5 295V295H311ZM295 311L295 311.5H295L295 311ZM27 311L27 311.5H27V311ZM11 295L11.5 295V295H11ZM11 205V204.5H10.5V205H11ZM25 191L25.5 191V191H25ZM11 177H10.5V177.5H11V177ZM27 11L27 10.5L27 10.5L27 11ZM295 11L295 10.5H295V11ZM311 27L311.5 27V27L311 27ZM311 177L311 177.5L311.5 177.5V177H311ZM297 191L296.5 191C296.5 198.883 302.791 205.296 310.626 205.495L310.639 204.995L310.651 204.495C303.357 204.31 297.5 198.339 297.5 191L297 191ZM310.639 204.995L310.632 205.495L310.993 205.5L311 205L311.007 204.5L310.645 204.495L310.639 204.995ZM311 205H310.5V295H311H311.5V205H311ZM311 295L310.5 295C310.5 303.56 303.56 310.5 295 310.5L295 311L295 311.5C304.113 311.5 311.5 304.113 311.5 295L311 295ZM295 311V310.5H27V311V311.5H295V311ZM27 311L27 310.5C18.4397 310.5 11.5 303.56 11.5 295L11 295L10.5 295C10.5 304.113 17.8874 311.5 27 311.5L27 311ZM11 295H11.5V205H11H10.5V295H11ZM11 205V205.5C19.0081 205.5 25.5 199.008 25.5 191L25 191L24.5 191C24.5 198.456 18.4558 204.5 11 204.5V205ZM25 191H25.5C25.5 182.992 19.0081 176.5 11 176.5V177V177.5C18.4558 177.5 24.5 183.544 24.5 191H25ZM11 177H11.5V27H11H10.5V177H11ZM11 27H11.5C11.5 18.4396 18.4396 11.5 27 11.5L27 11L27 10.5C17.8873 10.5 10.5 17.8873 10.5 27H11ZM27 11V11.5H295V11V10.5H27V11ZM295 11L295 11.5C303.56 11.5 310.5 18.4396 310.5 27L311 27L311.5 27C311.5 17.8873 304.113 10.5 295 10.5L295 11ZM311 27H310.5V177H311H311.5V27H311ZM311 177L311 176.5C302.992 176.5 296.5 182.992 296.5 191H297H297.5C297.5 183.544 303.544 177.5 311 177.5L311 177Z" fill="url(#paint1_linear_9559_190907)" fill-opacity="0.4"/>
</g>
</mask>
<g mask="url(#mask0_9559_190907)">
<g id="Ellipse 4204" filter="url(#filter1_f_9559_190907)">
<ellipse cx="162.5" cy="203.5" rx="203.5" ry="318.5" fill="url(#paint2_linear_9559_190907)"/>
</g>
</g>
</g>
<g id="Union_2">
<g clip-path="url(#paint3_diamond_9559_190907_clip_path)" data-figma-skip-parse="true"><g transform="matrix(0.016 -0.178594 0.429158 0.00844799 151.5 191.703)"><rect x="0" y="0" width="1038.98" height="400.933" fill="url(#paint3_diamond_9559_190907)" opacity="0.15" shape-rendering="crispEdges"/><rect x="0" y="0" width="1038.98" height="400.933" transform="scale(1 -1)" fill="url(#paint3_diamond_9559_190907)" opacity="0.15" shape-rendering="crispEdges"/><rect x="0" y="0" width="1038.98" height="400.933" transform="scale(-1 1)" fill="url(#paint3_diamond_9559_190907)" opacity="0.15" shape-rendering="crispEdges"/><rect x="0" y="0" width="1038.98" height="400.933" transform="scale(-1)" fill="url(#paint3_diamond_9559_190907)" opacity="0.15" shape-rendering="crispEdges"/></g></g><path d="M297 191C297 198.611 303.074 204.803 310.639 204.995L311 205V295C311 303.837 303.837 311 295 311H27C18.1636 311 11 303.836 11 295V205C18.732 205 25 198.732 25 191C25 183.268 18.732 177 11 177V27C11 18.1635 18.1635 11 27 11H295C303.837 11 311 18.1634 311 27V177C303.268 177 297 183.268 297 191Z" data-figma-gradient-fill="{&#34;type&#34;:&#34;GRADIENT_DIAMOND&#34;,&#34;stops&#34;:[{&#34;color&#34;:{&#34;r&#34;:0.14901961386203766,&#34;g&#34;:0.73333334922790527,&#34;b&#34;:1.0,&#34;a&#34;:1.0},&#34;position&#34;:0.0},{&#34;color&#34;:{&#34;r&#34;:1.0,&#34;g&#34;:0.76203721761703491,&#34;b&#34;:0.28611093759536743,&#34;a&#34;:1.0},&#34;position&#34;:1.0}],&#34;stopsVar&#34;:[{&#34;color&#34;:{&#34;r&#34;:0.14901961386203766,&#34;g&#34;:0.73333334922790527,&#34;b&#34;:1.0,&#34;a&#34;:1.0},&#34;position&#34;:0.0},{&#34;color&#34;:{&#34;r&#34;:1.0,&#34;g&#34;:0.76203721761703491,&#34;b&#34;:0.28611093759536743,&#34;a&#34;:1.0},&#34;position&#34;:1.0}],&#34;transform&#34;:{&#34;m00&#34;:32.0,&#34;m01&#34;:858.315917968750,&#34;m02&#34;:-293.6579589843750,&#34;m10&#34;:-357.18746948242188,&#34;m11&#34;:16.895980834960938,&#34;m12&#34;:361.8488769531250},&#34;opacity&#34;:0.15000000596046448,&#34;blendMode&#34;:&#34;NORMAL&#34;,&#34;visible&#34;:true}"/>
<path d="M297 191C297 198.611 303.074 204.803 310.639 204.995L311 205V295C311 303.837 303.837 311 295 311H27C18.1636 311 11 303.836 11 295V205C18.732 205 25 198.732 25 191C25 183.268 18.732 177 11 177V27C11 18.1635 18.1635 11 27 11H295C303.837 11 311 18.1634 311 27V177C303.268 177 297 183.268 297 191Z" fill="url(#paint4_linear_9559_190907)" fill-opacity="0.2"/>
<path d="M297 191L296 191L296 191L297 191ZM310.639 204.995L310.613 205.995L310.625 205.995L310.639 204.995ZM311 205H312V204.013L311.014 204L311 205ZM311 295L312 295V295H311ZM295 311L295 312H295L295 311ZM27 311L27 312H27V311ZM11 295L12 295V295H11ZM11 205V204H10V205H11ZM25 191L26 191V191H25ZM11 177H10V178H11V177ZM27 11L27 10L27 10L27 11ZM295 11L295 10H295V11ZM311 27L312 27L312 27L311 27ZM311 177L311 178L312 178V177H311ZM297 191L296 191C296 199.155 302.508 205.789 310.613 205.995L310.639 204.995L310.664 203.995C303.64 203.817 298 198.067 298 191L297 191ZM310.639 204.995L310.625 205.995L310.986 206L311 205L311.014 204L310.652 203.995L310.639 204.995ZM311 205H310V295H311H312V205H311ZM311 295L310 295C310 303.284 303.284 310 295 310L295 311L295 312C304.389 312 312 304.389 312 295L311 295ZM295 311V310H27V311V312H295V311ZM27 311L27 310C18.7158 310 12 303.284 12 295L11 295L10 295C10 304.389 17.6113 312 27 312L27 311ZM11 295H12V205H11H10V295H11ZM11 205V206C19.2843 206 26 199.284 26 191L25 191L24 191C24 198.18 18.1797 204 11 204V205ZM25 191H26C26 182.716 19.2843 176 11 176V177V178C18.1797 178 24 183.82 24 191H25ZM11 177H12V27H11H10V177H11ZM11 27H12C12 18.7157 18.7157 12 27 12L27 11L27 10C17.6112 10 10 17.6112 10 27H11ZM27 11V12H295V11V10H27V11ZM295 11L295 12C303.284 12 310 18.7157 310 27L311 27L312 27C312 17.6112 304.389 10 295 10L295 11ZM311 27H310V177H311H312V27H311ZM311 177L311 176C302.716 176 296 182.716 296 191H297H298C298 183.82 303.82 178 311 178L311 177Z" fill="url(#paint5_linear_9559_190907)" fill-opacity="0.4"/>
</g>
</g>
</g>
<defs>
<filter id="filter0_d_9559_190907" x="0" y="0" width="322" height="322" filterUnits="userSpaceOnUse" color-interpolation-filters="sRGB">
<feFlood flood-opacity="0" result="BackgroundImageFix"/>
<feColorMatrix in="SourceAlpha" type="matrix" values="0 0 0 0 0 0 0 0 0 0 0 0 0 0 0 0 0 0 127 0" result="hardAlpha"/>
<feOffset/>
<feGaussianBlur stdDeviation="5"/>
<feComposite in2="hardAlpha" operator="out"/>
<feColorMatrix type="matrix" values="0 0 0 0 1 0 0 0 0 0.903658 0 0 0 0 0.709722 0 0 0 0.1 0"/>
<feBlend mode="normal" in2="BackgroundImageFix" result="effect1_dropShadow_9559_190907"/>
<feBlend mode="normal" in="SourceGraphic" in2="effect1_dropShadow_9559_190907" result="shape"/>
</filter>
<filter id="filter1_f_9559_190907" x="-119.4" y="-193.4" width="563.8" height="793.8" filterUnits="userSpaceOnUse" color-interpolation-filters="sRGB">
<feFlood flood-opacity="0" result="BackgroundImageFix"/>
<feBlend mode="normal" in="SourceGraphic" in2="BackgroundImageFix" result="shape"/>
<feGaussianBlur stdDeviation="39.2" result="effect1_foregroundBlur_9559_190907"/>
</filter>
<clipPath id="paint3_diamond_9559_190907_clip_path"><path d="M297 191C297 198.611 303.074 204.803 310.639 204.995L311 205V295C311 303.837 303.837 311 295 311H27C18.1636 311 11 303.836 11 295V205C18.732 205 25 198.732 25 191C25 183.268 18.732 177 11 177V27C11 18.1635 18.1635 11 27 11H295C303.837 11 311 18.1634 311 27V177C303.268 177 297 183.268 297 191Z"/></clipPath><linearGradient id="paint0_linear_9559_190907" x1="311" y1="161" x2="11" y2="161" gradientUnits="userSpaceOnUse">
<stop stop-color="#666666"/>
<stop offset="0.25" stop-color="white"/>
<stop offset="0.75" stop-color="white"/>
<stop offset="1" stop-color="#666666"/>
</linearGradient>
<linearGradient id="paint1_linear_9559_190907" x1="11" y1="311" x2="87.6989" y2="-38.0652" gradientUnits="userSpaceOnUse">
<stop stop-color="white"/>
<stop offset="0.245192" stop-color="#666666"/>
<stop offset="0.75" stop-color="#666666"/>
<stop offset="1" stop-color="white"/>
</linearGradient>
<linearGradient id="paint2_linear_9559_190907" x1="162" y1="-76.5" x2="162" y2="216" gradientUnits="userSpaceOnUse">
<stop stop-color="white"/>
<stop offset="1" stop-color="#CCCCCC" stop-opacity="0"/>
</linearGradient>
<linearGradient id="paint3_diamond_9559_190907" x1="0" y1="0" x2="500" y2="500" gradientUnits="userSpaceOnUse">
<stop stop-color="#26BBFF"/>
<stop offset="1" stop-color="#FFC249"/>
</linearGradient>
<linearGradient id="paint4_linear_9559_190907" x1="311" y1="11" x2="234.301" y2="360.065" gradientUnits="userSpaceOnUse">
<stop stop-color="#FFFDFA"/>
<stop offset="0.25" stop-color="#FFFDFA" stop-opacity="0.8"/>
<stop offset="1" stop-color="#FFFDFA" stop-opacity="0"/>
</linearGradient>
<linearGradient id="paint5_linear_9559_190907" x1="11" y1="311" x2="87.6989" y2="-38.0652" gradientUnits="userSpaceOnUse">
<stop stop-color="white"/>
<stop offset="0.245192" stop-color="#666666"/>
<stop offset="0.75" stop-color="#666666"/>
<stop offset="1" stop-color="white"/>
</linearGradient>
</defs>
</svg>
