<svg width="322" height="442" viewBox="0 0 322 442" fill="none" xmlns="http://www.w3.org/2000/svg">
<g id="background_1&#239;&#188;&#154;1_green">
<g id="background_1&#239;&#188;&#154;1_green_2" filter="url(#filter0_d_9559_190813)">
<path d="M297 311C297 318.611 303.074 324.803 310.639 324.995L311 325V415C311 423.837 303.837 431 295 431H27C18.1634 431 11 423.837 11 415V325C18.732 325 25 318.732 25 311H24.9639C24.9872 310.67 25 310.336 25 310C25 302.268 18.732 296 11 296V27C11 18.1635 18.1635 11 27 11H295C303.837 11 311 18.1634 311 27V297C303.268 297 297 303.268 297 311Z" fill="#122608" fill-opacity="0.6" shape-rendering="crispEdges"/>
<path d="M297 311L296 311L296 311L297 311ZM310.639 324.995L310.613 325.995L310.625 325.995L310.639 324.995ZM311 325H312V324.013L311.014 324L311 325ZM311 415L312 415V415H311ZM295 431L295 432H295L295 431ZM27 431L27 432H27V431ZM11 415L12 415V415H11ZM11 325V324H10V325H11ZM25 311L26 311L26 310H25V311ZM24.9639 311L23.9663 310.93L23.8908 312H24.9639V311ZM11 296H10V297H11V296ZM27 11L27 10L27 10L27 11ZM295 11L295 10H295V11ZM311 27L312 27V27L311 27ZM311 297L311 298L312 298V297H311ZM297 311L296 311C296 319.155 302.508 325.789 310.613 325.995L310.639 324.995L310.664 323.995C303.64 323.817 298 318.067 298 311L297 311ZM310.639 324.995L310.625 325.995L310.986 326L311 325L311.014 324L310.652 323.995L310.639 324.995ZM311 325H310V415H311H312V325H311ZM311 415L310 415C310 423.284 303.284 430 295 430L295 431L295 432C304.389 432 312 424.389 312 415L311 415ZM295 431V430H27V431V432H295V431ZM27 431L27 430C18.7157 430 12 423.284 12 415L11 415L10 415C10 424.389 17.6112 432 27 432L27 431ZM11 415H12V325H11H10V415H11ZM11 325V326C19.2843 326 26 319.284 26 311L25 311L24 311C24 318.18 18.1797 324 11 324V325ZM25 311V310H24.9639V311V312H25V311ZM24.9639 311L25.9614 311.07C25.9862 310.719 26 310.362 26 310H25H24C24 310.311 23.9881 310.621 23.9663 310.93L24.9639 311ZM25 310H26C26 301.716 19.2843 295 11 295V296V297C18.1797 297 24 302.82 24 310H25ZM11 296H12V27H11H10V296H11ZM11 27H12C12 18.7157 18.7157 12 27 12L27 11L27 10C17.6112 10 10 17.6112 10 27H11ZM27 11V12H295V11V10H27V11ZM295 11L295 12C303.284 12 310 18.7157 310 27L311 27L312 27C312 17.6112 304.389 10 295 10L295 11ZM311 27H310V297H311H312V27H311ZM311 297L311 296C302.716 296 296 302.716 296 311H297H298C298 303.82 303.82 298 311 298L311 297Z" fill="url(#paint0_linear_9559_190813)" fill-opacity="0.4"/>
</g>
<g id="mask_1:1">
<g id="Mask group">
<mask id="mask0_9559_190813" style="mask-type:alpha" maskUnits="userSpaceOnUse" x="10" y="10" width="302" height="422">
<g id="Union">
<path d="M297 311C297 318.611 303.074 324.803 310.639 324.995L311 325V415C311 423.837 303.837 431 295 431H27C18.1634 431 11 423.837 11 415V325C18.732 325 25 318.732 25 311H24.9639C24.9872 310.67 25 310.336 25 310C25 302.268 18.732 296 11 296V27C11 18.1635 18.1635 11 27 11H295C303.837 11 311 18.1634 311 27V297C303.268 297 297 303.268 297 311Z" fill="#260826" fill-opacity="0.5" shape-rendering="crispEdges"/>
<path d="M297 311L296 311L296 311L297 311ZM310.639 324.995L310.613 325.995L310.625 325.995L310.639 324.995ZM311 325H312V324.013L311.014 324L311 325ZM311 415L312 415V415H311ZM295 431L295 432H295L295 431ZM27 431L27 432H27V431ZM11 415L12 415V415H11ZM11 325V324H10V325H11ZM25 311L26 311L26 310H25V311ZM24.9639 311L23.9663 310.93L23.8908 312H24.9639V311ZM11 296H10V297H11V296ZM27 11L27 10L27 10L27 11ZM295 11L295 10H295V11ZM311 27L312 27V27L311 27ZM311 297L311 298L312 298V297H311ZM297 311L296 311C296 319.155 302.508 325.789 310.613 325.995L310.639 324.995L310.664 323.995C303.64 323.817 298 318.067 298 311L297 311ZM310.639 324.995L310.625 325.995L310.986 326L311 325L311.014 324L310.652 323.995L310.639 324.995ZM311 325H310V415H311H312V325H311ZM311 415L310 415C310 423.284 303.284 430 295 430L295 431L295 432C304.389 432 312 424.389 312 415L311 415ZM295 431V430H27V431V432H295V431ZM27 431L27 430C18.7157 430 12 423.284 12 415L11 415L10 415C10 424.389 17.6112 432 27 432L27 431ZM11 415H12V325H11H10V415H11ZM11 325V326C19.2843 326 26 319.284 26 311L25 311L24 311C24 318.18 18.1797 324 11 324V325ZM25 311V310H24.9639V311V312H25V311ZM24.9639 311L25.9614 311.07C25.9862 310.719 26 310.362 26 310H25H24C24 310.311 23.9881 310.621 23.9663 310.93L24.9639 311ZM25 310H26C26 301.716 19.2843 295 11 295V296V297C18.1797 297 24 302.82 24 310H25ZM11 296H12V27H11H10V296H11ZM11 27H12C12 18.7157 18.7157 12 27 12L27 11L27 10C17.6112 10 10 17.6112 10 27H11ZM27 11V12H295V11V10H27V11ZM295 11L295 12C303.284 12 310 18.7157 310 27L311 27L312 27C312 17.6112 304.389 10 295 10L295 11ZM311 27H310V297H311H312V27H311ZM311 297L311 296C302.716 296 296 302.716 296 311H297H298C298 303.82 303.82 298 311 298L311 297Z" fill="url(#paint1_linear_9559_190813)" fill-opacity="0.4"/>
</g>
</mask>
<g mask="url(#mask0_9559_190813)">
<g id="Ellipse 4205" filter="url(#filter1_f_9559_190813)">
<ellipse cx="162.5" cy="203.5" rx="203.5" ry="318.5" fill="url(#paint2_linear_9559_190813)"/>
</g>
</g>
</g>
<g id="Union_2" filter="url(#filter2_d_9559_190813)">
<g clip-path="url(#paint3_diamond_9559_190813_clip_path)" data-figma-skip-parse="true"><g transform="matrix(0.016 -0.250031 0.429158 0.0118272 151.5 263.984)"><rect x="0" y="0" width="1035.78" height="400.813" fill="url(#paint3_diamond_9559_190813)" opacity="0.15" shape-rendering="crispEdges"/><rect x="0" y="0" width="1035.78" height="400.813" transform="scale(1 -1)" fill="url(#paint3_diamond_9559_190813)" opacity="0.15" shape-rendering="crispEdges"/><rect x="0" y="0" width="1035.78" height="400.813" transform="scale(-1 1)" fill="url(#paint3_diamond_9559_190813)" opacity="0.15" shape-rendering="crispEdges"/><rect x="0" y="0" width="1035.78" height="400.813" transform="scale(-1)" fill="url(#paint3_diamond_9559_190813)" opacity="0.15" shape-rendering="crispEdges"/></g></g><path d="M297 311C297 318.611 303.074 324.803 310.639 324.995L311 325V415C311 423.837 303.837 431 295 431H27C18.1634 431 11 423.837 11 415V325C18.732 325 25 318.732 25 311H24.9639C24.9872 310.67 25 310.336 25 310C25 302.268 18.732 296 11 296V27C11 18.1635 18.1635 11 27 11H295C303.837 11 311 18.1634 311 27V297C303.268 297 297 303.268 297 311Z" data-figma-gradient-fill="{&#34;type&#34;:&#34;GRADIENT_DIAMOND&#34;,&#34;stops&#34;:[{&#34;color&#34;:{&#34;r&#34;:0.14901961386203766,&#34;g&#34;:0.73333334922790527,&#34;b&#34;:1.0,&#34;a&#34;:1.0},&#34;position&#34;:0.0},{&#34;color&#34;:{&#34;r&#34;:1.0,&#34;g&#34;:0.76203721761703491,&#34;b&#34;:0.28611093759536743,&#34;a&#34;:1.0},&#34;position&#34;:1.0}],&#34;stopsVar&#34;:[{&#34;color&#34;:{&#34;r&#34;:0.14901961386203766,&#34;g&#34;:0.73333334922790527,&#34;b&#34;:1.0,&#34;a&#34;:1.0},&#34;position&#34;:0.0},{&#34;color&#34;:{&#34;r&#34;:1.0,&#34;g&#34;:0.76203721761703491,&#34;b&#34;:0.28611093759536743,&#34;a&#34;:1.0},&#34;position&#34;:1.0}],&#34;transform&#34;:{&#34;m00&#34;:32.0,&#34;m01&#34;:858.315917968750,&#34;m02&#34;:-293.6579589843750,&#34;m10&#34;:-500.06246948242188,&#34;m11&#34;:23.654373168945312,&#34;m12&#34;:502.18841552734375},&#34;opacity&#34;:0.15000000596046448,&#34;blendMode&#34;:&#34;NORMAL&#34;,&#34;visible&#34;:true}" shape-rendering="crispEdges"/>
<path d="M297 311C297 318.611 303.074 324.803 310.639 324.995L311 325V415C311 423.837 303.837 431 295 431H27C18.1634 431 11 423.837 11 415V325C18.732 325 25 318.732 25 311H24.9639C24.9872 310.67 25 310.336 25 310C25 302.268 18.732 296 11 296V27C11 18.1635 18.1635 11 27 11H295C303.837 11 311 18.1634 311 27V297C303.268 297 297 303.268 297 311Z" fill="url(#paint4_linear_9559_190813)" fill-opacity="0.2" shape-rendering="crispEdges"/>
<path d="M297 311L296 311L296 311L297 311ZM310.639 324.995L310.613 325.995L310.625 325.995L310.639 324.995ZM311 325H312V324.013L311.014 324L311 325ZM311 415L312 415V415H311ZM295 431L295 432H295L295 431ZM27 431L27 432H27V431ZM11 415L12 415V415H11ZM11 325V324H10V325H11ZM25 311L26 311L26 310H25V311ZM24.9639 311L23.9663 310.93L23.8908 312H24.9639V311ZM11 296H10V297H11V296ZM27 11L27 10L27 10L27 11ZM295 11L295 10H295V11ZM311 27L312 27V27L311 27ZM311 297L311 298L312 298V297H311ZM297 311L296 311C296 319.155 302.508 325.789 310.613 325.995L310.639 324.995L310.664 323.995C303.64 323.817 298 318.067 298 311L297 311ZM310.639 324.995L310.625 325.995L310.986 326L311 325L311.014 324L310.652 323.995L310.639 324.995ZM311 325H310V415H311H312V325H311ZM311 415L310 415C310 423.284 303.284 430 295 430L295 431L295 432C304.389 432 312 424.389 312 415L311 415ZM295 431V430H27V431V432H295V431ZM27 431L27 430C18.7157 430 12 423.284 12 415L11 415L10 415C10 424.389 17.6112 432 27 432L27 431ZM11 415H12V325H11H10V415H11ZM11 325V326C19.2843 326 26 319.284 26 311L25 311L24 311C24 318.18 18.1797 324 11 324V325ZM25 311V310H24.9639V311V312H25V311ZM24.9639 311L25.9614 311.07C25.9862 310.719 26 310.362 26 310H25H24C24 310.311 23.9881 310.621 23.9663 310.93L24.9639 311ZM25 310H26C26 301.716 19.2843 295 11 295V296V297C18.1797 297 24 302.82 24 310H25ZM11 296H12V27H11H10V296H11ZM11 27H12C12 18.7157 18.7157 12 27 12L27 11L27 10C17.6112 10 10 17.6112 10 27H11ZM27 11V12H295V11V10H27V11ZM295 11L295 12C303.284 12 310 18.7157 310 27L311 27L312 27C312 17.6112 304.389 10 295 10L295 11ZM311 27H310V297H311H312V27H311ZM311 297L311 296C302.716 296 296 302.716 296 311H297H298C298 303.82 303.82 298 311 298L311 297Z" fill="url(#paint5_linear_9559_190813)" fill-opacity="0.4"/>
</g>
</g>
</g>
<defs>
<filter id="filter0_d_9559_190813" x="0" y="0" width="322" height="442" filterUnits="userSpaceOnUse" color-interpolation-filters="sRGB">
<feFlood flood-opacity="0" result="BackgroundImageFix"/>
<feColorMatrix in="SourceAlpha" type="matrix" values="0 0 0 0 0 0 0 0 0 0 0 0 0 0 0 0 0 0 127 0" result="hardAlpha"/>
<feOffset/>
<feGaussianBlur stdDeviation="5"/>
<feComposite in2="hardAlpha" operator="out"/>
<feColorMatrix type="matrix" values="0 0 0 0 1 0 0 0 0 0.903658 0 0 0 0 0.709722 0 0 0 0.1 0"/>
<feBlend mode="normal" in2="BackgroundImageFix" result="effect1_dropShadow_9559_190813"/>
<feBlend mode="normal" in="SourceGraphic" in2="effect1_dropShadow_9559_190813" result="shape"/>
</filter>
<filter id="filter1_f_9559_190813" x="-119.4" y="-193.4" width="563.8" height="793.8" filterUnits="userSpaceOnUse" color-interpolation-filters="sRGB">
<feFlood flood-opacity="0" result="BackgroundImageFix"/>
<feBlend mode="normal" in="SourceGraphic" in2="BackgroundImageFix" result="shape"/>
<feGaussianBlur stdDeviation="39.2" result="effect1_foregroundBlur_9559_190813"/>
</filter>
<filter id="filter2_d_9559_190813" x="0" y="0" width="322" height="442" filterUnits="userSpaceOnUse" color-interpolation-filters="sRGB">
<feFlood flood-opacity="0" result="BackgroundImageFix"/>
<feColorMatrix in="SourceAlpha" type="matrix" values="0 0 0 0 0 0 0 0 0 0 0 0 0 0 0 0 0 0 127 0" result="hardAlpha"/>
<feOffset/>
<feGaussianBlur stdDeviation="5"/>
<feComposite in2="hardAlpha" operator="out"/>
<feColorMatrix type="matrix" values="0 0 0 0 1 0 0 0 0 0.903658 0 0 0 0 0.709722 0 0 0 0.1 0"/>
<feBlend mode="normal" in2="BackgroundImageFix" result="effect1_dropShadow_9559_190813"/>
<feBlend mode="normal" in="SourceGraphic" in2="effect1_dropShadow_9559_190813" result="shape"/>
</filter>
<clipPath id="paint3_diamond_9559_190813_clip_path"><path d="M297 311C297 318.611 303.074 324.803 310.639 324.995L311 325V415C311 423.837 303.837 431 295 431H27C18.1634 431 11 423.837 11 415V325C18.732 325 25 318.732 25 311H24.9639C24.9872 310.67 25 310.336 25 310C25 302.268 18.732 296 11 296V27C11 18.1635 18.1635 11 27 11H295C303.837 11 311 18.1634 311 27V297C303.268 297 297 303.268 297 311Z" shape-rendering="crispEdges"/></clipPath><linearGradient id="paint0_linear_9559_190813" x1="311" y1="221" x2="11" y2="221" gradientUnits="userSpaceOnUse">
<stop stop-color="#666666"/>
<stop offset="0.25" stop-color="white"/>
<stop offset="0.75" stop-color="white"/>
<stop offset="1" stop-color="#666666"/>
</linearGradient>
<linearGradient id="paint1_linear_9559_190813" x1="11" y1="431" x2="154.965" y2="-36.9992" gradientUnits="userSpaceOnUse">
<stop stop-color="white"/>
<stop offset="0.245192" stop-color="#666666"/>
<stop offset="0.75" stop-color="#666666"/>
<stop offset="1" stop-color="white"/>
</linearGradient>
<linearGradient id="paint2_linear_9559_190813" x1="162" y1="-76.5" x2="162" y2="216" gradientUnits="userSpaceOnUse">
<stop stop-color="white"/>
<stop offset="1" stop-color="#CCCCCC" stop-opacity="0"/>
</linearGradient>
<linearGradient id="paint3_diamond_9559_190813" x1="0" y1="0" x2="500" y2="500" gradientUnits="userSpaceOnUse">
<stop stop-color="#26BBFF"/>
<stop offset="1" stop-color="#FFC249"/>
</linearGradient>
<linearGradient id="paint4_linear_9559_190813" x1="311" y1="11" x2="167.035" y2="478.999" gradientUnits="userSpaceOnUse">
<stop stop-color="#FFFDFA"/>
<stop offset="0.25" stop-color="#FFFDFA" stop-opacity="0.8"/>
<stop offset="1" stop-color="#FFFDFA" stop-opacity="0"/>
</linearGradient>
<linearGradient id="paint5_linear_9559_190813" x1="11" y1="431" x2="154.965" y2="-36.9992" gradientUnits="userSpaceOnUse">
<stop stop-color="white"/>
<stop offset="0.245192" stop-color="#666666"/>
<stop offset="0.75" stop-color="#666666"/>
<stop offset="1" stop-color="white"/>
</linearGradient>
</defs>
</svg>
