<svg width="322" height="580" viewBox="0 0 322 580" fill="none" xmlns="http://www.w3.org/2000/svg">
<g filter="url(#filter0_d_11465_230118)">
<path d="M297 449C297 456.611 303.074 462.803 310.639 462.995L311 463V553C311 561.837 303.837 569 295 569H27C18.1634 569 11 561.837 11 553V463C18.732 463 25 456.732 25 449H24.9639C24.9872 448.67 25 448.336 25 448C25 440.268 18.732 434 11 434V27C11 18.1635 18.1635 11 27 11H295C303.837 11 311 18.1634 311 27V435C303.268 435 297 441.268 297 449Z" fill="#260826" fill-opacity="0.6" shape-rendering="crispEdges"/>
<path d="M297 449L296 449L296 449L297 449ZM310.639 462.995L310.613 463.995L310.625 463.995L310.639 462.995ZM311 463H312V462.013L311.014 462L311 463ZM311 553L312 553V553H311ZM295 569L295 570H295L295 569ZM27 569L27 570H27V569ZM11 553L12 553V553H11ZM11 463V462H10V463H11ZM25 449L26 449L26 448H25V449ZM24.9639 449L23.9663 448.93L23.8908 450H24.9639V449ZM11 434H10V435H11V434ZM27 11L27 10L27 10L27 11ZM295 11L295 10H295V11ZM311 27L312 27V27L311 27ZM311 435L311 436L312 436V435H311ZM297 449L296 449C296 457.155 302.508 463.789 310.613 463.995L310.639 462.995L310.664 461.995C303.64 461.817 298 456.067 298 449L297 449ZM310.639 462.995L310.625 463.995L310.986 464L311 463L311.014 462L310.652 461.995L310.639 462.995ZM311 463H310V553H311H312V463H311ZM311 553L310 553C310 561.284 303.284 568 295 568L295 569L295 570C304.389 570 312 562.389 312 553L311 553ZM295 569V568H27V569V570H295V569ZM27 569L27 568C18.7157 568 12 561.284 12 553L11 553L10 553C10 562.389 17.6112 570 27 570L27 569ZM11 553H12V463H11H10V553H11ZM11 463V464C19.2843 464 26 457.284 26 449L25 449L24 449C24 456.18 18.1797 462 11 462V463ZM25 449V448H24.9639V449V450H25V449ZM24.9639 449L25.9614 449.07C25.9862 448.719 26 448.362 26 448H25H24C24 448.311 23.9881 448.621 23.9663 448.93L24.9639 449ZM25 448H26C26 439.716 19.2843 433 11 433V434V435C18.1797 435 24 440.82 24 448H25ZM11 434H12V27H11H10V434H11ZM11 27H12C12 18.7157 18.7157 12 27 12L27 11L27 10C17.6112 10 10 17.6112 10 27H11ZM27 11V12H295V11V10H27V11ZM295 11L295 12C303.284 12 310 18.7157 310 27L311 27L312 27C312 17.6112 304.389 10 295 10L295 11ZM311 27H310V435H311H312V27H311ZM311 435L311 434C302.716 434 296 440.716 296 449H297H298C298 441.82 303.82 436 311 436L311 435Z" fill="url(#paint0_linear_11465_230118)" fill-opacity="0.4"/>
</g>
<mask id="mask0_11465_230118" style="mask-type:alpha" maskUnits="userSpaceOnUse" x="10" y="10" width="302" height="560">
<path d="M297 449C297 456.611 303.074 462.803 310.639 462.995L311 463V553C311 561.837 303.837 569 295 569H27C18.1634 569 11 561.837 11 553V463C18.732 463 25 456.732 25 449V448.999C24.9999 441.267 18.7319 434.999 11 434.999V27C11 18.1635 18.1635 11 27 11H295C303.837 11 311 18.1634 311 27V434.999C303.268 434.999 297 441.267 297 448.999V449Z" fill="#260826" fill-opacity="0.5" shape-rendering="crispEdges"/>
<path d="M297 449L296 449L296 449L297 449ZM310.639 462.995L310.613 463.995L310.625 463.995L310.639 462.995ZM311 463H312V462.013L311.014 462L311 463ZM311 553L312 553V553H311ZM295 569L295 570H295L295 569ZM27 569L27 570H27V569ZM11 553L12 553V553H11ZM11 463V462H10V463H11ZM25 449L26 449V449H25ZM25 448.999L26 448.999L26 448.999L25 448.999ZM11 434.999H10V435.999H11V434.999ZM27 11L27 10L27 10L27 11ZM295 11L295 10H295V11ZM311 27L312 27V27L311 27ZM311 434.999L311 435.999L312 435.999V434.999H311ZM297 448.999L296 448.999V448.999H297ZM297 449L296 449C296 457.155 302.508 463.789 310.613 463.995L310.639 462.995L310.664 461.995C303.64 461.817 298 456.067 298 449L297 449ZM310.639 462.995L310.625 463.995L310.986 464L311 463L311.014 462L310.652 461.995L310.639 462.995ZM311 463H310V553H311H312V463H311ZM311 553L310 553C310 561.284 303.284 568 295 568L295 569L295 570C304.389 570 312 562.389 312 553L311 553ZM295 569V568H27V569V570H295V569ZM27 569L27 568C18.7157 568 12 561.284 12 553L11 553L10 553C10 562.389 17.6112 570 27 570L27 569ZM11 553H12V463H11H10V553H11ZM11 463V464C19.2843 464 26 457.284 26 449L25 449L24 449C24 456.18 18.1797 462 11 462V463ZM25 449H26V448.999H25H24V449H25ZM25 448.999L26 448.999C25.9999 440.715 19.2842 433.999 11 433.999V434.999V435.999C18.1796 435.999 23.9999 441.819 24 448.999L25 448.999ZM11 434.999H12V27H11H10V434.999H11ZM11 27H12C12 18.7157 18.7157 12 27 12L27 11L27 10C17.6112 10 10 17.6112 10 27H11ZM27 11V12H295V11V10H27V11ZM295 11L295 12C303.284 12 310 18.7157 310 27L311 27L312 27C312 17.6112 304.389 10 295 10L295 11ZM311 27H310V434.999H311H312V27H311ZM311 434.999L311 433.999C302.716 433.999 296 440.715 296 448.999L297 448.999L298 448.999C298 441.819 303.82 435.999 311 435.999L311 434.999ZM297 448.999H296V449H297H298V448.999H297Z" fill="url(#paint1_linear_11465_230118)" fill-opacity="0.4"/>
</mask>
<g mask="url(#mask0_11465_230118)">
<g filter="url(#filter1_f_11465_230118)">
<ellipse cx="162.5" cy="203.5" rx="203.5" ry="318.5" fill="url(#paint2_linear_11465_230118)"/>
</g>
</g>
<g filter="url(#filter2_d_11465_230118)">
<g clip-path="url(#paint3_diamond_11465_230118_clip_path)" data-figma-skip-parse="true"><g transform="matrix(0.016 -0.332184 0.429158 0.0157133 151.5 347.108)"><rect x="0" y="0" width="1033.81" height="400.74" fill="url(#paint3_diamond_11465_230118)" opacity="0.15" shape-rendering="crispEdges"/><rect x="0" y="0" width="1033.81" height="400.74" transform="scale(1 -1)" fill="url(#paint3_diamond_11465_230118)" opacity="0.15" shape-rendering="crispEdges"/><rect x="0" y="0" width="1033.81" height="400.74" transform="scale(-1 1)" fill="url(#paint3_diamond_11465_230118)" opacity="0.15" shape-rendering="crispEdges"/><rect x="0" y="0" width="1033.81" height="400.74" transform="scale(-1)" fill="url(#paint3_diamond_11465_230118)" opacity="0.15" shape-rendering="crispEdges"/></g></g><path d="M297 449C297 456.611 303.074 462.803 310.639 462.995L311 463V553C311 561.837 303.837 569 295 569H27C18.1634 569 11 561.837 11 553V463C18.732 463 25 456.732 25 449H24.9639C24.9872 448.67 25 448.336 25 448C25 440.268 18.732 434 11 434V27C11 18.1635 18.1635 11 27 11H295C303.837 11 311 18.1634 311 27V435C303.268 435 297 441.268 297 449Z" data-figma-gradient-fill="{&#34;type&#34;:&#34;GRADIENT_DIAMOND&#34;,&#34;stops&#34;:[{&#34;color&#34;:{&#34;r&#34;:0.14901961386203766,&#34;g&#34;:0.73333334922790527,&#34;b&#34;:1.0,&#34;a&#34;:1.0},&#34;position&#34;:0.0},{&#34;color&#34;:{&#34;r&#34;:1.0,&#34;g&#34;:0.76203721761703491,&#34;b&#34;:0.28611093759536743,&#34;a&#34;:1.0},&#34;position&#34;:1.0}],&#34;stopsVar&#34;:[{&#34;color&#34;:{&#34;r&#34;:0.14901961386203766,&#34;g&#34;:0.73333334922790527,&#34;b&#34;:1.0,&#34;a&#34;:1.0},&#34;position&#34;:0.0},{&#34;color&#34;:{&#34;r&#34;:1.0,&#34;g&#34;:0.76203721761703491,&#34;b&#34;:0.28611093759536743,&#34;a&#34;:1.0},&#34;position&#34;:1.0}],&#34;transform&#34;:{&#34;m00&#34;:32.0,&#34;m01&#34;:858.315917968750,&#34;m02&#34;:-293.6579589843750,&#34;m10&#34;:-664.36871337890625,&#34;m11&#34;:31.426525115966797,&#34;m12&#34;:663.57891845703125},&#34;opacity&#34;:0.15000000596046448,&#34;blendMode&#34;:&#34;NORMAL&#34;,&#34;visible&#34;:true}" shape-rendering="crispEdges"/>
<path d="M297 449C297 456.611 303.074 462.803 310.639 462.995L311 463V553C311 561.837 303.837 569 295 569H27C18.1634 569 11 561.837 11 553V463C18.732 463 25 456.732 25 449H24.9639C24.9872 448.67 25 448.336 25 448C25 440.268 18.732 434 11 434V27C11 18.1635 18.1635 11 27 11H295C303.837 11 311 18.1634 311 27V435C303.268 435 297 441.268 297 449Z" fill="url(#paint4_linear_11465_230118)" fill-opacity="0.2" shape-rendering="crispEdges"/>
<path d="M297 449L296 449L296 449L297 449ZM310.639 462.995L310.613 463.995L310.625 463.995L310.639 462.995ZM311 463H312V462.013L311.014 462L311 463ZM311 553L312 553V553H311ZM295 569L295 570H295L295 569ZM27 569L27 570H27V569ZM11 553L12 553V553H11ZM11 463V462H10V463H11ZM25 449L26 449L26 448H25V449ZM24.9639 449L23.9663 448.93L23.8908 450H24.9639V449ZM11 434H10V435H11V434ZM27 11L27 10L27 10L27 11ZM295 11L295 10H295V11ZM311 27L312 27V27L311 27ZM311 435L311 436L312 436V435H311ZM297 449L296 449C296 457.155 302.508 463.789 310.613 463.995L310.639 462.995L310.664 461.995C303.64 461.817 298 456.067 298 449L297 449ZM310.639 462.995L310.625 463.995L310.986 464L311 463L311.014 462L310.652 461.995L310.639 462.995ZM311 463H310V553H311H312V463H311ZM311 553L310 553C310 561.284 303.284 568 295 568L295 569L295 570C304.389 570 312 562.389 312 553L311 553ZM295 569V568H27V569V570H295V569ZM27 569L27 568C18.7157 568 12 561.284 12 553L11 553L10 553C10 562.389 17.6112 570 27 570L27 569ZM11 553H12V463H11H10V553H11ZM11 463V464C19.2843 464 26 457.284 26 449L25 449L24 449C24 456.18 18.1797 462 11 462V463ZM25 449V448H24.9639V449V450H25V449ZM24.9639 449L25.9614 449.07C25.9862 448.719 26 448.362 26 448H25H24C24 448.311 23.9881 448.621 23.9663 448.93L24.9639 449ZM25 448H26C26 439.716 19.2843 433 11 433V434V435C18.1797 435 24 440.82 24 448H25ZM11 434H12V27H11H10V434H11ZM11 27H12C12 18.7157 18.7157 12 27 12L27 11L27 10C17.6112 10 10 17.6112 10 27H11ZM27 11V12H295V11V10H27V11ZM295 11L295 12C303.284 12 310 18.7157 310 27L311 27L312 27C312 17.6112 304.389 10 295 10L295 11ZM311 27H310V435H311H312V27H311ZM311 435L311 434C302.716 434 296 440.716 296 449H297H298C298 441.82 303.82 436 311 436L311 435Z" fill="url(#paint5_linear_11465_230118)" fill-opacity="0.4"/>
</g>
<defs>
<filter id="filter0_d_11465_230118" x="0" y="0" width="322" height="580" filterUnits="userSpaceOnUse" color-interpolation-filters="sRGB">
<feFlood flood-opacity="0" result="BackgroundImageFix"/>
<feColorMatrix in="SourceAlpha" type="matrix" values="0 0 0 0 0 0 0 0 0 0 0 0 0 0 0 0 0 0 127 0" result="hardAlpha"/>
<feOffset/>
<feGaussianBlur stdDeviation="5"/>
<feComposite in2="hardAlpha" operator="out"/>
<feColorMatrix type="matrix" values="0 0 0 0 1 0 0 0 0 0.903658 0 0 0 0 0.709722 0 0 0 0.1 0"/>
<feBlend mode="normal" in2="BackgroundImageFix" result="effect1_dropShadow_11465_230118"/>
<feBlend mode="normal" in="SourceGraphic" in2="effect1_dropShadow_11465_230118" result="shape"/>
</filter>
<filter id="filter1_f_11465_230118" x="-119.4" y="-193.4" width="563.8" height="793.8" filterUnits="userSpaceOnUse" color-interpolation-filters="sRGB">
<feFlood flood-opacity="0" result="BackgroundImageFix"/>
<feBlend mode="normal" in="SourceGraphic" in2="BackgroundImageFix" result="shape"/>
<feGaussianBlur stdDeviation="39.2" result="effect1_foregroundBlur_11465_230118"/>
</filter>
<filter id="filter2_d_11465_230118" x="0" y="0" width="322" height="580" filterUnits="userSpaceOnUse" color-interpolation-filters="sRGB">
<feFlood flood-opacity="0" result="BackgroundImageFix"/>
<feColorMatrix in="SourceAlpha" type="matrix" values="0 0 0 0 0 0 0 0 0 0 0 0 0 0 0 0 0 0 127 0" result="hardAlpha"/>
<feOffset/>
<feGaussianBlur stdDeviation="5"/>
<feComposite in2="hardAlpha" operator="out"/>
<feColorMatrix type="matrix" values="0 0 0 0 1 0 0 0 0 0.903658 0 0 0 0 0.709722 0 0 0 0.1 0"/>
<feBlend mode="normal" in2="BackgroundImageFix" result="effect1_dropShadow_11465_230118"/>
<feBlend mode="normal" in="SourceGraphic" in2="effect1_dropShadow_11465_230118" result="shape"/>
</filter>
<clipPath id="paint3_diamond_11465_230118_clip_path"><path d="M297 449C297 456.611 303.074 462.803 310.639 462.995L311 463V553C311 561.837 303.837 569 295 569H27C18.1634 569 11 561.837 11 553V463C18.732 463 25 456.732 25 449H24.9639C24.9872 448.67 25 448.336 25 448C25 440.268 18.732 434 11 434V27C11 18.1635 18.1635 11 27 11H295C303.837 11 311 18.1634 311 27V435C303.268 435 297 441.268 297 449Z" shape-rendering="crispEdges"/></clipPath><linearGradient id="paint0_linear_11465_230118" x1="311" y1="290" x2="11" y2="290" gradientUnits="userSpaceOnUse">
<stop stop-color="#666666"/>
<stop offset="0.25" stop-color="white"/>
<stop offset="0.75" stop-color="white"/>
<stop offset="1" stop-color="#666666"/>
</linearGradient>
<linearGradient id="paint1_linear_11465_230118" x1="311" y1="290" x2="11" y2="290" gradientUnits="userSpaceOnUse">
<stop stop-color="#666666"/>
<stop offset="0.25" stop-color="white"/>
<stop offset="0.75" stop-color="white"/>
<stop offset="1" stop-color="#666666"/>
</linearGradient>
<linearGradient id="paint2_linear_11465_230118" x1="162" y1="-76.5" x2="162" y2="216" gradientUnits="userSpaceOnUse">
<stop stop-color="white"/>
<stop offset="1" stop-color="#CCCCCC" stop-opacity="0"/>
</linearGradient>
<linearGradient id="paint3_diamond_11465_230118" x1="0" y1="0" x2="500" y2="500" gradientUnits="userSpaceOnUse">
<stop stop-color="#26BBFF"/>
<stop offset="1" stop-color="#FFC249"/>
</linearGradient>
<linearGradient id="paint4_linear_11465_230118" x1="311" y1="11" x2="72.6525" y2="594.197" gradientUnits="userSpaceOnUse">
<stop stop-color="#FFFDFA"/>
<stop offset="0.25" stop-color="#FFFDFA" stop-opacity="0.8"/>
<stop offset="1" stop-color="#FFFDFA" stop-opacity="0"/>
</linearGradient>
<linearGradient id="paint5_linear_11465_230118" x1="11" y1="569" x2="249.348" y2="-14.1968" gradientUnits="userSpaceOnUse">
<stop stop-color="white"/>
<stop offset="0.245192" stop-color="#666666"/>
<stop offset="0.75" stop-color="#666666"/>
<stop offset="1" stop-color="white"/>
</linearGradient>
</defs>
</svg>
