<svg width="322" height="373" viewBox="0 0 322 373" fill="none" xmlns="http://www.w3.org/2000/svg">
<g id="background_4:3_red">
<g id="background_4:3_yellow" filter="url(#filter0_d_9559_190806)">
<path d="M297 242C297 249.611 303.074 255.803 310.639 255.995L311 256V346C311 354.837 303.837 362 295 362H27C18.1636 362 11 354.836 11 346V256C18.732 256 25 249.732 25 242C25 234.268 18.732 228 11 228V27C11 18.1635 18.1635 11 27 11H295C303.837 11 311 18.1634 311 27V229C303.604 229 297.549 234.735 297.036 242H297Z" fill="#262108" fill-opacity="0.6" shape-rendering="crispEdges"/>
<path d="M297 242V241H296L296 242L297 242ZM310.639 255.995L310.613 256.995L310.625 256.995L310.639 255.995ZM311 256H312V255.013L311.014 255L311 256ZM311 346L312 346V346H311ZM295 362L295 363H295L295 362ZM27 362L27 363H27V362ZM11 346L12 346V346H11ZM11 256V255H10V256H11ZM25 242L26 242V242H25ZM11 228H10V229H11V228ZM27 11L27 10L27 10L27 11ZM295 11L295 10H295V11ZM311 27L312 27V27L311 27ZM311 229V230H312V229H311ZM297.036 242V243H297.968L298.034 242.07L297.036 242ZM297 242L296 242C296 250.155 302.508 256.789 310.613 256.995L310.639 255.995L310.664 254.995C303.64 254.817 298 249.067 298 242L297 242ZM310.639 255.995L310.625 256.995L310.986 257L311 256L311.014 255L310.652 254.995L310.639 255.995ZM311 256H310V346H311H312V256H311ZM311 346L310 346C310 354.284 303.284 361 295 361L295 362L295 363C304.389 363 312 355.389 312 346L311 346ZM295 362V361H27V362V363H295V362ZM27 362L27 361C18.7158 361 12 354.284 12 346L11 346L10 346C10 355.389 17.6113 363 27 363L27 362ZM11 346H12V256H11H10V346H11ZM11 256V257C19.2843 257 26 250.284 26 242L25 242L24 242C24 249.18 18.1797 255 11 255V256ZM25 242H26C26 233.716 19.2843 227 11 227V228V229C18.1797 229 24 234.82 24 242H25ZM11 228H12V27H11H10V228H11ZM11 27H12C12 18.7157 18.7157 12 27 12L27 11L27 10C17.6112 10 10 17.6112 10 27H11ZM27 11V12H295V11V10H27V11ZM295 11L295 12C303.284 12 310 18.7157 310 27L311 27L312 27C312 17.6112 304.389 10 295 10L295 11ZM311 27H310V229H311H312V27H311ZM311 229V228C303.075 228 296.588 234.145 296.039 241.93L297.036 242L298.034 242.07C298.51 235.325 304.133 230 311 230V229ZM297.036 242V241H297V242V243H297.036V242Z" fill="url(#paint0_linear_9559_190806)" fill-opacity="0.4"/>
</g>
<g id="mask_4:3">
<g id="Mask group">
<mask id="mask0_9559_190806" style="mask-type:alpha" maskUnits="userSpaceOnUse" x="10" y="10" width="302" height="353">
<g id="Union">
<path d="M297 242C297 249.611 303.074 255.803 310.639 255.995L311 256V346C311 354.837 303.837 362 295 362H27C18.1636 362 11 354.836 11 346V256C18.732 256 25 249.732 25 242C25 234.268 18.732 228 11 228V27C11 18.1635 18.1635 11 27 11H295C303.837 11 311 18.1634 311 27V229C303.604 229 297.549 234.735 297.036 242H297Z" fill="#260826" fill-opacity="0.5" shape-rendering="crispEdges"/>
<path d="M297 242V241H296L296 242L297 242ZM310.639 255.995L310.613 256.995L310.625 256.995L310.639 255.995ZM311 256H312V255.013L311.014 255L311 256ZM311 346L312 346V346H311ZM295 362L295 363H295L295 362ZM27 362L27 363H27V362ZM11 346L12 346V346H11ZM11 256V255H10V256H11ZM25 242L26 242V242H25ZM11 228H10V229H11V228ZM27 11L27 10L27 10L27 11ZM295 11L295 10H295V11ZM311 27L312 27V27L311 27ZM311 229V230H312V229H311ZM297.036 242V243H297.968L298.034 242.07L297.036 242ZM297 242L296 242C296 250.155 302.508 256.789 310.613 256.995L310.639 255.995L310.664 254.995C303.64 254.817 298 249.067 298 242L297 242ZM310.639 255.995L310.625 256.995L310.986 257L311 256L311.014 255L310.652 254.995L310.639 255.995ZM311 256H310V346H311H312V256H311ZM311 346L310 346C310 354.284 303.284 361 295 361L295 362L295 363C304.389 363 312 355.389 312 346L311 346ZM295 362V361H27V362V363H295V362ZM27 362L27 361C18.7158 361 12 354.284 12 346L11 346L10 346C10 355.389 17.6113 363 27 363L27 362ZM11 346H12V256H11H10V346H11ZM11 256V257C19.2843 257 26 250.284 26 242L25 242L24 242C24 249.18 18.1797 255 11 255V256ZM25 242H26C26 233.716 19.2843 227 11 227V228V229C18.1797 229 24 234.82 24 242H25ZM11 228H12V27H11H10V228H11ZM11 27H12C12 18.7157 18.7157 12 27 12L27 11L27 10C17.6112 10 10 17.6112 10 27H11ZM27 11V12H295V11V10H27V11ZM295 11L295 12C303.284 12 310 18.7157 310 27L311 27L312 27C312 17.6112 304.389 10 295 10L295 11ZM311 27H310V229H311H312V27H311ZM311 229V228C303.075 228 296.588 234.145 296.039 241.93L297.036 242L298.034 242.07C298.51 235.325 304.133 230 311 230V229ZM297.036 242V241H297V242V243H297.036V242Z" fill="url(#paint1_linear_9559_190806)" fill-opacity="0.4"/>
</g>
</mask>
<g mask="url(#mask0_9559_190806)">
<g id="Ellipse 4205" filter="url(#filter1_f_9559_190806)">
<ellipse cx="162.5" cy="203.5" rx="203.5" ry="318.5" fill="url(#paint2_linear_9559_190806)"/>
</g>
</g>
</g>
<g id="Union_2" filter="url(#filter2_d_9559_190806)">
<g clip-path="url(#paint3_diamond_9559_190806_clip_path)" data-figma-skip-parse="true"><g transform="matrix(0.016 -0.208955 0.429158 0.00988415 151.5 222.423)"><rect x="0" y="0" width="1037.35" height="400.872" fill="url(#paint3_diamond_9559_190806)" opacity="0.15" shape-rendering="crispEdges"/><rect x="0" y="0" width="1037.35" height="400.872" transform="scale(1 -1)" fill="url(#paint3_diamond_9559_190806)" opacity="0.15" shape-rendering="crispEdges"/><rect x="0" y="0" width="1037.35" height="400.872" transform="scale(-1 1)" fill="url(#paint3_diamond_9559_190806)" opacity="0.15" shape-rendering="crispEdges"/><rect x="0" y="0" width="1037.35" height="400.872" transform="scale(-1)" fill="url(#paint3_diamond_9559_190806)" opacity="0.15" shape-rendering="crispEdges"/></g></g><path d="M297 242C297 249.611 303.074 255.803 310.639 255.995L311 256V346C311 354.837 303.837 362 295 362H27C18.1636 362 11 354.836 11 346V256C18.732 256 25 249.732 25 242C25 234.268 18.732 228 11 228V27C11 18.1635 18.1635 11 27 11H295C303.837 11 311 18.1634 311 27V229C303.604 229 297.549 234.735 297.036 242H297Z" data-figma-gradient-fill="{&#34;type&#34;:&#34;GRADIENT_DIAMOND&#34;,&#34;stops&#34;:[{&#34;color&#34;:{&#34;r&#34;:0.14901961386203766,&#34;g&#34;:0.73333334922790527,&#34;b&#34;:1.0,&#34;a&#34;:1.0},&#34;position&#34;:0.0},{&#34;color&#34;:{&#34;r&#34;:1.0,&#34;g&#34;:0.76203721761703491,&#34;b&#34;:0.28611093759536743,&#34;a&#34;:1.0},&#34;position&#34;:1.0}],&#34;stopsVar&#34;:[{&#34;color&#34;:{&#34;r&#34;:0.14901961386203766,&#34;g&#34;:0.73333334922790527,&#34;b&#34;:1.0,&#34;a&#34;:1.0},&#34;position&#34;:0.0},{&#34;color&#34;:{&#34;r&#34;:1.0,&#34;g&#34;:0.76203721761703491,&#34;b&#34;:0.28611093759536743,&#34;a&#34;:1.0},&#34;position&#34;:1.0}],&#34;transform&#34;:{&#34;m00&#34;:32.0,&#34;m01&#34;:858.315917968750,&#34;m02&#34;:-293.6579589843750,&#34;m10&#34;:-417.90936279296875,&#34;m11&#34;:19.768299102783203,&#34;m12&#34;:421.49319458007812},&#34;opacity&#34;:0.15000000596046448,&#34;blendMode&#34;:&#34;NORMAL&#34;,&#34;visible&#34;:true}" shape-rendering="crispEdges"/>
<path d="M297 242C297 249.611 303.074 255.803 310.639 255.995L311 256V346C311 354.837 303.837 362 295 362H27C18.1636 362 11 354.836 11 346V256C18.732 256 25 249.732 25 242C25 234.268 18.732 228 11 228V27C11 18.1635 18.1635 11 27 11H295C303.837 11 311 18.1634 311 27V229C303.604 229 297.549 234.735 297.036 242H297Z" fill="url(#paint4_linear_9559_190806)" fill-opacity="0.2" shape-rendering="crispEdges"/>
<path d="M297 242V241H296L296 242L297 242ZM310.639 255.995L310.613 256.995L310.625 256.995L310.639 255.995ZM311 256H312V255.013L311.014 255L311 256ZM311 346L312 346V346H311ZM295 362L295 363H295L295 362ZM27 362L27 363H27V362ZM11 346L12 346V346H11ZM11 256V255H10V256H11ZM25 242L26 242V242H25ZM11 228H10V229H11V228ZM27 11L27 10L27 10L27 11ZM295 11L295 10H295V11ZM311 27L312 27V27L311 27ZM311 229V230H312V229H311ZM297.036 242V243H297.968L298.034 242.07L297.036 242ZM297 242L296 242C296 250.155 302.508 256.789 310.613 256.995L310.639 255.995L310.664 254.995C303.64 254.817 298 249.067 298 242L297 242ZM310.639 255.995L310.625 256.995L310.986 257L311 256L311.014 255L310.652 254.995L310.639 255.995ZM311 256H310V346H311H312V256H311ZM311 346L310 346C310 354.284 303.284 361 295 361L295 362L295 363C304.389 363 312 355.389 312 346L311 346ZM295 362V361H27V362V363H295V362ZM27 362L27 361C18.7158 361 12 354.284 12 346L11 346L10 346C10 355.389 17.6113 363 27 363L27 362ZM11 346H12V256H11H10V346H11ZM11 256V257C19.2843 257 26 250.284 26 242L25 242L24 242C24 249.18 18.1797 255 11 255V256ZM25 242H26C26 233.716 19.2843 227 11 227V228V229C18.1797 229 24 234.82 24 242H25ZM11 228H12V27H11H10V228H11ZM11 27H12C12 18.7157 18.7157 12 27 12L27 11L27 10C17.6112 10 10 17.6112 10 27H11ZM27 11V12H295V11V10H27V11ZM295 11L295 12C303.284 12 310 18.7157 310 27L311 27L312 27C312 17.6112 304.389 10 295 10L295 11ZM311 27H310V229H311H312V27H311ZM311 229V228C303.075 228 296.588 234.145 296.039 241.93L297.036 242L298.034 242.07C298.51 235.325 304.133 230 311 230V229ZM297.036 242V241H297V242V243H297.036V242Z" fill="url(#paint5_linear_9559_190806)" fill-opacity="0.4"/>
</g>
</g>
</g>
<defs>
<filter id="filter0_d_9559_190806" x="0" y="0" width="322" height="373" filterUnits="userSpaceOnUse" color-interpolation-filters="sRGB">
<feFlood flood-opacity="0" result="BackgroundImageFix"/>
<feColorMatrix in="SourceAlpha" type="matrix" values="0 0 0 0 0 0 0 0 0 0 0 0 0 0 0 0 0 0 127 0" result="hardAlpha"/>
<feOffset/>
<feGaussianBlur stdDeviation="5"/>
<feComposite in2="hardAlpha" operator="out"/>
<feColorMatrix type="matrix" values="0 0 0 0 1 0 0 0 0 0.903658 0 0 0 0 0.709722 0 0 0 0.1 0"/>
<feBlend mode="normal" in2="BackgroundImageFix" result="effect1_dropShadow_9559_190806"/>
<feBlend mode="normal" in="SourceGraphic" in2="effect1_dropShadow_9559_190806" result="shape"/>
</filter>
<filter id="filter1_f_9559_190806" x="-119.4" y="-193.4" width="563.8" height="793.8" filterUnits="userSpaceOnUse" color-interpolation-filters="sRGB">
<feFlood flood-opacity="0" result="BackgroundImageFix"/>
<feBlend mode="normal" in="SourceGraphic" in2="BackgroundImageFix" result="shape"/>
<feGaussianBlur stdDeviation="39.2" result="effect1_foregroundBlur_9559_190806"/>
</filter>
<filter id="filter2_d_9559_190806" x="0" y="0" width="322" height="373" filterUnits="userSpaceOnUse" color-interpolation-filters="sRGB">
<feFlood flood-opacity="0" result="BackgroundImageFix"/>
<feColorMatrix in="SourceAlpha" type="matrix" values="0 0 0 0 0 0 0 0 0 0 0 0 0 0 0 0 0 0 127 0" result="hardAlpha"/>
<feOffset/>
<feGaussianBlur stdDeviation="5"/>
<feComposite in2="hardAlpha" operator="out"/>
<feColorMatrix type="matrix" values="0 0 0 0 1 0 0 0 0 0.903658 0 0 0 0 0.709722 0 0 0 0.1 0"/>
<feBlend mode="normal" in2="BackgroundImageFix" result="effect1_dropShadow_9559_190806"/>
<feBlend mode="normal" in="SourceGraphic" in2="effect1_dropShadow_9559_190806" result="shape"/>
</filter>
<clipPath id="paint3_diamond_9559_190806_clip_path"><path d="M297 242C297 249.611 303.074 255.803 310.639 255.995L311 256V346C311 354.837 303.837 362 295 362H27C18.1636 362 11 354.836 11 346V256C18.732 256 25 249.732 25 242C25 234.268 18.732 228 11 228V27C11 18.1635 18.1635 11 27 11H295C303.837 11 311 18.1634 311 27V229C303.604 229 297.549 234.735 297.036 242H297Z" shape-rendering="crispEdges"/></clipPath><linearGradient id="paint0_linear_9559_190806" x1="311" y1="186.5" x2="11" y2="186.5" gradientUnits="userSpaceOnUse">
<stop stop-color="#666666"/>
<stop offset="0.25" stop-color="white"/>
<stop offset="0.75" stop-color="white"/>
<stop offset="1" stop-color="#666666"/>
</linearGradient>
<linearGradient id="paint1_linear_9559_190806" x1="11" y1="362" x2="114.239" y2="-39.5833" gradientUnits="userSpaceOnUse">
<stop stop-color="white"/>
<stop offset="0.245192" stop-color="#666666"/>
<stop offset="0.75" stop-color="#666666"/>
<stop offset="1" stop-color="white"/>
</linearGradient>
<linearGradient id="paint2_linear_9559_190806" x1="162" y1="-76.5" x2="162" y2="216" gradientUnits="userSpaceOnUse">
<stop stop-color="white"/>
<stop offset="1" stop-color="#CCCCCC" stop-opacity="0"/>
</linearGradient>
<linearGradient id="paint3_diamond_9559_190806" x1="0" y1="0" x2="500" y2="500" gradientUnits="userSpaceOnUse">
<stop stop-color="#26BBFF"/>
<stop offset="1" stop-color="#FFC249"/>
</linearGradient>
<linearGradient id="paint4_linear_9559_190806" x1="311" y1="11" x2="207.761" y2="412.583" gradientUnits="userSpaceOnUse">
<stop stop-color="#FFFDFA"/>
<stop offset="0.25" stop-color="#FFFDFA" stop-opacity="0.8"/>
<stop offset="1" stop-color="#FFFDFA" stop-opacity="0"/>
</linearGradient>
<linearGradient id="paint5_linear_9559_190806" x1="11" y1="362" x2="114.239" y2="-39.5833" gradientUnits="userSpaceOnUse">
<stop stop-color="white"/>
<stop offset="0.245192" stop-color="#666666"/>
<stop offset="0.75" stop-color="#666666"/>
<stop offset="1" stop-color="white"/>
</linearGradient>
</defs>
</svg>
