<svg width="322" height="662" viewBox="0 0 322 662" fill="none" xmlns="http://www.w3.org/2000/svg">
<g id="background_9:16_purple" filter="url(#filter0_d_9559_189121)">
<path d="M297 526C297 533.732 303.268 540 311 540V635C311 643.837 303.837 651 295 651H27C18.1634 651 11 643.837 11 635V540C18.732 540 25 533.732 25 526C25 518.268 18.7319 512 11 512V27C11.0001 18.1635 18.1635 11 27 11H295C303.836 11.0001 311 18.1635 311 27V512C303.268 512 297 518.268 297 526Z" fill="#0D0826" fill-opacity="0.6" shape-rendering="crispEdges"/>
<path d="M311 540H312V539H311V540ZM311 635L310 635V635L311 635ZM295 651L295 652H295L295 651ZM27 651L27 652H27V651ZM11 540V539H10V540H11ZM11 512H10V513L11 513L11 512ZM11 27L10 27V27H11ZM27 11L27 10L27 10L27 11ZM295 11L295 10H295V11ZM311 27L312 27L312 27L311 27ZM311 512V513H312V512H311ZM297 526H296C296 534.284 302.716 541 311 541V540V539C303.82 539 298 533.18 298 526H297ZM311 540H310V635H311H312V540H311ZM311 635L310 635C310 643.284 303.284 650 295 650L295 651L295 652C304.389 652 312 644.389 312 635L311 635ZM295 651V650H27V651V652H295V651ZM27 651L27 650C18.7157 650 12 643.284 12 635H11H10C10 644.389 17.6112 652 27 652L27 651ZM11 635H12V540H11H10V635H11ZM11 540V541C19.2843 541 26 534.284 26 526H25H24C24 533.18 18.1797 539 11 539V540ZM25 526H26C26 517.716 19.2842 511 11 511L11 512L11 513C18.1797 513 24 518.82 24 526H25ZM11 512H12V27H11H10V512H11ZM11 27L12 27C12.0001 18.7158 18.7158 12 27 12L27 11L27 10C17.6112 10 10.0001 17.6112 10 27L11 27ZM27 11V12H295V11V10H27V11ZM295 11L295 12C303.284 12.0001 310 18.7158 310 27L311 27L312 27C312 17.6112 304.389 10.0001 295 10L295 11ZM311 27H310V512H311H312V27H311ZM311 512V511C302.716 511 296 517.716 296 526H297H298C298 518.82 303.82 513 311 513V512Z" fill="url(#paint0_linear_9559_189121)" fill-opacity="0.4"/>
</g>
<defs>
<filter id="filter0_d_9559_189121" x="0" y="0" width="322" height="662" filterUnits="userSpaceOnUse" color-interpolation-filters="sRGB">
<feFlood flood-opacity="0" result="BackgroundImageFix"/>
<feColorMatrix in="SourceAlpha" type="matrix" values="0 0 0 0 0 0 0 0 0 0 0 0 0 0 0 0 0 0 127 0" result="hardAlpha"/>
<feOffset/>
<feGaussianBlur stdDeviation="5"/>
<feComposite in2="hardAlpha" operator="out"/>
<feColorMatrix type="matrix" values="0 0 0 0 1 0 0 0 0 0.903658 0 0 0 0 0.709722 0 0 0 0.1 0"/>
<feBlend mode="normal" in2="BackgroundImageFix" result="effect1_dropShadow_9559_189121"/>
<feBlend mode="normal" in="SourceGraphic" in2="effect1_dropShadow_9559_189121" result="shape"/>
</filter>
<linearGradient id="paint0_linear_9559_189121" x1="311" y1="331" x2="11" y2="331" gradientUnits="userSpaceOnUse">
<stop stop-color="#666666"/>
<stop offset="0.25" stop-color="white"/>
<stop offset="0.75" stop-color="white"/>
<stop offset="1" stop-color="#666666"/>
</linearGradient>
</defs>
</svg>
