<svg width="34" height="34" viewBox="0 0 34 34" fill="none" xmlns="http://www.w3.org/2000/svg">
<g id="&#229;&#188;&#128;&#230;&#139;&#141;">
<rect x="1" y="1" width="32" height="32" rx="6" fill="#26231B"/>
<rect x="1" y="1" width="32" height="32" rx="6" stroke="#E6C78A" stroke-width="1.6"/>
<g id="Group 1171276148">
<g id="Group 1171276147">
<rect id="Rectangle 61" x="8.35547" y="14.1372" width="17.7439" height="11.9611" rx="1.5" stroke="#FFFDFA" stroke-linecap="round"/>
<path id="Rectangle 50" d="M7.85547 16.6277L26.5993 16.6277V14.8367C26.5993 14.1739 26.0621 13.6367 25.3993 13.6367L9.05547 13.6367C8.39273 13.6367 7.85547 14.1739 7.85547 14.8367V16.6277Z" fill="#FFC249"/>
<path id="Polygon 25" d="M19.802 19.9006C20.3353 20.2085 20.3353 20.9783 19.802 21.2862L16.802 23.0183C16.2686 23.3262 15.602 22.9413 15.602 22.3255L15.602 18.8614C15.602 18.2455 16.2686 17.8606 16.802 18.1685L19.802 19.9006Z" fill="#26BBFF"/>
</g>
<path id="Rectangle 62" d="M7.88363 12.9587C8.06224 13.5969 8.72744 13.9807 9.36939 13.8161L25.0717 9.7877C25.7136 9.62301 26.0893 8.97212 25.9106 8.3339L25.4686 6.75447C25.4448 6.66937 25.3561 6.61819 25.2705 6.64015L7.55347 11.1854C7.46787 11.2073 7.41779 11.2941 7.44161 11.3792L7.88363 12.9587Z" fill="#FFC249"/>
</g>
</g>
</svg>
