<svg width="34" height="35" viewBox="0 0 34 35" fill="none" xmlns="http://www.w3.org/2000/svg">
<g id="&#229;&#188;&#128;&#230;&#139;&#141;">
<rect x="1" y="1.5" width="32" height="32" rx="6" fill="#191816"/>
<rect x="1" y="1.5" width="32" height="32" rx="6" stroke="#E1DCD0" stroke-width="1.6"/>
<g id="Group 1171276200">
<g id="Group 1171276147">
<rect id="Rectangle 61" x="8.25547" y="14.5362" width="17.9439" height="12.1611" rx="0.8" stroke="#FFFDFA" stroke-width="0.8" stroke-linecap="round"/>
<path id="Rectangle 50" d="M7.85547 17.1267L26.5993 17.1267V15.3357C26.5993 14.6729 26.0621 14.1357 25.3993 14.1357L9.05547 14.1357C8.39273 14.1357 7.85547 14.6729 7.85547 15.3357V17.1267Z" fill="#FFC249"/>
<path id="Polygon 25" d="M19.802 20.3999C20.3353 20.7078 20.3353 21.4776 19.802 21.7855L16.802 23.5175C16.2686 23.8255 15.602 23.4406 15.602 22.8247L15.602 19.3606C15.602 18.7448 16.2686 18.3599 16.802 18.6678L19.802 20.3999Z" fill="#26BBFF"/>
</g>
<path id="Rectangle 62" d="M7.88363 13.4579C8.06224 14.0961 8.72744 14.48 9.36939 14.3153L25.0717 10.287C25.7136 10.1223 26.0893 9.47139 25.9106 8.83317L25.4686 7.25373C25.4448 7.16864 25.3561 7.11745 25.2705 7.13941L7.55347 11.6847C7.46787 11.7066 7.41779 11.7934 7.44161 11.8785L7.88363 13.4579Z" fill="#FFC249"/>
</g>
</g>
</svg>
