<svg width="42" height="42" viewBox="0 0 42 42" fill="none" xmlns="http://www.w3.org/2000/svg">
<g id="ask ai">
<rect x="1" y="1" width="40" height="40" rx="8" fill="#191816"/>
<rect x="1" y="1" width="40" height="40" rx="8" stroke="#E1DCD0" stroke-width="2"/>
<g id="&#230;&#153;&#186;&#232;&#131;&#189;&#228;&#189;&#147;&#229;&#175;&#185;&#232;&#175;&#157;">
<g id="Group 1171276078">
<path id="Star 1" d="M18.6008 13.9009L19.2973 17.1601C19.8162 19.5885 21.7132 21.4855 24.1416 22.0044L27.4008 22.7009L24.1416 23.3973C21.7132 23.9163 19.8162 25.8133 19.2972 28.2417L18.6008 31.5009L17.9043 28.2417C17.3854 25.8133 15.4884 23.9163 13.06 23.3973L9.80078 22.7009L13.06 22.0044C15.4884 21.4855 17.3854 19.5885 17.9043 17.1601L18.6008 13.9009Z" fill="#FFC249" stroke="#FFC249" stroke-width="0.777778" stroke-linejoin="round"/>
<path id="Star 2" d="M29.0008 26.7002L29.1851 27.5628C29.4158 28.6421 30.2589 29.4852 31.3382 29.7159L32.2008 29.9002L31.3382 30.0845C30.2589 30.3152 29.4158 31.1583 29.1851 32.2376L29.0008 33.1002L28.8164 32.2376C28.5858 31.1583 27.7427 30.3152 26.6634 30.0845L25.8008 29.9002L26.6634 29.7159C27.7427 29.4852 28.5858 28.6421 28.8164 27.5628L29.0008 26.7002Z" fill="#26BBFF" stroke="#26BBFF" stroke-width="0.777778" stroke-linejoin="round"/>
<path id="Star 3" d="M26.6008 9.10059L26.9721 10.838C27.2604 12.1871 28.3143 13.241 29.6634 13.5293L31.4008 13.9006L29.6634 14.2719C28.3143 14.5602 27.2604 15.6141 26.9721 16.9632L26.6008 18.7006L26.2295 16.9632C25.9412 15.6141 24.8873 14.5602 23.5382 14.2719L21.8008 13.9006L23.5382 13.5293C24.8873 13.241 25.9412 12.1871 26.2295 10.838L26.6008 9.10059Z" fill="#26BBFF" stroke="#26BBFF" stroke-width="0.777778" stroke-linejoin="round"/>
</g>
</g>
</g>
</svg>
