<svg width="42" height="42" viewBox="0 0 42 42" fill="none" xmlns="http://www.w3.org/2000/svg">
<g id="ask ai">
<rect x="1" y="1" width="40" height="40" rx="8" fill="#26231B"/>
<rect x="1" y="1" width="40" height="40" rx="8" stroke="#E6B08A" stroke-width="2"/>
<g id="&#230;&#153;&#186;&#232;&#131;&#189;&#228;&#189;&#147;&#229;&#175;&#185;&#232;&#175;&#157;">
<g id="Group 1171276078">
<path id="Star 1" d="M18.6008 13.8975L19.2972 17.1566C19.8162 19.585 21.7132 21.4821 24.1416 22.001L27.4008 22.6975L24.1416 23.3939C21.7132 23.9129 19.8162 25.8099 19.2972 28.2383L18.6008 31.4975L17.9043 28.2383C17.3854 25.8099 15.4884 23.9129 13.06 23.3939L9.80078 22.6975L13.06 22.001C15.4884 21.4821 17.3854 19.585 17.9043 17.1566L18.6008 13.8975Z" fill="#FFC249" stroke="#FFC249" stroke-width="0.777778" stroke-linejoin="round"/>
<path id="Star 2" d="M29.0008 26.6997L29.1851 27.5623C29.4158 28.6416 30.2589 29.4847 31.3382 29.7154L32.2008 29.8997L31.3382 30.084C30.2589 30.3147 29.4158 31.1578 29.1851 32.2371L29.0008 33.0997L28.8164 32.2371C28.5858 31.1578 27.7427 30.3147 26.6634 30.084L25.8008 29.8997L26.6634 29.7154C27.7427 29.4847 28.5858 28.6416 28.8164 27.5623L29.0008 26.6997Z" fill="#26BBFF" stroke="#26BBFF" stroke-width="0.777778" stroke-linejoin="round"/>
<path id="Star 3" d="M26.6008 9.09863L26.9721 10.8361C27.2604 12.1852 28.3143 13.2391 29.6634 13.5274L31.4008 13.8986L29.6634 14.2699C28.3143 14.5582 27.2604 15.6121 26.9721 16.9612L26.6008 18.6986L26.2295 16.9612C25.9412 15.6121 24.8873 14.5582 23.5382 14.2699L21.8008 13.8986L23.5382 13.5274C24.8873 13.2391 25.9412 12.1852 26.2295 10.8361L26.6008 9.09863Z" fill="#26BBFF" stroke="#26BBFF" stroke-width="0.777778" stroke-linejoin="round"/>
</g>
</g>
</g>
</svg>
