<svg width="40" height="40" viewBox="0 0 40 40" fill="none" xmlns="http://www.w3.org/2000/svg">
<g id="&#229;&#136;&#155;&#228;&#189;&#156;&#232;&#128;&#133;">
<g id="Frame 1171276110">
<g id="Group 1171275877">
<path id="Rectangle 34624720" d="M10 11C10 9.89543 10.8954 9 12 9H28C29.1046 9 30 9.89543 30 11V20.5279C30 20.8384 29.9277 21.1446 29.7889 21.4223L28.2111 24.5777C28.0723 24.8554 28 25.1616 28 25.4721V33C28 34.1046 27.1046 35 26 35H14C12.8954 35 12 34.1046 12 33V25.4721C12 25.1616 11.9277 24.8554 11.7889 24.5777L10.2111 21.4223C10.0723 21.1446 10 20.8384 10 20.5279V11Z" fill="#423C2B" stroke="#E1DCD0"/>
<rect id="Rectangle 34624721" x="13.5" y="12.5" width="13" height="7" rx="1.5" fill="#A8A292" stroke="#A8A292"/>
<rect id="Rectangle 34624722" x="14.5" y="23.5" width="7" height="1" rx="0.5" fill="#5C5C5C" stroke="#A8A292"/>
<rect id="Rectangle 34624723" x="14.5" y="27.5" width="11" height="1" rx="0.5" fill="#5C5C5C" stroke="#A8A292"/>
<path id="Rectangle 34624724" d="M13 6C13 5.44772 13.4477 5 14 5H16C16.5523 5 17 5.44772 17 6V9H13V6Z" fill="#E1DCD0"/>
<path id="Rectangle 34624725" d="M19 6.5C19 6.22386 19.2239 6 19.5 6H20.5C20.7761 6 21 6.22386 21 6.5V8.5C21 8.77614 20.7761 9 20.5 9H19.5C19.2239 9 19 8.77614 19 8.5V6.5Z" fill="#E1DCD0"/>
</g>
</g>
</g>
</svg>
