<svg width="64" height="64" viewBox="0 0 64 64" fill="none" xmlns="http://www.w3.org/2000/svg">
<g id="&#232;&#175;&#132;&#232;&#174;&#186;" filter="url(#filter0_d_7957_65039)">
<g id="Group 1171276210">
<g id="Union">
<mask id="path-1-outside-1_7957_65039" maskUnits="userSpaceOnUse" x="10" y="10" width="44" height="44" fill="black">
<rect fill="white" x="10" y="10" width="44" height="44"/>
<path d="M32 12C43.0457 12 52 20.9543 52 32C52 43.0457 43.0457 52 32 52H14C12.8954 52 12 51.1046 12 50V32C12 20.9543 20.9543 12 32 12Z"/>
</mask>
<path d="M32 12C43.0457 12 52 20.9543 52 32C52 43.0457 43.0457 52 32 52H14C12.8954 52 12 51.1046 12 50V32C12 20.9543 20.9543 12 32 12Z" fill="#26231B"/>
<path d="M32 12V14C41.9411 14 50 22.0589 50 32H52H54C54 19.8497 44.1503 10 32 10V12ZM52 32H50C50 41.9411 41.9411 50 32 50V52V54C44.1503 54 54 44.1503 54 32H52ZM32 52V50H14V52V54H32V52ZM12 50H14V32H12H10V50H12ZM12 32H14C14 22.0589 22.0589 14 32 14V12V10C19.8497 10 10 19.8497 10 32H12ZM14 52V50L14 50H12H10C10 52.2091 11.7909 54 14 54V52Z" fill="#423C2B" mask="url(#path-1-outside-1_7957_65039)"/>
</g>
</g>
</g>
<defs>
<filter id="filter0_d_7957_65039" x="-2" y="-2" width="68" height="68" filterUnits="userSpaceOnUse" color-interpolation-filters="sRGB">
<feFlood flood-opacity="0" result="BackgroundImageFix"/>
<feColorMatrix in="SourceAlpha" type="matrix" values="0 0 0 0 0 0 0 0 0 0 0 0 0 0 0 0 0 0 127 0" result="hardAlpha"/>
<feOffset/>
<feGaussianBlur stdDeviation="5"/>
<feComposite in2="hardAlpha" operator="out"/>
<feColorMatrix type="matrix" values="0 0 0 0 1 0 0 0 0 0.903658 0 0 0 0 0.709722 0 0 0 0.2 0"/>
<feBlend mode="normal" in2="BackgroundImageFix" result="effect1_dropShadow_7957_65039"/>
<feBlend mode="normal" in="SourceGraphic" in2="effect1_dropShadow_7957_65039" result="shape"/>
</filter>
</defs>
</svg>
