<svg width="700" height="700" viewBox="0 0 700 700" fill="none" xmlns="http://www.w3.org/2000/svg">
<g id="&#228;&#184;&#138;&#228;&#188;&#160;&#232;&#131;&#140;&#230;&#153;&#175;&#229;&#155;&#190;">
<rect width="700" height="700" fill="#E1DCD0"/>
<g id="Group 1171276314">
<rect id="Rectangle 34625057" width="28" height="28" fill="#FFFDFA"/>
<rect id="Rectangle 34625093" y="56" width="28" height="28" fill="#FFFDFA"/>
<rect id="Rectangle 34625128" y="112" width="28" height="28" fill="#FFFDFA"/>
<rect id="Rectangle 34625163" y="168" width="28" height="28" fill="#FFFDFA"/>
<rect id="Rectangle 34625198" y="224" width="28" height="28" fill="#FFFDFA"/>
<rect id="Rectangle 34625233" y="280" width="28" height="28" fill="#FFFDFA"/>
<rect id="Rectangle 34625268" y="336" width="28" height="28" fill="#FFFDFA"/>
<rect id="Rectangle 34625303" y="392" width="28" height="28" fill="#FFFDFA"/>
<rect id="Rectangle 34625338" y="448" width="28" height="28" fill="#FFFDFA"/>
<rect id="Rectangle 34625373" y="504" width="28" height="28" fill="#FFFDFA"/>
<rect id="Rectangle 34625408" y="560" width="28" height="28" fill="#FFFDFA"/>
<rect id="Rectangle 34625442" y="616" width="28" height="28" fill="#FFFDFA"/>
<rect id="Rectangle 34625472" y="672" width="28" height="28" fill="#FFFDFA"/>
<rect id="Rectangle 34625061" x="112" width="28" height="28" fill="#FFFDFA"/>
<rect id="Rectangle 34625094" x="112" y="56" width="28" height="28" fill="#FFFDFA"/>
<rect id="Rectangle 34625129" x="112" y="112" width="28" height="28" fill="#FFFDFA"/>
<rect id="Rectangle 34625164" x="112" y="168" width="28" height="28" fill="#FFFDFA"/>
<rect id="Rectangle 34625199" x="112" y="224" width="28" height="28" fill="#FFFDFA"/>
<rect id="Rectangle 34625234" x="112" y="280" width="28" height="28" fill="#FFFDFA"/>
<rect id="Rectangle 34625269" x="112" y="336" width="28" height="28" fill="#FFFDFA"/>
<rect id="Rectangle 34625304" x="112" y="392" width="28" height="28" fill="#FFFDFA"/>
<rect id="Rectangle 34625339" x="112" y="448" width="28" height="28" fill="#FFFDFA"/>
<rect id="Rectangle 34625374" x="112" y="504" width="28" height="28" fill="#FFFDFA"/>
<rect id="Rectangle 34625409" x="112" y="560" width="28" height="28" fill="#FFFDFA"/>
<rect id="Rectangle 34625443" x="112" y="616" width="28" height="28" fill="#FFFDFA"/>
<rect id="Rectangle 34625473" x="112" y="672" width="28" height="28" fill="#FFFDFA"/>
<rect id="Rectangle 34625065" x="224" width="28" height="28" fill="#FFFDFA"/>
<rect id="Rectangle 34625095" x="224" y="56" width="28" height="28" fill="#FFFDFA"/>
<rect id="Rectangle 34625130" x="224" y="112" width="28" height="28" fill="#FFFDFA"/>
<rect id="Rectangle 34625165" x="224" y="168" width="28" height="28" fill="#FFFDFA"/>
<rect id="Rectangle 34625200" x="224" y="224" width="28" height="28" fill="#FFFDFA"/>
<rect id="Rectangle 34625235" x="224" y="280" width="28" height="28" fill="#FFFDFA"/>
<rect id="Rectangle 34625270" x="224" y="336" width="28" height="28" fill="#FFFDFA"/>
<rect id="Rectangle 34625305" x="224" y="392" width="28" height="28" fill="#FFFDFA"/>
<rect id="Rectangle 34625340" x="224" y="448" width="28" height="28" fill="#FFFDFA"/>
<rect id="Rectangle 34625375" x="224" y="504" width="28" height="28" fill="#FFFDFA"/>
<rect id="Rectangle 34625410" x="224" y="560" width="28" height="28" fill="#FFFDFA"/>
<rect id="Rectangle 34625444" x="224" y="616" width="28" height="28" fill="#FFFDFA"/>
<rect id="Rectangle 34625474" x="224" y="672" width="28" height="28" fill="#FFFDFA"/>
<rect id="Rectangle 34625069" x="336" width="28" height="28" fill="#FFFDFA"/>
<rect id="Rectangle 34625096" x="336" y="56" width="28" height="28" fill="#FFFDFA"/>
<rect id="Rectangle 34625131" x="336" y="112" width="28" height="28" fill="#FFFDFA"/>
<rect id="Rectangle 34625166" x="336" y="168" width="28" height="28" fill="#FFFDFA"/>
<rect id="Rectangle 34625201" x="336" y="224" width="28" height="28" fill="#FFFDFA"/>
<rect id="Rectangle 34625236" x="336" y="280" width="28" height="28" fill="#FFFDFA"/>
<rect id="Rectangle 34625271" x="336" y="336" width="28" height="28" fill="#FFFDFA"/>
<rect id="Rectangle 34625306" x="336" y="392" width="28" height="28" fill="#FFFDFA"/>
<rect id="Rectangle 34625341" x="336" y="448" width="28" height="28" fill="#FFFDFA"/>
<rect id="Rectangle 34625376" x="336" y="504" width="28" height="28" fill="#FFFDFA"/>
<rect id="Rectangle 34625411" x="336" y="560" width="28" height="28" fill="#FFFDFA"/>
<rect id="Rectangle 34625445" x="336" y="616" width="28" height="28" fill="#FFFDFA"/>
<rect id="Rectangle 34625475" x="336" y="672" width="28" height="28" fill="#FFFDFA"/>
<rect id="Rectangle 34625073" x="448" width="28" height="28" fill="#FFFDFA"/>
<rect id="Rectangle 34625097" x="448" y="56" width="28" height="28" fill="#FFFDFA"/>
<rect id="Rectangle 34625132" x="448" y="112" width="28" height="28" fill="#FFFDFA"/>
<rect id="Rectangle 34625167" x="448" y="168" width="28" height="28" fill="#FFFDFA"/>
<rect id="Rectangle 34625202" x="448" y="224" width="28" height="28" fill="#FFFDFA"/>
<rect id="Rectangle 34625237" x="448" y="280" width="28" height="28" fill="#FFFDFA"/>
<rect id="Rectangle 34625272" x="448" y="336" width="28" height="28" fill="#FFFDFA"/>
<rect id="Rectangle 34625307" x="448" y="392" width="28" height="28" fill="#FFFDFA"/>
<rect id="Rectangle 34625342" x="448" y="448" width="28" height="28" fill="#FFFDFA"/>
<rect id="Rectangle 34625377" x="448" y="504" width="28" height="28" fill="#FFFDFA"/>
<rect id="Rectangle 34625412" x="448" y="560" width="28" height="28" fill="#FFFDFA"/>
<rect id="Rectangle 34625446" x="448" y="616" width="28" height="28" fill="#FFFDFA"/>
<rect id="Rectangle 34625476" x="448" y="672" width="28" height="28" fill="#FFFDFA"/>
<rect id="Rectangle 34625077" x="560" width="28" height="28" fill="#FFFDFA"/>
<rect id="Rectangle 34625098" x="560" y="56" width="28" height="28" fill="#FFFDFA"/>
<rect id="Rectangle 34625133" x="560" y="112" width="28" height="28" fill="#FFFDFA"/>
<rect id="Rectangle 34625168" x="560" y="168" width="28" height="28" fill="#FFFDFA"/>
<rect id="Rectangle 34625203" x="560" y="224" width="28" height="28" fill="#FFFDFA"/>
<rect id="Rectangle 34625238" x="560" y="280" width="28" height="28" fill="#FFFDFA"/>
<rect id="Rectangle 34625273" x="560" y="336" width="28" height="28" fill="#FFFDFA"/>
<rect id="Rectangle 34625308" x="560" y="392" width="28" height="28" fill="#FFFDFA"/>
<rect id="Rectangle 34625343" x="560" y="448" width="28" height="28" fill="#FFFDFA"/>
<rect id="Rectangle 34625378" x="560" y="504" width="28" height="28" fill="#FFFDFA"/>
<rect id="Rectangle 34625413" x="560" y="560" width="28" height="28" fill="#FFFDFA"/>
<rect id="Rectangle 34625447" x="560" y="616" width="28" height="28" fill="#FFFDFA"/>
<rect id="Rectangle 34625477" x="560" y="672" width="28" height="28" fill="#FFFDFA"/>
<rect id="Rectangle 34625081" x="672" width="28" height="28" fill="#FFFDFA"/>
<rect id="Rectangle 34625099" x="672" y="56" width="28" height="28" fill="#FFFDFA"/>
<rect id="Rectangle 34625134" x="672" y="112" width="28" height="28" fill="#FFFDFA"/>
<rect id="Rectangle 34625169" x="672" y="168" width="28" height="28" fill="#FFFDFA"/>
<rect id="Rectangle 34625204" x="672" y="224" width="28" height="28" fill="#FFFDFA"/>
<rect id="Rectangle 34625239" x="672" y="280" width="28" height="28" fill="#FFFDFA"/>
<rect id="Rectangle 34625274" x="672" y="336" width="28" height="28" fill="#FFFDFA"/>
<rect id="Rectangle 34625309" x="672" y="392" width="28" height="28" fill="#FFFDFA"/>
<rect id="Rectangle 34625344" x="672" y="448" width="28" height="28" fill="#FFFDFA"/>
<rect id="Rectangle 34625379" x="672" y="504" width="28" height="28" fill="#FFFDFA"/>
<rect id="Rectangle 34625414" x="672" y="560" width="28" height="28" fill="#FFFDFA"/>
<rect id="Rectangle 34625448" x="672" y="616" width="28" height="28" fill="#FFFDFA"/>
<rect id="Rectangle 34625478" x="672" y="672" width="28" height="28" fill="#FFFDFA"/>
<rect id="Rectangle 34625058" x="28" y="28" width="28" height="28" fill="#FFFDFA"/>
<rect id="Rectangle 34625102" x="28" y="84" width="28" height="28" fill="#FFFDFA"/>
<rect id="Rectangle 34625137" x="28" y="140" width="28" height="28" fill="#FFFDFA"/>
<rect id="Rectangle 34625172" x="28" y="196" width="28" height="28" fill="#FFFDFA"/>
<rect id="Rectangle 34625207" x="28" y="252" width="28" height="28" fill="#FFFDFA"/>
<rect id="Rectangle 34625242" x="28" y="308" width="28" height="28" fill="#FFFDFA"/>
<rect id="Rectangle 34625277" x="28" y="364" width="28" height="28" fill="#FFFDFA"/>
<rect id="Rectangle 34625312" x="28" y="420" width="28" height="28" fill="#FFFDFA"/>
<rect id="Rectangle 34625347" x="28" y="476" width="28" height="28" fill="#FFFDFA"/>
<rect id="Rectangle 34625382" x="28" y="532" width="28" height="28" fill="#FFFDFA"/>
<rect id="Rectangle 34625417" x="28" y="588" width="28" height="28" fill="#FFFDFA"/>
<rect id="Rectangle 34625450" x="28" y="644" width="28" height="28" fill="#FFFDFA"/>
<rect id="Rectangle 34625062" x="140" y="28" width="28" height="28" fill="#FFFDFA"/>
<rect id="Rectangle 34625103" x="140" y="84" width="28" height="28" fill="#FFFDFA"/>
<rect id="Rectangle 34625138" x="140" y="140" width="28" height="28" fill="#FFFDFA"/>
<rect id="Rectangle 34625173" x="140" y="196" width="28" height="28" fill="#FFFDFA"/>
<rect id="Rectangle 34625208" x="140" y="252" width="28" height="28" fill="#FFFDFA"/>
<rect id="Rectangle 34625243" x="140" y="308" width="28" height="28" fill="#FFFDFA"/>
<rect id="Rectangle 34625278" x="140" y="364" width="28" height="28" fill="#FFFDFA"/>
<rect id="Rectangle 34625313" x="140" y="420" width="28" height="28" fill="#FFFDFA"/>
<rect id="Rectangle 34625348" x="140" y="476" width="28" height="28" fill="#FFFDFA"/>
<rect id="Rectangle 34625383" x="140" y="532" width="28" height="28" fill="#FFFDFA"/>
<rect id="Rectangle 34625418" x="140" y="588" width="28" height="28" fill="#FFFDFA"/>
<rect id="Rectangle 34625451" x="140" y="644" width="28" height="28" fill="#FFFDFA"/>
<rect id="Rectangle 34625066" x="252" y="28" width="28" height="28" fill="#FFFDFA"/>
<rect id="Rectangle 34625104" x="252" y="84" width="28" height="28" fill="#FFFDFA"/>
<rect id="Rectangle 34625139" x="252" y="140" width="28" height="28" fill="#FFFDFA"/>
<rect id="Rectangle 34625174" x="252" y="196" width="28" height="28" fill="#FFFDFA"/>
<rect id="Rectangle 34625209" x="252" y="252" width="28" height="28" fill="#FFFDFA"/>
<rect id="Rectangle 34625244" x="252" y="308" width="28" height="28" fill="#FFFDFA"/>
<rect id="Rectangle 34625279" x="252" y="364" width="28" height="28" fill="#FFFDFA"/>
<rect id="Rectangle 34625314" x="252" y="420" width="28" height="28" fill="#FFFDFA"/>
<rect id="Rectangle 34625349" x="252" y="476" width="28" height="28" fill="#FFFDFA"/>
<rect id="Rectangle 34625384" x="252" y="532" width="28" height="28" fill="#FFFDFA"/>
<rect id="Rectangle 34625419" x="252" y="588" width="28" height="28" fill="#FFFDFA"/>
<rect id="Rectangle 34625452" x="252" y="644" width="28" height="28" fill="#FFFDFA"/>
<rect id="Rectangle 34625070" x="364" y="28" width="28" height="28" fill="#FFFDFA"/>
<rect id="Rectangle 34625105" x="364" y="84" width="28" height="28" fill="#FFFDFA"/>
<rect id="Rectangle 34625140" x="364" y="140" width="28" height="28" fill="#FFFDFA"/>
<rect id="Rectangle 34625175" x="364" y="196" width="28" height="28" fill="#FFFDFA"/>
<rect id="Rectangle 34625210" x="364" y="252" width="28" height="28" fill="#FFFDFA"/>
<rect id="Rectangle 34625245" x="364" y="308" width="28" height="28" fill="#FFFDFA"/>
<rect id="Rectangle 34625280" x="364" y="364" width="28" height="28" fill="#FFFDFA"/>
<rect id="Rectangle 34625315" x="364" y="420" width="28" height="28" fill="#FFFDFA"/>
<rect id="Rectangle 34625350" x="364" y="476" width="28" height="28" fill="#FFFDFA"/>
<rect id="Rectangle 34625385" x="364" y="532" width="28" height="28" fill="#FFFDFA"/>
<rect id="Rectangle 34625420" x="364" y="588" width="28" height="28" fill="#FFFDFA"/>
<rect id="Rectangle 34625453" x="364" y="644" width="28" height="28" fill="#FFFDFA"/>
<rect id="Rectangle 34625074" x="476" y="28" width="28" height="28" fill="#FFFDFA"/>
<rect id="Rectangle 34625106" x="476" y="84" width="28" height="28" fill="#FFFDFA"/>
<rect id="Rectangle 34625141" x="476" y="140" width="28" height="28" fill="#FFFDFA"/>
<rect id="Rectangle 34625176" x="476" y="196" width="28" height="28" fill="#FFFDFA"/>
<rect id="Rectangle 34625211" x="476" y="252" width="28" height="28" fill="#FFFDFA"/>
<rect id="Rectangle 34625246" x="476" y="308" width="28" height="28" fill="#FFFDFA"/>
<rect id="Rectangle 34625281" x="476" y="364" width="28" height="28" fill="#FFFDFA"/>
<rect id="Rectangle 34625316" x="476" y="420" width="28" height="28" fill="#FFFDFA"/>
<rect id="Rectangle 34625351" x="476" y="476" width="28" height="28" fill="#FFFDFA"/>
<rect id="Rectangle 34625386" x="476" y="532" width="28" height="28" fill="#FFFDFA"/>
<rect id="Rectangle 34625421" x="476" y="588" width="28" height="28" fill="#FFFDFA"/>
<rect id="Rectangle 34625454" x="476" y="644" width="28" height="28" fill="#FFFDFA"/>
<rect id="Rectangle 34625078" x="588" y="28" width="28" height="28" fill="#FFFDFA"/>
<rect id="Rectangle 34625107" x="588" y="84" width="28" height="28" fill="#FFFDFA"/>
<rect id="Rectangle 34625142" x="588" y="140" width="28" height="28" fill="#FFFDFA"/>
<rect id="Rectangle 34625177" x="588" y="196" width="28" height="28" fill="#FFFDFA"/>
<rect id="Rectangle 34625212" x="588" y="252" width="28" height="28" fill="#FFFDFA"/>
<rect id="Rectangle 34625247" x="588" y="308" width="28" height="28" fill="#FFFDFA"/>
<rect id="Rectangle 34625282" x="588" y="364" width="28" height="28" fill="#FFFDFA"/>
<rect id="Rectangle 34625317" x="588" y="420" width="28" height="28" fill="#FFFDFA"/>
<rect id="Rectangle 34625352" x="588" y="476" width="28" height="28" fill="#FFFDFA"/>
<rect id="Rectangle 34625387" x="588" y="532" width="28" height="28" fill="#FFFDFA"/>
<rect id="Rectangle 34625422" x="588" y="588" width="28" height="28" fill="#FFFDFA"/>
<rect id="Rectangle 34625455" x="588" y="644" width="28" height="28" fill="#FFFDFA"/>
<rect id="Rectangle 34625059" x="56" width="28" height="28" fill="#FFFDFA"/>
<rect id="Rectangle 34625111" x="56" y="56" width="28" height="28" fill="#FFFDFA"/>
<rect id="Rectangle 34625146" x="56" y="112" width="28" height="28" fill="#FFFDFA"/>
<rect id="Rectangle 34625181" x="56" y="168" width="28" height="28" fill="#FFFDFA"/>
<rect id="Rectangle 34625216" x="56" y="224" width="28" height="28" fill="#FFFDFA"/>
<rect id="Rectangle 34625251" x="56" y="280" width="28" height="28" fill="#FFFDFA"/>
<rect id="Rectangle 34625286" x="56" y="336" width="28" height="28" fill="#FFFDFA"/>
<rect id="Rectangle 34625321" x="56" y="392" width="28" height="28" fill="#FFFDFA"/>
<rect id="Rectangle 34625356" x="56" y="448" width="28" height="28" fill="#FFFDFA"/>
<rect id="Rectangle 34625391" x="56" y="504" width="28" height="28" fill="#FFFDFA"/>
<rect id="Rectangle 34625426" x="56" y="560" width="28" height="28" fill="#FFFDFA"/>
<rect id="Rectangle 34625458" x="56" y="616" width="28" height="28" fill="#FFFDFA"/>
<rect id="Rectangle 34625488" x="56" y="672" width="28" height="28" fill="#FFFDFA"/>
<rect id="Rectangle 34625063" x="168" width="28" height="28" fill="#FFFDFA"/>
<rect id="Rectangle 34625112" x="168" y="56" width="28" height="28" fill="#FFFDFA"/>
<rect id="Rectangle 34625147" x="168" y="112" width="28" height="28" fill="#FFFDFA"/>
<rect id="Rectangle 34625182" x="168" y="168" width="28" height="28" fill="#FFFDFA"/>
<rect id="Rectangle 34625217" x="168" y="224" width="28" height="28" fill="#FFFDFA"/>
<rect id="Rectangle 34625252" x="168" y="280" width="28" height="28" fill="#FFFDFA"/>
<rect id="Rectangle 34625287" x="168" y="336" width="28" height="28" fill="#FFFDFA"/>
<rect id="Rectangle 34625322" x="168" y="392" width="28" height="28" fill="#FFFDFA"/>
<rect id="Rectangle 34625357" x="168" y="448" width="28" height="28" fill="#FFFDFA"/>
<rect id="Rectangle 34625392" x="168" y="504" width="28" height="28" fill="#FFFDFA"/>
<rect id="Rectangle 34625427" x="168" y="560" width="28" height="28" fill="#FFFDFA"/>
<rect id="Rectangle 34625459" x="168" y="616" width="28" height="28" fill="#FFFDFA"/>
<rect id="Rectangle 34625489" x="168" y="672" width="28" height="28" fill="#FFFDFA"/>
<rect id="Rectangle 34625067" x="280" width="28" height="28" fill="#FFFDFA"/>
<rect id="Rectangle 34625113" x="280" y="56" width="28" height="28" fill="#FFFDFA"/>
<rect id="Rectangle 34625148" x="280" y="112" width="28" height="28" fill="#FFFDFA"/>
<rect id="Rectangle 34625183" x="280" y="168" width="28" height="28" fill="#FFFDFA"/>
<rect id="Rectangle 34625218" x="280" y="224" width="28" height="28" fill="#FFFDFA"/>
<rect id="Rectangle 34625253" x="280" y="280" width="28" height="28" fill="#FFFDFA"/>
<rect id="Rectangle 34625288" x="280" y="336" width="28" height="28" fill="#FFFDFA"/>
<rect id="Rectangle 34625323" x="280" y="392" width="28" height="28" fill="#FFFDFA"/>
<rect id="Rectangle 34625358" x="280" y="448" width="28" height="28" fill="#FFFDFA"/>
<rect id="Rectangle 34625393" x="280" y="504" width="28" height="28" fill="#FFFDFA"/>
<rect id="Rectangle 34625428" x="280" y="560" width="28" height="28" fill="#FFFDFA"/>
<rect id="Rectangle 34625460" x="280" y="616" width="28" height="28" fill="#FFFDFA"/>
<rect id="Rectangle 34625490" x="280" y="672" width="28" height="28" fill="#FFFDFA"/>
<rect id="Rectangle 34625071" x="392" width="28" height="28" fill="#FFFDFA"/>
<rect id="Rectangle 34625114" x="392" y="56" width="28" height="28" fill="#FFFDFA"/>
<rect id="Rectangle 34625149" x="392" y="112" width="28" height="28" fill="#FFFDFA"/>
<rect id="Rectangle 34625184" x="392" y="168" width="28" height="28" fill="#FFFDFA"/>
<rect id="Rectangle 34625219" x="392" y="224" width="28" height="28" fill="#FFFDFA"/>
<rect id="Rectangle 34625254" x="392" y="280" width="28" height="28" fill="#FFFDFA"/>
<rect id="Rectangle 34625289" x="392" y="336" width="28" height="28" fill="#FFFDFA"/>
<rect id="Rectangle 34625324" x="392" y="392" width="28" height="28" fill="#FFFDFA"/>
<rect id="Rectangle 34625359" x="392" y="448" width="28" height="28" fill="#FFFDFA"/>
<rect id="Rectangle 34625394" x="392" y="504" width="28" height="28" fill="#FFFDFA"/>
<rect id="Rectangle 34625429" x="392" y="560" width="28" height="28" fill="#FFFDFA"/>
<rect id="Rectangle 34625461" x="392" y="616" width="28" height="28" fill="#FFFDFA"/>
<rect id="Rectangle 34625491" x="392" y="672" width="28" height="28" fill="#FFFDFA"/>
<rect id="Rectangle 34625075" x="504" width="28" height="28" fill="#FFFDFA"/>
<rect id="Rectangle 34625115" x="504" y="56" width="28" height="28" fill="#FFFDFA"/>
<rect id="Rectangle 34625150" x="504" y="112" width="28" height="28" fill="#FFFDFA"/>
<rect id="Rectangle 34625185" x="504" y="168" width="28" height="28" fill="#FFFDFA"/>
<rect id="Rectangle 34625220" x="504" y="224" width="28" height="28" fill="#FFFDFA"/>
<rect id="Rectangle 34625255" x="504" y="280" width="28" height="28" fill="#FFFDFA"/>
<rect id="Rectangle 34625290" x="504" y="336" width="28" height="28" fill="#FFFDFA"/>
<rect id="Rectangle 34625325" x="504" y="392" width="28" height="28" fill="#FFFDFA"/>
<rect id="Rectangle 34625360" x="504" y="448" width="28" height="28" fill="#FFFDFA"/>
<rect id="Rectangle 34625395" x="504" y="504" width="28" height="28" fill="#FFFDFA"/>
<rect id="Rectangle 34625430" x="504" y="560" width="28" height="28" fill="#FFFDFA"/>
<rect id="Rectangle 34625462" x="504" y="616" width="28" height="28" fill="#FFFDFA"/>
<rect id="Rectangle 34625492" x="504" y="672" width="28" height="28" fill="#FFFDFA"/>
<rect id="Rectangle 34625079" x="616" width="28" height="28" fill="#FFFDFA"/>
<rect id="Rectangle 34625116" x="616" y="56" width="28" height="28" fill="#FFFDFA"/>
<rect id="Rectangle 34625151" x="616" y="112" width="28" height="28" fill="#FFFDFA"/>
<rect id="Rectangle 34625186" x="616" y="168" width="28" height="28" fill="#FFFDFA"/>
<rect id="Rectangle 34625221" x="616" y="224" width="28" height="28" fill="#FFFDFA"/>
<rect id="Rectangle 34625256" x="616" y="280" width="28" height="28" fill="#FFFDFA"/>
<rect id="Rectangle 34625291" x="616" y="336" width="28" height="28" fill="#FFFDFA"/>
<rect id="Rectangle 34625326" x="616" y="392" width="28" height="28" fill="#FFFDFA"/>
<rect id="Rectangle 34625361" x="616" y="448" width="28" height="28" fill="#FFFDFA"/>
<rect id="Rectangle 34625396" x="616" y="504" width="28" height="28" fill="#FFFDFA"/>
<rect id="Rectangle 34625431" x="616" y="560" width="28" height="28" fill="#FFFDFA"/>
<rect id="Rectangle 34625463" x="616" y="616" width="28" height="28" fill="#FFFDFA"/>
<rect id="Rectangle 34625493" x="616" y="672" width="28" height="28" fill="#FFFDFA"/>
<rect id="Rectangle 34625060" x="84" y="28" width="28" height="28" fill="#FFFDFA"/>
<rect id="Rectangle 34625120" x="84" y="84" width="28" height="28" fill="#FFFDFA"/>
<rect id="Rectangle 34625155" x="84" y="140" width="28" height="28" fill="#FFFDFA"/>
<rect id="Rectangle 34625190" x="84" y="196" width="28" height="28" fill="#FFFDFA"/>
<rect id="Rectangle 34625225" x="84" y="252" width="28" height="28" fill="#FFFDFA"/>
<rect id="Rectangle 34625260" x="84" y="308" width="28" height="28" fill="#FFFDFA"/>
<rect id="Rectangle 34625295" x="84" y="364" width="28" height="28" fill="#FFFDFA"/>
<rect id="Rectangle 34625330" x="84" y="420" width="28" height="28" fill="#FFFDFA"/>
<rect id="Rectangle 34625365" x="84" y="476" width="28" height="28" fill="#FFFDFA"/>
<rect id="Rectangle 34625400" x="84" y="532" width="28" height="28" fill="#FFFDFA"/>
<rect id="Rectangle 34625435" x="84" y="588" width="28" height="28" fill="#FFFDFA"/>
<rect id="Rectangle 34625465" x="84" y="644" width="28" height="28" fill="#FFFDFA"/>
<rect id="Rectangle 34625064" x="196" y="28" width="28" height="28" fill="#FFFDFA"/>
<rect id="Rectangle 34625121" x="196" y="84" width="28" height="28" fill="#FFFDFA"/>
<rect id="Rectangle 34625156" x="196" y="140" width="28" height="28" fill="#FFFDFA"/>
<rect id="Rectangle 34625191" x="196" y="196" width="28" height="28" fill="#FFFDFA"/>
<rect id="Rectangle 34625226" x="196" y="252" width="28" height="28" fill="#FFFDFA"/>
<rect id="Rectangle 34625261" x="196" y="308" width="28" height="28" fill="#FFFDFA"/>
<rect id="Rectangle 34625296" x="196" y="364" width="28" height="28" fill="#FFFDFA"/>
<rect id="Rectangle 34625331" x="196" y="420" width="28" height="28" fill="#FFFDFA"/>
<rect id="Rectangle 34625366" x="196" y="476" width="28" height="28" fill="#FFFDFA"/>
<rect id="Rectangle 34625401" x="196" y="532" width="28" height="28" fill="#FFFDFA"/>
<rect id="Rectangle 34625436" x="196" y="588" width="28" height="28" fill="#FFFDFA"/>
<rect id="Rectangle 34625466" x="196" y="644" width="28" height="28" fill="#FFFDFA"/>
<rect id="Rectangle 34625068" x="308" y="28" width="28" height="28" fill="#FFFDFA"/>
<rect id="Rectangle 34625122" x="308" y="84" width="28" height="28" fill="#FFFDFA"/>
<rect id="Rectangle 34625157" x="308" y="140" width="28" height="28" fill="#FFFDFA"/>
<rect id="Rectangle 34625192" x="308" y="196" width="28" height="28" fill="#FFFDFA"/>
<rect id="Rectangle 34625227" x="308" y="252" width="28" height="28" fill="#FFFDFA"/>
<rect id="Rectangle 34625262" x="308" y="308" width="28" height="28" fill="#FFFDFA"/>
<rect id="Rectangle 34625297" x="308" y="364" width="28" height="28" fill="#FFFDFA"/>
<rect id="Rectangle 34625332" x="308" y="420" width="28" height="28" fill="#FFFDFA"/>
<rect id="Rectangle 34625367" x="308" y="476" width="28" height="28" fill="#FFFDFA"/>
<rect id="Rectangle 34625402" x="308" y="532" width="28" height="28" fill="#FFFDFA"/>
<rect id="Rectangle 34625437" x="308" y="588" width="28" height="28" fill="#FFFDFA"/>
<rect id="Rectangle 34625467" x="308" y="644" width="28" height="28" fill="#FFFDFA"/>
<rect id="Rectangle 34625072" x="420" y="28" width="28" height="28" fill="#FFFDFA"/>
<rect id="Rectangle 34625123" x="420" y="84" width="28" height="28" fill="#FFFDFA"/>
<rect id="Rectangle 34625158" x="420" y="140" width="28" height="28" fill="#FFFDFA"/>
<rect id="Rectangle 34625193" x="420" y="196" width="28" height="28" fill="#FFFDFA"/>
<rect id="Rectangle 34625228" x="420" y="252" width="28" height="28" fill="#FFFDFA"/>
<rect id="Rectangle 34625263" x="420" y="308" width="28" height="28" fill="#FFFDFA"/>
<rect id="Rectangle 34625298" x="420" y="364" width="28" height="28" fill="#FFFDFA"/>
<rect id="Rectangle 34625333" x="420" y="420" width="28" height="28" fill="#FFFDFA"/>
<rect id="Rectangle 34625368" x="420" y="476" width="28" height="28" fill="#FFFDFA"/>
<rect id="Rectangle 34625403" x="420" y="532" width="28" height="28" fill="#FFFDFA"/>
<rect id="Rectangle 34625438" x="420" y="588" width="28" height="28" fill="#FFFDFA"/>
<rect id="Rectangle 34625468" x="420" y="644" width="28" height="28" fill="#FFFDFA"/>
<rect id="Rectangle 34625076" x="532" y="28" width="28" height="28" fill="#FFFDFA"/>
<rect id="Rectangle 34625124" x="532" y="84" width="28" height="28" fill="#FFFDFA"/>
<rect id="Rectangle 34625159" x="532" y="140" width="28" height="28" fill="#FFFDFA"/>
<rect id="Rectangle 34625194" x="532" y="196" width="28" height="28" fill="#FFFDFA"/>
<rect id="Rectangle 34625229" x="532" y="252" width="28" height="28" fill="#FFFDFA"/>
<rect id="Rectangle 34625264" x="532" y="308" width="28" height="28" fill="#FFFDFA"/>
<rect id="Rectangle 34625299" x="532" y="364" width="28" height="28" fill="#FFFDFA"/>
<rect id="Rectangle 34625334" x="532" y="420" width="28" height="28" fill="#FFFDFA"/>
<rect id="Rectangle 34625369" x="532" y="476" width="28" height="28" fill="#FFFDFA"/>
<rect id="Rectangle 34625404" x="532" y="532" width="28" height="28" fill="#FFFDFA"/>
<rect id="Rectangle 34625439" x="532" y="588" width="28" height="28" fill="#FFFDFA"/>
<rect id="Rectangle 34625469" x="532" y="644" width="28" height="28" fill="#FFFDFA"/>
<rect id="Rectangle 34625080" x="644" y="28" width="28" height="28" fill="#FFFDFA"/>
<rect id="Rectangle 34625125" x="644" y="84" width="28" height="28" fill="#FFFDFA"/>
<rect id="Rectangle 34625160" x="644" y="140" width="28" height="28" fill="#FFFDFA"/>
<rect id="Rectangle 34625195" x="644" y="196" width="28" height="28" fill="#FFFDFA"/>
<rect id="Rectangle 34625230" x="644" y="252" width="28" height="28" fill="#FFFDFA"/>
<rect id="Rectangle 34625265" x="644" y="308" width="28" height="28" fill="#FFFDFA"/>
<rect id="Rectangle 34625300" x="644" y="364" width="28" height="28" fill="#FFFDFA"/>
<rect id="Rectangle 34625335" x="644" y="420" width="28" height="28" fill="#FFFDFA"/>
<rect id="Rectangle 34625370" x="644" y="476" width="28" height="28" fill="#FFFDFA"/>
<rect id="Rectangle 34625405" x="644" y="532" width="28" height="28" fill="#FFFDFA"/>
<rect id="Rectangle 34625440" x="644" y="588" width="28" height="28" fill="#FFFDFA"/>
<rect id="Rectangle 34625470" x="644" y="644" width="28" height="28" fill="#FFFDFA"/>
</g>
</g>
</svg>
