<svg width="42" height="42" viewBox="0 0 42 42" fill="none" xmlns="http://www.w3.org/2000/svg">
<g id="&#229;&#136;&#134;&#233;&#149;&#156;&#230;&#139;&#134;&#232;&#167;&#163;">
<rect x="1" y="1" width="40" height="40" rx="8" fill="#423C2B"/>
<rect x="1" y="1" width="40" height="40" rx="8" stroke="#6F6855"/>
<g id="Group 1171276261">
<rect id="Rectangle 34624744" x="10" y="11" width="19" height="3" rx="0.5" stroke="#FFFDFA"/>
<rect id="Rectangle 34624741" x="31" y="11" width="4" height="4" rx="0.5" stroke="#FFFDFA"/>
<rect id="Rectangle 34624743" x="32" y="17" width="3" height="12" rx="0.5" stroke="#FFFDFA"/>
<g id="Group 1171276229">
<g id="Mask group">
<mask id="mask0_6861_148981" style="mask-type:alpha" maskUnits="userSpaceOnUse" x="7" y="17" width="22" height="14">
<rect id="Rectangle 34624991" x="7" y="17" width="22" height="14" rx="1.2" fill="#D9D9D9"/>
</mask>
<g mask="url(#mask0_6861_148981)">
<path id="Subtract" d="M46.001 28.75H45.2646V30.25H46.001V31H4V28H46.001V28.75ZM4.7373 28.75V30.25H6.94727V28.75H4.7373ZM8.42188 28.75V30.25H10.6318V28.75H8.42188ZM12.1064 28.75V30.25H14.3164V28.75H12.1064ZM15.79 28.75V30.25H18.001V28.75H15.79ZM19.4746 28.75V30.25H21.6855V28.75H19.4746ZM23.1582 28.75V30.25H25.3691V28.75H23.1582ZM26.8428 28.75V30.25H29.0537V28.75H26.8428ZM30.5273 28.75V30.25H32.7383V28.75H30.5273ZM34.2119 28.75V30.25H36.4219V28.75H34.2119ZM37.8955 28.75V30.25H40.1064V28.75H37.8955ZM41.5801 28.75V30.25H43.791V28.75H41.5801Z" fill="#26BBFF"/>
<path id="Subtract_2" d="M46.002 17.75H45.2666V19.25H46.002V20H4V17H46.002V17.75ZM4.7373 17.75V19.25H6.94727V17.75H4.7373ZM8.42188 17.75V19.25H10.6328V17.75H8.42188ZM12.1064 17.75V19.25H14.3174V17.75H12.1064ZM15.79 17.75V19.25H18.001V17.75H15.79ZM19.4746 17.75V19.25H21.6855V17.75H19.4746ZM23.1592 17.75V19.25H25.3691V17.75H23.1592ZM26.8438 17.75V19.25H29.0547V17.75H26.8438ZM30.5293 17.75V19.25H32.7393V17.75H30.5293ZM34.2129 17.75V19.25H36.4238V17.75H34.2129ZM37.8975 17.75V19.25H40.1074V17.75H37.8975ZM41.582 17.75V19.25H43.792V17.75H41.582Z" fill="#26BBFF"/>
</g>
</g>
<rect id="Rectangle 34624991_2" x="7" y="17" width="22" height="14" rx="1.2" stroke="#FFFDFA" stroke-linecap="round" stroke-linejoin="round"/>
<path id="Polygon 24" d="M20.1 23.4804C20.5 23.7113 20.5 24.2887 20.1 24.5196L17.4 26.0785C17 26.3094 16.5 26.0207 16.5 25.5588L16.5 22.4412C16.5 21.9793 17 21.6906 17.4 21.9215L20.1 23.4804Z" fill="#FFC249"/>
</g>
</g>
</g>
</svg>
