<svg width="50" height="50" viewBox="0 0 50 50" fill="none" xmlns="http://www.w3.org/2000/svg">
<g id="Frame 1171276888" opacity="0.9">
<rect x="1" y="1" width="48" height="48" rx="4" fill="#26231B"/>
<rect x="1" y="1" width="48" height="48" rx="4" stroke="#FFC249"/>
<g id="Group 1171276158">
<path id="Union" d="M25.3545 13L25.3545 12H25.3545V13ZM8.35449 24.5527L7.35449 24.5528V24.5527H8.35449ZM25.3545 36.1045L25.3545 37.1045L25.3545 37.1045L25.3545 36.1045ZM42.3545 24.5527L43.3545 24.5527L43.3545 24.5528L42.3545 24.5527ZM39.4321 31.4308L38.4866 31.7565L39.4321 31.4308ZM39.5524 30.9077L38.8351 30.2109L39.5524 30.9077ZM40.4738 36.966L40.8238 36.0292L40.4738 36.966ZM41.1215 36.3347L40.1761 36.6604L41.1215 36.3347ZM33.7561 34.5939L34.1172 35.5264L33.7561 34.5939ZM34.1163 34.5909L33.7663 35.5277L34.1163 34.5909ZM25.3545 13L25.3545 14C20.834 14.0001 16.7857 15.2471 13.8958 17.211C11.0006 19.1785 9.35449 21.7921 9.35449 24.5527H8.35449H7.35449C7.35449 20.9332 9.51407 17.7706 12.7717 15.5568C16.0346 13.3394 20.4864 12.0001 25.3545 12L25.3545 13ZM8.35449 24.5527L9.35449 24.5527C9.35458 27.3132 11.0007 29.9267 13.8959 31.8939C16.7858 33.8576 20.834 35.1044 25.3545 35.1045L25.3545 36.1045L25.3545 37.1045C20.4865 37.1044 16.0348 35.7654 12.7718 33.5482C9.51424 31.3346 7.35461 28.1723 7.35449 24.5528L8.35449 24.5527ZM25.3545 36.1045V35.1045C28.2924 35.1045 31.0366 34.5745 33.395 33.6614L33.7561 34.5939L34.1172 35.5264C31.519 36.5324 28.5291 37.1045 25.3545 37.1045V36.1045ZM34.1163 34.5909L34.4662 33.6542L40.8238 36.0292L40.4738 36.966L40.1239 37.9027L33.7663 35.5277L34.1163 34.5909ZM41.1215 36.3347L40.1761 36.6604L38.4866 31.7565L39.4321 31.4308L40.3776 31.1051L42.067 36.009L41.1215 36.3347ZM39.5524 30.9077L38.8351 30.2109C40.463 28.5351 41.3544 26.5904 41.3545 24.5527L42.3545 24.5527L43.3545 24.5528C43.3544 27.2111 42.1837 29.6341 40.2697 31.6045L39.5524 30.9077ZM42.3545 24.5527H41.3545C41.3545 21.7921 39.7084 19.1784 36.8132 17.2109C33.9234 15.247 29.8751 14 25.3545 14V13V12C30.2227 12 34.6744 13.3393 37.9374 15.5567C41.195 17.7705 43.3545 20.9331 43.3545 24.5527H42.3545ZM39.4321 31.4308L38.4866 31.7565C38.2962 31.2036 38.448 30.6094 38.8351 30.2109L39.5524 30.9077L40.2697 31.6045C40.3877 31.483 40.4422 31.2928 40.3776 31.1051L39.4321 31.4308ZM40.4738 36.966L40.8238 36.0292C40.4279 35.8813 40.0384 36.2608 40.1761 36.6604L41.1215 36.3347L42.067 36.009C42.48 37.2078 41.3116 38.3465 40.1239 37.9027L40.4738 36.966ZM33.7561 34.5939L33.395 33.6614C33.7348 33.5298 34.116 33.5233 34.4662 33.6542L34.1163 34.5909L33.7663 35.5277C33.884 35.5717 34.0089 35.5684 34.1172 35.5264L33.7561 34.5939Z" fill="#FFFDFA"/>
<g id="Group 1171276154">
<path id="Line 131" d="M17.0176 22.0176H31.0176" stroke="#FFC249" stroke-width="2" stroke-linecap="round"/>
<path id="Line 132" d="M17.0176 27.0176H25.0176" stroke="#FFC249" stroke-width="2" stroke-linecap="round"/>
</g>
</g>
</g>
</svg>
