<svg width="32" height="32" viewBox="0 0 32 32" fill="none" xmlns="http://www.w3.org/2000/svg">
<g id="&#229;&#141;&#143;&#228;&#189;&#156;&#232;&#128;&#133;">
<g id="Group 1171276085">
<g id="Group 1171276076">
<g id="Group 1171276063">
<g id="Group 1171276061">
<circle id="Ellipse 740" cx="27.5791" cy="26.1059" r="1.75439" fill="#FFC249" stroke="#FFC249" stroke-width="0.666667"/>
<rect id="Rectangle 34624845" x="20.9121" y="17.334" width="3.50877" height="3.50877" rx="0.666667" fill="#FFC249" stroke="#FFC249" stroke-width="0.4"/>
<path id="Polygon 5" d="M17.5336 25.3043C17.7925 24.8728 18.418 24.8728 18.6769 25.3043L19.6047 26.8507C19.8713 27.295 19.5513 27.8603 19.0331 27.8603H17.1775C16.6593 27.8603 16.3392 27.295 16.6058 26.8507L17.5336 25.3043Z" fill="#FFC249" stroke="#FFC249" stroke-width="1.06667"/>
</g>
</g>
<path id="Ellipse 742" d="M17.4038 23.9996C17.4038 22.2778 18.2308 20.7493 19.5091 19.7891M25.8249 19.7891C26.9265 20.6166 27.6929 21.8662 27.8837 23.2978M19.9498 28.508C20.743 28.9871 21.6728 29.2627 22.667 29.2627C23.8519 29.2627 24.9452 28.8709 25.8249 28.2101" stroke="#FFFDFA" stroke-linejoin="round"/>
</g>
<g id="Mask group">
<mask id="mask0_6100_53411" style="mask-type:alpha" maskUnits="userSpaceOnUse" x="2" y="2" width="24" height="28">
<path id="Subtract" d="M25.334 16.457C24.4998 16.1621 23.6022 16.001 22.667 16.001C18.2488 16.0011 14.667 19.5828 14.667 24.001C14.667 26.05 15.4382 27.9186 16.7051 29.334H2.66699V2.66797H25.334V16.457Z" fill="#D9D9D9"/>
</mask>
<g mask="url(#mask0_6100_53411)">
<g id="Group 1171276075">
<path id="Ellipse 743" d="M14.6665 4.66699C17.2437 4.66699 19.3333 6.75583 19.3335 9.33301C19.3335 11.9103 17.2438 14 14.6665 14C12.0893 13.9998 10.0005 11.9102 10.0005 9.33301C10.0007 6.75594 12.0894 4.66717 14.6665 4.66699Z" stroke="#FFFDFA" stroke-width="1.33333"/>
<path id="Subtract_2" d="M14.6665 16.667C18.8968 16.667 22.4204 19.6981 23.1812 23.707L23.2466 24.0977C23.2841 24.361 23.0647 24.667 22.6665 24.667H6.6665C6.31831 24.6668 6.10766 24.433 6.08545 24.1982L6.0874 24.0977C6.68665 19.8968 10.3 16.6672 14.6665 16.667Z" stroke="#FFFDFA" stroke-width="1.33333"/>
</g>
</g>
</g>
</g>
</g>
</svg>
