<svg width="24" height="24" viewBox="0 0 24 24" fill="none" xmlns="http://www.w3.org/2000/svg">
<g id="&#230;&#148;&#182;&#232;&#151;&#143;">
<path id="Star 2" d="M11.2868 3.69529C11.5113 3.00431 12.4889 3.0043 12.7134 3.69529L14.1891 8.23708C14.2895 8.5461 14.5775 8.75532 14.9024 8.75532H19.678C20.4045 8.75532 20.7066 9.68503 20.1188 10.1121L16.2553 12.9191C15.9924 13.1101 15.8825 13.4486 15.9829 13.7576L17.4586 18.2994C17.6831 18.9904 16.8922 19.565 16.3044 19.1379L12.441 16.3309C12.1781 16.1399 11.8221 16.1399 11.5593 16.3309L7.6958 19.1379C7.10802 19.565 6.31716 18.9904 6.54167 18.2994L8.01739 13.7576C8.11779 13.4486 8.0078 13.1101 7.74493 12.9191L3.88145 10.1121C3.29367 9.68503 3.59575 8.75532 4.32229 8.75532H9.09782C9.42274 8.75532 9.7107 8.5461 9.81111 8.23708L11.2868 3.69529Z" stroke="#FFC249" stroke-width="1.2"/>
</g>
</svg>
