<svg width="40" height="40" viewBox="0 0 40 40" fill="none" xmlns="http://www.w3.org/2000/svg">
<g id="&#232;&#175;&#132;&#232;&#174;&#186;">
<g id="Group 1171276380">
<path id="Subtract" d="M15.5 6.66699L15.5 5.91699H15.5V6.66699ZM25.0469 11.7725L24.9556 12.5169L26.4113 12.6954L25.7039 11.4107L25.0469 11.7725ZM23.333 11.667L23.333 10.917L23.333 10.917L23.333 11.667ZM11.667 21.3848L10.917 21.3848L10.917 21.3848L11.667 21.3848ZM11.9902 23.6543L11.7772 24.3734L13.0889 24.7619L12.7111 23.4472L11.9902 23.6543ZM10.4473 23.0781L10.7598 22.3963L10.7595 22.3962L10.4473 23.0781ZM9.94727 23.0752L9.63491 22.3933L9.63489 22.3933L9.94727 23.0752ZM6.69434 24.5654L7.00669 25.2473L7.00671 25.2473L6.69434 24.5654ZM5.88965 23.877L5.16763 23.674L5.16762 23.674L5.88965 23.877ZM6.78613 20.6875L7.50815 20.8904L7.50816 20.8904L6.78613 20.6875ZM6.67676 20.1523L6.08428 20.6122L6.08428 20.6122L6.67676 20.1523ZM5 15.4131L4.25 15.4131L4.25 15.4131L5 15.4131ZM15.5 6.66699L15.5 7.41699C19.5062 7.41706 22.8819 9.39562 24.3899 12.1342L25.0469 11.7725L25.7039 11.4107C23.8948 8.12527 19.9708 5.91707 15.5 5.91699L15.5 6.66699ZM25.0469 11.7725L25.1382 11.028C24.5496 10.9559 23.947 10.917 23.333 10.917V11.667V12.417C23.8836 12.417 24.4253 12.4518 24.9556 12.5169L25.0469 11.7725ZM23.333 11.667L23.333 10.917C16.6099 10.9172 10.917 15.4813 10.917 21.3848L11.667 21.3848L12.417 21.3848C12.417 16.5547 17.17 12.4172 23.333 12.417L23.333 11.667ZM11.667 21.3848L10.917 21.3848C10.917 22.24 11.0417 23.0691 11.2694 23.8614L11.9902 23.6543L12.7111 23.4472C12.5201 22.7828 12.417 22.0931 12.417 21.3847L11.667 21.3848ZM11.9902 23.6543L12.2032 22.9352C11.7003 22.7862 11.2175 22.6062 10.7598 22.3963L10.4473 23.0781L10.1347 23.7599C10.66 24.0007 11.2095 24.2052 11.7772 24.3734L11.9902 23.6543ZM10.4473 23.0781L10.7595 22.3962C10.4113 22.2368 10.0006 22.2258 9.63491 22.3933L9.94727 23.0752L10.2596 23.7571C10.2114 23.7791 10.1658 23.7741 10.1351 23.7601L10.4473 23.0781ZM9.94727 23.0752L9.63489 22.3933L6.38196 23.8836L6.69434 24.5654L7.00671 25.2473L10.2596 23.757L9.94727 23.0752ZM6.69434 24.5654L6.38198 23.8836C6.51143 23.8243 6.64999 23.9435 6.61168 24.0799L5.88965 23.877L5.16762 23.674C4.8604 24.7672 5.9736 25.7205 7.00669 25.2473L6.69434 24.5654ZM5.88965 23.877L6.61167 24.0799L7.50815 20.8904L6.78613 20.6875L6.06411 20.4846L5.16763 23.674L5.88965 23.877ZM6.78613 20.6875L7.50816 20.8904C7.62822 20.4632 7.52418 20.0209 7.26923 19.6925L6.67676 20.1523L6.08428 20.6122C6.06492 20.5873 6.048 20.5419 6.0641 20.4846L6.78613 20.6875ZM6.67676 20.1523L7.26924 19.6925C6.3009 18.4449 5.75009 16.9775 5.75 15.413L5 15.4131L4.25 15.4131C4.25011 17.3432 4.93266 19.1285 6.08428 20.6122L6.67676 20.1523ZM5 15.4131H5.75C5.75 11.1197 9.98117 7.41699 15.5 7.41699V6.66699V5.91699C9.4211 5.91699 4.25 10.0463 4.25 15.4131H5Z" fill="#FFFDFA"/>
<g id="Group 1171276095">
<path id="Union" d="M23.333 11.667L23.333 10.917H23.333V11.667ZM11.667 21.3848L10.917 21.3848V21.3848H11.667ZM23.333 31.1025L23.333 31.8525L23.333 31.8525L23.333 31.1025ZM35 21.3848L35.75 21.3848L35.75 21.3848L35 21.3848ZM33.0068 27.2124L33.7289 27.0095L33.0068 27.2124ZM33.2455 31.6133L32.9332 32.2952L33.2455 31.6133ZM28.9744 29.8898L29.2886 30.5708L28.9744 29.8898ZM29.4745 29.8864L29.7868 29.2045L29.4745 29.8864ZM23.333 11.667L23.333 12.417C17.17 12.4172 12.417 16.5547 12.417 21.3848H11.667H10.917C10.917 15.4813 16.6099 10.9172 23.333 10.917L23.333 11.667ZM11.667 21.3848L12.417 21.3848C12.417 26.2148 17.17 30.3524 23.333 30.3525L23.333 31.1025L23.333 31.8525C16.6099 31.8523 10.917 27.2882 10.917 21.3848L11.667 21.3848ZM23.333 31.1025V30.3525C25.2719 30.3525 27.0874 29.9342 28.6603 29.2087L28.9744 29.8898L29.2886 30.5708C27.5173 31.3879 25.4873 31.8525 23.333 31.8525V31.1025ZM29.4745 29.8864L29.7868 29.2045L33.5578 30.9314L33.2455 31.6133L32.9332 32.2952L29.1622 30.5683L29.4745 29.8864ZM34.0499 30.9251L33.3279 31.128L32.2848 27.4153L33.0068 27.2124L33.7289 27.0095L34.772 30.7223L34.0499 30.9251ZM33.1166 26.6782L32.5257 26.2163C33.6237 24.8116 34.25 23.1539 34.25 21.3848L35 21.3848L35.75 21.3848C35.75 23.5215 34.9905 25.4986 33.7075 27.1401L33.1166 26.6782ZM35 21.3848H34.25C34.25 16.5546 29.4963 12.417 23.333 12.417V11.667V10.917C30.0563 10.917 35.75 15.4811 35.75 21.3848H35ZM33.0068 27.2124L32.2848 27.4153C32.1648 26.9883 32.2684 26.5455 32.5257 26.2163L33.1166 26.6782L33.7075 27.1401C33.7282 27.1135 33.7449 27.0666 33.7289 27.0095L33.0068 27.2124ZM33.2455 31.6133L33.5578 30.9314C33.4287 30.8723 33.2895 30.9913 33.3279 31.128L34.0499 30.9251L34.772 30.7223C35.0792 31.8158 33.9659 32.7681 32.9332 32.2952L33.2455 31.6133ZM28.9744 29.8898L28.6603 29.2087C29.0096 29.0476 29.4211 29.037 29.7868 29.2045L29.4745 29.8864L29.1622 30.5683C29.2103 30.5903 29.2565 30.5856 29.2886 30.5708L28.9744 29.8898Z" fill="#FFC249"/>
</g>
</g>
</g>
</svg>
