<svg width="36" height="36" viewBox="0 0 36 36" fill="none" xmlns="http://www.w3.org/2000/svg">
<g id="Add_square_duotone_line">
<path id="Rectangle 1" d="M4.5 14.1C4.5 9.57452 4.5 7.31177 5.90589 5.90589C7.31177 4.5 9.57452 4.5 14.1 4.5H21.9C26.4255 4.5 28.6882 4.5 30.0941 5.90589C31.5 7.31177 31.5 9.57452 31.5 14.1V21.9C31.5 26.4255 31.5 28.6882 30.0941 30.0941C28.6882 31.5 26.4255 31.5 21.9 31.5H14.1C9.57452 31.5 7.31177 31.5 5.90589 30.0941C4.5 28.6882 4.5 26.4255 4.5 21.9V14.1Z" fill="#FFC249" stroke="#FFC249" stroke-width="1.2"/>
<path id="Vector 52" d="M18 12L18 24" stroke="#1B1A19" stroke-width="1.2" stroke-linejoin="round"/>
<path id="Vector 53" d="M24 18L12 18" stroke="#1B1A19" stroke-width="1.2" stroke-linejoin="round"/>
</g>
</svg>
