<svg width="40" height="40" viewBox="0 0 40 40" fill="none" xmlns="http://www.w3.org/2000/svg">
<g id="&#232;&#129;&#148;&#231;&#179;&#187;&#230;&#136;&#145;&#228;&#187;&#172;-&#229;&#174;&#162;&#230;&#156;&#141;">
<g id="Group 1171276404">
<path id="Vector 189" d="M27.1187 24.2127L30.9587 28.0527C31.4913 28.5853 31.4913 29.4489 30.9587 29.9815C28.0791 32.8611 23.5203 33.1851 20.2624 30.7416L18.3553 29.3113C15.4494 27.1319 12.8681 24.5506 10.6886 21.6447L9.25835 19.7376C6.81493 16.4797 7.13891 11.9209 10.0185 9.0413C10.5511 8.50868 11.4147 8.50868 11.9473 9.0413L15.7873 12.8813C16.4382 13.5322 16.4382 14.5874 15.7873 15.2383L14.3808 16.6448C14.1381 16.8875 14.0779 17.2584 14.2314 17.5654C16.0063 21.1152 18.8847 23.9936 22.4346 25.7686C22.7416 25.9221 23.1124 25.8619 23.3552 25.6192L24.7617 24.2127C25.4125 23.5618 26.4678 23.5618 27.1187 24.2127Z" stroke="#FFC249" stroke-width="1.5"/>
<g id="Group 1171276403">
<path id="Ellipse 4226" d="M27.6158 18.8462C27.6158 15.2776 24.7229 12.3846 21.1543 12.3846" stroke="#FFFDFA" stroke-width="1.5" stroke-linecap="round"/>
<path id="Ellipse 4227" d="M32.9997 17.7692C32.9997 11.8215 28.1782 7 22.2305 7" stroke="#FFFDFA" stroke-width="1.5" stroke-linecap="round"/>
</g>
</g>
</g>
</svg>
