<svg width="24" height="24" viewBox="0 0 24 24" fill="none" xmlns="http://www.w3.org/2000/svg">
<g id="&#232;&#167;&#134;&#229;&#155;&#190;&#229;&#136;&#135;&#230;&#141;&#162;/&#230;&#149;&#133;&#228;&#186;&#139;&#230;&#131;&#133;&#232;&#138;&#130;">
<rect width="24" height="24" rx="12" fill="#191816"/>
<g id="Group 1171275922">
<path id="Vector 58" d="M5.71428 16.875H9.375C9.42474 16.875 9.44961 16.875 9.47064 16.8753C10.8579 16.898 11.977 18.0171 11.9997 19.4044C12 19.4254 12 19.4503 12 19.5V10.6429C12 8.21849 12 7.00631 11.2468 6.25315C10.4937 5.5 9.28151 5.5 6.85714 5.5H5.71428C4.90616 5.5 4.5021 5.5 4.25105 5.75105C4 6.0021 4 6.40616 4 7.21429V15.1607C4 15.9688 4 16.3729 4.25105 16.624C4.5021 16.875 4.90616 16.875 5.71428 16.875Z" stroke="#FFC249" stroke-width="0.857143" stroke-linejoin="round"/>
<path id="Vector 59" d="M18.2857 16.875H14.625C14.5753 16.875 14.5504 16.875 14.5294 16.8753C13.1421 16.898 12.023 18.0171 12.0003 19.4044C12 19.4254 12 19.4503 12 19.5V10.6429C12 8.21849 12 7.00631 12.7532 6.25315C13.5063 5.5 14.7185 5.5 17.1429 5.5H18.2857C19.0938 5.5 19.4979 5.5 19.7489 5.75105C20 6.0021 20 6.40616 20 7.21429V15.1607C20 15.9688 20 16.3729 19.7489 16.624C19.4979 16.875 19.0938 16.875 18.2857 16.875Z" stroke="#FFC249" stroke-width="0.857143" stroke-linejoin="round"/>
</g>
</g>
</svg>
