<svg width="28" height="28" viewBox="0 0 28 28" fill="none" xmlns="http://www.w3.org/2000/svg">
<g id="Frame 1171275880">
<g id="Group 1171275823">
<g id="Group 1171275810">
<g id="Group 1171275808">
<path id="Rectangle 34624652" d="M12.958 5.89205C13.0739 5.69117 13.3308 5.62234 13.5317 5.73832L17.169 7.83831C17.3699 7.95429 17.4387 8.21116 17.3227 8.41204L10.8709 19.5869C10.8328 19.6528 10.7776 19.7072 10.711 19.7441L7.14239 21.7252C6.86517 21.8791 6.52393 21.6821 6.5186 21.3651L6.44994 17.284C6.44866 17.2079 6.46809 17.1328 6.50615 17.0669L12.958 5.89205Z" fill="#FFC249" stroke="#E1DCD0" stroke-width="0.777778"/>
<path id="Subtract" d="M17.1687 7.83887C17.3695 7.95487 17.4384 8.21164 17.3224 8.41249L10.8707 19.5871C10.8327 19.6529 10.7777 19.7073 10.7112 19.7442L7.14209 21.725C6.86487 21.8789 6.52412 21.6822 6.51879 21.3651L6.50488 20.4888L9.86677 18.6229C9.9331 18.586 9.9883 18.5316 10.0263 18.4658L16.4135 7.40283L17.1687 7.83887Z" fill="#ED9E00"/>
<path id="Rectangle 34624654" d="M12.958 5.89205C13.0739 5.69117 13.3308 5.62234 13.5317 5.73832L17.169 7.83831C17.3699 7.95429 17.4387 8.21116 17.3227 8.41204L10.8709 19.5869C10.8328 19.6528 10.7776 19.7072 10.711 19.7441L7.14239 21.7252C6.86517 21.8791 6.52393 21.6821 6.5186 21.3651L6.44994 17.284C6.44866 17.2079 6.46809 17.1328 6.50615 17.0669L12.958 5.89205Z" stroke="#E1DCD0" stroke-width="0.777778"/>
<rect id="Rectangle 34624653" x="15.2676" y="1.89062" width="5.03999" height="2.51999" rx="0.419999" transform="rotate(30 15.2676 1.89062)" fill="#ED9E00" stroke="#E1DCD0" stroke-width="0.777778"/>
</g>
<g id="Group 1171275809">
<rect id="Rectangle 34624680" x="13.267" y="8.09706" width="0.466666" height="2.52923" rx="0.233333" transform="rotate(30 13.267 8.09706)" fill="#26BBFF" stroke="#26BBFF" stroke-width="0.466666"/>
<rect id="Rectangle 34624681" x="11.3164" y="11.0117" width="0.933331" height="0.933331" rx="0.466666" transform="rotate(30 11.3164 11.0117)" fill="#CCE5FF"/>
<rect id="Rectangle 34624682" x="10.5781" y="12.2881" width="0.933331" height="0.933331" rx="0.466666" transform="rotate(30 10.5781 12.2881)" fill="#FFCCFF"/>
</g>
</g>
<g id="Group 1171275811">
<path id="Vector 372" d="M7 23.4886C14.5164 23.878 23.536 19.4527 20.0284 23.4885C19.0398 24.6259 19.6042 25.4421 21.0649 25.9783" stroke="#ED9E00" stroke-width="1.05" stroke-linecap="round"/>
<path id="Vector 373" d="M23.1758 25.9785C23.7923 25.9785 24.4739 25.9785 25.2011 25.9785" stroke="#26BBFF" stroke-width="1.05" stroke-linecap="round"/>
</g>
</g>
</g>
</svg>
