<svg width="40" height="40" viewBox="0 0 40 40" fill="none" xmlns="http://www.w3.org/2000/svg">
<g id="&#230;&#150;&#176;&#229;&#187;&#186;&#228;&#189;&#156;&#229;&#147;&#129;" clip-path="url(#clip0_1751_45028)">
<g id="Mask group">
<mask id="mask0_1751_45028" style="mask-type:alpha" maskUnits="userSpaceOnUse" x="0" y="0" width="40" height="40">
<path id="Subtract" fill-rule="evenodd" clip-rule="evenodd" d="M40 0H0V40H25.999C23.5707 38.1755 22 35.2712 22 32C22 26.4772 26.4772 22 32 22C35.2712 22 38.1755 23.5707 40 25.999V0ZM40 38.001C39.4314 38.7578 38.7578 39.4314 38.001 40H40V38.001Z" fill="#D9D9D9"/>
</mask>
<g mask="url(#mask0_1751_45028)">
<g id="Group 26">
<rect id="Rectangle 61" x="3.67578" y="15.1348" width="34.0489" height="22.3657" rx="0.5" fill="#191816" stroke="#FFFDFA" stroke-linecap="round"/>
<g id="Group 23">
<rect id="Rectangle 49" x="0.612374" y="0.353554" width="34.0489" height="3.67314" rx="0.5" transform="matrix(0.965927 -0.258816 0.258822 0.965925 1.92936 11.2418)" fill="#26BBFF" stroke="#FFFDFA" stroke-linecap="round"/>
<g id="Mask group_2">
<mask id="mask1_1751_45028" style="mask-type:alpha" maskUnits="userSpaceOnUse" x="2" y="2" width="35" height="14">
<rect id="Rectangle 50" width="35.0489" height="4.67314" rx="1" transform="matrix(0.965927 -0.258816 0.258822 0.965925 2 11.0713)" fill="#D9D9D9"/>
</mask>
<g mask="url(#mask1_1751_45028)">
<g id="Group 24">
<rect id="Rectangle 55" width="17.5244" height="2.92072" rx="1" transform="matrix(0.573579 -0.819147 0.819157 0.573574 -1.98438 18.2061)" fill="#191816"/>
<rect id="Rectangle 56" width="17.5244" height="2.92072" rx="1" transform="matrix(0.573579 -0.819147 0.819157 0.573574 6.07861 16.543)" fill="#191816"/>
<rect id="Rectangle 57" width="17.5244" height="2.92072" rx="1" transform="matrix(0.573579 -0.819147 0.819157 0.573574 14.1416 14.8789)" fill="#191816"/>
<rect id="Rectangle 58" width="17.5244" height="2.92072" rx="1" transform="matrix(0.573579 -0.819147 0.819157 0.573574 22.2046 13.2168)" fill="#191816"/>
<rect id="Rectangle 59" width="17.5244" height="2.92072" rx="1" transform="matrix(0.573579 -0.819147 0.819157 0.573574 30.2676 11.5537)" fill="#191816"/>
</g>
</g>
</g>
<rect id="Rectangle 50_2" x="0.612374" y="0.353554" width="34.0489" height="3.67314" rx="0.5" transform="matrix(0.965927 -0.258816 0.258822 0.965925 1.92936 11.2418)" stroke="#FFFDFA" stroke-linecap="round"/>
</g>
<g id="Group 24_2">
<rect id="Rectangle 49_2" x="-0.5" y="0.5" width="34.0489" height="3.67313" rx="0.5" transform="matrix(-1 0 0 1 37.2251 14.6338)" fill="#26BBFF" stroke="#FFFDFA" stroke-linecap="round"/>
<g id="Mask group_3">
<mask id="mask2_1751_45028" style="mask-type:alpha" maskUnits="userSpaceOnUse" x="3" y="14" width="36" height="6">
<rect id="Rectangle 50_3" width="35.0489" height="4.67313" rx="1" transform="matrix(-1 0 0 1 38.2251 14.6338)" fill="#D9D9D9"/>
</mask>
<g mask="url(#mask2_1751_45028)">
<g id="Group 24_3">
<rect id="Rectangle 55_2" width="17.5244" height="2.92072" rx="1" transform="matrix(-0.766048 -0.642783 -0.642792 0.766041 43.9204 20.4941)" fill="#191816"/>
<rect id="Rectangle 56_2" width="17.5244" height="2.92072" rx="1" transform="matrix(-0.766048 -0.642783 -0.642792 0.766041 35.7017 20.9746)" fill="#191816"/>
<rect id="Rectangle 57_2" width="17.5244" height="2.92072" rx="1" transform="matrix(-0.766048 -0.642783 -0.642792 0.766041 27.4829 21.4551)" fill="#191816"/>
<rect id="Rectangle 58_2" width="17.5244" height="2.92072" rx="1" transform="matrix(-0.766048 -0.642783 -0.642792 0.766041 19.2642 21.9365)" fill="#191816"/>
<rect id="Rectangle 59_2" width="17.5244" height="2.92072" rx="1" transform="matrix(-0.766048 -0.642783 -0.642792 0.766041 11.0454 22.417)" fill="#191816"/>
</g>
</g>
</g>
<rect id="Rectangle 50_4" x="-0.5" y="0.5" width="34.0489" height="3.67313" rx="0.5" transform="matrix(-1 0 0 1 37.2251 14.6338)" stroke="#FFFDFA" stroke-linecap="round"/>
</g>
<g id="Group 1171275815">
<rect id="Rectangle 34624688" x="7.84912" y="29.8223" width="25.7025" height="2.33657" rx="1.16828" fill="#FFC249"/>
<rect id="Rectangle 34624689" x="12.5225" y="25.1494" width="16.3561" height="2.33657" rx="1.16828" fill="#CCE5FF"/>
<rect id="Rectangle 34624687" x="7.84912" y="25.1494" width="2.33659" height="2.33657" rx="1.16828" fill="#FFCCFF"/>
</g>
</g>
</g>
</g>
<g id="Frame 1171276253">
<g clip-path="url(#clip1_1751_45028)">
<rect x="24" y="24" width="16" height="16" rx="8" fill="#FFC249"/>
<g id="&#230;&#150;&#176;&#229;&#187;&#186;">
<path id="Union" d="M32.5996 31.3994H36.2002V32.5996H32.5996V36.2002H31.3994V32.5996H27.7998V31.3994H31.3994V27.7998H32.5996V31.3994Z" fill="#191816"/>
</g>
</g>
</g>
<path id="Subtract_2" d="M4.17578 15.1348H37.2246C37.5008 15.1348 37.7246 15.3586 37.7246 15.6348V23.1982C36.0778 22.1251 34.1116 21.5 32 21.5C26.201 21.5 21.5 26.201 21.5 32C21.5 34.0164 22.0699 35.9001 23.0557 37.5H4.17578C3.89964 37.5 3.67578 37.2761 3.67578 37V15.6348C3.67578 15.3586 3.89964 15.1348 4.17578 15.1348Z" stroke="#FFFDFA" stroke-linecap="round"/>
</g>
<defs>
<clipPath id="clip0_1751_45028">
<rect width="40" height="40" fill="white"/>
</clipPath>
<clipPath id="clip1_1751_45028">
<rect x="24" y="24" width="16" height="16" rx="8" fill="white"/>
</clipPath>
</defs>
</svg>
