<svg width="26" height="26" viewBox="0 0 26 26" fill="none" xmlns="http://www.w3.org/2000/svg">
<g id="&#230;&#143;&#144;&#231;&#164;&#186;&#232;&#175;&#141;">
<rect x="0.5" y="0.5" width="25" height="25" rx="4.5" fill="#191816"/>
<rect x="0.5" y="0.5" width="25" height="25" rx="4.5" stroke="#E1DCD0"/>
<g id="Group 1171276284">
<circle id="Ellipse 766" cx="12.9991" cy="13" r="4.44444" stroke="#FFFDFA"/>
<path id="Line 149" d="M9.66602 19.6667H16.3327" stroke="#FFC249" stroke-linecap="round"/>
<path id="Line 150" d="M10.7773 21.8889H15.2218" stroke="#FFC249" stroke-linecap="round"/>
<g id="Mask group">
<mask id="mask0_1943_72678" style="mask-type:alpha" maskUnits="userSpaceOnUse" x="3" y="3" width="20" height="20">
<path id="Subtract" d="M13.5557 22.4443C13.5557 22.7512 13.3069 23 13 23C12.6931 23 12.4443 22.7512 12.4443 22.4443V20.198C12.4443 19.8984 12.7004 19.667 13 19.667C13.2996 19.667 13.5557 19.8984 13.5557 20.198V22.4443ZM7.51558 17.6965C7.72744 17.4845 8.07415 17.5004 8.28608 17.7123C8.4979 17.924 8.51378 18.2705 8.30204 18.4823L6.71533 20.0697C6.49826 20.2868 6.14623 20.2869 5.92912 20.0697C5.71207 19.8527 5.71203 19.5008 5.92904 19.2837L7.51558 17.6965ZM20.0708 19.2837C20.2879 19.5008 20.2879 19.8527 20.0708 20.0698C19.8537 20.2869 19.5018 20.2869 19.2847 20.0698L17.6972 18.4823C17.4854 18.2705 17.5012 17.924 17.7131 17.7122C17.9249 17.5003 18.2715 17.4844 18.4834 17.6963L20.0708 19.2837ZM22.4443 12.4443C22.7512 12.4443 23 12.6931 23 13C23 13.3069 22.7512 13.5557 22.4443 13.5557H20.198C19.8984 13.5557 19.667 13.2996 19.667 13C19.667 12.7004 19.8984 12.4443 20.198 12.4443H22.4443ZM5.802 12.4443C6.10159 12.4443 6.33301 12.7004 6.33301 13C6.33301 13.2996 6.10159 13.5557 5.802 13.5557H3.55566C3.24878 13.5557 3 13.3069 3 13C3 12.6931 3.24878 12.4443 3.55566 12.4443H5.802ZM8.30296 7.51585C8.5147 7.72759 8.49888 8.07405 8.28735 8.286C8.07587 8.49792 7.72962 8.5138 7.51792 8.3021L5.92871 6.71289C5.71186 6.49604 5.71175 6.14448 5.92847 5.92749C6.14538 5.71031 6.49731 5.7102 6.71436 5.92725L8.30296 7.51585ZM20.0712 5.92761C20.288 6.14447 20.288 6.49608 20.071 6.71285L18.4806 8.30194C18.2691 8.51324 17.9233 8.49743 17.7118 8.2862C17.5001 8.07481 17.4842 7.72874 17.6958 7.51723L19.2862 5.92753C19.503 5.71082 19.8544 5.71085 20.0712 5.92761ZM13.5557 5.80106C13.5557 6.10064 13.2996 6.33301 13 6.33301C12.7004 6.33301 12.4443 6.10064 12.4443 5.80106V3.55566C12.4443 3.24878 12.6931 3 13 3C13.3069 3 13.5557 3.24878 13.5557 3.55566V5.80106Z" fill="#D9D9D9"/>
</mask>
<g mask="url(#mask0_1943_72678)">
<rect id="Rectangle 34625018" x="2.44531" y="2.44446" width="21.1111" height="12.2222" fill="#FFC249"/>
</g>
</g>
</g>
</g>
</svg>
