<svg width="24" height="24" viewBox="0 0 24 24" fill="none" xmlns="http://www.w3.org/2000/svg">
<g id="&#230;&#143;&#144;&#231;&#164;&#186;&#232;&#175;&#141;">
<g id="Group 1171276284">
<circle id="Ellipse 766" cx="11.9991" cy="12.0001" r="4.44444" stroke="#FFFDFA"/>
<path id="Line 149" d="M8.66602 18.6667H15.3327" stroke="#FFC249" stroke-linecap="round"/>
<path id="Line 150" d="M9.77734 20.8889H14.2218" stroke="#FFC249" stroke-linecap="round"/>
<g id="Mask group">
<mask id="mask0_1943_72564" style="mask-type:alpha" maskUnits="userSpaceOnUse" x="2" y="2" width="20" height="20">
<path id="Subtract" d="M12.5557 21.4443C12.5557 21.7512 12.3069 22 12 22C11.6931 22 11.4443 21.7512 11.4443 21.4443V19.198C11.4443 18.8984 11.7004 18.667 12 18.667C12.2996 18.667 12.5557 18.8984 12.5557 19.198V21.4443ZM6.51558 16.6965C6.72744 16.4845 7.07415 16.5004 7.28608 16.7123C7.4979 16.924 7.51378 17.2705 7.30204 17.4823L5.71533 19.0697C5.49826 19.2868 5.14623 19.2869 4.92912 19.0697C4.71207 18.8527 4.71203 18.5008 4.92904 18.2837L6.51558 16.6965ZM19.0708 18.2837C19.2879 18.5008 19.2879 18.8527 19.0708 19.0698C18.8537 19.2869 18.5018 19.2869 18.2847 19.0698L16.6972 17.4823C16.4854 17.2705 16.5012 16.924 16.7131 16.7122C16.9249 16.5003 17.2715 16.4844 17.4834 16.6963L19.0708 18.2837ZM21.4443 11.4443C21.7512 11.4443 22 11.6931 22 12C22 12.3069 21.7512 12.5557 21.4443 12.5557H19.198C18.8984 12.5557 18.667 12.2996 18.667 12C18.667 11.7004 18.8984 11.4443 19.198 11.4443H21.4443ZM4.802 11.4443C5.10159 11.4443 5.33301 11.7004 5.33301 12C5.33301 12.2996 5.10159 12.5557 4.802 12.5557H2.55566C2.24878 12.5557 2 12.3069 2 12C2 11.6931 2.24878 11.4443 2.55566 11.4443H4.802ZM7.30296 6.51585C7.5147 6.72759 7.49888 7.07405 7.28735 7.286C7.07587 7.49792 6.72962 7.5138 6.51792 7.3021L4.92871 5.71289C4.71186 5.49604 4.71175 5.14448 4.92847 4.92749C5.14538 4.71031 5.49731 4.7102 5.71436 4.92725L7.30296 6.51585ZM19.0712 4.92761C19.288 5.14447 19.288 5.49608 19.071 5.71285L17.4806 7.30194C17.2691 7.51324 16.9233 7.49743 16.7118 7.2862C16.5001 7.07481 16.4842 6.72874 16.6958 6.51723L18.2862 4.92753C18.503 4.71082 18.8544 4.71085 19.0712 4.92761ZM12.5557 4.80106C12.5557 5.10064 12.2996 5.33301 12 5.33301C11.7004 5.33301 11.4443 5.10064 11.4443 4.80106V2.55566C11.4443 2.24878 11.6931 2 12 2C12.3069 2 12.5557 2.24878 12.5557 2.55566V4.80106Z" fill="#D9D9D9"/>
</mask>
<g mask="url(#mask0_1943_72564)">
<rect id="Rectangle 34625018" x="1.44531" y="1.44434" width="21.1111" height="12.2222" fill="#FFC249"/>
</g>
</g>
</g>
</g>
</svg>
