<svg width="1256" height="346" viewBox="0 0 1256 346" fill="none" xmlns="http://www.w3.org/2000/svg">
<g id="Frame 1171278156">
<g clip-path="url(#clip0_10270_202405)">
<rect x="3" y="3" width="1250" height="340" rx="20" fill="#322D20"/>
<path id="Subtract" fill-rule="evenodd" clip-rule="evenodd" d="M1305 342.998L-145 343L-145 313.002L1305 313L1305 342.998ZM1291.67 334.667C1291.67 335.127 1291.29 335.5 1290.83 335.5L1279.17 335.5C1278.71 335.5 1278.33 335.127 1278.33 334.667L1278.33 321.334C1278.33 320.873 1278.71 320.5 1279.17 320.5L1290.83 320.5C1291.29 320.5 1291.67 320.873 1291.67 321.334L1291.67 334.667ZM1265 335.5C1265.46 335.5 1265.83 335.127 1265.83 334.667L1265.83 321.334C1265.83 320.873 1265.46 320.5 1265 320.5L1253.33 320.5C1252.87 320.5 1252.5 320.873 1252.5 321.334L1252.5 334.667C1252.5 335.127 1252.87 335.5 1253.33 335.5L1265 335.5ZM1240 334.667C1240 335.127 1239.63 335.5 1239.17 335.5L1227.5 335.5C1227.04 335.5 1226.67 335.127 1226.67 334.667L1226.67 321.334C1226.67 320.873 1227.04 320.5 1227.5 320.5L1239.17 320.5C1239.63 320.5 1240 320.873 1240 321.334L1240 334.667ZM1213.33 335.5C1213.79 335.5 1214.17 335.127 1214.17 334.667L1214.17 321.334C1214.17 320.873 1213.79 320.5 1213.33 320.5L1201.67 320.5C1201.21 320.5 1200.83 320.873 1200.83 321.334L1200.83 334.667C1200.83 335.127 1201.21 335.5 1201.67 335.5L1213.33 335.5ZM1188.33 334.667C1188.33 335.127 1187.96 335.5 1187.5 335.5L1175.83 335.5C1175.37 335.5 1175 335.127 1175 334.667L1175 321.334C1175 320.873 1175.37 320.5 1175.83 320.5L1187.5 320.5C1187.96 320.5 1188.33 320.873 1188.33 321.334L1188.33 334.667ZM1161.67 335.5C1162.13 335.5 1162.5 335.127 1162.5 334.667L1162.5 321.334C1162.5 320.873 1162.13 320.5 1161.67 320.5L1150 320.5C1149.54 320.5 1149.17 320.873 1149.17 321.334L1149.17 334.667C1149.17 335.127 1149.54 335.5 1150 335.5L1161.67 335.5ZM1136.67 334.667C1136.67 335.127 1136.29 335.5 1135.83 335.5L1124.17 335.5C1123.71 335.5 1123.33 335.127 1123.33 334.667L1123.33 321.334C1123.33 320.873 1123.71 320.5 1124.17 320.5L1135.83 320.5C1136.29 320.5 1136.67 320.873 1136.67 321.334L1136.67 334.667ZM1110 335.5C1110.46 335.5 1110.83 335.127 1110.83 334.667L1110.83 321.334C1110.83 320.873 1110.46 320.5 1110 320.5L1098.33 320.5C1097.87 320.5 1097.5 320.873 1097.5 321.334L1097.5 334.667C1097.5 335.127 1097.87 335.5 1098.33 335.5L1110 335.5ZM1085 334.667C1085 335.127 1084.63 335.5 1084.17 335.5L1072.5 335.5C1072.04 335.5 1071.67 335.127 1071.67 334.667L1071.67 321.334C1071.67 320.873 1072.04 320.5 1072.5 320.5L1084.17 320.5C1084.63 320.5 1085 320.873 1085 321.334L1085 334.667ZM1058.33 335.5C1058.79 335.5 1059.17 335.127 1059.17 334.667L1059.17 321.334C1059.17 320.873 1058.79 320.5 1058.33 320.5L1046.67 320.5C1046.21 320.5 1045.83 320.873 1045.83 321.334L1045.83 334.667C1045.83 335.127 1046.21 335.5 1046.67 335.5L1058.33 335.5ZM1033.33 334.667C1033.33 335.127 1032.96 335.5 1032.5 335.5L1020.83 335.5C1020.37 335.5 1020 335.127 1020 334.667L1020 321.334C1020 320.873 1020.37 320.5 1020.83 320.5L1032.5 320.5C1032.96 320.5 1033.33 320.873 1033.33 321.334L1033.33 334.667ZM1006.67 335.5C1007.13 335.5 1007.5 335.127 1007.5 334.667L1007.5 321.334C1007.5 320.873 1007.13 320.5 1006.67 320.5L995 320.5C994.54 320.5 994.167 320.873 994.167 321.334L994.167 334.667C994.167 335.127 994.54 335.5 995 335.5L1006.67 335.5ZM981.667 334.667C981.667 335.127 981.294 335.5 980.833 335.5L969.167 335.5C968.706 335.5 968.333 335.127 968.333 334.667L968.333 321.334C968.333 320.873 968.706 320.5 969.167 320.5L980.833 320.5C981.294 320.5 981.667 320.873 981.667 321.334L981.667 334.667ZM955 335.5C955.46 335.5 955.833 335.127 955.833 334.667L955.833 321.334C955.833 320.873 955.46 320.5 955 320.5L943.333 320.5C942.873 320.5 942.5 320.873 942.5 321.334L942.5 334.667C942.5 335.127 942.873 335.5 943.333 335.5L955 335.5ZM930 334.667C930 335.127 929.627 335.5 929.167 335.5L917.5 335.5C917.04 335.5 916.667 335.127 916.667 334.667L916.667 321.334C916.667 320.873 917.04 320.5 917.5 320.5L929.167 320.5C929.627 320.5 930 320.873 930 321.334L930 334.667ZM903.333 335.5C903.794 335.5 904.167 335.127 904.167 334.667L904.167 321.334C904.167 320.873 903.794 320.5 903.333 320.5L891.667 320.5C891.206 320.5 890.833 320.873 890.833 321.334L890.833 334.667C890.833 335.127 891.206 335.5 891.667 335.5L903.333 335.5ZM878.333 334.667C878.333 335.127 877.96 335.5 877.5 335.5L865.833 335.5C865.373 335.5 865 335.127 865 334.667L865 321.334C865 320.873 865.373 320.5 865.833 320.5L877.5 320.5C877.96 320.5 878.333 320.873 878.333 321.334L878.333 334.667ZM851.667 335.5C852.127 335.5 852.5 335.127 852.5 334.667L852.5 321.334C852.5 320.873 852.127 320.5 851.667 320.5L840 320.5C839.54 320.5 839.167 320.873 839.167 321.334L839.167 334.667C839.167 335.127 839.54 335.5 840 335.5L851.667 335.5ZM826.667 334.667C826.667 335.127 826.294 335.5 825.833 335.5L814.167 335.5C813.706 335.5 813.333 335.127 813.333 334.667L813.333 321.334C813.333 320.873 813.706 320.5 814.167 320.5L825.833 320.5C826.294 320.5 826.667 320.873 826.667 321.334L826.667 334.667ZM800 335.5C800.46 335.5 800.833 335.127 800.833 334.667L800.833 321.334C800.833 320.873 800.46 320.5 800 320.5L788.333 320.5C787.873 320.5 787.5 320.873 787.5 321.334L787.5 334.667C787.5 335.127 787.873 335.5 788.333 335.5L800 335.5ZM775 334.667C775 335.127 774.627 335.5 774.167 335.5L762.5 335.5C762.04 335.5 761.667 335.127 761.667 334.667L761.667 321.334C761.667 320.873 762.04 320.5 762.5 320.5L774.167 320.5C774.627 320.5 775 320.873 775 321.334L775 334.667ZM748.333 335.5C748.794 335.5 749.167 335.127 749.167 334.667L749.167 321.334C749.167 320.873 748.794 320.5 748.333 320.5L736.667 320.5C736.206 320.5 735.833 320.873 735.833 321.334L735.833 334.667C735.833 335.127 736.206 335.5 736.667 335.5L748.333 335.5ZM723.333 334.667C723.333 335.127 722.96 335.5 722.5 335.5L710.833 335.5C710.373 335.5 710 335.127 710 334.667L710 321.334C710 320.873 710.373 320.5 710.833 320.5L722.5 320.5C722.96 320.5 723.333 320.873 723.333 321.334L723.333 334.667ZM696.667 335.5C697.127 335.5 697.5 335.127 697.5 334.667L697.5 321.334C697.5 320.873 697.127 320.5 696.667 320.5L685 320.5C684.54 320.5 684.167 320.873 684.167 321.334L684.167 334.667C684.167 335.127 684.54 335.5 685 335.5L696.667 335.5ZM671.667 334.667C671.667 335.127 671.294 335.5 670.833 335.5L659.167 335.5C658.706 335.5 658.333 335.127 658.333 334.667L658.333 321.334C658.333 320.873 658.706 320.5 659.167 320.5L670.833 320.5C671.294 320.5 671.667 320.873 671.667 321.334L671.667 334.667ZM645 335.5C645.46 335.5 645.833 335.127 645.833 334.667L645.833 321.334C645.833 320.873 645.46 320.5 645 320.5L633.333 320.5C632.873 320.5 632.5 320.873 632.5 321.334L632.5 334.667C632.5 335.127 632.873 335.5 633.333 335.5L645 335.5ZM620 334.667C620 335.127 619.627 335.5 619.167 335.5L607.5 335.5C607.04 335.5 606.667 335.127 606.667 334.667L606.667 321.334C606.667 320.873 607.04 320.5 607.5 320.5L619.167 320.5C619.627 320.5 620 320.873 620 321.334L620 334.667ZM593.333 335.5C593.794 335.5 594.167 335.127 594.167 334.667L594.167 321.334C594.167 320.873 593.794 320.5 593.333 320.5L581.667 320.5C581.206 320.5 580.833 320.873 580.833 321.334L580.833 334.667C580.833 335.127 581.206 335.5 581.667 335.5L593.333 335.5ZM568.333 334.667C568.333 335.127 567.96 335.5 567.5 335.5L555.833 335.5C555.373 335.5 555 335.127 555 334.667L555 321.334C555 320.873 555.373 320.5 555.833 320.5L567.5 320.5C567.96 320.5 568.333 320.873 568.333 321.334L568.333 334.667ZM541.667 335.5C542.127 335.5 542.5 335.127 542.5 334.667L542.5 321.334C542.5 320.873 542.127 320.5 541.667 320.5L530 320.5C529.54 320.5 529.167 320.873 529.167 321.334L529.167 334.667C529.167 335.127 529.54 335.5 530 335.5L541.667 335.5ZM516.667 334.667C516.667 335.127 516.294 335.5 515.833 335.5L504.167 335.5C503.706 335.5 503.333 335.127 503.333 334.667L503.333 321.334C503.333 320.873 503.706 320.5 504.167 320.5L515.833 320.5C516.294 320.5 516.667 320.873 516.667 321.334L516.667 334.667ZM490 335.5C490.46 335.5 490.833 335.127 490.833 334.667L490.833 321.334C490.833 320.873 490.46 320.5 490 320.5L478.333 320.5C477.873 320.5 477.5 320.873 477.5 321.334L477.5 334.667C477.5 335.127 477.873 335.5 478.333 335.5L490 335.5ZM465 334.667C465 335.127 464.627 335.5 464.167 335.5L452.5 335.5C452.04 335.5 451.667 335.127 451.667 334.667L451.667 321.334C451.667 320.873 452.04 320.5 452.5 320.5L464.167 320.5C464.627 320.5 465 320.873 465 321.334L465 334.667ZM438.333 335.5C438.794 335.5 439.167 335.127 439.167 334.667L439.167 321.334C439.167 320.873 438.794 320.5 438.333 320.5L426.667 320.5C426.206 320.5 425.833 320.873 425.833 321.334L425.833 334.667C425.833 335.127 426.206 335.5 426.667 335.5L438.333 335.5ZM413.333 334.667C413.333 335.127 412.96 335.5 412.5 335.5L400.833 335.5C400.373 335.5 400 335.127 400 334.667L400 321.334C400 320.873 400.373 320.5 400.833 320.5L412.5 320.5C412.96 320.5 413.333 320.873 413.333 321.334L413.333 334.667ZM386.667 335.5C387.127 335.5 387.5 335.127 387.5 334.667L387.5 321.334C387.5 320.873 387.127 320.5 386.667 320.5L375 320.5C374.54 320.5 374.167 320.873 374.167 321.334L374.167 334.667C374.167 335.127 374.54 335.5 375 335.5L386.667 335.5ZM361.667 334.667C361.667 335.127 361.293 335.5 360.833 335.5L349.167 335.5C348.706 335.5 348.333 335.127 348.333 334.667L348.333 321.334C348.333 320.873 348.706 320.5 349.167 320.5L360.833 320.5C361.293 320.5 361.667 320.873 361.667 321.334L361.667 334.667ZM335 335.5C335.46 335.5 335.833 335.127 335.833 334.667L335.833 321.334C335.833 320.873 335.46 320.5 335 320.5L323.333 320.5C322.873 320.5 322.5 320.873 322.5 321.334L322.5 334.667C322.5 335.127 322.873 335.5 323.333 335.5L335 335.5ZM310 334.667C310 335.127 309.627 335.5 309.167 335.5L297.5 335.5C297.04 335.5 296.667 335.127 296.667 334.667L296.667 321.334C296.667 320.873 297.04 320.5 297.5 320.5L309.167 320.5C309.627 320.5 310 320.873 310 321.334L310 334.667ZM283.333 335.5C283.793 335.5 284.167 335.127 284.167 334.667L284.167 321.334C284.167 320.873 283.793 320.5 283.333 320.5L271.667 320.5C271.206 320.5 270.833 320.873 270.833 321.334L270.833 334.667C270.833 335.127 271.206 335.5 271.667 335.5L283.333 335.5ZM258.333 334.667C258.333 335.127 257.96 335.5 257.5 335.5L245.833 335.5C245.373 335.5 245 335.127 245 334.667L245 321.334C245 320.873 245.373 320.5 245.833 320.5L257.5 320.5C257.96 320.5 258.333 320.873 258.333 321.334L258.333 334.667ZM231.667 335.5C232.127 335.5 232.5 335.127 232.5 334.667L232.5 321.334C232.5 320.873 232.127 320.5 231.667 320.5L220 320.5C219.54 320.5 219.167 320.873 219.167 321.334L219.167 334.667C219.167 335.127 219.54 335.5 220 335.5L231.667 335.5ZM206.667 334.667C206.667 335.127 206.293 335.5 205.833 335.5L194.167 335.5C193.706 335.5 193.333 335.127 193.333 334.667L193.333 321.334C193.333 320.873 193.706 320.5 194.167 320.5L205.833 320.5C206.293 320.5 206.667 320.873 206.667 321.334L206.667 334.667ZM180 335.5C180.46 335.5 180.833 335.127 180.833 334.667L180.833 321.334C180.833 320.873 180.46 320.5 180 320.5L168.333 320.5C167.873 320.5 167.5 320.873 167.5 321.334L167.5 334.667C167.5 335.127 167.873 335.5 168.333 335.5L180 335.5ZM155 334.667C155 335.127 154.627 335.5 154.167 335.5L142.5 335.5C142.04 335.5 141.667 335.127 141.667 334.667L141.667 321.334C141.667 320.873 142.04 320.5 142.5 320.5L154.167 320.5C154.627 320.5 155 320.873 155 321.334L155 334.667ZM128.333 335.5C128.793 335.5 129.167 335.127 129.167 334.667L129.167 321.334C129.167 320.873 128.793 320.5 128.333 320.5L116.667 320.5C116.206 320.5 115.833 320.873 115.833 321.334L115.833 334.667C115.833 335.127 116.206 335.5 116.667 335.5L128.333 335.5ZM103.333 334.667C103.333 335.127 102.96 335.5 102.5 335.5L90.8332 335.5C90.373 335.5 89.9999 335.127 89.9999 334.667L89.9999 321.334C89.9999 320.873 90.373 320.5 90.8332 320.5L102.5 320.5C102.96 320.5 103.333 320.873 103.333 321.334L103.333 334.667ZM76.6666 335.5C77.1268 335.5 77.4999 335.127 77.4999 334.667L77.4999 321.334C77.4999 320.873 77.1268 320.5 76.6666 320.5L64.9999 320.5C64.5397 320.5 64.1666 320.873 64.1666 321.334L64.1666 334.667C64.1666 335.127 64.5397 335.5 64.9999 335.5L76.6666 335.5ZM51.6666 334.667C51.6666 335.127 51.2935 335.5 50.8332 335.5L39.1666 335.5C38.7064 335.5 38.3332 335.127 38.3332 334.667L38.3332 321.334C38.3332 320.873 38.7064 320.5 39.1666 320.5L50.8332 320.5C51.2935 320.5 51.6666 320.873 51.6666 321.334L51.6666 334.667ZM24.9999 335.5C25.4601 335.5 25.8332 335.127 25.8332 334.667L25.8332 321.334C25.8332 320.873 25.4601 320.5 24.9999 320.5L13.3332 320.5C12.873 320.5 12.4999 320.873 12.4999 321.334L12.4999 334.667C12.4999 335.127 12.873 335.5 13.3332 335.5L24.9999 335.5ZM-8.54398e-05 334.667C-8.548e-05 335.127 -0.373214 335.5 -0.833419 335.5L-12.5001 335.5C-12.9603 335.5 -13.3334 335.127 -13.3334 334.667L-13.3334 321.334C-13.3334 320.873 -12.9603 320.5 -12.5001 320.5L-0.833418 320.5C-0.373212 320.5 -8.42336e-05 320.873 -8.42739e-05 321.334L-8.54398e-05 334.667ZM-26.6668 335.5C-26.2065 335.5 -25.8334 335.127 -25.8334 334.667L-25.8334 321.334C-25.8334 320.873 -26.2065 320.5 -26.6668 320.5L-38.3334 320.5C-38.7936 320.5 -39.1668 320.873 -39.1668 321.334L-39.1668 334.667C-39.1668 335.127 -38.7936 335.5 -38.3334 335.5L-26.6668 335.5ZM-51.6668 334.667C-51.6668 335.127 -52.0399 335.5 -52.5001 335.5L-64.1668 335.5C-64.627 335.5 -65.0001 335.127 -65.0001 334.667L-65.0001 321.334C-65.0001 320.873 -64.627 320.5 -64.1668 320.5L-52.5001 320.5C-52.0399 320.5 -51.6668 320.873 -51.6668 321.334L-51.6668 334.667ZM-78.3334 335.5C-77.8732 335.5 -77.5001 335.127 -77.5001 334.667L-77.5001 321.334C-77.5001 320.873 -77.8732 320.5 -78.3334 320.5L-90.0001 320.5C-90.4603 320.5 -90.8334 320.873 -90.8334 321.334L-90.8334 334.667C-90.8334 335.127 -90.4603 335.5 -90.0001 335.5L-78.3334 335.5ZM-103.333 334.667C-103.333 335.127 -103.707 335.5 -104.167 335.5L-115.833 335.5C-116.294 335.5 -116.667 335.127 -116.667 334.667L-116.667 321.334C-116.667 320.873 -116.294 320.5 -115.833 320.5L-104.167 320.5C-103.707 320.5 -103.333 320.873 -103.333 321.334L-103.333 334.667ZM-130 335.5C-129.54 335.5 -129.167 335.127 -129.167 334.667L-129.167 321.334C-129.167 320.873 -129.54 320.5 -130 320.5L-141.667 320.5C-142.127 320.5 -142.5 320.873 -142.5 321.334L-142.5 334.667C-142.5 335.127 -142.127 335.5 -141.667 335.5L-130 335.5Z" fill="#6F6855"/>
<path id="Subtract_2" fill-rule="evenodd" clip-rule="evenodd" d="M1305 32.9981L-145 32.9999L-145 3.00193L1305 3.00013L1305 32.9981ZM1291.67 24.6668C1291.67 25.127 1291.29 25.5001 1290.83 25.5001L1279.17 25.5001C1278.71 25.5001 1278.33 25.127 1278.33 24.6668L1278.33 11.3337C1278.33 10.8735 1278.71 10.5004 1279.17 10.5004L1290.83 10.5004C1291.29 10.5004 1291.67 10.8735 1291.67 11.3337L1291.67 24.6668ZM1265 25.5001C1265.46 25.5001 1265.83 25.127 1265.83 24.6668L1265.83 11.3337C1265.83 10.8735 1265.46 10.5004 1265 10.5004L1253.33 10.5004C1252.87 10.5004 1252.5 10.8735 1252.5 11.3337L1252.5 24.6668C1252.5 25.127 1252.87 25.5001 1253.33 25.5001L1265 25.5001ZM1240 24.6668C1240 25.127 1239.63 25.5001 1239.17 25.5001L1227.5 25.5001C1227.04 25.5001 1226.67 25.127 1226.67 24.6668L1226.67 11.3337C1226.67 10.8735 1227.04 10.5004 1227.5 10.5004L1239.17 10.5004C1239.63 10.5004 1240 10.8735 1240 11.3337L1240 24.6668ZM1213.33 25.5001C1213.79 25.5001 1214.17 25.127 1214.17 24.6668L1214.17 11.3337C1214.17 10.8735 1213.79 10.5004 1213.33 10.5004L1201.67 10.5004C1201.21 10.5004 1200.83 10.8735 1200.83 11.3337L1200.83 24.6668C1200.83 25.127 1201.21 25.5001 1201.67 25.5001L1213.33 25.5001ZM1188.33 24.6668C1188.33 25.127 1187.96 25.5001 1187.5 25.5001L1175.83 25.5001C1175.37 25.5001 1175 25.127 1175 24.6668L1175 11.3337C1175 10.8735 1175.37 10.5004 1175.83 10.5004L1187.5 10.5004C1187.96 10.5004 1188.33 10.8735 1188.33 11.3337L1188.33 24.6668ZM1161.67 25.5001C1162.13 25.5001 1162.5 25.127 1162.5 24.6668L1162.5 11.3337C1162.5 10.8735 1162.13 10.5004 1161.67 10.5004L1150 10.5004C1149.54 10.5004 1149.17 10.8735 1149.17 11.3337L1149.17 24.6668C1149.17 25.127 1149.54 25.5001 1150 25.5001L1161.67 25.5001ZM1136.67 24.6668C1136.67 25.127 1136.29 25.5001 1135.83 25.5001L1124.17 25.5001C1123.71 25.5001 1123.33 25.127 1123.33 24.6668L1123.33 11.3337C1123.33 10.8735 1123.71 10.5004 1124.17 10.5004L1135.83 10.5004C1136.29 10.5004 1136.67 10.8735 1136.67 11.3337L1136.67 24.6668ZM1110 25.5001C1110.46 25.5001 1110.83 25.127 1110.83 24.6668L1110.83 11.3337C1110.83 10.8735 1110.46 10.5004 1110 10.5004L1098.33 10.5004C1097.87 10.5004 1097.5 10.8735 1097.5 11.3337L1097.5 24.6668C1097.5 25.127 1097.87 25.5001 1098.33 25.5001L1110 25.5001ZM1085 24.6668C1085 25.127 1084.63 25.5001 1084.17 25.5001L1072.5 25.5001C1072.04 25.5001 1071.67 25.127 1071.67 24.6668L1071.67 11.3337C1071.67 10.8735 1072.04 10.5004 1072.5 10.5004L1084.17 10.5004C1084.63 10.5004 1085 10.8735 1085 11.3337L1085 24.6668ZM1058.33 25.5001C1058.79 25.5001 1059.17 25.127 1059.17 24.6668L1059.17 11.3337C1059.17 10.8735 1058.79 10.5004 1058.33 10.5004L1046.67 10.5004C1046.21 10.5004 1045.83 10.8735 1045.83 11.3337L1045.83 24.6668C1045.83 25.127 1046.21 25.5001 1046.67 25.5001L1058.33 25.5001ZM1033.33 24.6668C1033.33 25.127 1032.96 25.5001 1032.5 25.5001L1020.83 25.5001C1020.37 25.5001 1020 25.127 1020 24.6668L1020 11.3337C1020 10.8735 1020.37 10.5004 1020.83 10.5004L1032.5 10.5004C1032.96 10.5004 1033.33 10.8735 1033.33 11.3337L1033.33 24.6668ZM1006.67 25.5001C1007.13 25.5001 1007.5 25.127 1007.5 24.6668L1007.5 11.3337C1007.5 10.8735 1007.13 10.5004 1006.67 10.5004L995 10.5004C994.54 10.5004 994.167 10.8735 994.167 11.3337L994.167 24.6668C994.167 25.127 994.54 25.5001 995 25.5001L1006.67 25.5001ZM981.667 24.6668C981.667 25.127 981.294 25.5001 980.833 25.5001L969.167 25.5001C968.706 25.5001 968.333 25.127 968.333 24.6668L968.333 11.3337C968.333 10.8735 968.706 10.5004 969.167 10.5004L980.833 10.5004C981.294 10.5004 981.667 10.8735 981.667 11.3337L981.667 24.6668ZM955 25.5001C955.46 25.5001 955.833 25.127 955.833 24.6668L955.833 11.3337C955.833 10.8735 955.46 10.5004 955 10.5004L943.333 10.5004C942.873 10.5004 942.5 10.8735 942.5 11.3337L942.5 24.6668C942.5 25.127 942.873 25.5001 943.333 25.5001L955 25.5001ZM930 24.6668C930 25.127 929.627 25.5001 929.167 25.5001L917.5 25.5001C917.04 25.5001 916.667 25.127 916.667 24.6668L916.667 11.3337C916.667 10.8735 917.04 10.5004 917.5 10.5004L929.167 10.5004C929.627 10.5004 930 10.8735 930 11.3337L930 24.6668ZM903.333 25.5001C903.794 25.5001 904.167 25.127 904.167 24.6668L904.167 11.3337C904.167 10.8735 903.794 10.5004 903.333 10.5004L891.667 10.5004C891.206 10.5004 890.833 10.8735 890.833 11.3337L890.833 24.6668C890.833 25.127 891.206 25.5001 891.667 25.5001L903.333 25.5001ZM878.333 24.6668C878.333 25.127 877.96 25.5001 877.5 25.5001L865.833 25.5001C865.373 25.5001 865 25.127 865 24.6668L865 11.3337C865 10.8735 865.373 10.5004 865.833 10.5004L877.5 10.5004C877.96 10.5004 878.333 10.8735 878.333 11.3337L878.333 24.6668ZM851.667 25.5001C852.127 25.5001 852.5 25.127 852.5 24.6668L852.5 11.3337C852.5 10.8735 852.127 10.5004 851.667 10.5004L840 10.5004C839.54 10.5004 839.167 10.8735 839.167 11.3337L839.167 24.6668C839.167 25.127 839.54 25.5001 840 25.5001L851.667 25.5001ZM826.667 24.6668C826.667 25.127 826.294 25.5001 825.833 25.5001L814.167 25.5001C813.706 25.5001 813.333 25.127 813.333 24.6668L813.333 11.3337C813.333 10.8735 813.706 10.5004 814.167 10.5004L825.833 10.5004C826.294 10.5004 826.667 10.8735 826.667 11.3337L826.667 24.6668ZM800 25.5001C800.46 25.5001 800.833 25.127 800.833 24.6668L800.833 11.3337C800.833 10.8735 800.46 10.5004 800 10.5004L788.333 10.5004C787.873 10.5004 787.5 10.8735 787.5 11.3337L787.5 24.6668C787.5 25.127 787.873 25.5001 788.333 25.5001L800 25.5001ZM775 24.6668C775 25.127 774.627 25.5001 774.167 25.5001L762.5 25.5001C762.04 25.5001 761.667 25.127 761.667 24.6668L761.667 11.3337C761.667 10.8735 762.04 10.5004 762.5 10.5004L774.167 10.5004C774.627 10.5004 775 10.8735 775 11.3337L775 24.6668ZM748.333 25.5001C748.794 25.5001 749.167 25.127 749.167 24.6668L749.167 11.3337C749.167 10.8735 748.794 10.5004 748.333 10.5004L736.667 10.5004C736.206 10.5004 735.833 10.8735 735.833 11.3337L735.833 24.6668C735.833 25.127 736.206 25.5001 736.667 25.5001L748.333 25.5001ZM723.333 24.6668C723.333 25.127 722.96 25.5001 722.5 25.5001L710.833 25.5001C710.373 25.5001 710 25.127 710 24.6668L710 11.3337C710 10.8735 710.373 10.5004 710.833 10.5004L722.5 10.5004C722.96 10.5004 723.333 10.8735 723.333 11.3337L723.333 24.6668ZM696.667 25.5001C697.127 25.5001 697.5 25.127 697.5 24.6668L697.5 11.3337C697.5 10.8735 697.127 10.5004 696.667 10.5004L685 10.5004C684.54 10.5004 684.167 10.8735 684.167 11.3337L684.167 24.6668C684.167 25.127 684.54 25.5001 685 25.5001L696.667 25.5001ZM671.667 24.6668C671.667 25.127 671.294 25.5001 670.833 25.5001L659.167 25.5001C658.706 25.5001 658.333 25.127 658.333 24.6668L658.333 11.3337C658.333 10.8735 658.706 10.5004 659.167 10.5004L670.833 10.5004C671.294 10.5004 671.667 10.8735 671.667 11.3337L671.667 24.6668ZM645 25.5001C645.46 25.5001 645.833 25.127 645.833 24.6668L645.833 11.3337C645.833 10.8735 645.46 10.5004 645 10.5004L633.333 10.5004C632.873 10.5004 632.5 10.8735 632.5 11.3337L632.5 24.6668C632.5 25.127 632.873 25.5001 633.333 25.5001L645 25.5001ZM620 24.6668C620 25.127 619.627 25.5001 619.167 25.5001L607.5 25.5001C607.04 25.5001 606.667 25.127 606.667 24.6668L606.667 11.3337C606.667 10.8735 607.04 10.5004 607.5 10.5004L619.167 10.5004C619.627 10.5004 620 10.8735 620 11.3337L620 24.6668ZM593.333 25.5001C593.794 25.5001 594.167 25.127 594.167 24.6668L594.167 11.3337C594.167 10.8735 593.794 10.5004 593.333 10.5004L581.667 10.5004C581.206 10.5004 580.833 10.8735 580.833 11.3337L580.833 24.6668C580.833 25.127 581.206 25.5001 581.667 25.5001L593.333 25.5001ZM568.333 24.6668C568.333 25.127 567.96 25.5001 567.5 25.5001L555.833 25.5001C555.373 25.5001 555 25.127 555 24.6668L555 11.3337C555 10.8735 555.373 10.5004 555.833 10.5004L567.5 10.5004C567.96 10.5004 568.333 10.8735 568.333 11.3337L568.333 24.6668ZM541.667 25.5001C542.127 25.5001 542.5 25.127 542.5 24.6668L542.5 11.3337C542.5 10.8735 542.127 10.5004 541.667 10.5004L530 10.5004C529.54 10.5004 529.167 10.8735 529.167 11.3337L529.167 24.6668C529.167 25.127 529.54 25.5001 530 25.5001L541.667 25.5001ZM516.667 24.6668C516.667 25.127 516.294 25.5001 515.833 25.5001L504.167 25.5001C503.706 25.5001 503.333 25.127 503.333 24.6668L503.333 11.3337C503.333 10.8735 503.706 10.5004 504.167 10.5004L515.833 10.5004C516.294 10.5004 516.667 10.8735 516.667 11.3337L516.667 24.6668ZM490 25.5001C490.46 25.5001 490.833 25.127 490.833 24.6668L490.833 11.3337C490.833 10.8735 490.46 10.5004 490 10.5004L478.333 10.5004C477.873 10.5004 477.5 10.8735 477.5 11.3337L477.5 24.6668C477.5 25.127 477.873 25.5001 478.333 25.5001L490 25.5001ZM465 24.6668C465 25.127 464.627 25.5001 464.167 25.5001L452.5 25.5001C452.04 25.5001 451.667 25.127 451.667 24.6668L451.667 11.3337C451.667 10.8735 452.04 10.5004 452.5 10.5004L464.167 10.5004C464.627 10.5004 465 10.8735 465 11.3337L465 24.6668ZM438.333 25.5001C438.794 25.5001 439.167 25.127 439.167 24.6668L439.167 11.3337C439.167 10.8735 438.794 10.5004 438.333 10.5004L426.667 10.5004C426.206 10.5004 425.833 10.8735 425.833 11.3337L425.833 24.6668C425.833 25.127 426.206 25.5001 426.667 25.5001L438.333 25.5001ZM413.333 24.6668C413.333 25.127 412.96 25.5001 412.5 25.5001L400.833 25.5001C400.373 25.5001 400 25.127 400 24.6668L400 11.3337C400 10.8735 400.373 10.5004 400.833 10.5004L412.5 10.5004C412.96 10.5004 413.333 10.8735 413.333 11.3337L413.333 24.6668ZM386.667 25.5001C387.127 25.5001 387.5 25.127 387.5 24.6668L387.5 11.3337C387.5 10.8735 387.127 10.5004 386.667 10.5004L375 10.5004C374.54 10.5004 374.167 10.8735 374.167 11.3337L374.167 24.6668C374.167 25.127 374.54 25.5001 375 25.5001L386.667 25.5001ZM361.667 24.6668C361.667 25.127 361.293 25.5001 360.833 25.5001L349.167 25.5001C348.706 25.5001 348.333 25.127 348.333 24.6668L348.333 11.3337C348.333 10.8735 348.706 10.5004 349.167 10.5004L360.833 10.5004C361.293 10.5004 361.667 10.8735 361.667 11.3337L361.667 24.6668ZM335 25.5001C335.46 25.5001 335.833 25.127 335.833 24.6668L335.833 11.3337C335.833 10.8735 335.46 10.5004 335 10.5004L323.333 10.5004C322.873 10.5004 322.5 10.8735 322.5 11.3337L322.5 24.6668C322.5 25.127 322.873 25.5001 323.333 25.5001L335 25.5001ZM310 24.6668C310 25.127 309.627 25.5001 309.167 25.5001L297.5 25.5001C297.04 25.5001 296.667 25.127 296.667 24.6668L296.667 11.3337C296.667 10.8735 297.04 10.5004 297.5 10.5004L309.167 10.5004C309.627 10.5004 310 10.8735 310 11.3337L310 24.6668ZM283.333 25.5001C283.793 25.5001 284.167 25.127 284.167 24.6668L284.167 11.3337C284.167 10.8735 283.793 10.5004 283.333 10.5004L271.667 10.5004C271.206 10.5004 270.833 10.8735 270.833 11.3337L270.833 24.6668C270.833 25.127 271.206 25.5001 271.667 25.5001L283.333 25.5001ZM258.333 24.6668C258.333 25.127 257.96 25.5001 257.5 25.5001L245.833 25.5001C245.373 25.5001 245 25.127 245 24.6668L245 11.3337C245 10.8735 245.373 10.5004 245.833 10.5004L257.5 10.5004C257.96 10.5004 258.333 10.8735 258.333 11.3337L258.333 24.6668ZM231.667 25.5001C232.127 25.5001 232.5 25.127 232.5 24.6668L232.5 11.3337C232.5 10.8735 232.127 10.5004 231.667 10.5004L220 10.5004C219.54 10.5004 219.167 10.8735 219.167 11.3337L219.167 24.6668C219.167 25.127 219.54 25.5001 220 25.5001L231.667 25.5001ZM206.667 24.6668C206.667 25.127 206.293 25.5001 205.833 25.5001L194.167 25.5001C193.706 25.5001 193.333 25.127 193.333 24.6668L193.333 11.3337C193.333 10.8735 193.706 10.5004 194.167 10.5004L205.833 10.5004C206.293 10.5004 206.667 10.8735 206.667 11.3337L206.667 24.6668ZM180 25.5001C180.46 25.5001 180.833 25.127 180.833 24.6668L180.833 11.3337C180.833 10.8735 180.46 10.5004 180 10.5004L168.333 10.5004C167.873 10.5004 167.5 10.8735 167.5 11.3337L167.5 24.6668C167.5 25.127 167.873 25.5001 168.333 25.5001L180 25.5001ZM155 24.6668C155 25.127 154.627 25.5001 154.167 25.5001L142.5 25.5001C142.04 25.5001 141.667 25.127 141.667 24.6668L141.667 11.3337C141.667 10.8735 142.04 10.5004 142.5 10.5004L154.167 10.5004C154.627 10.5004 155 10.8735 155 11.3337L155 24.6668ZM128.333 25.5001C128.793 25.5001 129.167 25.127 129.167 24.6668L129.167 11.3337C129.167 10.8735 128.793 10.5004 128.333 10.5004L116.667 10.5004C116.206 10.5004 115.833 10.8735 115.833 11.3337L115.833 24.6668C115.833 25.127 116.206 25.5001 116.667 25.5001L128.333 25.5001ZM103.333 24.6668C103.333 25.127 102.96 25.5001 102.5 25.5001L90.8332 25.5001C90.373 25.5001 89.9999 25.127 89.9999 24.6668L89.9999 11.3337C89.9999 10.8735 90.373 10.5004 90.8332 10.5004L102.5 10.5004C102.96 10.5004 103.333 10.8735 103.333 11.3337L103.333 24.6668ZM76.6666 25.5001C77.1268 25.5001 77.4999 25.127 77.4999 24.6668L77.4999 11.3337C77.4999 10.8735 77.1268 10.5004 76.6666 10.5004L64.9999 10.5004C64.5397 10.5004 64.1666 10.8735 64.1666 11.3337L64.1666 24.6668C64.1666 25.127 64.5397 25.5001 64.9999 25.5001L76.6666 25.5001ZM51.6666 24.6668C51.6666 25.127 51.2935 25.5001 50.8332 25.5001L39.1666 25.5001C38.7064 25.5001 38.3332 25.127 38.3332 24.6668L38.3332 11.3337C38.3332 10.8735 38.7064 10.5004 39.1666 10.5004L50.8332 10.5004C51.2935 10.5004 51.6666 10.8735 51.6666 11.3337L51.6666 24.6668ZM24.9999 25.5001C25.4601 25.5001 25.8332 25.127 25.8332 24.6668L25.8332 11.3337C25.8332 10.8735 25.4601 10.5004 24.9999 10.5004L13.3332 10.5004C12.873 10.5004 12.4999 10.8735 12.4999 11.3337L12.4999 24.6668C12.4999 25.127 12.873 25.5001 13.3332 25.5001L24.9999 25.5001ZM-8.54398e-05 24.6668C-8.548e-05 25.127 -0.373214 25.5001 -0.833419 25.5001L-12.5001 25.5001C-12.9603 25.5001 -13.3334 25.127 -13.3334 24.6668L-13.3334 11.3337C-13.3334 10.8735 -12.9603 10.5004 -12.5001 10.5004L-0.833418 10.5004C-0.373212 10.5004 -8.42336e-05 10.8735 -8.42739e-05 11.3337L-8.54398e-05 24.6668ZM-26.6668 25.5001C-26.2065 25.5001 -25.8334 25.127 -25.8334 24.6668L-25.8334 11.3337C-25.8334 10.8735 -26.2065 10.5004 -26.6668 10.5004L-38.3334 10.5004C-38.7936 10.5004 -39.1668 10.8735 -39.1668 11.3337L-39.1668 24.6668C-39.1668 25.127 -38.7936 25.5001 -38.3334 25.5001L-26.6668 25.5001ZM-51.6668 24.6668C-51.6668 25.127 -52.0399 25.5001 -52.5001 25.5001L-64.1668 25.5001C-64.627 25.5001 -65.0001 25.127 -65.0001 24.6668L-65.0001 11.3337C-65.0001 10.8735 -64.627 10.5004 -64.1668 10.5004L-52.5001 10.5004C-52.0399 10.5004 -51.6668 10.8735 -51.6668 11.3337L-51.6668 24.6668ZM-78.3334 25.5001C-77.8732 25.5001 -77.5001 25.127 -77.5001 24.6668L-77.5001 11.3337C-77.5001 10.8735 -77.8732 10.5004 -78.3334 10.5004L-90.0001 10.5004C-90.4603 10.5004 -90.8334 10.8735 -90.8334 11.3337L-90.8334 24.6668C-90.8334 25.127 -90.4603 25.5001 -90.0001 25.5001L-78.3334 25.5001ZM-103.333 24.6668C-103.333 25.127 -103.707 25.5001 -104.167 25.5001L-115.833 25.5001C-116.294 25.5001 -116.667 25.127 -116.667 24.6668L-116.667 11.3337C-116.667 10.8735 -116.294 10.5004 -115.833 10.5004L-104.167 10.5004C-103.707 10.5004 -103.333 10.8735 -103.333 11.3337L-103.333 24.6668ZM-130 25.5001C-129.54 25.5001 -129.167 25.127 -129.167 24.6668L-129.167 11.3337C-129.167 10.8735 -129.54 10.5004 -130 10.5004L-141.667 10.5004C-142.127 10.5004 -142.5 10.8735 -142.5 11.3337L-142.5 24.6668C-142.5 25.127 -142.127 25.5001 -141.667 25.5001L-130 25.5001Z" fill="#6F6855"/>
</g>
<rect x="3" y="3" width="1250" height="340" rx="20" stroke="#6F6855" stroke-width="5"/>
</g>
<defs>
<clipPath id="clip0_10270_202405">
<rect x="3" y="3" width="1250" height="340" rx="20" fill="white"/>
</clipPath>
</defs>
</svg>
