<svg width="34" height="34" viewBox="0 0 34 34" fill="none" xmlns="http://www.w3.org/2000/svg">
<g id="&#229;&#136;&#160;&#233;&#153;&#164;">
<rect x="1" y="1" width="32" height="32" rx="2" fill="#322D20"/>
<rect x="1" y="1" width="32" height="32" rx="2" stroke="#26BBFF"/>
<g id="Frame 1171276466">
<g id="Group 1171276085">
<g id="Group 1171276084">
<path id="Vector 8" d="M15 20L15 17" stroke="#26BBFF" stroke-width="1.2" stroke-linecap="round"/>
<path id="Vector 9" d="M19 20L19 17" stroke="#26BBFF" stroke-width="1.2" stroke-linecap="round"/>
</g>
<path id="Rectangle 41" d="M8 12H26V12C25.0681 12 24.6022 12 24.2346 12.1522C23.7446 12.3552 23.3552 12.7446 23.1522 13.2346C23 13.6022 23 14.0681 23 15V21C23 22.8856 23 23.8284 22.4142 24.4142C21.8284 25 20.8856 25 19 25H15C13.1144 25 12.1716 25 11.5858 24.4142C11 23.8284 11 22.8856 11 21V15C11 14.0681 11 13.6022 10.8478 13.2346C10.6448 12.7446 10.2554 12.3552 9.76537 12.1522C9.39782 12 8.93188 12 8 12V12Z" stroke="#26BBFF" stroke-width="1.2" stroke-linecap="round" stroke-linejoin="round"/>
<path id="Rectangle 42" d="M11 12H8H26H23" stroke="#26BBFF" stroke-width="1.2" stroke-linecap="round" stroke-linejoin="round"/>
<path id="Ellipse 45" d="M15.0681 8.37059C15.1821 8.26427 15.4332 8.17033 15.7825 8.10332C16.1318 8.03632 16.5597 8 17 8C17.4403 8 17.8682 8.03632 18.2175 8.10332C18.5668 8.17033 18.8179 8.26427 18.9319 8.37059" stroke="#26BBFF" stroke-width="1.2" stroke-linecap="round"/>
</g>
</g>
</g>
</svg>
