<svg width="42" height="42" viewBox="0 0 42 42" fill="none" xmlns="http://www.w3.org/2000/svg">
<g id="delete__selected">
<rect x="1" y="1" width="40" height="40" rx="7.5" fill="#26231B"/>
<rect x="1" y="1" width="40" height="40" rx="7.5" stroke="#8AE6A8" stroke-width="2"/>
<g id="Group 1171276086">
<g id="Group 1171276084">
<path id="Vector 8" d="M18.75 25.625L18.75 21.125" stroke="#FFC249" stroke-width="1.5" stroke-linecap="round"/>
<path id="Vector 9" d="M23.248 25.625L23.248 21.125" stroke="#FFC249" stroke-width="1.5" stroke-linecap="round"/>
</g>
<path id="Rectangle 41" d="M9.75 16H32.25V16C31.0851 16 30.5027 16 30.0433 16.1903C29.4307 16.444 28.944 16.9307 28.6903 17.5433C28.5 18.0027 28.5 18.5851 28.5 19.75V26C28.5 28.357 28.5 29.5355 27.7678 30.2678C27.0355 31 25.857 31 23.5 31H18.5C16.143 31 14.9645 31 14.2322 30.2678C13.5 29.5355 13.5 28.357 13.5 26V19.75C13.5 18.5851 13.5 18.0027 13.3097 17.5433C13.056 16.9307 12.5693 16.444 11.9567 16.1903C11.4973 16 10.9149 16 9.75 16V16Z" stroke="#FFFDFA" stroke-width="1.5" stroke-linejoin="round"/>
<path id="Rectangle 42" d="M26 16L24.75 16L32.25 16L31 16" stroke="#FFFDFA" stroke-width="1.5" stroke-linecap="round" stroke-linejoin="round"/>
<path id="Ellipse 45" d="M17.3778 11.9265C17.5914 11.6607 18.0622 11.4258 18.7171 11.2583C19.3721 11.0908 20.1745 11 21 11C21.8255 11 22.6279 11.0908 23.2829 11.2583C23.9378 11.4258 24.4086 11.6607 24.6222 11.9265" stroke="#FFC249" stroke-width="1.5" stroke-linecap="round"/>
</g>
</g>
</svg>
