<svg width="34" height="35" viewBox="0 0 34 35" fill="none" xmlns="http://www.w3.org/2000/svg">
<g id="&#229;&#143;&#176;&#232;&#175;&#141;">
<rect x="1" y="1.5" width="32" height="32" rx="6" fill="#191816"/>
<rect x="1" y="1.5" width="32" height="32" rx="6" stroke="#E1DCD0" stroke-width="1.6"/>
<g id="Group 1171276292">
<g id="Group 1171276290">
<path id="Rectangle 34625025" d="M10.5996 16.7V17.5C10.5996 21.0346 13.465 23.9 16.9996 23.9V23.9C20.5342 23.9 23.3996 21.0346 23.3996 17.5V16.7" stroke="#FFFDFA" stroke-linecap="round" stroke-linejoin="round"/>
<path id="Vector 622" d="M17 23.8999V28.6999" stroke="#FFFDFA" stroke-linecap="round"/>
<path id="Vector 625" d="M13.8008 28.7H20.2008" stroke="#FFFDFA" stroke-linecap="round"/>
</g>
<g id="Group 1171276293">
<rect id="Rectangle 34625024" x="13" y="5.5" width="8" height="16" rx="4" fill="#FFC249"/>
<g id="Group 1171276294">
<path id="Vector 623 (Stroke)" d="M19.534 12.7C19.9758 12.7 20.334 13.0581 20.334 13.5V13.5C20.334 13.9418 19.9758 14.3 19.534 14.3H17.134C16.6922 14.3 16.334 13.9418 16.334 13.5V13.5C16.334 13.0581 16.6922 12.7 17.134 12.7H19.534Z" fill="#26BBFF"/>
<path id="Vector 623 (Stroke)_2" d="M19.5346 10.3C19.9765 10.3 20.3346 10.6582 20.3346 11.1V11.1C20.3346 11.5419 19.9765 11.9 19.5346 11.9H16.468C16.0261 11.9 15.668 11.5419 15.668 11.1V11.1C15.668 10.6582 16.0261 10.3 16.468 10.3H19.5346Z" fill="#26BBFF"/>
</g>
</g>
</g>
</g>
</svg>
