<svg width="34" height="34" viewBox="0 0 34 34" fill="none" xmlns="http://www.w3.org/2000/svg">
<g id="&#229;&#143;&#176;&#232;&#175;&#141;">
<rect x="1" y="1" width="32" height="32" rx="6" fill="#26231B"/>
<rect x="1" y="1" width="32" height="32" rx="6" stroke="#E6C78A" stroke-width="1.6"/>
<g id="Group 1171276292">
<g id="Group 1171276290">
<path id="Rectangle 34625025" d="M10.5996 16.2V17C10.5996 20.5346 13.465 23.4 16.9996 23.4V23.4C20.5342 23.4 23.3996 20.5346 23.3996 17V16.2" stroke="#FFFDFA" stroke-linecap="round" stroke-linejoin="round"/>
<path id="Vector 622" d="M17 23.3999V28.1999" stroke="#FFFDFA" stroke-linecap="round"/>
<path id="Vector 625" d="M13.8008 28.2H20.2008" stroke="#FFFDFA" stroke-linecap="round"/>
</g>
<g id="Group 1171276293">
<rect id="Rectangle 34625024" x="13" y="5" width="8" height="16" rx="4" fill="#FFC249"/>
<g id="Group 1171276294">
<path id="Vector 623 (Stroke)" d="M19.534 12.2C19.9758 12.2 20.334 12.5581 20.334 13V13C20.334 13.4418 19.9758 13.8 19.534 13.8H17.134C16.6922 13.8 16.334 13.4418 16.334 13V13C16.334 12.5581 16.6922 12.2 17.134 12.2H19.534Z" fill="#26BBFF"/>
<path id="Vector 623 (Stroke)_2" d="M19.5346 9.80005C19.9765 9.80005 20.3346 10.1582 20.3346 10.6V10.6C20.3346 11.0419 19.9765 11.4 19.5346 11.4H16.468C16.0261 11.4 15.668 11.0419 15.668 10.6V10.6C15.668 10.1582 16.0261 9.80005 16.468 9.80005H19.5346Z" fill="#26BBFF"/>
</g>
</g>
</g>
</g>
</svg>
