<svg width="20" height="20" viewBox="0 0 20 20" fill="none" xmlns="http://www.w3.org/2000/svg">
<g id="tapOnIt_hoverAndSelected">
<rect width="20" height="20" rx="4" fill="#423C2B"/>
<g id="like-1--reward-social-up-rating-media-like-thumb-hand">
<path id="Vector_2" d="M7.91602 12.0161L10.1094 16.1383C10.1944 16.3012 10.3138 16.4355 10.4561 16.528C10.5984 16.6205 10.7586 16.6682 10.9211 16.6663C11.0492 16.6717 11.1768 16.6469 11.2965 16.5933C11.4163 16.5398 11.5257 16.4585 11.6183 16.3544C11.7108 16.2503 11.7847 16.1254 11.8355 15.9871C11.8864 15.8489 11.9131 15.7 11.9142 15.5494V12.5949H15.7051C15.8452 12.5895 15.9827 12.5494 16.1087 12.4771C16.2346 12.4048 16.3461 12.302 16.4359 12.1754C16.5256 12.0488 16.5915 11.9013 16.6293 11.7426C16.667 11.5839 16.6758 11.4176 16.655 11.2547L15.9642 5.1823C15.9348 4.9023 15.8193 4.64461 15.6396 4.45763C15.4599 4.27066 15.2283 4.1673 14.9884 4.16699H9.32358C9.05392 4.16576 8.78775 4.23873 8.5464 4.38027L7.92465 4.74572" fill="#FFC249" stroke="#FFC249" stroke-width="0.833333" stroke-linecap="round" stroke-linejoin="round"/>
<path id="Vector" d="M3.76952 11.667H5.83398V5.00033H3.76952C3.65401 5.00033 3.54323 5.05592 3.46155 5.15506C3.37987 5.2541 3.33398 5.38849 3.33398 5.52853V11.1387C3.33398 11.2788 3.37987 11.4132 3.46155 11.5123C3.54323 11.6113 3.65401 11.667 3.76952 11.667Z" fill="#FFFDFA" stroke="#FFFDFA" stroke-width="0.833333" stroke-linecap="round" stroke-linejoin="round"/>
</g>
</g>
</svg>
