<svg width="40" height="40" viewBox="0 0 40 40" fill="none" xmlns="http://www.w3.org/2000/svg">
<g id="vip/&#229;&#143;&#145;&#229;&#184;&#131;&#232;&#175;&#132;&#232;&#174;&#186;">
<rect width="40" height="40" rx="8" fill="#423C2B"/>
<g id="Group 1171275853">
<path id="Rectangle 1" d="M30 19C30 14.7574 30 12.636 28.682 11.318C27.364 10 25.2426 10 21 10H19C14.7574 10 12.636 10 11.318 11.318C10 12.636 10 14.7574 10 19V27.75C10 28.8107 10 29.341 10.3295 29.6705C10.659 30 11.1893 30 12.25 30H21C25.2426 30 27.364 30 28.682 28.682C30 27.364 30 25.2426 30 21V19Z" stroke="#FFC249" stroke-width="1.5"/>
<g id="Group 1171275852">
<path id="Vector 7" d="M16.25 17.5L23.75 17.5" stroke="#26BBFF" stroke-width="1.5" stroke-linecap="round" stroke-linejoin="round"/>
<path id="Vector 8" d="M16.25 22.5H20" stroke="#26BBFF" stroke-width="1.5" stroke-linecap="round" stroke-linejoin="round"/>
</g>
</g>
</g>
</svg>
