<svg width="30" height="30" viewBox="0 0 30 30" fill="none" xmlns="http://www.w3.org/2000/svg">
<g id="&#233;&#149;&#156;&#229;&#164;&#180;&#232;&#191;&#144;&#229;&#138;&#168;">
<g id="Group 1171276163">
<g id="Group 1171276124">
<path id="Polygon 19" d="M27 17.2936L27 12.7064C27 11.5282 25.7041 10.81 24.705 11.4344L23.705 12.0594C23.2664 12.3335 23 12.8142 23 13.3314L23 16.6686C23 17.1858 23.2664 17.6665 23.705 17.9406L24.705 18.5656C25.7041 19.19 27 18.4718 27 17.2936Z" stroke="#FFFDFA" stroke-width="1.25"/>
<path id="Rectangle 34624888" d="M12.5789 8H20C21.6569 8 23 9.34315 23 11V20C23 21.6569 21.6569 23 20 23H8C6.34315 23 5 21.6569 5 20V14.5625" stroke="#FFFDFA" stroke-width="1.25"/>
</g>
<g id="Group 1171276162">
<path id="Star 1" d="M6.42221 7.36401C6.44014 7.28011 6.55986 7.28011 6.57779 7.36401V7.36401C6.90539 8.89704 8.10296 10.0946 9.63599 10.4222V10.4222C9.71989 10.4401 9.71989 10.5599 9.63599 10.5778V10.5778C8.10296 10.9054 6.90539 12.103 6.57779 13.636V13.636C6.55986 13.7199 6.44014 13.7199 6.42221 13.636V13.636C6.09461 12.103 4.89704 10.9054 3.36401 10.5778V10.5778C3.28011 10.5599 3.28011 10.4401 3.36401 10.4222V10.4222C4.89704 10.0946 6.09461 8.89704 6.42221 7.36401V7.36401Z" stroke="#FFFDFA" stroke-linejoin="bevel"/>
<path id="Star 4" d="M9.95555 5.208C9.96579 5.16007 10.0342 5.16007 10.0444 5.208V5.208C10.2316 6.08402 10.916 6.76835 11.792 6.95555V6.95555C11.8399 6.96579 11.8399 7.03421 11.792 7.04445V7.04445C10.916 7.23165 10.2316 7.91598 10.0444 8.792V8.792C10.0342 8.83993 9.96579 8.83993 9.95555 8.792V8.792C9.76835 7.91598 9.08402 7.23165 8.208 7.04445V7.04445C8.16007 7.03421 8.16007 6.96579 8.208 6.95555V6.95555C9.08402 6.76835 9.76835 6.08402 9.95555 5.208V5.208Z" stroke="#FFFDFA" stroke-width="0.8" stroke-linejoin="bevel"/>
</g>
</g>
</g>
</svg>
