<svg width="32" height="32" viewBox="0 0 32 32" fill="none" xmlns="http://www.w3.org/2000/svg">
<g id="&#228;&#184;&#139;&#232;&#189;&#189;">
<g id="Group 1171276280">
<path id="Vector" d="M26.3996 16.7998H20.7996C20.3753 16.7998 19.9683 16.9312 19.6682 17.165C19.3682 17.3988 19.1996 17.7159 19.1996 18.0466C19.1996 18.7079 18.8625 19.3421 18.2623 19.8097C17.6622 20.2774 16.8483 20.5401 15.9996 20.5401C15.1509 20.5401 14.337 20.2774 13.7369 19.8097C13.1367 19.3421 12.7996 18.7079 12.7996 18.0466C12.7996 17.7159 12.631 17.3988 12.331 17.165C12.0309 16.9312 11.624 16.7998 11.1996 16.7998H5.59961V23.5531C5.59961 23.8837 5.76818 24.2009 6.06824 24.4346C6.3683 24.6684 6.77526 24.7998 7.19961 24.7998H24.7996C25.2239 24.7998 25.631 24.6684 25.931 24.4346C26.231 24.2009 26.3996 23.8837 26.3996 23.5531V16.7998Z" stroke="#FFFDFA" stroke-width="1.2" stroke-linecap="round" stroke-linejoin="round"/>
<path id="Vector_2" d="M20 11.7108L16 16M16 16L12 11.7108M16 16V5.6" stroke="#FFC249" stroke-width="1.2" stroke-linecap="round" stroke-linejoin="round"/>
</g>
</g>
</svg>
