<svg width="40" height="40" viewBox="0 0 40 40" fill="none" xmlns="http://www.w3.org/2000/svg">
<g id="upload_default">
<g id="Upload">
<g id="Group 1171276279">
<path id="Vector" d="M33.5 21.5H26.2308C25.6799 21.5 25.1517 21.6724 24.7622 21.9793C24.3727 22.2862 24.1538 22.7024 24.1538 23.1364C24.1538 24.0043 23.7162 24.8367 22.9372 25.4505C22.1582 26.0643 21.1017 26.4091 20 26.4091C18.8983 26.4091 17.8418 26.0643 17.0628 25.4505C16.2838 24.8367 15.8462 24.0043 15.8462 23.1364C15.8462 22.7024 15.6273 22.2862 15.2378 21.9793C14.8483 21.6724 14.3201 21.5 13.7692 21.5H6.5V30.3636C6.5 30.7976 6.71882 31.2139 7.10832 31.5207C7.49782 31.8275 8.02608 32 8.57692 32H31.4231C31.9739 32 32.5022 31.8275 32.8917 31.5207C33.2811 31.2139 33.5 30.7976 33.5 30.3636V21.5Z" stroke="#FFFDFA" stroke-width="1.5" stroke-linecap="round" stroke-linejoin="round"/>
<path id="Vector_2" d="M15.5 12.9491L20 8M20 8L24.5 12.9491M20 8V20" stroke="#FFC249" stroke-width="1.5" stroke-linecap="round" stroke-linejoin="round"/>
</g>
</g>
</g>
</svg>
