<svg width="40" height="40" viewBox="0 0 40 40" fill="none" xmlns="http://www.w3.org/2000/svg">
<g id="download&#239;&#188;&#136;agent&#239;&#188;&#137;">
<rect width="40" height="40" rx="8" fill="#322D20"/>
<g id="&#228;&#184;&#139;&#232;&#189;&#189;">
<g id="Group 1171276280">
<path id="Vector" d="M33 21H26C25.4696 21 24.9609 21.1642 24.5858 21.4565C24.2107 21.7487 24 22.1451 24 22.5584C24 23.3851 23.5786 24.1778 22.8284 24.7624C22.0783 25.347 21.0609 25.6753 20 25.6753C18.9391 25.6753 17.9217 25.347 17.1716 24.7624C16.4214 24.1778 16 23.3851 16 22.5584C16 22.1451 15.7893 21.7487 15.4142 21.4565C15.0391 21.1642 14.5304 21 14 21H7V29.4416C7 29.8549 7.21071 30.2513 7.58579 30.5435C7.96086 30.8357 8.46956 31 9 31H31C31.5304 31 32.0392 30.8357 32.4142 30.5435C32.7892 30.2513 33 29.8549 33 29.4416V21Z" stroke="#FFC249" stroke-width="1.5" stroke-linecap="round" stroke-linejoin="round"/>
<path id="Vector_2" d="M25 14.6385L20 20M20 20L15 14.6385M20 20V7" stroke="#FFFDFA" stroke-width="1.5" stroke-linecap="round" stroke-linejoin="round"/>
</g>
</g>
</g>
</svg>
