<svg width="42" height="42" viewBox="0 0 42 42" fill="none" xmlns="http://www.w3.org/2000/svg">
<g id="&#228;&#184;&#139;&#232;&#189;&#189;">
<rect x="1" y="1" width="40" height="40" rx="8" fill="#26231B"/>
<rect x="1" y="1" width="40" height="40" rx="8" stroke="#E6C78A" stroke-width="2"/>
<g id="Group 1171276279">
<path id="Vector" d="M34 22H27C26.4696 22 25.9609 22.1642 25.5858 22.4565C25.2107 22.7487 25 23.1451 25 23.5584C25 24.3851 24.5786 25.1778 23.8284 25.7624C23.0783 26.347 22.0609 26.6753 21 26.6753C19.9391 26.6753 18.9217 26.347 18.1716 25.7624C17.4214 25.1778 17 24.3851 17 23.5584C17 23.1451 16.7893 22.7487 16.4142 22.4565C16.0391 22.1642 15.5304 22 15 22H8V30.4416C8 30.8549 8.21071 31.2513 8.58579 31.5435C8.96086 31.8357 9.46956 32 10 32H32C32.5304 32 33.0392 31.8357 33.4142 31.5435C33.7892 31.2513 34 30.8549 34 30.4416V22Z" stroke="#FFFDFA" stroke-width="1.5" stroke-linecap="round" stroke-linejoin="round"/>
<path id="Vector_2" d="M26 15.6385L21 21M21 21L16 15.6385M21 21V8" stroke="#FFC249" stroke-width="1.5" stroke-linecap="round" stroke-linejoin="round"/>
</g>
</g>
</svg>
