<svg width="28" height="28" viewBox="0 0 28 28" fill="none" xmlns="http://www.w3.org/2000/svg">
<g id="edit_default">
<g id="&#230;&#149;&#133;&#228;&#186;&#139;&#229;&#136;&#155;&#228;&#189;&#156;/&#231;&#188;&#150;&#232;&#190;&#145;">
<g id="Group 1171275969">
<path id="Vector 107" d="M15.0762 8.61523L19.3839 12.9229" stroke="#FFFDFA" stroke-width="0.83"/>
<path id="Rectangle 1" d="M17.7695 6.94727C18.0777 6.94735 18.3287 7.07713 18.5566 7.25098C18.7751 7.41767 19.0164 7.66096 19.2998 7.94434L20.0557 8.7002C20.339 8.98357 20.5823 9.22488 20.749 9.44336C20.9229 9.67127 21.0527 9.92228 21.0527 10.2305C21.0527 10.5389 20.923 10.7905 20.749 11.0186C20.5823 11.237 20.339 11.4783 20.0557 11.7617L11.9443 19.874C11.7896 20.0288 11.6599 20.1631 11.4961 20.2559C11.3323 20.3486 11.1506 20.3903 10.9385 20.4434L7.80762 21.2256C7.66343 21.2616 7.50958 21.3019 7.38184 21.3145C7.24878 21.3275 7.0286 21.3235 6.85254 21.1475C6.67648 20.9714 6.67253 20.7512 6.68555 20.6182C6.69809 20.4904 6.73837 20.3366 6.77441 20.1924L7.55664 17.0615C7.60968 16.8494 7.65142 16.6677 7.74414 16.5039C7.83691 16.3401 7.97124 16.2104 8.12598 16.0557L16.2383 7.94434C16.5217 7.66097 16.763 7.41767 16.9814 7.25098C17.2095 7.07699 17.4611 6.94727 17.7695 6.94727Z" stroke="#FFC249" stroke-width="0.83"/>
</g>
</g>
</g>
</svg>
