<svg width="24" height="24" viewBox="0 0 24 24" fill="none" xmlns="http://www.w3.org/2000/svg">
<g id="&#231;&#130;&#185;&#232;&#181;&#158;">
<g id="like-1--reward-social-up-rating-media-like-thumb-hand">
<path id="Vector" d="M6.60976 9.83301H9.5V17.9997H6.60976C6.44804 17.9997 6.29294 17.9316 6.17859 17.8101C6.06424 17.6888 6 17.5242 6 17.3526V10.4801C6 10.3085 6.06424 10.1439 6.17859 10.0225C6.29294 9.9012 6.44804 9.83301 6.60976 9.83301Z" stroke="#A8A292" stroke-linecap="round" stroke-linejoin="round"/>
<path id="Vector_2" d="M9.5 9.58102L12.1321 4.63443C12.2341 4.43892 12.3774 4.2778 12.5481 4.16677C12.7188 4.05574 12.9111 3.9986 13.1061 4.00088C13.2598 3.99436 13.413 4.02412 13.5566 4.08839C13.7003 4.15267 13.8316 4.25015 13.9427 4.3751C14.0538 4.50004 14.1425 4.64989 14.2034 4.81582C14.2644 4.98173 14.2965 5.16034 14.2978 5.34109V8.88655H18.8469C19.015 8.89296 19.18 8.94112 19.3312 9.0279C19.4823 9.11466 19.6161 9.23805 19.7238 9.38996C19.8315 9.54187 19.9106 9.71885 19.9559 9.90928C20.0012 10.0997 20.0118 10.2993 19.9868 10.4948L19.1578 16.7816C19.1225 17.1176 18.9839 17.4268 18.7683 17.6512C18.5527 17.8756 18.2748 17.9996 17.9868 18H11.1891C10.8655 18.0015 10.5461 17.9139 10.2565 17.7441L9.51036 17.3055" stroke="#A8A292" stroke-linecap="round" stroke-linejoin="round"/>
<path id="Vector_3" d="M9.5 9.83301V17.521" stroke="#A8A292" stroke-linecap="round" stroke-linejoin="round"/>
</g>
</g>
</svg>
