<svg width="40" height="40" viewBox="0 0 40 40" fill="none" xmlns="http://www.w3.org/2000/svg">
<g id="&#229;&#133;&#179;&#230;&#179;&#168;&#232;&#128;&#133;">
<g id="Group 1171275875">
<g id="Group 1171275869">
<g id="Group 1171275866">
<path id="Vector 282" d="M8 4H5.5C4.67157 4 4 4.67157 4 5.5V8" stroke="#FFC249" stroke-width="1.5" stroke-linecap="round"/>
<path id="Vector 283" d="M32 4H34.5C35.3284 4 36 4.67157 36 5.5V8" stroke="#FFC249" stroke-width="1.5" stroke-linecap="round"/>
</g>
<g id="Group 1171275867">
<path id="Vector 282_2" d="M32 36H34.5C35.3284 36 36 35.3284 36 34.5V32" stroke="#FFC249" stroke-width="1.5" stroke-linecap="round"/>
<path id="Vector 283_2" d="M8 36H5.5C4.67157 36 4 35.3284 4 34.5V32" stroke="#FFC249" stroke-width="1.5" stroke-linecap="round"/>
</g>
</g>
<g id="Group 1171275870">
<g id="Group 1171275874">
<g id="Group 1171275871">
<circle id="Ellipse 47" cx="3" cy="3" r="3" transform="matrix(-1 0 0 1 33 13)" stroke="#A8A292" stroke-linecap="round"/>
<path id="Subtract" d="M27.629 28L27.1382 28.0957L27.217 28.5H27.629V28ZM25.427 23.2685L25.017 22.9823L24.7884 23.3099L25.0574 23.6052L25.427 23.2685ZM35.8424 26.5121L35.3504 26.6013L35.8424 26.5121ZM28.1197 27.9043C27.8386 26.4623 27.2117 24.4851 25.7966 22.9317L25.0574 23.6052C26.296 24.9649 26.8731 26.7362 27.1382 28.0957L28.1197 27.9043ZM30 20.5C27.5388 20.5 25.9777 21.6059 25.017 22.9823L25.837 23.5546C26.6288 22.4203 27.896 21.5 30 21.5V20.5ZM36.3344 26.4229C36.1413 25.3576 35.7143 23.8879 34.7548 22.6751C33.778 21.4404 32.2689 20.5 30 20.5V21.5C31.9475 21.5 33.1734 22.288 33.9705 23.2956C34.785 24.3251 35.171 25.6114 35.3504 26.6013L36.3344 26.4229ZM34.5 28.5C35.5849 28.5 36.5472 27.5971 36.3344 26.4229L35.3504 26.6013C35.4331 27.0574 35.072 27.5 34.5 27.5V28.5ZM27.629 28.5H34.5V27.5H27.629V28.5Z" fill="#A8A292"/>
</g>
<g id="Group 1171275873">
<circle id="Ellipse 46" cx="3" cy="3" r="3" transform="matrix(-1 0 0 1 13 13)" stroke="#A8A292" stroke-linecap="round"/>
<path id="Subtract_2" d="M4.15759 26.5121L4.64957 26.6013L4.15759 26.5121ZM14.4476 23.0954L14.8056 23.4444L15.1049 23.1373L14.847 22.7947L14.4476 23.0954ZM12.0825 28V28.5H12.4945L12.5733 28.0957L12.0825 28ZM9.99999 20.5C7.73105 20.5 6.22202 21.4404 5.24521 22.6751C4.28574 23.8879 3.85873 25.3576 3.66561 26.4229L4.64957 26.6013C4.82903 25.6114 5.21499 24.3251 6.02946 23.2956C6.82659 22.288 8.05248 21.5 9.99999 21.5V20.5ZM14.847 22.7947C13.8753 21.5038 12.3443 20.5 9.99999 20.5V21.5C12.009 21.5 13.2522 22.3388 14.0481 23.3961L14.847 22.7947ZM14.0895 22.7464C12.5502 24.3257 11.884 26.4056 11.5918 27.9043L12.5733 28.0957C12.8492 26.6806 13.4625 24.8224 14.8056 23.4444L14.0895 22.7464ZM5.49999 28.5H12.0825V27.5H5.49999V28.5ZM3.66561 26.4229C3.45275 27.5971 4.41508 28.5 5.49999 28.5V27.5C4.92805 27.5 4.56688 27.0574 4.64957 26.6013L3.66561 26.4229Z" fill="#A8A292"/>
</g>
</g>
<g id="Group 1171275872">
<path id="Rectangle 4164" d="M19.8557 21C14.2829 21 12.5921 25.3672 12.0791 28.0173C11.8692 29.1017 12.7511 30 13.8557 30H25.8557C26.9603 30 27.8422 29.1017 27.6323 28.0173C27.1193 25.3672 25.4285 21 19.8557 21Z" stroke="#FFFDFA" stroke-linecap="round"/>
<circle id="Ellipse 46_2" cx="20" cy="14" r="4" stroke="#FFFDFA" stroke-width="1.5" stroke-linecap="round"/>
</g>
<path id="Rectangle 4161" d="M20 21C25.5728 21 27.2636 25.3672 27.7766 28.0173C27.9865 29.1017 27.1046 30 26 30H14C12.8954 30 12.0135 29.1017 12.2234 28.0173C12.7364 25.3672 14.4272 21 20 21Z" stroke="#FFFDFA" stroke-width="1.5" stroke-linecap="round"/>
</g>
</g>
</g>
</svg>
