<svg width="24" height="24" viewBox="0 0 24 24" fill="none" xmlns="http://www.w3.org/2000/svg">
<g id="&#229;&#150;&#156;&#230;&#172;&#162;">
<path id="Vector 15" d="M4.45069 13.9083L11.4033 20.4396C11.6428 20.6645 11.7626 20.777 11.9038 20.8047C11.9674 20.8172 12.0328 20.8172 12.0963 20.8047C12.2375 20.777 12.3573 20.6645 12.5968 20.4395L19.5494 13.9083C21.5056 12.0706 21.7432 9.04664 20.0979 6.9261L19.7885 6.52737C17.8204 3.9906 13.8697 4.41603 12.4867 7.31368C12.2914 7.72299 11.7087 7.72299 11.5134 7.31368C10.1304 4.41603 6.17974 3.9906 4.21156 6.52738L3.9022 6.9261C2.25695 9.04664 2.49451 12.0706 4.45069 13.9083Z" stroke="#FFC249" stroke-width="1.2"/>
</g>
</svg>
