<svg width="16" height="16" viewBox="0 0 16 16" fill="none" xmlns="http://www.w3.org/2000/svg">
<g id="&#229;&#150;&#156;&#230;&#172;&#162;">
<path id="Vector 15" d="M2.96709 9.27215L7.60219 13.6263C7.76185 13.7763 7.84168 13.8513 7.93581 13.8698C7.9782 13.8781 8.0218 13.8781 8.06419 13.8698C8.15831 13.8513 8.23814 13.7763 8.39781 13.6263L13.0329 9.27215C14.337 8.04706 14.4954 6.03106 13.3986 4.61736L13.1923 4.35154C11.8802 2.66036 9.24642 2.94398 8.32444 4.87575C8.19421 5.14862 7.80579 5.14862 7.67555 4.87575C6.75357 2.94398 4.11979 2.66036 2.80767 4.35154L2.60143 4.61736C1.5046 6.03106 1.66297 8.04706 2.96709 9.27215Z" fill="#FFC249" stroke="#ED9E00" stroke-width="0.8"/>
</g>
</svg>
