<svg width="41" height="40" viewBox="0 0 41 40" fill="none" xmlns="http://www.w3.org/2000/svg">
<g id="&#230;&#136;&#145;&#231;&#154;&#132;&#230;&#148;&#182;&#232;&#151;&#143;">
<g id="Group 1171276017">
<path id="Rectangle 34624771" d="M6.5 7.68219C6.5 6.70984 7.19934 5.87838 8.15732 5.71177L27.1573 2.40742C28.3805 2.19469 29.5 3.13626 29.5 4.37785V29.3178C29.5 30.2902 28.8007 31.1216 27.8427 31.2882L8.84268 34.5926C7.61946 34.8053 6.5 33.8637 6.5 32.6222V7.68219Z" fill="#322D20" stroke="#A8A292"/>
<path id="Star 8" d="M36.0955 13.0717C36.9482 13.3648 36.9137 14.53 36.0451 14.7721L32.2901 15.8187C31.9017 15.927 31.6309 16.2625 31.6194 16.6498L31.5085 20.3935C31.4828 21.2595 30.3141 21.5853 29.8029 20.8689L27.5932 17.772C27.3646 17.4517 26.9468 17.3081 26.5584 17.4163L22.8034 18.4629C21.9348 18.705 21.247 17.7411 21.7997 17.0563L24.189 14.0957C24.4361 13.7894 24.4487 13.3652 24.2201 13.0448L22.0104 9.9479C21.4992 9.23152 22.2429 8.31006 23.0956 8.60318L26.782 9.87032C27.1634 10.0014 27.5889 9.8828 27.8361 9.57652L30.2254 6.61594C30.778 5.93109 31.9254 6.32548 31.8997 7.19149L31.7888 10.9352C31.7773 11.3225 32.0277 11.6735 32.4091 11.8046L36.0955 13.0717Z" fill="#FFC249"/>
<path id="Star 9" d="M32.7277 22.6966C33.4233 23.041 33.2654 24.0337 32.4973 24.1453L30.3288 24.4602C29.9853 24.5101 29.7171 24.7673 29.6647 25.0972L29.3334 27.1799C29.2161 27.9177 28.1825 28.0678 27.8251 27.399L26.8161 25.511C26.6563 25.2119 26.3155 25.0431 25.972 25.093L23.8035 25.408C23.0353 25.5196 22.5544 24.6197 23.1017 24.0948L24.6466 22.613C24.8913 22.3782 24.9488 22.0168 24.789 21.7177L23.78 19.8296C23.4226 19.1608 24.159 18.4545 24.8546 18.7989L26.8184 19.7711C27.1295 19.9252 27.5058 19.8705 27.7506 19.6357L29.2955 18.1539C29.8428 17.629 30.7788 18.0924 30.6614 18.8301L30.3302 20.9128C30.2777 21.2428 30.4528 21.5704 30.7639 21.7244L32.7277 22.6966Z" fill="#ED9E00"/>
<path id="Rectangle 34624772" d="M6.5 8.20998C6.5 7.02673 7.52164 6.10216 8.69901 6.2199L24.699 7.8199C25.7214 7.92214 26.5 8.78247 26.5 9.80998V34.79C26.5 35.9733 25.4784 36.8978 24.301 36.7801L8.30099 35.1801C7.27859 35.0779 6.5 34.2175 6.5 33.19V8.20998Z" fill="#191816" stroke="#A8A292"/>
<path id="Rectangle 34624785" d="M9.5 13.0767C9.5 12.4959 9.99444 12.038 10.5735 12.0826L21.5793 12.929C22.0988 12.969 22.5 13.4022 22.5 13.9232V13.9232C22.5 14.5041 22.0055 14.962 21.4264 14.9174L10.4206 14.0708C9.90113 14.0309 9.5 13.5977 9.5 13.0767V13.0767Z" fill="#FFC249"/>
<g id="Group 1171276016">
<g id="Rectangle 34624787">
<path d="M21.5793 17.929L14.5736 17.3902C13.9945 17.3457 13.5 17.8035 13.5 18.3844C13.5 18.9054 13.9011 19.3385 14.4206 19.3785L21.4264 19.9174C22.0055 19.962 22.5 19.5041 22.5 18.9232C22.5 18.4022 22.0988 17.969 21.5793 17.929Z" fill="#CCE5FF"/>
<path d="M11.5 18.0771C11.5 18.6579 11.0024 19.1156 10.4233 19.071C9.90384 19.0311 9.5 18.5977 9.5 18.0767C9.5 17.4959 9.9976 17.0383 10.5767 17.0828C11.0962 17.1228 11.5 17.5561 11.5 18.0771Z" fill="#CCE5FF"/>
</g>
<path id="Rectangle 34624788" d="M11.5 18.0771C11.5 18.6579 11.0024 19.1156 10.4233 19.071C9.90384 19.0311 9.5 18.5977 9.5 18.0767C9.5 17.4959 9.9976 17.0383 10.5767 17.0828C11.0962 17.1228 11.5 17.5561 11.5 18.0771Z" fill="#FFCCFF"/>
</g>
</g>
</g>
</svg>
