<svg width="42" height="42" viewBox="0 0 42 42" fill="none" xmlns="http://www.w3.org/2000/svg">
<g id="&#229;&#189;&#162;&#232;&#177;&#161;&#232;&#174;&#190;&#229;&#174;&#154;">
<rect x="1" y="1" width="40" height="40" rx="8" fill="#26231B"/>
<rect x="1" y="1" width="40" height="40" rx="8" stroke="#FFC249" stroke-width="2"/>
<g id="Group 1171276155">
<path id="Vector" d="M33 15.432C33 16.2537 32.3228 16.8898 31.5102 16.8898H25.4966V34.5157C25.4966 35.3374 24.8194 35.9735 24.0068 35.9735C23.167 35.9735 22.5169 35.3109 22.5169 34.5157V28.6581C22.5169 27.8364 21.8397 27.2003 21.0271 27.2003C20.1874 27.2003 19.5372 27.8629 19.5372 28.6581V34.5422C19.5372 35.3639 18.86 36 18.0474 36C17.2077 36 16.5576 35.3374 16.5576 34.5422V16.9163H10.4898C9.65011 16.9163 9 16.2537 9 15.4585C9 14.6369 9.6772 14.0008 10.4898 14.0008H31.5102C32.3499 13.9743 33 14.6369 33 15.432Z" fill="#FFC249"/>
<path id="Vector_2" d="M23.9932 9C23.9932 7.35135 22.6418 6 20.9932 6C19.3175 6 17.9932 7.35135 17.9932 9C17.9932 10.6486 19.3445 12 20.9932 12C22.6418 12 23.9932 10.6486 23.9932 9Z" fill="#FFC249"/>
</g>
</g>
</svg>
