<svg width="40" height="40" viewBox="0 0 40 40" fill="none" xmlns="http://www.w3.org/2000/svg">
<g id="&#229;&#133;&#179;&#230;&#179;&#168;&#231;&#154;&#132;&#228;&#186;&#186;">
<g id="Group 1171275860">
<g id="Group 1171275861">
<path id="Ellipse 49" d="M21.9689 16.25C22.433 15.4461 23.1975 14.8595 24.0941 14.6193C24.9908 14.379 25.9461 14.5048 26.75 14.9689C27.5539 15.433 28.1405 16.1975 28.3807 17.0941C28.621 17.9908 28.4952 18.9461 28.0311 19.75C27.567 20.5539 26.8025 21.1405 25.9059 21.3807C25.0092 21.621 24.0539 21.4952 23.25 21.0311C22.4461 20.567 21.8595 19.8025 21.6193 18.9059C21.379 18.0092 21.5048 17.0539 21.9689 16.25L21.9689 16.25Z" stroke="#A8A292"/>
<path id="Subtract" d="M22.7932 32L22.3742 31.7272L21.871 32.5H22.7932V32ZM31.8691 30.3634L32.3523 30.2347V30.2347L31.8691 30.3634ZM21.1425 25.5767L20.8012 25.2112L20.4979 25.4944L20.7204 25.8447L21.1425 25.5767ZM22.9895 31.1342L23.4856 31.0723L22.9895 31.1342ZM30.5258 31.5H22.7932V32.5H30.5258V31.5ZM31.386 30.4921C31.5193 30.9928 31.1383 31.5 30.5258 31.5V32.5C31.6993 32.5 32.6786 31.4598 32.3523 30.2347L31.386 30.4921ZM25.1988 24.5C27.1901 24.5 28.568 25.4125 29.5398 26.6179C30.5238 27.8385 31.0825 29.3531 31.386 30.4921L32.3523 30.2347C32.0323 29.0335 31.4276 27.3663 30.3183 25.9903C29.1967 24.5991 27.5511 23.5 25.1988 23.5V24.5ZM21.4837 25.9421C22.3939 25.0921 23.5932 24.5 25.1988 24.5V23.5C23.3161 23.5 21.8785 24.2053 20.8012 25.2112L21.4837 25.9421ZM20.7204 25.8447C21.8664 27.6493 22.318 29.7909 22.4933 31.1961L23.4856 31.0723C23.3028 29.6063 22.8259 27.2948 21.5645 25.3086L20.7204 25.8447ZM22.4933 31.1961C22.5186 31.3985 22.4705 31.5794 22.3742 31.7272L23.2122 32.2728C23.434 31.9322 23.5408 31.515 23.4856 31.0723L22.4933 31.1961Z" fill="#A8A292"/>
</g>
<g id="Group 1171275859">
<circle id="Ellipse 46" cx="14.5" cy="15.5" r="4.5" stroke="#FFFDFA" stroke-width="1.5" stroke-linecap="round"/>
<path id="Subtract_2" d="M22.9895 31.1342L22.2452 31.227L22.9895 31.1342ZM21.6019 31.875H7.39809V33.375H21.6019V31.875ZM6.75474 31.227C6.93148 29.81 7.39053 27.6588 8.55377 25.8808C9.69093 24.1427 11.5011 22.75 14.5 22.75V21.25C10.9231 21.25 8.671 22.9618 7.29855 25.0596C5.9522 27.1174 5.45438 29.5333 5.26627 31.0414L6.75474 31.227ZM14.5 22.75C17.4989 22.75 19.3091 24.1427 20.4462 25.8808C21.6095 27.6588 22.0685 29.81 22.2452 31.227L23.7337 31.0414C23.5456 29.5333 23.0478 27.1174 21.7014 25.0596C20.329 22.9618 18.0769 21.25 14.5 21.25V22.75ZM7.39809 31.875C6.96571 31.875 6.71462 31.5486 6.75474 31.227L5.26627 31.0414C5.10132 32.3639 6.17362 33.375 7.39809 33.375V31.875ZM21.6019 33.375C22.8264 33.375 23.8987 32.3639 23.7337 31.0414L22.2452 31.227C22.2854 31.5486 22.0343 31.875 21.6019 31.875V33.375Z" fill="#FFFDFA"/>
</g>
<g id="Group 1171275857">
<rect id="Rectangle 4222" x="27" y="11" width="7.5" height="1.5" rx="0.75" fill="#FFC249"/>
<rect id="Rectangle 4223" x="31.5" y="8" width="7.5" height="1.5" rx="0.75" transform="rotate(90 31.5 8)" fill="#FFC249"/>
</g>
</g>
</g>
</svg>
