<svg width="380" height="380" viewBox="0 0 380 380" fill="none" xmlns="http://www.w3.org/2000/svg">
<g id="Frame 1171276273">
<g id="Group 1171276020">
<g id="Frame 1171276255">
<g clip-path="url(#clip0_2509_137)">
<rect x="38" y="110" width="304" height="192" rx="6.4" fill="#1F1D18"/>
<g id="Frame 1171276274">
<rect x="37.2" y="109.2" width="305.6" height="33.6" stroke="#E1DCD0" stroke-width="1.6"/>
<g id="Mask group">
<rect id="Rectangle 34624805" x="38" y="110" width="304" height="32" fill="#1F1D18"/>
<mask id="mask0_2509_137" style="mask-type:alpha" maskUnits="userSpaceOnUse" x="38" y="110" width="304" height="32">
<rect id="Rectangle 34624797" x="38" y="110" width="304" height="32" fill="#D9D9D9"/>
</mask>
<g mask="url(#mask0_2509_137)">
<g id="Frame 1171276266">
<rect id="Rectangle 34624798" x="108.201" y="35.6001" width="12.8" height="160" transform="rotate(38.2619 108.201 35.6001)" fill="#E1DCD0"/>
<rect id="Rectangle 34624799" x="153.333" y="35.6001" width="12.8" height="160" transform="rotate(38.2619 153.333 35.6001)" fill="#E1DCD0"/>
<rect id="Rectangle 34624805_2" x="198.464" y="35.6001" width="12.8" height="160" transform="rotate(38.2619 198.464 35.6001)" fill="#E1DCD0"/>
<rect id="Rectangle 34624800" x="243.595" y="35.6001" width="12.8" height="160" transform="rotate(38.2619 243.595 35.6001)" fill="#E1DCD0"/>
<rect id="Rectangle 34624801" x="288.727" y="35.6001" width="12.8" height="160" transform="rotate(38.2619 288.727 35.6001)" fill="#E1DCD0"/>
<rect id="Rectangle 34624802" x="333.859" y="35.6001" width="12.8" height="160" transform="rotate(38.2619 333.859 35.6001)" fill="#E1DCD0"/>
<rect id="Rectangle 34624803" x="378.99" y="35.6001" width="12.8" height="160" transform="rotate(38.2619 378.99 35.6001)" fill="#E1DCD0"/>
<rect id="Rectangle 34624804" x="424.122" y="35.6001" width="12.8" height="160" transform="rotate(38.2619 424.122 35.6001)" fill="#E1DCD0"/>
</g>
</g>
</g>
</g>
<g id="Frame 1171276258">
<g id="Frame 1171276256">
<path id="&#231;&#137;&#135;&#229;&#144;&#141;" d="M63.096 169.284C62.832 171.1 62.24 172.492 61.32 173.46L60.828 173.04C61.972 171.864 62.556 169.956 62.58 167.316V162.876H63.228V165.732H67.212V162.72H67.86V165.732H71.256V166.38H63.228V167.316C63.22 167.676 63.2 168.12 63.168 168.648H68.652V173.7H68.016V169.284H63.096ZM76.14 172.884V173.628H75.492V169.308C74.636 169.596 73.792 169.84 72.96 170.04L72.636 169.428C74.788 168.956 76.552 168.352 77.928 167.616C77.392 167.152 76.632 166.636 75.648 166.068L76.212 165.72C77.172 166.296 77.924 166.824 78.468 167.304C79.78 166.52 80.74 165.592 81.348 164.52H76.668C75.86 165.288 74.812 165.972 73.524 166.572L73.104 166.008C75.16 165.112 76.556 164.012 77.292 162.708L77.988 162.792C77.788 163.168 77.544 163.536 77.256 163.896H82.092V164.484C81.156 166.228 79.484 167.632 77.076 168.696H82.404V173.628H81.744V172.884H76.14ZM81.744 172.248V169.308H76.14V172.248H81.744Z" fill="#A8A292"/>
<line id="Line 81" x1="118.5" y1="158" x2="118.5" y2="178" stroke="#A8A292"/>
</g>
<line id="Line 80" x1="50" y1="185.5" x2="330" y2="185.5" stroke="#534B36"/>
<g id="Frame 1171276257">
<path id="&#229;&#143;&#145;&#232;&#181;&#183;&#232;&#128;&#133;" d="M61.512 202.272L62.46 199.08L63.108 199.176L62.352 201.66H64.704C64.96 200.692 65.164 199.676 65.316 198.612L65.976 198.684C65.792 199.828 65.592 200.82 65.376 201.66H71.076V202.272H65.208C65.024 202.888 64.848 203.412 64.68 203.844H69.66V204.408C69.324 205.472 68.628 206.444 67.572 207.324C68.588 207.964 69.832 208.54 71.304 209.052L70.98 209.652C69.364 209.06 68.052 208.42 67.044 207.732C66.052 208.444 64.792 209.096 63.264 209.688L62.928 209.088C64.352 208.568 65.54 207.984 66.492 207.336C65.444 206.536 64.716 205.668 64.308 204.732C63.412 206.724 62.264 208.296 60.864 209.448L60.528 208.848C62.368 207.248 63.704 205.056 64.536 202.272H61.512ZM64.824 204.444C65.232 205.364 65.964 206.2 67.02 206.952C67.988 206.184 68.648 205.348 69 204.444H64.824ZM67.992 198.78C68.88 199.468 69.608 200.144 70.176 200.808L69.708 201.276C69.172 200.604 68.452 199.912 67.548 199.2L67.992 198.78ZM83.256 205.224C83.184 206.16 83.048 206.772 82.848 207.06C82.656 207.34 82.288 207.48 81.744 207.48H79.644C78.996 207.48 78.672 207.168 78.672 206.544V202.668H82.032V200.148H78.456V199.536H82.68V203.28H79.32V206.34C79.32 206.676 79.504 206.844 79.872 206.844H81.636C82.028 206.844 82.284 206.72 82.404 206.472C82.508 206.256 82.584 205.772 82.632 205.02L83.256 205.224ZM73.08 200.4H75.144V198.696H75.792V200.4H77.844V200.988H75.792V202.944H78.012V203.544H76.02V205.428H77.808V206.028H76.02V208.404C76.068 208.412 76.112 208.428 76.152 208.452C76.904 208.708 78.6 208.836 81.24 208.836L83.472 208.8L83.352 209.448H81.372C78.364 209.448 76.48 209.28 75.72 208.944C75.008 208.624 74.38 208.036 73.836 207.18C73.644 208.092 73.368 208.932 73.008 209.7L72.516 209.256C73.156 207.816 73.5 206.2 73.548 204.408L74.148 204.48C74.124 205.104 74.068 205.736 73.98 206.376C74.38 207.104 74.848 207.664 75.384 208.056V203.544H72.84V202.944H75.144V200.988H73.08V200.4ZM85.836 200.04H89.16V198.696H89.808V200.04H92.796V200.652H89.808V202.272H91.416C92.576 201.456 93.592 200.528 94.464 199.488L94.956 199.86C94.188 200.772 93.36 201.576 92.472 202.272H95.34V202.896H91.608L91.008 203.28C90.336 203.672 89.612 204.044 88.836 204.396H93.756V209.688H93.096V209.1H87.612V209.688H86.964V205.152C86.132 205.448 85.42 205.68 84.828 205.848L84.564 205.248C86.668 204.752 88.568 204.008 90.264 203.016L90.456 202.896H84.708V202.272H89.16V200.652H85.836V200.04ZM87.612 207.012V208.5H93.096V207.012H87.612ZM93.096 206.436V204.984H87.612V206.436H93.096Z" fill="#A8A292"/>
<line id="Line 81_2" x1="118.5" y1="194" x2="118.5" y2="214" stroke="#A8A292"/>
</g>
<line id="Line 81_3" x1="50" y1="221.5" x2="330" y2="221.5" stroke="#534B36"/>
<g id="Frame 1171276329">
<g id="Frame 1171276260">
<path id="&#228;&#189;&#156;&#229;&#147;&#129;&#229;&#143;&#183;" d="M65.7 237.132C65.156 238.292 64.508 239.32 63.756 240.216L63.3 239.676C64.42 238.364 65.308 236.692 65.964 234.66L66.612 234.816C66.46 235.288 66.252 235.848 65.988 236.496H71.364V237.132H67.176V239.316H70.812V239.964H67.176V242.184H70.908V242.82H67.176V245.676H66.528V237.132H65.7ZM62.088 238.644C61.64 239.236 61.168 239.788 60.672 240.3L60.468 239.616C61.796 238.176 62.764 236.544 63.372 234.72L63.972 234.996C63.644 235.964 63.232 236.856 62.736 237.672V245.676H62.088V238.644ZM74.748 235.296H81.228V239.028H74.748V235.296ZM80.568 238.404V235.92H75.408V238.404H80.568ZM77.232 240.444V245.484H76.596V244.848H73.824V245.484H73.188V240.444H77.232ZM73.824 244.236H76.596V241.056H73.824V244.236ZM82.812 240.444V245.484H82.164V244.848H79.272V245.484H78.636V240.444H82.812ZM79.272 244.236H82.164V241.056H79.272V244.236ZM86.604 235.2H93.396V238.284H86.604V235.2ZM92.748 237.696V235.8H87.252V237.696H92.748ZM87.468 240.132H84.66V239.496H95.328V240.132H88.14L87.684 241.716H93.6C93.52 243.564 93.344 244.676 93.072 245.052C92.792 245.396 92.26 245.568 91.476 245.568C91.044 245.568 90.508 245.552 89.868 245.52L89.64 244.92C90.36 244.96 90.924 244.98 91.332 244.98C91.988 244.98 92.404 244.832 92.58 244.536C92.74 244.24 92.856 243.5 92.928 242.316H86.916L87.468 240.132Z" fill="#A8A292"/>
<line id="Line 81_4" x1="118.5" y1="230" x2="118.5" y2="250" stroke="#A8A292"/>
</g>
</g>
<line id="Line 82" x1="50" y1="257.5" x2="330" y2="257.5" stroke="#534B36"/>
<g id="Frame 1171276256_2">
<path id="&#230;&#151;&#165;&#230;&#156;&#159;" d="M69.708 271.248V281.616H69.06V280.644H63.18V281.628H62.532V271.248H69.708ZM63.18 280.008H69.06V276.192H63.18V280.008ZM63.18 275.556H69.06V271.884H63.18V275.556ZM73.608 270.744H74.232V272.16H76.788V270.768H77.412V272.16H78.216V272.772H77.412V278.076H78.276V278.676H72.66V278.076H73.608V272.772H72.78V272.16H73.608V270.744ZM74.232 278.076H76.788V276.696H74.232V278.076ZM76.788 272.772H74.232V274.164H76.788V272.772ZM74.232 276.108H76.788V274.752H74.232V276.108ZM76.344 279.132C76.912 279.836 77.364 280.492 77.7 281.1L77.16 281.472C76.848 280.88 76.408 280.208 75.84 279.456L76.344 279.132ZM74.76 279.36C74.296 280.224 73.748 280.976 73.116 281.616L72.6 281.256C73.224 280.656 73.764 279.936 74.22 279.096L74.76 279.36ZM79.74 274.74V276.912L79.728 277.116H82.224V274.74H79.74ZM82.224 274.14V271.836H79.74V274.14H82.224ZM79.68 277.716C79.52 279.308 79.036 280.624 78.228 281.664L77.724 281.22C78.604 280.052 79.056 278.56 79.08 276.744V271.224H82.884V280.524C82.884 281.212 82.56 281.556 81.912 281.556H80.616L80.448 280.932C81.056 280.948 81.472 280.956 81.696 280.956C82.048 280.956 82.224 280.736 82.224 280.296V277.716H79.68Z" fill="#A8A292"/>
<line id="Line 81_5" x1="118.5" y1="266" x2="118.5" y2="286" stroke="#A8A292"/>
</g>
</g>
</g>
<rect x="38" y="110" width="304" height="192" rx="6.4" stroke="#E1DCD0" stroke-width="1.6"/>
</g>
<g id="Frame 1171276267">
<g clip-path="url(#clip1_2509_137)">
<rect width="304" height="32" rx="6.4" transform="matrix(-1 0 0 1 342 78)" fill="#1F1D18"/>
<g id="Mask group_2">
<rect id="Rectangle 34624805_3" width="304" height="32" transform="matrix(-1 0 0 1 342 78)" fill="#1F1D18"/>
<mask id="mask1_2509_137" style="mask-type:alpha" maskUnits="userSpaceOnUse" x="38" y="78" width="304" height="32">
<rect id="Rectangle 34624797_2" width="304" height="32" transform="matrix(-1 0 0 1 342 78)" fill="#D9D9D9"/>
</mask>
<g mask="url(#mask1_2509_137)">
<g id="Frame 1171276266_2">
<rect id="Rectangle 34624798_2" width="12.8" height="160" transform="matrix(-0.785188 0.619257 0.619257 0.785188 297.118 2.7998)" fill="#E1DCD0"/>
<rect id="Rectangle 34624799_2" width="12.8" height="160" transform="matrix(-0.785188 0.619257 0.619257 0.785188 251.987 2.7998)" fill="#E1DCD0"/>
<rect id="Rectangle 34624805_4" width="12.8" height="160" transform="matrix(-0.785188 0.619257 0.619257 0.785188 206.855 2.7998)" fill="#E1DCD0"/>
<rect id="Rectangle 34624800_2" width="12.8" height="160" transform="matrix(-0.785188 0.619257 0.619257 0.785188 161.724 2.7998)" fill="#E1DCD0"/>
<rect id="Rectangle 34624801_2" width="12.8" height="160" transform="matrix(-0.785188 0.619257 0.619257 0.785188 116.593 2.7998)" fill="#E1DCD0"/>
<rect id="Rectangle 34624802_2" width="12.8" height="160" transform="matrix(-0.785188 0.619257 0.619257 0.785188 71.4609 2.7998)" fill="#E1DCD0"/>
<rect id="Rectangle 34624803_2" width="12.8" height="160" transform="matrix(-0.785188 0.619257 0.619257 0.785188 26.3292 2.7998)" fill="#E1DCD0"/>
<rect id="Rectangle 34624804_2" width="12.8" height="160" transform="matrix(-0.785188 0.619257 0.619257 0.785188 -18.802 2.7998)" fill="#E1DCD0"/>
</g>
</g>
</g>
</g>
<rect width="304" height="32" rx="6.4" transform="matrix(-1 0 0 1 342 78)" stroke="#E1DCD0" stroke-width="1.6"/>
</g>
</g>
</g>
<defs>
<clipPath id="clip0_2509_137">
<rect x="38" y="110" width="304" height="192" rx="6.4" fill="white"/>
</clipPath>
<clipPath id="clip1_2509_137">
<rect width="304" height="32" rx="6.4" transform="matrix(-1 0 0 1 342 78)" fill="white"/>
</clipPath>
</defs>
</svg>
