<svg width="42" height="42" viewBox="0 0 42 42" fill="none" xmlns="http://www.w3.org/2000/svg">
<g id="Property 1=Variant3">
<rect x="1" y="1" width="40" height="40" rx="8" fill="#423C2B"/>
<rect x="1" y="1" width="40" height="40" rx="8" stroke="#6F6855"/>
<g id="Group 1171276379">
<path id="Rectangle 34625615" d="M31.8995 19.7071C32.29 19.3166 32.9232 19.3166 33.3137 19.7071L35.4351 21.8284C35.8256 22.219 35.8256 22.8521 35.4351 23.2426L28.7513 29.9264C28.4847 30.193 28.1481 30.3789 27.7804 30.4624L24.5422 31.1984C24.1833 31.2799 23.8622 30.9589 23.9438 30.6L24.6797 27.3618C24.7633 26.9941 24.9491 26.6575 25.2158 26.3908L31.8995 19.7071Z" stroke="#FFFDFA"/>
<path id="Rectangle 34625614" d="M21.8571 30H13C10.7909 30 9 28.2091 9 26V16C9 13.7909 10.7909 12 13 12H29C31.2091 12 33 13.7909 33 16V17" stroke="white" stroke-linecap="round"/>
<g id="Mask group">
<mask id="mask0_6431_130318" style="mask-type:alpha" maskUnits="userSpaceOnUse" x="8" y="12" width="25" height="18">
<path id="Subtract" d="M28.9998 12C31.2089 12 32.9998 13.7909 32.9998 16V17.415C32.2389 17.4203 31.4797 17.7125 30.8992 18.293L24.2156 24.9766C23.6826 25.5097 23.3115 26.1829 23.1443 26.918L22.4451 29.9902C22.3537 29.9966 22.2618 30 22.1697 30H12.9998C10.7908 29.9999 8.99982 28.2091 8.99982 26V16C8.99982 13.7909 10.7908 12.0001 12.9998 12H28.9998Z" fill="#D9D9D9"/>
</mask>
<g mask="url(#mask0_6431_130318)">
<g id="Group 1171276190">
<ellipse id="Ellipse 46" cx="28.5" cy="15.5" rx="1.50001" ry="1.50004" fill="#26BBFF"/>
<g id="Group 1171276186">
<path id="Polygon 21" d="M22.3763 18.5742C22.9753 17.8688 24.0643 17.8689 24.6634 18.5742L27.595 22.0293C28.4221 23.0037 27.7296 24.5 26.4515 24.5H20.5882C19.3102 24.5 18.6178 23.0037 19.4446 22.0293L22.3763 18.5742Z" stroke="#FFFDFA"/>
<path id="Polygon 22" d="M17.8216 16.1956C18.2092 15.6692 18.9908 15.6692 19.3784 16.1956L25.0073 23.8411C25.4821 24.486 25.0255 25.401 24.2289 25.401H12.9712C12.1745 25.401 11.7179 24.486 12.1928 23.8411L17.8216 16.1956Z" fill="#FFC249"/>
</g>
</g>
</g>
</g>
</g>
<path id="Vector 637" d="M36 35.5V31.2071C36 30.7617 35.4614 30.5386 35.1464 30.8536L30.8536 35.1464C30.5386 35.4614 30.7617 36 31.2071 36H35.5C35.7761 36 36 35.7761 36 35.5Z" fill="#A8A292"/>
</g>
</svg>
