<svg width="24" height="24" viewBox="0 0 24 24" fill="none" xmlns="http://www.w3.org/2000/svg">
<g id="Picture style">
<g id="Group 1171276143">
<path id="Intersect" d="M17.3343 2.70654C18.0222 2.70665 18.5693 3.28427 18.5325 3.97119L18.4905 4.75439L18.2864 4.57373C17.5549 3.92467 16.3998 4.21163 16.0569 5.12744L15.7083 6.06006C15.364 6.98031 14.0535 6.95621 13.7435 6.02393L13.4056 5.00635C13.1543 4.25077 12.0614 4.3291 11.9202 5.11279L11.7679 5.95459C11.6532 6.5914 10.7476 6.61184 10.6038 5.98096C10.452 5.31688 9.48343 5.38933 9.43193 6.06885L9.25322 8.43115C9.18106 9.3829 7.90873 9.6478 7.4622 8.8042L5.53056 5.15576L5.46806 3.97119C5.43126 3.28421 5.97834 2.70654 6.6663 2.70654H17.3343Z" fill="#FFC249"/>
<path id="Union" d="M14.2836 18.6766C14.5205 19.8801 13.813 21.0688 12.6422 21.4345V21.4345C12.224 21.5651 11.7759 21.5651 11.3576 21.4345V21.4345C10.1868 21.0688 9.47933 19.8801 9.71619 18.6766L10.3015 15.7024C10.4185 15.1083 10.1207 14.51 9.57622 14.2452V14.2452C9.39439 14.1567 9.19483 14.1107 8.99263 14.1107H8.08594C6.91693 14.1107 5.95284 13.1949 5.89284 12.0274L5.46473 3.69665C5.42948 3.01062 5.97622 2.43506 6.66315 2.43506H17.3367C18.0236 2.43506 18.5703 3.01062 18.5351 3.69664L18.1056 12.0535C18.0464 13.2064 17.0944 14.1107 15.94 14.1107H14.7263C14.5133 14.1107 14.3048 14.1724 14.126 14.2884V14.2884C13.7478 14.5337 13.557 14.9845 13.644 15.4268L14.2836 18.6766Z" stroke="#FFFDFA" stroke-width="0.9"/>
<path id="Intersect_2" d="M17.948 10.8701L5.90576 10.9017" stroke="#FFFDFA" stroke-width="0.9"/>
<path id="Vector 514" d="M5.67432 6.07035L7.4946 8.98885C7.99117 9.78502 9.21441 9.50015 9.30815 8.56651L9.55824 6.07544C9.62492 5.41128 10.5723 5.35688 10.7145 6.00904V6.00904C10.8518 6.63824 11.7559 6.61829 11.8653 5.98366L11.9888 5.26705C12.1175 4.52015 13.1594 4.44227 13.3978 5.16174L13.7817 6.32074C14.1035 7.29221 15.49 7.25572 15.7603 6.26866L15.9671 5.5131C16.2211 4.58543 17.3738 4.26533 18.0697 4.92919L18.4605 5.30195" stroke="#FFFDFA" stroke-width="0.9"/>
</g>
</g>
</svg>
