<svg width="16" height="16" viewBox="0 0 16 16" fill="none" xmlns="http://www.w3.org/2000/svg">
<g id="&#230;&#179;&#168;&#230;&#132;&#143;&#228;&#186;&#139;&#233;&#161;&#185;">
<g clip-path="url(#clip0_5335_38215)">
<path id="&#239;&#188;&#159;" d="M8.115 3.88179C8.94274 3.88179 9.5998 4.10793 10.0862 4.5602C10.5641 4.9954 10.803 5.59699 10.803 6.36499C10.803 6.93673 10.6409 7.43593 10.3166 7.86259C10.1715 8.03326 9.82594 8.3618 9.27981 8.8482C9.00674 9.0786 8.8062 9.31326 8.6782 9.55219C8.51607 9.82526 8.435 10.1367 8.435 10.4866V10.781H7.411V10.4866C7.411 10.0599 7.4878 9.68873 7.6414 9.37299C7.8206 8.989 8.25154 8.49406 8.9342 7.88819C9.17314 7.64926 9.3182 7.49566 9.36941 7.42739C9.62541 7.10313 9.75341 6.76606 9.75341 6.41619C9.75341 5.91273 9.60834 5.51593 9.3182 5.22579C9.02807 4.92713 8.60994 4.77779 8.06381 4.77779C7.4238 4.77779 6.9502 4.98686 6.643 5.40499C6.3614 5.76339 6.2206 6.25406 6.2206 6.87699H5.2094C5.2094 5.97246 5.46114 5.25566 5.9646 4.72659C6.4766 4.16339 7.1934 3.88179 8.115 3.88179ZM7.923 11.677C8.15341 11.677 8.34114 11.7495 8.4862 11.8946C8.63127 12.0397 8.7038 12.2189 8.7038 12.4322C8.7038 12.6541 8.627 12.8375 8.4734 12.9826C8.31127 13.1277 8.1278 13.2002 7.923 13.2002C7.7182 13.2002 7.53474 13.1277 7.3726 12.9826C7.22754 12.8375 7.155 12.6541 7.155 12.4322C7.155 12.2103 7.22754 12.0311 7.3726 11.8946C7.51767 11.7495 7.70114 11.677 7.923 11.677Z" fill="#FFE6B5"/>
</g>
<rect x="0.5" y="0.5" width="15" height="15" rx="7.5" stroke="#FFE6B5"/>
</g>
<defs>
<clipPath id="clip0_5335_38215">
<rect width="16" height="16" rx="8" fill="white"/>
</clipPath>
</defs>
</svg>
