<svg width="24" height="24" viewBox="0 0 24 24" fill="none" xmlns="http://www.w3.org/2000/svg">
<g id="&#228;&#184;&#141;&#229;&#143;&#175;&#232;&#167;&#129;">
<g id="invisible-1--disable-eye-eyeball-hide-off-view" clip-path="url(#clip0_1470_44951)">
<g id="invisible-1--disable-eye-eyeball-hide-off-view_2">
<path id="Vector" d="M8.62902 8.6244C9.62176 7.9793 10.7721 7.5 11.9998 7.5C14.7898 7.5 17.1799 9.97503 18.2299 11.2463C18.3957 11.453 18.4875 11.7216 18.4875 12.0001C18.4875 12.2785 18.3957 12.5471 18.2299 12.7538C17.6511 13.4546 16.6651 14.5211 15.4295 15.3372M13.4998 16.2697C13.0175 16.4156 12.5155 16.5001 11.9998 16.5001C9.20985 16.5001 6.81985 14.0251 5.76985 12.7538C5.60401 12.5471 5.51221 12.2785 5.51221 12.0001C5.51221 11.7216 5.60401 11.453 5.76985 11.2463C6.10252 10.8435 6.5697 10.3199 7.1415 9.79247" stroke="#A8A292" stroke-linecap="round" stroke-linejoin="round"/>
<path id="Vector_2" d="M13.4144 13.4142C14.1954 12.6332 14.1954 11.3668 13.4144 10.5858C12.6333 9.80474 11.367 9.80474 10.5859 10.5858" stroke="#A8A292" stroke-linecap="round" stroke-linejoin="round"/>
<path id="Vector_3" d="M18.5 18.5L5.5 5.5" stroke="#A8A292" stroke-linecap="round" stroke-linejoin="round"/>
</g>
</g>
</g>
<defs>
<clipPath id="clip0_1470_44951">
<rect width="14" height="14" fill="white" transform="translate(5 5)"/>
</clipPath>
</defs>
</svg>
