<svg width="24" height="24" viewBox="0 0 24 24" fill="none" xmlns="http://www.w3.org/2000/svg">
<g id="&#228;&#184;&#170;&#228;&#186;&#186;&#228;&#184;&#187;&#233;&#161;&#181;">
<path id="Rectangle 34624811" d="M4 10.582C4 10.1021 4.22963 9.65118 4.61774 9.36891L11.1177 4.64164C11.6437 4.25911 12.3563 4.25911 12.8823 4.64164L19.3823 9.36891C19.7704 9.65118 20 10.1021 20 10.582V18.5C20 19.3284 19.3284 20 18.5 20H14.9318C14.5176 20 14.1818 19.6642 14.1818 19.25V16.3864C14.1818 15.9722 13.846 15.6364 13.4318 15.6364H10.5682C10.154 15.6364 9.81818 15.9722 9.81818 16.3864V19.25C9.81818 19.6642 9.4824 20 9.06818 20H5.5C4.67157 20 4 19.3284 4 18.5V10.582Z" stroke="#FFE6B5" stroke-width="1.2"/>
</g>
</svg>
