<svg width="32" height="32" viewBox="0 0 32 32" fill="none" xmlns="http://www.w3.org/2000/svg">
<g id="&#229;&#155;&#190;&#229;&#131;&#143;">
<g id="Group 1171276104">
<circle id="Ellipse 46" cx="23.6875" cy="10" r="2" fill="#26BBFF"/>
<path id="X" d="M10.7637 12.2971L10.4316 12.074L10.4316 12.074L10.7637 12.2971ZM13.4199 12.2971L13.0879 12.5201L13.0879 12.5201L13.4199 12.2971ZM17.8477 18.8889L17.5156 19.1119C17.5868 19.2179 17.7044 19.2836 17.832 19.2886C17.9597 19.2936 18.082 19.2373 18.1613 19.1371L17.8477 18.8889ZM20.3262 15.758L20.6398 16.0063L20.6398 16.0063L20.3262 15.758ZM22.8359 15.758L23.1496 15.5098L23.1496 15.5097L22.8359 15.758ZM27.6631 21.8566L27.3494 22.1049L27.3495 22.1049L27.6631 21.8566ZM26.4092 24.4504V24.8504H26.4093L26.4092 24.4504ZM16.7529 24.4504L16.7529 24.8504H16.7529V24.4504ZM16.7285 24.4494L16.7342 24.0494H16.7285V24.4494ZM5.60254 24.4494L5.60247 24.8494H5.60254V24.4494ZM4.27441 21.9582L3.94237 21.7352L3.94229 21.7353L4.27441 21.9582ZM10.7637 12.2971L11.0957 12.5201C11.5712 11.8122 12.6124 11.8122 13.0879 12.5201L13.4199 12.2971L13.752 12.074C12.9595 10.8942 11.2241 10.8943 10.4316 12.074L10.7637 12.2971ZM13.4199 12.2971L13.0879 12.5201L17.5156 19.1119L17.8477 18.8889L18.1797 18.6658L13.752 12.074L13.4199 12.2971ZM17.8477 18.8889L18.1613 19.1371L20.6398 16.0063L20.3262 15.758L20.0126 15.5097L17.534 18.6406L17.8477 18.8889ZM20.3262 15.758L20.6398 16.0063C21.1202 15.3993 22.0419 15.3993 22.5223 16.0063L22.8359 15.758L23.1496 15.5097C22.3488 14.4982 20.8133 14.4982 20.0125 15.5097L20.3262 15.758ZM22.8359 15.758L22.5223 16.0063L27.3494 22.1049L27.6631 21.8566L27.9767 21.6084L23.1496 15.5098L22.8359 15.758ZM27.6631 21.8566L27.3495 22.1049C27.9723 22.8917 27.412 24.0502 26.4091 24.0504L26.4092 24.4504L26.4093 24.8504C28.0814 24.85 29.0143 22.9192 27.9767 21.6084L27.6631 21.8566ZM26.4092 24.4504V24.0504H16.7529V24.4504V24.8504H26.4092V24.4504ZM16.7529 24.4504L16.753 24.0504C16.7578 24.0504 16.7614 24.0505 16.763 24.0506C16.7644 24.0506 16.7651 24.0507 16.7632 24.0506C16.7623 24.0505 16.7579 24.0503 16.7537 24.0501C16.749 24.0498 16.7422 24.0496 16.7342 24.0495L16.7285 24.4494L16.7228 24.8494C16.7189 24.8493 16.7162 24.8492 16.7156 24.8492C16.7154 24.8492 16.7151 24.8491 16.7182 24.8493C16.7204 24.8494 16.7252 24.8497 16.7306 24.8499C16.7363 24.8502 16.7439 24.8504 16.7529 24.8504L16.7529 24.4504ZM16.7285 24.4494V24.0494H5.60254V24.4494V24.8494H16.7285V24.4494ZM5.60254 24.4494L5.6026 24.0494C4.64249 24.0493 4.07155 22.9782 4.60653 22.1811L4.27441 21.9582L3.94229 21.7353C3.05054 23.0638 4.00245 24.8492 5.60247 24.8494L5.60254 24.4494ZM4.27441 21.9582L4.60646 22.1812L11.0957 12.5201L10.7637 12.2971L10.4316 12.074L3.94237 21.7352L4.27441 21.9582Z" fill="#FFC249"/>
</g>
</g>
</svg>
