<svg width="42" height="42" viewBox="0 0 42 42" fill="none" xmlns="http://www.w3.org/2000/svg">
<g id="&#231;&#148;&#159;&#229;&#155;&#190;">
<rect x="1" y="1" width="40" height="40" rx="8" fill="#191816"/>
<rect x="1" y="1" width="40" height="40" rx="8" stroke="#E1DCD0" stroke-width="2"/>
<g id="Group 1171276194">
<path id="Union (Stroke)" d="M19.9258 14.0575C19.4735 11.1917 16.9929 9.00024 14 9.00024C10.6863 9.00024 8 11.6865 8 15.0002V20.7255V33.6669H23.3315H34V23.6663V10.3336H31.3333C27.0653 10.3336 23.1225 11.7168 19.9258 14.0575Z" stroke="#FFFDFA" stroke-width="1.5" stroke-linecap="square" stroke-dasharray="4 4"/>
</g>
<g id="Group 1171276193">
<path id="Union" d="M14.333 12C16.1738 12 17.6668 13.4922 17.667 15.333C17.667 17.174 16.174 18.667 14.333 18.667C12.4922 18.6668 11 17.1738 11 15.333C11.0002 13.4923 12.4923 12.0002 14.333 12Z" fill="#26BBFF"/>
<path id="Union_2" d="M31.6533 31.335H31.6699V13.334C24.4189 13.3344 18.2489 17.966 15.957 24.4316C14.8027 23.7355 13.4492 23.334 12.0029 23.334C11.6644 23.334 11.3308 23.3588 11.0039 23.4014V31.335H31.6533Z" fill="#FFC249"/>
</g>
</g>
</svg>
