<svg width="26" height="26" viewBox="0 0 26 26" fill="none" xmlns="http://www.w3.org/2000/svg">
<g id="&#230;&#143;&#144;&#231;&#164;&#186;&#232;&#175;&#141;">
<rect x="1" y="1" width="24" height="24" rx="4" stroke="#FFFDFA"/>
<path id="T" d="M9.5 20V19.5697H10.1082C10.7865 19.5697 11.2817 19.3675 11.5936 18.963C11.7495 18.7203 11.8275 18.1613 11.8275 17.2861L11.7778 6.94878H9.82456C8.71735 6.94878 7.96881 7.11059 7.57895 7.4342C6.99415 7.83872 6.65497 8.57053 6.5614 9.62963H6L6.17544 6H19.8596L20 9.62963H19.4854C19.3762 8.73969 19.1189 8.10349 18.7135 7.72104C18.191 7.2062 17.4386 6.94878 16.4561 6.94878H14.1287C14.1287 6.94878 14.1784 16.3152 14.1784 17.2861C14.1784 18.2569 14.2914 18.86 14.5175 19.0953C14.7982 19.4116 15.2661 19.5697 15.9211 19.5697H16.5058V20H9.5Z" fill="#26BBFF"/>
</g>
</svg>
