<svg width="44" height="44" viewBox="0 0 44 44" fill="none" xmlns="http://www.w3.org/2000/svg">
<g id="&#232;&#181;&#132;&#232;&#174;&#175;">
<g id="Group 1171275913">
<g id="Rectangle 4153" filter="url(#filter0_i_6582_191252)">
<path d="M11 11.55C11 10.3949 11 9.81734 11.2248 9.37614C11.4225 8.98806 11.7381 8.67254 12.1261 8.4748C12.5673 8.25 13.1449 8.25 14.3 8.25H22.3066C22.8178 8.25 23.0734 8.25 23.3136 8.3084C23.5265 8.36017 23.7298 8.44554 23.9158 8.56129C24.1257 8.69186 24.3046 8.87435 24.6626 9.23931L30.681 15.3757C31.0295 15.7311 31.2038 15.9088 31.3284 16.1152C31.4388 16.2982 31.5201 16.4972 31.5694 16.7052C31.625 16.9398 31.625 17.1887 31.625 17.6864V32.45C31.625 33.6051 31.625 34.1827 31.4002 34.6239C31.2025 35.0119 30.8869 35.3275 30.4989 35.5252C30.0577 35.75 29.4801 35.75 28.325 35.75H14.3C13.1449 35.75 12.5673 35.75 12.1261 35.5252C11.7381 35.3275 11.4225 35.0119 11.2248 34.6239C11 34.1827 11 33.6051 11 32.45V11.55Z" fill="#FFC249"/>
</g>
<g id="Group 1171275911">
<path id="Vector 55" d="M15.853 22.8088L27.1765 22.8088" stroke="#26BBFF" stroke-width="2.0625" stroke-linecap="round"/>
<path id="Vector 58" d="M15.853 27.6619L22.3236 27.6619" stroke="#26BBFF" stroke-width="2.0625" stroke-linecap="round"/>
</g>
<g id="Group 1171275912">
<path id="Rectangle 4152" d="M11 11.55C11 10.3949 11 9.81734 11.2248 9.37614C11.4225 8.98806 11.7381 8.67254 12.1261 8.4748C12.5673 8.25 13.1449 8.25 14.3 8.25H22.5743C23.0787 8.25 23.331 8.25 23.5683 8.30699C23.7788 8.35751 23.98 8.44085 24.1645 8.55393C24.3727 8.68148 24.551 8.85983 24.9077 9.21655L31.0629 15.3717C31.4196 15.7284 31.5979 15.9068 31.7255 16.1149C31.8386 16.2994 31.9219 16.5006 31.9724 16.7111C32.0294 16.9484 32.0294 17.2007 32.0294 17.7051V32.45C32.0294 33.6051 32.0294 34.1827 31.8046 34.6239C31.6069 35.0119 31.2914 35.3275 30.9033 35.5252C30.4621 35.75 29.8845 35.75 28.7294 35.75H14.3C13.1449 35.75 12.5673 35.75 12.1261 35.5252C11.7381 35.3275 11.4225 35.0119 11.2248 34.6239C11 34.1827 11 33.6051 11 32.45V11.55Z" stroke="#FFFDFA" stroke-width="1.375"/>
<path id="Vector 317" d="M22.3235 8.25V14.6559C22.3235 15.811 22.3235 16.3885 22.5483 16.8297C22.7461 17.2178 23.0616 17.5333 23.4497 17.7311C23.8909 17.9559 24.4684 17.9559 25.6235 17.9559H32.0294" stroke="#FFFDFA" stroke-width="1.375"/>
</g>
</g>
</g>
<defs>
<filter id="filter0_i_6582_191252" x="11" y="8.25" width="20.625" height="27.5" filterUnits="userSpaceOnUse" color-interpolation-filters="sRGB">
<feFlood flood-opacity="0" result="BackgroundImageFix"/>
<feBlend mode="normal" in="SourceGraphic" in2="BackgroundImageFix" result="shape"/>
<feColorMatrix in="SourceAlpha" type="matrix" values="0 0 0 0 0 0 0 0 0 0 0 0 0 0 0 0 0 0 127 0" result="hardAlpha"/>
<feOffset dx="-2.75" dy="-2.75"/>
<feComposite in2="hardAlpha" operator="arithmetic" k2="-1" k3="1"/>
<feColorMatrix type="matrix" values="0 0 0 0 0.927734 0 0 0 0 0.61849 0 0 0 0 0 0 0 0 1 0"/>
<feBlend mode="normal" in2="shape" result="effect1_innerShadow_6582_191252"/>
</filter>
</defs>
</svg>
