<svg width="40" height="40" viewBox="0 0 40 40" fill="none" xmlns="http://www.w3.org/2000/svg">
<g id="&#230;&#140;&#135;&#228;&#187;&#164;&#228;&#191;&#174;&#229;&#155;&#190;">
<g id="Group 1171276306">
<g id="Group 1171276303">
<mask id="mask0_4842_99648" style="mask-type:alpha" maskUnits="userSpaceOnUse" x="6" y="8" width="28" height="24">
<path id="Subtract" d="M34 32H6V8H34V32ZM24.6172 18.5C24.0428 18.5 23.5224 18.8275 23.2715 19.3369L23.2246 19.4404L19.6084 28.4404C19.4227 28.9026 19.478 29.4271 19.7568 29.8398C20.0358 30.2526 20.5018 30.5 21 30.5H22.1328C22.7517 30.5 23.3073 30.1199 23.5312 29.543L24.1387 27.9785H26.3057L26.9121 29.543C27.136 30.1199 27.6917 30.4998 28.3105 30.5H29.457C29.7759 30.4999 30.0803 30.3971 30.332 30.2158C30.5787 30.3938 30.8806 30.5 31.208 30.5H32.251C33.079 30.4996 33.751 29.8282 33.751 29V20C33.751 19.1718 33.079 18.5004 32.251 18.5H31.208C30.3796 18.5 29.708 19.1716 29.708 20V25.6016L27.2314 19.4404C27.0173 18.9079 26.5199 18.547 25.9541 18.5039L25.8398 18.5H24.6172Z" fill="#D9D9D9"/>
</mask>
<g mask="url(#mask0_4842_99648)">
<g id="Group 1171276190">
<ellipse id="Ellipse 46" cx="27.5" cy="14.5" rx="1.50001" ry="1.50004" fill="#26BBFF"/>
<g id="Group 1171276186">
<path id="Polygon 21" d="M21.377 17.5742C21.9759 16.8688 23.065 16.8689 23.6641 17.5742L26.5957 21.0293C27.4228 22.0037 26.7303 23.5 25.4521 23.5H19.5889C18.3108 23.5 17.6185 22.0037 18.4453 21.0293L21.377 17.5742Z" stroke="#FFFDFA"/>
<path id="Polygon 22" d="M16.8216 15.1937C17.2092 14.6672 17.9908 14.6672 18.3784 15.1937L24.0073 22.8391C24.4821 23.484 24.0255 24.3991 23.2289 24.3991H11.9712C11.1745 24.3991 10.7179 23.484 11.1928 22.8391L16.8216 15.1937Z" fill="#FFC249"/>
</g>
</g>
</g>
</g>
<path id="Rectangle 34625028" d="M32 18V15C32 12.7909 30.2091 11 28 11H12C9.79086 11 8 12.7909 8 15V25C8 27.2091 9.78962 29 11.9988 29C13.9549 29 16.3465 29 18.5 29" stroke="#FFFDFA" stroke-linecap="round"/>
<g id="ai">
<path id="Vector" d="M31.207 20H32.2496V29H31.207V20Z" fill="#FFFDFA" stroke="#FFFDFA" stroke-width="0.2"/>
<path id="Vector_2" d="M24.6169 20H25.8397L29.4566 29H28.311L27.3328 26.479H23.1109L22.1327 29H21L24.6169 20ZM23.4456 25.6092H26.9981L25.2605 21.1092H25.209L23.4456 25.6092Z" fill="#FFFDFA" stroke="#FFFDFA" stroke-width="0.2"/>
</g>
</g>
<path id="Vector 637" d="M35 34.5V30.2071C35 29.7617 34.4614 29.5386 34.1464 29.8536L29.8536 34.1464C29.5386 34.4614 29.7617 35 30.2071 35H34.5C34.7761 35 35 34.7761 35 34.5Z" fill="#A8A292"/>
</g>
</svg>
