<svg width="42" height="42" viewBox="0 0 42 42" fill="none" xmlns="http://www.w3.org/2000/svg">
<g id="&#230;&#140;&#135;&#228;&#187;&#164;&#228;&#191;&#174;&#229;&#155;&#190;">
<rect x="1" y="1" width="40" height="40" rx="8" fill="#423C2B"/>
<rect x="1" y="1" width="40" height="40" rx="8" stroke="#6F6855"/>
<g id="Group 1171276305">
<g id="Group 1171276303">
<mask id="mask0_6861_148979" style="mask-type:alpha" maskUnits="userSpaceOnUse" x="7" y="9" width="28" height="24">
<path id="Subtract" d="M35 33H7V9H35V33ZM25.6172 19.5C25.0428 19.5 24.5224 19.8275 24.2715 20.3369L24.2246 20.4404L20.6084 29.4404C20.4227 29.9026 20.478 30.4271 20.7568 30.8398C21.0358 31.2526 21.5018 31.5 22 31.5H23.1328C23.7517 31.5 24.3073 31.1199 24.5312 30.543L25.1387 28.9785H27.3057L27.9121 30.543C28.136 31.1199 28.6917 31.4998 29.3105 31.5H30.457C30.7759 31.4999 31.0803 31.3971 31.332 31.2158C31.5787 31.3938 31.8806 31.5 32.208 31.5H33.251C34.079 31.4996 34.751 30.8282 34.751 30V21C34.751 20.1718 34.079 19.5004 33.251 19.5H32.208C31.3796 19.5 30.708 20.1716 30.708 21V26.6016L28.2314 20.4404C28.0173 19.9079 27.5199 19.547 26.9541 19.5039L26.8398 19.5H25.6172Z" fill="#D9D9D9"/>
</mask>
<g mask="url(#mask0_6861_148979)">
<g id="Group 1171276190">
<ellipse id="Ellipse 46" cx="28.5" cy="15.5" rx="1.50001" ry="1.50004" fill="#26BBFF"/>
<g id="Group 1171276186">
<path id="Polygon 21" d="M22.377 18.5742C22.9759 17.8688 24.065 17.8689 24.6641 18.5742L27.5957 22.0293C28.4228 23.0037 27.7303 24.5 26.4521 24.5H20.5889C19.3108 24.5 18.6185 23.0037 19.4453 22.0293L22.377 18.5742Z" stroke="#FFFDFA"/>
<path id="Polygon 22" d="M17.8216 16.1937C18.2092 15.6672 18.9908 15.6672 19.3784 16.1937L25.0073 23.8391C25.4821 24.484 25.0255 25.3991 24.2289 25.3991H12.9712C12.1745 25.3991 11.7179 24.484 12.1928 23.8391L17.8216 16.1937Z" fill="#FFC249"/>
</g>
</g>
</g>
</g>
<path id="Rectangle 34625028" d="M33 19V16C33 13.7909 31.2091 12 29 12H13C10.7909 12 9 13.7909 9 16V26C9 28.2091 10.7896 30 12.9988 30C14.9549 30 17.3465 30 19.5 30" stroke="#FFFDFA" stroke-linecap="round"/>
<g id="ai">
<path id="Vector" d="M32.207 21H33.2496V30H32.207V21Z" fill="#FFFDFA" stroke="#FFFDFA" stroke-width="0.2"/>
<path id="Vector_2" d="M25.6169 21H26.8397L30.4566 30H29.311L28.3328 27.479H24.1109L23.1327 30H22L25.6169 21ZM24.4456 26.6092H27.9981L26.2605 22.1092H26.209L24.4456 26.6092Z" fill="#FFFDFA" stroke="#FFFDFA" stroke-width="0.2"/>
</g>
</g>
</g>
</svg>
