<svg width="24" height="24" viewBox="0 0 24 24" fill="none" xmlns="http://www.w3.org/2000/svg">
<g id="&#231;&#167;&#175;&#229;&#136;&#134;">
<path id="Subtract" d="M12 3C16.9706 3 21 7.02944 21 12C21 16.9706 16.9706 21 12 21C7.02944 21 3 16.9706 3 12C3 7.02944 7.02944 3 12 3ZM12.2529 6.99805C12.135 6.81281 11.865 6.81281 11.7471 6.99805L11.0098 8.15625C10.2791 9.30439 9.30439 10.2791 8.15625 11.0098L6.99805 11.7471C6.81281 11.865 6.81281 12.135 6.99805 12.2529L8.15625 12.9902C9.30439 13.7209 10.2791 14.6956 11.0098 15.8438L11.7471 17.002C11.865 17.1872 12.135 17.1872 12.2529 17.002L12.9902 15.8438C13.7209 14.6956 14.6956 13.7209 15.8438 12.9902L17.002 12.2529C17.1872 12.135 17.1872 11.865 17.002 11.7471L15.8438 11.0098C14.6956 10.2791 13.7209 9.30439 12.9902 8.15625L12.2529 6.99805Z" fill="#191816"/>
</g>
</svg>
