<svg width="42" height="42" viewBox="0 0 42 42" fill="none" xmlns="http://www.w3.org/2000/svg">
<g id="&#229;&#143;&#176;&#232;&#175;&#141;&#231;&#148;&#159;&#230;&#136;&#144;">
<rect x="1" y="1" width="40" height="40" rx="6.66667" fill="#191816"/>
<rect x="1" y="1" width="40" height="40" rx="6.66667" stroke="#E1DCD0" stroke-width="2"/>
<g id="Group 1171276050">
<path id="Rectangle 1" d="M22.6465 7.25C23.2211 7.25 23.7049 7.23794 24.1504 7.41016C24.6009 7.58435 24.9411 7.91932 25.3467 8.29785L31.2715 13.8281C31.671 14.201 32.0399 14.5256 32.2344 14.9639C32.4314 15.4081 32.417 15.8931 32.417 16.4189V28.2227C32.417 29.5616 32.4187 30.6466 32.2959 31.499C32.1692 32.3787 31.8962 33.1191 31.2715 33.7021C30.6542 34.2782 29.8828 34.5236 28.9658 34.6387C28.0654 34.7516 26.9156 34.75 25.4766 34.75H16.1904C14.7514 34.75 13.6016 34.7516 12.7012 34.6387C11.7841 34.5236 11.0119 34.2783 10.3945 33.7021C9.76997 33.1191 9.49781 32.3787 9.37109 31.499C9.2483 30.6466 9.25 29.5616 9.25 28.2227V13.7773C9.25 12.4384 9.2483 11.3534 9.37109 10.501C9.49781 9.62134 9.76997 8.88086 10.3945 8.29785C11.0119 7.72167 11.7841 7.4764 12.7012 7.36133C13.6016 7.24839 14.7514 7.25 16.1904 7.25H22.6465Z" stroke="#FFFDFA" stroke-width="1.5"/>
<g id="Group 1171276160">
<path id="Vector 55" d="M24.084 27.572L24.084 18.8447" stroke="#26BBFF" stroke-width="2" stroke-linecap="round"/>
<path id="Vector 60" d="M17.584 26.4805L17.584 17.7532" stroke="#26BBFF" stroke-width="2" stroke-linecap="round"/>
<path id="Vector 58" d="M27.334 26.4805L27.334 22.1168" stroke="#FFC249" stroke-width="2" stroke-linecap="round"/>
<path id="Vector 61" d="M14.334 26.4805L14.334 21.0259" stroke="#FFC249" stroke-width="2" stroke-linecap="round"/>
<path id="Vector 59" d="M20.834 29.7532L20.834 22.1168" stroke="#FFC249" stroke-width="2" stroke-linecap="round"/>
</g>
<path id="Rectangle 2" d="M24.084 8V13.0556C24.084 14.2472 24.084 14.843 24.4542 15.2131C24.8244 15.5833 25.4202 15.5833 26.6118 15.5833H31.6673" stroke="#FFFDFA" stroke-width="1.5"/>
</g>
</g>
</svg>
