<svg width="24" height="24" viewBox="0 0 24 24" fill="none" xmlns="http://www.w3.org/2000/svg">
<g id="&#233;&#147;&#190;&#230;&#142;&#165;" clip-path="url(#clip0_3020_55437)">
<g id="Group 1171276035">
<path id="Rectangle 34624812" d="M13.0757 15.1975L10.1589 18.1143C8.84087 19.4324 6.70394 19.4324 5.38592 18.1143V18.1143C4.0679 16.7963 4.0679 14.6594 5.38592 13.3414L8.30273 10.4246" stroke="#FFFDFA" stroke-width="0.75" stroke-linecap="round"/>
<path id="Rectangle 34624813" d="M10.4252 8.3033L13.342 5.38649C14.66 4.06847 16.797 4.06847 18.115 5.38649V5.38649C19.433 6.7045 19.433 8.84144 18.115 10.1595L15.1982 13.0763" stroke="#FFFDFA" stroke-width="0.75" stroke-linecap="round"/>
<path id="Line 86" d="M15.4629 8.0376L8.5686 14.9319" stroke="#FFC249" stroke-width="0.75" stroke-linecap="round"/>
</g>
<path id="Rectangle 34624812_2" d="M-22.5 88.125V30C-22.5 9.28932 -5.71068 -7.5 15 -7.5V-7.5C35.7107 -7.5 52.5 9.28932 52.5 30V88.125" stroke="#FFFDFA" stroke-width="0.75"/>
</g>
<defs>
<clipPath id="clip0_3020_55437">
<rect width="24" height="24" fill="white"/>
</clipPath>
</defs>
</svg>
