<svg width="40" height="40" viewBox="0 0 40 40" fill="none" xmlns="http://www.w3.org/2000/svg">
<g id="&#228;&#184;&#138;&#228;&#188;&#160;">
<rect width="40" height="40" rx="8" fill="#322D20"/>
<g id="Group 1171276278">
<g id="Group 1171276278_2">
<path id="Union" d="M27.748 18C26.86 14.5495 23.7277 12 20 12C16.2723 12 13.14 14.5495 12.252 18H10.875C8.18261 18 6 20.1826 6 22.875V23.125C6 25.8174 8.18261 28 10.875 28H13H27H29.125C31.8174 28 34 25.8174 34 23.125V22.875C34 20.1826 31.8174 18 29.125 18H27.748Z" stroke="#FFFDFA" stroke-width="1.2" stroke-linecap="round"/>
</g>
<path id="Vector 621" d="M20 25L20 19M20 19L23 21.88M20 19L17 21.88" stroke="#FFFDFA" stroke-width="1.2" stroke-linecap="round" stroke-linejoin="round"/>
</g>
</g>
</svg>
