<svg width="42" height="42" viewBox="0 0 42 42" fill="none" xmlns="http://www.w3.org/2000/svg">
<g id="&#233;&#187;&#152;&#232;&#174;&#164;&#229;&#164;&#180;&#229;&#131;&#143;">
<g id="&#233;&#187;&#152;&#232;&#174;&#164;&#229;&#164;&#180;&#229;&#131;&#143;_2">
<circle id="Ellipse 831" cx="21" cy="21" r="20" fill="#26BBFF" stroke="#FFFDFA"/>
<path id="Union" d="M40.3989 13.3058C40.5233 12.0318 39.5837 10.9013 38.3084 10.7908L36.1669 10.6051C35.0191 10.5057 33.9909 11.3451 33.7264 12.4446C33.7023 12.5445 33.5495 12.5687 33.5058 12.4757L33.4238 12.301C33.1889 11.8011 32.5933 11.5862 32.0934 11.8211C31.5936 12.0559 31.3787 12.6516 31.6136 13.1514L32.9243 15.9412C33.2105 16.5502 33.3341 17.223 33.2834 17.894L32.7935 24.3652L32.5293 27.8554L38.9233 28.4097L39.2637 24.9261L40.2846 14.4752L40.3989 13.3058Z" fill="#FFFDFA"/>
<g id="Mask group">
<mask id="mask0_9459_180461" style="mask-type:alpha" maskUnits="userSpaceOnUse" x="1" y="1" width="40" height="40">
<circle id="Ellipse 831_2" cx="21" cy="21" r="20" fill="#D9D9D9"/>
</mask>
<g mask="url(#mask0_9459_180461)">
<g id="Group 1171276285">
<g id="Group 1171276291">
<path id="Union_2" d="M2.0835 33.0171C2.65779 31.6231 4.17796 30.872 5.63428 31.2622L7.0835 31.6509C8.03011 31.9046 8.75548 32.5873 9.09521 33.4409L15.6978 42.2563C16.179 42.8988 15.9059 43.8231 15.1528 44.1011L10.145 45.9497C9.60415 46.1494 8.99759 45.9361 8.70068 45.4419L3.53174 36.8394C2.79699 36.5545 2.25132 36.2513 1.8667 35.9937C1.36793 35.6595 1.25621 35.0254 1.48486 34.4702L2.0835 33.0171Z" fill="#FFFDFA"/>
<path id="Union_3" d="M2.14141 33.1074C3.09141 31.5074 4.48502 30.9672 5.94141 31.3574L7.08421 31.6507C8.03156 31.9046 8.7572 32.5885 9.09662 33.443L15.6982 42.2566C16.1794 42.8991 15.9064 43.8237 15.1534 44.1017L10.1452 45.9503C9.6043 46.1499 8.99791 45.9367 8.70101 45.4425L3.53382 36.8418C2.79779 36.5567 2.25202 36.2514 1.86703 35.9934C1.36827 35.6592 1.25704 35.0259 1.48568 34.4707L2.14141 33.1074Z" stroke="#191816" stroke-width="0.8"/>
<g id="Group 1171276287">
<path id="Rectangle 34624683" d="M7.09436 34.0046C7.04024 33.7273 7.18202 33.4488 7.43807 33.3295C7.75587 33.1813 8.13301 33.3285 8.26645 33.6528L9.36432 36.3207C9.58069 36.8465 9.26185 37.4388 8.70381 37.5477C8.2155 37.643 7.74237 37.3244 7.64705 36.8361L7.09436 34.0046Z" fill="#FFFDFA"/>
<path id="Rectangle 34624682" d="M6.9917 33.3906L7.63729 36.6981C7.73217 37.1842 8.20316 37.5014 8.68927 37.4065C9.17537 37.3116 9.49252 36.8406 9.39764 36.3545L9.16075 35.1408" stroke="#191816" stroke-width="0.8" stroke-linecap="round"/>
</g>
</g>
<g id="Group 1171276288">
<g id="Group 1171276290">
<path id="Polygon 6" d="M23.1371 16.2191C25.1956 15.0307 27.7755 15.2443 29.6104 16.7552L45.9666 30.2232C47.7449 31.6874 47.5138 34.4768 45.519 35.6286L19.122 50.8688C17.1272 52.0206 14.5959 50.8259 14.217 48.5538L10.7315 27.6549C10.3405 25.3104 11.4454 22.9693 13.5039 21.7809L23.1371 16.2191Z" fill="#FFFDFA" stroke="#191816" stroke-width="0.8"/>
<path id="Polygon 7" d="M23.1648 16.2664L13.5315 21.8281C11.4731 23.0166 10.3682 25.3576 10.7592 27.7022L11.3074 30.9895L13.0286 31.9651C13.8632 32.4381 14.9236 32.0755 15.2937 31.1905L16.648 27.9523C16.9047 27.3384 17.5146 26.9475 18.1797 26.9706L24.183 27.1792C24.8243 27.2015 25.4169 26.8385 25.6883 26.257L26.9979 23.4518C27.2148 22.9871 27.6414 22.6545 28.1451 22.5575L31.0945 21.9894C31.69 21.8747 32.1271 21.3635 32.1479 20.7574L32.2108 18.9209L29.638 16.8025C27.8031 15.2916 25.2233 15.0779 23.1648 16.2664Z" fill="#FFC249" stroke="#191816" stroke-width="0.8"/>
</g>
<g id="Group 1171276289">
<rect id="Rectangle 113" x="21.5996" y="30.6826" width="2" height="5" rx="1" transform="rotate(-30 21.5996 30.6826)" fill="#191816"/>
<rect id="Rectangle 114" x="25.0636" y="28.6826" width="2" height="5" rx="1" transform="rotate(-30 25.0636 28.6826)" fill="#191816"/>
</g>
</g>
</g>
</g>
</g>
<path id="Union_4" d="M33.3607 19.6502L33.3607 17.7412C33.3607 17.1679 33.2343 16.6016 32.9905 16.0828L31.6134 13.1518C31.3786 12.6519 31.5934 12.0563 32.0933 11.8214C32.46 11.6492 33.1241 11.7599 33.6374 12.4202C33.712 12.5161 34.115 12.4251 34.1379 12.3058C34.3927 10.9783 35.5358 10.5293 36.5719 10.6191L38.3082 10.7911C39.5835 10.9017 40.5232 12.0322 40.3987 13.3062L40.2844 14.4756L39.6654 20.599L39.2501 24.6002" stroke="#191816" stroke-width="0.8" stroke-linecap="round"/>
<g id="Group 1171276286">
<path id="Rectangle 34624681" d="M2.72075 32.9576C2.67517 33.0297 2.63197 33.0986 2.59105 33.1643C2.13072 33.9039 1.14289 35.5086 1.86658 35.9935C2.44004 36.3778 3.37 36.8674 4.75454 37.2384C6.08567 37.5951 7.53476 37.5436 8.05376 36.2535C8.12144 36.0852 8.195 35.9183 8.28053 35.7584C8.44517 35.4506 8.68836 34.8823 8.62075 34.3076C8.52075 33.4576 8.52074 33.3076 6.77074 32.4576C5.02074 31.6076 3.70084 31.4076 2.72075 32.9576Z" fill="#FFFDFA"/>
<path id="Rectangle 34624680" d="M8.14075 35.9934C7.71851 37.5353 6.16981 37.6175 4.75445 37.2383C3.36992 36.8673 2.43996 36.3776 1.8665 35.9934C1.36773 35.6592 1.25642 35.0259 1.48507 34.4707C1.48507 34.4707 1.95084 33.2574 2.59082 32.4574C3.2308 31.6574 4.44066 30.6574 7.08361 31.6507" stroke="#191816" stroke-width="0.8" stroke-linecap="round"/>
</g>
<g id="Group 1171276294">
<path id="Vector" d="M29.5632 12.3416L28.1897 11.9735L29.1055 8.00342L30.7475 8.44341L29.5632 12.3416ZM29.1006 14.0067L29.4294 12.7795L28.0866 12.4197L27.7578 13.6469L29.1006 14.0067Z" fill="#FFFDFA" stroke="#191816" stroke-width="0.25"/>
<path id="Vector_2" d="M26.533 11.4778L25.1099 11.6553L24.4551 7.5708L26.1564 7.35859L26.533 11.4778ZM26.7342 13.2209L26.5746 11.9409L25.1833 12.1144L25.343 13.3944L26.7342 13.2209Z" fill="#FFFDFA" stroke="#191816" stroke-width="0.25"/>
<g id="Group 1171276293">
<path id="Vector_3" d="M20.507 5.6807L21.2697 7.61451L19.445 8.3342L18.6823 6.40039L20.507 5.6807ZM21.4926 8.17978L23.683 13.7333L21.8583 14.453L19.6679 8.89947L21.4926 8.17978Z" fill="#FFFDFA" stroke="#191816" stroke-width="0.25"/>
<path id="Vector_4" d="M19.9172 15.4812L18.0448 16.4784L16.5815 13.7309L14.4362 14.8734L15.9045 17.6304L14.0226 18.6326L9.9386 10.964L11.8205 9.96179L13.3288 12.794L15.4741 11.6515L13.9608 8.80986L15.8332 7.81267L19.9172 15.4812Z" fill="#FFFDFA" stroke="#191816" stroke-width="0.25"/>
</g>
</g>
<path id="Ellipse 832" d="M40.9997 21C40.9997 32.0457 32.0454 41 20.9997 41C17.357 41 13.9417 40.0261 11 38.3245" stroke="#FFFDFA" stroke-linecap="round"/>
<path id="Ellipse 833" d="M41.0001 21C41.0001 32.0457 32.0458 41 21.0001 41C16.3847 41 12.1344 39.4366 8.75 36.8106" stroke="#FFFDFA" stroke-linecap="round"/>
</g>
</g>
</svg>
