<svg width="1250" height="28" viewBox="0 0 1250 28" fill="none" xmlns="http://www.w3.org/2000/svg">
<path id="Subtract" fill-rule="evenodd" clip-rule="evenodd" d="M1302.15 27.9982L-51.1547 27.9999L-51.1547 0.00179646L1302.15 0.000118017L1302.15 27.9982ZM1289.71 20.2224C1289.71 20.6519 1289.36 21.0001 1288.93 21.0001L1278.04 21.0001C1277.61 21.0001 1277.27 20.6519 1277.27 20.2224L1277.27 7.77814C1277.27 7.34859 1277.61 7.00037 1278.04 7.00037L1288.93 7.00037C1289.36 7.00037 1289.71 7.34859 1289.71 7.77814L1289.71 20.2224ZM1264.82 21.0001C1265.25 21.0001 1265.6 20.6519 1265.6 20.2224L1265.6 7.77814C1265.6 7.34859 1265.25 7.00037 1264.82 7.00037L1253.93 7.00037C1253.5 7.00037 1253.16 7.34859 1253.16 7.77814L1253.16 20.2224C1253.16 20.6519 1253.5 21.0001 1253.93 21.0001L1264.82 21.0001ZM1241.49 20.2224C1241.49 20.6519 1241.14 21.0001 1240.71 21.0001L1229.82 21.0001C1229.39 21.0001 1229.04 20.6519 1229.04 20.2224L1229.04 7.77814C1229.04 7.34859 1229.39 7.00037 1229.82 7.00037L1240.71 7.00037C1241.14 7.00037 1241.49 7.34859 1241.49 7.77814L1241.49 20.2224ZM1216.6 21.0001C1217.03 21.0001 1217.38 20.6519 1217.38 20.2224L1217.38 7.77814C1217.38 7.34859 1217.03 7.00037 1216.6 7.00037L1205.71 7.00037C1205.28 7.00037 1204.93 7.34859 1204.93 7.77814L1204.93 20.2224C1204.93 20.6519 1205.28 21.0001 1205.71 21.0001L1216.6 21.0001ZM1193.27 20.2224C1193.27 20.6519 1192.92 21.0001 1192.49 21.0001L1181.6 21.0001C1181.17 21.0001 1180.82 20.6519 1180.82 20.2224L1180.82 7.77814C1180.82 7.34859 1181.17 7.00037 1181.6 7.00037L1192.49 7.00037C1192.92 7.00037 1193.27 7.34859 1193.27 7.77814L1193.27 20.2224ZM1168.38 21.0001C1168.81 21.0001 1169.16 20.6519 1169.16 20.2224L1169.16 7.77814C1169.16 7.34859 1168.81 7.00037 1168.38 7.00037L1157.49 7.00037C1157.06 7.00037 1156.71 7.34859 1156.71 7.77814L1156.71 20.2224C1156.71 20.6519 1157.06 21.0001 1157.49 21.0001L1168.38 21.0001ZM1145.05 20.2224C1145.05 20.6519 1144.7 21.0001 1144.27 21.0001L1133.38 21.0001C1132.95 21.0001 1132.6 20.6519 1132.6 20.2224L1132.6 7.77814C1132.6 7.34859 1132.95 7.00037 1133.38 7.00037L1144.27 7.00037C1144.7 7.00037 1145.05 7.34859 1145.05 7.77814L1145.05 20.2224ZM1120.16 21.0001C1120.59 21.0001 1120.94 20.6519 1120.94 20.2224L1120.94 7.77814C1120.94 7.34859 1120.59 7.00037 1120.16 7.00037L1109.27 7.00037C1108.84 7.00037 1108.49 7.34859 1108.49 7.77814L1108.49 20.2224C1108.49 20.6519 1108.84 21.0001 1109.27 21.0001L1120.16 21.0001ZM1096.82 20.2224C1096.82 20.6519 1096.48 21.0001 1096.05 21.0001L1085.16 21.0001C1084.73 21.0001 1084.38 20.6519 1084.38 20.2224L1084.38 7.77814C1084.38 7.34859 1084.73 7.00037 1085.16 7.00037L1096.05 7.00037C1096.48 7.00037 1096.82 7.34859 1096.82 7.77814L1096.82 20.2224ZM1071.94 21.0001C1072.37 21.0001 1072.71 20.6519 1072.71 20.2224L1072.71 7.77814C1072.71 7.34859 1072.37 7.00037 1071.94 7.00037L1061.05 7.00037C1060.62 7.00037 1060.27 7.34859 1060.27 7.77814L1060.27 20.2224C1060.27 20.6519 1060.62 21.0001 1061.05 21.0001L1071.94 21.0001ZM1048.6 20.2224C1048.6 20.6519 1048.26 21.0001 1047.83 21.0001L1036.94 21.0001C1036.51 21.0001 1036.16 20.6519 1036.16 20.2224L1036.16 7.77814C1036.16 7.34859 1036.51 7.00037 1036.94 7.00037L1047.83 7.00037C1048.26 7.00037 1048.6 7.34859 1048.6 7.77814L1048.6 20.2224ZM1023.72 21.0001C1024.14 21.0001 1024.49 20.6519 1024.49 20.2224L1024.49 7.77814C1024.49 7.34859 1024.14 7.00037 1023.72 7.00037L1012.83 7.00037C1012.4 7.00037 1012.05 7.34859 1012.05 7.77814L1012.05 20.2224C1012.05 20.6519 1012.4 21.0001 1012.83 21.0001L1023.72 21.0001ZM1000.38 20.2224C1000.38 20.6519 1000.03 21.0001 999.604 21.0001L988.716 21.0001C988.286 21.0001 987.938 20.6519 987.938 20.2224L987.938 7.77814C987.938 7.34859 988.286 7.00037 988.716 7.00037L999.604 7.00037C1000.03 7.00037 1000.38 7.34859 1000.38 7.77814L1000.38 20.2224ZM975.494 21.0001C975.923 21.0001 976.272 20.6519 976.272 20.2224L976.272 7.77814C976.272 7.34859 975.923 7.00037 975.494 7.00037L964.605 7.00037C964.176 7.00037 963.827 7.34859 963.827 7.77814L963.827 20.2224C963.827 20.6519 964.176 21.0001 964.605 21.0001L975.494 21.0001ZM952.161 20.2224C952.161 20.6519 951.813 21.0001 951.383 21.0001L940.494 21.0001C940.065 21.0001 939.717 20.6519 939.717 20.2224L939.717 7.77814C939.717 7.34859 940.065 7.00037 940.494 7.00037L951.383 7.00037C951.813 7.00037 952.161 7.34859 952.161 7.77814L952.161 20.2224ZM927.272 21.0001C927.702 21.0001 928.05 20.6519 928.05 20.2224L928.05 7.77814C928.05 7.34859 927.702 7.00037 927.272 7.00037L916.384 7.00037C915.954 7.00037 915.606 7.34859 915.606 7.77814L915.606 20.2224C915.606 20.6519 915.954 21.0001 916.384 21.0001L927.272 21.0001ZM903.94 20.2224C903.94 20.6519 903.591 21.0001 903.162 21.0001L892.273 21.0001C891.843 21.0001 891.495 20.6519 891.495 20.2224L891.495 7.77814C891.495 7.34859 891.843 7.00037 892.273 7.00037L903.162 7.00037C903.591 7.00037 903.94 7.34859 903.94 7.77814L903.94 20.2224ZM879.051 21.0001C879.481 21.0001 879.829 20.6519 879.829 20.2224L879.829 7.77814C879.829 7.34859 879.481 7.00037 879.051 7.00037L868.162 7.00037C867.733 7.00037 867.385 7.34859 867.385 7.77814L867.385 20.2224C867.385 20.6519 867.733 21.0001 868.162 21.0001L879.051 21.0001ZM855.718 20.2224C855.718 20.6519 855.37 21.0001 854.94 21.0001L844.052 21.0001C843.622 21.0001 843.274 20.6519 843.274 20.2224L843.274 7.77814C843.274 7.34859 843.622 7.00037 844.052 7.00037L854.94 7.00037C855.37 7.00037 855.718 7.34859 855.718 7.77814L855.718 20.2224ZM830.83 21.0001C831.259 21.0001 831.607 20.6519 831.607 20.2224L831.607 7.77814C831.607 7.34859 831.259 7.00037 830.83 7.00037L819.941 7.00037C819.511 7.00037 819.163 7.34859 819.163 7.77814L819.163 20.2224C819.163 20.6519 819.511 21.0001 819.941 21.0001L830.83 21.0001ZM807.497 20.2224C807.497 20.6519 807.149 21.0001 806.719 21.0001L795.83 21.0001C795.401 21.0001 795.052 20.6519 795.052 20.2224L795.052 7.77814C795.052 7.34859 795.401 7.00037 795.83 7.00037L806.719 7.00037C807.149 7.00037 807.497 7.34859 807.497 7.77814L807.497 20.2224ZM782.608 21.0001C783.038 21.0001 783.386 20.6519 783.386 20.2224L783.386 7.77814C783.386 7.34859 783.038 7.00037 782.608 7.00037L771.72 7.00037C771.29 7.00037 770.942 7.34859 770.942 7.77814L770.942 20.2224C770.942 20.6519 771.29 21.0001 771.72 21.0001L782.608 21.0001ZM759.275 20.2224C759.275 20.6519 758.927 21.0001 758.498 21.0001L747.609 21.0001C747.179 21.0001 746.831 20.6519 746.831 20.2224L746.831 7.77814C746.831 7.34859 747.179 7.00037 747.609 7.00037L758.498 7.00037C758.927 7.00037 759.275 7.34859 759.275 7.77814L759.275 20.2224ZM734.387 21.0001C734.817 21.0001 735.165 20.6519 735.165 20.2224L735.165 7.77814C735.165 7.34859 734.817 7.00037 734.387 7.00037L723.498 7.00037C723.069 7.00037 722.72 7.34859 722.72 7.77814L722.72 20.2224C722.72 20.6519 723.069 21.0001 723.498 21.0001L734.387 21.0001ZM711.054 20.2224C711.054 20.6519 710.706 21.0001 710.276 21.0001L699.388 21.0001C698.958 21.0001 698.61 20.6519 698.61 20.2224L698.61 7.77814C698.61 7.34859 698.958 7.00037 699.388 7.00037L710.276 7.00037C710.706 7.00037 711.054 7.34859 711.054 7.77814L711.054 20.2224ZM686.166 21.0001C686.595 21.0001 686.943 20.6519 686.943 20.2224L686.943 7.77814C686.943 7.34859 686.595 7.00037 686.166 7.00037L675.277 7.00037C674.847 7.00037 674.499 7.34859 674.499 7.77814L674.499 20.2224C674.499 20.6519 674.847 21.0001 675.277 21.0001L686.166 21.0001ZM662.833 20.2224C662.833 20.6519 662.484 21.0001 662.055 21.0001L651.166 21.0001C650.737 21.0001 650.388 20.6519 650.388 20.2224L650.388 7.77814C650.388 7.34859 650.737 7.00037 651.166 7.00037L662.055 7.00037C662.484 7.00037 662.833 7.34859 662.833 7.77814L662.833 20.2224ZM637.944 21.0001C638.374 21.0001 638.722 20.6519 638.722 20.2224L638.722 7.77814C638.722 7.34859 638.374 7.00037 637.944 7.00037L627.055 7.00037C626.626 7.00037 626.278 7.34859 626.278 7.77814L626.278 20.2224C626.278 20.6519 626.626 21.0001 627.055 21.0001L637.944 21.0001ZM614.611 20.2224C614.611 20.6519 614.263 21.0001 613.833 21.0001L602.945 21.0001C602.515 21.0001 602.167 20.6519 602.167 20.2224L602.167 7.77814C602.167 7.34859 602.515 7.00037 602.945 7.00037L613.833 7.00037C614.263 7.00037 614.611 7.34859 614.611 7.77814L614.611 20.2224ZM589.723 21.0001C590.152 21.0001 590.501 20.6519 590.501 20.2224L590.501 7.77814C590.501 7.34859 590.152 7.00037 589.723 7.00037L578.834 7.00037C578.405 7.00037 578.056 7.34859 578.056 7.77814L578.056 20.2224C578.056 20.6519 578.405 21.0001 578.834 21.0001L589.723 21.0001ZM566.39 20.2224C566.39 20.6519 566.042 21.0001 565.612 21.0001L554.723 21.0001C554.294 21.0001 553.946 20.6519 553.946 20.2224L553.946 7.77814C553.946 7.34859 554.294 7.00037 554.723 7.00037L565.612 7.00037C566.042 7.00037 566.39 7.34859 566.39 7.77814L566.39 20.2224ZM541.501 21.0001C541.931 21.0001 542.279 20.6519 542.279 20.2224L542.279 7.77814C542.279 7.34859 541.931 7.00037 541.501 7.00037L530.613 7.00037C530.183 7.00037 529.835 7.34859 529.835 7.77814L529.835 20.2224C529.835 20.6519 530.183 21.0001 530.613 21.0001L541.501 21.0001ZM518.169 20.2224C518.169 20.6519 517.82 21.0001 517.391 21.0001L506.502 21.0001C506.072 21.0001 505.724 20.6519 505.724 20.2224L505.724 7.77814C505.724 7.34859 506.072 7.00037 506.502 7.00037L517.391 7.00037C517.82 7.00037 518.169 7.34859 518.169 7.77814L518.169 20.2224ZM493.28 21.0001C493.71 21.0001 494.058 20.6519 494.058 20.2224L494.058 7.77814C494.058 7.34859 493.71 7.00037 493.28 7.00037L482.391 7.00037C481.962 7.00037 481.614 7.34859 481.614 7.77814L481.614 20.2224C481.614 20.6519 481.962 21.0001 482.391 21.0001L493.28 21.0001ZM469.947 20.2224C469.947 20.6519 469.599 21.0001 469.169 21.0001L458.281 21.0001C457.851 21.0001 457.503 20.6519 457.503 20.2224L457.503 7.77814C457.503 7.34859 457.851 7.00037 458.281 7.00037L469.169 7.00037C469.599 7.00037 469.947 7.34859 469.947 7.77814L469.947 20.2224ZM445.059 21.0001C445.488 21.0001 445.836 20.6519 445.836 20.2224L445.836 7.77814C445.836 7.34859 445.488 7.00037 445.059 7.00037L434.17 7.00037C433.74 7.00037 433.392 7.34859 433.392 7.77814L433.392 20.2224C433.392 20.6519 433.74 21.0001 434.17 21.0001L445.059 21.0001ZM421.726 20.2224C421.726 20.6519 421.377 21.0001 420.948 21.0001L410.059 21.0001C409.63 21.0001 409.282 20.6519 409.282 20.2224L409.282 7.77814C409.282 7.34859 409.63 7.00037 410.059 7.00037L420.948 7.00037C421.377 7.00037 421.726 7.34859 421.726 7.77814L421.726 20.2224ZM396.837 21.0001C397.267 21.0001 397.615 20.6519 397.615 20.2224L397.615 7.77814C397.615 7.34859 397.267 7.00037 396.837 7.00037L385.949 7.00037C385.519 7.00037 385.171 7.34859 385.171 7.77814L385.171 20.2224C385.171 20.6519 385.519 21.0001 385.949 21.0001L396.837 21.0001ZM373.504 20.2224C373.504 20.6519 373.156 21.0001 372.727 21.0001L361.838 21.0001C361.408 21.0001 361.06 20.6519 361.06 20.2224L361.06 7.77814C361.06 7.34859 361.408 7.00037 361.838 7.00037L372.727 7.00037C373.156 7.00037 373.504 7.34859 373.504 7.77814L373.504 20.2224ZM348.616 21.0001C349.045 21.0001 349.394 20.6519 349.394 20.2224L349.394 7.77814C349.394 7.34859 349.045 7.00037 348.616 7.00037L337.727 7.00037C337.298 7.00037 336.949 7.34859 336.949 7.77814L336.949 20.2224C336.949 20.6519 337.298 21.0001 337.727 21.0001L348.616 21.0001ZM325.283 20.2224C325.283 20.6519 324.935 21.0001 324.505 21.0001L313.617 21.0001C313.187 21.0001 312.839 20.6519 312.839 20.2224L312.839 7.77814C312.839 7.34859 313.187 7.00037 313.617 7.00037L324.505 7.00037C324.935 7.00037 325.283 7.34859 325.283 7.77814L325.283 20.2224ZM300.395 21.0001C300.824 21.0001 301.172 20.6519 301.172 20.2224L301.172 7.77814C301.172 7.34859 300.824 7.00037 300.395 7.00037L289.506 7.00037C289.076 7.00037 288.728 7.34859 288.728 7.77814L288.728 20.2224C288.728 20.6519 289.076 21.0001 289.506 21.0001L300.395 21.0001ZM277.062 20.2224C277.062 20.6519 276.713 21.0001 276.284 21.0001L265.395 21.0001C264.966 21.0001 264.617 20.6519 264.617 20.2224L264.617 7.77814C264.617 7.34859 264.966 7.00037 265.395 7.00037L276.284 7.00037C276.713 7.00037 277.062 7.34859 277.062 7.77814L277.062 20.2224ZM252.173 21.0001C252.603 21.0001 252.951 20.6519 252.951 20.2224L252.951 7.77814C252.951 7.34859 252.603 7.00037 252.173 7.00037L241.284 7.00037C240.855 7.00037 240.507 7.34859 240.507 7.77814L240.507 20.2224C240.507 20.6519 240.855 21.0001 241.284 21.0001L252.173 21.0001ZM228.84 20.2224C228.84 20.6519 228.492 21.0001 228.063 21.0001L217.174 21.0001C216.744 21.0001 216.396 20.6519 216.396 20.2224L216.396 7.77814C216.396 7.34859 216.744 7.00037 217.174 7.00037L228.063 7.00037C228.492 7.00037 228.84 7.34859 228.84 7.77814L228.84 20.2224ZM203.952 21.0001C204.381 21.0001 204.73 20.6519 204.73 20.2224L204.73 7.77814C204.73 7.34859 204.381 7.00037 203.952 7.00037L193.063 7.00037C192.634 7.00037 192.285 7.34859 192.285 7.77814L192.285 20.2224C192.285 20.6519 192.634 21.0001 193.063 21.0001L203.952 21.0001ZM180.619 20.2224C180.619 20.6519 180.271 21.0001 179.841 21.0001L168.952 21.0001C168.523 21.0001 168.175 20.6519 168.175 20.2224L168.175 7.77814C168.175 7.34859 168.523 7.00037 168.952 7.00037L179.841 7.00037C180.271 7.00037 180.619 7.34859 180.619 7.77814L180.619 20.2224ZM155.73 21.0001C156.16 21.0001 156.508 20.6519 156.508 20.2224L156.508 7.77814C156.508 7.34859 156.16 7.00037 155.73 7.00037L144.842 7.00037C144.412 7.00037 144.064 7.34859 144.064 7.77814L144.064 20.2224C144.064 20.6519 144.412 21.0001 144.842 21.0001L155.73 21.0001ZM132.398 20.2224C132.398 20.6519 132.049 21.0001 131.62 21.0001L120.731 21.0001C120.302 21.0001 119.953 20.6519 119.953 20.2224L119.953 7.77814C119.953 7.34859 120.302 7.00037 120.731 7.00037L131.62 7.00037C132.049 7.00037 132.398 7.34859 132.398 7.77814L132.398 20.2224ZM107.509 21.0001C107.939 21.0001 108.287 20.6519 108.287 20.2224L108.287 7.77814C108.287 7.34859 107.939 7.00037 107.509 7.00037L96.6204 7.00037C96.1909 7.00037 95.8426 7.34859 95.8426 7.77814L95.8426 20.2224C95.8426 20.6519 96.1909 21.0001 96.6204 21.0001L107.509 21.0001ZM84.1762 20.2224C84.1762 20.6519 83.828 21.0001 83.3984 21.0001L72.5097 21.0001C72.0802 21.0001 71.732 20.6519 71.732 20.2224L71.732 7.77814C71.732 7.34859 72.0802 7.00037 72.5097 7.00037L83.3984 7.00037C83.828 7.00037 84.1762 7.34859 84.1762 7.77814L84.1762 20.2224ZM59.2878 21.0001C59.7172 21.0001 60.0655 20.6519 60.0655 20.2224L60.0655 7.77814C60.0655 7.34859 59.7172 7.00037 59.2878 7.00037L48.399 7.00037C47.9696 7.00037 47.6213 7.34859 47.6213 7.77814L47.6213 20.2224C47.6213 20.6519 47.9696 21.0001 48.399 21.0001L59.2878 21.0001ZM35.9548 20.2224C35.9548 20.6519 35.6065 21.0001 35.1771 21.0001L24.2884 21.0001C23.8588 21.0001 23.5106 20.6519 23.5106 20.2224L23.5106 7.77814C23.5106 7.34859 23.8588 7.00037 24.2884 7.00037L35.1771 7.00037C35.6065 7.00037 35.9548 7.34859 35.9548 7.77814L35.9548 20.2224ZM11.0664 21.0001C11.4959 21.0001 11.8441 20.6519 11.8441 20.2224L11.8441 7.77814C11.8441 7.34859 11.4959 7.00037 11.0664 7.00037L0.177692 7.00037C-0.251874 7.00037 -0.60014 7.34859 -0.60014 7.77814L-0.600141 20.2224C-0.600141 20.6519 -0.251875 21.0001 0.177691 21.0001L11.0664 21.0001ZM-12.2665 20.2224C-12.2665 20.6519 -12.6148 21.0001 -13.0444 21.0001L-23.933 21.0001C-24.3625 21.0001 -24.7107 20.6519 -24.7107 20.2224L-24.7107 7.77814C-24.7107 7.34859 -24.3625 7.00037 -23.933 7.00037L-13.0444 7.00037C-12.6148 7.00037 -12.2665 7.34859 -12.2665 7.77814L-12.2665 20.2224ZM-37.1549 21.0001C-36.7255 21.0001 -36.3772 20.6519 -36.3772 20.2224L-36.3772 7.77814C-36.3772 7.34859 -36.7255 7.00037 -37.1549 7.00037L-48.0437 7.00037C-48.4732 7.00037 -48.8215 7.34859 -48.8215 7.77814L-48.8215 20.2224C-48.8215 20.6519 -48.4732 21.0001 -48.0437 21.0001L-37.1549 21.0001Z" fill="#26231B"/>
</svg>
