<svg width="24" height="25" viewBox="0 0 24 25" fill="none" xmlns="http://www.w3.org/2000/svg">
<g id="&#230;&#150;&#176;&#229;&#187;&#186;&#229;&#136;&#155;&#228;&#189;&#156;&#231;&#137;&#136;">
<g id="Group 1171276148">
<g id="Group 1171276147">
<rect id="Rectangle 61" x="3" y="9.24219" width="18" height="13" rx="1.5" stroke="#FFFDFA" stroke-width="0.8" stroke-linecap="round"/>
<path id="Rectangle 50" d="M3 12.2422L21 12.2422V10.7422C21 9.91376 20.3284 9.24219 19.5 9.24219L4.5 9.24219C3.67157 9.24219 3 9.91376 3 10.7422V12.2422Z" stroke="#FFFDFA" stroke-width="0.8" stroke-linecap="round"/>
</g>
<path id="Rectangle 62" d="M2.95015 7.46517C3.16456 8.26537 3.98707 8.74025 4.78727 8.52583L19.2011 4.66367C20.0013 4.44925 20.4761 3.62675 20.2617 2.82655L19.9253 1.57084C19.8967 1.46415 19.787 1.40083 19.6803 1.42942L2.75511 5.96452C2.64841 5.99311 2.5851 6.10278 2.61369 6.20947L2.95015 7.46517Z" stroke="#FFFDFA" stroke-width="0.8" stroke-linecap="round"/>
<g id="Group 1171275815">
<rect id="Rectangle 34624688" x="6.00049" y="17.9004" width="11.9997" height="1.19997" rx="0.599985" fill="#FFC249"/>
<rect id="Rectangle 34624689" x="8.3999" y="15.5" width="8.3998" height="1.19997" rx="0.599986" fill="#26BBFF"/>
<rect id="Rectangle 34624687" x="6" y="15.5" width="1.19997" height="1.19997" rx="0.599985" fill="#26BBFF"/>
</g>
</g>
</g>
</svg>
