<svg width="42" height="42" viewBox="0 0 42 42" fill="none" xmlns="http://www.w3.org/2000/svg">
<g id="&#232;&#167;&#146;&#232;&#137;&#178;ip&#231;&#148;&#159;&#230;&#136;&#144;&#232;&#174;&#190;&#232;&#174;&#161;">
<rect x="1" y="1" width="40" height="40" rx="8" stroke="#E1DCD0" stroke-width="2"/>
<g id="Group 1171276297">
<circle id="Ellipse 810" cx="15" cy="19" r="4" fill="#E1DCD0"/>
<path id="Rectangle 34625026" d="M8 31.0352C8 27.1692 11.134 24 15 24V24C18.866 24 22 27.1692 22 31.0352V31.0352C22 31.5654 21.5702 32 21.04 32H8.96C8.42981 32 8 31.5654 8 31.0352V31.0352Z" fill="#E1DCD0"/>
<g id="Group 1171276296">
<path id="Rectangle 34625027" d="M15 13V13C15 11.3431 16.3431 10 18 10H31C32.6569 10 34 11.3431 34 13V29C34 30.6569 32.6569 32 31 32H24" stroke="#E1DCD0" stroke-linecap="round"/>
<path id="Vector 626" d="M21 14L31 14" stroke="#E1DCD0" stroke-width="1.5" stroke-linecap="round"/>
<path id="Vector 627" d="M23 18L31 18" stroke="#E1DCD0" stroke-width="1.5" stroke-linecap="round"/>
</g>
</g>
</g>
</svg>
