<svg width="800" height="450" viewBox="0 0 800 450" fill="none" xmlns="http://www.w3.org/2000/svg">
<g id="&#229;&#141;&#160;&#228;&#189;&#141;&#231;&#172;&#166;2" clip-path="url(#clip0_1309_4854)">
<rect width="800" height="450" fill="#E1DCD0"/>
<g id="Group 1171276336">
<g id="Group 1171276337">
<g id="Rectangle 34624718">
<path d="M739.911 54.7903C748.346 55.6051 754.969 62.0168 756.378 70.3735L795.005 299.391C797.232 312.593 785.621 324.334 772.315 322.85C722.417 317.285 606.517 310.242 444.803 336.808C271.976 365.199 125.321 421.123 70.6359 443.682C58.9843 448.488 45.6958 441.279 43.5995 428.851L4.74391 198.476C3.23318 189.519 8.18354 180.751 16.6829 177.546C68.0104 158.192 245.948 93.4732 399.205 66.4545C549.808 39.9036 695.076 50.4596 739.911 54.7903Z" fill="#FFFDFA"/>
<path d="M739.911 54.7903C748.346 55.6051 754.969 62.0168 756.378 70.3735L795.005 299.391C797.232 312.593 785.621 324.334 772.315 322.85C722.417 317.285 606.517 310.242 444.803 336.808C271.976 365.199 125.321 421.123 70.6359 443.682C58.9843 448.488 45.6958 441.279 43.5995 428.851L4.74391 198.476C3.23318 189.519 8.18354 180.751 16.6829 177.546C68.0104 158.192 245.948 93.4732 399.205 66.4545C549.808 39.9036 695.076 50.4596 739.911 54.7903Z" fill="#FFE6B5" fill-opacity="0.3"/>
</g>
<g id="Mask group">
<mask id="mask0_1309_4854" style="mask-type:alpha" maskUnits="userSpaceOnUse" x="4" y="49" width="792" height="397">
<path id="Rectangle 34624719" d="M739.911 54.7902C748.346 55.605 754.969 62.0167 756.378 70.3734L795.005 299.391C797.232 312.593 785.621 324.334 772.315 322.85C722.417 317.285 606.517 310.242 444.803 336.808C271.976 365.199 125.321 421.123 70.6359 443.682C58.9843 448.488 45.6958 441.279 43.5995 428.851L4.74391 198.476C3.23318 189.519 8.18354 180.751 16.6829 177.546C68.0104 158.192 245.948 93.4731 399.205 66.4544C549.808 39.9035 695.076 50.4595 739.911 54.7902Z" fill="#D9D9D9"/>
</mask>
<g mask="url(#mask0_1309_4854)">
<g id="Group 1171276336_2">
<path id="Subtract" d="M-18.6457 -94.0845L87.7371 536.617L62.495 540.874L-43.8878 -89.8271L-18.6457 -94.0845ZM66.8588 528.275C66.8882 528.449 67.0536 528.567 67.2279 528.537L79.2177 526.515C79.392 526.486 79.5097 526.32 79.4803 526.146L77.6945 515.558C77.6652 515.384 77.4997 515.266 77.3254 515.296L65.3356 517.318C65.1613 517.347 65.0436 517.513 65.073 517.687L66.8588 528.275ZM63.1926 506.538C63.222 506.712 63.3874 506.83 63.5617 506.8L75.5525 504.778C75.7265 504.748 75.8434 504.583 75.8141 504.409L74.0282 493.82C73.9986 493.646 73.8341 493.529 73.6602 493.558L61.6694 495.581C61.4953 495.61 61.3775 495.775 61.4066 495.949L63.1926 506.538ZM59.5262 484.8C59.5556 484.974 59.721 485.092 59.8953 485.062L71.8861 483.04C72.0602 483.01 72.1771 482.845 72.1477 482.671L70.362 472.083C70.3326 471.909 70.1679 471.791 69.9938 471.821L58.003 473.843C57.8287 473.872 57.711 474.038 57.7404 474.212L59.5262 484.8ZM55.859 463.063C55.8885 463.237 56.054 463.355 56.2281 463.326L68.2189 461.303C68.3931 461.274 68.5108 461.108 68.4815 460.934L66.6956 450.345C66.666 450.171 66.5007 450.054 66.3266 450.084L54.3358 452.106C54.1618 452.136 54.0439 452.3 54.0731 452.474L55.859 463.063ZM52.1936 441.325C52.223 441.499 52.3876 441.617 52.5617 441.588L64.5525 439.565C64.7268 439.536 64.8445 439.37 64.8151 439.196L63.0294 428.608C63 428.434 62.8345 428.316 62.6602 428.346L50.6694 430.368C50.4953 430.398 50.3784 430.563 50.4078 430.737L52.1936 441.325ZM48.5274 419.588C48.5568 419.762 48.7213 419.88 48.8955 419.851L60.8863 417.828C61.0606 417.799 61.1783 417.634 61.1489 417.459L59.3632 406.871C59.3338 406.697 59.1683 406.58 58.994 406.609L47.0032 408.631C46.8291 408.661 46.7122 408.826 46.7416 409L48.5274 419.588ZM44.861 397.85C44.8904 398.024 45.055 398.142 45.2292 398.113L57.22 396.09C57.3942 396.061 57.5119 395.896 57.4825 395.721L55.6968 385.134C55.6674 384.959 55.5019 384.842 55.3277 384.871L43.3369 386.893C43.1627 386.923 43.0459 387.088 43.0752 387.262L44.861 397.85ZM41.1948 376.113C41.2242 376.287 41.3888 376.405 41.5629 376.376L53.5537 374.354C53.728 374.324 53.8457 374.159 53.8163 373.984L52.0306 363.397C52.0012 363.222 51.8357 363.105 51.6614 363.134L39.6706 365.156C39.4965 365.186 39.3796 365.351 39.409 365.525L41.1948 376.113ZM37.5286 354.376C37.558 354.55 37.7226 354.668 37.8967 354.639L49.8875 352.617C50.0617 352.587 50.1794 352.422 50.1501 352.247L48.3642 341.659C48.3346 341.485 48.1694 341.368 47.9952 341.397L36.0044 343.42C35.8304 343.449 35.7135 343.614 35.7426 343.788L37.5286 354.376ZM33.8622 332.638C33.8916 332.813 34.0562 332.93 34.2304 332.901L46.2212 330.879C46.3954 330.849 46.5131 330.684 46.4837 330.51L44.698 319.922C44.6686 319.748 44.5031 319.63 44.3288 319.659L32.338 321.682C32.164 321.711 32.0471 321.876 32.0764 322.051L33.8622 332.638ZM30.196 310.901C30.2254 311.076 30.3901 311.193 30.5641 311.164L42.5549 309.142C42.7292 309.112 42.8468 308.947 42.8175 308.773L41.0316 298.184C41.002 298.01 40.8368 297.893 40.6626 297.922L28.6718 299.945C28.4979 299.974 28.3809 300.139 28.4101 300.313L30.196 310.901ZM26.5296 289.164C26.559 289.338 26.7237 289.455 26.8978 289.426L38.8886 287.404C39.0628 287.374 39.1805 287.209 39.1511 287.035L37.3654 276.447C37.336 276.273 37.1705 276.155 36.9963 276.184L25.0055 278.207C24.8314 278.236 24.7145 278.402 24.7438 278.576L26.5296 289.164ZM22.8634 267.427C22.8929 267.601 23.0582 267.718 23.2324 267.688L35.2222 265.666C35.3964 265.637 35.5142 265.472 35.4849 265.298L33.699 254.709C33.6695 254.535 33.5042 254.418 33.33 254.447L21.3402 256.47C21.166 256.499 21.0483 256.664 21.0775 256.838L22.8634 267.427ZM19.197 245.689C19.2264 245.863 19.3919 245.981 19.5661 245.951L31.556 243.929C31.7302 243.9 31.8479 243.734 31.8186 243.56L30.0328 232.972C30.0034 232.798 29.8379 232.68 29.6637 232.71L17.6738 234.732C17.4996 234.761 17.3819 234.927 17.4113 235.101L19.197 245.689ZM15.5308 223.952C15.5602 224.126 15.7257 224.244 15.8999 224.214L27.8898 222.192C28.064 222.163 28.1817 221.997 28.1523 221.823L26.3666 211.235C26.3372 211.061 26.1717 210.943 25.9975 210.973L14.0076 212.995C13.8333 213.024 13.7156 213.19 13.745 213.364L15.5308 223.952ZM11.8644 202.214C11.8938 202.388 12.0593 202.506 12.2336 202.476L24.2234 200.454C24.3977 200.425 24.5154 200.259 24.486 200.085L22.7002 189.497C22.6708 189.323 22.5053 189.205 22.3311 189.235L10.3412 191.257C10.167 191.286 10.0493 191.452 10.0787 191.626L11.8644 202.214ZM8.19821 180.477C8.22761 180.651 8.39307 180.769 8.56734 180.74L20.5572 178.717C20.7314 178.688 20.8491 178.522 20.8198 178.348L19.034 167.76C19.0046 167.586 18.8391 167.468 18.6649 167.498L6.67503 169.52C6.50076 169.549 6.38306 169.715 6.41245 169.889L8.19821 180.477ZM4.532 158.74C4.56154 158.914 4.7268 159.031 4.90096 159.002L16.8908 156.979C17.065 156.95 17.1827 156.785 17.1535 156.611L15.3676 146.023C15.3381 145.848 15.1729 145.732 14.9987 145.761L3.00882 147.783C2.83461 147.813 2.71681 147.977 2.74607 148.151L4.532 158.74ZM0.865624 137.002C0.895016 137.176 1.06048 137.294 1.23475 137.265L13.2255 135.242C13.3996 135.213 13.5165 135.047 13.4872 134.873L11.7014 124.286C11.672 124.111 11.5074 123.994 11.3332 124.023L-0.65756 126.045C-0.83183 126.075 -0.949531 126.24 -0.920139 126.414L0.865624 137.002ZM-2.80059 115.265C-2.77105 115.439 -2.60579 115.556 -2.43163 115.527L9.55917 113.504C9.73311 113.475 9.85012 113.31 9.82095 113.136L8.03502 102.548C8.00556 102.374 7.84108 102.257 7.66703 102.286L-4.32377 104.308C-4.49798 104.338 -4.61578 104.502 -4.58651 104.676L-2.80059 115.265ZM-6.46697 93.5273C-6.43757 93.7016 -6.27211 93.8193 -6.09784 93.7899L5.89296 91.7675C6.06702 91.7379 6.18395 91.5726 6.15457 91.3985L4.36881 80.8107C4.33944 80.6366 4.17478 80.5188 4.00065 80.548L-7.99015 82.5704C-8.16442 82.5998 -8.28212 82.7653 -8.25273 82.9395L-6.46697 93.5273ZM-10.1332 71.7904C-10.1037 71.9644 -9.93931 72.0814 -9.76518 72.0521L2.22562 70.0297C2.39982 70.0003 2.51763 69.8358 2.48836 69.6616L0.702435 59.0728C0.672895 58.8988 0.507636 58.7818 0.333473 58.8112L-11.6573 60.8336C-11.8314 60.8631 -11.9483 61.0275 -11.9191 61.2016L-10.1332 71.7904ZM-13.7996 50.0525C-13.7702 50.2266 -13.6056 50.3444 -13.4314 50.3152L-1.4406 48.2928C-1.26633 48.2634 -1.14862 48.0979 -1.17802 47.9237L-2.96378 37.3359C-2.99317 37.1616 -3.15863 37.0439 -3.3329 37.0733L-15.3237 39.0957C-15.4978 39.1253 -15.6147 39.2905 -15.5853 39.4647L-13.7996 50.0525ZM-17.4658 28.3155C-17.4363 28.4896 -17.2717 28.6075 -17.0976 28.5783L-5.10681 26.5559C-4.9326 26.5265 -4.81495 26.3609 -4.84423 26.1867L-6.63015 15.598C-6.65971 15.4239 -6.82496 15.307 -6.99912 15.3364L-18.9899 17.3588C-19.1639 17.3883 -19.2809 17.5528 -19.2517 17.7268L-17.4658 28.3155ZM-21.132 6.57858C-21.1024 6.75248 -20.938 6.86953 -20.764 6.84036L-8.77318 4.81796C-8.59907 4.78859 -8.48134 4.6239 -8.51044 4.4498L-10.2964 -6.13893C-10.3258 -6.31316 -10.4912 -6.4309 -10.6655 -6.40151L-22.6563 -4.3791C-22.8304 -4.34955 -22.9473 -4.18432 -22.9179 -4.01014L-21.132 6.57858ZM-24.7984 -15.1593C-24.7689 -14.9852 -24.6043 -14.8674 -24.4302 -14.8966L-12.4394 -16.919C-12.2652 -16.9484 -12.1475 -17.1139 -12.1768 -17.2881L-13.9627 -27.8768C-13.9923 -28.0508 -14.1576 -28.1678 -14.3317 -28.1384L-26.3225 -26.116C-26.4964 -26.0865 -26.6134 -25.922 -26.5843 -25.748L-24.7984 -15.1593ZM-28.4647 -36.8972C-28.4354 -36.7231 -28.2707 -36.6053 -28.0966 -36.6345L-16.1058 -38.6569C-15.9315 -38.6863 -15.8138 -38.8517 -15.8432 -39.026L-17.629 -49.6138C-17.6584 -49.7881 -17.8238 -49.9057 -17.9981 -49.8763L-29.9889 -47.8539C-30.1629 -47.8244 -30.2799 -47.6591 -30.2505 -47.485L-28.4647 -36.8972ZM-32.1309 -58.6341C-32.1016 -58.46 -31.9369 -58.3423 -31.7628 -58.3714L-19.772 -60.3938C-19.5977 -60.4232 -19.48 -60.5886 -19.5094 -60.7629L-21.2952 -71.3507C-21.3246 -71.525 -21.49 -71.6427 -21.6643 -71.6133L-33.6551 -69.5909C-33.8291 -69.5613 -33.9461 -69.396 -33.9167 -69.2219L-32.1309 -58.6341Z" fill="#534B36"/>
<path id="Subtract_2" d="M223.382 -134.906L329.764 495.796L304.522 500.053L198.14 -130.648L223.382 -134.906ZM308.886 487.454C308.916 487.628 309.081 487.746 309.255 487.716L321.246 485.694C321.42 485.664 321.537 485.499 321.508 485.325L319.722 474.737C319.693 474.563 319.528 474.445 319.354 474.474L307.363 476.497C307.189 476.526 307.071 476.692 307.1 476.866L308.886 487.454ZM305.22 465.717C305.249 465.891 305.415 466.009 305.589 465.979L317.58 463.957C317.754 463.927 317.871 463.762 317.841 463.588L316.056 453C316.026 452.826 315.862 452.708 315.688 452.737L303.697 454.76C303.522 454.789 303.405 454.955 303.434 455.129L305.22 465.717ZM301.554 443.979C301.583 444.153 301.748 444.271 301.923 444.241L313.913 442.219C314.088 442.189 314.204 442.024 314.175 441.85L312.389 431.262C312.36 431.088 312.195 430.97 312.021 430.999L300.03 433.022C299.856 433.051 299.738 433.217 299.768 433.391L301.554 443.979ZM297.887 422.242C297.917 422.416 298.081 422.534 298.255 422.505L310.246 420.482C310.421 420.453 310.538 420.287 310.509 420.113L308.723 409.524C308.693 409.35 308.528 409.233 308.354 409.263L296.363 411.285C296.189 411.315 296.072 411.479 296.101 411.653L297.887 422.242ZM294.221 400.504C294.25 400.678 294.415 400.796 294.589 400.767L306.58 398.744C306.754 398.715 306.872 398.549 306.842 398.375L305.057 387.787C305.027 387.613 304.862 387.495 304.688 387.525L292.697 389.547C292.523 389.577 292.406 389.742 292.435 389.916L294.221 400.504ZM290.555 378.767C290.584 378.941 290.749 379.059 290.923 379.03L302.914 377.007C303.088 376.978 303.206 376.812 303.176 376.638L301.39 366.05C301.361 365.876 301.196 365.758 301.021 365.788L289.031 367.81C288.857 367.84 288.74 368.005 288.769 368.179L290.555 378.767ZM286.888 357.029C286.918 357.203 287.082 357.321 287.257 357.292L299.247 355.269C299.422 355.24 299.539 355.075 299.51 354.9L297.724 344.313C297.695 344.138 297.529 344.021 297.355 344.05L285.364 346.072C285.19 346.102 285.073 346.267 285.103 346.441L286.888 357.029ZM283.222 335.292C283.251 335.466 283.416 335.584 283.59 335.555L295.581 333.533C295.755 333.503 295.873 333.338 295.844 333.163L294.058 322.576C294.029 322.401 293.863 322.284 293.689 322.313L281.698 324.335C281.524 324.365 281.407 324.53 281.436 324.704L283.222 335.292ZM279.556 313.555C279.585 313.729 279.75 313.846 279.924 313.817L291.915 311.795C292.089 311.765 292.207 311.601 292.177 311.426L290.392 300.838C290.362 300.664 290.197 300.547 290.023 300.576L278.032 302.599C277.858 302.628 277.741 302.793 277.77 302.967L279.556 313.555ZM275.89 291.817C275.919 291.992 276.084 292.109 276.259 292.08L288.248 290.058C288.423 290.028 288.54 289.863 288.511 289.689L286.725 279.101C286.696 278.927 286.53 278.809 286.356 278.838L274.366 280.86C274.192 280.89 274.074 281.055 274.104 281.23L275.89 291.817ZM272.223 270.08C272.253 270.255 272.418 270.371 272.592 270.342L284.582 268.32C284.756 268.29 284.874 268.126 284.845 267.952L283.059 257.363C283.029 257.189 282.864 257.072 282.69 257.101L270.7 259.124C270.526 259.153 270.408 259.318 270.437 259.492L272.223 270.08ZM268.557 248.343C268.586 248.517 268.752 248.634 268.926 248.605L280.916 246.583C281.09 246.553 281.208 246.388 281.178 246.214L279.393 235.626C279.363 235.452 279.198 235.334 279.024 235.363L267.034 237.386C266.859 237.415 266.742 237.58 266.771 237.755L268.557 248.343ZM264.891 226.606C264.92 226.78 265.086 226.898 265.26 226.868L277.25 224.846C277.424 224.817 277.542 224.651 277.512 224.477L275.726 213.888C275.697 213.714 275.532 213.597 275.357 213.626L263.368 215.649C263.193 215.678 263.076 215.843 263.105 216.017L264.891 226.606ZM261.224 204.868C261.254 205.042 261.419 205.16 261.593 205.13L273.584 203.108C273.758 203.078 273.875 202.913 273.846 202.739L272.06 192.151C272.031 191.977 271.866 191.859 271.692 191.888L259.701 193.911C259.527 193.94 259.409 194.106 259.439 194.28L261.224 204.868ZM257.558 183.131C257.588 183.305 257.753 183.423 257.927 183.393L269.918 181.371C270.092 181.341 270.209 181.176 270.18 181.002L268.394 170.414C268.365 170.24 268.2 170.122 268.026 170.151L256.035 172.174C255.861 172.203 255.743 172.369 255.772 172.543L257.558 183.131ZM253.892 161.393C253.921 161.567 254.087 161.685 254.261 161.655L266.252 159.633C266.426 159.603 266.543 159.438 266.513 159.264L264.728 148.676C264.698 148.502 264.534 148.384 264.359 148.414L252.369 150.436C252.194 150.465 252.077 150.631 252.106 150.805L253.892 161.393ZM250.226 139.656C250.255 139.83 250.42 139.948 250.595 139.918L262.585 137.896C262.76 137.867 262.876 137.701 262.847 137.527L261.061 126.939C261.032 126.765 260.867 126.647 260.693 126.677L248.702 128.699C248.528 128.728 248.41 128.894 248.44 129.068L250.226 139.656ZM246.559 117.919C246.589 118.093 246.754 118.21 246.928 118.181L258.919 116.158C259.093 116.129 259.21 115.964 259.181 115.79L257.395 105.201C257.365 105.027 257.201 104.911 257.027 104.94L245.036 106.962C244.862 106.991 244.744 107.156 244.773 107.33L246.559 117.919ZM242.893 96.1811C242.922 96.3553 243.088 96.473 243.262 96.4437L255.253 94.4212C255.427 94.3917 255.544 94.2265 255.515 94.0523L253.729 83.4645C253.699 83.2903 253.535 83.1726 253.361 83.2018L241.37 85.2242C241.196 85.2536 241.078 85.419 241.107 85.5933L242.893 96.1811ZM239.227 74.4441C239.256 74.6182 239.422 74.7351 239.596 74.7058L251.587 72.6834C251.761 72.6539 251.877 72.4894 251.848 72.3154L250.062 61.7266C250.033 61.5525 249.868 61.4346 249.694 61.4639L237.703 63.4863C237.529 63.5157 237.412 63.6812 237.441 63.8554L239.227 74.4441ZM235.56 52.7062C235.59 52.8805 235.755 52.9982 235.93 52.9688L247.92 50.9464C248.094 50.9169 248.211 50.7517 248.182 50.5775L246.396 39.9897C246.367 39.8155 246.202 39.6977 246.028 39.727L234.037 41.7494C233.863 41.7787 233.745 41.9442 233.775 42.1185L235.56 52.7062ZM231.894 30.9693C231.924 31.1434 232.088 31.2612 232.262 31.232L244.253 29.2096C244.427 29.1803 244.545 29.0147 244.516 28.8405L242.73 18.2518C242.7 18.0777 242.535 17.9608 242.361 17.9902L230.37 20.0126C230.196 20.0421 230.079 20.2065 230.108 20.3806L231.894 30.9693ZM228.228 9.23141C228.257 9.40555 228.422 9.5233 228.596 9.49415L240.587 7.47175C240.761 7.44235 240.879 7.27689 240.849 7.10262L239.064 -3.48514C239.034 -3.65941 238.869 -3.77711 238.694 -3.74772L226.704 -1.72532C226.53 -1.69574 226.413 -1.5305 226.442 -1.35636L228.228 9.23141ZM224.562 -12.5055C224.591 -12.3316 224.756 -12.2146 224.93 -12.2437L236.92 -14.2661C237.095 -14.2955 237.212 -14.4601 237.183 -14.6343L235.397 -25.223C235.368 -25.3971 235.202 -25.514 235.028 -25.4847L223.037 -23.4623C222.863 -23.4327 222.746 -23.2683 222.776 -23.0943L224.562 -12.5055ZM220.895 -34.2425C220.925 -34.0686 221.089 -33.9516 221.263 -33.9807L233.254 -36.0031C233.428 -36.0325 233.546 -36.1971 233.517 -36.3712L231.731 -46.96C231.702 -47.1342 231.536 -47.2519 231.362 -47.2226L219.371 -45.2001C219.197 -45.1706 219.08 -45.0053 219.109 -44.8312L220.895 -34.2425ZM217.229 -55.9804C217.258 -55.8061 217.424 -55.6884 217.598 -55.7178L229.588 -57.74C229.762 -57.7694 229.88 -57.9349 229.851 -58.1091L228.065 -68.6979C228.035 -68.8719 227.87 -68.9889 227.696 -68.9595L215.706 -66.9372C215.532 -66.9079 215.414 -66.7432 215.443 -66.5691L217.229 -55.9804ZM213.563 -77.7173C213.592 -77.5433 213.758 -77.4263 213.932 -77.4557L225.922 -79.4779C226.096 -79.5073 226.213 -79.672 226.184 -79.8461L224.398 -90.4348C224.369 -90.609 224.204 -90.7268 224.029 -90.6974L212.039 -88.6751C211.865 -88.6458 211.747 -88.4803 211.777 -88.306L213.563 -77.7173ZM209.896 -99.4552C209.926 -99.2809 210.091 -99.1632 210.266 -99.1926L222.255 -101.215C222.43 -101.244 222.547 -101.41 222.518 -101.584L220.732 -112.172C220.703 -112.346 220.537 -112.464 220.363 -112.434L208.373 -110.412C208.199 -110.383 208.081 -110.217 208.111 -110.043L209.896 -99.4552Z" fill="#534B36"/>
<path id="Subtract_3" d="M465.413 -175.727L571.796 454.974L546.554 459.232L440.171 -171.469L465.413 -175.727ZM550.918 446.633C550.947 446.807 551.112 446.924 551.286 446.895L563.276 444.873C563.45 444.843 563.568 444.679 563.539 444.504L561.753 433.916C561.724 433.742 561.558 433.624 561.384 433.653L549.394 435.675C549.22 435.705 549.102 435.87 549.132 436.045L550.918 446.633ZM547.251 424.895C547.281 425.07 547.446 425.187 547.62 425.158L559.61 423.136C559.784 423.106 559.902 422.941 559.873 422.767L558.087 412.179C558.058 412.005 557.892 411.887 557.718 411.916L545.728 413.938C545.554 413.968 545.436 414.133 545.465 414.308L547.251 424.895ZM543.585 403.158C543.615 403.332 543.78 403.449 543.954 403.42L555.945 401.398C556.119 401.368 556.236 401.204 556.206 401.03L554.421 390.441C554.391 390.267 554.226 390.149 554.052 390.178L542.062 392.201C541.887 392.23 541.77 392.395 541.799 392.57L543.585 403.158ZM539.918 381.421C539.947 381.595 540.112 381.713 540.287 381.683L552.278 379.661C552.452 379.631 552.569 379.466 552.54 379.292L550.754 368.704C550.725 368.53 550.559 368.412 550.385 368.441L538.394 370.464C538.22 370.493 538.102 370.659 538.132 370.833L539.918 381.421ZM536.251 359.684C536.281 359.858 536.446 359.975 536.62 359.945L548.611 357.923C548.785 357.894 548.903 357.729 548.874 357.555L547.088 346.966C547.058 346.792 546.893 346.675 546.719 346.704L534.728 348.727C534.554 348.756 534.436 348.921 534.465 349.095L536.251 359.684ZM532.585 337.946C532.614 338.12 532.78 338.238 532.954 338.208L544.945 336.186C545.119 336.157 545.237 335.991 545.208 335.817L543.422 325.229C543.392 325.055 543.227 324.937 543.053 324.967L531.062 326.989C530.888 327.018 530.77 327.184 530.799 327.358L532.585 337.946ZM528.92 316.209C528.949 316.383 529.114 316.5 529.288 316.471L541.279 314.448C541.453 314.419 541.57 314.254 541.541 314.08L539.755 303.491C539.726 303.317 539.561 303.2 539.386 303.23L527.396 305.252C527.222 305.282 527.105 305.446 527.134 305.62L528.92 316.209ZM525.253 294.471C525.283 294.645 525.447 294.763 525.622 294.734L537.612 292.711C537.787 292.682 537.904 292.516 537.875 292.342L536.089 281.754C536.06 281.58 535.894 281.462 535.72 281.492L523.729 283.514C523.555 283.544 523.438 283.709 523.468 283.883L525.253 294.471ZM521.587 272.734C521.617 272.908 521.781 273.026 521.955 272.997L533.946 270.974C534.12 270.945 534.238 270.779 534.209 270.605L532.423 260.017C532.394 259.843 532.228 259.725 532.054 259.755L520.063 261.777C519.889 261.807 519.772 261.972 519.801 262.146L521.587 272.734ZM517.921 250.996C517.95 251.17 518.115 251.288 518.289 251.259L530.28 249.236C530.454 249.207 530.572 249.042 530.542 248.867L528.757 238.279C528.727 238.105 528.562 237.988 528.387 238.017L516.397 240.039C516.223 240.069 516.106 240.234 516.135 240.408L517.921 250.996ZM514.255 229.259C514.284 229.433 514.449 229.551 514.623 229.522L526.614 227.499C526.788 227.47 526.906 227.305 526.876 227.13L525.09 216.543C525.061 216.368 524.895 216.251 524.721 216.28L512.73 218.302C512.556 218.332 512.439 218.497 512.469 218.671L514.255 229.259ZM510.588 207.522C510.618 207.696 510.782 207.813 510.956 207.784L522.947 205.762C523.121 205.732 523.239 205.568 523.21 205.393L521.424 194.805C521.394 194.63 521.229 194.514 521.055 194.543L509.064 196.565C508.89 196.595 508.773 196.759 508.802 196.933L510.588 207.522ZM506.922 185.784C506.951 185.958 507.116 186.076 507.29 186.047L519.281 184.025C519.455 183.995 519.573 183.83 519.544 183.655L517.758 173.068C517.728 172.893 517.563 172.776 517.389 172.805L505.398 174.828C505.224 174.857 505.107 175.022 505.136 175.196L506.922 185.784ZM503.256 164.047C503.285 164.221 503.45 164.338 503.624 164.309L515.615 162.287C515.789 162.257 515.906 162.093 515.877 161.919L514.091 151.33C514.062 151.156 513.896 151.038 513.722 151.067L501.731 153.09C501.557 153.119 501.441 153.285 501.47 153.459L503.256 164.047ZM499.589 142.309C499.619 142.484 499.783 142.601 499.958 142.572L511.948 140.55C512.123 140.52 512.24 140.355 512.211 140.181L510.425 129.593C510.396 129.419 510.23 129.301 510.056 129.33L498.065 131.353C497.891 131.382 497.774 131.548 497.804 131.722L499.589 142.309ZM495.923 120.572C495.953 120.747 496.118 120.863 496.292 120.834L508.282 118.812C508.456 118.782 508.574 118.618 508.545 118.444L506.759 107.855C506.729 107.681 506.564 107.564 506.39 107.593L494.4 109.616C494.226 109.645 494.108 109.81 494.137 109.984L495.923 120.572ZM492.257 98.8346C492.286 99.0089 492.452 99.1266 492.626 99.0972L504.616 97.0749C504.79 97.0455 504.908 96.8801 504.878 96.7058L503.093 86.1181C503.063 85.9438 502.898 85.8261 502.723 85.8555L490.734 87.8777C490.559 87.9071 490.442 88.0726 490.471 88.2468L492.257 98.8346ZM488.591 77.0977C488.62 77.2719 488.785 77.3896 488.96 77.3602L500.95 75.338C501.124 75.3086 501.242 75.1431 501.212 74.9689L499.426 64.3811C499.397 64.2069 499.232 64.0891 499.057 64.1185L487.067 66.1408C486.893 66.1702 486.775 66.3356 486.805 66.5099L488.591 77.0977ZM484.924 55.3598C484.954 55.534 485.119 55.6517 485.293 55.6223L497.283 53.6001C497.457 53.5707 497.575 53.4052 497.546 53.231L495.76 42.6432C495.731 42.469 495.565 42.3512 495.391 42.3806L483.401 44.4029C483.227 44.4323 483.109 44.5977 483.138 44.772L484.924 55.3598ZM481.258 33.6228C481.287 33.797 481.453 33.9148 481.627 33.8854L493.618 31.863C493.792 31.8334 493.909 31.6681 493.88 31.494L492.094 20.9053C492.064 20.7314 491.9 20.6145 491.726 20.6435L479.735 22.6659C479.561 22.6953 479.443 22.86 479.472 23.0341L481.258 33.6228ZM477.592 11.8859C477.621 12.0599 477.787 12.1769 477.961 12.1475L489.952 10.1251C490.125 10.0955 490.242 9.93106 490.213 9.75711L488.427 -0.831613C488.398 -1.00569 488.233 -1.12347 488.059 -1.09435L476.068 0.928048C475.894 0.957437 475.777 1.12293 475.806 1.29717L477.592 11.8859ZM473.924 -9.85184C473.954 -9.6776 474.119 -9.55993 474.294 -9.58926L486.284 -11.6117C486.459 -11.6411 486.576 -11.8065 486.547 -11.9808L484.761 -22.5685C484.732 -22.7428 484.566 -22.8605 484.392 -22.8311L472.401 -20.8087C472.227 -20.7793 472.109 -20.6138 472.139 -20.4396L473.924 -9.85184ZM470.259 -31.5899C470.288 -31.4157 470.453 -31.2979 470.627 -31.3272L482.618 -33.3496C482.792 -33.3789 482.91 -33.5444 482.881 -33.7187L481.095 -44.3064C481.065 -44.4807 480.9 -44.5984 480.726 -44.569L468.735 -42.5466C468.561 -42.5172 468.444 -42.3519 468.473 -42.1777L470.259 -31.5899ZM466.593 -53.3268C466.622 -53.1527 466.787 -53.0348 466.961 -53.0641L478.952 -55.0865C479.126 -55.1159 479.244 -55.2813 479.214 -55.4556L477.429 -66.0434C477.399 -66.2177 477.234 -66.3354 477.059 -66.306L465.069 -64.2836C464.895 -64.2541 464.778 -64.0888 464.807 -63.9146L466.593 -53.3268ZM462.927 -75.0638C462.956 -74.8897 463.12 -74.7727 463.295 -74.802L475.285 -76.8244C475.46 -76.8538 475.577 -77.0184 475.548 -77.1925L473.762 -87.7813C473.733 -87.9554 473.567 -88.0723 473.393 -88.0429L461.402 -86.0205C461.228 -85.991 461.111 -85.8266 461.141 -85.6525L462.927 -75.0638ZM459.26 -96.8017C459.29 -96.6275 459.454 -96.5097 459.628 -96.5389L471.619 -98.5613C471.793 -98.5907 471.911 -98.7562 471.882 -98.9304L470.096 -109.518C470.067 -109.693 469.901 -109.81 469.727 -109.781L457.736 -107.758C457.562 -107.729 457.445 -107.564 457.474 -107.389L459.26 -96.8017ZM455.594 -118.539C455.624 -118.365 455.788 -118.248 455.962 -118.277L467.953 -120.299C468.127 -120.329 468.245 -120.493 468.216 -120.667L466.43 -131.256C466.4 -131.43 466.235 -131.547 466.061 -131.518L454.07 -129.495C453.896 -129.466 453.779 -129.301 453.808 -129.127L455.594 -118.539ZM451.928 -140.276C451.957 -140.102 452.122 -139.985 452.296 -140.014L464.287 -142.036C464.461 -142.066 464.579 -142.231 464.549 -142.405L462.763 -152.993C462.734 -153.167 462.569 -153.285 462.394 -153.256L450.403 -151.233C450.229 -151.204 450.113 -151.038 450.142 -150.864L451.928 -140.276Z" fill="#534B36"/>
<path id="Subtract_4" d="M708.093 -216.405L814.475 414.296L789.233 418.554L682.85 -212.147L708.093 -216.405ZM793.597 405.954C793.626 406.129 793.792 406.246 793.966 406.217L805.957 404.195C806.131 404.165 806.248 404 806.219 403.826L804.433 393.238C804.403 393.064 804.239 392.946 804.065 392.975L792.074 394.997C791.9 395.027 791.782 395.192 791.811 395.367L793.597 405.954ZM789.931 384.217C789.96 384.392 790.126 384.509 790.3 384.48L802.291 382.458C802.465 382.428 802.582 382.263 802.552 382.089L800.767 371.501C800.737 371.327 800.573 371.209 800.398 371.238L788.408 373.261C788.233 373.29 788.116 373.455 788.145 373.63L789.931 384.217ZM786.264 362.48C786.294 362.654 786.459 362.771 786.634 362.742L798.624 360.72C798.799 360.69 798.915 360.525 798.886 360.351L797.1 349.763C797.071 349.589 796.906 349.471 796.732 349.5L784.741 351.523C784.567 351.552 784.449 351.717 784.479 351.892L786.264 362.48ZM782.598 340.743C782.628 340.917 782.792 341.035 782.966 341.005L794.957 338.983C795.131 338.954 795.249 338.788 795.22 338.614L793.434 328.026C793.405 327.852 793.239 327.734 793.065 327.763L781.074 329.786C780.9 329.815 780.783 329.981 780.812 330.155L782.598 340.743ZM778.932 319.006C778.962 319.18 779.126 319.297 779.3 319.267L791.291 317.245C791.465 317.216 791.583 317.051 791.554 316.877L789.768 306.288C789.738 306.114 789.573 305.996 789.399 306.026L777.408 308.048C777.234 308.078 777.117 308.243 777.146 308.417L778.932 319.006ZM775.266 297.268C775.295 297.442 775.46 297.56 775.634 297.53L787.625 295.508C787.799 295.479 787.917 295.313 787.887 295.139L786.101 284.551C786.072 284.377 785.907 284.259 785.732 284.289L773.742 286.311C773.567 286.341 773.451 286.506 773.48 286.68L775.266 297.268ZM771.599 275.531C771.629 275.705 771.793 275.822 771.967 275.793L783.958 273.77C784.132 273.741 784.25 273.576 784.221 273.402L782.435 262.813C782.406 262.639 782.24 262.521 782.066 262.551L770.075 264.573C769.901 264.603 769.784 264.768 769.814 264.942L771.599 275.531ZM767.933 253.793C767.962 253.967 768.127 254.085 768.301 254.056L780.292 252.033C780.466 252.004 780.584 251.838 780.555 251.664L778.769 241.076C778.739 240.902 778.574 240.784 778.4 240.814L766.409 242.836C766.235 242.866 766.118 243.031 766.147 243.205L767.933 253.793ZM764.267 232.056C764.296 232.23 764.462 232.348 764.636 232.319L776.626 230.296C776.8 230.267 776.918 230.101 776.888 229.927L775.102 219.338C775.073 219.164 774.908 219.047 774.734 219.077L762.744 221.099C762.57 221.128 762.452 221.293 762.481 221.467L764.267 232.056ZM760.6 210.318C760.63 210.492 760.795 210.61 760.97 210.581L772.959 208.558C773.134 208.529 773.251 208.364 773.222 208.189L771.436 197.602C771.407 197.427 771.241 197.31 771.067 197.339L759.077 199.361C758.903 199.391 758.785 199.556 758.815 199.73L760.6 210.318ZM756.934 188.581C756.964 188.755 757.129 188.873 757.303 188.844L769.293 186.821C769.467 186.792 769.585 186.627 769.556 186.452L767.77 175.864C767.74 175.69 767.575 175.573 767.401 175.602L755.411 177.624C755.237 177.654 755.119 177.818 755.148 177.992L756.934 188.581ZM753.268 166.844C753.298 167.018 753.463 167.135 753.637 167.106L765.627 165.084C765.801 165.054 765.919 164.89 765.89 164.715L764.104 154.127C764.074 153.952 763.909 153.835 763.735 153.864L751.745 155.886C751.57 155.916 751.453 156.081 751.482 156.255L753.268 166.844ZM749.602 145.106C749.631 145.281 749.797 145.398 749.971 145.369L761.962 143.346C762.136 143.317 762.253 143.152 762.223 142.978L760.437 132.389C760.408 132.215 760.243 132.098 760.069 132.127L748.078 134.149C747.904 134.179 747.787 134.343 747.816 134.518L749.602 145.106ZM745.935 123.369C745.965 123.543 746.13 123.66 746.304 123.631L758.295 121.609C758.469 121.579 758.586 121.415 758.557 121.241L756.771 110.652C756.742 110.478 756.577 110.36 756.403 110.389L744.412 112.412C744.238 112.441 744.12 112.606 744.15 112.781L745.935 123.369ZM742.269 101.631C742.298 101.806 742.464 101.923 742.638 101.894L754.629 99.8717C754.803 99.8421 754.92 99.6768 754.891 99.5027L753.105 88.9149C753.075 88.7408 752.911 88.6231 752.737 88.6522L740.746 90.6746C740.572 90.704 740.454 90.8695 740.483 91.0437L742.269 101.631ZM738.603 79.8945C738.632 80.0686 738.798 80.1855 738.972 80.1562L750.963 78.1338C751.137 78.1042 751.254 77.9397 751.224 77.7658L749.438 67.177C749.409 67.0029 749.244 66.8851 749.07 66.9143L737.08 68.9367C736.905 68.9661 736.788 69.1316 736.817 69.3058L738.603 79.8945ZM734.936 58.1567C734.966 58.3309 735.131 58.4486 735.306 58.4192L747.296 56.3968C747.471 56.3673 747.587 56.202 747.558 56.0279L745.772 45.4401C745.743 45.266 745.578 45.1482 745.404 45.1774L733.413 47.1998C733.239 47.2292 733.121 47.3946 733.151 47.5689L734.936 58.1567ZM731.27 36.4197C731.3 36.5939 731.465 36.7117 731.639 36.6823L743.63 34.6599C743.804 34.6304 743.921 34.465 743.892 34.2909L742.106 23.7022C742.076 23.5282 741.912 23.4113 741.738 23.4404L729.747 25.4628C729.573 25.4922 729.455 25.6569 729.484 25.831L731.27 36.4197ZM727.604 14.6818C727.633 14.8561 727.799 14.9738 727.973 14.9444L739.964 12.922C740.138 12.8925 740.255 12.7272 740.225 12.553L738.44 1.96527C738.41 1.79107 738.246 1.67328 738.072 1.70253L726.081 3.72493C725.906 3.75433 725.789 3.91979 725.818 4.09406L727.604 14.6818ZM723.938 -7.05511C723.967 -6.88096 724.132 -6.76412 724.307 -6.7935L736.297 -8.8159C736.472 -8.84539 736.588 -9.00977 736.559 -9.1839L734.773 -19.7726C734.744 -19.9467 734.579 -20.0636 734.405 -20.0344L722.415 -18.012C722.24 -17.9826 722.123 -17.818 722.152 -17.6438L723.938 -7.05511ZM720.271 -28.793C720.301 -28.6187 720.466 -28.501 720.64 -28.5304L732.631 -30.5528C732.805 -30.5823 732.922 -30.7476 732.893 -30.9218L731.107 -41.5096C731.078 -41.6838 730.913 -41.8016 730.739 -41.7723L718.748 -39.7499C718.574 -39.7205 718.456 -39.555 718.486 -39.3808L720.271 -28.793ZM716.605 -50.5299C716.634 -50.3558 716.799 -50.2381 716.973 -50.2672L728.964 -52.2896C729.138 -52.319 729.256 -52.4845 729.227 -52.6587L727.441 -63.2465C727.411 -63.4208 727.246 -63.5385 727.072 -63.5091L715.081 -61.4867C714.907 -61.4571 714.79 -61.2919 714.819 -61.1177L716.605 -50.5299ZM712.939 -72.2678C712.968 -72.0937 713.133 -71.976 713.307 -72.0051L725.298 -74.0275C725.472 -74.0569 725.59 -74.2224 725.56 -74.3966L723.775 -84.9844C723.745 -85.1587 723.58 -85.2764 723.405 -85.247L711.415 -83.2246C711.241 -83.195 711.124 -83.0297 711.153 -82.8556L712.939 -72.2678ZM709.273 -94.0048C709.302 -93.8307 709.467 -93.7129 709.641 -93.742L721.631 -95.7644C721.806 -95.7938 721.923 -95.9593 721.894 -96.1336L720.108 -106.722C720.079 -106.896 719.913 -107.013 719.739 -106.984L707.748 -104.962C707.574 -104.932 707.457 -104.767 707.487 -104.594L709.273 -94.0048ZM705.606 -115.742C705.636 -115.568 705.8 -115.451 705.974 -115.48L717.965 -117.502C718.139 -117.532 718.257 -117.696 718.228 -117.87L716.442 -128.459C716.412 -128.633 716.247 -128.751 716.073 -128.722L704.082 -126.699C703.908 -126.67 703.791 -126.505 703.82 -126.33L705.606 -115.742ZM701.94 -137.48C701.969 -137.305 702.135 -137.188 702.309 -137.217L714.299 -139.239C714.473 -139.269 714.591 -139.434 714.561 -139.608L712.776 -150.196C712.746 -150.37 712.581 -150.488 712.407 -150.459L700.417 -148.436C700.242 -148.407 700.125 -148.242 700.154 -148.067L701.94 -137.48ZM698.274 -159.217C698.303 -159.042 698.469 -158.926 698.643 -158.955L710.633 -160.977C710.807 -161.007 710.924 -161.171 710.895 -161.345L709.109 -171.934C709.08 -172.108 708.914 -172.226 708.74 -172.197L696.75 -170.174C696.576 -170.145 696.458 -169.979 696.488 -169.805L698.274 -159.217ZM694.607 -180.954C694.637 -180.78 694.802 -180.662 694.976 -180.692L706.966 -182.714C707.141 -182.743 707.258 -182.909 707.229 -183.083L705.443 -193.671C705.414 -193.845 705.248 -193.963 705.074 -193.934L693.084 -191.911C692.91 -191.882 692.792 -191.717 692.822 -191.542L694.607 -180.954Z" fill="#534B36"/>
</g>
</g>
</g>
<g id="Group 1171275162" opacity="0.2">
<g id="Group 1171275160">
<path id="Vector 769" d="M673.815 129.392C652.765 110.964 632.548 99.5718 604.69 105.167C576.833 110.763 528.976 132.291 534.472 191.468C539.968 250.646 577.323 240.757 607.206 239.754C637.089 238.751 637.793 226.97 664.108 223.429C690.424 219.887 706.603 201.459 710.271 180.656C713.939 159.853 694.865 147.82 673.815 129.392Z" fill="#99C8FF" stroke="#40363B" stroke-width="1.536"/>
<path id="Vector 773" d="M579.285 127.394C581.835 130.104 587.93 138.226 591.907 149.038" stroke="#40363B" stroke-width="1.536" stroke-linecap="round"/>
</g>
<g id="Group 1171275161">
<path id="Vector 770" d="M754.691 227.032C762.84 233.402 754.329 270.709 736.852 273.656C719.375 276.603 721.112 256.451 729.055 257.447C734.319 258.107 754.628 239.575 747.193 235.695C738.271 231.039 730.438 245.53 714.139 237.625C709.331 235.293 703.156 223.218 700.888 218.504C700.312 217.305 700.324 215.922 700.883 214.715C702.488 211.251 707.127 211.263 708.638 214.768C710.786 219.749 713.277 225.134 716.443 228.764C724.518 238.025 746.542 220.662 754.691 227.032Z" fill="#191816" stroke="#40363B" stroke-width="1.536"/>
<path id="Vector 783" d="M746.36 281.558C753.216 279.654 763.676 271.999 765.219 257.744" stroke="#80737A" stroke-width="1.536" stroke-linecap="round"/>
<path id="Vector 784" d="M768.581 267.045C771.327 264.25 773.232 256.978 770.042 249.755" stroke="#80737A" stroke-width="1.536" stroke-linecap="round"/>
</g>
<path id="Vector 771" d="M645.96 187.466C663.096 174.707 680.952 172.578 696.988 178.86C708.025 183.183 723.108 201.14 723.523 213.856C723.83 223.224 714.302 220.345 711.984 225.222C712.079 236.419 705.888 242.013 697.844 245.1C690.755 247.82 676.473 248.704 667.877 240.286C639.16 236.302 615.018 211.61 611.448 200.912C606.914 187.329 635.969 212.924 645.96 187.466Z" fill="#191816"/>
<path id="Union" d="M718.207 179C713.824 172.072 724.506 163.585 729.26 170.854C733.062 176.667 730.483 178.622 730.454 184.632C734.683 189.067 736.965 195.792 736.065 202.961C734.594 214.686 725.175 223.158 715.027 221.885C704.879 220.612 697.845 210.075 699.316 198.351C700.691 187.389 709.015 179.269 718.386 179.301C718.328 179.199 718.269 179.098 718.207 179Z" fill="#191816"/>
<path id="Vector 774" d="M684.754 192.972C669.457 198.128 685.419 162.953 685.416 162.954C689.475 156.082 696.409 163.165 697.931 166.002C699.453 168.839 705.118 180.775 701.144 185.054C697.17 189.334 689.141 191.494 684.754 192.972Z" fill="#191816"/>
<path id="Vector 772" d="M645.939 187.468C663.074 174.709 686.688 171.608 702.724 177.891C720.333 184.791 723.086 201.142 723.502 213.858C723.809 223.226 714.28 220.348 711.963 225.224C712.058 236.421 705.867 242.015 697.823 245.102C690.734 247.822 676.452 248.706 667.856 240.288C639.139 236.305 615.081 212.046 611.511 201.349C606.977 187.766 638.738 216.044 645.939 187.468Z" stroke="#40363B" stroke-width="1.536"/>
<path id="Vector 779" d="M701.151 185.081C697.212 189.372 690.521 185.835 690.521 185.835C690.521 185.835 687.75 184.748 687.904 179.541C688.755 176.337 688.892 173.421 688.282 170.46C687.758 167.908 686.679 165.322 685.028 162.487C689.045 155.593 696.405 163.089 697.922 165.941C699.439 168.793 705.089 180.791 701.151 185.081Z" fill="#191816"/>
<path id="Vector 777" d="M688.236 169.127C691.618 173.221 687.794 176.441 688.814 182.486C689.578 187.019 697.849 189.868 701.166 185.08C704.836 179.783 699.454 168.793 697.938 165.94C695.155 160.705 689.435 155.458 685.418 162.352C684.665 164.033 682.693 168.924 680.824 175.041" stroke="#40363B" stroke-width="1.536" stroke-linecap="round"/>
<g id="Group 1171275155">
<path id="Vector 756" d="M630.706 246.107C627.881 229.359 619.927 212.341 616.304 205.925C616.304 205.925 606.809 184.202 617.948 191.743C629.088 199.283 631.946 210.912 631.946 210.912C641.709 220.927 648.254 239.79 648.813 247.09C649.559 256.832 634.237 267.041 630.706 246.107Z" fill="#191816"/>
<path id="Vector 755" d="M631.947 210.911C641.709 220.927 648.582 239.772 648.813 247.09C649.123 256.905 634.237 267.041 630.706 246.107C627.881 229.359 619.927 212.34 616.304 205.925C615.064 203.891 612.595 198.297 612.641 192.189" stroke="#40363B" stroke-width="1.536" stroke-linecap="round"/>
</g>
<g id="Group 1171275156">
<g id="Group 1171275149">
<path id="Vector 752" d="M636.686 96.3154C642.707 89.4688 656.436 118.659 657.405 128.703C642.393 130.88 605.863 128.966 611.878 124.72C619.397 119.412 630.665 103.162 636.686 96.3154Z" fill="#191816" stroke="#40363B" stroke-width="0.768"/>
<path id="Vector 753" d="M640.716 121.969C643.448 121.149 643.095 112.148 642.287 107.35C641.479 102.553 648.939 125.516 647.263 123.556C645.587 121.596 637.3 122.993 640.716 121.969Z" fill="#DA99B8" stroke="#40363B" stroke-width="0.768"/>
</g>
<g id="Union_2">
<path d="M597.573 127.002C615.512 116.351 646.405 110.691 665.862 132.976C683.838 141.158 689.376 147.401 686.066 165.004C682.755 182.607 646.196 207.612 613.687 203.676C597.424 201.706 580.146 184.52 578.933 170.514C578.866 169.744 578.816 168.978 578.78 168.22C561.741 167.641 553.638 159.024 559.561 154.046C570.998 144.433 578.767 137.529 587.316 136.714C590.329 132.414 593.887 129.092 597.573 127.002Z" fill="#191816"/>
<path d="M597.573 127.002L597.952 127.67L597.958 127.666L597.965 127.662L597.573 127.002ZM665.862 132.976L665.284 133.482L665.393 133.607L665.544 133.675L665.862 132.976ZM686.066 165.004L686.821 165.146L686.066 165.004ZM613.687 203.676L613.594 204.438L613.687 203.676ZM578.933 170.514L578.168 170.581L578.168 170.581L578.933 170.514ZM578.78 168.22L579.548 168.184L579.514 167.476L578.806 167.452L578.78 168.22ZM559.561 154.046L559.067 153.458L559.067 153.458L559.561 154.046ZM587.316 136.714L587.389 137.478L587.741 137.445L587.945 137.155L587.316 136.714ZM597.573 127.002L597.965 127.662C606.833 122.397 618.907 118.367 631.146 118.406C643.366 118.445 655.727 122.536 665.284 133.482L665.862 132.976L666.441 132.471C656.54 121.132 643.726 116.91 631.151 116.87C618.594 116.83 606.252 120.956 597.181 126.341L597.573 127.002ZM665.862 132.976L665.544 133.675C674.532 137.766 680.224 141.299 683.309 145.886C686.361 150.423 686.952 156.139 685.311 164.862L686.066 165.004L686.821 165.146C688.491 156.266 687.968 150.059 684.584 145.028C681.234 140.048 675.168 136.368 666.18 132.277L665.862 132.976ZM686.066 165.004L685.311 164.862C684.521 169.062 681.721 173.798 677.368 178.504C673.026 183.199 667.192 187.806 660.438 191.754C646.919 199.656 629.82 204.855 613.779 202.913L613.687 203.676L613.594 204.438C630.062 206.432 647.498 201.097 661.213 193.08C668.077 189.068 674.035 184.37 678.495 179.547C682.944 174.738 685.955 169.747 686.821 165.146L686.066 165.004ZM613.687 203.676L613.779 202.913C605.862 201.955 597.624 197.272 591.2 191.057C584.768 184.833 580.282 177.197 579.698 170.448L578.933 170.514L578.168 170.581C578.796 177.838 583.556 185.797 590.132 192.161C596.717 198.532 605.249 203.428 613.594 204.438L613.687 203.676ZM578.933 170.514L579.698 170.448C579.632 169.688 579.583 168.933 579.548 168.184L578.78 168.22L578.013 168.256C578.049 169.024 578.1 169.799 578.168 170.581L578.933 170.514ZM578.78 168.22L578.806 167.452C570.388 167.166 564.291 164.895 561.052 162.193C559.431 160.841 558.591 159.439 558.431 158.182C558.276 156.969 558.737 155.741 560.055 154.634L559.561 154.046L559.067 153.458C557.423 154.84 556.676 156.556 556.907 158.376C557.133 160.154 558.274 161.876 560.068 163.372C563.659 166.368 570.133 168.695 578.754 168.987L578.78 168.22ZM559.561 154.046L560.055 154.634C565.79 149.813 570.554 145.717 574.954 142.715C579.348 139.718 583.3 137.868 587.389 137.478L587.316 136.714L587.243 135.949C582.783 136.375 578.577 138.385 574.089 141.446C569.608 144.503 564.768 148.666 559.067 153.458L559.561 154.046ZM587.316 136.714L587.945 137.155C590.904 132.931 594.382 129.694 597.952 127.67L597.573 127.002L597.194 126.334C593.393 128.489 589.754 131.896 586.687 136.273L587.316 136.714Z" fill="#40363B"/>
</g>
<g id="Group 1171275151">
<path id="Ellipse 515" d="M661.432 154.357C667.602 153.709 671.605 150.847 670.428 143.869C669.251 136.891 659.939 134.873 656.014 135.535C648.6 136.785 647.738 142.313 648.253 145.366C649.066 150.183 655.261 155.005 661.432 154.357Z" fill="#FFF8E8"/>
<path id="Ellipse 517" d="M663.262 154.021C667.763 153.556 670.675 151.429 669.795 146.208C668.914 140.987 662.112 139.45 659.25 139.933C653.843 140.845 653.231 144.975 653.616 147.259C654.224 150.863 658.76 154.487 663.262 154.021Z" fill="#FFC44D"/>
<path id="Ellipse 518" d="M661.432 154.357C667.602 153.709 671.605 150.847 670.428 143.869C669.251 136.891 659.939 134.873 656.014 135.535C648.6 136.785 647.738 142.313 648.253 145.366C649.066 150.183 655.261 155.005 661.432 154.357Z" stroke="#40363B" stroke-width="0.768"/>
</g>
<g id="Group 1171275150">
<path id="Ellipse 514" d="M635.277 163.84C637.055 171.38 633.422 176.893 625.533 178.223C617.645 179.554 610.033 173.51 609.146 168.247C607.539 158.718 613.031 155.342 618.477 154.423C623.922 153.505 633.498 156.3 635.277 163.84Z" fill="#FFF8E8"/>
<path id="Ellipse 516" d="M634.66 166.487C635.92 171.703 634.437 175.27 628.521 176.268C622.604 177.266 617.477 173.132 616.863 169.489C615.75 162.892 619.605 159.858 623.69 159.169C627.774 158.48 633.4 161.272 634.66 166.487Z" fill="#FFC44D"/>
<path id="Ellipse 519" d="M635.277 163.84C637.055 171.38 633.422 176.893 625.533 178.223C617.645 179.554 610.033 173.51 609.146 168.247C607.539 158.718 613.031 155.342 618.477 154.423C623.922 153.505 633.498 156.3 635.277 163.84Z" stroke="#40363B" stroke-width="0.768"/>
</g>
<path id="Ellipse 458" d="M652.009 157.624C652.701 158.435 652.156 161.884 650.792 163.011C649.429 164.138 645.882 164.071 645.19 163.26C644.498 162.449 645.464 160.53 647.347 158.974C649.23 157.418 651.317 156.814 652.009 157.624Z" fill="#DA99B8" stroke="#40363B" stroke-width="0.768"/>
<g id="Vector 754">
<path d="M582.983 159.962C571.784 160.056 562.519 160.948 569.391 161.807C576.264 162.665 580.01 163.603 580.01 163.603C580.01 163.603 580.44 160.839 582.983 159.962Z" fill="#DA99B8"/>
<path d="M582.983 159.962L583.109 160.325C583.286 160.264 583.394 160.082 583.362 159.897C583.33 159.711 583.168 159.576 582.98 159.578L582.983 159.962ZM580.01 163.603L579.916 163.976L580.324 164.078L580.389 163.662L580.01 163.603ZM569.391 161.807L569.439 161.425C568.584 161.319 568 161.213 567.646 161.115C567.463 161.064 567.373 161.023 567.34 161.002C567.323 160.991 567.352 161.004 567.38 161.052C567.418 161.116 567.435 161.211 567.4 161.304C567.386 161.342 567.368 161.367 567.356 161.38C567.35 161.387 567.345 161.392 567.342 161.395C567.339 161.398 567.337 161.4 567.337 161.4C567.336 161.4 567.341 161.397 567.351 161.391C567.362 161.385 567.377 161.378 567.396 161.369C567.48 161.333 567.614 161.29 567.807 161.244C568.19 161.153 568.747 161.064 569.456 160.979C572.292 160.639 577.391 160.393 582.987 160.346L582.983 159.962L582.98 159.578C577.376 159.625 572.243 159.872 569.365 160.216C568.646 160.302 568.056 160.396 567.63 160.497C567.419 160.547 567.234 160.602 567.089 160.665C567.017 160.697 566.942 160.736 566.876 160.786C566.814 160.832 566.727 160.912 566.681 161.034C566.627 161.179 566.65 161.325 566.719 161.442C566.777 161.542 566.862 161.608 566.927 161.649C567.06 161.733 567.24 161.799 567.44 161.854C567.851 161.969 568.481 162.08 569.344 162.188L569.391 161.807ZM582.983 159.962L582.858 159.599C581.467 160.079 580.659 161.075 580.204 161.931C579.976 162.36 579.834 162.758 579.748 163.05C579.705 163.196 579.676 163.316 579.658 163.402C579.648 163.444 579.642 163.478 579.637 163.502C579.635 163.514 579.633 163.524 579.632 163.531C579.632 163.535 579.631 163.537 579.631 163.54C579.631 163.541 579.631 163.542 579.63 163.542C579.63 163.543 579.63 163.543 579.63 163.543C579.63 163.544 579.63 163.544 579.63 163.544C579.63 163.544 579.63 163.544 580.01 163.603C580.389 163.662 580.389 163.663 580.389 163.663C580.389 163.663 580.389 163.663 580.389 163.663C580.389 163.663 580.389 163.663 580.389 163.663C580.389 163.663 580.389 163.663 580.389 163.663C580.389 163.662 580.389 163.661 580.389 163.66C580.39 163.656 580.391 163.65 580.393 163.642C580.396 163.625 580.401 163.599 580.408 163.564C580.423 163.495 580.448 163.392 580.485 163.266C580.56 163.012 580.684 162.664 580.882 162.292C581.278 161.547 581.957 160.722 583.109 160.325L582.983 159.962ZM580.01 163.603C580.103 163.231 580.103 163.231 580.103 163.231C580.103 163.231 580.103 163.231 580.102 163.231C580.102 163.231 580.102 163.231 580.102 163.231C580.101 163.23 580.1 163.23 580.099 163.23C580.097 163.229 580.094 163.229 580.091 163.228C580.083 163.226 580.072 163.223 580.057 163.219C580.027 163.212 579.982 163.201 579.923 163.188C579.806 163.16 579.631 163.119 579.4 163.068C578.938 162.966 578.251 162.821 577.35 162.65C575.546 162.306 572.884 161.856 569.439 161.425L569.391 161.807L569.344 162.188C572.772 162.616 575.418 163.064 577.206 163.404C578.1 163.574 578.779 163.718 579.234 163.818C579.461 163.869 579.633 163.908 579.747 163.935C579.804 163.948 579.847 163.959 579.875 163.966C579.889 163.969 579.9 163.972 579.907 163.973C579.91 163.974 579.913 163.975 579.914 163.975C579.915 163.975 579.916 163.976 579.916 163.976C579.916 163.976 579.916 163.976 579.916 163.976C579.916 163.976 579.916 163.976 579.916 163.976C579.916 163.976 579.916 163.976 580.01 163.603Z" fill="#40363B"/>
</g>
</g>
<path id="Ellipse 533" d="M715.83 189.138C716.929 195.649 710.588 242.585 686.755 223.702C671.971 226.196 633.28 215.618 632.181 209.107C650.49 189.404 665.026 177.522 679.81 175.029C694.594 172.535 714.732 182.627 715.83 189.138Z" fill="#191816"/>
<path id="Ellipse 528" d="M718.132 221.942C718.132 221.942 714.207 222.604 712.683 224.207C711.159 225.809 712.162 229.461 711.052 233.151C707.838 243.832 691.335 250.266 678.12 246.29C664.905 242.313 656.797 230.431 660.011 219.75C660.77 217.225 662.063 215.122 663.769 213.436" stroke="#40363B" stroke-width="1.536" stroke-linecap="round"/>
<path id="Vector 775" d="M727.301 202.754C731.25 202.622 733.324 200.754 731.051 190.036C728.787 179.358 734.014 178.123 729.26 170.854C724.506 163.584 713.824 172.072 718.207 179C719.122 180.446 719.552 182.298 719.886 184.866" stroke="#40363B" stroke-width="1.536" stroke-linecap="round"/>
<path id="Ellipse 529" d="M718.12 179.332C715.079 179.288 712.191 180.101 709.625 181.591" stroke="#40363B" stroke-width="1.536" stroke-linecap="round"/>
<path id="Ellipse 530" d="M715.242 222.878C724.351 223.995 734.597 214.686 736.068 202.961C736.986 195.638 735.043 188.826 730.639 184.397" stroke="#40363B" stroke-width="1.536" stroke-linecap="round"/>
<g id="Group 1171275159">
<path id="Union_3" d="M548.158 158.211C564.88 155.391 587.939 172.68 591.832 193.812C603.727 191.982 621.485 195.409 623.607 222.634C625.557 234.196 606.696 234.457 595.857 236.285C588.192 237.578 580.764 234.011 576.38 227.723C575.316 228.023 574.196 228.277 573.017 228.476C556.156 231.32 542.289 213.864 539.282 196.039C536.276 178.215 540.838 173.35 548.158 158.211Z" fill="#99C8FF"/>
<path id="Ellipse 531" d="M623.337 223.978C624.404 213.258 619.215 199.003 605.711 194.717C597.908 192.24 590.593 192.921 583.833 196.087" stroke="#40363B" stroke-width="1.536" stroke-linecap="round"/>
<path id="Ellipse 532" d="M551.811 157.821C554.907 157.912 558.58 158.663 563.003 160.067C576.207 164.259 588.629 179.405 591.831 193.184" stroke="#40363B" stroke-width="1.536" stroke-linecap="round"/>
</g>
<path id="Vector 776" d="M702.313 238.066C704.961 238.513 706.824 237.613 708.076 235.853C710.525 232.41 707.043 229.729 700.356 226.46C689.101 220.957 690.743 213.612 680.99 212.593C671.237 211.574 672.442 227.135 681.641 228.232C684.14 229.111 689.647 231.232 691.685 232.682" stroke="#40363B" stroke-width="1.536" stroke-linecap="round"/>
<path id="Vector 781" d="M701.992 176.222C702.507 179.275 703.811 182.194 701.166 185.076C697.228 189.367 690.453 187.587 688.919 183.809C687.913 181.329 688.835 177.992 689.34 175.664" stroke="#40363B" stroke-width="1.536" stroke-linecap="round"/>
<path id="Vector 780" d="M653.734 187.947C667.871 177.42 677.607 172.367 689.438 174.951" stroke="#40363B" stroke-width="1.536" stroke-linecap="round"/>
<g id="Group 1171275157">
<path id="Vector 782" d="M684.612 225.353C683.183 225.411 682.358 223.652 681.841 222.048C681.325 220.443 682.27 218.931 685.091 219.313C687.418 219.628 688.4 221.201 687.035 221.993C685.669 222.786 686.398 225.28 684.612 225.353Z" fill="#DA99B8" stroke="#40363B" stroke-width="0.384" stroke-linecap="round"/>
<path id="Ellipse 534" d="M679.875 221.699C680.371 221.809 680.325 222.22 680.215 222.716C680.106 223.212 679.974 223.605 679.478 223.495C678.982 223.385 678.085 222.765 678.195 222.269C678.304 221.773 679.379 221.589 679.875 221.699Z" fill="#DA99B8" stroke="#40363B" stroke-width="0.384"/>
<path id="Ellipse 535" d="M679.452 218.935C680.055 219.248 679.936 219.605 679.724 220.012C679.513 220.418 679.289 220.721 678.687 220.408C678.084 220.094 677.058 219.142 677.27 218.735C677.481 218.329 678.85 218.622 679.452 218.935Z" fill="#DA99B8" stroke="#40363B" stroke-width="0.384"/>
<path id="Ellipse 536" d="M681.512 216.481C681.905 216.84 681.647 217.19 681.288 217.582C680.929 217.975 680.604 218.262 680.211 217.902C679.819 217.543 679.33 216.511 679.689 216.119C680.049 215.726 681.12 216.122 681.512 216.481Z" fill="#DA99B8" stroke="#40363B" stroke-width="0.384"/>
<path id="Ellipse 537" d="M684.843 216.765C685.003 217.272 684.606 217.446 684.099 217.606C683.591 217.766 683.166 217.852 683.006 217.345C682.846 216.838 682.939 215.699 683.446 215.539C683.953 215.379 684.683 216.257 684.843 216.765Z" fill="#DA99B8" stroke="#40363B" stroke-width="0.384"/>
</g>
<g id="Group 1171275158">
<path id="Vector 782_2" d="M721.979 181.657C721.071 180.552 721.978 178.833 722.948 177.454C723.918 176.076 725.694 175.919 727.089 178.401C728.239 180.448 727.575 182.179 726.12 181.567C724.665 180.954 723.113 183.039 721.979 181.657Z" fill="#DA99B8" stroke="#40363B" stroke-width="0.384" stroke-linecap="round"/>
<path id="Ellipse 534_2" d="M722.042 175.674C722.254 176.136 721.897 176.348 721.435 176.559C720.973 176.77 720.581 176.901 720.369 176.439C720.158 175.977 720.113 174.888 720.575 174.677C721.037 174.465 721.831 175.212 722.042 175.674Z" fill="#DA99B8" stroke="#40363B" stroke-width="0.384"/>
<path id="Ellipse 535_2" d="M723.998 173.671C724.111 174.34 723.754 174.46 723.302 174.536C722.85 174.612 722.474 174.616 722.361 173.947C722.248 173.277 722.39 171.884 722.842 171.808C723.294 171.732 723.885 173.001 723.998 173.671Z" fill="#DA99B8" stroke="#40363B" stroke-width="0.384"/>
<path id="Ellipse 536_2" d="M727.193 173.836C727.143 174.366 726.709 174.371 726.18 174.32C725.65 174.27 725.225 174.183 725.275 173.654C725.326 173.124 725.855 172.112 726.385 172.163C726.914 172.213 727.244 173.306 727.193 173.836Z" fill="#DA99B8" stroke="#40363B" stroke-width="0.384"/>
<path id="Ellipse 537_2" d="M728.977 176.666C728.668 177.099 728.29 176.887 727.857 176.578C727.423 176.27 727.098 175.983 727.407 175.549C727.715 175.116 728.68 174.504 729.113 174.812C729.547 175.121 729.285 176.232 728.977 176.666Z" fill="#DA99B8" stroke="#40363B" stroke-width="0.384"/>
</g>
</g>
<g id="Group 1171275012" opacity="0.2">
<g id="Group 1171275011">
<path id="Vector 680" d="M167.684 358.555C159.714 350.553 158.965 338.607 159.587 333.635L169.605 310.005C169.738 309.491 169.888 309.164 170.034 308.994L169.605 310.005C168.994 312.365 168.744 318.661 170.946 331.719C174.299 351.598 202.161 395.577 195.728 415.159C189.296 434.742 171.504 415.838 173.694 405.733C175.884 395.628 177.647 368.557 167.684 358.555Z" fill="#191816" stroke="#40363B" stroke-width="1.92"/>
<path id="Vector 678" d="M124.612 321.074C118.278 311.188 116.589 296.563 116.536 290.486C125.613 288.955 176.888 267.831 201.392 257.461C226.564 294.293 213.435 311.57 211.272 316.042C209.11 320.515 219.224 326.495 217.586 334.074C215.947 341.654 199.076 348.515 187.778 344.943C176.48 341.372 173.833 328.675 170.95 334.638C168.066 340.602 169.544 343.62 166.281 347.365C161.795 352.515 151.03 357.956 138.829 351.995C124.742 345.113 132.53 333.431 124.612 321.074Z" fill="#191816" stroke="#40363B" stroke-width="1.92"/>
<g id="Group 1171275010">
<g id="Group 1171275008">
<path id="Vector 679" d="M112.045 312.242C109.782 304.495 109.109 294.836 110.982 291.133L131.392 287.691L132.301 303.987C128.524 309.946 134.245 319.625 142.583 325.96C155.611 335.858 139.575 350.658 124.988 338.604C120.482 334.88 114.874 321.925 112.045 312.242Z" fill="#191816"/>
<path id="Vector 676" d="M110.982 291.133C109.109 294.836 109.782 304.495 112.045 312.242C114.874 321.925 120.481 334.88 124.988 338.604C139.575 350.658 155.611 335.858 142.583 325.96C134.245 319.625 128.524 309.946 132.301 303.987" stroke="#40363B" stroke-width="1.92" stroke-linecap="round"/>
</g>
<g id="Group 1171275009">
<path id="Vector 679_2" d="M196.967 286.853C195.033 278.987 190.083 268.695 187.082 266.184L177.945 286.661C183.311 290.38 178.456 300.285 175.477 309.46C170.823 323.796 194.065 331.366 198.834 314.448C200.307 309.221 199.383 296.686 196.967 286.853Z" fill="#191816"/>
<path id="Vector 677" d="M187.082 266.184C190.083 268.695 195.033 278.987 196.967 286.853C199.383 296.686 200.307 309.221 198.834 314.448C194.065 331.366 170.823 323.796 175.477 309.46C178.456 300.285 183.311 290.38 177.945 286.661" stroke="#40363B" stroke-width="1.92" stroke-linecap="round"/>
</g>
</g>
</g>
<path id="Vector 672" d="M205.209 205.218C186.105 201.625 171.277 177.84 132.096 184.449C120.516 186.402 97.6362 194.377 81.6588 217.781C65.6814 241.185 52.6409 241.286 56.8625 249.223C62.5649 259.944 74.8247 261.446 80.2418 260.857C80.8289 278.769 96.5735 299.965 153.525 288.413C199.087 279.17 206.01 252.301 203.777 240.021C204.039 239.652 205.795 238.707 210.717 237.877C215.639 237.047 224.96 230.607 226.203 220.662C223.957 215.037 220.492 208.093 205.209 205.218Z" fill="#191816" stroke="#40363B" stroke-width="1.92"/>
<path id="Vector 673" d="M222.811 220.747C222.811 220.747 222.044 221.243 220.483 221.894C217.178 223.639 211.321 227.19 209.495 231.268C208.081 234.427 205.548 233.659 204.601 231.12C203.661 228.6 204.719 224.531 207.904 224.721C213.966 224.21 218.128 222.876 220.483 221.894C221.872 221.161 222.811 220.747 222.811 220.747Z" fill="#DA99B8" stroke="#40363B" stroke-width="0.96"/>
<path id="Vector 674" d="M76.3988 244.468C73.3741 247.314 68.2042 250.718 61.492 248.441C63.7104 252.935 78.0864 260.246 82.1011 255.188C86.1157 250.13 80.1796 240.909 76.3988 244.468Z" fill="#DA99B8" stroke="#40363B" stroke-width="0.96"/>
<path id="Ellipse 458_2" d="M143.661 259.41C143.837 260.455 141.38 263.202 139.486 263.521C137.593 263.841 134.371 262.052 134.194 261.006C134.018 259.961 135.994 258.756 138.608 258.315C141.222 257.874 143.484 258.364 143.661 259.41Z" fill="#DA99B8" stroke="#40363B" stroke-width="0.96"/>
<g id="Group 1171275006">
<g id="Group 1171275004">
<ellipse id="Ellipse 456" cx="109.362" cy="257.509" rx="17.4304" ry="14.0818" transform="rotate(-58.8412 109.362 257.509)" fill="#FFF8E8" stroke="#40363B" stroke-width="0.96"/>
<ellipse id="Ellipse 459" cx="111.53" cy="260.281" rx="14.5152" ry="10.1116" transform="rotate(-58.8412 111.53 260.281)" fill="#FFC44D"/>
</g>
<g id="Group 1171275005">
<ellipse id="Ellipse 457" cx="17.4304" cy="14.0818" rx="17.4304" ry="14.0818" transform="matrix(-0.769466 -0.638688 -0.638688 0.769466 188.473 248.46)" fill="#FFF8E8" stroke="#40363B" stroke-width="0.96"/>
<ellipse id="Ellipse 460" cx="14.5152" cy="10.1116" rx="14.5152" ry="10.1116" transform="matrix(-0.769466 -0.638688 -0.638688 0.769466 181.223 252.99)" fill="#FFC44D"/>
</g>
</g>
<path id="Vector 675" d="M144.551 273.376C144.674 271.797 141.337 270.672 139.653 270.307C142.972 272.668 139.818 274.174 140.291 274.094L144.551 273.376Z" fill="#FFD4E8" stroke="#40363B" stroke-width="0.96"/>
<g id="Group 1171275007">
<path id="Vector 681" d="M11.6733 195.511C38.0306 195.933 103.712 193.422 155.578 180.001C207.444 166.58 246.065 153.706 258.892 148.946" stroke="#40363B" stroke-width="1.92" stroke-linecap="round"/>
<g id="Group 1171275363">
<path id="Rectangle 34624472" d="M117.001 151.942C114.838 145.401 129.039 143.606 136.336 143.116C138.71 142.957 140.744 144.667 141.105 147.018C142.444 155.723 145.433 175.733 145.441 180.928C145.447 185.776 133.212 186.941 126.46 187.215C123.991 187.315 121.952 185.419 121.715 182.959C120.954 175.05 119.167 158.49 117.001 151.942Z" fill="#D9578D" stroke="#40363B" stroke-width="1.92"/>
<path id="Rectangle 34624471" d="M125.622 152.441C125.669 145.069 140.84 148.227 148.242 150.207C150.54 150.821 151.915 153.096 151.505 155.439C149.921 164.494 146.087 185.892 144.318 191.15C142.662 196.073 129.705 192.962 122.903 190.948C120.534 190.247 119.212 187.805 119.776 185.4C121.673 177.318 125.574 159.819 125.622 152.441Z" fill="#FF6FB4" stroke="#40363B" stroke-width="1.92"/>
<path id="Polygon 14" d="M136.415 179.556C135.329 180.749 133.773 180.454 133.238 178.953L129.079 167.292C128.296 165.098 130.234 162.524 131.984 163.433L137.18 166.131C137.564 166.331 137.99 166.406 138.424 166.352L143.607 165.708C145.604 165.459 146.415 168.575 144.812 170.335L136.415 179.556Z" fill="#99C8FF" stroke="#40363B" stroke-width="0.96"/>
</g>
</g>
</g>
<path id="Rectangle 34624719_2" d="M739.911 54.7901C748.346 55.6049 754.969 62.0166 756.378 70.3733L795.005 299.391C797.232 312.593 785.621 324.334 772.315 322.85C722.417 317.285 606.517 310.242 444.803 336.808C271.976 365.199 125.321 421.123 70.6359 443.682C58.9843 448.488 45.6958 441.279 43.5995 428.85L4.74392 198.476C3.2332 189.519 8.18353 180.751 16.6829 177.546C68.0104 158.192 245.948 93.473 399.205 66.4543C549.808 39.9034 695.076 50.4594 739.911 54.7901Z" stroke="#534B36" stroke-width="5"/>
</g>
<ellipse id="Ellipse 3462" cx="401" cy="409" rx="200" ry="30" fill="#ED9E00" stroke="#191816" stroke-width="3.84"/>
<path id="Star 8" d="M438.364 20.6265L414.989 55.9618L441.372 89.1114L400.543 77.8003L377.169 113.136L375.309 70.8097L334.48 59.4986L374.16 44.6508L372.301 2.32476L398.684 35.4743L438.364 20.6265Z" fill="url(#paint0_linear_1309_4854)" stroke="#191816" stroke-width="5"/>
<g id="Group 1171276286">
<g id="Group 1171276288">
<g id="Union_4">
<path d="M424.03 287.653C406.357 287.653 392.03 301.98 392.03 319.653V367.686C389.201 371.031 387.494 375.356 387.494 380.08V396.455C387.494 407.059 396.09 415.655 406.694 415.655H455.352C465.955 415.655 474.551 407.059 474.551 396.455V380.08C474.551 375.942 473.242 372.109 471.016 368.975V319.653C471.016 301.98 456.689 287.653 439.016 287.653H424.03Z" fill="#FFFDFA"/>
<path d="M392.03 319.653H389.53V319.653L392.03 319.653ZM392.03 367.686H394.53V368.602L393.939 369.301L392.03 367.686ZM455.352 415.655L455.352 418.155H455.352V415.655ZM471.016 368.975L468.977 370.422L468.516 369.772V368.975H471.016ZM471.016 319.653L473.516 319.653V319.653H471.016ZM439.016 287.653V285.153V287.653ZM424.03 287.653V290.153C407.738 290.153 394.53 303.361 394.53 319.653L392.03 319.653L389.53 319.653C389.53 300.6 404.977 285.153 424.03 285.153V287.653ZM392.03 319.653H394.53V367.686H392.03H389.53V319.653H392.03ZM392.03 367.686L393.939 369.301C391.477 372.211 389.994 375.969 389.994 380.08H387.494H384.994C384.994 374.743 386.925 369.85 390.122 366.072L392.03 367.686ZM387.494 380.08H389.994V396.455H387.494H384.994V380.08H387.494ZM387.494 396.455H389.994C389.994 405.678 397.471 413.155 406.694 413.155V415.655V418.155C394.71 418.155 384.994 408.44 384.994 396.455H387.494ZM406.694 415.655V413.155H455.352V415.655V418.155H406.694V415.655ZM455.352 415.655L455.352 413.155C464.574 413.155 472.051 405.678 472.051 396.455H474.551H477.051C477.051 408.439 467.336 418.155 455.352 418.155L455.352 415.655ZM474.551 396.455H472.051V380.08H474.551H477.051V396.455H474.551ZM474.551 380.08H472.051C472.051 376.477 470.913 373.148 468.977 370.422L471.016 368.975L473.054 367.527C475.571 371.071 477.051 375.407 477.051 380.08H474.551ZM471.016 368.975H468.516V319.653H471.016H473.516V368.975H471.016ZM471.016 319.653L468.516 319.653C468.516 303.361 455.308 290.153 439.016 290.153V287.653V285.153C458.069 285.153 473.516 300.6 473.516 319.653L471.016 319.653ZM439.016 287.653V290.153H424.03V287.653V285.153H439.016V287.653Z" fill="#191816"/>
</g>
<path id="Rectangle 117" d="M408.907 361V361C396.807 361 386.998 370.811 386.998 382.91V382.91M456.681 363.43C469.076 364.583 474.383 372.748 474.383 380.901" stroke="#191816" stroke-width="5" stroke-linecap="round" stroke-linejoin="round"/>
</g>
<g id="Group 1171276290">
<g id="Union_5">
<path d="M359.98 279.762C342.307 279.762 327.981 294.089 327.98 311.762V373.415C327.471 375.142 327.196 376.969 327.196 378.86V397.53C327.196 408.134 335.792 416.73 346.396 416.731H396.972C407.576 416.731 416.172 408.134 416.172 397.53V378.86C416.172 374.575 414.767 370.619 412.395 367.424V311.762C412.394 294.089 398.068 279.762 380.395 279.762H359.98Z" fill="#FFFDFA"/>
<path d="M327.98 311.762H325.48V311.762L327.98 311.762ZM327.98 373.415H330.48V373.777L330.378 374.123L327.98 373.415ZM327.196 378.86H324.696V378.86L327.196 378.86ZM346.396 416.731V419.231H346.395L346.396 416.731ZM416.172 378.86H418.672H416.172ZM412.395 367.424L410.388 368.915L409.895 368.251V367.424H412.395ZM412.395 311.762L414.895 311.762V311.762H412.395ZM380.395 279.762V277.262H380.395L380.395 279.762ZM359.98 279.762V282.262C343.688 282.262 330.481 295.469 330.48 311.762L327.98 311.762L325.48 311.762C325.481 292.708 340.927 277.262 359.98 277.262V279.762ZM327.98 311.762H330.48V373.415H327.98H325.48V311.762H327.98ZM327.98 373.415L330.378 374.123C329.935 375.623 329.696 377.212 329.696 378.86L327.196 378.86L324.696 378.86C324.696 376.726 325.006 374.66 325.583 372.707L327.98 373.415ZM327.196 378.86H329.696V397.53H327.196H324.696V378.86H327.196ZM327.196 397.53H329.696C329.696 406.754 337.173 414.23 346.396 414.231L346.396 416.731L346.395 419.231C334.411 419.23 324.696 409.515 324.696 397.53H327.196ZM346.396 416.731V414.231H396.972V416.731V419.231H346.396V416.731ZM396.972 416.731V414.231C406.195 414.231 413.672 406.754 413.672 397.53H416.172H418.672C418.672 409.515 408.956 419.231 396.972 419.231V416.731ZM416.172 397.53H413.672V378.86H416.172H418.672V397.53H416.172ZM416.172 378.86H413.672C413.672 375.131 412.451 371.693 410.388 368.915L412.395 367.424L414.401 365.933C417.083 369.544 418.672 374.02 418.672 378.86H416.172ZM412.395 367.424H409.895V311.762H412.395H414.895V367.424H412.395ZM412.395 311.762L409.895 311.762C409.894 295.47 396.687 282.262 380.395 282.262L380.395 279.762L380.395 277.262C399.448 277.262 414.894 292.708 414.895 311.762L412.395 311.762ZM380.395 279.762V282.262H359.98V279.762V277.262H380.395V279.762Z" fill="#191816"/>
</g>
<path id="Rectangle 117_2" d="M396.897 364.44C410.271 365.485 415.996 372.888 415.996 380.28" stroke="#191816" stroke-width="5" stroke-linecap="round" stroke-linejoin="round"/>
</g>
</g>
<g id="Group 1171276285">
<path id="Polygon 6" d="M442.455 93.4259C460.592 93.4259 476.704 105.004 482.489 122.193L537.493 285.634C546.705 313.008 526.342 341.347 497.459 341.347H296.764C267.881 341.347 247.518 313.008 256.73 285.634L311.734 122.193C317.519 105.004 333.631 93.4259 351.768 93.4259H442.455Z" fill="#FFFDFA"/>
<g id="Mask group_2">
<mask id="mask1_1309_4854" style="mask-type:alpha" maskUnits="userSpaceOnUse" x="251" y="90" width="292" height="254">
<path id="Polygon 8" d="M442.455 93.426C460.592 93.426 476.704 105.004 482.489 122.193L537.493 285.635C546.705 313.008 526.342 341.347 497.459 341.347H296.764C267.881 341.347 247.518 313.008 256.73 285.635L311.734 122.193C317.519 105.004 333.631 93.426 351.768 93.426H442.455Z" fill="#FFFDFA" stroke="black" stroke-width="5"/>
</mask>
<g mask="url(#mask1_1309_4854)">
<path id="Polygon 7" d="M470.645 90.8399H322.997C310.082 90.8399 298.608 99.0847 294.489 111.326L287.471 132.179C283.909 142.763 289.482 154.249 300.001 158.001L323.265 166.299C328.052 168.007 333.302 167.873 337.996 165.925L357.152 157.974C362.626 155.702 368.817 155.913 374.124 158.552L411.583 177.184C419.229 180.987 428.432 179.647 434.675 173.821L443.206 165.862C450.348 159.197 461.204 158.505 469.135 164.209L469.446 164.432C476.455 169.473 485.873 169.577 492.992 164.692L499.831 159.998C507.38 154.818 510.573 145.257 507.653 136.58L499.154 111.326C495.035 99.0847 483.561 90.8399 470.645 90.8399Z" fill="#FFC249" stroke="#191816" stroke-width="5"/>
</g>
</g>
<path id="Polygon 7_2" d="M442.455 93.4259C460.592 93.4259 476.704 105.004 482.489 122.193L537.493 285.634C546.705 313.008 526.342 341.347 497.459 341.347H296.764C267.881 341.347 247.518 313.008 256.73 285.634L311.734 122.193C317.519 105.004 333.631 93.4259 351.768 93.4259H442.455Z" stroke="#191816" stroke-width="5"/>
<g id="Group 1171276338">
<g id="Group 1171276334">
<path id="Rectangle 34624715" d="M351.314 246.095C350.498 244.941 350.772 243.343 351.926 242.527L363.423 234.398C364.577 233.582 366.175 233.856 366.991 235.011L410.638 296.742C411.023 297.287 411.26 297.923 411.324 298.587L412.826 314.058C412.946 315.291 411.68 316.187 410.557 315.663L396.472 309.089C395.867 308.806 395.346 308.371 394.961 307.826L351.314 246.095Z" fill="#FFE6B5"/>
<path id="Rectangle 34624716" d="M351.314 246.095C350.498 244.941 350.772 243.343 351.926 242.527L363.423 234.398C364.577 233.582 366.175 233.856 366.991 235.011L369.947 239.191C370.763 240.346 370.489 241.943 369.335 242.76L357.838 250.888C356.684 251.704 355.086 251.43 354.27 250.276L351.314 246.095Z" fill="#ED9E00" stroke="#191816" stroke-width="2"/>
<path id="Rectangle 34624717" d="M351.314 246.095C350.498 244.941 350.772 243.343 351.926 242.527L363.423 234.398C364.577 233.582 366.175 233.856 366.991 235.011L410.638 296.742C411.023 297.287 411.26 297.923 411.324 298.587L412.826 314.058C412.946 315.291 411.68 316.187 410.557 315.663L396.472 309.089C395.867 308.806 395.346 308.371 394.961 307.826L351.314 246.095Z" stroke="#191816" stroke-width="3"/>
</g>
<g id="Union_6">
<path d="M272.148 221.082C277.596 213.744 287.943 212.173 295.323 217.563L374.865 275.663L393.736 276.821C398.629 277.122 402.352 281.331 402.052 286.224C401.843 289.625 399.743 292.459 396.839 293.77C401.897 302.556 399.483 314.489 390.001 320.221L369.044 332.889C361.734 337.307 352.4 336.459 346.005 330.797L275.065 267.979C268.687 262.331 265.035 254.219 265.035 245.699V241.879C265.035 234.596 267.38 227.506 271.721 221.659L272.148 221.082Z" fill="#FFFDFA"/>
<path d="M272.148 221.082L270.141 219.592L270.14 219.593L272.148 221.082ZM295.323 217.563L296.798 215.545L296.798 215.545L295.323 217.563ZM374.865 275.663L373.391 277.682L373.982 278.114L374.712 278.158L374.865 275.663ZM393.736 276.821L393.889 274.326L393.736 276.821ZM402.052 286.224L404.547 286.377V286.377L402.052 286.224ZM396.839 293.77L395.81 291.492L393.296 292.628L394.672 295.018L396.839 293.77ZM390.001 320.221L388.708 318.081L388.708 318.081L390.001 320.221ZM369.044 332.889L370.337 335.028L370.337 335.028L369.044 332.889ZM346.005 330.797L347.662 328.925V328.925L346.005 330.797ZM275.065 267.979L273.408 269.851L273.408 269.851L275.065 267.979ZM265.035 245.699H262.535V245.699L265.035 245.699ZM265.035 241.879L262.535 241.879V241.879H265.035ZM271.721 221.659L273.728 223.149L273.729 223.148L271.721 221.659ZM272.148 221.082L274.156 222.572C278.785 216.337 287.577 215.002 293.849 219.582L295.323 217.563L296.798 215.545C288.309 209.344 276.408 211.152 270.141 219.592L272.148 221.082ZM295.323 217.563L293.849 219.582L373.391 277.682L374.865 275.663L376.34 273.644L296.798 215.545L295.323 217.563ZM374.865 275.663L374.712 278.158L393.583 279.317L393.736 276.821L393.889 274.326L375.018 273.168L374.865 275.663ZM393.736 276.821L393.583 279.317C397.098 279.532 399.772 282.556 399.556 286.071L402.052 286.224L404.547 286.377C404.932 280.106 400.16 274.711 393.889 274.326L393.736 276.821ZM402.052 286.224L399.556 286.07C399.407 288.509 397.904 290.546 395.81 291.492L396.839 293.77L397.868 296.049C401.582 294.371 404.279 290.742 404.547 286.377L402.052 286.224ZM396.839 293.77L394.672 295.018C399.089 302.689 396.963 313.091 388.708 318.081L390.001 320.221L391.294 322.36C402.002 315.888 404.705 302.423 399.005 292.523L396.839 293.77ZM390.001 320.221L388.708 318.081L367.751 330.749L369.044 332.889L370.337 335.028L391.294 322.36L390.001 320.221ZM369.044 332.889L367.751 330.749C361.377 334.601 353.238 333.862 347.662 328.925L346.005 330.797L344.348 332.669C351.561 339.056 362.091 340.012 370.337 335.028L369.044 332.889ZM346.005 330.797L347.662 328.925L276.723 266.108L275.065 267.979L273.408 269.851L344.348 332.669L346.005 330.797ZM275.065 267.979L276.723 266.108C270.88 260.934 267.535 253.503 267.535 245.699L265.035 245.699L262.535 245.699C262.535 254.935 266.494 263.728 273.408 269.851L275.065 267.979ZM265.035 245.699H267.535V241.879H265.035H262.535V245.699H265.035ZM265.035 241.879L267.535 241.879C267.535 235.133 269.707 228.566 273.728 223.149L271.721 221.659L269.713 220.169C265.052 226.447 262.535 234.06 262.535 241.879L265.035 241.879ZM271.721 221.659L273.729 223.148L274.157 222.571L272.148 221.082L270.14 219.593L269.712 220.171L271.721 221.659Z" fill="#191816"/>
</g>
</g>
</g>
<g id="Group 1171276348">
<g id="Group 1171276341">
<path id="Rectangle 34624723" d="M175.056 60.5029C175.061 56.9263 177.952 54.0085 181.528 54.0085H263.12C266.631 54.0085 269.483 56.83 269.486 60.3417C269.494 74.6347 269.245 109.199 266.746 122.714C264.307 135.902 260.002 140.036 258.115 141.25C257.53 141.626 256.83 141.701 256.135 141.663L172.312 137.108C167.029 136.821 163.756 130.137 166.004 125.347C167.632 121.881 169.35 117.586 170.888 112.444C174.554 100.197 175.037 72.9908 175.056 60.5029Z" fill="#CCE5FF" stroke="#191816" stroke-width="5"/>
<rect id="Rectangle 34624724" x="211.254" y="39.6404" width="19.2" height="32" rx="3.2" transform="rotate(2.25106 211.254 39.6404)" fill="#ED9E00" stroke="#191816" stroke-width="5"/>
</g>
<path id="Rectangle 34624725" d="M135.362 97.7355C134.907 93.9031 137.895 90.5203 141.754 90.5203H216.431C219.104 90.5203 221.482 92.1778 222.236 94.7425C224.156 101.279 227.433 114.783 227.433 130.842C227.433 147.557 229.081 171.24 229.951 182.588C230.228 186.188 227.495 189.312 223.89 189.511L149.767 193.593C146.734 193.76 143.984 191.77 143.311 188.808C138.9 169.41 139.752 154.977 138.793 134.439C138.274 123.326 136.467 107.035 135.362 97.7355Z" fill="#FFC249" stroke="#191816" stroke-width="5"/>
</g>
<g id="Group 136">
<g id="Group 1171276343">
<path id="Vector 787" d="M478.797 180.277C470.752 178.906 451.501 179.679 438.861 193.74" stroke="#191816" stroke-width="5" stroke-linecap="round"/>
<rect id="Rectangle 113" x="-0.32" y="0.32" width="21.9656" height="44.5706" rx="10.9828" transform="matrix(-1 0 0 1 466.098 190.349)" fill="#191816" stroke="#191816" stroke-width="0.64"/>
</g>
<g id="Group 1171276344">
<g id="Mask group_3">
<mask id="mask2_1309_4854" style="mask-type:alpha" maskUnits="userSpaceOnUse" x="378" y="186" width="46" height="63">
<path id="Vector 787_2" d="M387.432 186.959C391.263 194.368 406.458 203.084 423.789 197.508C422.973 205.043 421.981 217.89 421.529 219.548C421.076 221.206 416.317 239.83 413.993 248.935L384.23 241.4L378.955 212.39L387.432 186.959Z" fill="#D9D9D9"/>
</mask>
<g mask="url(#mask2_1309_4854)">
<rect id="Rectangle 114" x="-0.32" y="0.32" width="21.9656" height="44.5706" rx="10.9828" transform="matrix(-1 0 0 1 415.993 187.901)" fill="#191816" stroke="#191816" stroke-width="0.64"/>
</g>
</g>
<path id="Vector 786" d="M424.543 198.261C407.212 203.837 391.075 195.122 387.244 187.712" stroke="#191816" stroke-width="5" stroke-linecap="round"/>
</g>
</g>
<g id="Group 1171276333">
<path id="Rectangle 34624714" d="M517.698 226.745C517.487 226.03 518.424 225.557 518.819 226.19C522.879 232.706 530.681 246.088 534.16 257.88C538.975 274.199 534.654 293.855 521.694 314.839C513.41 328.252 503.905 332.26 498.124 333.405C494.862 334.052 491.999 331.892 490.723 328.821L481.729 307.152C480.247 303.581 481.145 299.449 483.992 296.832C512.865 270.29 527.626 260.337 517.698 226.745Z" fill="#FFFDFA" stroke="#191816" stroke-width="5"/>
<g id="Group 1171276332">
<path id="Vector 677_2" d="M523.564 255.485L446.823 248.998C444.136 248.771 441.526 249.97 439.948 252.157L377.93 338.12C377.529 338.675 377.454 339.402 377.734 340.027L378.875 342.579C379.779 344.6 381.708 345.969 383.913 346.156L451.712 351.888C454.248 352.102 456.725 351.046 458.327 349.069L527.645 263.492C528.141 262.88 528.212 262.027 527.826 261.341L525.075 256.456C524.763 255.903 524.197 255.539 523.564 255.485Z" fill="#CCE5FF" stroke="#191816" stroke-width="5"/>
<g id="Subtract_5">
<path d="M523.562 255.485C524.195 255.539 524.761 255.902 525.073 256.456L527.825 261.341C527.994 261.642 528.075 261.975 528.072 262.305C527.997 262.291 527.92 262.28 527.843 262.274L450.831 256.742C448.218 256.554 445.689 257.71 444.123 259.811L380.72 344.851C380.71 344.864 380.701 344.878 380.691 344.892C379.919 344.29 379.287 343.504 378.874 342.579L377.732 340.027C377.452 339.402 377.527 338.675 377.928 338.12L439.946 252.157C441.524 249.97 444.134 248.77 446.822 248.998L523.562 255.485Z" fill="#26BBFF"/>
<path d="M525.073 256.456L526.38 255.72L526.38 255.72L525.073 256.456ZM527.825 261.341L529.132 260.605L529.132 260.605L527.825 261.341ZM528.072 262.305L527.786 263.778C528.222 263.863 528.674 263.749 529.019 263.468C529.364 263.187 529.566 262.768 529.571 262.323L528.072 262.305ZM527.843 262.274L527.95 260.778L527.95 260.778L527.843 262.274ZM450.831 256.742L450.724 258.238L450.724 258.238L450.831 256.742ZM444.123 259.811L442.92 258.914L442.92 258.914L444.123 259.811ZM380.72 344.851L381.923 345.748L381.923 345.748L380.72 344.851ZM380.691 344.892L379.77 346.075C380.093 346.327 380.506 346.436 380.911 346.375C381.317 346.315 381.68 346.092 381.916 345.757L380.691 344.892ZM378.874 342.579L380.243 341.967L380.243 341.966L378.874 342.579ZM377.732 340.027L376.363 340.64L376.363 340.64L377.732 340.027ZM377.928 338.12L376.711 337.242L376.711 337.243L377.928 338.12ZM439.946 252.157L441.163 253.035L441.163 253.035L439.946 252.157ZM523.562 255.485L523.435 256.98C523.574 256.992 523.698 257.072 523.766 257.192L525.073 256.456L526.38 255.72C525.824 254.733 524.816 254.086 523.688 253.991L523.562 255.485ZM525.073 256.456L523.766 257.192L526.518 262.077L527.825 261.341L529.132 260.605L526.38 255.72L525.073 256.456ZM527.825 261.341L526.518 262.077C526.555 262.142 526.572 262.215 526.572 262.288L528.072 262.305L529.571 262.323C529.578 261.735 529.434 261.141 529.132 260.605L527.825 261.341ZM528.072 262.305L528.357 260.833C528.235 260.809 528.098 260.789 527.95 260.778L527.843 262.274L527.735 263.771C527.743 263.771 527.759 263.773 527.786 263.778L528.072 262.305ZM527.843 262.274L527.95 260.778L450.939 255.246L450.831 256.742L450.724 258.238L527.735 263.771L527.843 262.274ZM450.831 256.742L450.939 255.246C447.816 255.021 444.792 256.403 442.92 258.914L444.123 259.811L445.325 260.707C446.585 259.018 448.62 258.087 450.724 258.238L450.831 256.742ZM444.123 259.811L442.92 258.914L379.517 343.954L380.72 344.851L381.923 345.748L445.325 260.707L444.123 259.811ZM380.72 344.851L379.517 343.954C379.501 343.977 379.487 343.997 379.479 344.008C379.461 344.033 379.475 344.013 379.466 344.026L380.691 344.892L381.916 345.757C381.921 345.751 381.925 345.745 381.927 345.741C381.93 345.737 381.931 345.736 381.932 345.734C381.933 345.734 381.932 345.734 381.931 345.737C381.929 345.739 381.926 345.742 381.923 345.748L380.72 344.851ZM380.691 344.892L381.613 343.708C381.028 343.253 380.553 342.66 380.243 341.967L378.874 342.579L377.504 343.191C378.022 344.348 378.81 345.328 379.77 346.075L380.691 344.892ZM378.874 342.579L380.243 341.966L379.101 339.415L377.732 340.027L376.363 340.64L377.504 343.192L378.874 342.579ZM377.732 340.027L379.101 339.415C379.04 339.278 379.056 339.119 379.144 338.997L377.928 338.12L376.711 337.243C375.998 338.232 375.865 339.526 376.363 340.64L377.732 340.027ZM377.928 338.12L379.144 338.998L441.163 253.035L439.946 252.157L438.73 251.28L376.711 337.242L377.928 338.12ZM439.946 252.157L441.163 253.035C442.432 251.275 444.533 250.309 446.695 250.492L446.822 248.998L446.948 247.503C443.736 247.231 440.616 248.665 438.73 251.28L439.946 252.157ZM446.822 248.998L446.695 250.492L523.435 256.98L523.562 255.485L523.688 253.991L446.948 247.503L446.822 248.998Z" fill="#191816"/>
</g>
<path id="Vector 678_2" d="M523.564 255.485L446.823 248.998C444.136 248.771 441.526 249.97 439.948 252.157L377.93 338.12C377.529 338.675 377.454 339.402 377.734 340.027L378.875 342.579C379.779 344.6 381.708 345.969 383.913 346.156L451.712 351.888C454.248 352.102 456.725 351.046 458.327 349.069L527.645 263.492C528.141 262.88 528.212 262.027 527.826 261.341L525.075 256.456C524.763 255.903 524.197 255.539 523.564 255.485Z" stroke="#191816" stroke-width="3.84"/>
<ellipse id="Ellipse 3463" cx="463.749" cy="295.141" rx="6.55935" ry="8.93706" transform="rotate(42.4735 463.749 295.141)" fill="#26BBFF" stroke="#191816" stroke-width="2"/>
<path id="Rectangle 34624712" d="M449.896 266.248C450.327 265.576 451.102 265.206 451.896 265.294L459.246 266.115C460.791 266.287 461.618 268.021 460.78 269.33C460.35 270.003 459.575 270.373 458.781 270.284L451.43 269.464C449.885 269.291 449.058 267.557 449.896 266.248Z" fill="#FFE6B5" stroke="#191816" stroke-width="2"/>
</g>
<path id="Rectangle 34624715_2" d="M477.498 276C486.075 273.055 503.066 275.063 512.249 278.008C514.892 278.856 516.818 280.136 518.058 282C521.127 286.612 520.005 294.804 515.193 308.888C513.313 314.39 511.554 318.871 509.789 322.5C505.209 331.917 500.587 335.595 493.709 336.472C484.179 337.686 464.11 330.213 460.269 314.439C456.428 298.666 468.922 278.945 477.498 276Z" fill="#FFFDFA"/>
<path id="Rectangle 34624713" d="M518.059 282C518.059 282 498.993 271.5 480.5 275.5C462.006 279.5 458.659 301.726 462.5 317.5C466.34 333.274 484.18 337.686 493.709 336.472C500.587 335.595 508.001 332.5 512.001 322" stroke="#191816" stroke-width="5" stroke-linecap="round"/>
</g>
<g id="Subtract_6">
<path d="M592.984 184.406C616.989 177.974 641.662 192.219 648.094 216.224C654.526 240.228 640.281 264.903 616.277 271.335C592.272 277.767 567.598 263.521 561.166 239.516C554.734 215.512 568.98 190.838 592.984 184.406ZM599.365 241.508C593.564 239.282 587.058 242.179 584.831 247.979C582.605 253.779 585.502 260.286 591.302 262.513C597.102 264.739 603.61 261.842 605.836 256.042C608.063 250.242 605.165 243.735 599.365 241.508ZM631.793 235.396C626.965 231.486 619.881 232.231 615.971 237.059C612.062 241.888 612.806 248.971 617.634 252.881C622.462 256.791 629.546 256.046 633.456 251.217C637.366 246.389 636.621 239.306 631.793 235.396ZM579.356 215.268C573.152 214.943 567.859 219.709 567.534 225.913C567.209 232.118 571.975 237.411 578.179 237.736C584.383 238.061 589.676 233.295 590.002 227.091C590.327 220.886 585.561 215.593 579.356 215.268ZM635.739 207.637C632.355 202.426 625.387 200.945 620.177 204.329C614.966 207.713 613.485 214.681 616.869 219.891C620.253 225.102 627.221 226.582 632.431 223.198C637.641 219.814 639.123 212.847 635.739 207.637ZM594.997 191.997C588.996 193.605 585.434 199.775 587.042 205.776C588.65 211.777 594.819 215.338 600.82 213.73C606.821 212.122 610.382 205.953 608.775 199.952C607.167 193.951 600.998 190.389 594.997 191.997Z" fill="#26BBFF"/>
<path d="M592.984 184.406L592.596 182.957L592.596 182.957L592.984 184.406ZM648.094 216.224L649.543 215.836L649.543 215.836L648.094 216.224ZM616.277 271.335L616.665 272.784L616.665 272.784L616.277 271.335ZM561.166 239.516L559.717 239.904L559.717 239.904L561.166 239.516ZM599.365 241.508L599.902 240.108L599.902 240.108L599.365 241.508ZM584.831 247.979L583.431 247.442L583.431 247.442L584.831 247.979ZM591.302 262.513L590.764 263.913L590.764 263.913L591.302 262.513ZM605.836 256.042L607.236 256.58L607.236 256.58L605.836 256.042ZM631.793 235.396L632.737 234.23L631.793 235.396ZM615.971 237.059L614.806 236.115L614.806 236.115L615.971 237.059ZM617.634 252.881L616.69 254.047L616.69 254.047L617.634 252.881ZM633.456 251.217L634.622 252.161L634.622 252.161L633.456 251.217ZM579.356 215.268L579.435 213.77L579.435 213.77L579.356 215.268ZM567.534 225.913L566.036 225.835L566.036 225.835L567.534 225.913ZM578.179 237.736L578.101 239.234L578.101 239.234L578.179 237.736ZM590.002 227.091L591.499 227.169L591.499 227.169L590.002 227.091ZM635.739 207.637L636.997 206.82L636.997 206.82L635.739 207.637ZM620.177 204.329L619.36 203.071L619.36 203.071L620.177 204.329ZM616.869 219.891L615.611 220.708L615.611 220.708L616.869 219.891ZM632.431 223.198L633.248 224.456L633.248 224.456L632.431 223.198ZM594.997 191.997L594.609 190.548L594.609 190.548L594.997 191.997ZM587.042 205.776L585.593 206.164L585.593 206.164L587.042 205.776ZM600.82 213.73L601.209 215.179L601.209 215.179L600.82 213.73ZM608.775 199.952L610.223 199.564L610.223 199.564L608.775 199.952ZM592.984 184.406L593.373 185.855C616.577 179.637 640.428 193.408 646.645 216.612L648.094 216.224L649.543 215.836C642.897 191.031 617.401 176.311 592.596 182.957L592.984 184.406ZM648.094 216.224L646.645 216.612C652.863 239.816 639.093 263.668 615.889 269.886L616.277 271.335L616.665 272.784C641.47 266.137 656.19 240.64 649.543 215.836L648.094 216.224ZM616.277 271.335L615.889 269.886C592.684 276.103 568.832 262.332 562.615 239.128L561.166 239.516L559.717 239.904C566.363 264.709 591.86 279.43 616.665 272.784L616.277 271.335ZM561.166 239.516L562.615 239.128C556.397 215.924 570.168 192.073 593.373 185.855L592.984 184.406L592.596 182.957C567.791 189.604 553.071 215.1 559.717 239.904L561.166 239.516ZM599.365 241.508L599.902 240.108C593.328 237.584 585.954 240.868 583.431 247.442L584.831 247.979L586.232 248.517C588.161 243.49 593.8 240.979 598.827 242.908L599.365 241.508ZM584.831 247.979L583.431 247.442C580.908 254.015 584.191 261.39 590.764 263.913L591.302 262.513L591.839 261.112C586.813 259.183 584.302 253.544 586.232 248.517L584.831 247.979ZM591.302 262.513L590.764 263.913C597.338 266.436 604.713 263.153 607.236 256.58L605.836 256.042L604.436 255.505C602.506 260.531 596.866 263.042 591.839 261.112L591.302 262.513ZM605.836 256.042L607.236 256.58C609.76 250.006 606.476 242.631 599.902 240.108L599.365 241.508L598.827 242.908C603.854 244.838 606.365 250.478 604.436 255.505L605.836 256.042ZM631.793 235.396L632.737 234.23C627.265 229.799 619.237 230.643 614.806 236.115L615.971 237.059L617.137 238.003C620.526 233.819 626.665 233.173 630.849 236.562L631.793 235.396ZM615.971 237.059L614.806 236.115C610.375 241.587 611.218 249.615 616.69 254.047L617.634 252.881L618.578 251.715C614.393 248.327 613.749 242.188 617.137 238.003L615.971 237.059ZM617.634 252.881L616.69 254.047C622.162 258.478 630.191 257.633 634.622 252.161L633.456 251.217L632.29 250.273C628.902 254.458 622.762 255.104 618.578 251.715L617.634 252.881ZM633.456 251.217L634.622 252.161C639.053 246.689 638.209 238.661 632.737 234.23L631.793 235.396L630.849 236.562C635.033 239.95 635.679 246.089 632.29 250.274L633.456 251.217ZM579.356 215.268L579.435 213.77C572.403 213.402 566.404 218.803 566.036 225.835L567.534 225.913L569.032 225.992C569.314 220.615 573.901 216.484 579.278 216.766L579.356 215.268ZM567.534 225.913L566.036 225.835C565.667 232.866 571.069 238.865 578.101 239.234L578.179 237.736L578.258 236.238C572.881 235.956 568.75 231.369 569.032 225.992L567.534 225.913ZM578.179 237.736L578.101 239.234C585.132 239.602 591.131 234.201 591.499 227.169L590.002 227.091L588.504 227.012C588.222 232.389 583.634 236.519 578.258 236.238L578.179 237.736ZM590.002 227.091L591.499 227.169C591.868 220.137 586.466 214.139 579.435 213.77L579.356 215.268L579.278 216.766C584.655 217.048 588.785 221.635 588.504 227.012L590.002 227.091ZM635.739 207.637L636.997 206.82C633.162 200.915 625.265 199.236 619.36 203.071L620.177 204.329L620.994 205.587C625.509 202.655 631.548 203.938 634.481 208.454L635.739 207.637ZM620.177 204.329L619.36 203.071C613.455 206.906 611.776 214.803 615.611 220.708L616.869 219.891L618.127 219.074C615.195 214.559 616.478 208.52 620.994 205.587L620.177 204.329ZM616.869 219.891L615.611 220.708C619.446 226.614 627.343 228.291 633.248 224.456L632.431 223.198L631.614 221.94C627.098 224.873 621.06 223.59 618.127 219.074L616.869 219.891ZM632.431 223.198L633.248 224.456C639.153 220.621 640.832 212.725 636.997 206.82L635.739 207.637L634.481 208.454C637.413 212.969 636.13 219.007 631.614 221.94L632.431 223.198ZM594.997 191.997L594.609 190.548C587.808 192.371 583.771 199.363 585.593 206.164L587.042 205.776L588.491 205.387C587.097 200.186 590.184 194.84 595.385 193.446L594.997 191.997ZM587.042 205.776L585.593 206.164C587.416 212.965 594.407 217.001 601.209 215.179L600.82 213.73L600.432 212.281C595.231 213.674 589.885 210.588 588.491 205.387L587.042 205.776ZM600.82 213.73L601.209 215.179C608.01 213.356 612.046 206.365 610.223 199.564L608.775 199.952L607.326 200.341C608.719 205.542 605.633 210.887 600.432 212.281L600.82 213.73ZM608.775 199.952L610.223 199.564C608.401 192.763 601.41 188.726 594.609 190.548L594.997 191.997L595.385 193.446C600.586 192.053 605.932 195.14 607.326 200.341L608.775 199.952Z" fill="#191816"/>
</g>
<path id="Polygon 9" d="M539.069 346.778L590.271 306.754L599.332 371.108L539.069 346.778Z" fill="#FFE6B5" stroke="#191816" stroke-width="5"/>
<rect id="Rectangle 119" x="186.895" y="388.405" width="61.8698" height="61.8698" transform="rotate(-66.3399 186.895 388.405)" fill="#FFCCFF" stroke="#191816" stroke-width="5"/>
<circle id="Ellipse 825" cx="533.48" cy="111.923" r="18.5208" transform="rotate(-15 533.48 111.923)" fill="#CCE5FF" stroke="#191816" stroke-width="3"/>
<g id="Vector 682">
<path d="M586.878 119.744L597.978 97.8548C598.774 96.2864 601.154 96.5069 601.774 98.1523C607.515 113.38 618.657 121.58 618.657 121.58C618.657 121.58 636.341 124.92 651.117 122.52C660.472 121.001 671.577 116.532 678.467 113.457C680.267 112.653 682.078 114.756 680.913 116.347C673.433 126.566 665.321 133.402 647.437 136.76C623.831 141.193 604.448 133.796 591.103 129.446C587.11 128.144 584.978 123.491 586.878 119.744Z" fill="#FFCCFF"/>
<path d="M647.437 136.76C623.831 141.193 604.448 133.796 591.103 129.446C587.11 128.144 584.978 123.491 586.878 119.744L597.978 97.8548C598.774 96.2864 601.154 96.5069 601.774 98.1523C607.515 113.38 618.657 121.58 618.657 121.58M647.437 136.76C665.321 133.402 673.433 126.566 680.913 116.347C682.078 114.756 680.267 112.653 678.467 113.457C671.577 116.532 660.472 121.001 651.117 122.52C636.341 124.92 618.657 121.58 618.657 121.58M647.437 136.76C647.437 136.76 628.077 131.64 618.657 121.58" stroke="#191816" stroke-width="5"/>
</g>
<g id="Group 1171276346">
<path id="Vector 790" d="M310.797 288.6L190.477 227.8L231.117 216.28L292.077 261.56L310.797 288.6Z" fill="#FFFDFA"/>
<path id="Vector 688" d="M190.156 226.84L310.636 288.6" stroke="#322D20" stroke-width="3" stroke-linecap="round"/>
<path id="Vector 687" d="M230.316 215.32L291.436 261.88" stroke="#322D20" stroke-width="3" stroke-linecap="round"/>
</g>
<g id="Group 1171276345">
<path id="Vector 789" d="M546.477 160.44L506.637 236.6L510.157 247L576.397 179.32L546.477 160.44Z" fill="#FFFDFA"/>
<path id="Vector 685" d="M506.953 236.12L546.313 160.92" stroke="#322D20" stroke-width="3" stroke-linecap="round"/>
<path id="Vector 686" d="M510.156 246.84L576.236 179.16" stroke="#322D20" stroke-width="3" stroke-linecap="round"/>
</g>
<g id="Group 1171276349">
<path id="Vector 789_2" d="M650.637 153.448L532.392 270.997L524.793 293.014L653.15 191.227L650.637 153.448Z" fill="#FFFDFA"/>
<path id="Vector 685_2" d="M528.877 273.88L650.636 154.728" stroke="#322D20" stroke-width="3" stroke-linecap="round"/>
<path id="Vector 686_2" d="M529.519 288.28L653.173 190.838" stroke="#322D20" stroke-width="3" stroke-linecap="round"/>
</g>
<g id="Group 1171276340">
<g id="Group 1171276342">
<path id="Intersect" d="M386.395 217.541C391.84 216.191 397.327 219.516 398.649 224.968L403.097 243.303C395.48 241.792 388.334 241.768 381.78 241.614L378.93 229.859C377.607 224.406 380.949 218.892 386.395 217.541Z" fill="#FF4D4D"/>
<path id="Vector 785" d="M392.4 242.36L389.52 228.44" stroke="#9F0000" stroke-width="3" stroke-linecap="round"/>
</g>
<path id="Vector 680_2" d="M376.719 241.4C376.719 241.4 410.639 241.08 430.319 259.32" stroke="#191816" stroke-width="5" stroke-linecap="round"/>
</g>
<g id="Group 1171276347">
<path id="Vector 788" d="M253.199 96.4402L254.466 137.718C254.475 138.034 254.562 138.341 254.721 138.615C275.398 174.293 309.676 213.874 327.604 230.736C328.105 231.207 328.803 231.347 329.481 231.233C333.014 230.636 339.371 231.135 339.6 231.48C311.056 198.84 263.438 123.64 253.199 96.4402Z" fill="#FFFDFA"/>
<path id="Vector 683" d="M253.84 97.2315C277.069 154.243 340.777 233.18 340.777 233.18" stroke="#322D20" stroke-width="3" stroke-linecap="round" stroke-linejoin="round"/>
<path id="Vector 684" d="M254.16 138.421C274.606 177.145 325.245 228.545 325.245 228.545" stroke="#322D20" stroke-width="3" stroke-linecap="round" stroke-linejoin="round"/>
</g>
</g>
</g>
<defs>
<linearGradient id="paint0_linear_1309_4854" x1="396.106" y1="25.9274" x2="376.417" y2="107.792" gradientUnits="userSpaceOnUse">
<stop offset="0.0448614" stop-color="#FFC249"/>
<stop offset="0.5" stop-color="#65FFA2"/>
<stop offset="1" stop-color="#26BBFF"/>
</linearGradient>
<clipPath id="clip0_1309_4854">
<rect width="800" height="450" fill="white"/>
</clipPath>
</defs>
</svg>
