<svg width="24" height="24" viewBox="0 0 24 24" fill="none" xmlns="http://www.w3.org/2000/svg">
<g id="&#228;&#189;&#141;&#231;&#189;&#174;">
<g id="Group 1171275856">
<path id="Vector" d="M17.4737 20L12.4211 7.36841M20 5.6842L4 9.05263" stroke="#FFC249" stroke-width="0.8"/>
<path id="Rectangle 4214" d="M4 7.2C4 6.07989 4 5.51984 4.21799 5.09202C4.40973 4.71569 4.71569 4.40973 5.09202 4.21799C5.51984 4 6.07989 4 7.2 4H16.8C17.9201 4 18.4802 4 18.908 4.21799C19.2843 4.40973 19.5903 4.71569 19.782 5.09202C20 5.51984 20 6.07989 20 7.2V16.8C20 17.9201 20 18.4802 19.782 18.908C19.5903 19.2843 19.2843 19.5903 18.908 19.782C18.4802 20 17.9201 20 16.8 20H7.2C6.07989 20 5.51984 20 5.09202 19.782C4.71569 19.5903 4.40973 19.2843 4.21799 18.908C4 18.4802 4 17.9201 4 16.8V7.2Z" stroke="#FFFDFA" stroke-linecap="round"/>
<path id="Ellipse 4" d="M12.4211 14.5511C12.4211 16.3203 10.714 17.5771 9.89815 18.0767C9.63522 18.2378 9.31225 18.2378 9.04932 18.0767C8.2335 17.5771 6.52637 16.3203 6.52637 14.5511C6.52637 12.7678 7.95447 11.579 9.47374 11.579C11.0457 11.579 12.4211 12.7678 12.4211 14.5511Z" stroke="#FFFDFA"/>
<circle id="Ellipse 169" cx="9.47345" cy="14.5263" r="0.842105" fill="#FFFDFA"/>
</g>
</g>
</svg>
