<svg width="48" height="48" viewBox="0 0 48 48" fill="none" xmlns="http://www.w3.org/2000/svg">
<g id="&#230;&#146;&#173;&#230;&#148;&#190;">
<circle id="Ellipse 2" cx="24" cy="24" r="24" fill="#6F6855" fill-opacity="0.2"/>
<g id="Group 45">
<g id="Group 46">
<ellipse id="Ellipse 1" cx="24.9811" cy="24.3428" rx="8.08368" ry="8.2569" fill="#191816"/>
<g id="play-button 1" clip-path="url(#clip0_6826_22945)">
<g id="Group">
<g id="Group_2">
<path id="Vector" d="M24.0002 10.1992C16.3787 10.1992 10.2002 16.3777 10.2002 23.9992C10.2002 31.6207 16.3787 37.7992 24.0002 37.7992C31.6217 37.7992 37.8001 31.6207 37.8001 23.9992C37.7921 16.3811 31.6183 10.2074 24.0002 10.1992ZM29.8119 24.4389C29.7163 24.6305 29.561 24.7859 29.3693 24.8814V24.8863L21.4837 28.8292C20.9966 29.0725 20.4046 28.8751 20.1613 28.3881C20.0921 28.2496 20.0564 28.0968 20.0573 27.9421V20.0564C20.0571 19.512 20.4982 19.0705 21.0426 19.0702C21.1957 19.0701 21.3467 19.1057 21.4837 19.1741L29.3693 23.117C29.8566 23.3598 30.0547 23.9517 29.8119 24.4389Z" fill="#6ECCCC"/>
</g>
</g>
</g>
</g>
</g>
</g>
<defs>
<clipPath id="clip0_6826_22945">
<rect width="27.6" height="27.6" fill="white" transform="translate(10.2002 10.1992)"/>
</clipPath>
</defs>
</svg>
