<svg width="24" height="24" viewBox="0 0 24 24" fill="none" xmlns="http://www.w3.org/2000/svg">
<g id="&#230;&#182;&#166;&#232;&#137;&#178;" clip-path="url(#clip0_1943_72680)">
<g id="Group 1171276283">
<rect id="Rectangle 34624846" x="0.0915061" y="0.341505" width="0.5" height="6.5" rx="0.25" transform="matrix(0.866027 0.499998 -0.500002 0.866024 9.81778 14.098)" stroke="#E1DCD0" stroke-width="0.5"/>
<path id="Star 11" d="M16.1855 3.38189C16.3268 3.2738 16.5284 3.39015 16.5054 3.56656L15.9164 8.09104C15.9068 8.16541 15.9395 8.23894 16.0012 8.28151L19.7577 10.8713C19.9041 10.9723 19.8558 11.1999 19.6809 11.2326L15.1959 12.0706C15.1221 12.0844 15.0623 12.1382 15.0409 12.2101L13.7387 16.583C13.6879 16.7535 13.4565 16.7778 13.3714 16.6216L11.1884 12.615C11.1525 12.5492 11.0828 12.5089 11.0078 12.5108L6.44658 12.6236C6.26873 12.6279 6.17409 12.4154 6.29636 12.2862L9.43225 8.97194C9.48379 8.91747 9.50053 8.83873 9.4756 8.768L7.95883 4.46484C7.89969 4.29705 8.07261 4.14135 8.23329 4.21771L12.3543 6.17597C12.4221 6.20816 12.5021 6.19975 12.5617 6.15418L16.1855 3.38189Z" stroke="#FFC249"/>
<g id="Group 1171276282">
<path id="Line 147" d="M17.6973 14.134L19.4293 15.134" stroke="#FFC249" stroke-linecap="round"/>
<path id="Line 148" d="M17.1973 16.7321L16.6973 15.866" stroke="#FFC249" stroke-linecap="round"/>
</g>
</g>
</g>
<defs>
<clipPath id="clip0_1943_72680">
<rect width="24" height="24" fill="white"/>
</clipPath>
</defs>
</svg>
