<svg width="41" height="40" viewBox="0 0 41 40" fill="none" xmlns="http://www.w3.org/2000/svg">
<g id="&#232;&#180;&#173;&#228;&#185;&#176;">
<g id="Group 1171276014">
<g id="Group 1171276013">
<path id="Vector" d="M13.5 9L9.5 15M27.5 9L31.5 15" stroke="#A8A292" stroke-linecap="round"/>
<path id="Rectangle 34624779" d="M15.2741 34H25.7259C27.2487 34 28.0101 34 28.5561 33.5667C29.1022 33.1333 29.2752 32.3919 29.6213 30.9089L32.5562 18.3306C32.6014 18.137 32.774 18 32.9728 18C33.2208 18 33.27 17.6486 33.0316 17.5804L21.5374 14.2964C21.0529 14.158 20.8106 14.0887 20.5623 14.081C20.5208 14.0797 20.4792 14.0797 20.4377 14.081C20.1894 14.0887 19.9471 14.158 19.4626 14.2964L7.96845 17.5804C7.72996 17.6486 7.77918 18 8.02721 18C8.22602 18 8.39863 18.137 8.4438 18.3306L11.3787 30.9089C11.7248 32.3919 11.8978 33.1333 12.4439 33.5667C12.9899 34 13.7513 34 15.2741 34Z" fill="#191816" stroke="#A8A292" stroke-linecap="round"/>
<g id="Group 1171276009">
<path id="Vector 342" d="M20.5 29L20.5 23" stroke="#FFC249" stroke-width="2" stroke-linecap="round"/>
<path id="Vector 343" d="M25.9551 29L27.4103 23.1791" stroke="#CCE5FF" stroke-width="1.5" stroke-linecap="round"/>
<path id="Vector 344" d="M14.9551 29L13.4999 23.1791" stroke="#FFCCFF" stroke-width="1.5" stroke-linecap="round"/>
</g>
<rect id="Rectangle 34624778" x="4.5" y="14" width="32" height="5" rx="2.5" fill="#191816" stroke="#A8A292"/>
<rect id="Rectangle 34624780" x="4.5" y="14" width="32" height="5" rx="2.5" stroke="#A8A292"/>
</g>
<path id="Star 4" d="M13.5 4L13.6663 5.00954C13.736 5.43252 14.0675 5.76404 14.4905 5.83371L15.5 6L14.4905 6.16629C14.0675 6.23596 13.736 6.56748 13.6663 6.99046L13.5 8L13.3337 6.99047C13.264 6.56748 12.9325 6.23596 12.5095 6.16629L11.5 6L12.5095 5.83371C12.9325 5.76404 13.264 5.43252 13.3337 5.00954L13.5 4Z" fill="#26BBFF"/>
<path id="Star 7" d="M7 9L7.09558 9.58025C7.16525 10.0032 7.49677 10.3348 7.91975 10.4044L8.5 10.5L7.91975 10.5956C7.49677 10.6652 7.16525 10.9968 7.09558 11.4198L7 12L6.90442 11.4198C6.83475 10.9968 6.50323 10.6652 6.08025 10.5956L5.5 10.5L6.08025 10.4044C6.50323 10.3348 6.83475 10.0032 6.90442 9.58025L7 9Z" fill="#26BBFF"/>
<path id="Star 6" d="M30.5 2L30.9491 4.72669C31.0188 5.14968 31.3503 5.4812 31.7733 5.55087L34.5 6L31.7733 6.44913C31.3503 6.5188 31.0188 6.85032 30.9491 7.27331L30.5 10L30.0509 7.27331C29.9812 6.85032 29.6497 6.5188 29.2267 6.44913L26.5 6L29.2267 5.55087C29.6497 5.4812 29.9812 5.14968 30.0509 4.72669L30.5 2Z" fill="#26BBFF"/>
<path id="Star 5" d="M24.5 11L24.5249 11.151C24.5945 11.5739 24.9261 11.9055 25.349 11.9751L25.5 12L25.349 12.0249C24.9261 12.0945 24.5945 12.4261 24.5249 12.849L24.5 13L24.4751 12.849C24.4055 12.4261 24.0739 12.0945 23.651 12.0249L23.5 12L23.651 11.9751C24.0739 11.9055 24.4055 11.5739 24.4751 11.151L24.5 11Z" fill="#26BBFF"/>
</g>
</g>
</svg>
