<svg width="32" height="32" viewBox="0 0 32 32" fill="none" xmlns="http://www.w3.org/2000/svg">
<g id="1">
<g id="Group 1171275791">
<g id="Group 1171275825">
<circle id="Ellipse 188" cx="11.8" cy="19.2" r="0.4" fill="#FFCCFF" stroke="#FFFDFA" stroke-width="0.8"/>
<circle id="Ellipse 190" cx="11.8" cy="21.6" r="0.4" fill="#CCE5FF" stroke="#FFFDFA" stroke-width="0.8"/>
<rect id="Rectangle 34624673" x="11.4" y="12.4" width="0.8" height="4.8" rx="0.4" fill="#26BBFF" stroke="#FFFDFA" stroke-width="0.8"/>
</g>
<rect id="Rectangle 34624665" x="13" y="6" width="6" height="3.125" rx="0.8" fill="#322D20" stroke="#FFFDFA" stroke-width="0.8"/>
<g id="Group 1171275788">
<g id="Group 1171275824">
<rect id="Rectangle 34624672" x="10" y="10.2" width="12" height="14" rx="1.6" fill="#FFC249" stroke="#FFFDFA" stroke-width="0.8"/>
<g id="Mask group">
<mask id="mask0_1284_21190" style="mask-type:alpha" maskUnits="userSpaceOnUse" x="10" y="10" width="12" height="15">
<rect id="Rectangle 34624671" x="10.4" y="10.6" width="11.2" height="13.2" rx="1.2" fill="#D9D9D9" stroke="#FFFDFA" stroke-width="0.8"/>
</mask>
<g mask="url(#mask0_1284_21190)">
<g id="Group 1171275793">
<g id="Subtract">
<mask id="path-7-inside-1_1284_21190" fill="white">
<path fill-rule="evenodd" clip-rule="evenodd" d="M1.99995 12.1002C1.99995 12.2658 2.13423 12.4001 2.29987 12.4001L80.8 12.4C81.4627 12.4 82 11.8627 82 11.2C82 10.5373 81.4627 10.0001 80.8 10.0001L2.29998 10.0002C2.13428 10.0002 1.99995 10.1345 1.99995 10.3002C1.99995 10.4659 2.13428 10.6003 2.29998 10.6003L2.48047 10.6003C2.51728 10.6003 2.54713 10.6301 2.54713 10.6669L2.54713 11.7336C2.54713 11.7704 2.51728 11.8003 2.48047 11.8003L2.29986 11.8003C2.13423 11.8003 1.99995 11.9345 1.99995 12.1002ZM81.2766 11.8003C81.3135 11.8003 81.3433 11.7704 81.3433 11.7336L81.3433 10.6669C81.3433 10.6301 81.3135 10.6003 81.2766 10.6003L80.3156 10.6003C80.2788 10.6003 80.2489 10.6301 80.2489 10.6669L80.2489 11.7336C80.2489 11.7704 80.2788 11.8003 80.3156 11.8003L81.2766 11.8003ZM79.3734 11.7336C79.3734 11.7704 79.3436 11.8003 79.3068 11.8003L78.3457 11.8003C78.3089 11.8003 78.279 11.7704 78.279 11.7336L78.279 10.6669C78.279 10.6301 78.3089 10.6003 78.3457 10.6003L79.3068 10.6003C79.3436 10.6003 79.3734 10.6301 79.3734 10.6669L79.3734 11.7336ZM77.3368 11.8003C77.3737 11.8003 77.4035 11.7704 77.4035 11.7336L77.4035 10.6669C77.4035 10.6301 77.3737 10.6003 77.3368 10.6003L76.3758 10.6003C76.339 10.6003 76.3091 10.6301 76.3091 10.6669L76.3091 11.7336C76.3091 11.7704 76.339 11.8003 76.3758 11.8003L77.3368 11.8003ZM75.4336 11.7336C75.4336 11.7704 75.4037 11.8003 75.3669 11.8003L74.4059 11.8003C74.3691 11.8003 74.3392 11.7704 74.3392 11.7336L74.3392 10.6669C74.3392 10.6301 74.3691 10.6003 74.4059 10.6003L75.3669 10.6003C75.4037 10.6003 75.4336 10.6301 75.4336 10.6669L75.4336 11.7336ZM73.397 11.8003C73.4338 11.8003 73.4637 11.7704 73.4637 11.7336L73.4637 10.6669C73.4637 10.6301 73.4338 10.6003 73.397 10.6003L72.436 10.6003C72.3991 10.6003 72.3693 10.6301 72.3693 10.6669L72.3693 11.7336C72.3693 11.7704 72.3991 11.8003 72.436 11.8003L73.397 11.8003ZM71.4938 11.7336C71.4938 11.7704 71.464 11.8003 71.4271 11.8003L70.4661 11.8003C70.4293 11.8003 70.3994 11.7704 70.3994 11.7336L70.3994 10.6669C70.3994 10.6301 70.4293 10.6003 70.4661 10.6003L71.4271 10.6003C71.464 10.6003 71.4938 10.6301 71.4938 10.6669L71.4938 11.7336ZM69.4572 11.8003C69.4941 11.8003 69.5239 11.7704 69.5239 11.7336L69.5239 10.6669C69.5239 10.6301 69.4941 10.6003 69.4572 10.6003L68.4962 10.6003C68.4594 10.6003 68.4295 10.6301 68.4295 10.6669L68.4295 11.7336C68.4295 11.7704 68.4594 11.8003 68.4962 11.8003L69.4572 11.8003ZM67.554 11.7336C67.554 11.7704 67.5242 11.8003 67.4873 11.8003L66.5263 11.8003C66.4895 11.8003 66.4596 11.7704 66.4596 11.7336L66.4596 10.6669C66.4596 10.6301 66.4895 10.6003 66.5263 10.6003L67.4873 10.6003C67.5242 10.6003 67.554 10.6301 67.554 10.6669L67.554 11.7336ZM65.5174 11.8003C65.5543 11.8003 65.5841 11.7704 65.5841 11.7336L65.5841 10.6669C65.5841 10.6301 65.5543 10.6003 65.5174 10.6003L64.5564 10.6003C64.5196 10.6003 64.4897 10.6301 64.4897 10.6669L64.4897 11.7336C64.4897 11.7704 64.5196 11.8003 64.5564 11.8003L65.5174 11.8003ZM63.6142 11.7336C63.6142 11.7704 63.5843 11.8003 63.5475 11.8003L62.5864 11.8003C62.5496 11.8003 62.5198 11.7704 62.5198 11.7336L62.5198 10.6669C62.5198 10.6301 62.5496 10.6003 62.5864 10.6003L63.5475 10.6003C63.5843 10.6003 63.6142 10.6301 63.6142 10.6669L63.6142 11.7336ZM61.5776 11.8003C61.6144 11.8003 61.6443 11.7704 61.6443 11.7336L61.6443 10.6669C61.6443 10.6301 61.6144 10.6003 61.5776 10.6003L60.6165 10.6003C60.5797 10.6003 60.5499 10.6301 60.5499 10.6669L60.5499 11.7336C60.5499 11.7704 60.5797 11.8003 60.6165 11.8003L61.5776 11.8003ZM59.6744 11.7336C59.6744 11.7704 59.6445 11.8003 59.6077 11.8003L58.6466 11.8003C58.6098 11.8003 58.58 11.7704 58.58 11.7336L58.58 10.6669C58.58 10.6301 58.6098 10.6003 58.6466 10.6003L59.6077 10.6003C59.6445 10.6003 59.6744 10.6301 59.6744 10.6669L59.6744 11.7336ZM57.6378 11.8003C57.6746 11.8003 57.7045 11.7704 57.7045 11.7336L57.7045 10.6669C57.7045 10.6301 57.6746 10.6003 57.6378 10.6003L56.6767 10.6003C56.6399 10.6003 56.6101 10.6301 56.6101 10.6669L56.6101 11.7336C56.6101 11.7704 56.6399 11.8003 56.6767 11.8003L57.6378 11.8003ZM55.7346 11.7336C55.7346 11.7704 55.7047 11.8003 55.6679 11.8003L54.7068 11.8003C54.67 11.8003 54.6402 11.7704 54.6402 11.7336L54.6402 10.6669C54.6402 10.6301 54.67 10.6003 54.7068 10.6003L55.6679 10.6003C55.7047 10.6003 55.7346 10.6301 55.7346 10.6669L55.7346 11.7336ZM53.698 11.8003C53.7348 11.8003 53.7647 11.7704 53.7647 11.7336L53.7647 10.6669C53.7647 10.6301 53.7348 10.6003 53.698 10.6003L52.737 10.6003C52.7001 10.6003 52.6703 10.6301 52.6703 10.6669L52.6703 11.7336C52.6703 11.7704 52.7001 11.8003 52.737 11.8003L53.698 11.8003ZM51.7948 11.7336C51.7948 11.7704 51.7649 11.8003 51.7281 11.8003L50.767 11.8003C50.7302 11.8003 50.7004 11.7704 50.7004 11.7336L50.7004 10.6669C50.7004 10.6301 50.7302 10.6003 50.767 10.6003L51.7281 10.6003C51.7649 10.6003 51.7948 10.6301 51.7948 10.6669L51.7948 11.7336ZM49.7582 11.8003C49.795 11.8003 49.8249 11.7704 49.8249 11.7336L49.8249 10.6669C49.8249 10.6301 49.795 10.6003 49.7582 10.6003L48.7971 10.6003C48.7603 10.6003 48.7305 10.6301 48.7305 10.6669L48.7305 11.7336C48.7305 11.7704 48.7603 11.8003 48.7971 11.8003L49.7582 11.8003ZM47.8549 11.7336C47.8549 11.7704 47.8251 11.8003 47.7883 11.8003L46.8272 11.8003C46.7904 11.8003 46.7605 11.7704 46.7605 11.7336L46.7605 10.6669C46.7605 10.6301 46.7904 10.6003 46.8272 10.6003L47.7883 10.6003C47.8251 10.6003 47.8549 10.6301 47.8549 10.6669L47.8549 11.7336ZM45.8184 11.8003C45.8552 11.8003 45.885 11.7704 45.885 11.7336L45.885 10.6669C45.885 10.6301 45.8552 10.6003 45.8184 10.6003L44.8573 10.6003C44.8205 10.6003 44.7906 10.6301 44.7906 10.6669L44.7906 11.7336C44.7906 11.7704 44.8205 11.8003 44.8573 11.8003L45.8184 11.8003ZM43.9151 11.7336C43.9151 11.7704 43.8853 11.8003 43.8485 11.8003L42.8874 11.8003C42.8506 11.8003 42.8207 11.7704 42.8207 11.7336L42.8207 10.6669C42.8207 10.6301 42.8506 10.6003 42.8874 10.6003L43.8485 10.6003C43.8853 10.6003 43.9151 10.6301 43.9151 10.6669L43.9151 11.7336ZM41.8786 11.8003C41.9154 11.8003 41.9452 11.7704 41.9452 11.7336L41.9452 10.6669C41.9452 10.6301 41.9154 10.6003 41.8786 10.6003L40.9175 10.6003C40.8807 10.6003 40.8508 10.6301 40.8508 10.6669L40.8508 11.7336C40.8508 11.7704 40.8807 11.8003 40.9175 11.8003L41.8786 11.8003ZM39.9753 11.7336C39.9753 11.7704 39.9455 11.8003 39.9087 11.8003L38.9476 11.8003C38.9108 11.8003 38.881 11.7704 38.881 11.7336L38.881 10.6669C38.881 10.6301 38.9108 10.6003 38.9476 10.6003L39.9087 10.6003C39.9455 10.6003 39.9753 10.6301 39.9753 10.6669L39.9753 11.7336ZM37.9388 11.8003C37.9756 11.8003 38.0054 11.7704 38.0054 11.7336L38.0054 10.6669C38.0054 10.6301 37.9756 10.6003 37.9388 10.6003L36.9777 10.6003C36.9409 10.6003 36.9111 10.6301 36.9111 10.6669L36.9111 11.7336C36.9111 11.7704 36.9409 11.8003 36.9777 11.8003L37.9388 11.8003ZM36.0355 11.7336C36.0355 11.7704 36.0057 11.8003 35.9689 11.8003L35.0078 11.8003C34.971 11.8003 34.9411 11.7704 34.9411 11.7336L34.9411 10.6669C34.9411 10.6301 34.971 10.6003 35.0078 10.6003L35.9689 10.6003C36.0057 10.6003 36.0355 10.6301 36.0355 10.6669L36.0355 11.7336ZM33.9989 11.8003C34.0358 11.8003 34.0656 11.7704 34.0656 11.7336L34.0656 10.6669C34.0656 10.6301 34.0358 10.6003 33.9989 10.6003L33.0379 10.6003C33.0011 10.6003 32.9712 10.6301 32.9712 10.6669L32.9712 11.7336C32.9712 11.7704 33.0011 11.8003 33.0379 11.8003L33.9989 11.8003ZM32.0957 11.7336C32.0957 11.7704 32.0659 11.8003 32.029 11.8003L31.068 11.8003C31.0312 11.8003 31.0013 11.7704 31.0013 11.7336L31.0013 10.6669C31.0013 10.6301 31.0312 10.6003 31.068 10.6003L32.029 10.6003C32.0659 10.6003 32.0957 10.6301 32.0957 10.6669L32.0957 11.7336ZM30.0591 11.8003C30.0959 11.8003 30.1258 11.7704 30.1258 11.7336L30.1258 10.6669C30.1258 10.6301 30.0959 10.6003 30.0591 10.6003L29.0981 10.6003C29.0613 10.6003 29.0314 10.6301 29.0314 10.6669L29.0314 11.7336C29.0314 11.7704 29.0613 11.8003 29.0981 11.8003L30.0591 11.8003ZM28.1559 11.7336C28.1559 11.7704 28.126 11.8003 28.0892 11.8003L27.1282 11.8003C27.0913 11.8003 27.0615 11.7704 27.0615 11.7336L27.0615 10.6669C27.0615 10.6301 27.0913 10.6003 27.1282 10.6003L28.0892 10.6003C28.126 10.6003 28.1559 10.6301 28.1559 10.6669L28.1559 11.7336ZM26.1193 11.8003C26.1561 11.8003 26.186 11.7704 26.186 11.7336L26.186 10.6669C26.186 10.6301 26.1561 10.6003 26.1193 10.6003L25.1583 10.6003C25.1214 10.6003 25.0916 10.6301 25.0916 10.6669L25.0916 11.7336C25.0916 11.7704 25.1214 11.8003 25.1583 11.8003L26.1193 11.8003ZM24.2161 11.7336C24.2161 11.7704 24.1863 11.8003 24.1494 11.8003L23.1884 11.8003C23.1516 11.8003 23.1217 11.7704 23.1217 11.7336L23.1217 10.6669C23.1217 10.6301 23.1516 10.6003 23.1884 10.6003L24.1494 10.6003C24.1863 10.6003 24.2161 10.6301 24.2161 10.6669L24.2161 11.7336ZM22.1795 11.8003C22.2164 11.8003 22.2462 11.7704 22.2462 11.7336L22.2462 10.6669C22.2462 10.6301 22.2164 10.6003 22.1795 10.6003L21.2185 10.6003C21.1817 10.6003 21.1518 10.6301 21.1518 10.6669L21.1518 11.7336C21.1518 11.7704 21.1817 11.8003 21.2185 11.8003L22.1795 11.8003ZM20.2763 11.7336C20.2763 11.7704 20.2465 11.8003 20.2096 11.8003L19.2486 11.8003C19.2118 11.8003 19.1819 11.7704 19.1819 11.7336L19.1819 10.6669C19.1819 10.6301 19.2118 10.6003 19.2486 10.6003L20.2096 10.6003C20.2465 10.6003 20.2763 10.6301 20.2763 10.6669L20.2763 11.7336ZM18.2397 11.8003C18.2765 11.8003 18.3064 11.7704 18.3064 11.7336L18.3064 10.6669C18.3064 10.6301 18.2765 10.6003 18.2397 10.6003L17.2786 10.6003C17.2418 10.6003 17.212 10.6301 17.212 10.6669L17.212 11.7336C17.212 11.7704 17.2418 11.8003 17.2786 11.8003L18.2397 11.8003ZM16.3365 11.7336C16.3365 11.7704 16.3066 11.8003 16.2698 11.8003L15.3087 11.8003C15.2719 11.8003 15.2421 11.7704 15.2421 11.7336L15.2421 10.6669C15.2421 10.6301 15.2719 10.6003 15.3087 10.6003L16.2698 10.6003C16.3066 10.6003 16.3365 10.6301 16.3365 10.6669L16.3365 11.7336ZM14.2999 11.8003C14.3367 11.8003 14.3666 11.7704 14.3666 11.7336L14.3666 10.6669C14.3666 10.6301 14.3367 10.6003 14.2999 10.6003L13.3388 10.6003C13.302 10.6003 13.2722 10.6301 13.2722 10.6669L13.2722 11.7336C13.2722 11.7704 13.302 11.8003 13.3388 11.8003L14.2999 11.8003ZM12.3966 11.7336C12.3966 11.7704 12.3668 11.8003 12.33 11.8003L11.3689 11.8003C11.3321 11.8003 11.3023 11.7704 11.3023 11.7336L11.3023 10.6669C11.3023 10.6301 11.3321 10.6003 11.3689 10.6003L12.33 10.6003C12.3668 10.6003 12.3966 10.6301 12.3966 10.6669L12.3966 11.7336ZM10.3601 11.8003C10.3969 11.8003 10.4268 11.7704 10.4268 11.7336L10.4268 10.6669C10.4268 10.6301 10.3969 10.6003 10.3601 10.6003L9.39906 10.6003C9.36224 10.6003 9.33239 10.6301 9.33239 10.6669L9.33239 11.7336C9.33239 11.7704 9.36224 11.8003 9.39906 11.8003L10.3601 11.8003ZM8.45688 11.7336C8.45688 11.7704 8.42703 11.8003 8.39021 11.8003L7.42915 11.8003C7.39234 11.8003 7.36248 11.7704 7.36248 11.7336L7.36248 10.6669C7.36248 10.6301 7.39234 10.6003 7.42915 10.6003L8.39021 10.6003C8.42703 10.6003 8.45688 10.6301 8.45688 10.6669L8.45688 11.7336ZM6.42031 11.8003C6.45713 11.8003 6.48697 11.7704 6.48697 11.7336L6.48697 10.6669C6.48697 10.6301 6.45713 10.6003 6.42031 10.6003L5.45925 10.6003C5.42243 10.6003 5.39258 10.6301 5.39258 10.6669L5.39258 11.7336C5.39258 11.7704 5.42243 11.8003 5.45925 11.8003L6.42031 11.8003ZM4.51703 11.7336C4.51703 11.7704 4.48719 11.8003 4.45037 11.8003L3.48931 11.8003C3.4525 11.8003 3.42264 11.7704 3.42264 11.7336L3.42264 10.6669C3.42264 10.6301 3.4525 10.6003 3.48931 10.6003L4.45037 10.6003C4.48719 10.6003 4.51703 10.6301 4.51703 10.6669L4.51703 11.7336Z"/>
</mask>
<path fill-rule="evenodd" clip-rule="evenodd" d="M1.99995 12.1002C1.99995 12.2658 2.13423 12.4001 2.29987 12.4001L80.8 12.4C81.4627 12.4 82 11.8627 82 11.2C82 10.5373 81.4627 10.0001 80.8 10.0001L2.29998 10.0002C2.13428 10.0002 1.99995 10.1345 1.99995 10.3002C1.99995 10.4659 2.13428 10.6003 2.29998 10.6003L2.48047 10.6003C2.51728 10.6003 2.54713 10.6301 2.54713 10.6669L2.54713 11.7336C2.54713 11.7704 2.51728 11.8003 2.48047 11.8003L2.29986 11.8003C2.13423 11.8003 1.99995 11.9345 1.99995 12.1002ZM81.2766 11.8003C81.3135 11.8003 81.3433 11.7704 81.3433 11.7336L81.3433 10.6669C81.3433 10.6301 81.3135 10.6003 81.2766 10.6003L80.3156 10.6003C80.2788 10.6003 80.2489 10.6301 80.2489 10.6669L80.2489 11.7336C80.2489 11.7704 80.2788 11.8003 80.3156 11.8003L81.2766 11.8003ZM79.3734 11.7336C79.3734 11.7704 79.3436 11.8003 79.3068 11.8003L78.3457 11.8003C78.3089 11.8003 78.279 11.7704 78.279 11.7336L78.279 10.6669C78.279 10.6301 78.3089 10.6003 78.3457 10.6003L79.3068 10.6003C79.3436 10.6003 79.3734 10.6301 79.3734 10.6669L79.3734 11.7336ZM77.3368 11.8003C77.3737 11.8003 77.4035 11.7704 77.4035 11.7336L77.4035 10.6669C77.4035 10.6301 77.3737 10.6003 77.3368 10.6003L76.3758 10.6003C76.339 10.6003 76.3091 10.6301 76.3091 10.6669L76.3091 11.7336C76.3091 11.7704 76.339 11.8003 76.3758 11.8003L77.3368 11.8003ZM75.4336 11.7336C75.4336 11.7704 75.4037 11.8003 75.3669 11.8003L74.4059 11.8003C74.3691 11.8003 74.3392 11.7704 74.3392 11.7336L74.3392 10.6669C74.3392 10.6301 74.3691 10.6003 74.4059 10.6003L75.3669 10.6003C75.4037 10.6003 75.4336 10.6301 75.4336 10.6669L75.4336 11.7336ZM73.397 11.8003C73.4338 11.8003 73.4637 11.7704 73.4637 11.7336L73.4637 10.6669C73.4637 10.6301 73.4338 10.6003 73.397 10.6003L72.436 10.6003C72.3991 10.6003 72.3693 10.6301 72.3693 10.6669L72.3693 11.7336C72.3693 11.7704 72.3991 11.8003 72.436 11.8003L73.397 11.8003ZM71.4938 11.7336C71.4938 11.7704 71.464 11.8003 71.4271 11.8003L70.4661 11.8003C70.4293 11.8003 70.3994 11.7704 70.3994 11.7336L70.3994 10.6669C70.3994 10.6301 70.4293 10.6003 70.4661 10.6003L71.4271 10.6003C71.464 10.6003 71.4938 10.6301 71.4938 10.6669L71.4938 11.7336ZM69.4572 11.8003C69.4941 11.8003 69.5239 11.7704 69.5239 11.7336L69.5239 10.6669C69.5239 10.6301 69.4941 10.6003 69.4572 10.6003L68.4962 10.6003C68.4594 10.6003 68.4295 10.6301 68.4295 10.6669L68.4295 11.7336C68.4295 11.7704 68.4594 11.8003 68.4962 11.8003L69.4572 11.8003ZM67.554 11.7336C67.554 11.7704 67.5242 11.8003 67.4873 11.8003L66.5263 11.8003C66.4895 11.8003 66.4596 11.7704 66.4596 11.7336L66.4596 10.6669C66.4596 10.6301 66.4895 10.6003 66.5263 10.6003L67.4873 10.6003C67.5242 10.6003 67.554 10.6301 67.554 10.6669L67.554 11.7336ZM65.5174 11.8003C65.5543 11.8003 65.5841 11.7704 65.5841 11.7336L65.5841 10.6669C65.5841 10.6301 65.5543 10.6003 65.5174 10.6003L64.5564 10.6003C64.5196 10.6003 64.4897 10.6301 64.4897 10.6669L64.4897 11.7336C64.4897 11.7704 64.5196 11.8003 64.5564 11.8003L65.5174 11.8003ZM63.6142 11.7336C63.6142 11.7704 63.5843 11.8003 63.5475 11.8003L62.5864 11.8003C62.5496 11.8003 62.5198 11.7704 62.5198 11.7336L62.5198 10.6669C62.5198 10.6301 62.5496 10.6003 62.5864 10.6003L63.5475 10.6003C63.5843 10.6003 63.6142 10.6301 63.6142 10.6669L63.6142 11.7336ZM61.5776 11.8003C61.6144 11.8003 61.6443 11.7704 61.6443 11.7336L61.6443 10.6669C61.6443 10.6301 61.6144 10.6003 61.5776 10.6003L60.6165 10.6003C60.5797 10.6003 60.5499 10.6301 60.5499 10.6669L60.5499 11.7336C60.5499 11.7704 60.5797 11.8003 60.6165 11.8003L61.5776 11.8003ZM59.6744 11.7336C59.6744 11.7704 59.6445 11.8003 59.6077 11.8003L58.6466 11.8003C58.6098 11.8003 58.58 11.7704 58.58 11.7336L58.58 10.6669C58.58 10.6301 58.6098 10.6003 58.6466 10.6003L59.6077 10.6003C59.6445 10.6003 59.6744 10.6301 59.6744 10.6669L59.6744 11.7336ZM57.6378 11.8003C57.6746 11.8003 57.7045 11.7704 57.7045 11.7336L57.7045 10.6669C57.7045 10.6301 57.6746 10.6003 57.6378 10.6003L56.6767 10.6003C56.6399 10.6003 56.6101 10.6301 56.6101 10.6669L56.6101 11.7336C56.6101 11.7704 56.6399 11.8003 56.6767 11.8003L57.6378 11.8003ZM55.7346 11.7336C55.7346 11.7704 55.7047 11.8003 55.6679 11.8003L54.7068 11.8003C54.67 11.8003 54.6402 11.7704 54.6402 11.7336L54.6402 10.6669C54.6402 10.6301 54.67 10.6003 54.7068 10.6003L55.6679 10.6003C55.7047 10.6003 55.7346 10.6301 55.7346 10.6669L55.7346 11.7336ZM53.698 11.8003C53.7348 11.8003 53.7647 11.7704 53.7647 11.7336L53.7647 10.6669C53.7647 10.6301 53.7348 10.6003 53.698 10.6003L52.737 10.6003C52.7001 10.6003 52.6703 10.6301 52.6703 10.6669L52.6703 11.7336C52.6703 11.7704 52.7001 11.8003 52.737 11.8003L53.698 11.8003ZM51.7948 11.7336C51.7948 11.7704 51.7649 11.8003 51.7281 11.8003L50.767 11.8003C50.7302 11.8003 50.7004 11.7704 50.7004 11.7336L50.7004 10.6669C50.7004 10.6301 50.7302 10.6003 50.767 10.6003L51.7281 10.6003C51.7649 10.6003 51.7948 10.6301 51.7948 10.6669L51.7948 11.7336ZM49.7582 11.8003C49.795 11.8003 49.8249 11.7704 49.8249 11.7336L49.8249 10.6669C49.8249 10.6301 49.795 10.6003 49.7582 10.6003L48.7971 10.6003C48.7603 10.6003 48.7305 10.6301 48.7305 10.6669L48.7305 11.7336C48.7305 11.7704 48.7603 11.8003 48.7971 11.8003L49.7582 11.8003ZM47.8549 11.7336C47.8549 11.7704 47.8251 11.8003 47.7883 11.8003L46.8272 11.8003C46.7904 11.8003 46.7605 11.7704 46.7605 11.7336L46.7605 10.6669C46.7605 10.6301 46.7904 10.6003 46.8272 10.6003L47.7883 10.6003C47.8251 10.6003 47.8549 10.6301 47.8549 10.6669L47.8549 11.7336ZM45.8184 11.8003C45.8552 11.8003 45.885 11.7704 45.885 11.7336L45.885 10.6669C45.885 10.6301 45.8552 10.6003 45.8184 10.6003L44.8573 10.6003C44.8205 10.6003 44.7906 10.6301 44.7906 10.6669L44.7906 11.7336C44.7906 11.7704 44.8205 11.8003 44.8573 11.8003L45.8184 11.8003ZM43.9151 11.7336C43.9151 11.7704 43.8853 11.8003 43.8485 11.8003L42.8874 11.8003C42.8506 11.8003 42.8207 11.7704 42.8207 11.7336L42.8207 10.6669C42.8207 10.6301 42.8506 10.6003 42.8874 10.6003L43.8485 10.6003C43.8853 10.6003 43.9151 10.6301 43.9151 10.6669L43.9151 11.7336ZM41.8786 11.8003C41.9154 11.8003 41.9452 11.7704 41.9452 11.7336L41.9452 10.6669C41.9452 10.6301 41.9154 10.6003 41.8786 10.6003L40.9175 10.6003C40.8807 10.6003 40.8508 10.6301 40.8508 10.6669L40.8508 11.7336C40.8508 11.7704 40.8807 11.8003 40.9175 11.8003L41.8786 11.8003ZM39.9753 11.7336C39.9753 11.7704 39.9455 11.8003 39.9087 11.8003L38.9476 11.8003C38.9108 11.8003 38.881 11.7704 38.881 11.7336L38.881 10.6669C38.881 10.6301 38.9108 10.6003 38.9476 10.6003L39.9087 10.6003C39.9455 10.6003 39.9753 10.6301 39.9753 10.6669L39.9753 11.7336ZM37.9388 11.8003C37.9756 11.8003 38.0054 11.7704 38.0054 11.7336L38.0054 10.6669C38.0054 10.6301 37.9756 10.6003 37.9388 10.6003L36.9777 10.6003C36.9409 10.6003 36.9111 10.6301 36.9111 10.6669L36.9111 11.7336C36.9111 11.7704 36.9409 11.8003 36.9777 11.8003L37.9388 11.8003ZM36.0355 11.7336C36.0355 11.7704 36.0057 11.8003 35.9689 11.8003L35.0078 11.8003C34.971 11.8003 34.9411 11.7704 34.9411 11.7336L34.9411 10.6669C34.9411 10.6301 34.971 10.6003 35.0078 10.6003L35.9689 10.6003C36.0057 10.6003 36.0355 10.6301 36.0355 10.6669L36.0355 11.7336ZM33.9989 11.8003C34.0358 11.8003 34.0656 11.7704 34.0656 11.7336L34.0656 10.6669C34.0656 10.6301 34.0358 10.6003 33.9989 10.6003L33.0379 10.6003C33.0011 10.6003 32.9712 10.6301 32.9712 10.6669L32.9712 11.7336C32.9712 11.7704 33.0011 11.8003 33.0379 11.8003L33.9989 11.8003ZM32.0957 11.7336C32.0957 11.7704 32.0659 11.8003 32.029 11.8003L31.068 11.8003C31.0312 11.8003 31.0013 11.7704 31.0013 11.7336L31.0013 10.6669C31.0013 10.6301 31.0312 10.6003 31.068 10.6003L32.029 10.6003C32.0659 10.6003 32.0957 10.6301 32.0957 10.6669L32.0957 11.7336ZM30.0591 11.8003C30.0959 11.8003 30.1258 11.7704 30.1258 11.7336L30.1258 10.6669C30.1258 10.6301 30.0959 10.6003 30.0591 10.6003L29.0981 10.6003C29.0613 10.6003 29.0314 10.6301 29.0314 10.6669L29.0314 11.7336C29.0314 11.7704 29.0613 11.8003 29.0981 11.8003L30.0591 11.8003ZM28.1559 11.7336C28.1559 11.7704 28.126 11.8003 28.0892 11.8003L27.1282 11.8003C27.0913 11.8003 27.0615 11.7704 27.0615 11.7336L27.0615 10.6669C27.0615 10.6301 27.0913 10.6003 27.1282 10.6003L28.0892 10.6003C28.126 10.6003 28.1559 10.6301 28.1559 10.6669L28.1559 11.7336ZM26.1193 11.8003C26.1561 11.8003 26.186 11.7704 26.186 11.7336L26.186 10.6669C26.186 10.6301 26.1561 10.6003 26.1193 10.6003L25.1583 10.6003C25.1214 10.6003 25.0916 10.6301 25.0916 10.6669L25.0916 11.7336C25.0916 11.7704 25.1214 11.8003 25.1583 11.8003L26.1193 11.8003ZM24.2161 11.7336C24.2161 11.7704 24.1863 11.8003 24.1494 11.8003L23.1884 11.8003C23.1516 11.8003 23.1217 11.7704 23.1217 11.7336L23.1217 10.6669C23.1217 10.6301 23.1516 10.6003 23.1884 10.6003L24.1494 10.6003C24.1863 10.6003 24.2161 10.6301 24.2161 10.6669L24.2161 11.7336ZM22.1795 11.8003C22.2164 11.8003 22.2462 11.7704 22.2462 11.7336L22.2462 10.6669C22.2462 10.6301 22.2164 10.6003 22.1795 10.6003L21.2185 10.6003C21.1817 10.6003 21.1518 10.6301 21.1518 10.6669L21.1518 11.7336C21.1518 11.7704 21.1817 11.8003 21.2185 11.8003L22.1795 11.8003ZM20.2763 11.7336C20.2763 11.7704 20.2465 11.8003 20.2096 11.8003L19.2486 11.8003C19.2118 11.8003 19.1819 11.7704 19.1819 11.7336L19.1819 10.6669C19.1819 10.6301 19.2118 10.6003 19.2486 10.6003L20.2096 10.6003C20.2465 10.6003 20.2763 10.6301 20.2763 10.6669L20.2763 11.7336ZM18.2397 11.8003C18.2765 11.8003 18.3064 11.7704 18.3064 11.7336L18.3064 10.6669C18.3064 10.6301 18.2765 10.6003 18.2397 10.6003L17.2786 10.6003C17.2418 10.6003 17.212 10.6301 17.212 10.6669L17.212 11.7336C17.212 11.7704 17.2418 11.8003 17.2786 11.8003L18.2397 11.8003ZM16.3365 11.7336C16.3365 11.7704 16.3066 11.8003 16.2698 11.8003L15.3087 11.8003C15.2719 11.8003 15.2421 11.7704 15.2421 11.7336L15.2421 10.6669C15.2421 10.6301 15.2719 10.6003 15.3087 10.6003L16.2698 10.6003C16.3066 10.6003 16.3365 10.6301 16.3365 10.6669L16.3365 11.7336ZM14.2999 11.8003C14.3367 11.8003 14.3666 11.7704 14.3666 11.7336L14.3666 10.6669C14.3666 10.6301 14.3367 10.6003 14.2999 10.6003L13.3388 10.6003C13.302 10.6003 13.2722 10.6301 13.2722 10.6669L13.2722 11.7336C13.2722 11.7704 13.302 11.8003 13.3388 11.8003L14.2999 11.8003ZM12.3966 11.7336C12.3966 11.7704 12.3668 11.8003 12.33 11.8003L11.3689 11.8003C11.3321 11.8003 11.3023 11.7704 11.3023 11.7336L11.3023 10.6669C11.3023 10.6301 11.3321 10.6003 11.3689 10.6003L12.33 10.6003C12.3668 10.6003 12.3966 10.6301 12.3966 10.6669L12.3966 11.7336ZM10.3601 11.8003C10.3969 11.8003 10.4268 11.7704 10.4268 11.7336L10.4268 10.6669C10.4268 10.6301 10.3969 10.6003 10.3601 10.6003L9.39906 10.6003C9.36224 10.6003 9.33239 10.6301 9.33239 10.6669L9.33239 11.7336C9.33239 11.7704 9.36224 11.8003 9.39906 11.8003L10.3601 11.8003ZM8.45688 11.7336C8.45688 11.7704 8.42703 11.8003 8.39021 11.8003L7.42915 11.8003C7.39234 11.8003 7.36248 11.7704 7.36248 11.7336L7.36248 10.6669C7.36248 10.6301 7.39234 10.6003 7.42915 10.6003L8.39021 10.6003C8.42703 10.6003 8.45688 10.6301 8.45688 10.6669L8.45688 11.7336ZM6.42031 11.8003C6.45713 11.8003 6.48697 11.7704 6.48697 11.7336L6.48697 10.6669C6.48697 10.6301 6.45713 10.6003 6.42031 10.6003L5.45925 10.6003C5.42243 10.6003 5.39258 10.6301 5.39258 10.6669L5.39258 11.7336C5.39258 11.7704 5.42243 11.8003 5.45925 11.8003L6.42031 11.8003ZM4.51703 11.7336C4.51703 11.7704 4.48719 11.8003 4.45037 11.8003L3.48931 11.8003C3.4525 11.8003 3.42264 11.7704 3.42264 11.7336L3.42264 10.6669C3.42264 10.6301 3.4525 10.6003 3.48931 10.6003L4.45037 10.6003C4.48719 10.6003 4.51703 10.6301 4.51703 10.6669L4.51703 11.7336Z" fill="#E1DCD0" stroke="#FFFDFA" stroke-width="0.64" mask="url(#path-7-inside-1_1284_21190)"/>
</g>
<g id="Subtract_2">
<mask id="path-8-inside-2_1284_21190" fill="white">
<path fill-rule="evenodd" clip-rule="evenodd" d="M1.99995 24.1002C1.99995 24.2658 2.13423 24.4001 2.29987 24.4001L80.8 24.4C81.4627 24.4 82 23.8627 82 23.2C82 22.5373 81.4627 22.0001 80.8 22.0001L2.29998 22.0002C2.13428 22.0002 1.99995 22.1345 1.99995 22.3002C1.99995 22.4659 2.13428 22.6003 2.29998 22.6003L2.48047 22.6003C2.51728 22.6003 2.54713 22.6301 2.54713 22.6669L2.54713 23.7336C2.54713 23.7704 2.51728 23.8003 2.48047 23.8003L2.29986 23.8003C2.13423 23.8003 1.99995 23.9345 1.99995 24.1002ZM81.2766 23.8003C81.3135 23.8003 81.3433 23.7704 81.3433 23.7336L81.3433 22.6669C81.3433 22.6301 81.3135 22.6003 81.2766 22.6003L80.3156 22.6003C80.2788 22.6003 80.2489 22.6301 80.2489 22.6669L80.2489 23.7336C80.2489 23.7704 80.2788 23.8003 80.3156 23.8003L81.2766 23.8003ZM79.3734 23.7336C79.3734 23.7704 79.3436 23.8003 79.3068 23.8003L78.3457 23.8003C78.3089 23.8003 78.279 23.7704 78.279 23.7336L78.279 22.6669C78.279 22.6301 78.3089 22.6003 78.3457 22.6003L79.3068 22.6003C79.3436 22.6003 79.3734 22.6301 79.3734 22.6669L79.3734 23.7336ZM77.3368 23.8003C77.3737 23.8003 77.4035 23.7704 77.4035 23.7336L77.4035 22.6669C77.4035 22.6301 77.3737 22.6003 77.3368 22.6003L76.3758 22.6003C76.339 22.6003 76.3091 22.6301 76.3091 22.6669L76.3091 23.7336C76.3091 23.7704 76.339 23.8003 76.3758 23.8003L77.3368 23.8003ZM75.4336 23.7336C75.4336 23.7704 75.4037 23.8003 75.3669 23.8003L74.4059 23.8003C74.3691 23.8003 74.3392 23.7704 74.3392 23.7336L74.3392 22.6669C74.3392 22.6301 74.3691 22.6003 74.4059 22.6003L75.3669 22.6003C75.4037 22.6003 75.4336 22.6301 75.4336 22.6669L75.4336 23.7336ZM73.397 23.8003C73.4338 23.8003 73.4637 23.7704 73.4637 23.7336L73.4637 22.6669C73.4637 22.6301 73.4338 22.6003 73.397 22.6003L72.436 22.6003C72.3991 22.6003 72.3693 22.6301 72.3693 22.6669L72.3693 23.7336C72.3693 23.7704 72.3991 23.8003 72.436 23.8003L73.397 23.8003ZM71.4938 23.7336C71.4938 23.7704 71.464 23.8003 71.4271 23.8003L70.4661 23.8003C70.4293 23.8003 70.3994 23.7704 70.3994 23.7336L70.3994 22.6669C70.3994 22.6301 70.4293 22.6003 70.4661 22.6003L71.4271 22.6003C71.464 22.6003 71.4938 22.6301 71.4938 22.6669L71.4938 23.7336ZM69.4572 23.8003C69.4941 23.8003 69.5239 23.7704 69.5239 23.7336L69.5239 22.6669C69.5239 22.6301 69.4941 22.6003 69.4572 22.6003L68.4962 22.6003C68.4594 22.6003 68.4295 22.6301 68.4295 22.6669L68.4295 23.7336C68.4295 23.7704 68.4594 23.8003 68.4962 23.8003L69.4572 23.8003ZM67.554 23.7336C67.554 23.7704 67.5242 23.8003 67.4873 23.8003L66.5263 23.8003C66.4895 23.8003 66.4596 23.7704 66.4596 23.7336L66.4596 22.6669C66.4596 22.6301 66.4895 22.6003 66.5263 22.6003L67.4873 22.6003C67.5242 22.6003 67.554 22.6301 67.554 22.6669L67.554 23.7336ZM65.5174 23.8003C65.5543 23.8003 65.5841 23.7704 65.5841 23.7336L65.5841 22.6669C65.5841 22.6301 65.5543 22.6003 65.5174 22.6003L64.5564 22.6003C64.5196 22.6003 64.4897 22.6301 64.4897 22.6669L64.4897 23.7336C64.4897 23.7704 64.5196 23.8003 64.5564 23.8003L65.5174 23.8003ZM63.6142 23.7336C63.6142 23.7704 63.5843 23.8003 63.5475 23.8003L62.5864 23.8003C62.5496 23.8003 62.5198 23.7704 62.5198 23.7336L62.5198 22.6669C62.5198 22.6301 62.5496 22.6003 62.5864 22.6003L63.5475 22.6003C63.5843 22.6003 63.6142 22.6301 63.6142 22.6669L63.6142 23.7336ZM61.5776 23.8003C61.6144 23.8003 61.6443 23.7704 61.6443 23.7336L61.6443 22.6669C61.6443 22.6301 61.6144 22.6003 61.5776 22.6003L60.6165 22.6003C60.5797 22.6003 60.5499 22.6301 60.5499 22.6669L60.5499 23.7336C60.5499 23.7704 60.5797 23.8003 60.6165 23.8003L61.5776 23.8003ZM59.6744 23.7336C59.6744 23.7704 59.6445 23.8003 59.6077 23.8003L58.6466 23.8003C58.6098 23.8003 58.58 23.7704 58.58 23.7336L58.58 22.6669C58.58 22.6301 58.6098 22.6003 58.6466 22.6003L59.6077 22.6003C59.6445 22.6003 59.6744 22.6301 59.6744 22.6669L59.6744 23.7336ZM57.6378 23.8003C57.6746 23.8003 57.7045 23.7704 57.7045 23.7336L57.7045 22.6669C57.7045 22.6301 57.6746 22.6003 57.6378 22.6003L56.6767 22.6003C56.6399 22.6003 56.6101 22.6301 56.6101 22.6669L56.6101 23.7336C56.6101 23.7704 56.6399 23.8003 56.6767 23.8003L57.6378 23.8003ZM55.7346 23.7336C55.7346 23.7704 55.7047 23.8003 55.6679 23.8003L54.7068 23.8003C54.67 23.8003 54.6402 23.7704 54.6402 23.7336L54.6402 22.6669C54.6402 22.6301 54.67 22.6003 54.7068 22.6003L55.6679 22.6003C55.7047 22.6003 55.7346 22.6301 55.7346 22.6669L55.7346 23.7336ZM53.698 23.8003C53.7348 23.8003 53.7647 23.7704 53.7647 23.7336L53.7647 22.6669C53.7647 22.6301 53.7348 22.6003 53.698 22.6003L52.737 22.6003C52.7001 22.6003 52.6703 22.6301 52.6703 22.6669L52.6703 23.7336C52.6703 23.7704 52.7001 23.8003 52.737 23.8003L53.698 23.8003ZM51.7948 23.7336C51.7948 23.7704 51.7649 23.8003 51.7281 23.8003L50.767 23.8003C50.7302 23.8003 50.7004 23.7704 50.7004 23.7336L50.7004 22.6669C50.7004 22.6301 50.7302 22.6003 50.767 22.6003L51.7281 22.6003C51.7649 22.6003 51.7948 22.6301 51.7948 22.6669L51.7948 23.7336ZM49.7582 23.8003C49.795 23.8003 49.8249 23.7704 49.8249 23.7336L49.8249 22.6669C49.8249 22.6301 49.795 22.6003 49.7582 22.6003L48.7971 22.6003C48.7603 22.6003 48.7305 22.6301 48.7305 22.6669L48.7305 23.7336C48.7305 23.7704 48.7603 23.8003 48.7971 23.8003L49.7582 23.8003ZM47.8549 23.7336C47.8549 23.7704 47.8251 23.8003 47.7883 23.8003L46.8272 23.8003C46.7904 23.8003 46.7605 23.7704 46.7605 23.7336L46.7605 22.6669C46.7605 22.6301 46.7904 22.6003 46.8272 22.6003L47.7883 22.6003C47.8251 22.6003 47.8549 22.6301 47.8549 22.6669L47.8549 23.7336ZM45.8184 23.8003C45.8552 23.8003 45.885 23.7704 45.885 23.7336L45.885 22.6669C45.885 22.6301 45.8552 22.6003 45.8184 22.6003L44.8573 22.6003C44.8205 22.6003 44.7906 22.6301 44.7906 22.6669L44.7906 23.7336C44.7906 23.7704 44.8205 23.8003 44.8573 23.8003L45.8184 23.8003ZM43.9151 23.7336C43.9151 23.7704 43.8853 23.8003 43.8485 23.8003L42.8874 23.8003C42.8506 23.8003 42.8207 23.7704 42.8207 23.7336L42.8207 22.6669C42.8207 22.6301 42.8506 22.6003 42.8874 22.6003L43.8485 22.6003C43.8853 22.6003 43.9151 22.6301 43.9151 22.6669L43.9151 23.7336ZM41.8786 23.8003C41.9154 23.8003 41.9452 23.7704 41.9452 23.7336L41.9452 22.6669C41.9452 22.6301 41.9154 22.6003 41.8786 22.6003L40.9175 22.6003C40.8807 22.6003 40.8508 22.6301 40.8508 22.6669L40.8508 23.7336C40.8508 23.7704 40.8807 23.8003 40.9175 23.8003L41.8786 23.8003ZM39.9753 23.7336C39.9753 23.7704 39.9455 23.8003 39.9087 23.8003L38.9476 23.8003C38.9108 23.8003 38.881 23.7704 38.881 23.7336L38.881 22.6669C38.881 22.6301 38.9108 22.6003 38.9476 22.6003L39.9087 22.6003C39.9455 22.6003 39.9753 22.6301 39.9753 22.6669L39.9753 23.7336ZM37.9388 23.8003C37.9756 23.8003 38.0054 23.7704 38.0054 23.7336L38.0054 22.6669C38.0054 22.6301 37.9756 22.6003 37.9388 22.6003L36.9777 22.6003C36.9409 22.6003 36.9111 22.6301 36.9111 22.6669L36.9111 23.7336C36.9111 23.7704 36.9409 23.8003 36.9777 23.8003L37.9388 23.8003ZM36.0355 23.7336C36.0355 23.7704 36.0057 23.8003 35.9689 23.8003L35.0078 23.8003C34.971 23.8003 34.9411 23.7704 34.9411 23.7336L34.9411 22.6669C34.9411 22.6301 34.971 22.6003 35.0078 22.6003L35.9689 22.6003C36.0057 22.6003 36.0355 22.6301 36.0355 22.6669L36.0355 23.7336ZM33.9989 23.8003C34.0358 23.8003 34.0656 23.7704 34.0656 23.7336L34.0656 22.6669C34.0656 22.6301 34.0358 22.6003 33.9989 22.6003L33.0379 22.6003C33.0011 22.6003 32.9712 22.6301 32.9712 22.6669L32.9712 23.7336C32.9712 23.7704 33.0011 23.8003 33.0379 23.8003L33.9989 23.8003ZM32.0957 23.7336C32.0957 23.7704 32.0659 23.8003 32.029 23.8003L31.068 23.8003C31.0312 23.8003 31.0013 23.7704 31.0013 23.7336L31.0013 22.6669C31.0013 22.6301 31.0312 22.6003 31.068 22.6003L32.029 22.6003C32.0659 22.6003 32.0957 22.6301 32.0957 22.6669L32.0957 23.7336ZM30.0591 23.8003C30.0959 23.8003 30.1258 23.7704 30.1258 23.7336L30.1258 22.6669C30.1258 22.6301 30.0959 22.6003 30.0591 22.6003L29.0981 22.6003C29.0613 22.6003 29.0314 22.6301 29.0314 22.6669L29.0314 23.7336C29.0314 23.7704 29.0613 23.8003 29.0981 23.8003L30.0591 23.8003ZM28.1559 23.7336C28.1559 23.7704 28.126 23.8003 28.0892 23.8003L27.1282 23.8003C27.0913 23.8003 27.0615 23.7704 27.0615 23.7336L27.0615 22.6669C27.0615 22.6301 27.0913 22.6003 27.1282 22.6003L28.0892 22.6003C28.126 22.6003 28.1559 22.6301 28.1559 22.6669L28.1559 23.7336ZM26.1193 23.8003C26.1561 23.8003 26.186 23.7704 26.186 23.7336L26.186 22.6669C26.186 22.6301 26.1561 22.6003 26.1193 22.6003L25.1583 22.6003C25.1214 22.6003 25.0916 22.6301 25.0916 22.6669L25.0916 23.7336C25.0916 23.7704 25.1214 23.8003 25.1583 23.8003L26.1193 23.8003ZM24.2161 23.7336C24.2161 23.7704 24.1863 23.8003 24.1494 23.8003L23.1884 23.8003C23.1516 23.8003 23.1217 23.7704 23.1217 23.7336L23.1217 22.6669C23.1217 22.6301 23.1516 22.6003 23.1884 22.6003L24.1494 22.6003C24.1863 22.6003 24.2161 22.6301 24.2161 22.6669L24.2161 23.7336ZM22.1795 23.8003C22.2164 23.8003 22.2462 23.7704 22.2462 23.7336L22.2462 22.6669C22.2462 22.6301 22.2164 22.6003 22.1795 22.6003L21.2185 22.6003C21.1817 22.6003 21.1518 22.6301 21.1518 22.6669L21.1518 23.7336C21.1518 23.7704 21.1817 23.8003 21.2185 23.8003L22.1795 23.8003ZM20.2763 23.7336C20.2763 23.7704 20.2465 23.8003 20.2096 23.8003L19.2486 23.8003C19.2118 23.8003 19.1819 23.7704 19.1819 23.7336L19.1819 22.6669C19.1819 22.6301 19.2118 22.6003 19.2486 22.6003L20.2096 22.6003C20.2465 22.6003 20.2763 22.6301 20.2763 22.6669L20.2763 23.7336ZM18.2397 23.8003C18.2765 23.8003 18.3064 23.7704 18.3064 23.7336L18.3064 22.6669C18.3064 22.6301 18.2765 22.6003 18.2397 22.6003L17.2786 22.6003C17.2418 22.6003 17.212 22.6301 17.212 22.6669L17.212 23.7336C17.212 23.7704 17.2418 23.8003 17.2786 23.8003L18.2397 23.8003ZM16.3365 23.7336C16.3365 23.7704 16.3066 23.8003 16.2698 23.8003L15.3087 23.8003C15.2719 23.8003 15.2421 23.7704 15.2421 23.7336L15.2421 22.6669C15.2421 22.6301 15.2719 22.6003 15.3087 22.6003L16.2698 22.6003C16.3066 22.6003 16.3365 22.6301 16.3365 22.6669L16.3365 23.7336ZM14.2999 23.8003C14.3367 23.8003 14.3666 23.7704 14.3666 23.7336L14.3666 22.6669C14.3666 22.6301 14.3367 22.6003 14.2999 22.6003L13.3388 22.6003C13.302 22.6003 13.2722 22.6301 13.2722 22.6669L13.2722 23.7336C13.2722 23.7704 13.302 23.8003 13.3388 23.8003L14.2999 23.8003ZM12.3966 23.7336C12.3966 23.7704 12.3668 23.8003 12.33 23.8003L11.3689 23.8003C11.3321 23.8003 11.3023 23.7704 11.3023 23.7336L11.3023 22.6669C11.3023 22.6301 11.3321 22.6003 11.3689 22.6003L12.33 22.6003C12.3668 22.6003 12.3966 22.6301 12.3966 22.6669L12.3966 23.7336ZM10.3601 23.8003C10.3969 23.8003 10.4268 23.7704 10.4268 23.7336L10.4268 22.6669C10.4268 22.6301 10.3969 22.6003 10.3601 22.6003L9.39906 22.6003C9.36224 22.6003 9.33239 22.6301 9.33239 22.6669L9.33239 23.7336C9.33239 23.7704 9.36224 23.8003 9.39906 23.8003L10.3601 23.8003ZM8.45688 23.7336C8.45688 23.7704 8.42703 23.8003 8.39021 23.8003L7.42915 23.8003C7.39234 23.8003 7.36248 23.7704 7.36248 23.7336L7.36248 22.6669C7.36248 22.6301 7.39234 22.6003 7.42915 22.6003L8.39021 22.6003C8.42703 22.6003 8.45688 22.6301 8.45688 22.6669L8.45688 23.7336ZM6.42031 23.8003C6.45713 23.8003 6.48697 23.7704 6.48697 23.7336L6.48697 22.6669C6.48697 22.6301 6.45713 22.6003 6.42031 22.6003L5.45925 22.6003C5.42243 22.6003 5.39258 22.6301 5.39258 22.6669L5.39258 23.7336C5.39258 23.7704 5.42243 23.8003 5.45925 23.8003L6.42031 23.8003ZM4.51703 23.7336C4.51703 23.7704 4.48719 23.8003 4.45037 23.8003L3.48931 23.8003C3.4525 23.8003 3.42264 23.7704 3.42264 23.7336L3.42264 22.6669C3.42264 22.6301 3.4525 22.6003 3.48931 22.6003L4.45037 22.6003C4.48719 22.6003 4.51703 22.6301 4.51703 22.6669L4.51703 23.7336Z"/>
</mask>
<path fill-rule="evenodd" clip-rule="evenodd" d="M1.99995 24.1002C1.99995 24.2658 2.13423 24.4001 2.29987 24.4001L80.8 24.4C81.4627 24.4 82 23.8627 82 23.2C82 22.5373 81.4627 22.0001 80.8 22.0001L2.29998 22.0002C2.13428 22.0002 1.99995 22.1345 1.99995 22.3002C1.99995 22.4659 2.13428 22.6003 2.29998 22.6003L2.48047 22.6003C2.51728 22.6003 2.54713 22.6301 2.54713 22.6669L2.54713 23.7336C2.54713 23.7704 2.51728 23.8003 2.48047 23.8003L2.29986 23.8003C2.13423 23.8003 1.99995 23.9345 1.99995 24.1002ZM81.2766 23.8003C81.3135 23.8003 81.3433 23.7704 81.3433 23.7336L81.3433 22.6669C81.3433 22.6301 81.3135 22.6003 81.2766 22.6003L80.3156 22.6003C80.2788 22.6003 80.2489 22.6301 80.2489 22.6669L80.2489 23.7336C80.2489 23.7704 80.2788 23.8003 80.3156 23.8003L81.2766 23.8003ZM79.3734 23.7336C79.3734 23.7704 79.3436 23.8003 79.3068 23.8003L78.3457 23.8003C78.3089 23.8003 78.279 23.7704 78.279 23.7336L78.279 22.6669C78.279 22.6301 78.3089 22.6003 78.3457 22.6003L79.3068 22.6003C79.3436 22.6003 79.3734 22.6301 79.3734 22.6669L79.3734 23.7336ZM77.3368 23.8003C77.3737 23.8003 77.4035 23.7704 77.4035 23.7336L77.4035 22.6669C77.4035 22.6301 77.3737 22.6003 77.3368 22.6003L76.3758 22.6003C76.339 22.6003 76.3091 22.6301 76.3091 22.6669L76.3091 23.7336C76.3091 23.7704 76.339 23.8003 76.3758 23.8003L77.3368 23.8003ZM75.4336 23.7336C75.4336 23.7704 75.4037 23.8003 75.3669 23.8003L74.4059 23.8003C74.3691 23.8003 74.3392 23.7704 74.3392 23.7336L74.3392 22.6669C74.3392 22.6301 74.3691 22.6003 74.4059 22.6003L75.3669 22.6003C75.4037 22.6003 75.4336 22.6301 75.4336 22.6669L75.4336 23.7336ZM73.397 23.8003C73.4338 23.8003 73.4637 23.7704 73.4637 23.7336L73.4637 22.6669C73.4637 22.6301 73.4338 22.6003 73.397 22.6003L72.436 22.6003C72.3991 22.6003 72.3693 22.6301 72.3693 22.6669L72.3693 23.7336C72.3693 23.7704 72.3991 23.8003 72.436 23.8003L73.397 23.8003ZM71.4938 23.7336C71.4938 23.7704 71.464 23.8003 71.4271 23.8003L70.4661 23.8003C70.4293 23.8003 70.3994 23.7704 70.3994 23.7336L70.3994 22.6669C70.3994 22.6301 70.4293 22.6003 70.4661 22.6003L71.4271 22.6003C71.464 22.6003 71.4938 22.6301 71.4938 22.6669L71.4938 23.7336ZM69.4572 23.8003C69.4941 23.8003 69.5239 23.7704 69.5239 23.7336L69.5239 22.6669C69.5239 22.6301 69.4941 22.6003 69.4572 22.6003L68.4962 22.6003C68.4594 22.6003 68.4295 22.6301 68.4295 22.6669L68.4295 23.7336C68.4295 23.7704 68.4594 23.8003 68.4962 23.8003L69.4572 23.8003ZM67.554 23.7336C67.554 23.7704 67.5242 23.8003 67.4873 23.8003L66.5263 23.8003C66.4895 23.8003 66.4596 23.7704 66.4596 23.7336L66.4596 22.6669C66.4596 22.6301 66.4895 22.6003 66.5263 22.6003L67.4873 22.6003C67.5242 22.6003 67.554 22.6301 67.554 22.6669L67.554 23.7336ZM65.5174 23.8003C65.5543 23.8003 65.5841 23.7704 65.5841 23.7336L65.5841 22.6669C65.5841 22.6301 65.5543 22.6003 65.5174 22.6003L64.5564 22.6003C64.5196 22.6003 64.4897 22.6301 64.4897 22.6669L64.4897 23.7336C64.4897 23.7704 64.5196 23.8003 64.5564 23.8003L65.5174 23.8003ZM63.6142 23.7336C63.6142 23.7704 63.5843 23.8003 63.5475 23.8003L62.5864 23.8003C62.5496 23.8003 62.5198 23.7704 62.5198 23.7336L62.5198 22.6669C62.5198 22.6301 62.5496 22.6003 62.5864 22.6003L63.5475 22.6003C63.5843 22.6003 63.6142 22.6301 63.6142 22.6669L63.6142 23.7336ZM61.5776 23.8003C61.6144 23.8003 61.6443 23.7704 61.6443 23.7336L61.6443 22.6669C61.6443 22.6301 61.6144 22.6003 61.5776 22.6003L60.6165 22.6003C60.5797 22.6003 60.5499 22.6301 60.5499 22.6669L60.5499 23.7336C60.5499 23.7704 60.5797 23.8003 60.6165 23.8003L61.5776 23.8003ZM59.6744 23.7336C59.6744 23.7704 59.6445 23.8003 59.6077 23.8003L58.6466 23.8003C58.6098 23.8003 58.58 23.7704 58.58 23.7336L58.58 22.6669C58.58 22.6301 58.6098 22.6003 58.6466 22.6003L59.6077 22.6003C59.6445 22.6003 59.6744 22.6301 59.6744 22.6669L59.6744 23.7336ZM57.6378 23.8003C57.6746 23.8003 57.7045 23.7704 57.7045 23.7336L57.7045 22.6669C57.7045 22.6301 57.6746 22.6003 57.6378 22.6003L56.6767 22.6003C56.6399 22.6003 56.6101 22.6301 56.6101 22.6669L56.6101 23.7336C56.6101 23.7704 56.6399 23.8003 56.6767 23.8003L57.6378 23.8003ZM55.7346 23.7336C55.7346 23.7704 55.7047 23.8003 55.6679 23.8003L54.7068 23.8003C54.67 23.8003 54.6402 23.7704 54.6402 23.7336L54.6402 22.6669C54.6402 22.6301 54.67 22.6003 54.7068 22.6003L55.6679 22.6003C55.7047 22.6003 55.7346 22.6301 55.7346 22.6669L55.7346 23.7336ZM53.698 23.8003C53.7348 23.8003 53.7647 23.7704 53.7647 23.7336L53.7647 22.6669C53.7647 22.6301 53.7348 22.6003 53.698 22.6003L52.737 22.6003C52.7001 22.6003 52.6703 22.6301 52.6703 22.6669L52.6703 23.7336C52.6703 23.7704 52.7001 23.8003 52.737 23.8003L53.698 23.8003ZM51.7948 23.7336C51.7948 23.7704 51.7649 23.8003 51.7281 23.8003L50.767 23.8003C50.7302 23.8003 50.7004 23.7704 50.7004 23.7336L50.7004 22.6669C50.7004 22.6301 50.7302 22.6003 50.767 22.6003L51.7281 22.6003C51.7649 22.6003 51.7948 22.6301 51.7948 22.6669L51.7948 23.7336ZM49.7582 23.8003C49.795 23.8003 49.8249 23.7704 49.8249 23.7336L49.8249 22.6669C49.8249 22.6301 49.795 22.6003 49.7582 22.6003L48.7971 22.6003C48.7603 22.6003 48.7305 22.6301 48.7305 22.6669L48.7305 23.7336C48.7305 23.7704 48.7603 23.8003 48.7971 23.8003L49.7582 23.8003ZM47.8549 23.7336C47.8549 23.7704 47.8251 23.8003 47.7883 23.8003L46.8272 23.8003C46.7904 23.8003 46.7605 23.7704 46.7605 23.7336L46.7605 22.6669C46.7605 22.6301 46.7904 22.6003 46.8272 22.6003L47.7883 22.6003C47.8251 22.6003 47.8549 22.6301 47.8549 22.6669L47.8549 23.7336ZM45.8184 23.8003C45.8552 23.8003 45.885 23.7704 45.885 23.7336L45.885 22.6669C45.885 22.6301 45.8552 22.6003 45.8184 22.6003L44.8573 22.6003C44.8205 22.6003 44.7906 22.6301 44.7906 22.6669L44.7906 23.7336C44.7906 23.7704 44.8205 23.8003 44.8573 23.8003L45.8184 23.8003ZM43.9151 23.7336C43.9151 23.7704 43.8853 23.8003 43.8485 23.8003L42.8874 23.8003C42.8506 23.8003 42.8207 23.7704 42.8207 23.7336L42.8207 22.6669C42.8207 22.6301 42.8506 22.6003 42.8874 22.6003L43.8485 22.6003C43.8853 22.6003 43.9151 22.6301 43.9151 22.6669L43.9151 23.7336ZM41.8786 23.8003C41.9154 23.8003 41.9452 23.7704 41.9452 23.7336L41.9452 22.6669C41.9452 22.6301 41.9154 22.6003 41.8786 22.6003L40.9175 22.6003C40.8807 22.6003 40.8508 22.6301 40.8508 22.6669L40.8508 23.7336C40.8508 23.7704 40.8807 23.8003 40.9175 23.8003L41.8786 23.8003ZM39.9753 23.7336C39.9753 23.7704 39.9455 23.8003 39.9087 23.8003L38.9476 23.8003C38.9108 23.8003 38.881 23.7704 38.881 23.7336L38.881 22.6669C38.881 22.6301 38.9108 22.6003 38.9476 22.6003L39.9087 22.6003C39.9455 22.6003 39.9753 22.6301 39.9753 22.6669L39.9753 23.7336ZM37.9388 23.8003C37.9756 23.8003 38.0054 23.7704 38.0054 23.7336L38.0054 22.6669C38.0054 22.6301 37.9756 22.6003 37.9388 22.6003L36.9777 22.6003C36.9409 22.6003 36.9111 22.6301 36.9111 22.6669L36.9111 23.7336C36.9111 23.7704 36.9409 23.8003 36.9777 23.8003L37.9388 23.8003ZM36.0355 23.7336C36.0355 23.7704 36.0057 23.8003 35.9689 23.8003L35.0078 23.8003C34.971 23.8003 34.9411 23.7704 34.9411 23.7336L34.9411 22.6669C34.9411 22.6301 34.971 22.6003 35.0078 22.6003L35.9689 22.6003C36.0057 22.6003 36.0355 22.6301 36.0355 22.6669L36.0355 23.7336ZM33.9989 23.8003C34.0358 23.8003 34.0656 23.7704 34.0656 23.7336L34.0656 22.6669C34.0656 22.6301 34.0358 22.6003 33.9989 22.6003L33.0379 22.6003C33.0011 22.6003 32.9712 22.6301 32.9712 22.6669L32.9712 23.7336C32.9712 23.7704 33.0011 23.8003 33.0379 23.8003L33.9989 23.8003ZM32.0957 23.7336C32.0957 23.7704 32.0659 23.8003 32.029 23.8003L31.068 23.8003C31.0312 23.8003 31.0013 23.7704 31.0013 23.7336L31.0013 22.6669C31.0013 22.6301 31.0312 22.6003 31.068 22.6003L32.029 22.6003C32.0659 22.6003 32.0957 22.6301 32.0957 22.6669L32.0957 23.7336ZM30.0591 23.8003C30.0959 23.8003 30.1258 23.7704 30.1258 23.7336L30.1258 22.6669C30.1258 22.6301 30.0959 22.6003 30.0591 22.6003L29.0981 22.6003C29.0613 22.6003 29.0314 22.6301 29.0314 22.6669L29.0314 23.7336C29.0314 23.7704 29.0613 23.8003 29.0981 23.8003L30.0591 23.8003ZM28.1559 23.7336C28.1559 23.7704 28.126 23.8003 28.0892 23.8003L27.1282 23.8003C27.0913 23.8003 27.0615 23.7704 27.0615 23.7336L27.0615 22.6669C27.0615 22.6301 27.0913 22.6003 27.1282 22.6003L28.0892 22.6003C28.126 22.6003 28.1559 22.6301 28.1559 22.6669L28.1559 23.7336ZM26.1193 23.8003C26.1561 23.8003 26.186 23.7704 26.186 23.7336L26.186 22.6669C26.186 22.6301 26.1561 22.6003 26.1193 22.6003L25.1583 22.6003C25.1214 22.6003 25.0916 22.6301 25.0916 22.6669L25.0916 23.7336C25.0916 23.7704 25.1214 23.8003 25.1583 23.8003L26.1193 23.8003ZM24.2161 23.7336C24.2161 23.7704 24.1863 23.8003 24.1494 23.8003L23.1884 23.8003C23.1516 23.8003 23.1217 23.7704 23.1217 23.7336L23.1217 22.6669C23.1217 22.6301 23.1516 22.6003 23.1884 22.6003L24.1494 22.6003C24.1863 22.6003 24.2161 22.6301 24.2161 22.6669L24.2161 23.7336ZM22.1795 23.8003C22.2164 23.8003 22.2462 23.7704 22.2462 23.7336L22.2462 22.6669C22.2462 22.6301 22.2164 22.6003 22.1795 22.6003L21.2185 22.6003C21.1817 22.6003 21.1518 22.6301 21.1518 22.6669L21.1518 23.7336C21.1518 23.7704 21.1817 23.8003 21.2185 23.8003L22.1795 23.8003ZM20.2763 23.7336C20.2763 23.7704 20.2465 23.8003 20.2096 23.8003L19.2486 23.8003C19.2118 23.8003 19.1819 23.7704 19.1819 23.7336L19.1819 22.6669C19.1819 22.6301 19.2118 22.6003 19.2486 22.6003L20.2096 22.6003C20.2465 22.6003 20.2763 22.6301 20.2763 22.6669L20.2763 23.7336ZM18.2397 23.8003C18.2765 23.8003 18.3064 23.7704 18.3064 23.7336L18.3064 22.6669C18.3064 22.6301 18.2765 22.6003 18.2397 22.6003L17.2786 22.6003C17.2418 22.6003 17.212 22.6301 17.212 22.6669L17.212 23.7336C17.212 23.7704 17.2418 23.8003 17.2786 23.8003L18.2397 23.8003ZM16.3365 23.7336C16.3365 23.7704 16.3066 23.8003 16.2698 23.8003L15.3087 23.8003C15.2719 23.8003 15.2421 23.7704 15.2421 23.7336L15.2421 22.6669C15.2421 22.6301 15.2719 22.6003 15.3087 22.6003L16.2698 22.6003C16.3066 22.6003 16.3365 22.6301 16.3365 22.6669L16.3365 23.7336ZM14.2999 23.8003C14.3367 23.8003 14.3666 23.7704 14.3666 23.7336L14.3666 22.6669C14.3666 22.6301 14.3367 22.6003 14.2999 22.6003L13.3388 22.6003C13.302 22.6003 13.2722 22.6301 13.2722 22.6669L13.2722 23.7336C13.2722 23.7704 13.302 23.8003 13.3388 23.8003L14.2999 23.8003ZM12.3966 23.7336C12.3966 23.7704 12.3668 23.8003 12.33 23.8003L11.3689 23.8003C11.3321 23.8003 11.3023 23.7704 11.3023 23.7336L11.3023 22.6669C11.3023 22.6301 11.3321 22.6003 11.3689 22.6003L12.33 22.6003C12.3668 22.6003 12.3966 22.6301 12.3966 22.6669L12.3966 23.7336ZM10.3601 23.8003C10.3969 23.8003 10.4268 23.7704 10.4268 23.7336L10.4268 22.6669C10.4268 22.6301 10.3969 22.6003 10.3601 22.6003L9.39906 22.6003C9.36224 22.6003 9.33239 22.6301 9.33239 22.6669L9.33239 23.7336C9.33239 23.7704 9.36224 23.8003 9.39906 23.8003L10.3601 23.8003ZM8.45688 23.7336C8.45688 23.7704 8.42703 23.8003 8.39021 23.8003L7.42915 23.8003C7.39234 23.8003 7.36248 23.7704 7.36248 23.7336L7.36248 22.6669C7.36248 22.6301 7.39234 22.6003 7.42915 22.6003L8.39021 22.6003C8.42703 22.6003 8.45688 22.6301 8.45688 22.6669L8.45688 23.7336ZM6.42031 23.8003C6.45713 23.8003 6.48697 23.7704 6.48697 23.7336L6.48697 22.6669C6.48697 22.6301 6.45713 22.6003 6.42031 22.6003L5.45925 22.6003C5.42243 22.6003 5.39258 22.6301 5.39258 22.6669L5.39258 23.7336C5.39258 23.7704 5.42243 23.8003 5.45925 23.8003L6.42031 23.8003ZM4.51703 23.7336C4.51703 23.7704 4.48719 23.8003 4.45037 23.8003L3.48931 23.8003C3.4525 23.8003 3.42264 23.7704 3.42264 23.7336L3.42264 22.6669C3.42264 22.6301 3.4525 22.6003 3.48931 22.6003L4.45037 22.6003C4.48719 22.6003 4.51703 22.6301 4.51703 22.6669L4.51703 23.7336Z" fill="#E1DCD0" stroke="#FFFDFA" stroke-width="0.64" mask="url(#path-8-inside-2_1284_21190)"/>
</g>
</g>
</g>
</g>
</g>
<rect id="Rectangle 34624667" x="10" y="8.5" width="12" height="17.5" rx="0.8" fill="#26231B" stroke="#FFFDFA" stroke-width="0.8"/>
<g id="Mask group_2">
<mask id="mask1_1284_21190" style="mask-type:alpha" maskUnits="userSpaceOnUse" x="9" y="8" width="14" height="19">
<rect id="Rectangle 34624668" x="10" y="8.5" width="12" height="17.5" rx="0.8" fill="white" stroke="#FFFDFA" stroke-width="0.8"/>
</mask>
<g mask="url(#mask1_1284_21190)">
<rect id="Rectangle 34624671_2" x="8.84363" y="10.0691" width="4.62651" height="14.4828" rx="0.8" fill="#534B36"/>
<g id="Mask group_3">
<mask id="mask2_1284_21190" style="mask-type:alpha" maskUnits="userSpaceOnUse" x="8" y="9" width="6" height="16">
<rect id="Rectangle 34624670" x="8.62843" y="9.57141" width="4.62651" height="14.4828" rx="0.8" fill="#D9D9D9" stroke="#FFFDFA" stroke-width="0.8"/>
</mask>
<g mask="url(#mask2_1284_21190)">
<g id="Group 24">
<rect id="Rectangle 55" width="6.75866" height="1.19193" rx="0.595967" transform="matrix(-0.761743 0.64788 0.85793 0.513766 13.562 9.07391)" fill="#E1DCD0"/>
<rect id="Rectangle 56" width="6.75866" height="1.19193" rx="0.595967" transform="matrix(-0.761743 0.64788 0.85793 0.513766 13.562 11.7547)" fill="#E1DCD0"/>
<rect id="Rectangle 57" width="6.75866" height="1.19193" rx="0.595967" transform="matrix(-0.761743 0.64788 0.85793 0.513766 13.5623 14.4355)" fill="#E1DCD0"/>
<rect id="Rectangle 58" width="6.75866" height="1.19193" rx="0.595967" transform="matrix(-0.761743 0.64788 0.85793 0.513766 13.5623 17.1163)" fill="#E1DCD0"/>
<rect id="Rectangle 59" width="6.75866" height="1.19193" rx="0.595967" transform="matrix(-0.761743 0.64788 0.85793 0.513766 13.5623 19.7971)" fill="#E1DCD0"/>
</g>
</g>
</g>
<rect id="Rectangle 34624670_2" x="8.84363" y="10.0691" width="4.62651" height="14.4828" rx="0.8" stroke="#FFFDFA" stroke-width="0.8"/>
<rect id="Rectangle 34624669" width="13.8795" height="2.89655" rx="0.8" transform="matrix(1 0 0 -1 9.27719 25.9999)" fill="#A8A292" stroke="#FFFDFA" stroke-width="0.8"/>
<rect id="Rectangle 34624663" x="9" y="8" width="13.8795" height="2.89655" rx="0.8" fill="#A8A292" stroke="#FFFDFA" stroke-width="0.8"/>
</g>
</g>
<rect id="Rectangle 34624666" x="10" y="8.5" width="12" height="17.5" rx="0.8" stroke="#FFFDFA" stroke-width="0.8"/>
</g>
</g>
</g>
</svg>
