<svg width="42" height="42" viewBox="0 0 42 42" fill="none" xmlns="http://www.w3.org/2000/svg">
<g id="&#229;&#143;&#130;&#232;&#128;&#131;&#231;&#148;&#159;&#232;&#167;&#134;&#233;&#162;&#145;">
<rect x="1" y="1" width="40" height="40" rx="8" fill="#423C2B"/>
<rect x="1" y="1" width="40" height="40" rx="8" stroke="#6F6855"/>
<g id="Group 1171276270">
<g id="Group 1171276178">
<g id="Group 1171276272">
<path id="Ellipse 806" d="M30.9313 21.7554C31.1873 19.4243 30.7245 17.0707 29.605 15.0101C28.4855 12.9495 26.7628 11.2804 24.6678 10.2266C22.5729 9.17273 20.2058 8.78457 17.884 9.11411C15.5622 9.44365 13.3966 10.4751 11.6776 12.0703C9.95862 13.6654 8.76839 15.748 8.26648 18.0387C7.76457 20.3294 7.97498 22.7189 8.86951 24.8866C9.76403 27.0544 11.2999 28.8969 13.2712 30.1671C15.2425 31.4372 17.555 32.0744 19.8987 31.9931" stroke="#FFFDFA" stroke-linecap="round"/>
<g id="Group 1171276271">
<path id="Polygon 21" d="M24.6915 18.6588C25.3038 19.0525 25.3038 19.9476 24.6915 20.3412L20.5408 23.0095C19.8752 23.4373 19 22.9595 19 22.1683L19 16.8317C19 16.0405 19.8752 15.5627 20.5408 15.9905L24.6915 18.6588Z" stroke="#FFFDFA"/>
<path id="Polygon 20" d="M23.7687 20.1706C24.3571 20.567 24.3571 21.433 23.7687 21.8294L17.5587 26.0123C16.8944 26.4597 16 25.9838 16 25.1829L16 16.8171C16 16.0162 16.8944 15.5403 17.5587 15.9877L23.7687 20.1706Z" fill="#FFC249"/>
</g>
</g>
</g>
<g id="Group 1171276310">
<g id="Group 1171276307">
<line id="Line 152" x1="22.5" y1="25.5" x2="33.5" y2="25.5" stroke="white" stroke-linecap="round"/>
<circle id="Ellipse 804" cx="30.5" cy="25.5" r="1.5" fill="#26BBFF"/>
</g>
<g id="Group 1171276308">
<line id="Line 153" x1="22.5" y1="29.5" x2="33.5" y2="29.5" stroke="white" stroke-linecap="round"/>
<circle id="Ellipse 805" cx="25.5" cy="29.5" r="1.5" fill="#26BBFF"/>
</g>
<g id="Group 1171276309">
<line id="Line 154" x1="22.5" y1="33.5" x2="33.5" y2="33.5" stroke="white" stroke-linecap="round"/>
<circle id="Ellipse 806_2" cx="29.5" cy="33.5" r="1.5" fill="#26BBFF"/>
</g>
</g>
</g>
</g>
</svg>
