<svg width="40" height="40" viewBox="0 0 40 40" fill="none" xmlns="http://www.w3.org/2000/svg">
<g id="&#229;&#143;&#130;&#232;&#128;&#131;&#231;&#148;&#159;&#232;&#167;&#134;&#233;&#162;&#145;">
<g id="Group 1171276270">
<g id="Group 1171276178">
<g id="Group 1171276272">
<path id="Ellipse 806" d="M29.9313 20.7554C30.1873 18.4243 29.7245 16.0707 28.605 14.0101C27.4855 11.9495 25.7628 10.2804 23.6678 9.22656C21.5729 8.17273 19.2058 7.78457 16.884 8.11411C14.5622 8.44365 12.3966 9.47513 10.6776 11.0703C8.95862 12.6654 7.76839 14.748 7.26648 17.0387C6.76457 19.3294 6.97498 21.7189 7.86951 23.8866C8.76403 26.0544 10.2999 27.8969 12.2712 29.1671C14.2425 30.4372 16.555 31.0744 18.8987 30.9931" stroke="#FFFDFA" stroke-linecap="round"/>
<g id="Group 1171276271">
<path id="Polygon 21" d="M23.6915 17.6588C24.3038 18.0525 24.3038 18.9476 23.6915 19.3412L19.5408 22.0095C18.8752 22.4373 18 21.9595 18 21.1683L18 15.8317C18 15.0405 18.8752 14.5627 19.5408 14.9905L23.6915 17.6588Z" stroke="#FFFDFA"/>
<path id="Polygon 20" d="M22.7687 19.1706C23.3571 19.567 23.3571 20.433 22.7687 20.8294L16.5587 25.0123C15.8944 25.4597 15 24.9838 15 24.1829L15 15.8171C15 15.0162 15.8944 14.5403 16.5587 14.9877L22.7687 19.1706Z" fill="#FFC249"/>
</g>
</g>
</g>
<g id="Group 1171276310">
<g id="Group 1171276307">
<line id="Line 152" x1="21.5" y1="24.5" x2="32.5" y2="24.5" stroke="white" stroke-linecap="round"/>
<circle id="Ellipse 804" cx="29.5" cy="24.5" r="1.5" fill="#26BBFF"/>
</g>
<g id="Group 1171276308">
<line id="Line 153" x1="21.5" y1="28.5" x2="32.5" y2="28.5" stroke="white" stroke-linecap="round"/>
<circle id="Ellipse 805" cx="24.5" cy="28.5" r="1.5" fill="#26BBFF"/>
</g>
<g id="Group 1171276309">
<line id="Line 154" x1="21.5" y1="32.5" x2="32.5" y2="32.5" stroke="white" stroke-linecap="round"/>
<circle id="Ellipse 806_2" cx="28.5" cy="32.5" r="1.5" fill="#26BBFF"/>
</g>
</g>
</g>
</g>
</svg>
