<svg width="32" height="33" viewBox="0 0 32 33" fill="none" xmlns="http://www.w3.org/2000/svg">
<g id="&#229;&#143;&#145;&#229;&#184;&#131;">
<rect y="0.5" width="32" height="32" rx="8" fill="#534B36"/>
<path id="Subtract" d="M21.5001 27.3337L21.1251 27.9832C21.3502 28.1132 21.6265 28.1173 21.8554 27.9942C22.0843 27.871 22.2332 27.6381 22.2487 27.3786L21.5001 27.3337ZM14.4645 23.2717L13.7621 23.0086C13.6335 23.3519 13.772 23.7379 14.0895 23.9212L14.4645 23.2717ZM17.0465 16.3796L17.7488 16.6427C17.8774 16.2994 17.739 15.9134 17.4215 15.73C17.104 15.5467 16.7005 15.6198 16.4675 15.9029L17.0465 16.3796ZM12.3687 22.0617L11.9937 22.7112C12.3113 22.8946 12.7148 22.8215 12.9478 22.5384L12.3687 22.0617ZM5.33398 18.0002L4.92077 17.3743C4.70384 17.5175 4.57654 17.7628 4.58432 18.0227C4.59211 18.2825 4.73387 18.5198 4.95898 18.6497L5.33398 18.0002ZM22.7505 6.50195L23.4991 6.54689C23.5161 6.26333 23.3715 5.99448 23.1255 5.85244C22.8795 5.7104 22.5743 5.71954 22.3372 5.87605L22.7505 6.50195ZM21.5001 27.3337L21.8751 26.6842L14.8395 22.6222L14.4645 23.2717L14.0895 23.9212L21.1251 27.9832L21.5001 27.3337ZM14.4645 23.2717L15.1668 23.5348L17.7488 16.6427L17.0465 16.3796L16.3442 16.1164L13.7621 23.0086L14.4645 23.2717ZM17.0465 16.3796L16.4675 15.9029L11.7897 21.585L12.3687 22.0617L12.9478 22.5384L17.6255 16.8562L17.0465 16.3796ZM12.3687 22.0617L12.7437 21.4122L5.70898 17.3507L5.33398 18.0002L4.95898 18.6497L11.9937 22.7112L12.3687 22.0617ZM5.33398 18.0002L5.7472 18.6261L23.1637 7.12785L22.7505 6.50195L22.3372 5.87605L4.92077 17.3743L5.33398 18.0002ZM22.7505 6.50195L22.0018 6.45702L20.7514 27.2888L21.5001 27.3337L22.2487 27.3786L23.4991 6.54689L22.7505 6.50195Z" fill="#FFC249"/>
</g>
</svg>
