<svg width="30" height="30" viewBox="0 0 30 30" fill="none" xmlns="http://www.w3.org/2000/svg">
<g id="&#230;&#184;&#133;&#230;&#153;&#176;&#229;&#186;&#166;">
<path id="Rectangle 34625033" d="M5 22.5H7.5V25H6.25C5.55964 25 5 24.4404 5 23.75V22.5Z" fill="#FFFDFA"/>
<rect id="Rectangle 34625034" x="7.5" y="20" width="2.5" height="2.5" fill="#FFFDFA"/>
<rect id="Rectangle 34625038" x="10" y="22.5" width="2.5" height="2.5" fill="#FFFDFA"/>
<rect id="Rectangle 34625047" x="5" y="17.5" width="2.5" height="2.5" fill="#FFFDFA"/>
<rect id="Rectangle 34625042" x="15" y="22.5" width="2.5" height="2.5" fill="#FFFDFA"/>
<rect id="Rectangle 34625051" x="5" y="12.5" width="2.5" height="2.5" fill="#FFFDFA"/>
<rect id="Rectangle 34625035" x="10" y="17.5" width="2.5" height="2.5" fill="#FFFDFA"/>
<rect id="Rectangle 34625039" x="12.5" y="20" width="2.5" height="2.5" fill="#FFFDFA"/>
<rect id="Rectangle 34625048" x="7.5" y="15" width="2.5" height="2.5" fill="#FFFDFA"/>
<rect id="Rectangle 34625043" x="17.5" y="20" width="2.5" height="2.5" fill="#FFFDFA"/>
<rect id="Rectangle 34625052" x="7.5" y="10" width="2.5" height="2.5" fill="#FFFDFA"/>
<rect id="Rectangle 34625036" x="12.5" y="15" width="2.5" height="2.5" fill="#FFFDFA"/>
<rect id="Rectangle 34625040" x="15" y="17.5" width="2.5" height="2.5" fill="#FFFDFA"/>
<rect id="Rectangle 34625049" x="10" y="12.5" width="2.5" height="2.5" fill="#FFFDFA"/>
<rect id="Rectangle 34625045" x="20" y="22.5" width="2.5" height="2.5" fill="#FFFDFA"/>
<rect id="Rectangle 34625055" x="5" y="7.5" width="2.5" height="2.5" fill="#FFFDFA"/>
<rect id="Rectangle 34625032" x="5" y="5" width="20" height="20" rx="2.5" stroke="#FFFDFA" stroke-width="1.25"/>
</g>
</svg>
