<svg width="44" height="44" viewBox="0 0 44 44" fill="none" xmlns="http://www.w3.org/2000/svg">
<g id="Frame 1171277615">
<g id="&#232;&#175;&#132;&#232;&#174;&#186;">
<g id="Group 1171276096">
<g id="Union">
<path d="M22 12C14.268 12 8 16.3235 8 21.6562C8.0003 26.9889 14.2682 31.3115 22 31.3115C24.5041 31.3115 26.8536 30.856 28.8874 30.0616C29.0046 30.0158 29.1347 30.0141 29.2525 30.0587L34.2769 31.9638C34.6722 32.1137 35.0635 31.7359 34.9276 31.3356L33.6081 27.4488C33.5467 27.268 33.5946 27.0686 33.7259 26.93C35.1631 25.4137 35.9999 23.603 36 21.6562C36 16.3235 29.732 12 22 12Z" fill="#FFC249"/>
<path d="M8 21.6562L7.5 21.6563V21.6562H8ZM36 21.6562H36.5V21.6563L36 21.6562ZM33.6081 27.4488L34.0816 27.288L33.6081 27.4488ZM33.7259 26.93L33.363 26.5861L33.7259 26.93ZM34.2769 31.9638L34.4542 31.4963L34.2769 31.9638ZM28.8874 30.0616L28.7054 29.5959L28.8874 30.0616ZM29.2525 30.0587L29.0752 30.5262L29.2525 30.0587ZM22 12V12.5C18.2225 12.5 14.8244 13.557 12.3844 15.2399C9.94234 16.9243 8.5 19.2012 8.5 21.6562H8H7.5C7.5 18.7785 9.19167 16.2273 11.8166 14.4167C14.4437 12.6048 18.0456 11.5 22 11.5V12ZM8 21.6562L8.5 21.6562C8.50014 24.1112 9.94252 26.3878 12.3846 28.072C14.8245 29.7547 18.2225 30.8115 22 30.8115V31.3115V31.8115C18.0457 31.8115 14.4439 30.707 11.8168 28.8952C9.19188 27.0849 7.50016 24.5339 7.5 21.6563L8 21.6562ZM22 31.3115V30.8115C24.4443 30.8115 26.732 30.3667 28.7054 29.5959L28.8874 30.0616L29.0693 30.5273C26.9753 31.3453 24.5638 31.8115 22 31.8115V31.3115ZM29.2525 30.0587L29.4297 29.5912L34.4542 31.4963L34.2769 31.9638L34.0996 32.4313L29.0752 30.5262L29.2525 30.0587ZM34.9276 31.3356L34.4542 31.4963L33.1347 27.6095L33.6081 27.4488L34.0816 27.288L35.4011 31.1748L34.9276 31.3356ZM33.7259 26.93L33.363 26.5861C34.7299 25.1439 35.4999 23.4514 35.5 21.6562L36 21.6562L36.5 21.6563C36.4999 23.7546 35.5963 25.6835 34.0888 27.274L33.7259 26.93ZM36 21.6562H35.5C35.5 19.2012 34.0577 16.9243 31.6156 15.2399C29.1756 13.557 25.7775 12.5 22 12.5V12V11.5C25.9544 11.5 29.5563 12.6048 32.1834 14.4167C34.8083 16.2273 36.5 18.7785 36.5 21.6562H36ZM33.6081 27.4488L33.1347 27.6095C33.0109 27.2449 33.11 26.853 33.363 26.5861L33.7259 26.93L34.0888 27.274C34.0846 27.2784 34.0827 27.2829 34.082 27.286C34.0813 27.2886 34.0819 27.2889 34.0816 27.288L33.6081 27.4488ZM34.2769 31.9638L34.4542 31.4963H34.4542L34.9276 31.3356L35.4011 31.1748C35.6729 31.9755 34.8902 32.7311 34.0996 32.4313L34.2769 31.9638ZM28.8874 30.0616L28.7054 29.5959C28.9352 29.5061 29.1933 29.5015 29.4297 29.5912L29.2525 30.0587L29.0752 30.5262C29.0761 30.5266 29.0741 30.5254 29.0693 30.5273L28.8874 30.0616Z" fill="#FFC249"/>
</g>
<g id="Group 1171276095">
<circle id="Ellipse 759" cx="16.5" cy="19.2939" r="1.5" fill="#26BBFF" stroke="#26BBFF"/>
<circle id="Ellipse 760" cx="26.5" cy="19.2939" r="1.5" fill="#26BBFF" stroke="#26BBFF"/>
</g>
</g>
</g>
</g>
</svg>
