<svg width="24" height="24" viewBox="0 0 24 24" fill="none" xmlns="http://www.w3.org/2000/svg">
<g id="Frame 1171276164">
<g id="Group 1171275967">
<path id="Vector 585" d="M7 16L7.16929 17.8621C7.32635 19.5898 7.40488 20.4537 7.97775 20.9768C8.55062 21.5 9.41804 21.5 11.1529 21.5H12.8471C14.582 21.5 15.4494 21.5 16.0222 20.9768C16.5951 20.4537 16.6737 19.5898 16.8307 17.8621L17 16" stroke="#1F1D18" stroke-linecap="round" stroke-linejoin="round"/>
<path id="Subtract" fill-rule="evenodd" clip-rule="evenodd" d="M10 4.3418C8.27611 4.9511 6.91381 6.32586 6.32148 8.0577C4.43551 8.37995 3 10.0225 3 12.0004C3 14.2095 4.79086 16.0004 7 16.0004C7.82474 16.0004 8.59117 15.7508 9.2279 15.323C10.0571 15.7557 11 16.0004 12 16.0004C13 16.0004 13.9429 15.7557 14.7721 15.323C15.4088 15.7508 16.1753 16.0004 17 16.0004C19.2091 16.0004 21 14.2095 21 12.0004C21 10.0225 19.5645 8.37996 17.6785 8.0577C17.0862 6.32587 15.7239 4.9511 14 4.3418V5.41644C15.2775 5.97455 16.2774 7.0511 16.7323 8.38132C16.8508 8.72776 17.1492 8.98175 17.5101 9.04342C18.9238 9.28498 20 10.518 20 12.0004C20 13.6572 18.6569 15.0004 17 15.0004C16.38 15.0004 15.8068 14.8134 15.3298 14.4929C15.0257 14.2886 14.6342 14.267 14.3094 14.4365C13.6197 14.7964 12.8351 15.0004 12 15.0004C11.1649 15.0004 10.3803 14.7964 9.69056 14.4365C9.36578 14.267 8.97431 14.2886 8.67022 14.4929C8.19322 14.8134 7.61996 15.0004 7 15.0004C5.34315 15.0004 4 13.6572 4 12.0004C4 10.518 5.07616 9.28498 6.48991 9.04341C6.85082 8.98174 7.14918 8.72776 7.26767 8.38132C7.72264 7.0511 8.72248 5.97455 10 5.41644V4.3418Z" fill="#1F1D18"/>
<g id="Group 1171275832">
<path id="Vector 586" d="M14 3.5C14.5 2.5 15.5 2 16.5 2" stroke="#26BBFF" stroke-linecap="round"/>
<circle id="Ellipse 220" cx="12" cy="5" r="2.5" stroke="#26BBFF" stroke-linecap="round" stroke-linejoin="round"/>
</g>
</g>
</g>
</svg>
