<svg width="32" height="32" viewBox="0 0 32 32" fill="none" xmlns="http://www.w3.org/2000/svg">
<g id="&#232;&#167;&#146;&#232;&#137;&#178;&#232;&#174;&#190;&#232;&#174;&#161;">
<g id="Group 1171275889">
<circle id="Ellipse 704" cx="16" cy="9" r="5" fill="#534B36" stroke="#A8A292"/>
<path id="Rectangle 34624748" d="M6 26C6 20.4772 10.4772 16 16 16C21.5228 16 26 20.4772 26 26C26 27.1046 25.1046 28 24 28H8C6.89543 28 6 27.1046 6 26Z" fill="#534B36" stroke="#A8A292"/>
</g>
<g id="Group 1171275891">
<circle id="Ellipse 704_2" cx="16" cy="9" r="5" fill="#534B36" stroke="#A8A292"/>
<path id="Rectangle 34624748_2" d="M6 26C6 20.4772 10.4772 16 16 16C21.5228 16 26 20.4772 26 26C26 27.1046 25.1046 28 24 28H8C6.89543 28 6 27.1046 6 26Z" fill="#534B36" stroke="#A8A292"/>
</g>
<g id="Group 1171275892">
<circle id="Ellipse 704_3" cx="16" cy="9" r="5" fill="#534B36" stroke="#A8A292"/>
<path id="Rectangle 34624748_3" d="M6 26C6 20.4772 10.4772 16 16 16C21.5228 16 26 20.4772 26 26C26 27.1046 25.1046 28 24 28H8C6.89543 28 6 27.1046 6 26Z" fill="#534B36" stroke="#A8A292"/>
</g>
</g>
</svg>
