<svg width="28" height="28" viewBox="0 0 28 28" fill="none" xmlns="http://www.w3.org/2000/svg">
<g id="&#232;&#167;&#146;&#232;&#137;&#178;&#232;&#174;&#190;&#232;&#174;&#161;" clip-path="url(#clip0_1438_41878)">
<g id="Group 1171275891">
<circle id="Ellipse 704" cx="19.4451" cy="10.4226" r="3.11111" fill="#CCE5FF" stroke="#E1DCD0" stroke-width="0.622222"/>
<path id="Rectangle 34624748" d="M13.2227 21.0005C13.2227 17.5641 16.0084 14.7783 19.4449 14.7783V14.7783C22.8813 14.7783 25.6671 17.5641 25.6671 21.0005V21.0005C25.6671 21.6878 25.1099 22.245 24.4227 22.245H14.4671C13.7798 22.245 13.2227 21.6878 13.2227 21.0005V21.0005Z" fill="#CCE5FF" stroke="#E1DCD0" stroke-width="0.622222"/>
</g>
<g id="Group 1171275892">
<circle id="Ellipse 704_2" cx="6.99978" cy="10.4226" r="3.11111" fill="#FFCCFF" stroke="#E1DCD0" stroke-width="0.622222"/>
<path id="Rectangle 34624748_2" d="M0.777344 21.0005C0.777344 17.5641 3.56313 14.7783 6.99957 14.7783V14.7783C10.436 14.7783 13.2218 17.5641 13.2218 21.0005V21.0005C13.2218 21.6878 12.6646 22.245 11.9773 22.245H2.02179C1.3345 22.245 0.777344 21.6878 0.777344 21.0005V21.0005Z" fill="#FFCCFF" stroke="#E1DCD0" stroke-width="0.622222"/>
</g>
<g id="Group 1171275889">
<circle id="Ellipse 704_3" cx="13.2229" cy="9.33323" r="3.88889" fill="#FFC249" stroke="#E1DCD0" stroke-width="0.777778"/>
<path id="Rectangle 34624748_3" d="M5.44336 22.5561C5.44336 18.2606 8.92559 14.7783 13.2211 14.7783V14.7783C17.5167 14.7783 20.9989 18.2606 20.9989 22.5561V22.5561C20.9989 23.4152 20.3025 24.1117 19.4434 24.1117H6.99892C6.13981 24.1117 5.44336 23.4152 5.44336 22.5561V22.5561Z" fill="#FFC249" stroke="#E1DCD0" stroke-width="0.777778"/>
</g>
<rect id="Rectangle 34624750" x="12.4434" y="17.8896" width="1.55556" height="4.66667" rx="0.777778" fill="#26BBFF"/>
<g id="Group 1171275894">
<path id="Rectangle 34624749" d="M22.1882 12.0013C22.5174 12.1914 22.6615 12.5915 22.5283 12.9475L21.9746 14.4241C21.806 14.8741 21.2737 15.0657 20.8575 14.8257L18.958 13.729C18.5419 13.4887 18.441 12.9314 18.7464 12.5604L19.7492 11.343C19.9909 11.0496 20.4095 10.9743 20.7387 11.1644L22.1882 12.0013Z" fill="#ED9E00" stroke="#E1DCD0" stroke-width="0.777778"/>
<path id="Rectangle 34624751" d="M26.3265 3.1634C26.8844 3.48549 27.076 4.19874 26.7542 4.7567L23.2927 10.7521C23.1638 10.9751 22.8782 11.0518 22.6551 10.9229L21.4431 10.2232C21.22 10.0944 21.1436 9.80873 21.2723 9.58556L24.7337 3.59019C25.0559 3.0326 25.7687 2.84161 26.3265 3.1634Z" fill="#FFC249" stroke="#E1DCD0" stroke-width="0.777778"/>
<g id="Group 1171275893">
<path id="Ellipse 705" d="M19.8961 18.968C19.0779 20.3852 14.5469 20.7166 15.0765 20.3775C15.6061 20.0383 15.4425 18.009 15.8902 16.6552C16.338 15.3014 18.009 14.9763 19.1499 15.635C20.2908 16.2937 20.7143 17.5508 19.8961 18.968Z" fill="#FFE6B5"/>
<path id="Subtract" d="M15.9609 16.4756C15.8456 17.4891 15.8877 18.5019 16.3251 19.2061C16.6003 19.6488 17.5596 19.8606 18.6509 19.8633C17.0557 20.512 14.6858 20.6282 15.077 20.3777C15.6064 20.0383 15.4429 18.0097 15.8906 16.656C15.9112 16.5936 15.9353 16.5336 15.9609 16.4756Z" fill="#26BBFF"/>
<path id="Ellipse 706" d="M19.3439 15.2982C19.9899 15.6712 20.4581 16.2298 20.6343 16.9205C20.8104 17.6117 20.6819 18.3849 20.2328 19.1627C19.9623 19.6312 19.425 19.9593 18.8751 20.1921C18.3089 20.4318 17.6525 20.6017 17.0517 20.7136C16.451 20.8254 15.8867 20.8825 15.4972 20.8885C15.3153 20.8912 15.1281 20.8842 14.9944 20.8473C14.9583 20.8374 14.9044 20.8199 14.8501 20.7866C14.8011 20.7565 14.6987 20.6804 14.6591 20.5354C14.6153 20.3736 14.6793 20.2424 14.7298 20.1747C14.7769 20.1118 14.8332 20.0718 14.8672 20.05L14.8683 20.0461C14.8745 20.0387 14.886 20.024 14.9002 19.9968C14.9284 19.9426 14.9578 19.8609 14.9869 19.747C15.0456 19.5172 15.0868 19.214 15.1277 18.8528C15.2062 18.1576 15.2811 17.2582 15.5211 16.5326C15.792 15.7142 16.4352 15.2118 17.1575 15.0147C17.8723 14.8196 18.6823 14.9163 19.3439 15.2982Z" stroke="#E1DCD0" stroke-width="0.777778"/>
</g>
</g>
</g>
<defs>
<clipPath id="clip0_1438_41878">
<rect width="28" height="28" fill="white"/>
</clipPath>
</defs>
</svg>
