<svg width="28" height="28" viewBox="0 0 28 28" fill="none" xmlns="http://www.w3.org/2000/svg">
<g id="&#230;&#138;&#147;&#230;&#137;&#139;">
<path id="Union" d="M15.7917 13.2262C15.7917 13.2986 15.8481 13.3583 15.9204 13.3632V13.3632C16 13.3686 16.0682 13.3058 16.0682 13.226V7.92543C16.0682 7.16186 16.6872 6.54286 17.4508 6.54286V6.54286C18.2143 6.54286 18.8333 7.16186 18.8333 7.92543V13.6584C18.8333 13.7264 18.8828 13.7843 18.95 13.7949V13.7949C19.0339 13.8082 19.1099 13.7433 19.1099 13.6584V10.4969C19.1099 9.73328 19.7289 9.11429 20.4924 9.11429V9.11429C21.256 9.11429 21.875 9.73328 21.875 10.4969V14.6259C21.875 15.2356 21.8134 15.8438 21.6912 16.4412L20.9577 20.0254C20.6034 21.7568 19.08 23 17.3128 23V23H13.165V23C11.496 23 9.99618 21.9809 9.38143 20.4293L8.4643 18.1143L7.01829 14.6616C6.54715 13.5366 5.65989 12.0747 6.62978 11.3352C6.68747 11.2912 6.74978 11.251 6.81651 11.2151V11.2151C8.06953 10.5424 8.95816 12.3557 9.46067 13.6861L9.73248 14.4058C9.78372 14.5414 9.98488 14.5047 9.98488 14.3597V8.43972C9.98488 7.67614 10.6039 7.05714 11.3674 7.05714V7.05714C12.131 7.05714 12.75 7.67614 12.75 8.43972V13.4034C12.75 13.4897 12.8291 13.5544 12.914 13.5386V13.5386C12.979 13.5265 13.0265 13.4699 13.0265 13.4037V6.38257C13.0265 5.619 13.6455 5 14.4091 5V5C15.1727 5 15.7917 5.619 15.7917 6.38257V13.2262Z" stroke="#FFFDFA"/>
</g>
</svg>
