<svg width="40" height="40" viewBox="0 0 40 40" fill="none" xmlns="http://www.w3.org/2000/svg">
<g id="&#229;&#143;&#145;&#229;&#184;&#131;">
<path id="Subtract" d="M26.8741 33.5415L26.4575 34.2632C26.7076 34.4076 27.0147 34.4122 27.269 34.2754C27.5233 34.1385 27.6887 33.8797 27.706 33.5914L26.8741 33.5415ZM18.0803 28.4644L17.2999 28.172C17.157 28.5535 17.3108 28.9824 17.6636 29.1861L18.0803 28.4644ZM21.3078 19.8487L22.0882 20.141C22.2311 19.7595 22.0773 19.3307 21.7245 19.127C21.3717 18.9233 20.9234 19.0045 20.6645 19.319L21.3078 19.8487ZM15.4602 26.9517L15.0435 27.6734C15.3963 27.877 15.8446 27.7958 16.1036 27.4813L15.4602 26.9517ZM6.66632 21.8745L6.20717 21.1791C5.96615 21.3382 5.82471 21.6108 5.83336 21.8995C5.84202 22.1882 5.99953 22.4518 6.24965 22.5962L6.66632 21.8745ZM28.4367 7.50104L29.2686 7.55095C29.2875 7.23588 29.1268 6.93717 28.8534 6.77935C28.5801 6.62153 28.241 6.63169 27.9776 6.8056L28.4367 7.50104ZM26.8741 33.5415L27.2908 32.8198L18.4969 27.7427L18.0803 28.4644L17.6636 29.1861L26.4575 34.2632L26.8741 33.5415ZM18.0803 28.4644L18.8606 28.7567L22.0882 20.141L21.3078 19.8487L20.5275 19.5563L17.2999 28.172L18.0803 28.4644ZM21.3078 19.8487L20.6645 19.319L14.8168 26.422L15.4602 26.9517L16.1036 27.4813L21.9512 20.3783L21.3078 19.8487ZM15.4602 26.9517L15.8769 26.23L7.08299 21.1528L6.66632 21.8745L6.24965 22.5962L15.0435 27.6734L15.4602 26.9517ZM6.66632 21.8745L7.12547 22.57L28.8959 8.19647L28.4367 7.50104L27.9776 6.8056L6.20717 21.1791L6.66632 21.8745ZM28.4367 7.50104L27.6049 7.45112L26.0423 33.4916L26.8741 33.5415L27.706 33.5914L29.2686 7.55095L28.4367 7.50104Z" fill="#ED9E00"/>
</g>
</svg>
