<svg width="24" height="24" viewBox="0 0 24 24" fill="none" xmlns="http://www.w3.org/2000/svg">
<g id="&#229;&#143;&#145;&#229;&#184;&#131;">
<rect width="24" height="24" rx="4" fill="#E68A8A"/>
<path id="Subtract" d="M16.1244 20.1244L15.8119 20.6656C15.9994 20.7739 16.2297 20.7774 16.4205 20.6747C16.6112 20.5721 16.7353 20.378 16.7482 20.1618L16.1244 20.1244ZM10.8479 17.078L10.2626 16.8587C10.1554 17.1448 10.2708 17.4665 10.5354 17.6192L10.8479 17.078ZM12.7843 11.9094L13.3696 12.1287C13.4768 11.8426 13.3614 11.5209 13.0968 11.3682C12.8322 11.2154 12.496 11.2763 12.3018 11.5122L12.7843 11.9094ZM9.2765 16.1707L8.964 16.712C9.22859 16.8648 9.56485 16.8038 9.75903 16.568L9.2765 16.1707ZM4 13.1244L3.65563 12.6028C3.47487 12.7221 3.36879 12.9266 3.37528 13.1431C3.38177 13.3596 3.49991 13.5573 3.6875 13.6656L4 13.1244ZM17.0622 4.5L17.6861 4.53745C17.7002 4.30114 17.5797 4.0771 17.3747 3.95873C17.1697 3.84037 16.9154 3.84799 16.7178 3.97843L17.0622 4.5ZM16.1244 20.1244L16.4369 19.5831L11.1604 16.5367L10.8479 17.078L10.5354 17.6192L15.8119 20.6656L16.1244 20.1244ZM10.8479 17.078L11.4331 17.2973L13.3696 12.1287L12.7843 11.9094L12.1991 11.6901L10.2626 16.8587L10.8479 17.078ZM12.7843 11.9094L12.3018 11.5122L8.79396 15.7735L9.2765 16.1707L9.75903 16.568L13.2669 12.3066L12.7843 11.9094ZM9.2765 16.1707L9.589 15.6295L4.3125 12.5831L4 13.1244L3.6875 13.6656L8.964 16.712L9.2765 16.1707ZM4 13.1244L4.34437 13.6459L17.4065 5.02157L17.0622 4.5L16.7178 3.97843L3.65563 12.6028L4 13.1244ZM17.0622 4.5L16.4383 4.46255L15.5005 20.0869L16.1244 20.1244L16.7482 20.1618L17.6861 4.53745L17.0622 4.5Z" fill="#191816"/>
</g>
</svg>
