<svg width="28" height="28" viewBox="0 0 28 28" fill="none" xmlns="http://www.w3.org/2000/svg">
<g id="sound_max_duotone_line">
<g id="Group 1171276196">
<path id="Rectangle 1" d="M6.32766 15.9915C5.52369 14.7855 5.52369 13.2145 6.32766 12.0085V12.0085C6.54427 11.6836 6.88384 11.4609 7.26815 11.3917L9.27364 11.0307C9.38449 11.0108 9.48583 10.9553 9.56235 10.8727L12.226 7.99594C13.3978 6.73033 13.9838 6.09753 14.4919 6.29664C15 6.49576 15 7.35817 15 9.08299L15 18.917C15 20.6418 15 21.5042 14.4919 21.7034C13.9838 21.9025 13.3978 21.2697 12.226 20.0041L9.56235 17.1273C9.48583 17.0447 9.38449 16.9892 9.27364 16.9693L7.26815 16.6083C6.88384 16.5391 6.54427 16.3164 6.32766 15.9915V15.9915Z" stroke="#FFFDFA"/>
<g id="Group 1171276196_2">
<path id="Ellipse 28" d="M17.5355 10.4645C18.4684 11.3973 18.9948 12.6611 19 13.9803C19.0052 15.2996 18.4888 16.5674 17.5633 17.5076" stroke="#FFC249" stroke-width="1.2" stroke-linecap="round"/>
<path id="Ellipse 29" d="M20.6569 8.34315C22.1494 9.83572 22.9916 11.8577 22.9999 13.9685C23.0083 16.0793 22.182 18.1078 20.7012 19.6121" stroke="#FFC249" stroke-width="1.2" stroke-linecap="round"/>
</g>
</g>
</g>
</svg>
