<svg width="30" height="30" viewBox="0 0 30 30" fill="none" xmlns="http://www.w3.org/2000/svg">
<g id="&#231;&#148;&#187;&#233;&#157;&#162;&#233;&#163;&#142;&#230;&#160;&#188;">
<g id="Group 1171276143">
<path id="Union" d="M17.5263 22.9031C17.7842 24.2544 16.9944 25.5861 15.6849 26.0078V26.0078C15.1979 26.1647 14.6739 26.1647 14.1869 26.0078V26.0078C12.8774 25.5861 12.0876 24.2544 12.3455 22.9031L13.03 19.3165C13.1578 18.6471 12.8256 17.9743 12.2165 17.6687V17.6687C12.0044 17.5623 11.7704 17.5069 11.5331 17.5069H10.5036C9.19979 17.5069 8.12504 16.4843 8.06014 15.1821L7.57847 5.51606C7.53578 4.65938 8.21886 3.94141 9.07661 3.94141H20.7952C21.6529 3.94141 22.336 4.65938 22.2933 5.51606L21.8101 15.2129C21.7461 16.4979 20.6856 17.5069 19.399 17.5069H18.0233C17.7733 17.5069 17.5289 17.5811 17.3211 17.7201V17.7201C16.8996 18.002 16.6876 18.5087 16.7827 19.0067L17.5263 22.9031Z" stroke="#FFFDFA" stroke-width="1.25"/>
<path id="Intersect" d="M21.7842 13.6953H8.08203" stroke="#FFFDFA" stroke-width="1.25"/>
<path id="Vector 514" d="M8.43479 8.96756C8.20971 8.70586 7.81509 8.67618 7.55339 8.90126C7.29169 9.12634 7.26201 9.52095 7.48709 9.78265L7.96094 9.37511L8.43479 8.96756ZM11.4324 8.61832L10.8083 8.58424L11.4324 8.61832ZM14.6814 7.59856L14.0656 7.49135L14.6814 7.59856ZM19.131 8.16497L19.7334 8.33159L19.9747 7.4593L19.3723 7.29268L18.7699 7.12605L18.5286 7.99835L19.131 8.16497ZM21.7898 6.60834L21.3641 7.06598L21.8189 7.48895L22.2445 7.03131L22.6702 6.57368L22.2155 6.15071L21.7898 6.60834ZM16.5912 7.45452L15.9985 7.65287L16.2565 8.42389L16.8492 8.22554L17.4419 8.0272L17.1839 7.25617L16.5912 7.45452ZM14.5696 8.24081L15.1853 8.34802L15.2971 7.70576L14.6814 7.59856L14.0656 7.49135L13.9538 8.13361L14.5696 8.24081ZM7.96094 9.37511L7.48709 9.78265L8.84371 11.36L9.31756 10.9524L9.79141 10.5449L8.43479 8.96756L7.96094 9.37511ZM11.3425 10.2636L11.9666 10.2977L12.0564 8.6524L11.4324 8.61832L10.8083 8.58424L10.7185 10.2296L11.3425 10.2636ZM9.31756 10.9524L8.84371 11.36C9.88797 12.5741 11.8793 11.8968 11.9666 10.2977L11.3425 10.2636L10.7185 10.2296C10.6925 10.7043 10.1014 10.9053 9.79141 10.5449L9.31756 10.9524ZM14.5696 8.24081L13.9538 8.13361C13.943 8.19561 13.919 8.22589 13.898 8.24398C13.8724 8.26594 13.8336 8.28396 13.7859 8.28827C13.7382 8.29258 13.6967 8.28181 13.6677 8.26479C13.6437 8.25076 13.6147 8.22528 13.5929 8.16621L13.0064 8.38203L12.4198 8.59784C12.9274 9.97722 14.9332 9.79602 15.1853 8.34802L14.5696 8.24081ZM11.4324 8.61832L12.0564 8.6524C12.0602 8.58277 12.0829 8.55007 12.1015 8.53124C12.1252 8.5071 12.1646 8.4848 12.2159 8.4771C12.2672 8.46941 12.3115 8.47914 12.3412 8.49524C12.3644 8.50781 12.3957 8.5324 12.4198 8.59784L13.0064 8.38203L13.5929 8.16621C13.0537 6.70071 10.8934 7.02503 10.8083 8.58424L11.4324 8.61832ZM19.3723 7.29268L19.9747 7.4593C20.1436 6.84846 20.9001 6.63433 21.3641 7.06598L21.7898 6.60834L22.2155 6.15071C21.0647 5.08033 19.1889 5.61133 18.7699 7.12605L19.3723 7.29268ZM19.131 8.16497L18.5286 7.99835C18.3791 8.53895 17.6199 8.55911 17.4419 8.0272L16.8492 8.22554L16.2565 8.42389C16.826 10.1257 19.2549 10.0612 19.7334 8.33159L19.131 8.16497ZM16.5912 7.45452L17.1839 7.25617C16.6525 5.66843 14.3528 5.84187 14.0656 7.49135L14.6814 7.59856L15.2971 7.70576C15.3617 7.33476 15.879 7.29574 15.9985 7.65287L16.5912 7.45452Z" fill="#FFFDFA"/>
</g>
</g>
</svg>
