<svg width="24" height="24" viewBox="0 0 24 24" fill="none" xmlns="http://www.w3.org/2000/svg">
<g id="&#229;&#143;&#145;&#229;&#184;&#131;">
<rect width="24" height="24" rx="4" fill="#FFC249"/>
<path id="Subtract" d="M16.1244 20.1244L15.8744 20.5574C16.0244 20.644 16.2087 20.6468 16.3613 20.5647C16.5139 20.4826 16.6131 20.3273 16.6235 20.1543L16.1244 20.1244ZM10.8479 17.078L10.3796 16.9025C10.2939 17.1314 10.3862 17.3888 10.5979 17.511L10.8479 17.078ZM12.7843 11.9094L13.2526 12.0848C13.3383 11.856 13.246 11.5986 13.0343 11.4764C12.8227 11.3542 12.5537 11.4029 12.3983 11.5916L12.7843 11.9094ZM9.2765 16.1707L9.0265 16.6038C9.23817 16.726 9.50718 16.6772 9.66253 16.4885L9.2765 16.1707ZM4 13.1244L3.72451 12.7071C3.57989 12.8026 3.49503 12.9661 3.50022 13.1393C3.50542 13.3126 3.59993 13.4707 3.75 13.5574L4 13.1244ZM17.0622 4.5L17.5613 4.52996C17.5726 4.34091 17.4762 4.16168 17.3122 4.06699C17.1482 3.97229 16.9447 3.97839 16.7867 4.08274L17.0622 4.5ZM16.1244 20.1244L16.3744 19.6913L11.0979 16.645L10.8479 17.078L10.5979 17.511L15.8744 20.5574L16.1244 20.1244ZM10.8479 17.078L11.3161 17.2534L13.2526 12.0848L12.7843 11.9094L12.3161 11.734L10.3796 16.9025L10.8479 17.078ZM12.7843 11.9094L12.3983 11.5916L8.89047 15.853L9.2765 16.1707L9.66253 16.4885L13.1704 12.2272L12.7843 11.9094ZM9.2765 16.1707L9.5265 15.7377L4.25 12.6913L4 13.1244L3.75 13.5574L9.0265 16.6038L9.2765 16.1707ZM4 13.1244L4.27549 13.5416L17.3377 4.91726L17.0622 4.5L16.7867 4.08274L3.72451 12.7071L4 13.1244ZM17.0622 4.5L16.5631 4.47004L15.6253 20.0944L16.1244 20.1244L16.6235 20.1543L17.5613 4.52996L17.0622 4.5Z" fill="#191816"/>
</g>
</svg>
