<svg width="32" height="240" viewBox="0 0 32 240" fill="none" xmlns="http://www.w3.org/2000/svg">
<path id="Subtract" fill-rule="evenodd" clip-rule="evenodd" d="M32 -14L32 466L25.6746 466C26.2232 465.996 26.6667 465.55 26.6667 465L26.6667 456.333C26.6667 455.781 26.219 455.333 25.6667 455.333L6.33331 455.333C5.78102 455.333 5.33331 455.781 5.33331 456.333L5.33331 465C5.33331 465.55 5.77676 465.996 6.32541 466L-6.10359e-05 466L-4.00543e-05 -14L32 -14ZM25.6667 -8.66667C26.2189 -8.66667 26.6667 -8.21895 26.6667 -7.66667L26.6667 0.999998C26.6667 1.55228 26.2189 2 25.6667 2L6.33329 2C5.78101 2 5.3333 1.55228 5.3333 0.999998L5.3333 -7.66667C5.3333 -8.21895 5.78101 -8.66667 6.3333 -8.66667L25.6667 -8.66667ZM26.6667 8.33334C26.6667 7.78105 26.2189 7.33334 25.6667 7.33334L6.3333 7.33334C5.78101 7.33334 5.3333 7.78105 5.3333 8.33334L5.3333 17C5.3333 17.5523 5.78101 18 6.33329 18L25.6667 18C26.2189 18 26.6667 17.5523 26.6667 17L26.6667 8.33334ZM25.6667 23.3333C26.2189 23.3333 26.6667 23.781 26.6667 24.3333L26.6667 33C26.6667 33.5523 26.2189 34 25.6667 34L6.33329 34C5.78101 34 5.3333 33.5523 5.3333 33L5.3333 24.3333C5.3333 23.781 5.78101 23.3333 6.3333 23.3333L25.6667 23.3333ZM26.6667 40.3333C26.6667 39.781 26.219 39.3333 25.6667 39.3333L6.33331 39.3333C5.78103 39.3333 5.33331 39.781 5.33331 40.3333L5.33331 49C5.33331 49.5523 5.78102 50 6.33331 50L25.6667 50C26.219 50 26.6667 49.5523 26.6667 49L26.6667 40.3333ZM25.6667 55.3333C26.219 55.3333 26.6667 55.781 26.6667 56.3333L26.6667 65C26.6667 65.5523 26.219 66 25.6667 66L6.33331 66C5.78102 66 5.33331 65.5523 5.33331 65L5.33331 56.3333C5.33331 55.781 5.78103 55.3333 6.33331 55.3333L25.6667 55.3333ZM26.6667 72.3333C26.6667 71.7811 26.219 71.3333 25.6667 71.3333L6.33331 71.3333C5.78102 71.3333 5.33331 71.7811 5.33331 72.3333L5.33331 81C5.33331 81.5523 5.78102 82 6.33331 82L25.6667 82C26.219 82 26.6667 81.5523 26.6667 81L26.6667 72.3333ZM25.6667 87.3333C26.219 87.3333 26.6667 87.7811 26.6667 88.3333L26.6667 97C26.6667 97.5523 26.219 98 25.6667 98L6.33331 98C5.78102 98 5.33331 97.5523 5.33331 97L5.33331 88.3333C5.33331 87.7811 5.78102 87.3333 6.33331 87.3333L25.6667 87.3333ZM26.6667 104.333C26.6667 103.781 26.219 103.333 25.6667 103.333L6.33331 103.333C5.78102 103.333 5.33331 103.781 5.33331 104.333L5.33331 113C5.33331 113.552 5.78102 114 6.33331 114L25.6667 114C26.219 114 26.6667 113.552 26.6667 113L26.6667 104.333ZM25.6667 119.333C26.219 119.333 26.6667 119.781 26.6667 120.333L26.6667 129C26.6667 129.552 26.219 130 25.6667 130L6.3333 130C5.78102 130 5.33331 129.552 5.33331 129L5.33331 120.333C5.33331 119.781 5.78102 119.333 6.33331 119.333L25.6667 119.333ZM26.6667 136.333C26.6667 135.781 26.219 135.333 25.6667 135.333L6.33331 135.333C5.78102 135.333 5.33331 135.781 5.33331 136.333L5.33331 145C5.33331 145.552 5.78102 146 6.3333 146L25.6667 146C26.2189 146 26.6667 145.552 26.6667 145L26.6667 136.333ZM25.6667 151.333C26.219 151.333 26.6667 151.781 26.6667 152.333L26.6667 161C26.6667 161.552 26.2189 162 25.6667 162L6.3333 162C5.78102 162 5.3333 161.552 5.33331 161L5.33331 152.333C5.33331 151.781 5.78102 151.333 6.33331 151.333L25.6667 151.333ZM26.6667 168.333C26.6667 167.781 26.219 167.333 25.6667 167.333L6.3333 167.333C5.78102 167.333 5.3333 167.781 5.3333 168.333L5.3333 177C5.3333 177.552 5.78102 178 6.3333 178L25.6667 178C26.2189 178 26.6667 177.552 26.6667 177L26.6667 168.333ZM25.6667 183.333C26.2189 183.333 26.6667 183.781 26.6667 184.333L26.6667 193C26.6667 193.552 26.2189 194 25.6667 194L6.3333 194C5.78102 194 5.3333 193.552 5.3333 193L5.3333 184.333C5.3333 183.781 5.78102 183.333 6.3333 183.333L25.6667 183.333ZM26.6667 200.333C26.6667 199.781 26.2189 199.333 25.6667 199.333L6.3333 199.333C5.78102 199.333 5.3333 199.781 5.3333 200.333L5.3333 209C5.3333 209.552 5.78102 210 6.3333 210L25.6667 210C26.2189 210 26.6667 209.552 26.6667 209L26.6667 200.333ZM25.6667 215.333C26.2189 215.333 26.6667 215.781 26.6667 216.333L26.6667 225C26.6667 225.552 26.2189 226 25.6667 226L6.3333 226C5.78102 226 5.3333 225.552 5.3333 225L5.3333 216.333C5.3333 215.781 5.78102 215.333 6.3333 215.333L25.6667 215.333ZM26.6667 232.333C26.6667 231.781 26.2189 231.333 25.6667 231.333L6.3333 231.333C5.78102 231.333 5.3333 231.781 5.3333 232.333L5.3333 241C5.3333 241.552 5.78102 242 6.3333 242L25.6667 242C26.2189 242 26.6667 241.552 26.6667 241L26.6667 232.333ZM25.6667 247.333C26.2189 247.333 26.6667 247.781 26.6667 248.333L26.6667 257C26.6667 257.552 26.2189 258 25.6667 258L6.3333 258C5.78101 258 5.3333 257.552 5.3333 257L5.3333 248.333C5.3333 247.781 5.78102 247.333 6.3333 247.333L25.6667 247.333ZM26.6667 264.333C26.6667 263.781 26.2189 263.333 25.6667 263.333L6.3333 263.333C5.78102 263.333 5.3333 263.781 5.3333 264.333L5.3333 273C5.3333 273.552 5.78101 274 6.3333 274L25.6667 274C26.2189 274 26.6667 273.552 26.6667 273L26.6667 264.333ZM25.6667 279.333C26.2189 279.333 26.6667 279.781 26.6667 280.333L26.6667 289C26.6667 289.552 26.2189 290 25.6667 290L6.3333 290C5.78101 290 5.3333 289.552 5.3333 289L5.3333 280.333C5.3333 279.781 5.78102 279.333 6.3333 279.333L25.6667 279.333ZM26.6667 296.333C26.6667 295.781 26.2189 295.333 25.6667 295.333L6.3333 295.333C5.78101 295.333 5.3333 295.781 5.3333 296.333L5.3333 305C5.3333 305.552 5.78101 306 6.3333 306L25.6667 306C26.2189 306 26.6667 305.552 26.6667 305L26.6667 296.333ZM25.6667 311.333C26.2189 311.333 26.6667 311.781 26.6667 312.333L26.6667 321C26.6667 321.552 26.2189 322 25.6667 322L6.3333 322C5.78101 322 5.3333 321.552 5.3333 321L5.3333 312.333C5.3333 311.781 5.78101 311.333 6.3333 311.333L25.6667 311.333ZM26.6667 328.333C26.6667 327.781 26.2189 327.333 25.6667 327.333L6.3333 327.333C5.78101 327.333 5.3333 327.781 5.3333 328.333L5.3333 337C5.3333 337.552 5.78101 338 6.3333 338L25.6667 338C26.2189 338 26.6667 337.552 26.6667 337L26.6667 328.333ZM25.6667 343.333C26.2189 343.333 26.6667 343.781 26.6667 344.333L26.6667 353C26.6667 353.552 26.2189 354 25.6667 354L6.33329 354C5.78101 354 5.3333 353.552 5.3333 353L5.3333 344.333C5.3333 343.781 5.78101 343.333 6.3333 343.333L25.6667 343.333ZM26.6667 360.333C26.6667 359.781 26.2189 359.333 25.6667 359.333L6.3333 359.333C5.78101 359.333 5.3333 359.781 5.3333 360.333L5.3333 369C5.3333 369.552 5.78101 370 6.33329 370L25.6667 370C26.2189 370 26.6667 369.552 26.6667 369L26.6667 360.333ZM25.6667 375.333C26.2189 375.333 26.6667 375.781 26.6667 376.333L26.6667 385C26.6667 385.552 26.2189 386 25.6667 386L6.33329 386C5.78101 386 5.3333 385.552 5.3333 385L5.3333 376.333C5.3333 375.781 5.78101 375.333 6.3333 375.333L25.6667 375.333ZM26.6667 392.333C26.6667 391.781 26.219 391.333 25.6667 391.333L6.33331 391.333C5.78103 391.333 5.33331 391.781 5.33331 392.333L5.33331 401C5.33331 401.552 5.78102 402 6.33331 402L25.6667 402C26.219 402 26.6667 401.552 26.6667 401L26.6667 392.333ZM25.6667 407.333C26.219 407.333 26.6667 407.781 26.6667 408.333L26.6667 417C26.6667 417.552 26.219 418 25.6667 418L6.33331 418C5.78102 418 5.33331 417.552 5.33331 417L5.33331 408.333C5.33331 407.781 5.78103 407.333 6.33331 407.333L25.6667 407.333ZM26.6667 424.333C26.6667 423.781 26.219 423.333 25.6667 423.333L6.33331 423.333C5.78102 423.333 5.33331 423.781 5.33331 424.333L5.33331 433C5.33331 433.552 5.78102 434 6.33331 434L25.6667 434C26.219 434 26.6667 433.552 26.6667 433L26.6667 424.333ZM25.6667 439.333C26.219 439.333 26.6667 439.781 26.6667 440.333L26.6667 449C26.6667 449.552 26.219 450 25.6667 450L6.33331 450C5.78102 450 5.33331 449.552 5.33331 449L5.33331 440.333C5.33331 439.781 5.78102 439.333 6.33331 439.333L25.6667 439.333Z" fill="#26231B"/>
</svg>
