<svg width="32" height="32" viewBox="0 0 32 32" fill="none" xmlns="http://www.w3.org/2000/svg">
<g id="&#232;&#161;&#168;&#230;&#160;&#188;">
<g id="Group 1171276048">
<path id="Rectangle 34624827" d="M6.39844 10.3998C6.39844 8.63249 7.83113 7.1998 9.59844 7.1998H22.3984C24.1657 7.1998 25.5984 8.63249 25.5984 10.3998V21.5998C25.5984 23.3671 24.1657 24.7998 22.3984 24.7998H9.59844C7.83113 24.7998 6.39844 23.3671 6.39844 21.5998V10.3998Z" stroke="#FFC249" stroke-width="0.8"/>
<line id="Line 94" x1="6.39844" y1="16.3998" x2="25.5984" y2="16.3998" stroke="#26BBFF" stroke-width="0.8"/>
<line id="Line 95" x1="6.39844" y1="20.3998" x2="25.5984" y2="20.3998" stroke="#26BBFF" stroke-width="0.8"/>
<line id="Line 90" x1="20.4" y1="12.7998" x2="20.4" y2="24.7998" stroke="#26BBFF" stroke-width="0.8"/>
<line id="Line 91" x1="12.4" y1="12.7998" x2="12.4" y2="24.7998" stroke="#26BBFF" stroke-width="0.8"/>
<path id="Rectangle 34624826" d="M6.39844 10.3998C6.39844 8.63249 7.83113 7.1998 9.59844 7.1998H22.3984C24.1657 7.1998 25.5984 8.63249 25.5984 10.3998V12.7998H6.39844V10.3998Z" stroke="#FFC249" stroke-width="0.8"/>
<rect id="Rectangle 34624825" x="6.39844" y="7.1998" width="19.2" height="17.6" rx="3.2" stroke="#FFC249" stroke-width="0.8"/>
</g>
</g>
</svg>
