<svg width="20" height="20" viewBox="0 0 20 20" fill="none" xmlns="http://www.w3.org/2000/svg">
<g id="&#229;&#133;&#179;&#233;&#148;&#174;">
<path id="#" d="M15 5.70093V9.01869C14.3891 9.01869 13.955 9.01869 13.6977 9.01869C13.4512 9.00312 13.2851 8.99533 13.1994 8.99533C13.1458 8.99533 13.1029 9.00312 13.0707 9.01869C13.0386 9.01869 13.0225 9.03427 13.0225 9.06542C13.0225 9.081 13.0225 9.09657 13.0225 9.11215L12.8939 9.81308L12.6849 10.9112H14.2605V14.229C13.5638 14.229 13.0815 14.229 12.8135 14.229C12.5563 14.2134 12.3901 14.2056 12.3151 14.2056C12.2615 14.2056 12.2186 14.2134 12.1865 14.229C12.1543 14.229 12.1383 14.2445 12.1383 14.2757C12.1383 14.2913 12.1383 14.3069 12.1383 14.3224L11.9775 15.257L11.6077 17.5H8.95498L9.50161 14.229H9.16399L9.05145 14.8364C8.77278 16.3941 8.61736 17.2819 8.58521 17.5H5.94855L6.4791 14.229H5V10.9112H7.0418L7.36334 9.01869H5.73955V5.70093H7.87781C7.90997 5.54517 8.02251 4.89875 8.21543 3.76168C8.26902 3.419 8.3119 3.14642 8.34405 2.94392C8.38692 2.74143 8.41372 2.59346 8.42444 2.5H11.0932L10.5627 5.70093H10.9325C10.9432 5.65421 10.9914 5.38941 11.0772 4.90654C11.1629 4.4081 11.3023 3.60592 11.4952 2.5H14.1318L13.5852 5.70093H15ZM10.0965 10.9579L10.4341 8.97196H10C9.81779 10.109 9.70525 10.771 9.66238 10.9579H10.0965Z" fill="#26BBFF" fill-opacity="0.6"/>
</g>
</svg>
