<svg width="24" height="24" viewBox="0 0 24 24" fill="none" xmlns="http://www.w3.org/2000/svg">
<g id="&#229;&#133;&#179;&#233;&#148;&#174;">
<path id="#" d="M18 6.84112V10.8224C17.2669 10.8224 16.746 10.8224 16.4373 10.8224C16.1415 10.8037 15.9421 10.7944 15.8392 10.7944C15.7749 10.7944 15.7235 10.8037 15.6849 10.8224C15.6463 10.8224 15.627 10.8411 15.627 10.8785C15.627 10.8972 15.627 10.9159 15.627 10.9346L15.4727 11.7757L15.2219 13.0935H17.1125V17.0748C16.2765 17.0748 15.6977 17.0748 15.3762 17.0748C15.0675 17.0561 14.8682 17.0467 14.7781 17.0467C14.7138 17.0467 14.6624 17.0561 14.6238 17.0748C14.5852 17.0748 14.5659 17.0935 14.5659 17.1308C14.5659 17.1495 14.5659 17.1682 14.5659 17.1869L14.373 18.3084L13.9293 21H10.746L11.4019 17.0748H10.9968L10.8617 17.8037C10.5273 19.6729 10.3408 20.7383 10.3023 21H7.13826L7.77492 17.0748H6V13.0935H8.45016L8.83601 10.8224H6.88746V6.84112H9.45338C9.49196 6.65421 9.62701 5.8785 9.85852 4.51402C9.92283 4.1028 9.97428 3.7757 10.0129 3.53271C10.0643 3.28972 10.0965 3.11215 10.1093 3H13.3119L12.6752 6.84112H13.119C13.1318 6.78505 13.1897 6.46729 13.2926 5.88785C13.3955 5.28972 13.5627 4.3271 13.7942 3H16.9582L16.3022 6.84112H18ZM12.1158 13.1495L12.5209 10.7664H12C11.7814 12.1308 11.6463 12.9252 11.5949 13.1495H12.1158Z" fill="#ED9E00"/>
</g>
</svg>
