<svg width="20" height="20" viewBox="0 0 20 20" fill="none" xmlns="http://www.w3.org/2000/svg">
<g id="tapOnIt_default">
<g id="like-1--reward-social-up-rating-media-like-thumb-hand">
<path id="Vector_2" d="M7.9165 12.0158L10.1099 16.138C10.1949 16.3009 10.3143 16.4352 10.4566 16.5277C10.5988 16.6202 10.7591 16.6678 10.9216 16.6659C11.0496 16.6714 11.1773 16.6466 11.297 16.593C11.4168 16.5394 11.5262 16.4582 11.6187 16.3541C11.7113 16.25 11.7852 16.1251 11.836 15.9868C11.8869 15.8486 11.9136 15.6997 11.9147 15.5491V12.5945H15.7056C15.8457 12.5892 15.9832 12.5491 16.1092 12.4768C16.2351 12.4045 16.3466 12.3016 16.4363 12.175C16.5261 12.0484 16.592 11.901 16.6297 11.7423C16.6675 11.5836 16.6763 11.4173 16.6555 11.2543L15.9647 5.18198C15.9352 4.90198 15.8197 4.64429 15.6401 4.45731C15.4604 4.27034 15.2288 4.16698 14.9888 4.16667H9.32407C9.05441 4.16544 8.78824 4.23841 8.54688 4.37995L7.92514 4.7454" stroke="#FFC249" stroke-width="0.833333" stroke-linecap="round" stroke-linejoin="round"/>
<path id="Vector" d="M3.76904 11.6667H5.8335V5H3.76904C3.65352 5 3.54274 5.05559 3.46106 5.15474C3.37938 5.25378 3.3335 5.38817 3.3335 5.52821V11.1384C3.3335 11.2785 3.37938 11.4129 3.46106 11.5119C3.54274 11.611 3.65352 11.6667 3.76904 11.6667Z" stroke="#FFFDFA" stroke-width="0.833333" stroke-linecap="round" stroke-linejoin="round"/>
</g>
</g>
</svg>
