<svg width="20" height="20" viewBox="0 0 20 20" fill="none" xmlns="http://www.w3.org/2000/svg">
<g id="giveTheThumbsup_default">
<g id="like-1--reward-social-up-rating-media-like-thumb-hand">
<path id="Vector_2" d="M7.9165 7.98418L10.1099 3.86202C10.1949 3.6991 10.3143 3.56483 10.4566 3.4723C10.5988 3.37978 10.7591 3.33216 10.9216 3.33406C11.0496 3.32863 11.1773 3.35342 11.297 3.40699C11.4168 3.46055 11.5262 3.54179 11.6187 3.64591C11.7113 3.75003 11.7852 3.87491 11.836 4.01318C11.8869 4.15144 11.9136 4.30028 11.9147 4.4509V7.40545H15.7056C15.8457 7.41079 15.9832 7.45093 16.1092 7.52325C16.2351 7.59555 16.3466 7.69837 16.4363 7.82496C16.5261 7.95156 16.592 8.09904 16.6297 8.25773C16.6675 8.41641 16.6763 8.5827 16.6555 8.74566L15.9647 14.818C15.9352 15.098 15.8197 15.3557 15.6401 15.5427C15.4604 15.7297 15.2288 15.833 14.9888 15.8333H9.32407C9.05441 15.8346 8.78824 15.7616 8.54688 15.6201L7.92514 15.2546" stroke="#FFC249" stroke-width="0.833333" stroke-linecap="round" stroke-linejoin="round"/>
<path id="Vector" d="M3.76904 8.33333H5.8335V15H3.76904C3.65352 15 3.54274 14.9444 3.46106 14.8453C3.37938 14.7462 3.3335 14.6118 3.3335 14.4718V8.86159C3.3335 8.72149 3.37938 8.58712 3.46106 8.48805C3.54274 8.38899 3.65352 8.33333 3.76904 8.33333Z" stroke="#FFFDFA" stroke-width="0.833333" stroke-linecap="round" stroke-linejoin="round"/>
</g>
</g>
</svg>
