<svg width="20" height="20" viewBox="0 0 20 20" fill="none" xmlns="http://www.w3.org/2000/svg">
<g id="tapOnIt_hoverAndSelected">
<rect width="20" height="20" rx="4" fill="#423C2B"/>
<g id="like-1--reward-social-up-rating-media-like-thumb-hand">
<path id="Vector_2" d="M7.9165 12.0159L10.1099 16.1381C10.1949 16.301 10.3143 16.4352 10.4566 16.5278C10.5988 16.6203 10.7591 16.6679 10.9216 16.666C11.0496 16.6714 11.1773 16.6467 11.297 16.5931C11.4168 16.5395 11.5262 16.4583 11.6187 16.3542C11.7113 16.25 11.7852 16.1252 11.836 15.9869C11.8869 15.8486 11.9136 15.6998 11.9147 15.5492V12.5946H15.7056C15.8457 12.5893 15.9832 12.5491 16.1092 12.4768C16.2351 12.4045 16.3466 12.3017 16.4363 12.1751C16.5261 12.0485 16.592 11.901 16.6297 11.7424C16.6675 11.5837 16.6763 11.4174 16.6555 11.2544L15.9647 5.18206C15.9352 4.90206 15.8197 4.64436 15.6401 4.45739C15.4604 4.27042 15.2288 4.16705 14.9888 4.16675H9.32407C9.05441 4.16552 8.78824 4.23849 8.54688 4.38002L7.92514 4.74548" fill="#FFC249" stroke="#FFC249" stroke-width="0.833333" stroke-linecap="round" stroke-linejoin="round"/>
<path id="Vector" d="M3.76904 11.6667H5.8335V5.00008H3.76904C3.65352 5.00008 3.54274 5.05567 3.46106 5.15482C3.37938 5.25386 3.3335 5.38825 3.3335 5.52829V11.1385C3.3335 11.2786 3.37938 11.413 3.46106 11.512C3.54274 11.6111 3.65352 11.6667 3.76904 11.6667Z" fill="#FFFDFA" stroke="#FFFDFA" stroke-width="0.833333" stroke-linecap="round" stroke-linejoin="round"/>
</g>
</g>
</svg>
