<svg width="42" height="42" viewBox="0 0 42 42" fill="none" xmlns="http://www.w3.org/2000/svg">
<g id="&#233;&#163;&#142;&#230;&#160;&#188;&#232;&#191;&#129;&#231;&#167;&#187;">
<rect x="1" y="1" width="40" height="40" rx="8" fill="#423C2B"/>
<rect x="1" y="1" width="40" height="40" rx="8" stroke="#6F6855"/>
<g id="Group 1171276261">
<path id="Vector 617" d="M24.184 12.7129H31.6434C31.9195 12.7129 32.1434 12.9367 32.1434 13.2129V19.3003C32.1434 19.6459 31.9649 19.9671 31.6714 20.1496L23.3294 25.3364C23.0359 25.5189 22.8574 25.84 22.8574 26.1856V31.2852" stroke="#FFFDFA" stroke-width="1.5"/>
<g id="Group 1171276086">
<path id="Vector 616" d="M25.0949 11.7861H12.5058C10.6394 11.7861 9.22556 13.4716 9.55033 15.3096L9.61423 15.6712C9.63357 15.7807 9.66647 15.8873 9.71219 15.9885L11.5065 19.964C11.8057 20.627 12.8032 20.3558 12.7256 19.6326C12.6451 18.8837 13.6996 18.6357 13.9614 19.3419L15.2197 22.7358C15.5808 23.7096 16.9696 23.6758 17.2829 22.6856L18.578 18.5915C18.8496 17.7331 20.0288 17.6438 20.4266 18.4514L20.6119 18.8277C20.9979 19.6115 22.1678 19.4086 22.2674 18.5406C22.3584 17.7465 23.3784 17.4795 23.8468 18.1272L24.5854 19.1483C25.1672 19.9528 26.386 19.8865 26.8771 19.0237L28.0498 16.9637C28.2978 16.528 28.4282 16.0352 28.4282 15.5339V15.1195C28.4282 13.2785 26.9358 11.7861 25.0949 11.7861Z" stroke="#FFFDFA" stroke-linecap="round"/>
<rect id="Rectangle 34624852" x="8" y="9" width="21.7679" height="7.25617" rx="1.66667" fill="#FFC249"/>
<path id="Rectangle 34624853" d="M21 27.5713H24.7144V33.143C24.7144 34.1687 23.8829 35.0002 22.8572 35.0002V35.0002C21.8315 35.0002 21 34.1687 21 33.143V27.5713Z" fill="#26BBFF"/>
</g>
</g>
</g>
</svg>
