<svg width="24" height="24" viewBox="0 0 24 24" fill="none" xmlns="http://www.w3.org/2000/svg">
<g id="&#231;&#191;&#187;&#232;&#175;&#145;">
<g id="Group 1171276093">
<path id="Rectangle 34624851" d="M13.2863 10.7145H19.4006C20.2843 10.7145 21.0006 11.4308 21.0006 12.3145V19.4C21.0006 20.2837 20.2843 21 19.4006 21H12.3148C11.4312 21 10.7148 20.2837 10.7148 19.4V13.2859" stroke="#FFFDFA" stroke-width="0.8"/>
<rect id="Rectangle 34624850" x="3" y="3" width="10.2858" height="10.2855" rx="1.6" stroke="#FFFDFA" stroke-width="0.8"/>
<path id="&#228;&#184;&#173;" d="M8.5791 4.68848V5.95898H11.5967V9.55469H10.7422V9.13672H8.5791V11.5957H7.69922V9.13672H5.54492V9.55469H4.68945V5.95898H7.69922V4.68848H8.5791ZM8.5791 8.40332H10.7422V6.69141H8.5791V8.40332ZM5.54492 8.40332H7.69922V6.69141H5.54492V8.40332Z" fill="#FFC249" stroke="#FFC249" stroke-width="0.05"/>
<path id="A" d="M15.2275 12.4283H16.4891L19.2869 19.2853H18.0965L17.4149 17.5182H14.2915L13.6099 19.2853H12.4297L15.2275 12.4283ZM14.6272 16.6539H17.0791L15.8786 13.5519H15.8379L14.6272 16.6539Z" fill="#FFC249" stroke="#FFC249" stroke-width="0.05"/>
<path id="Ellipse 808" d="M15.3721 5.39208C16.1526 5.59302 16.8647 5.99987 17.4342 6.57011C18.0037 7.14034 18.4095 7.85304 18.6094 8.63375L17.6504 8.87929C17.4945 8.27034 17.1779 7.71444 16.7337 7.26965C16.2895 6.82487 15.734 6.50753 15.1252 6.35079L15.3721 5.39208Z" fill="#FFC249"/>
<path id="Ellipse 809" d="M8.62789 18.6076C7.84744 18.4067 7.13528 17.9998 6.56581 17.4296C5.99634 16.8594 5.59045 16.1467 5.39057 15.3659L6.34964 15.1204C6.50555 15.7294 6.82214 16.2853 7.26633 16.73C7.71051 17.1748 8.266 17.4922 8.87475 17.6489L8.62789 18.6076Z" fill="#FFC249"/>
</g>
</g>
</svg>
