<svg width="40" height="40" viewBox="0 0 40 40" fill="none" xmlns="http://www.w3.org/2000/svg">
<g id="&#233;&#163;&#142;&#230;&#160;&#188;&#232;&#191;&#129;&#231;&#167;&#187;">
<g id="Group 1171276261">
<path id="Vector 617" d="M23.184 11.7129H30.6434C30.9195 11.7129 31.1434 11.9367 31.1434 12.2129V18.3003C31.1434 18.6459 30.9649 18.9671 30.6714 19.1496L22.3294 24.3364C22.0359 24.5189 21.8574 24.84 21.8574 25.1856V30.2852" stroke="#FFFDFA" stroke-width="1.5"/>
<g id="Group 1171276086">
<path id="Vector 616" d="M24.0949 10.7861H11.5058C9.63935 10.7861 8.22556 12.4716 8.55033 14.3096L8.61423 14.6712C8.63357 14.7807 8.66647 14.8873 8.71219 14.9885L10.5065 18.964C10.8057 19.627 11.8032 19.3558 11.7256 18.6326C11.6451 17.8837 12.6996 17.6357 12.9614 18.3419L14.2197 21.7358C14.5808 22.7096 15.9696 22.6758 16.2829 21.6856L17.578 17.5915C17.8496 16.7331 19.0288 16.6438 19.4266 17.4514L19.6119 17.8277C19.9979 18.6115 21.1678 18.4086 21.2674 17.5406C21.3584 16.7465 22.3784 16.4795 22.8468 17.1272L23.5854 18.1483C24.1672 18.9528 25.386 18.8865 25.8771 18.0237L27.0498 15.9637C27.2978 15.528 27.4282 15.0352 27.4282 14.5339V14.1195C27.4282 12.2785 25.9358 10.7861 24.0949 10.7861Z" stroke="#FFFDFA" stroke-linecap="round"/>
<rect id="Rectangle 34624852" x="7" y="8" width="21.7679" height="7.25617" rx="1.66667" fill="#FFC249"/>
<path id="Rectangle 34624853" d="M20 26.5713H23.7144V32.143C23.7144 33.1687 22.8829 34.0002 21.8572 34.0002V34.0002C20.8315 34.0002 20 33.1687 20 32.143V26.5713Z" fill="#26BBFF"/>
</g>
</g>
</g>
</svg>
