<svg width="40" height="40" viewBox="0 0 40 40" fill="none" xmlns="http://www.w3.org/2000/svg">
<g id="&#230;&#150;&#135;&#230;&#161;&#163;">
<g id="Group 1171276050">
<path id="Rectangle 1" d="M21.6738 7.5C22.2189 7.5 22.6224 7.4919 22.9922 7.63477C23.3654 7.77906 23.6502 8.0557 24.0352 8.41504L29.5039 13.5205C29.8849 13.8761 30.1888 14.1456 30.3486 14.5059C30.5102 14.8701 30.5 15.2695 30.5 15.7715V26.667C30.5 27.9088 30.5015 28.8941 30.3906 29.6641C30.2771 30.4523 30.0366 31.0878 29.5039 31.585C28.9763 32.0772 28.3105 32.2946 27.4834 32.3984C26.667 32.5009 25.6196 32.5 24.2861 32.5H15.7139C14.3804 32.5 13.333 32.5009 12.5166 32.3984C11.6895 32.2946 11.0237 32.0772 10.4961 31.585C9.96342 31.0878 9.72291 30.4523 9.60938 29.6641C9.49846 28.8941 9.5 27.9088 9.5 26.667V13.333C9.5 12.0912 9.49846 11.1059 9.60938 10.3359C9.72291 9.54774 9.96342 8.91221 10.4961 8.41504C11.0237 7.92281 11.6895 7.70539 12.5166 7.60156C13.333 7.49912 14.3804 7.5 15.7139 7.5H21.6738Z" stroke="#FFFDFA"/>
<path id="Vector 55" d="M14 20L22 20" stroke="#FFC249" stroke-width="2" stroke-linecap="round"/>
<path id="Vector 58" d="M14 25L19.3333 25" stroke="#26BBFF" stroke-width="2" stroke-linecap="round"/>
<path id="Rectangle 2" d="M23 8V12.6667C23 13.7666 23 14.3166 23.3417 14.6583C23.6834 15 24.2334 15 25.3333 15H30" stroke="#FFFDFA"/>
</g>
</g>
</svg>
