<svg width="40" height="40" viewBox="0 0 40 40" fill="none" xmlns="http://www.w3.org/2000/svg">
<g id="&#229;&#155;&#190;&#231;&#137;&#135;&#231;&#148;&#159;&#230;&#136;&#144;">
<rect x="0.5" y="0.5" width="39" height="39" rx="7.5" fill="#423C2B"/>
<rect x="0.5" y="0.5" width="39" height="39" rx="7.5" stroke="#6F6855"/>
<g id="Group 1171276189">
<circle id="Ellipse 46" cx="32.5" cy="12.5" r="2.5" fill="#26BBFF"/>
<g id="Group 1171276186">
<path id="Polygon 21" d="M23.0566 17.2422C23.6556 16.5367 24.7447 16.5369 25.3438 17.2422L31.6709 24.6963C32.4978 25.6707 31.8053 27.1668 30.5273 27.167H17.874C16.5959 27.167 15.9034 25.6707 16.7305 24.6963L23.0566 17.2422Z" stroke="#FFFDFA"/>
<path id="Polygon 22" d="M14.7027 13.658C15.3487 12.7807 16.6513 12.7807 17.2973 13.658L26.6787 26.4001C27.4701 27.475 26.7091 29 25.3814 29H6.61858C5.29087 29 4.52991 27.475 5.32128 26.4001L14.7027 13.658Z" fill="#FFC249"/>
</g>
</g>
</g>
</svg>
