<svg width="28" height="28" viewBox="0 0 28 28" fill="none" xmlns="http://www.w3.org/2000/svg">
<g id="&#228;&#184;&#138;&#228;&#188;&#160;&#229;&#164;&#180;&#229;&#131;&#143;">
<g id="Group 1171275964">
<path id="Rectangle 1" d="M4 11.2462C4 11.0176 4 10.9032 4.00934 10.8069C4.10167 9.85501 4.85501 9.10167 5.80693 9.00934C5.90324 9 6.01756 9 6.24621 9V9C6.4288 9 6.5201 9 6.60148 8.99334C7.39648 8.92832 8.07684 8.39712 8.33273 7.64162C8.35893 7.56429 8.38107 7.47572 8.42536 7.29857L8.5 7C8.6153 6.53882 8.67294 6.30823 8.767 6.11706C9.03685 5.5686 9.54269 5.17366 10.1402 5.04489C10.3485 5 10.5862 5 11.0616 5H15.9384C16.4138 5 16.6515 5 16.8598 5.04489C17.4573 5.17366 17.9631 5.5686 18.233 6.11706C18.3271 6.30823 18.3847 6.53882 18.5 7L18.5746 7.29858C18.6189 7.47572 18.6411 7.56429 18.6673 7.64162C18.9232 8.39712 19.6035 8.92832 20.3985 8.99334C20.4799 9 20.5712 9 20.7538 9V9C20.9824 9 21.0968 9 21.1931 9.00934C22.145 9.10167 22.8983 9.85501 22.9907 10.8069C23 10.9032 23 11.0176 23 11.2462V18C23 19.8856 23 20.8284 22.4142 21.4142C21.8284 22 20.8856 22 19 22H8C6.11438 22 5.17157 22 4.58579 21.4142C4 20.8284 4 19.8856 4 18V11.2462Z" stroke="#FFC249"/>
<circle id="Ellipse 55" cx="13.5" cy="14.5" r="3.4" stroke="#26BBFF" stroke-width="1.2"/>
</g>
</g>
</svg>
