<svg width="20" height="20" viewBox="0 0 20 20" fill="none" xmlns="http://www.w3.org/2000/svg">
<g id="Upload">
<g id="Group 1171276279">
<path id="Vector" d="M17.5 10.8335H13.4615C13.1555 10.8335 12.862 10.9293 12.6456 11.0998C12.4293 11.2703 12.3077 11.5015 12.3077 11.7426C12.3077 12.2248 12.0646 12.6872 11.6318 13.0282C11.199 13.3692 10.612 13.5608 10 13.5608C9.38797 13.5608 8.80099 13.3692 8.36822 13.0282C7.93543 12.6872 7.69231 12.2248 7.69231 11.7426C7.69231 11.5015 7.57074 11.2703 7.35436 11.0998C7.13797 10.9293 6.84448 10.8335 6.53846 10.8335H2.5V15.7577C2.5 15.9988 2.62157 16.2301 2.83795 16.4006C3.05434 16.571 3.34782 16.6668 3.65385 16.6668H16.3462C16.6522 16.6668 16.9457 16.571 17.162 16.4006C17.3784 16.2301 17.5 15.9988 17.5 15.7577V10.8335Z" stroke="#FFE6B5" stroke-width="0.833333" stroke-linecap="round" stroke-linejoin="round"/>
<path id="Vector_2" d="M7.5 6.08297L10 3.3335M10 3.3335L12.5 6.08297M10 3.3335V10.0002" stroke="#FFE6B5" stroke-width="0.833333" stroke-linecap="round" stroke-linejoin="round"/>
</g>
</g>
</svg>
