<svg width="32" height="33" viewBox="0 0 32 33" fill="none" xmlns="http://www.w3.org/2000/svg">
<g id="Img_box_duotone_line">
<g id="Mask Group">
<mask id="mask0_1323_53636" style="mask-type:alpha" maskUnits="userSpaceOnUse" x="4" y="4" width="24" height="25">
<path id="Rectangle 2" d="M4 12.5C4 8.72876 4 6.84315 5.17157 5.67157C6.34315 4.5 8.22876 4.5 12 4.5H20C23.7712 4.5 25.6569 4.5 26.8284 5.67157C28 6.84315 28 8.72876 28 12.5V20.5C28 24.2712 28 26.1569 26.8284 27.3284C25.6569 28.5 23.7712 28.5 20 28.5H12C8.22876 28.5 6.34315 28.5 5.17157 27.3284C4 26.1569 4 24.2712 4 20.5V12.5Z" fill="#273B4A"/>
</mask>
<g mask="url(#mask0_1323_53636)">
<path id="Vector 67" d="M7.21319 17.2868L7.00951 17.4905C5.70195 18.7981 5.04817 19.4518 4.65686 20.2545C4.52088 20.5334 4.40949 20.8236 4.32398 21.1219C4.07791 21.9803 4.1265 22.9036 4.2237 24.7502L4.66667 33.1667H28V26.8431C28 24.9078 28 23.9402 27.6819 23.0609C27.5949 22.8205 27.4908 22.5867 27.3703 22.3612C26.9295 21.5365 26.2103 20.8892 24.7718 19.5946L24.4857 19.3372C23.291 18.2619 22.6936 17.7242 22.0104 17.5719C21.5819 17.4763 21.1364 17.488 20.7136 17.606C20.0393 17.794 19.471 18.3623 18.3344 19.4989C17.4913 20.3421 17.0697 20.7636 16.6167 20.8208C16.3359 20.8562 16.051 20.8014 15.8035 20.6642C15.4041 20.4429 15.1656 19.8865 14.6888 18.7738C13.6745 16.4072 13.1674 15.2239 12.2956 14.7868C11.8566 14.5668 11.3655 14.4722 10.8763 14.5135C9.90448 14.5955 9.00738 15.4926 7.21319 17.2868Z" fill="#FFC249" stroke="#E1DCD0" stroke-width="1.2"/>
</g>
</g>
<path id="Rectangle 1" d="M4 12.5C4 8.72876 4 6.84315 5.17157 5.67157C6.34315 4.5 8.22876 4.5 12 4.5H20C23.7712 4.5 25.6569 4.5 26.8284 5.67157C28 6.84315 28 8.72876 28 12.5V20.5C28 24.2712 28 26.1569 26.8284 27.3284C25.6569 28.5 23.7712 28.5 20 28.5H12C8.22876 28.5 6.34315 28.5 5.17157 27.3284C4 26.1569 4 24.2712 4 20.5V12.5Z" stroke="#E1DCD0"/>
<circle id="Ellipse 46" cx="22" cy="10.5" r="2" fill="#26BBFF"/>
</g>
</svg>
