<svg width="40" height="40" viewBox="0 0 40 40" fill="none" xmlns="http://www.w3.org/2000/svg">
<g id="&#232;&#167;&#134;&#233;&#162;&#145;&#231;&#148;&#159;&#230;&#136;&#144;">
<g id="Group 1171276181">
<g id="Group 1171276180">
<circle id="Ellipse 797" cx="1.09091" cy="1.09091" r="1.09091" transform="matrix(-1 0 0 1 35.3633 29.8184)" fill="#26BBFF"/>
<path id="Subtract" d="M25.8936 29.8184C23.9424 31.191 21.5659 31.9999 18.999 32H30.999C31.6015 32 32.0898 31.5116 32.0898 30.9092C32.0898 30.3068 31.6014 29.8184 30.999 29.8184H25.8936ZM14.6748 31.1924C14.7997 31.6573 15.2222 32 15.7266 32H18.999C17.474 32 16.0168 31.7112 14.6748 31.1924Z" fill="#26BBFF"/>
</g>
<g id="Group 1171276178">
<rect id="Rectangle 34624945" x="7" y="8" width="24" height="24" rx="12" stroke="#FFFDFA"/>
<path id="Polygon 20" d="M23.5 19.134C24.1667 19.5189 24.1667 20.4811 23.5 20.866L17.5 24.3301C16.8333 24.715 16 24.2339 16 23.4641L16 16.5359C16 15.7661 16.8333 15.285 17.5 15.6699L23.5 19.134Z" fill="#FFC249"/>
</g>
</g>
</g>
</svg>
