<svg width="20" height="20" viewBox="0 0 20 20" fill="none" xmlns="http://www.w3.org/2000/svg">
<g id="giveTheThumbsup_hoverAndSelected">
<rect width="20" height="20" rx="4" fill="#423C2B"/>
<g id="like-1--reward-social-up-rating-media-like-thumb-hand">
<path id="Vector_2" d="M7.91602 7.98386L10.1094 3.8617C10.1944 3.69878 10.3138 3.56451 10.4561 3.47198C10.5984 3.37946 10.7586 3.33184 10.9211 3.33374C11.0492 3.32831 11.1768 3.3531 11.2965 3.40667C11.4163 3.46023 11.5257 3.54147 11.6183 3.64559C11.7108 3.74971 11.7847 3.87458 11.8355 4.01286C11.8864 4.15112 11.9131 4.29996 11.9142 4.45058V7.40513H15.7051C15.8452 7.41047 15.9827 7.45061 16.1087 7.52292C16.2346 7.59523 16.3461 7.69805 16.4359 7.82464C16.5256 7.95124 16.5915 8.09872 16.6293 8.2574C16.667 8.41609 16.6758 8.58238 16.655 8.74534L15.9642 14.8177C15.9348 15.0977 15.8193 15.3554 15.6396 15.5424C15.4599 15.7293 15.2283 15.8327 14.9884 15.833H9.32358C9.05392 15.8342 8.78775 15.7613 8.5464 15.6197L7.92465 15.2543" fill="#FFC249" stroke="#FFC249" stroke-linecap="round" stroke-linejoin="round"/>
<path id="Vector" d="M3.76952 8.33301H5.83398V14.9997H3.76952C3.65401 14.9997 3.54323 14.9441 3.46155 14.8449C3.37987 14.7459 3.33398 14.6115 3.33398 14.4715V8.86127C3.33398 8.72117 3.37987 8.5868 3.46155 8.48773C3.54323 8.38867 3.65401 8.33301 3.76952 8.33301Z" fill="#FFFDFA" stroke="#FFFDFA" stroke-width="0.833333" stroke-linecap="round" stroke-linejoin="round"/>
</g>
</g>
</svg>
