<svg width="24" height="24" viewBox="0 0 24 24" fill="none" xmlns="http://www.w3.org/2000/svg">
<g id="&#228;&#189;&#191;&#231;&#148;&#168;">
<g id="Group 1171275963">
<rect id="Rectangle 61" x="3.92751" y="8.12746" width="16.965" height="11.115" rx="0.2925" stroke="#FFC249" stroke-width="0.585" stroke-linecap="round"/>
<g id="Group 23">
<rect id="Rectangle 50" x="3.40462" y="6.2581" width="16.965" height="1.755" rx="0.2925" transform="rotate(-15 3.40462 6.2581)" stroke="#FFC249" stroke-width="0.585" stroke-linecap="round"/>
</g>
<g id="Group 24">
<rect id="Rectangle 50_2" x="-0.2925" y="0.2925" width="16.965" height="1.755" rx="0.2925" transform="matrix(-1 0 0 1 20.5999 7.83447)" stroke="#FFC249" stroke-width="0.585" stroke-linecap="round"/>
</g>
<g id="Group 1171275918">
<path id="Polygon 10" d="M13.4429 14.1082C13.6509 14.2282 13.6509 14.5285 13.4429 14.6486L12.0389 15.4592C11.8309 15.5792 11.5709 15.4291 11.5709 15.189V13.5678C11.5709 13.3276 11.8309 13.1775 12.0389 13.2976L13.4429 14.1082Z" fill="#FFC249" stroke="#FFC249" stroke-width="0.15"/>
<g id="Group 1171275917">
<path id="Ellipse 709" d="M9.15512 13.8063C9.01201 13.7807 8.91581 13.6436 8.95211 13.5028C9.04497 13.1426 9.19464 12.799 9.39596 12.4849C9.64472 12.0968 9.96747 11.7616 10.3458 11.4983C10.7241 11.2349 11.1506 11.0487 11.6009 10.9502C11.9653 10.8705 12.3396 10.8495 12.7096 10.8875C12.8542 10.9024 12.9494 11.0402 12.9237 11.1833V11.1833C12.8981 11.3264 12.7613 11.4204 12.6165 11.4075C12.3148 11.3805 12.0103 11.3996 11.7134 11.4646C11.3306 11.5483 10.9681 11.7066 10.6466 11.9304C10.325 12.1542 10.0506 12.4392 9.83921 12.769C9.67521 13.0249 9.55154 13.3038 9.47205 13.5961C9.43388 13.7363 9.29823 13.832 9.15512 13.8063V13.8063Z" fill="#26BBFF" stroke="#26BBFF" stroke-width="0.15"/>
<path id="Ellipse 708" d="M15.3834 13.2191C15.5192 13.1671 15.6724 13.2349 15.714 13.3742C15.9268 14.0862 15.9087 14.85 15.6583 15.5546C15.3785 16.3421 14.8268 17.0039 14.1026 17.4209C13.3783 17.838 12.5291 17.9829 11.7075 17.8297C10.9724 17.6927 10.3027 17.325 9.7937 16.7835C9.69411 16.6776 9.71241 16.511 9.8255 16.4197V16.4197C9.93859 16.3283 10.1035 16.3468 10.2045 16.4514C10.6337 16.896 11.1922 17.1981 11.804 17.3122C12.5023 17.4424 13.2242 17.3192 13.8398 16.9647C14.4554 16.6102 14.9244 16.0476 15.1622 15.3783C15.3706 14.7919 15.3897 14.1572 15.2206 13.5628C15.1808 13.423 15.2476 13.271 15.3834 13.2191V13.2191Z" fill="#26BBFF" stroke="#26BBFF" stroke-width="0.15"/>
<circle id="Ellipse 711" cx="13.6381" cy="11.376" r="0.312" fill="#FFCCFF" stroke="#FFCCFF" stroke-width="0.15"/>
</g>
</g>
</g>
</g>
</svg>
