<svg width="44" height="44" viewBox="0 0 44 44" fill="none" xmlns="http://www.w3.org/2000/svg">
<g id="&#229;&#141;&#160;&#228;&#189;&#141;&#229;&#155;&#190;">
<g clip-path="url(#clip0_7379_222897)">
<rect width="44" height="44" rx="4" fill="#A8A292"/>
<g id="Group 1171276404">
<g id="Group 1171276425">
<g id="Group 1171276387">
<g id="Union">
<path d="M27.1267 1.04516C25.6598 1.131 24.3945 1.89262 23.6114 3.00873C23.489 3.00622 23.3652 3.00651 23.2409 3.01378C22.1064 3.08028 21.0923 3.55177 20.3283 4.27786C17.769 4.71774 15.8902 6.51505 16.0088 8.54623C16.0717 9.62188 16.6851 10.5654 17.6317 11.2372C17.6227 11.3265 17.6178 11.4173 17.6232 11.5097C17.6587 12.1169 18.0084 12.6297 18.504 12.904C18.5624 13.2415 18.6939 13.5603 18.8884 13.8558L16.7916 16.3066L20.458 15.1677C21.4303 15.6497 22.6801 15.9043 24.0279 15.8255C24.413 15.803 24.7873 15.7535 25.1464 15.6818C26.0142 16.0873 26.9921 16.2899 28.0154 16.23C29.3302 16.153 30.5199 15.6552 31.4627 14.8759C32.2679 15.1597 33.1414 15.2922 34.047 15.2393C35.1321 15.1758 36.1397 14.8522 37.0159 14.3358C37.546 14.6179 38.1572 14.7639 38.8006 14.7263C40.6663 14.6172 42.0908 13.0162 41.9819 11.1506C41.9123 9.96164 41.2364 8.95172 40.2726 8.40401C40.2708 8.35175 40.2704 8.2993 40.2673 8.24682C40.248 7.91664 40.2036 7.59353 40.1383 7.27908C40.7838 6.6532 41.1454 5.89991 41.099 5.10795C40.9859 3.17764 38.4981 1.75321 35.5423 1.92616C35.1667 1.94814 34.8016 1.99464 34.4507 2.0634C34.0667 2.01766 33.6734 2.00421 33.2738 2.0276C33.1286 2.03609 32.9851 2.05089 32.8428 2.06847C32.5081 1.65244 31.9843 1.39873 31.4106 1.4323C30.9375 1.46009 30.521 1.67791 30.2303 2.00711C29.377 1.34495 28.2896 0.977125 27.1267 1.04516Z" fill="#FFFDFA"/>
<path d="M27.1267 1.04516L27.1113 0.781616L27.1113 0.781616L27.1267 1.04516ZM23.6114 3.00873L23.8275 3.16036C23.777 3.23236 23.6939 3.27447 23.606 3.27267L23.6114 3.00873ZM23.2409 3.01378L23.2255 2.75023L23.2255 2.75023L23.2409 3.01378ZM20.3283 4.27786L20.5102 4.46922C20.4723 4.50523 20.4246 4.52919 20.3731 4.53804L20.3283 4.27786ZM16.0088 8.54623L15.7452 8.56165L15.7452 8.56161L16.0088 8.54623ZM17.6317 11.2372L17.7845 11.022C17.8619 11.0769 17.9038 11.1692 17.8943 11.2637L17.6317 11.2372ZM17.6232 11.5097L17.3596 11.5251L17.3596 11.5251L17.6232 11.5097ZM18.504 12.904L18.6318 12.673C18.7018 12.7117 18.7505 12.7801 18.7641 12.859L18.504 12.904ZM18.8884 13.8558L19.1089 13.7106C19.1736 13.8089 19.1654 13.938 19.089 14.0274L18.8884 13.8558ZM16.7916 16.3066L16.87 16.5588C16.7576 16.5937 16.6358 16.55 16.5711 16.4518C16.5065 16.3536 16.5146 16.2244 16.591 16.135L16.7916 16.3066ZM20.458 15.1677L20.3796 14.9156C20.4444 14.8955 20.5144 14.901 20.5752 14.9312L20.458 15.1677ZM24.0279 15.8255L24.0433 16.0891L24.0433 16.0891L24.0279 15.8255ZM25.1464 15.6818L25.0948 15.4229C25.1499 15.4119 25.2072 15.4188 25.2582 15.4426L25.1464 15.6818ZM28.0154 16.23L28.0308 16.4935L28.0308 16.4935L28.0154 16.23ZM31.4627 14.8759L31.2945 14.6724C31.366 14.6134 31.4631 14.5961 31.5505 14.6269L31.4627 14.8759ZM34.047 15.2393L34.0624 15.5028L34.0624 15.5028L34.047 15.2393ZM37.0159 14.3358L36.8818 14.1083C36.961 14.0617 37.0588 14.0595 37.14 14.1027L37.0159 14.3358ZM38.8006 14.7263L38.816 14.9899L38.816 14.9899L38.8006 14.7263ZM41.9819 11.1506L42.2454 11.1352L42.2454 11.1352L41.9819 11.1506ZM40.2726 8.40401L40.1422 8.63353C40.0625 8.58825 40.012 8.50487 40.0088 8.41327L40.2726 8.40401ZM40.2673 8.24682L40.5309 8.2314L40.5309 8.23141L40.2673 8.24682ZM40.1383 7.27908L39.8798 7.33279C39.8614 7.24427 39.8896 7.15249 39.9545 7.08955L40.1383 7.27908ZM41.099 5.10795L41.3626 5.09251L41.3626 5.09252L41.099 5.10795ZM35.5423 1.92616L35.5268 1.66261L35.5268 1.66261L35.5423 1.92616ZM34.4507 2.0634L34.5015 2.32247C34.4745 2.32776 34.4468 2.3288 34.4195 2.32554L34.4507 2.0634ZM33.2738 2.0276L33.2584 1.76405L33.2584 1.76405L33.2738 2.0276ZM32.8428 2.06847L32.8752 2.33047C32.7845 2.34168 32.6944 2.30516 32.6371 2.23394L32.8428 2.06847ZM31.4106 1.4323L31.3951 1.16875L31.3952 1.16875L31.4106 1.4323ZM30.2303 2.00711L30.4281 2.18187C30.3359 2.28628 30.1784 2.30107 30.0684 2.21567L30.2303 2.00711ZM27.1267 1.04516L27.1422 1.30871C25.7593 1.38962 24.5665 2.1072 23.8275 3.16036L23.6114 3.00873L23.3953 2.8571C24.2226 1.67804 25.5603 0.872373 27.1113 0.781616L27.1267 1.04516ZM23.6114 3.00873L23.606 3.27267C23.4874 3.27024 23.3711 3.27061 23.2564 3.27732L23.2409 3.01378L23.2255 2.75023C23.3593 2.7424 23.4907 2.7422 23.6168 2.74479L23.6114 3.00873ZM23.2409 3.01378L23.2564 3.27732C22.1866 3.34003 21.2309 3.78429 20.5102 4.46922L20.3283 4.27786L20.1465 4.0865C20.9537 3.31925 22.0261 2.82054 23.2255 2.75023L23.2409 3.01378ZM20.3283 4.27786L20.3731 4.53804C17.884 4.96583 16.1648 6.6885 16.2723 8.53084L16.0088 8.54623L15.7452 8.56161C15.6156 6.34159 17.6539 4.46965 20.2836 4.01768L20.3283 4.27786ZM16.0088 8.54623L16.2723 8.53081C16.3296 9.50957 16.8881 10.3857 17.7845 11.022L17.6317 11.2372L17.4789 11.4525C16.4822 10.7451 15.8138 9.73419 15.7452 8.56165L16.0088 8.54623ZM17.6317 11.2372L17.8943 11.2637C17.8861 11.3452 17.8824 11.4209 17.8867 11.4943L17.6232 11.5097L17.3596 11.5251C17.3531 11.4137 17.3592 11.3077 17.369 11.2108L17.6317 11.2372ZM17.6232 11.5097L17.8867 11.4943C17.9167 12.0067 18.2115 12.4403 18.6318 12.673L18.504 12.904L18.3761 13.1349C17.8053 12.819 17.4007 12.2272 17.3596 11.5251L17.6232 11.5097ZM18.504 12.904L18.7641 12.859C18.8158 13.1576 18.9325 13.4427 19.1089 13.7106L18.8884 13.8558L18.6679 14.001C18.4552 13.6779 18.3089 13.3253 18.2438 12.949L18.504 12.904ZM18.8884 13.8558L19.089 14.0274L16.9922 16.4783L16.7916 16.3066L16.591 16.135L18.6878 13.6842L18.8884 13.8558ZM16.7916 16.3066L16.7133 16.0545L20.3796 14.9156L20.458 15.1677L20.5363 15.4198L16.87 16.5588L16.7916 16.3066ZM20.458 15.1677L20.5752 14.9312C21.502 15.3906 22.7053 15.6384 24.0125 15.562L24.0279 15.8255L24.0433 16.0891C22.6548 16.1702 21.3586 15.9088 20.3407 15.4042L20.458 15.1677ZM24.0279 15.8255L24.0125 15.562C24.3851 15.5402 24.7473 15.4923 25.0948 15.4229L25.1464 15.6818L25.1981 15.9407C24.8274 16.0147 24.441 16.0658 24.0433 16.0891L24.0279 15.8255ZM25.1464 15.6818L25.2582 15.4426C26.0874 15.8301 27.0217 16.0237 28 15.9664L28.0154 16.23L28.0308 16.4935C26.9625 16.556 25.941 16.3445 25.0347 15.921L25.1464 15.6818ZM28.0154 16.23L28 15.9664C29.2568 15.8929 30.3934 15.4173 31.2945 14.6724L31.4627 14.8759L31.6309 15.0794C30.6464 15.8932 29.4036 16.4132 28.0308 16.4935L28.0154 16.23ZM31.4627 14.8759L31.5505 14.6269C32.3233 14.8993 33.1617 15.0266 34.0316 14.9757L34.047 15.2393L34.0624 15.5028C33.121 15.5579 32.2124 15.4201 31.375 15.1249L31.4627 14.8759ZM34.047 15.2393L34.0316 14.9757C35.0735 14.9147 36.0406 14.6042 36.8818 14.1083L37.0159 14.3358L37.15 14.5632C36.2389 15.1002 35.1908 15.4368 34.0624 15.5028L34.047 15.2393ZM37.0159 14.3358L37.14 14.1027C37.6288 14.363 38.192 14.4975 38.7852 14.4628L38.8006 14.7263L38.816 14.9899C38.1225 15.0304 37.4631 14.8729 36.8919 14.5688L37.0159 14.3358ZM38.8006 14.7263L38.7852 14.4628C40.5054 14.3621 41.8188 12.886 41.7183 11.166L41.9819 11.1506L42.2454 11.1352C42.3629 13.1464 40.8272 14.8722 38.816 14.9899L38.8006 14.7263ZM41.9819 11.1506L41.7183 11.166C41.6542 10.0701 41.0315 9.13893 40.1422 8.63353L40.2726 8.40401L40.403 8.17449C41.4413 8.7645 42.1704 9.85315 42.2454 11.1352L41.9819 11.1506ZM40.2726 8.40401L40.0088 8.41327C40.0065 8.35024 40.0066 8.3116 40.0038 8.26224L40.2673 8.24682L40.5309 8.23141C40.5341 8.287 40.535 8.35326 40.5364 8.39474L40.2726 8.40401ZM40.2673 8.24682L40.0038 8.26225C39.9852 7.94558 39.9426 7.63527 39.8798 7.33279L40.1383 7.27908L40.3968 7.22538C40.4646 7.5518 40.5107 7.88771 40.5309 8.2314L40.2673 8.24682ZM40.1383 7.27908L39.9545 7.08955C40.5606 6.50189 40.8762 5.81921 40.8355 5.12337L41.099 5.10795L41.3626 5.09252C41.4145 5.98061 41.007 6.80451 40.3221 7.46862L40.1383 7.27908ZM41.099 5.10795L40.8355 5.12339C40.7858 4.27633 40.2129 3.50566 39.2555 2.95743C38.3005 2.41061 36.9919 2.10579 35.5577 2.18971L35.5423 1.92616L35.5268 1.66261C37.0484 1.57358 38.4617 1.8945 39.5178 2.49923C40.5715 3.10256 41.2991 4.00926 41.3626 5.09251L41.099 5.10795ZM35.5423 1.92616L35.5577 2.18971C35.1938 2.211 34.8406 2.25603 34.5015 2.32247L34.4507 2.0634L34.4 1.80433C34.7627 1.73325 35.1396 1.68527 35.5268 1.66261L35.5423 1.92616ZM34.4507 2.0634L34.4195 2.32554C34.0505 2.28159 33.6728 2.2687 33.2892 2.29114L33.2738 2.0276L33.2584 1.76405C33.674 1.73973 34.0829 1.75372 34.482 1.80125L34.4507 2.0634ZM33.2738 2.0276L33.2892 2.29114C33.1516 2.29919 33.0141 2.31331 32.8752 2.33047L32.8428 2.06847L32.8104 1.80646C32.9561 1.78847 33.1057 1.77299 33.2584 1.76405L33.2738 2.0276ZM32.8428 2.06847L32.6371 2.23394C32.3536 1.88148 31.9107 1.66748 31.426 1.69584L31.4106 1.4323L31.3952 1.16875C32.0578 1.12998 32.6627 1.4234 33.0485 1.90299L32.8428 2.06847ZM31.4106 1.4323L31.4261 1.69584C31.0261 1.71934 30.6743 1.90314 30.4281 2.18187L30.2303 2.00711L30.0324 1.83235C30.3677 1.45267 30.8489 1.20085 31.3951 1.16875L31.4106 1.4323ZM30.2303 2.00711L30.0684 2.21567C29.2637 1.59118 28.2389 1.24455 27.1422 1.30871L27.1267 1.04516L27.1113 0.781616C28.3404 0.709704 29.4903 1.09872 30.3921 1.79855L30.2303 2.00711Z" fill="#191816"/>
</g>
<path id="Union_2" d="M22.0203 14.9074C22.6936 15.0872 23.4478 15.1666 24.2388 15.1203C24.5889 15.0999 24.9289 15.0557 25.2554 14.9906C26.0454 15.3596 26.9358 15.5433 27.8674 15.4888C29.0649 15.4187 30.1491 14.9657 31.0078 14.2559" stroke="#FFC249" stroke-width="0.264" stroke-linecap="round"/>
<path id="Union_3" d="M34.2039 14.2933C35.192 14.2355 36.1105 13.9427 36.9083 13.4726C37.3907 13.7289 37.9473 13.8603 38.5325 13.8261C40.2318 13.7266 41.3604 12.8576 41.2609 11.1584C41.1976 10.0765 40.4544 9.39174 39.5778 8.89267" stroke="#FFC249" stroke-width="0.264" stroke-linecap="round"/>
<path id="Union_4" d="M39.1841 6.92633C39.7709 6.35665 40.3757 5.9133 40.3335 5.19274C40.2306 3.43472 37.9269 2.49537 35.2349 2.65289C34.8943 2.67282 34.5632 2.71511 34.2449 2.7773C33.8945 2.73546 33.5356 2.72395 33.171 2.74528C33.0385 2.75304 32.9072 2.76507 32.7773 2.78114C32.4725 2.40269 31.9954 2.17221 31.4733 2.20276C31.0421 2.228 30.6623 2.42652 30.3974 2.72661" stroke="#FFC249" stroke-width="0.264" stroke-linecap="round"/>
</g>
<path id="Vector 829" d="M27.6831 12.8082C34.2715 6.58452 22.9072 7.2064 24.2067 9.37629C25.2463 11.1122 29.8935 12.6946 32.9363 12.6684C35.9792 12.6422 34.2649 9.95919 32.7683 8.93548C30.8975 7.65584 27.2811 1.65398 26.2119 5.7369C25.1427 9.81982 24.2263 13.407 25.7107 13.6368C27.1951 13.8666 30.8301 12.3726 34.0553 10.5058C37.2804 8.63893 40.1063 2.73613 36.6571 5.18679C33.2078 7.63745 25.9855 8.15961 27.7724 10.5664C29.5593 12.9732 32.7662 16.1061 31.1632 11.5471C29.5601 6.98812 32.51 4.20797 31.1114 3.90436C29.7128 3.60075 29.0938 5.77654 27.7068 7.2551C26.3198 8.73366 19.7245 12.5688 25.4477 11.4375C31.1709 10.3061 31.9068 14.1428 34.3453 9.33657C36.7837 4.53035 34.04 2.39508 32.4226 4.2586C30.8051 6.12213 26.1653 9.40469 26.2747 11.9527C26.3841 14.5007 27.8474 16.7635 30.0795 12.3358C32.3116 7.908 36.4021 4.74772 33.9834 5.1996C31.5646 5.65148 29.0113 7.09011 26.3418 7.21818C23.6724 7.34625 17.8156 7.29378 25.4172 9.20326C33.0188 11.1127 36.4917 11.3986 36.0495 9.45963C35.6072 7.52064 29.4885 3.07773 25.4213 5.85752C21.3541 8.63731 20.5598 11.8713 25.6832 10.4859C30.8066 9.10054 29.8534 6.7956 27.8497 5.97965C25.846 5.1637 24.0028 9.27374 22.1343 11.7439" stroke="#191816" stroke-width="0.44" stroke-linejoin="round"/>
</g>
<path id="Union_5" d="M-5.46517 32.27C-6.18032 31.8353 -6.53912 30.9935 -6.35739 30.1766L-5.14933 24.7463C-5.01061 24.1227 -4.59029 23.5988 -4.01158 23.3282L3.92589 19.6163C4.61948 19.2919 5.44011 19.652 5.67102 20.382L6.05549 21.5974L4.34702 26.7263C4.16761 27.2649 3.65136 27.6217 3.08748 27.5556C2.51822 27.4889 1.85388 27.374 1.57451 27.1855C1.04125 26.8256 0.0598697 26.8586 0.0598697 26.8586L-0.727346 28.5746C-0.844525 28.8301 -0.761978 29.1328 -0.531338 29.2934L3.94475 32.4102C4.64954 32.901 4.87401 33.8424 4.46651 34.5983L4.06897 35.3358C3.46641 36.4536 2.04998 36.8381 0.964815 36.1785L-5.46517 32.27Z" fill="#FFFDFA" stroke="#191816" stroke-width="0.66"/>
<path id="Polygon 9" d="M-0.712017 15.0485L-6.68509 16.6488L-2.3125 21.021L-0.712017 15.0485Z" fill="#FFE6B5"/>
<g id="Group 1171276310">
<g id="Union_6">
<path d="M25.2639 31.6565C23.7745 31.5253 22.4143 32.5069 22.0704 33.9618L21.8665 34.8235C21.4632 36.5302 22.5991 38.2194 24.3319 38.4897L37.8066 40.5901C39.5129 40.8561 41.0925 39.6345 41.2649 37.9164L41.4438 36.139C41.52 35.3787 41.3051 34.6581 40.8913 34.0843C40.7124 33.8363 40.7727 33.4618 41.0514 33.3359C41.0806 33.3227 41.11 33.3094 41.1396 33.2959C41.8587 32.9689 42.146 32.1021 41.7775 31.4033C41.419 30.7238 40.5775 30.4636 39.8978 30.822L36.5567 32.5834C36.4849 32.6212 36.4036 32.6376 36.3227 32.6305L25.2639 31.6565Z" fill="#FFFDFA"/>
<path d="M25.2639 31.6565L25.2349 31.9852L25.2349 31.9852L25.2639 31.6565ZM22.0704 33.9618L22.3915 34.0377L22.3915 34.0378L22.0704 33.9618ZM21.8665 34.8235L21.5454 34.7477L21.5454 34.7476L21.8665 34.8235ZM24.3319 38.4897L24.2811 38.8157L24.2811 38.8157L24.3319 38.4897ZM37.8066 40.5901L37.8574 40.264L37.8574 40.264L37.8066 40.5901ZM41.2649 37.9164L40.9365 37.8834L40.9365 37.8833L41.2649 37.9164ZM41.4438 36.139L41.7721 36.1719L41.7721 36.172L41.4438 36.139ZM41.1396 33.2959L41.2762 33.5963L41.2762 33.5963L41.1396 33.2959ZM41.7775 31.4033L42.0694 31.2493L42.0694 31.2494L41.7775 31.4033ZM39.8978 30.822L40.0517 31.1139L40.0517 31.1139L39.8978 30.822ZM36.3227 32.6305L36.3516 32.3018L36.3227 32.6305ZM40.8913 34.0843L41.1589 33.8913L40.8913 34.0843ZM41.0514 33.3359L41.1873 33.6366L41.0514 33.3359ZM25.2639 31.6565L25.2349 31.9852C23.9087 31.8684 22.6977 32.7424 22.3915 34.0377L22.0704 33.9618L21.7492 33.8859C22.1309 32.2714 23.6403 31.1822 25.2928 31.3278L25.2639 31.6565ZM22.0704 33.9618L22.3915 34.0378L22.1877 34.8995L21.8665 34.8235L21.5454 34.7476L21.7492 33.8859L22.0704 33.9618ZM21.8665 34.8235L22.1877 34.8994C21.8286 36.419 22.84 37.923 24.3828 38.1636L24.3319 38.4897L24.2811 38.8157C22.3582 38.5159 21.0978 36.6415 21.5454 34.7477L21.8665 34.8235ZM24.3319 38.4897L24.3828 38.1636L37.8574 40.264L37.8066 40.5901L37.7557 40.9161L24.2811 38.8157L24.3319 38.4897ZM37.8066 40.5901L37.8574 40.264C39.3765 40.5008 40.7831 39.4133 40.9365 37.8834L41.2649 37.9164L41.5932 37.9493C41.402 39.8558 39.6492 41.2113 37.7557 40.9161L37.8066 40.5901ZM41.2649 37.9164L40.9365 37.8833L41.1154 36.106L41.4438 36.139L41.7721 36.172L41.5932 37.9494L41.2649 37.9164ZM41.4438 36.139L41.1154 36.1061C41.1833 35.4294 40.9923 34.7886 40.6236 34.2774L40.8913 34.0843L41.1589 33.8913C41.6179 34.5277 41.8568 35.328 41.7721 36.1719L41.4438 36.139ZM41.0514 33.3359L40.9155 33.0352C40.9445 33.0221 40.9737 33.0089 41.003 32.9955L41.1396 33.2959L41.2762 33.5963C41.2464 33.6099 41.2167 33.6233 41.1873 33.6366L41.0514 33.3359ZM41.1396 33.2959L41.003 32.9955C41.5459 32.7487 41.7673 32.0914 41.4856 31.5572L41.7775 31.4033L42.0694 31.2494C42.5247 32.1127 42.1715 33.1892 41.2762 33.5963L41.1396 33.2959ZM41.7775 31.4033L41.4856 31.5573C41.2121 31.039 40.5703 30.8405 40.0517 31.1139L39.8978 30.822L39.7439 30.5301C40.5847 30.0867 41.6258 30.4086 42.0694 31.2493L41.7775 31.4033ZM39.8978 30.822L40.0517 31.1139L36.7106 32.8753L36.5567 32.5834L36.4028 32.2914L39.7439 30.5301L39.8978 30.822ZM36.3227 32.6305L36.2937 32.9592L25.2349 31.9852L25.2639 31.6565L25.2928 31.3278L36.3516 32.3018L36.3227 32.6305ZM36.5567 32.5834L36.7106 32.8753C36.5826 32.9427 36.4379 32.9719 36.2937 32.9592L36.3227 32.6305L36.3516 32.3018C36.3693 32.3033 36.3871 32.2997 36.4028 32.2914L36.5567 32.5834ZM40.8913 34.0843L40.6236 34.2774C40.3506 33.8988 40.4054 33.2656 40.9155 33.0352L41.0514 33.3359L41.1873 33.6366C41.1592 33.6493 41.1337 33.6763 41.1236 33.7279C41.1128 33.7824 41.1251 33.8444 41.1589 33.8913L40.8913 34.0843Z" fill="#191816"/>
</g>
<g id="Group 1171276411">
<path id="Polygon 24" d="M34.9665 41.2083C35.0591 42.3597 36.6309 42.6198 37.0895 41.5596L40.7001 33.2126C40.9863 32.5508 40.5747 31.7963 39.8634 31.6786L35.5242 30.9606C34.8129 30.8429 34.1802 31.4246 34.2379 32.1433L34.9665 41.2083Z" fill="#FFE6B5" stroke="#191816" stroke-width="0.528"/>
<g id="Mask group">
<mask id="mask0_7379_222897" style="mask-type:alpha" maskUnits="userSpaceOnUse" x="34" y="30" width="7" height="13">
<path id="Polygon 24_2" d="M34.9665 41.2083C35.0591 42.3597 36.6309 42.6198 37.0895 41.5596L40.7001 33.2126C40.9863 32.5508 40.5747 31.7963 39.8634 31.6786L35.5242 30.9606C34.8129 30.8429 34.1802 31.4246 34.2379 32.1433L34.9665 41.2083Z" fill="#FFE6B5"/>
</mask>
<g mask="url(#mask0_7379_222897)">
<g id="Group 1171276410">
<g id="Group 1171276409">
<line id="Line 19" x1="0.264" y1="-0.264" x2="11.5742" y2="-0.264" transform="matrix(-0.795723 0.605698 0.605732 0.795641 43.8711 36.7646)" stroke="#FFC249" stroke-width="0.528" stroke-linecap="round"/>
<line id="Line 20" x1="0.264" y1="-0.264" x2="11.5742" y2="-0.264" transform="matrix(-0.795723 0.605698 0.605732 0.795641 42.8984 35.6685)" stroke="#FFC249" stroke-width="0.528" stroke-linecap="round"/>
<line id="Line 21" x1="0.264" y1="-0.264" x2="11.5742" y2="-0.264" transform="matrix(-0.795723 0.605698 0.605732 0.795641 41.9258 34.5723)" stroke="#FFC249" stroke-width="0.528" stroke-linecap="round"/>
<line id="Line 22" x1="0.264" y1="-0.264" x2="11.5742" y2="-0.264" transform="matrix(-0.795723 0.605698 0.605732 0.795641 40.9531 33.4761)" stroke="#FFC249" stroke-width="0.528" stroke-linecap="round"/>
<line id="Line 23" x1="0.264" y1="-0.264" x2="11.5742" y2="-0.264" transform="matrix(-0.795723 0.605698 0.605732 0.795641 39.9824 32.3804)" stroke="#FFC249" stroke-width="0.528" stroke-linecap="round"/>
<line id="Line 24" x1="0.264" y1="-0.264" x2="11.5742" y2="-0.264" transform="matrix(-0.795723 0.605698 0.605732 0.795641 39.0098 31.2842)" stroke="#FFC249" stroke-width="0.528" stroke-linecap="round"/>
<line id="Line 25" x1="0.264" y1="-0.264" x2="11.5742" y2="-0.264" transform="matrix(-0.795723 0.605698 0.605732 0.795641 38.0371 30.188)" stroke="#FFC249" stroke-width="0.528" stroke-linecap="round"/>
</g>
<g id="Group 1171276408">
<line id="Line 19_2" x1="0.264" y1="-0.264" x2="11.5742" y2="-0.264" transform="matrix(-0.79104 -0.611764 -0.611834 0.790986 38.5078 44.3501)" stroke="#FFC249" stroke-width="0.528" stroke-linecap="round"/>
<line id="Line 20_2" x1="0.264" y1="-0.264" x2="11.5742" y2="-0.264" transform="matrix(-0.79104 -0.611764 -0.611834 0.790986 39.3125 43.127)" stroke="#FFC249" stroke-width="0.528" stroke-linecap="round"/>
<line id="Line 21_2" x1="0.264" y1="-0.264" x2="11.5742" y2="-0.264" transform="matrix(-0.79104 -0.611764 -0.611834 0.790986 40.123 41.9043)" stroke="#FFC249" stroke-width="0.528" stroke-linecap="round"/>
<line id="Line 22_2" x1="0.264" y1="-0.264" x2="11.5742" y2="-0.264" transform="matrix(-0.79104 -0.611764 -0.611834 0.790986 40.9277 40.6821)" stroke="#FFC249" stroke-width="0.528" stroke-linecap="round"/>
<line id="Line 23_2" x1="0.264" y1="-0.264" x2="11.5742" y2="-0.264" transform="matrix(-0.79104 -0.611764 -0.611834 0.790986 41.7363 39.4595)" stroke="#FFC249" stroke-width="0.528" stroke-linecap="round"/>
<line id="Line 24_2" x1="0.264" y1="-0.264" x2="11.5742" y2="-0.264" transform="matrix(-0.79104 -0.611764 -0.611834 0.790986 42.5449 38.2373)" stroke="#FFC249" stroke-width="0.528" stroke-linecap="round"/>
<line id="Line 25_2" x1="0.264" y1="-0.264" x2="11.5742" y2="-0.264" transform="matrix(-0.79104 -0.611764 -0.611834 0.790986 43.3535 37.0142)" stroke="#FFC249" stroke-width="0.528" stroke-linecap="round"/>
</g>
</g>
</g>
</g>
<path id="Polygon 24_3" d="M34.9665 41.2083C35.0591 42.3597 36.6309 42.6198 37.0895 41.5596L40.7001 33.2126C40.9863 32.5508 40.5747 31.7963 39.8634 31.6786L35.5242 30.9606C34.8129 30.8429 34.1802 31.4246 34.2379 32.1433L34.9665 41.2083Z" stroke="#191816" stroke-width="0.44"/>
<g id="Group 1171276413">
<path id="Union_7" d="M40.0999 23.6468C39.1055 23.5593 38.5331 24.0486 37.1972 24.7391C35.9894 25.3634 34.3609 24.6725 33.8083 27.0635C33.2557 29.4546 33.6122 29.9551 33.5155 30.5719C33.4188 31.1888 32.5198 31.4791 33.4634 32.6065C34.407 33.734 34.306 31.3012 34.5921 31.2144C34.8783 31.1275 35.4066 32.2218 35.1336 32.7052C34.8607 33.1885 34.1916 35.7115 35.7912 35.4096C37.3907 35.1078 36.1223 33.4442 36.0837 32.6618C36.0326 31.6273 36.1856 31.1611 36.5412 31.5113C37.1659 32.1265 36.3524 33.544 37.5874 33.2887C38.8223 33.0334 38.0547 32.215 38.8415 32.1145C39.2099 32.0674 39.5901 32.355 39.5254 33.0411C39.452 33.8198 38.2534 34.6856 39.8122 35.2859C41.371 35.8863 40.4562 33.0002 40.5999 32.9038C40.7436 32.8075 41.2758 33.5302 41.8341 33.2531C42.3924 32.9761 42.5853 32.4162 42.0071 31.4017C42.2874 30.5423 42.6349 29.5921 42.7823 28.4868C43.1297 25.882 41.9933 23.8133 40.0999 23.6468Z" fill="#CCE5FF" stroke="#191816" stroke-width="0.44"/>
<g id="Group 1171276412">
<path id="Vector 831" d="M41.3652 29.1021C41.4327 30.0879 40.9286 30.8281 40.561 29.7524" stroke="#191816" stroke-width="0.264" stroke-linecap="round" stroke-linejoin="round"/>
<path id="Vector 832" d="M38.1862 27.7335C37.8285 28.2407 37.1938 28.9718 36.9231 28.2264C36.6495 27.473 35.8903 29.6063 35.4742 29.2499C35.1414 28.9649 35.344 27.8236 35.2757 27.6958" stroke="#191816" stroke-width="0.264" stroke-linecap="round" stroke-linejoin="round"/>
<path id="Ellipse 4357" d="M35.2333 25.8295C35.3709 26.2 36.3398 26.3107 37.2111 25.987C38.0824 25.6633 38.6771 25.1006 38.5394 24.7301C38.4017 24.3596 37.9817 24.876 37.1105 25.1997C36.2392 25.5233 35.0956 25.459 35.2333 25.8295Z" fill="#26BBFF"/>
</g>
</g>
</g>
<path id="Rectangle 34624711" d="M43.6031 35.393C43.8297 34.1529 42.8083 33.0399 41.5533 33.1592L38.9346 33.4082C38.0113 33.496 37.2862 34.2372 37.2187 35.1621L36.8964 39.5773C36.8328 40.4482 37.3708 41.2503 38.2008 41.522L40.1715 42.1671C41.2664 42.5256 42.4259 41.8355 42.6329 40.7023L43.6031 35.393Z" fill="#FFFDFA" stroke="#191816" stroke-width="0.66"/>
<path id="Vector 830" d="M42.489 36.2123C41.9908 35.6715 41.5674 34.3411 41.5674 34.3411C41.3932 34.7079 40.8152 36.5432 41.1642 36.9861C42.0683 38.1332 42.9871 36.7532 42.489 36.2123Z" fill="#CCE5FF" stroke="#191816" stroke-width="0.44" stroke-linejoin="round"/>
</g>
<g id="Union_8">
<path d="M17.5811 41.2007C16.1231 41.2007 14.9406 42.3824 14.9404 43.8403V55.3862C14.9404 56.5525 15.8856 57.4983 17.0518 57.4985H23.8398C25.0061 57.4983 25.9512 56.5525 25.9512 55.3862V52.5815C25.9512 51.456 25.0707 50.5381 23.9609 50.4751V43.8403C23.9608 42.3825 22.7791 41.2008 21.3213 41.2007H17.5811Z" fill="#FFFDFA"/>
<path d="M14.9404 43.8403L14.5444 43.8403L14.5444 43.8403L14.9404 43.8403ZM17.0518 57.4985L17.0518 57.8945L17.0517 57.8945L17.0518 57.4985ZM23.8398 57.4985L23.8399 57.8945H23.8398V57.4985ZM23.9609 50.4751L23.9385 50.8705L23.5649 50.8492V50.4751H23.9609ZM23.9609 43.8403L24.3569 43.8403V43.8403H23.9609ZM21.3213 41.2007L21.3213 40.8047L21.3213 40.8047L21.3213 41.2007ZM17.5811 41.2007V41.5967C16.3417 41.5967 15.3365 42.6013 15.3364 43.8404L14.9404 43.8403L14.5444 43.8403C14.5446 42.1636 15.9046 40.8047 17.5811 40.8047V41.2007ZM14.9404 43.8403H15.3364V55.3862H14.9404H14.5444V43.8403H14.9404ZM14.9404 55.3862H15.3364C15.3364 56.3339 16.1044 57.1023 17.0518 57.1025L17.0518 57.4985L17.0517 57.8945C15.6667 57.8942 14.5444 56.771 14.5444 55.3862H14.9404ZM17.0518 57.4985V57.1025H23.8398V57.4985V57.8945H17.0518V57.4985ZM23.8398 57.4985L23.8398 57.1025C24.7872 57.1023 25.5552 56.334 25.5552 55.3862H25.9512H26.3472C26.3472 56.7711 25.2249 57.8943 23.8399 57.8945L23.8398 57.4985ZM25.9512 55.3862H25.5552V52.5815H25.9512H26.3472V55.3862H25.9512ZM25.9512 52.5815H25.5552C25.5552 51.6676 24.8403 50.9217 23.9385 50.8705L23.9609 50.4751L23.9834 50.0797C25.3012 50.1546 26.3472 51.2443 26.3472 52.5815H25.9512ZM23.9609 50.4751H23.5649V43.8403H23.9609H24.3569V50.4751H23.9609ZM23.9609 43.8403L23.5649 43.8404C23.5648 42.6012 22.5604 41.5968 21.3213 41.5967L21.3213 41.2007L21.3213 40.8047C22.9979 40.8048 24.3568 42.1638 24.3569 43.8403L23.9609 43.8403ZM21.3213 41.2007V41.5967H17.5811V41.2007V40.8047H21.3213V41.2007Z" fill="#191816"/>
</g>
<g id="Union_9">
<path d="M9.92773 41.2007C8.46986 41.2008 7.28822 42.3825 7.28809 43.8403V55.3862C7.28809 56.5527 8.23397 57.4985 9.40039 57.4985H17.6182C18.7846 57.4985 19.7305 56.5527 19.7305 55.3862V52.5815C19.7305 51.4151 18.7846 50.4692 17.6182 50.4692H17.4277V43.8403C17.4276 42.3824 16.246 41.2007 14.7881 41.2007H9.92773Z" fill="#FFFDFA"/>
<path d="M9.92773 41.2007L9.92771 40.8047H9.92773V41.2007ZM7.28809 43.8403L6.89209 43.8403L6.89209 43.8403L7.28809 43.8403ZM9.40039 57.4985L9.40039 57.8945L9.40039 57.8945L9.40039 57.4985ZM17.4277 50.4692V50.8652H17.0317V50.4692H17.4277ZM17.4277 43.8403L17.8237 43.8403V43.8403H17.4277ZM9.92773 41.2007L9.92776 41.5967C8.68858 41.5968 7.6842 42.6012 7.68409 43.8404L7.28809 43.8403L6.89209 43.8403C6.89224 42.1638 8.25114 40.8048 9.92771 40.8047L9.92773 41.2007ZM7.28809 43.8403H7.68409V55.3862H7.28809H6.89209V43.8403H7.28809ZM7.28809 55.3862H7.68409C7.68409 56.3339 8.45267 57.1025 9.40039 57.1025L9.40039 57.4985L9.40039 57.8945C8.01526 57.8945 6.89209 56.7714 6.89209 55.3862H7.28809ZM9.40039 57.4985V57.1025H17.6182V57.4985V57.8945H9.40039V57.4985ZM17.6182 57.4985V57.1025C18.5659 57.1025 19.3345 56.334 19.3345 55.3862H19.7305H20.1265C20.1265 56.7714 19.0033 57.8945 17.6182 57.8945V57.4985ZM19.7305 55.3862H19.3345V52.5815H19.7305H20.1265V55.3862H19.7305ZM19.7305 52.5815H19.3345C19.3345 51.6338 18.5659 50.8652 17.6182 50.8652V50.4692V50.0732C19.0033 50.0732 20.1265 51.1964 20.1265 52.5815H19.7305ZM17.6182 50.4692V50.8652H17.4277V50.4692V50.0732H17.6182V50.4692ZM17.4277 50.4692H17.0317V43.8403H17.4277H17.8237V50.4692H17.4277ZM17.4277 43.8403L17.0317 43.8404C17.0316 42.6011 16.0273 41.5967 14.7881 41.5967V41.2007V40.8047C16.4648 40.8047 17.8236 42.1637 17.8237 43.8403L17.4277 43.8403ZM14.7881 41.2007V41.5967H9.92773V41.2007V40.8047H14.7881V41.2007Z" fill="#191816"/>
</g>
<g id="Group 1171276424">
<path id="Polygon 6" d="M8.0232 17.6001C6.52816 17.6001 5.1997 18.5537 4.72148 19.9702L-3.65678 44.7871C-4.4194 47.0461 -2.73926 49.3866 -0.355058 49.3866H30.8701C33.2543 49.3866 34.9344 47.0461 34.1718 44.7871L25.7935 19.9702C25.3153 18.5537 23.9869 17.6001 22.4918 17.6001H8.0232Z" fill="#FFFDFA" stroke="#191816" stroke-width="0.66"/>
<path id="Polygon 7" d="M7.30254 17.6621H23.2115C24.2761 17.6621 25.2221 18.3412 25.5627 19.3499L27.1715 24.1155C27.4259 24.8689 27.1204 25.6978 26.4379 26.106L24.5395 27.2413C24.0811 27.5154 23.52 27.5567 23.0264 27.3524L20.0097 26.1043C19.5592 25.9179 19.05 25.9352 18.6132 26.1518L12.8195 29.0244C12.1899 29.3366 11.4328 29.2265 10.9182 28.7478L8.77267 26.7522C8.18396 26.2046 7.29092 26.1477 6.63748 26.6162L5.99617 27.0759C5.17831 27.6623 4.03243 27.4082 3.53909 26.5311L3.27547 26.0624C3.04066 25.6449 2.99406 25.1474 3.14727 24.6936L4.95132 19.3499C5.29186 18.3412 6.23789 17.6621 7.30254 17.6621Z" fill="#FFC249" stroke="#191816" stroke-width="0.66"/>
<g id="Group 136">
<rect id="Rectangle 113" width="3.7326" height="3.73227" rx="1.86613" transform="matrix(-1 0 0 1 24.4609 33.1509)" stroke="#191816" stroke-width="0.6336"/>
<rect id="Rectangle 114" width="3.7326" height="3.73227" rx="1.86613" transform="matrix(-1 0 0 1 16.9961 33.1509)" stroke="#191816" stroke-width="0.6336"/>
</g>
<path id="Vector 647" d="M24.4922 30.5107C22.8139 33.9777 16.9071 31.1021 18.4208 29.8173C19.9346 28.5324 21.004 32.1626 18.2069 32.4481C16.531 32.6192 13.419 31.5712 11.4281 30.5107" stroke="#191816" stroke-width="0.66" stroke-linecap="round" stroke-linejoin="round"/>
<path id="Vector 828" d="M19.1777 40.3048L18.4006 37.1323L15.2585 39.0667L19.1777 40.3048Z" stroke="#191816" stroke-width="0.528" stroke-linejoin="round"/>
</g>
</g>
</g>
</g>
<defs>
<clipPath id="clip0_7379_222897">
<rect width="44" height="44" rx="4" fill="white"/>
</clipPath>
</defs>
</svg>
