<svg width="28" height="28" viewBox="0 0 28 28" fill="none" xmlns="http://www.w3.org/2000/svg">
<g id="Frame 1171276903">
<g id="Group 1171276137">
<g id="Group 1171276136">
<circle id="Ellipse 115" cx="13.8842" cy="13.4398" r="7.85878" fill="#FFC249"/>
<path id="Ellipse 787" d="M6.30669 13.2129C4.05429 15.4392 2.99371 17.6505 3.78065 19.0135C4.43238 20.1424 6.22156 20.4647 8.55207 20.0665" stroke="#ED9E00" stroke-width="0.777778" stroke-dasharray="1.56 1.56"/>
<g id="Mask group">
<mask id="mask0_1438_41843" style="mask-type:alpha" maskUnits="userSpaceOnUse" x="6" y="5" width="16" height="17">
<circle id="Ellipse 788" cx="13.8842" cy="13.4398" r="7.85878" fill="#ED9E00"/>
</mask>
<g mask="url(#mask0_1438_41843)">
<g id="Group 1171276135">
<path id="Vector 509" d="M21.667 8.93976L22.7573 9.17636L24.2369 8.62429L24.5484 9.64955L23.3803 10.0439H22.913L21.9007 9.96502L22.7573 10.2805L22.913 10.6748L21.9007 11.148L21.5113 10.9114L22.1343 12.0155L21.3555 12.8831L20.6547 13.1985V14.1449L19.7202 12.8831L19.3308 13.7506L18.5521 12.331L17.3061 12.5676L15.9044 12.0155L16.9946 12.8042L16.8388 13.1197L15.6707 13.2774L15.2035 12.5676L15.515 13.5929L16.6831 13.3563L15.8265 14.0661L15.3592 16.5898L14.1911 17.9305L13.0008 16.34L12.68 13.7953L11.6992 13.7506L11.0762 13.1197L11.4655 12.0155L12.1664 11.548H13.5681L13.8796 12.0944H15.0477L15.6707 11.7789L15.515 11.3846L14.6584 11.2269L14.1911 10.5171L12.4779 10.6748L13.646 9.72842L14.892 9.17636L15.9822 9.01862L16.9946 8.93976L17.3061 8.3877L21.2777 8.46656L21.667 8.93976Z" fill="#ED9E00"/>
<path id="Vector 510" d="M19.651 16.3218L19.4071 15.6846H18.8148L18.1528 16.3218L16.9682 16.8174L16.6895 17.9148L17.665 19.1184L18.6058 18.4104L19.8601 19.614L21.1492 18.6936L21.7415 17.1714L20.5917 16.3218L20.3827 16.0032L19.8601 16.4634L19.651 16.3218Z" fill="#CCE5FF"/>
<path id="Vector 511" d="M8.19136 11.3565L7.22906 11.1943H6.58753L5.46484 12.9782L6.26676 14.2755L6.90829 14.1133L7.71021 15.4106L7.22906 18.4918L9.31404 15.735L9.47442 13.9511L9.95557 12.816L9.47442 12.3295L8.67251 12.1673L8.19136 11.3565Z" fill="#FFCCFF"/>
<path id="Vector 512" d="M9.39286 9.22992L9.11219 8.10724L7.98951 7.5459L5.74414 9.22992L6.86682 11.1946L7.70884 10.9139V10.6333L8.83152 10.3526L9.39286 9.22992Z" fill="#FFCCFF"/>
</g>
</g>
</g>
<path id="Ellipse 785" d="M17.6465 6.89555C20.3674 6.27264 22.5013 6.53009 23.2265 7.78627C24.4666 9.93415 21.1189 14.1886 15.7492 17.2888C13.2015 18.7597 10.6564 19.7065 8.55252 20.066" stroke="#E1DCD0" stroke-width="0.777778"/>
<circle id="Ellipse 114" cx="13.8842" cy="13.4398" r="7.85878" stroke="#E1DCD0" stroke-width="0.777778"/>
<circle id="Ellipse 786" cx="8.55179" cy="19.8955" r="1.79224" fill="#26BBFF" stroke="#E1DCD0" stroke-width="0.777778"/>
</g>
</g>
</g>
</svg>
