<svg width="24" height="24" viewBox="0 0 24 24" fill="none" xmlns="http://www.w3.org/2000/svg">
<g id="&#228;&#184;&#150;&#231;&#149;&#140;&#232;&#167;&#130;">
<rect width="24" height="24" rx="12" fill="#191816"/>
<g id="Group 8736">
<path id="Vector 342" d="M19.7142 5.82812L18.1142 7.02812C17.8174 7.25068 17.4565 7.37098 17.0856 7.37098H13.517C12.9024 7.37098 12.3405 7.71823 12.0657 8.26796V8.26796C11.7265 8.94635 11.9025 9.76921 12.4895 10.2495L14.9793 12.2866C16.3284 13.3904 17.0265 15.1024 16.8341 16.8349L16.7312 17.7601C16.663 18.3741 16.5122 18.976 16.2827 19.5495L15.5999 21.2567" stroke="#FFC249" stroke-width="0.857143"/>
<path id="Vector 343" d="M2.22876 10.4563L6.03285 9.82229C7.19311 9.62891 8.19901 10.6348 8.00563 11.7951L7.78792 13.1014C7.54047 14.586 8.29271 16.0597 9.63897 16.7328V16.7328C10.717 17.2718 11.2779 18.4882 10.9856 19.6574L10.4573 21.7706" stroke="#FFC249" stroke-width="0.857143"/>
<circle id="Ellipse 114" cx="12.0001" cy="11.9996" r="9.85714" stroke="#FFC249" stroke-width="0.857143"/>
</g>
</g>
</svg>
