<svg width="166" height="44" viewBox="0 0 166 44" fill="none" xmlns="http://www.w3.org/2000/svg">
<g id="Frame 1171277655">
<g id="logo">
<g id="Group 1171276279">
<g id="Group 1171276277">
<path id="Subtract" d="M12.8296 1.2938C15.497 0.579073 18.2386 2.16195 18.9534 4.82933C19.668 7.49666 18.0852 10.2383 15.4178 10.9531C12.7505 11.6677 10.0089 10.0848 9.2941 7.41752C8.57939 4.75019 10.1623 2.00858 12.8296 1.2938ZM13.5411 7.63934C12.8967 7.392 12.1735 7.71373 11.9261 8.35821C11.6789 9.00265 12.0015 9.72566 12.6459 9.97303C13.2903 10.2201 14.0136 9.89852 14.261 9.25415C14.5084 8.60964 14.1857 7.88674 13.5411 7.63934ZM17.1422 6.95954C16.6057 6.52516 15.8185 6.60803 15.3841 7.14452C14.9498 7.68103 15.0326 8.46823 15.569 8.90264C16.1056 9.337 16.8927 9.25415 17.3272 8.71767C17.7616 8.18115 17.6787 7.394 17.1422 6.95954ZM11.3189 4.72253C10.6296 4.68641 10.0414 5.2163 10.0051 5.9056C9.969 6.59503 10.4988 7.18323 11.1882 7.21936C11.8775 7.2553 12.4658 6.7256 12.502 6.03629C12.5379 5.34711 12.0081 4.75875 11.3189 4.72253ZM17.5854 3.87448C17.2094 3.29573 16.4353 3.13189 15.8564 3.50773C15.2774 3.88374 15.1127 4.65803 15.4887 5.23702C15.8648 5.81569 16.6388 5.97968 17.2177 5.60377C17.7965 5.22771 17.9613 4.45339 17.5854 3.87448ZM13.0577 2.13753C12.391 2.31628 11.9952 3.00168 12.1738 3.66846C12.3526 4.33511 13.0381 4.73089 13.7048 4.55235C14.3715 4.37369 14.7672 3.68819 14.5887 3.02142C14.41 2.35457 13.7246 1.95885 13.0577 2.13753Z" fill="#26BBFF"/>
<rect id="Rectangle 118" x="32.1962" y="10.1182" width="6" height="6" transform="rotate(150 32.1962 10.1182)" fill="#FFCCFF"/>
<path id="Star 7" d="M25.6664 8.88909L23.8523 12.4495L26.6779 15.2751L22.7311 14.65L20.917 18.2105L20.2918 14.2637L16.3451 13.6386L19.9055 11.8244L19.2804 7.87764L22.106 10.7032L25.6664 8.88909Z" fill="url(#paint0_linear_6362_127226)"/>
<circle id="Ellipse 827" cx="33.5" cy="14.4219" r="2.5" fill="#CCE5FF"/>
<path id="Polygon 10" d="M8.76777 13.7674L12.9503 14.8881L9.88849 17.95L8.76777 13.7674Z" fill="#FFE6B5"/>
</g>
<path id="Polygon 6" d="M27.7589 16C29.4418 16 30.9447 17.0533 31.5189 18.6352L38.5395 37.9764C39.2496 39.9327 37.8007 42 35.7195 42H8.28049C6.19932 42 4.75042 39.9327 5.46052 37.9764L12.4812 18.6352C13.0554 17.0533 14.5582 16 16.2411 16H27.7589Z" fill="#FFFDFA" stroke="#FFC249"/>
<path id="Polygon 8" d="M16.542 15.582L16.1865 15.5957C14.4245 15.7346 12.8926 16.8991 12.2979 18.5869L10.5283 23.6074L9.94922 25.25L11.3115 24.1641L13.3496 22.54C14.0274 22.0001 15.0206 22.1451 15.5156 22.8564L16.0332 23.5996C16.8633 24.7926 18.5317 25.0291 19.6602 24.1133L20.4707 23.4551C20.9347 23.0785 21.5782 23.0133 22.1084 23.2891L25.0781 24.834C26.0233 25.3255 27.1764 25.1638 27.9502 24.4316L28.915 23.5186C29.3543 23.1028 30.0007 22.9915 30.5537 23.2363L32.7979 24.2305L33.8564 24.7002L33.4717 23.6074L31.7021 18.5869C31.0678 16.7866 29.3668 15.582 27.458 15.582H16.542Z" fill="#FFC249" stroke="#191816"/>
<path id="Polygon 7" d="M16.5417 16.082H27.4583C29.155 16.082 30.6671 17.1525 31.231 18.7527L33 23.7735L30.1479 22.5097C29.7792 22.3463 29.3484 22.4204 29.0554 22.6976L27.6777 24.0015C27.0247 24.6194 26.0396 24.7257 25.2698 24.2613L21.7896 22.1617C21.4027 21.9283 20.9074 21.9833 20.5812 22.2959L19.3623 23.4637C18.4752 24.3136 17.0387 24.1703 16.337 23.1619L15.3162 21.6949C14.9862 21.2206 14.3239 21.1239 13.8721 21.4841L11 23.7735L12.769 18.7527C13.3329 17.1525 14.845 16.082 16.5417 16.082Z" fill="#FFC249"/>
<g id="Group 136">
<rect id="Rectangle 113" x="18.8125" y="28.75" width="2.125" height="6.375" rx="1.0625" fill="#191816"/>
<rect id="Rectangle 114" x="23.0625" y="28.75" width="2.125" height="6.375" rx="1.0625" fill="#191816"/>
</g>
</g>
</g>
<g id="Group 1171276282">
<path id="Vector" d="M68.7662 16.083L62.4625 32.3818V41.9226H54.9662V32.3818L48 16.083H55.7802L61.0427 28.539L65.7752 16.083H68.7662Z" fill="#FFFDFA"/>
<g id="Group 1171276280">
<path id="Vector_2" d="M70.0122 41.923V25.7693L77.5505 24.6924V41.923H70.0122Z" fill="#FFFDFA"/>
<ellipse id="Ellipse 828" cx="73.7814" cy="19.8463" rx="3.76917" ry="3.76919" fill="#FFFDFA"/>
</g>
<path id="Subtract_2" d="M98.4589 42.1787H91.5497V40.5312C90.3887 41.9194 88.5419 42.6132 86.5985 42.6133C82.3078 42.6133 80.1621 39.3199 80.162 32.7324C80.162 25.9556 82.934 22.8654 86.9764 22.8652C88.7685 22.8652 90.4896 23.6539 91.5497 25.2314V17.1543L98.4589 16.0771V42.1787ZM88.8563 24.6924C87.241 24.6924 86.1639 27.9234 86.1639 32.7695C86.164 37.6155 87.241 40.8457 88.8563 40.8457C90.4716 40.8456 91.5487 38.6922 91.5487 32.7695C91.5487 26.8467 90.4716 24.6925 88.8563 24.6924Z" fill="#FFFDFA"/>
<g id="Group 1171276281">
<path id="Subtract_3" d="M109.518 22.3428C110.457 22.2247 111.407 22.2247 112.347 22.3428L113.49 22.4873C117.297 22.9659 120.227 26.1004 120.467 29.9512C120.468 29.9594 120.624 30.7743 120.624 32.4854C120.624 34.2053 120.467 35.0205 120.467 35.0205C120.227 38.8711 117.297 42.0058 113.49 42.4844L112.347 42.6279C111.407 42.746 110.457 42.746 109.518 42.6279L108.374 42.4844C104.567 42.0058 101.637 38.8711 101.397 35.0205C101.397 35.0205 101.24 34.2053 101.24 32.4854C101.24 30.7761 101.396 29.9611 101.397 29.9512C101.637 26.1004 104.567 22.9659 108.374 22.4873L109.518 22.3428ZM110.933 23.458C109.222 23.458 108.082 27.0691 108.082 32.4854C108.082 37.9018 109.222 41.5127 110.933 41.5127C112.643 41.5127 113.783 39.1054 113.783 32.4854C113.783 25.8655 112.643 23.458 110.933 23.458Z" fill="#FFFDFA"/>
<path id="Subtract_4" d="M129.98 22.627C130.92 22.5089 131.87 22.5089 132.81 22.627L133.953 22.7705C137.76 23.2491 140.69 26.3845 140.93 30.2354C140.933 30.2532 141.087 31.0686 141.087 32.7695C141.087 34.4705 140.933 35.2859 140.93 35.3037C140.69 39.1545 137.76 42.29 133.953 42.7686L132.81 42.9121C131.87 43.0302 130.92 43.0302 129.98 42.9121L128.837 42.7686C125.03 42.29 122.1 39.1545 121.86 35.3037C121.857 35.2851 121.703 34.4696 121.703 32.7695C121.703 31.0694 121.857 30.254 121.86 30.2354C122.1 26.3845 125.03 23.2491 128.837 22.7705L129.98 22.627ZM131.396 23.7422C129.685 23.7422 128.545 27.3532 128.545 32.7695C128.545 38.1859 129.685 41.7969 131.396 41.7969C133.106 41.7969 134.246 39.3896 134.246 32.7695C134.246 26.1496 133.106 23.7422 131.396 23.7422Z" fill="#FFFDFA"/>
<path id="Subtract_5" d="M152.605 15.1211C153.726 14.9596 154.859 14.9596 155.979 15.1211L157.345 15.3184C161.886 15.9733 165.381 20.2622 165.667 25.5312C165.667 25.5312 165.854 26.6464 165.854 29C165.854 31.3374 165.67 32.4527 165.667 32.4678C165.382 37.737 161.886 42.0267 157.345 42.6816L155.979 42.8779C154.859 43.0395 153.726 43.0395 152.605 42.8779L151.24 42.6816C146.699 42.0267 143.204 37.737 142.919 32.4678C142.919 32.4656 142.73 31.3511 142.73 29C142.73 26.6464 142.919 25.5312 142.919 25.5312C143.205 20.2623 146.699 15.9734 151.24 15.3184L152.605 15.1211ZM154.293 16.6465C152.253 16.6468 150.893 21.5878 150.893 28.999C150.893 36.4105 152.253 41.3522 154.293 41.3525C156.333 41.3525 157.693 38.0577 157.693 28.999C157.693 19.9407 156.333 16.6465 154.293 16.6465Z" fill="#FFFDFA"/>
</g>
</g>
</g>
<defs>
<linearGradient id="paint0_linear_6362_127226" x1="21.7627" y1="9.83599" x2="20.7896" y2="17.7177" gradientUnits="userSpaceOnUse">
<stop offset="0.0448614" stop-color="#FFC249"/>
<stop offset="0.5" stop-color="#65FFA2"/>
<stop offset="1" stop-color="#26BBFF"/>
</linearGradient>
</defs>
</svg>
