<svg width="282" height="600" viewBox="0 0 282 600" fill="none" xmlns="http://www.w3.org/2000/svg">
    <g clip-path="url(#paint0_diamond_13452_5507_clip_path)" data-figma-skip-parse="true">
        <g transform="matrix(0.0149333 -0.3556 0.400547 0.0168209 132.067 360.734)">
            <rect x="0" y="0" width="1033.04" height="400.711" fill="url(#paint0_diamond_13452_5507)" opacity="0.15"
                shape-rendering="crispEdges" />
            <rect x="0" y="0" width="1033.04" height="400.711" transform="scale(1 -1)"
                fill="url(#paint0_diamond_13452_5507)" opacity="0.15" shape-rendering="crispEdges" />
            <rect x="0" y="0" width="1033.04" height="400.711" transform="scale(-1 1)"
                fill="url(#paint0_diamond_13452_5507)" opacity="0.15" shape-rendering="crispEdges" />
            <rect x="0" y="0" width="1033.04" height="400.711" transform="scale(-1)"
                fill="url(#paint0_diamond_13452_5507)" opacity="0.15" shape-rendering="crispEdges" />
        </g>
    </g>
    <path
        d="M267.87 481.932C268.044 488.883 273.646 494.486 280.596 494.663L280.934 494.667V583.333C280.933 591.581 274.247 598.267 266 598.267H15.8672C7.61985 598.267 0.933786 591.581 0.933594 583.333V494.667C8.03725 494.666 13.8172 488.998 13.9961 481.937L14 481.6C14 474.384 8.14994 468.533 0.933594 468.533V15.8667C0.933594 7.61925 7.61974 0.933109 15.8672 0.933105H266C274.247 0.933168 280.934 7.61928 280.934 15.8667V468.533C273.717 468.533 267.866 474.384 267.866 481.6L267.87 481.932Z"
        data-figma-gradient-fill="{&#34;type&#34;:&#34;GRADIENT_DIAMOND&#34;,&#34;stops&#34;:[{&#34;color&#34;:{&#34;r&#34;:0.14901961386203766,&#34;g&#34;:0.73333334922790527,&#34;b&#34;:1.0,&#34;a&#34;:1.0},&#34;position&#34;:0.0},{&#34;color&#34;:{&#34;r&#34;:1.0,&#34;g&#34;:0.76203721761703491,&#34;b&#34;:0.28611093759536743,&#34;a&#34;:1.0},&#34;position&#34;:1.0}],&#34;stopsVar&#34;:[{&#34;color&#34;:{&#34;r&#34;:0.14901961386203766,&#34;g&#34;:0.73333334922790527,&#34;b&#34;:1.0,&#34;a&#34;:1.0},&#34;position&#34;:0.0},{&#34;color&#34;:{&#34;r&#34;:1.0,&#34;g&#34;:0.76203721761703491,&#34;b&#34;:0.28611093759536743,&#34;a&#34;:1.0},&#34;position&#34;:1.0}],&#34;transform&#34;:{&#34;m00&#34;:29.866666793823242,&#34;m01&#34;:801.09484863281250,&#34;m02&#34;:-283.41384887695312,&#34;m10&#34;:-711.20074462890625,&#34;m11&#34;:33.641811370849609,&#34;m12&#34;:699.5129394531250},&#34;opacity&#34;:0.15000000596046448,&#34;blendMode&#34;:&#34;NORMAL&#34;,&#34;visible&#34;:true}" />
    <path
        d="M267.87 481.932C268.044 488.883 273.646 494.486 280.596 494.663L280.934 494.667V583.333C280.933 591.581 274.247 598.267 266 598.267H15.8672C7.61985 598.267 0.933786 591.581 0.933594 583.333V494.667C8.03725 494.666 13.8172 488.998 13.9961 481.937L14 481.6C14 474.384 8.14994 468.533 0.933594 468.533V15.8667C0.933594 7.61925 7.61974 0.933109 15.8672 0.933105H266C274.247 0.933168 280.934 7.61928 280.934 15.8667V468.533C273.717 468.533 267.866 474.384 267.866 481.6L267.87 481.932Z"
        fill="url(#paint1_linear_13452_5507)" fill-opacity="0.2" />
    <path
        d="M267.87 481.932L266.937 481.943L266.937 481.955L267.87 481.932ZM280.596 494.663L280.572 495.596L280.585 495.596L280.596 494.663ZM280.934 494.667H281.867V493.744L280.944 493.733L280.934 494.667ZM280.934 583.333L281.867 583.334V583.333H280.934ZM0.933594 583.333L0.000260353 583.333L0.000260353 583.334L0.933594 583.333ZM0.933594 494.667L0.933575 493.733L0.000260353 493.733L0.000260353 494.667H0.933594ZM13.9961 481.937L14.9292 481.961L14.9294 481.948L13.9961 481.937ZM14 481.6L14.9333 481.611V481.6H14ZM0.933594 468.533H0.000260353V469.466L0.933567 469.466L0.933594 468.533ZM15.8672 0.933105L15.8672 -0.000227928L15.8672 -0.000227928L15.8672 0.933105ZM266 0.933105L266 -0.000227928H266V0.933105ZM280.934 468.533V469.466H281.867V468.533H280.934ZM267.866 481.6H266.933L266.933 481.611L267.866 481.6ZM267.87 481.932L266.937 481.955C267.123 489.403 273.125 495.407 280.572 495.596L280.596 494.663L280.619 493.73C274.166 493.566 268.964 488.362 268.803 481.909L267.87 481.932ZM280.596 494.663L280.585 495.596L280.923 495.6L280.934 494.667L280.944 493.733L280.606 493.729L280.596 494.663ZM280.934 494.667H280V583.333H280.934H281.867V494.667H280.934ZM280.934 583.333L280 583.333C280 591.065 273.732 597.334 266 597.334V598.267V599.2C274.763 599.2 281.867 592.096 281.867 583.334L280.934 583.333ZM266 598.267V597.334H15.8672V598.267V599.2H266V598.267ZM15.8672 598.267V597.334C8.13534 597.334 1.86711 591.065 1.86693 583.333L0.933594 583.333L0.000260353 583.334C0.000464854 592.096 7.10437 599.2 15.8672 599.2V598.267ZM0.933594 583.333H1.86693V494.667H0.933594H0.000260353V583.333H0.933594ZM0.933594 494.667L0.933612 495.6C8.54478 495.6 14.7375 489.526 14.9291 481.961L13.9961 481.937L13.0631 481.913C12.897 488.469 7.52972 493.733 0.933575 493.733L0.933594 494.667ZM13.9961 481.937L14.9294 481.948L14.9333 481.611L14 481.6L13.0667 481.589L13.0628 481.926L13.9961 481.937ZM14 481.6H14.9333C14.9333 473.868 8.66548 467.6 0.93362 467.599L0.933594 468.533L0.933567 469.466C7.6344 469.466 13.0667 474.899 13.0667 481.6H14ZM0.933594 468.533H1.86693V15.8667H0.933594H0.000260353V468.533H0.933594ZM0.933594 15.8667H1.86693C1.86693 8.13471 8.1352 1.86644 15.8672 1.86644L15.8672 0.933105L15.8672 -0.000227928C7.10427 -0.00022441 0.000260353 7.10378 0.000260353 15.8667H0.933594ZM15.8672 0.933105V1.86644H266V0.933105V-0.000227928H15.8672V0.933105ZM266 0.933105L266 1.86644C273.732 1.8665 280 8.13476 280 15.8667H280.934H281.867C281.867 7.10381 274.763 -0.000161896 266 -0.000227928L266 0.933105ZM280.934 15.8667H280V468.533H280.934H281.867V15.8667H280.934ZM280.934 468.533V467.599C273.202 467.599 266.933 473.868 266.933 481.6H267.866H268.8C268.8 474.899 274.233 469.466 280.934 469.466V468.533ZM267.866 481.6L266.933 481.611L266.937 481.943L267.87 481.932L268.803 481.921L268.799 481.589L267.866 481.6Z"
        fill="url(#paint2_linear_13452_5507)" fill-opacity="0.4" />
    <defs>
        <clipPath id="paint0_diamond_13452_5507_clip_path">
            <path
                d="M267.87 481.932C268.044 488.883 273.646 494.486 280.596 494.663L280.934 494.667V583.333C280.933 591.581 274.247 598.267 266 598.267H15.8672C7.61985 598.267 0.933786 591.581 0.933594 583.333V494.667C8.03725 494.666 13.8172 488.998 13.9961 481.937L14 481.6C14 474.384 8.14994 468.533 0.933594 468.533V15.8667C0.933594 7.61925 7.61974 0.933109 15.8672 0.933105H266C274.247 0.933168 280.934 7.61928 280.934 15.8667V468.533C273.717 468.533 267.866 474.384 267.866 481.6L267.87 481.932Z" />
        </clipPath>
        <linearGradient id="paint0_diamond_13452_5507" x1="0" y1="0" x2="500" y2="500" gradientUnits="userSpaceOnUse">
            <stop stop-color="#26BBFF" />
            <stop offset="1" stop-color="#FFC249" />
        </linearGradient>
        <linearGradient id="paint1_linear_13452_5507" x1="280.934" y1="0.933098" x2="0.933082" y2="598.267"
            gradientUnits="userSpaceOnUse">
            <stop stop-color="#FFFDFA" />
            <stop offset="0.25" stop-color="#FFFDFA" stop-opacity="0.8" />
            <stop offset="1" stop-color="#FFFDFA" stop-opacity="0" />
        </linearGradient>
        <linearGradient id="paint2_linear_13452_5507" x1="0.933585" y1="598.267" x2="280.934" y2="0.933358"
            gradientUnits="userSpaceOnUse">
            <stop stop-color="white" />
            <stop offset="0.245192" stop-color="#666666" />
            <stop offset="0.75" stop-color="#666666" />
            <stop offset="1" stop-color="white" />
        </linearGradient>
    </defs>
</svg>