<svg width="800" height="450" viewBox="0 0 800 450" fill="none" xmlns="http://www.w3.org/2000/svg">
    <line x1="101" y1="330" x2="718" y2="330" stroke="#6F6855" stroke-width="12"
        stroke-linecap="round" />
    <path
        d="M20 386C20 417.48 163.493 443 340.5 443C517.507 443 661 417.48 661 386C661 354.52 517.507 329 340.5 329C163.493 329 20 354.52 20 386Z"
        fill="#CCCCCC" />
    <path
        d="M20 386C20 417.48 163.493 443 340.5 443C517.507 443 661 417.48 661 386C661 354.52 517.507 329 340.5 329C163.493 329 20 354.52 20 386Z"
        fill="#CCE5FF" fill-opacity="0.4" />
    <path
        d="M20 386C20 417.48 163.493 443 340.5 443C517.507 443 661 417.48 661 386C661 354.52 517.507 329 340.5 329C163.493 329 20 354.52 20 386Z"
        stroke="#6F6855" stroke-width="4" />
    <path
        d="M272.393 387.536C256.37 385.232 246.452 382.043 246.452 378.519C246.452 371.495 285.862 365.8 334.476 365.8C383.09 365.8 422.5 371.495 422.5 378.519C422.5 381.09 417.221 383.483 408.144 385.483"
        stroke="#6F6855" stroke-width="3.6" stroke-linecap="round" />
    <path
        d="M223.908 364.104C251.297 359.584 291.356 356.734 335.984 356.734C375.166 356.734 410.826 358.931 437.482 362.526"
        stroke="#6F6855" stroke-width="3.6" stroke-linecap="round" />
    <path
        d="M382.625 371.588C364.525 362.072 350.616 360.629 349.43 360.609L384.473 386.181C384.718 381.812 384.69 372.777 382.625 371.588Z"
        fill="#26BBFF" stroke="#FFFDFA" stroke-width="1.5" />
    <path
        d="M378.82 412.464C356.657 421.814 335.559 409.41 334.522 408.834L380.725 400.168C378.751 404.073 378.635 406.855 378.82 412.464Z"
        fill="#26BBFF" stroke="#FFFDFA" stroke-width="1.5" />
    <path
        d="M307.817 379.632C308.035 377.705 311.781 376.326 312.034 376.493C312.034 376.493 310.069 373.584 311.553 370.506C313.519 366.427 319.414 365.002 321.764 365.002C321.764 365.002 332.118 359.557 346.182 359.831C360.246 360.104 374.391 369.326 382.198 380.282C382.592 381.281 384.991 384.168 386.973 388.035C389.45 392.868 394.148 390.156 396.595 389.918C399.041 389.68 407.006 387.744 400.396 403.148C395.109 415.471 384.914 414.983 384.914 414.983C384.914 414.983 380.882 407.139 380.435 404.954C371.628 414.111 344.877 416.871 329.821 408.965C314.764 401.058 312.577 387.062 311.004 385.152C309.431 383.241 307.598 381.559 307.817 379.632Z"
        fill="#CCE5FF" />
    <path
        d="M336.317 401.666C338.618 403.52 346.29 408.878 356.647 407.037C367.003 405.196 376.049 402.274 379.565 402.53"
        stroke="#FFC249" stroke-width="2.1" stroke-linecap="round" />
    <path
        d="M345.903 395.53C346.703 397 350.449 399.826 359.041 399.365M364.219 398.694C366.553 398.183 372.351 397.601 376.877 399.365"
        stroke="#FFC249" stroke-width="2.1" stroke-linecap="round" />
    <path
        d="M350.607 372.802C353.739 372.738 361.558 373.588 367.772 377.501C375.54 382.391 379.375 394.954 384.17 397.351"
        stroke="#FFC249" stroke-width="2.1" stroke-linecap="round" />
    <path
        d="M350.604 383.638C356.133 383.958 365.827 383.638 372.372 390.255C376.687 394.617 378.701 396.808 379.276 397.255"
        stroke="#FFC249" stroke-width="2.1" stroke-linecap="round" />
    <path
        d="M330.175 393.571C343.707 389.752 343.491 379.071 341.601 373.899C341.601 373.899 340.641 381.187 337.745 386.069C334.848 390.952 330.175 393.571 330.175 393.571Z"
        fill="#26BBFF" />
    <path d="M344.774 372.068C346.109 379.309 344.927 394.466 329.511 397.166" stroke="#FFFDFA"
        stroke-width="1.5" stroke-linecap="round" />
    <path d="M312.957 378.534C310.258 378.605 312.001 377.286 312.001 377.286" stroke="#FFC249"
        stroke-width="3.6" stroke-linecap="round" />
    <path
        d="M311.899 376.563C311.646 376.396 308.018 377.707 307.8 379.634C307.581 381.561 309.414 383.243 310.987 385.154C312.56 387.065 317.269 406.05 333.633 410.68C366.669 420.029 380.193 402.903 380.894 405.474C381.595 408.044 382.329 414.198 384.898 414.985C387.466 415.773 396.549 414.364 401.147 401.767C406 388.474 399.024 389.682 396.578 389.92C394.131 390.158 389.433 392.87 386.956 388.037C384.974 384.17 383.179 380.274 377.855 374.578C372.531 368.883 360.229 360.107 346.165 359.833C332.101 359.559 321.265 365.074 317.605 367.866"
        stroke="#FFFDFA" stroke-width="1.5" stroke-linecap="round" />
    <path
        d="M321.582 364.862C319.78 365.041 315.879 366.202 313.659 368.497C308.853 373.464 311.099 375.456 313.32 377.54C315.097 379.208 312.268 379.74 310.631 379.798"
        stroke="#FFFDFA" stroke-width="1.5" stroke-linecap="round" />
    <path
        d="M302.317 372.172C306.742 370.819 310.278 373.508 313.17 377.134C313.69 377.786 313.583 378.737 312.93 379.258C312.278 379.778 311.327 379.671 310.807 379.018C308.051 375.562 305.697 374.299 303.201 375.062C299.044 376.334 297.45 379.539 295.15 382.213C294.075 383.462 292.658 384.75 290.581 384.732C288.623 384.716 286.547 383.53 284.099 381.33C283.478 380.772 283.427 379.817 283.985 379.196C284.543 378.575 285.498 378.524 286.119 379.082C288.472 381.196 289.826 381.704 290.606 381.71C291.268 381.716 291.898 381.358 292.859 380.241C294.63 378.183 297.06 373.78 302.317 372.172Z"
        fill="#FFC249" stroke="#FFFDFA" stroke-width="0.9" stroke-linecap="round" />
    <path
        d="M292.234 379.364C293.155 378.322 294.747 378.224 295.789 379.145C296.831 380.066 296.929 381.658 296.008 382.7C295.06 383.772 293.795 385.015 292.072 385.567C290.192 386.17 288.27 385.811 286.34 384.739C285.124 384.063 284.685 382.53 285.361 381.314C286.036 380.098 287.569 379.66 288.785 380.335C289.87 380.937 290.335 380.834 290.535 380.77C290.891 380.656 291.398 380.31 292.234 379.364Z"
        fill="#ED9E00" stroke="#FFFDFA" stroke-width="0.9" stroke-linecap="round" />
    <path d="M385.849 385.855C386.572 387.11 388.526 391.205 388.662 394.253" stroke="#FFFDFA"
        stroke-width="1.5" stroke-linecap="round" />
    <circle cx="325.776" cy="377.005" r="5.94547" transform="rotate(15 325.776 377.005)"
        fill="#E1DCD0" stroke="#FFFDFA" stroke-width="1.5" />
    <circle cx="324.789" cy="378.826" r="2.78095" transform="rotate(15 324.789 378.826)"
        fill="#FFFDFA" stroke="#FFFDFA" stroke-width="3.6" />
    <path
        d="M483.446 404.272C532.937 398.083 564.292 388.898 564.292 378.645C564.292 369.451 539.076 361.115 498.179 355.029"
        stroke="#6F6855" stroke-width="3.6" stroke-linecap="round" />
    <path d="M101.382 378.645C101.382 360.006 205.008 344.896 332.838 344.896" stroke="#6F6855"
        stroke-width="3.6" stroke-linecap="round" />
    <path
        d="M142.937 378.645C142.937 395.058 228.747 408.364 334.599 408.364M526.262 378.645C526.262 366.197 476.905 355.537 406.882 351.112"
        stroke="#6F6855" stroke-width="3.6" stroke-linecap="round" />
    <path
        d="M284.983 399.004C300.898 399.846 318.073 400.305 335.983 400.305C360.725 400.305 384.062 399.429 404.614 397.878"
        stroke="#6F6855" stroke-width="3.6" stroke-linecap="round" />
    <path
        d="M686.409 119.314C662.172 127.185 651.394 122.869 647.025 119.146V197.296L649.275 209.296C665.475 187.696 677.475 159.646 684.375 130.096L686.804 119.666C686.857 119.438 686.632 119.242 686.409 119.314Z"
        fill="#A8A292" />
    <path d="M575.625 116.746L518.175 319.396" stroke="#FFFDFA" stroke-width="4.5"
        stroke-linecap="round" />
    <path
        d="M473.476 229.096C474.826 221.296 482.928 216.046 486.978 213.196L606.676 179.746C611.826 215.696 611.836 287.386 547.876 273.946C467.926 257.146 472.127 236.896 473.476 229.096Z"
        fill="#E1DCD0" stroke="#FFFDFA" stroke-width="3" stroke-linecap="round" />
    <path
        d="M484.65 222.182C475.415 234.706 484.932 243.104 491.83 243.346L508.724 228.85V195.946L484.65 222.182Z"
        fill="#6F6855" />
    <path d="M493.303 243.346C485.953 243.096 475.812 234.706 485.652 221.746" stroke="#FFFDFA"
        stroke-width="3" stroke-linecap="round" />
    <path
        d="M526.256 97.1628C532.888 84.0703 546.804 76.2744 561.376 78.0271C574.136 79.5618 589.334 81.7288 600.073 84.3455C611.373 87.0984 623.512 91.2643 632.66 94.6697C641.642 98.0131 647.371 106.663 647.414 116.247L648.064 262.254C648.169 262.757 648.165 263.237 648.043 263.69C645.748 272.255 603.254 268.311 553.131 254.881C503.007 241.45 464.234 223.618 466.529 215.053C466.633 214.668 466.818 214.309 467.081 213.974L526.256 97.1628Z"
        fill="#E1DCD0" />
    <path
        d="M526.256 97.1628L527.862 97.9763L527.862 97.9763L526.256 97.1628ZM561.376 78.0271L561.591 76.24V76.24L561.376 78.0271ZM600.073 84.3455L600.499 82.5966L600.073 84.3455ZM632.66 94.6697L633.288 92.9828L632.66 94.6697ZM647.414 116.247L649.214 116.239V116.239L647.414 116.247ZM648.064 262.254L646.264 262.262L646.265 262.442L646.302 262.619L648.064 262.254ZM648.043 263.69L649.782 264.156L649.782 264.156L648.043 263.69ZM553.131 254.881L552.665 256.619L553.131 254.881ZM466.529 215.053L464.791 214.587L464.791 214.588L466.529 215.053ZM467.081 213.974L468.497 215.086L468.607 214.946L468.687 214.788L467.081 213.974ZM526.256 97.1628L527.862 97.9763C534.167 85.5293 547.373 78.1558 561.161 79.8142L561.376 78.0271L561.591 76.24C546.236 74.3931 531.61 82.6113 524.65 96.3494L526.256 97.1628ZM561.376 78.0271L561.161 79.8142C573.916 81.3483 589.021 83.5053 599.647 86.0943L600.073 84.3455L600.499 82.5966C589.646 79.9524 574.356 77.7753 561.591 76.24L561.376 78.0271ZM600.073 84.3455L599.647 86.0943C610.846 88.8229 622.911 92.9609 632.032 96.3566L632.66 94.6697L633.288 92.9828C624.114 89.5677 611.899 85.374 600.499 82.5966L600.073 84.3455ZM632.66 94.6697L632.032 96.3566C640.274 99.4247 645.575 107.38 645.614 116.255L647.414 116.247L649.214 116.239C649.168 105.947 643.009 96.6015 633.288 92.9828L632.66 94.6697ZM647.414 116.247L645.614 116.255L646.264 262.262L648.064 262.254L649.864 262.246L649.214 116.239L647.414 116.247ZM648.064 262.254L646.302 262.619C646.357 262.885 646.344 263.077 646.304 263.224L648.043 263.69L649.782 264.156C649.985 263.396 649.981 262.629 649.827 261.888L648.064 262.254ZM648.043 263.69L646.304 263.224C646.216 263.554 645.862 264.106 644.605 264.688C643.368 265.261 641.534 265.727 639.074 266.029C634.172 266.631 627.227 266.534 618.689 265.741C601.642 264.159 578.591 259.839 553.597 253.142L553.131 254.881L552.665 256.619C577.794 263.352 601.051 267.72 618.356 269.326C626.994 270.128 634.235 270.25 639.513 269.602C642.142 269.279 644.396 268.753 646.118 267.955C647.82 267.166 649.296 265.968 649.782 264.156L648.043 263.69ZM553.131 254.881L553.597 253.142C528.602 246.445 506.479 238.66 490.925 231.507C483.135 227.924 477.071 224.536 473.127 221.564C471.148 220.072 469.792 218.752 469.008 217.637C468.21 216.504 468.18 215.849 468.268 215.519L466.529 215.053L464.791 214.588C464.305 216.399 464.984 218.175 466.064 219.709C467.156 221.261 468.845 222.844 470.961 224.439C475.207 227.639 481.54 231.153 489.421 234.778C505.21 242.039 527.536 249.886 552.665 256.619L553.131 254.881ZM466.529 215.053L468.268 215.519C468.302 215.392 468.368 215.249 468.497 215.086L467.081 213.974L465.665 212.863C465.268 213.369 464.963 213.944 464.791 214.587L466.529 215.053ZM467.081 213.974L468.687 214.788L527.862 97.9763L526.256 97.1628L524.65 96.3494L465.475 213.161L467.081 213.974Z"
        fill="#6F6855" />
    <path
        d="M561.421 77.972C546.836 76.2829 532.909 84.0775 526.275 97.175L466.693 214.792L648.094 263.398L647.439 116.48C647.395 106.78 641.527 98.0475 632.439 94.656C622.931 91.1078 610.561 86.7702 600.525 84.1957C590.875 81.7203 574.903 79.5334 561.421 77.972Z"
        fill="#FFFDFA" />
    <path
        d="M631.055 94.0662C622.124 90.8278 610.419 87.001 598.278 84.1956C586.566 81.4894 572.735 79.4398 561.202 78.0141C546.727 76.2246 532.934 84.014 526.343 97.0254L520.571 108.419C522.646 112.095 526.992 114.092 531.289 113.001L535.215 112.005C539.286 110.972 543.557 112.706 545.756 116.284L553.469 128.837C555.387 131.959 558.914 133.716 562.561 133.367L596.282 130.143C598.782 129.904 601.276 130.654 603.229 132.232L617.069 143.415C618.992 144.968 621.44 145.72 623.903 145.514L645.765 143.685C646.375 143.634 646.968 143.526 647.54 143.367L647.426 117.999C647.378 107.343 641.073 97.6987 631.055 94.0662Z"
        fill="#FFC249" />
    <path
        d="M631.055 94.0662L631.669 92.374L631.669 92.374L631.055 94.0662ZM598.278 84.1956L598.683 82.4418L598.683 82.4418L598.278 84.1956ZM561.202 78.0141L561.423 76.2277L561.423 76.2277L561.202 78.0141ZM526.343 97.0254L524.737 96.212L524.737 96.2119L526.343 97.0254ZM520.571 108.419L519.004 109.304L518.53 108.465L518.966 107.605L520.571 108.419ZM531.289 113.001L531.732 114.746L531.732 114.746L531.289 113.001ZM535.215 112.005L534.772 110.26L534.773 110.26L535.215 112.005ZM545.756 116.284L547.29 115.342L547.29 115.342L545.756 116.284ZM553.469 128.837L551.935 129.78L551.935 129.78L553.469 128.837ZM562.561 133.367L562.733 135.159L562.733 135.159L562.561 133.367ZM596.282 130.143L596.111 128.351L596.111 128.351L596.282 130.143ZM603.229 132.232L604.361 130.832L604.361 130.832L603.229 132.232ZM617.069 143.415L615.938 144.815L615.938 144.815L617.069 143.415ZM623.903 145.514L623.753 143.72L623.753 143.72L623.903 145.514ZM645.765 143.685L645.915 145.479L645.915 145.479L645.765 143.685ZM647.54 143.367L649.34 143.359L649.346 144.734L648.022 145.101L647.54 143.367ZM647.426 117.999L645.626 118.007L645.626 118.007L647.426 117.999ZM631.055 94.0662L630.442 95.7584C621.551 92.5347 609.919 88.733 597.872 85.9493L598.278 84.1956L598.683 82.4418C610.918 85.2691 622.697 89.121 631.669 92.374L631.055 94.0662ZM598.278 84.1956L597.872 85.9493C586.252 83.2641 572.492 81.2235 560.981 79.8005L561.202 78.0141L561.423 76.2277C572.978 77.6561 586.881 79.7148 598.683 82.4418L598.278 84.1956ZM561.202 78.0141L560.981 79.8005C547.299 78.1091 534.216 85.4672 527.948 97.8388L526.343 97.0254L524.737 96.2119C531.652 82.5608 546.154 74.3401 561.423 76.2277L561.202 78.0141ZM526.343 97.0254L527.948 97.8388L522.177 109.232L520.571 108.419L518.966 107.605L524.737 96.212L526.343 97.0254ZM520.571 108.419L522.139 107.534C523.826 110.523 527.359 112.142 530.847 111.257L531.289 113.001L531.732 114.746C526.625 116.042 521.466 113.667 519.004 109.304L520.571 108.419ZM531.289 113.001L530.847 111.257L534.772 110.26L535.215 112.005L535.658 113.75L531.732 114.746L531.289 113.001ZM535.215 112.005L534.773 110.26C539.607 109.034 544.678 111.092 547.29 115.342L545.756 116.284L544.222 117.227C542.436 114.319 538.966 112.91 535.658 113.75L535.215 112.005ZM545.756 116.284L547.29 115.342L555.003 127.895L553.469 128.837L551.935 129.78L544.222 117.227L545.756 116.284ZM553.469 128.837L555.003 127.895C556.561 130.431 559.427 131.859 562.39 131.575L562.561 133.367L562.733 135.159C558.402 135.573 554.213 133.486 551.935 129.78L553.469 128.837ZM562.561 133.367L562.39 131.575L596.111 128.351L596.282 130.143L596.454 131.935L562.733 135.159L562.561 133.367ZM596.282 130.143L596.111 128.351C599.079 128.068 602.041 128.958 604.361 130.832L603.229 132.232L602.098 133.632C600.511 132.35 598.485 131.741 596.454 131.935L596.282 130.143ZM603.229 132.232L604.361 130.832L618.201 142.015L617.069 143.415L615.938 144.815L602.098 133.632L603.229 132.232ZM617.069 143.415L618.2 142.015C619.762 143.277 621.752 143.888 623.753 143.72L623.903 145.514L624.053 147.308C621.129 147.552 618.221 146.66 615.938 144.815L617.069 143.415ZM623.903 145.514L623.753 143.72L645.615 141.891L645.765 143.685L645.915 145.479L624.053 147.308L623.903 145.514ZM645.765 143.685L645.615 141.891C646.111 141.85 646.593 141.762 647.058 141.633L647.54 143.367L648.022 145.101C647.344 145.29 646.64 145.418 645.915 145.479L645.765 143.685ZM647.54 143.367L645.74 143.375L645.626 118.007L647.426 117.999L649.226 117.991L649.34 143.359L647.54 143.367ZM647.426 117.999L645.626 118.007C645.582 108.047 639.697 99.1143 630.442 95.7584L631.055 94.0662L631.669 92.374C642.45 96.2831 649.175 106.639 649.226 117.991L647.426 117.999Z"
        fill="#6F6855" />
    <rect x="-0.183712" y="0.106066" width="12.2065" height="30.9663" rx="6.10326"
        transform="matrix(-0.965926 -0.258819 -0.258819 0.965926 582.946 142.874)" fill="#191816"
        stroke="#6F6855" stroke-width="0.3" />
    <rect x="-0.183712" y="0.106066" width="12.2065" height="30.9663" rx="6.10326"
        transform="matrix(-0.965926 -0.258819 -0.258819 0.965926 559.276 136.531)" fill="#191816"
        stroke="#6F6855" stroke-width="0.3" />
    <ellipse cx="557.287" cy="239.372" rx="93.9583" ry="16.0554"
        transform="rotate(15 557.287 239.372)" fill="#E1DCD0" />
    <path
        d="M346.251 76.0999C346.251 76.0999 142.412 111 182.133 191.6C221.854 272.2 359.303 99.3555 437.283 232.918"
        stroke="#E1DCD0" stroke-width="4.2" stroke-linecap="round" />
    <path d="M695.026 120.646L637.576 323.296" stroke="#FFFDFA" stroke-width="4.5"
        stroke-linecap="round" />
    <path d="M655.529 259.968L651.939 272.633L644.757 297.964" stroke="#FFFDFA" stroke-width="7.5"
        stroke-linecap="round" />
    <path
        d="M526.256 97.1633L527.862 97.9768L527.862 97.9767L526.256 97.1633ZM561.376 78.0276L561.591 76.2405V76.2405L561.376 78.0276ZM600.074 84.3459L600.5 82.5971L600.074 84.3459ZM631.425 94.2122L632.048 92.5233L631.425 94.2122ZM647.42 117.563L649.22 117.555V117.555L647.42 117.563ZM648.065 262.254L646.265 262.262L646.266 262.443L646.302 262.62L648.065 262.254ZM648.043 263.691L649.782 264.157L649.782 264.157L648.043 263.691ZM553.131 254.881L552.665 256.62L553.131 254.881ZM466.53 215.054L464.791 214.588L464.791 214.588L466.53 215.054ZM467.082 213.975L468.497 215.086L468.607 214.947L468.687 214.788L467.082 213.975ZM526.256 97.1633L527.862 97.9767C534.167 85.5298 547.373 78.1563 561.162 79.8147L561.376 78.0276L561.591 76.2405C546.236 74.3936 531.61 82.6118 524.651 96.3499L526.256 97.1633ZM561.376 78.0276L561.162 79.8147C573.916 81.3488 589.021 83.5057 599.648 86.0948L600.074 84.3459L600.5 82.5971C589.647 79.9529 574.356 77.7758 561.591 76.2405L561.376 78.0276ZM600.074 84.3459L599.648 86.0948C610.349 88.702 621.841 92.5963 630.803 95.901L631.425 94.2122L632.048 92.5233C623.033 89.1988 611.394 85.2514 600.5 82.5971L600.074 84.3459ZM631.425 94.2122L630.803 95.901C639.798 99.2183 645.577 107.896 645.62 117.571L647.42 117.563L649.22 117.555C649.171 106.466 642.534 96.3901 632.048 92.5233L631.425 94.2122ZM647.42 117.563L645.62 117.571L646.265 262.262L648.065 262.254L649.865 262.246L649.22 117.555L647.42 117.563ZM648.065 262.254L646.302 262.62C646.358 262.886 646.344 263.078 646.305 263.225L648.043 263.691L649.782 264.157C649.986 263.396 649.981 262.63 649.827 261.889L648.065 262.254ZM648.043 263.691L646.305 263.225C646.216 263.554 645.863 264.106 644.605 264.689C643.369 265.262 641.534 265.728 639.074 266.03C634.173 266.631 627.227 266.534 618.689 265.742C601.642 264.16 578.592 259.84 553.597 253.142L553.131 254.881L552.665 256.62C577.794 263.353 601.052 267.72 618.357 269.326C626.994 270.128 634.235 270.251 639.513 269.603C642.143 269.28 644.397 268.753 646.119 267.955C647.821 267.167 649.297 265.968 649.782 264.157L648.043 263.691ZM553.131 254.881L553.597 253.142C528.602 246.445 506.48 238.661 490.926 231.508C483.135 227.925 477.072 224.536 473.128 221.564C471.148 220.073 469.793 218.752 469.008 217.638C468.211 216.504 468.18 215.849 468.268 215.52L466.53 215.054L464.791 214.588C464.306 216.4 464.985 218.176 466.064 219.709C467.157 221.262 468.845 222.845 470.961 224.439C475.208 227.639 481.54 231.154 489.422 234.778C505.211 242.04 527.537 249.887 552.665 256.62L553.131 254.881ZM466.53 215.054L468.268 215.52C468.302 215.393 468.369 215.25 468.497 215.086L467.082 213.975L465.666 212.863C465.268 213.369 464.964 213.945 464.791 214.588L466.53 215.054ZM467.082 213.975L468.687 214.788L527.862 97.9768L526.256 97.1633L524.651 96.3499L465.476 213.161L467.082 213.975Z"
        fill="#6F6855" />
    <path
        d="M685.412 121.027C684.443 128.002 678.555 162.622 652.725 204.646L630.075 227.896C617.625 230.146 615.675 242.746 610.275 254.746C604.875 266.746 598.575 263.596 598.575 263.596L591.675 277.096C591.675 277.096 629.204 282.232 648.075 267.796C675.177 247.062 691.017 140.386 693.824 119.974C694.037 118.419 692.522 117.23 691.046 117.765L686.814 119.297C686.056 119.571 685.523 120.229 685.412 121.027Z"
        fill="#E1DCD0" />
    <path
        d="M329.286 70.0053C377.427 68.6237 427.777 75.5009 470.524 96.0974C523.521 121.632 552.923 154.807 569.06 181.871C577.111 195.373 581.83 207.3 584.545 215.921C585.903 220.232 586.761 223.72 587.285 226.169C587.546 227.393 587.725 228.359 587.84 229.039C587.898 229.379 587.94 229.647 587.969 229.841C587.984 229.938 587.995 230.016 588.003 230.075C588.007 230.105 588.011 230.13 588.013 230.15C588.015 230.16 588.016 230.169 588.017 230.176C588.017 230.18 588.018 230.185 588.018 230.187C588.019 230.191 587.976 230.201 581.475 231.046L588.019 230.195C588.489 233.81 585.94 237.121 582.325 237.591C578.716 238.06 575.409 235.519 574.932 231.913C574.932 231.912 574.931 231.908 574.93 231.901C574.928 231.884 574.923 231.848 574.915 231.794C574.898 231.685 574.87 231.503 574.827 231.251C574.742 230.748 574.598 229.965 574.376 228.929C573.933 226.856 573.179 223.772 571.955 219.887C569.507 212.114 565.184 201.144 557.723 188.631C542.835 163.664 515.33 132.338 464.795 107.989C424.545 88.5961 376.473 81.8568 329.664 83.2001C326.021 83.3047 322.982 80.4356 322.878 76.7921C322.773 73.1485 325.642 70.1099 329.286 70.0053Z"
        fill="#6F6855" stroke="#FFFDFA" stroke-width="3.6" stroke-linecap="round" />
    <path
        d="M495.462 183.242C487.579 181.605 481.71 173.74 482.381 165.711C483.014 158.139 489.265 153.069 496.721 154.077L537.025 159.528C538.237 158.639 539.915 157.545 541.714 156.785C543.1 156.199 545 154.975 546.796 153.704C549.226 151.985 552.973 153.662 553.682 156.885C554.269 159.555 553.234 162.123 551.082 163.334L549.31 164.331C548.504 164.784 548.673 166.073 549.594 166.5L553.168 168.154C557.49 167.222 561.708 171.734 560.656 176.163L556.768 192.532C555.405 198.269 548.908 200.351 543.788 196.693L536.825 191.718C536.378 191.701 535.923 191.647 535.461 191.551L495.462 183.242Z"
        fill="#FFFDFA" />
    <path
        d="M495.462 183.242L495.096 185.005L495.096 185.005L495.462 183.242ZM482.381 165.711L480.588 165.561L480.588 165.561L482.381 165.711ZM496.721 154.077L496.963 152.294L496.963 152.294L496.721 154.077ZM537.025 159.528L536.784 161.312L537.504 161.409L538.09 160.98L537.025 159.528ZM541.714 156.785L541.014 155.127L541.014 155.127L541.714 156.785ZM546.796 153.704L545.757 152.235L545.756 152.235L546.796 153.704ZM553.682 156.885L555.44 156.498L555.44 156.498L553.682 156.885ZM551.082 163.334L550.199 161.765L550.199 161.765L551.082 163.334ZM549.31 164.331L550.193 165.9L550.193 165.9L549.31 164.331ZM549.594 166.5L550.35 164.866L550.35 164.866L549.594 166.5ZM553.168 168.154L552.412 169.788L552.959 170.041L553.548 169.914L553.168 168.154ZM560.656 176.163L558.905 175.747L558.905 175.747L560.656 176.163ZM556.768 192.532L558.519 192.948L558.519 192.948L556.768 192.532ZM543.788 196.693L544.835 195.228L544.835 195.228L543.788 196.693ZM536.825 191.718L537.871 190.253L537.432 189.94L536.893 189.919L536.825 191.718ZM535.461 191.551L535.827 189.789L535.827 189.789L535.461 191.551ZM495.462 183.242L495.828 181.48C488.837 180.028 483.58 172.984 484.175 165.861L482.381 165.711L480.588 165.561C479.841 174.496 486.321 183.182 495.096 185.005L495.462 183.242ZM482.381 165.711L484.175 165.861C484.724 159.298 490.062 154.993 496.48 155.861L496.721 154.077L496.963 152.294C488.468 151.145 481.305 156.98 480.588 165.561L482.381 165.711ZM496.721 154.077L496.48 155.861L536.784 161.312L537.025 159.528L537.266 157.744L496.963 152.294L496.721 154.077ZM537.025 159.528L538.09 160.98C539.246 160.132 540.796 159.127 542.414 158.443L541.714 156.785L541.014 155.127C539.033 155.963 537.229 157.147 535.961 158.077L537.025 159.528ZM541.714 156.785L542.414 158.443C543.999 157.774 546.041 156.444 547.836 155.173L546.796 153.704L545.756 152.235C543.96 153.506 542.201 154.625 541.014 155.127L541.714 156.785ZM546.796 153.704L547.836 155.174C548.429 154.754 549.272 154.684 550.136 155.078C550.996 155.471 551.701 156.259 551.924 157.272L553.682 156.885L555.44 156.498C554.954 154.288 553.431 152.626 551.632 151.804C549.838 150.984 547.593 150.936 545.757 152.235L546.796 153.704ZM553.682 156.885L551.924 157.272C552.366 159.281 551.565 160.996 550.199 161.765L551.082 163.334L551.965 164.902C554.902 163.25 556.172 159.829 555.44 156.498L553.682 156.885ZM551.082 163.334L550.199 161.765L548.427 162.762L549.31 164.331L550.193 165.9L551.965 164.902L551.082 163.334ZM549.31 164.331L548.428 162.762C547.253 163.423 546.889 164.66 547.02 165.659C547.15 166.653 547.772 167.64 548.838 168.133L549.594 166.5L550.35 164.866C550.495 164.933 550.572 165.063 550.589 165.192C550.598 165.263 550.596 165.379 550.536 165.519C550.469 165.671 550.348 165.812 550.193 165.9L549.31 164.331ZM549.594 166.5L548.838 168.133L552.412 169.788L553.168 168.154L553.925 166.521L550.35 164.866L549.594 166.5ZM553.168 168.154L553.548 169.914C554.967 169.608 556.488 170.175 557.613 171.378C558.735 172.578 559.269 174.214 558.905 175.747L560.656 176.163L562.407 176.579C563.095 173.682 562.046 170.848 560.242 168.919C558.44 166.991 555.691 165.769 552.789 166.394L553.168 168.154ZM560.656 176.163L558.905 175.747L555.016 192.116L556.768 192.532L558.519 192.948L562.407 176.579L560.656 176.163ZM556.768 192.532L555.016 192.116C554.483 194.362 552.98 195.831 551.137 196.422C549.278 197.018 546.962 196.748 544.835 195.228L543.788 196.693L542.742 198.157C545.735 200.296 549.227 200.814 552.236 199.85C555.262 198.88 557.69 196.439 558.519 192.948L556.768 192.532ZM543.788 196.693L544.835 195.228L537.871 190.253L536.825 191.718L535.778 193.182L542.742 198.157L543.788 196.693ZM536.825 191.718L536.893 189.919C536.545 189.906 536.189 189.864 535.827 189.789L535.461 191.551L535.095 193.314C535.656 193.43 536.212 193.496 536.756 193.517L536.825 191.718ZM535.461 191.551L535.827 189.789L495.828 181.48L495.462 183.242L495.096 185.005L535.095 193.314L535.461 191.551Z"
        fill="#6F6855" />
    <path
        d="M490.106 179.746C483.979 178.227 482.165 174.196 483.056 163.546C483.706 155.759 491.296 151.738 497.458 152.844L538.683 158.095C539.795 157.68 544.692 154.071 546.734 152.844C548.776 151.617 551.85 151.42 553.2 155.812C554.55 160.203 551.778 162.785 548.853 164.735C551.182 171.341 560.236 163.203 560.985 172.467C561.734 181.731 557.903 190.673 553.373 196.154C548.843 201.634 535.774 191.501 535.774 191.501L535.774 191.501L490.106 179.746Z"
        fill="#FFFDFA" stroke="#6F6855" stroke-width="3.6" />
    <path
        d="M629.212 229.577C637.718 233.055 647.475 229.521 651.78 221.402C656.66 212.2 652.675 200.792 643.128 196.629L585.509 171.508C584.505 169.795 583.148 167.715 581.534 165.827C579.804 163.804 577.628 160.221 575.84 157.053C574.116 154 569.903 153.375 567.469 155.899C564.883 158.581 564.569 162.723 566.721 165.765L568.176 167.821C568.802 168.706 568.026 169.902 566.962 169.69L561.199 168.544C556.963 163.678 549.035 165.322 547.081 171.469L544.388 179.942L546.98 196.916C547.64 201.238 551.312 204.46 555.684 204.555L568.7 204.836L629.212 229.577Z"
        fill="#FFFDFA" />
    <path
        d="M636.082 228.796C645.232 231.946 650.861 225.89 654.229 217.546C657.135 210.346 653.486 200.195 645.234 196.607L584.601 169.462C583.443 168.196 579.291 160.821 577.411 158.026C575.531 155.232 571.816 152.688 567.782 156.083C563.749 159.479 565.81 164.196 568.399 168.393C561.962 173.274 555.073 158.163 549.173 166.928C543.273 175.692 543.239 187.627 545.929 196.607C548.62 205.588 570.299 205.349 570.299 205.349L570.3 205.349L636.082 228.796Z"
        fill="#FFFDFA" stroke="#6F6855" stroke-width="3.6" />
    <line x1="527.175" y1="280.696" x2="650.775" y2="280.696" stroke="#FFFDFA" stroke-width="4.5" />
    <path
        d="M663.075 247.246C655.875 240.196 642.525 225.646 630.075 227.896C617.625 230.146 615.675 242.746 610.275 254.746C604.875 266.746 593.775 263.146 593.775 263.146L586.875 276.646C586.875 276.646 627.105 284.032 645.975 269.596L655.575 259.696L663.075 247.246Z"
        fill="#E1DCD0" />
    <path d="M647.324 119.296C651.724 123.046 659.924 127.996 686.474 119.296" stroke="#6F6855"
        stroke-width="3.6" />
    <path
        d="M653.024 203.896C678.731 162.071 684.567 127.699 685.552 120.523C685.669 119.677 686.26 118.988 687.079 118.746L691.754 117.366C693.217 116.935 694.632 118.156 694.407 119.664C691.418 139.766 674.21 247.898 647.024 268.696C628.153 283.132 585.974 277.546 585.974 277.546L592.874 264.046C592.874 264.046 604.874 266.746 610.274 254.746C615.674 242.746 617.624 230.146 630.074 227.896C642.524 225.646 650.174 233.596 657.374 240.646"
        stroke="#6F6855" stroke-width="3.6" stroke-linecap="round" />
    <path d="M624.675 247.246C625.755 235.006 637.125 233.896 643.125 241.846" stroke="#FFFDFA"
        stroke-width="3" stroke-linecap="round" />
    <path d="M631.424 238.696L669.824 322.996" stroke="#FFFDFA" stroke-width="4.5"
        stroke-linecap="round" />
    <path d="M645.824 270.308L650.624 280.846L655.424 291.383" stroke="#FFFDFA" stroke-width="7.5"
        stroke-linecap="round" />
    <path
        d="M514.722 224.145C530.623 224.145 540.224 236.294 538.424 245.295C536.909 252.871 526.763 258.726 525.579 266.362L523.704 278.457C525.279 284.332 524.448 290.826 520.867 296.324C514.176 306.592 500.428 309.493 490.16 302.803L472.267 291.145C461.998 284.455 459.098 270.707 465.788 260.438C470.981 252.468 480.425 248.938 489.195 250.885L491.797 239.559C492.181 237.89 492.745 236.262 493.744 234.87C496.381 231.193 502.97 224.145 514.722 224.145Z"
        fill="#FFFDFA" />
    <path
        d="M514.722 224.145L514.722 222.345L514.722 222.345L514.722 224.145ZM538.424 245.295L540.19 245.648L540.19 245.648L538.424 245.295ZM525.579 266.362L527.358 266.638L527.358 266.638L525.579 266.362ZM523.704 278.457L521.926 278.182L521.867 278.557L521.966 278.924L523.704 278.457ZM520.867 296.324L522.375 297.306L522.375 297.306L520.867 296.324ZM490.16 302.803L491.143 301.294L491.143 301.294L490.16 302.803ZM472.267 291.145L471.284 292.653L471.284 292.653L472.267 291.145ZM465.788 260.438L464.28 259.456L464.28 259.456L465.788 260.438ZM489.195 250.885L488.804 252.642L490.549 253.03L490.949 251.288L489.195 250.885ZM491.797 239.559L493.551 239.963L493.552 239.962L491.797 239.559ZM493.744 234.87L492.281 233.821L492.281 233.821L493.744 234.87ZM514.722 224.145L514.722 225.945C522.201 225.945 528.117 228.797 531.938 232.618C535.803 236.481 537.41 241.188 536.659 244.942L538.424 245.295L540.19 245.648C541.239 240.4 538.945 234.533 534.484 230.072C529.979 225.568 523.145 222.345 514.722 222.345L514.722 224.145ZM538.424 245.295L536.659 244.942C536.346 246.507 535.57 248.065 534.458 249.695C533.341 251.332 531.964 252.933 530.509 254.637C527.724 257.898 524.486 261.668 523.801 266.086L525.579 266.362L527.358 266.638C527.857 263.421 530.283 260.445 533.246 256.975C534.665 255.314 536.183 253.554 537.432 251.724C538.685 249.886 539.745 247.871 540.19 245.648L538.424 245.295ZM525.579 266.362L523.801 266.086L521.926 278.182L523.704 278.457L525.483 278.733L527.358 266.638L525.579 266.362ZM523.704 278.457L521.966 278.924C523.414 284.326 522.649 290.29 519.358 295.341L520.867 296.324L522.375 297.306C526.247 291.363 527.145 284.339 525.443 277.991L523.704 278.457ZM520.867 296.324L519.358 295.341C513.211 304.776 500.578 307.442 491.143 301.294L490.16 302.803L489.178 304.311C500.279 311.544 515.142 308.407 522.375 297.306L520.867 296.324ZM490.16 302.803L491.143 301.294L473.249 289.637L472.267 291.145L471.284 292.653L489.178 304.311L490.16 302.803ZM472.267 291.145L473.249 289.637C463.814 283.489 461.148 270.856 467.296 261.421L465.788 260.438L464.28 259.456C457.047 270.557 460.183 285.42 471.284 292.653L472.267 291.145ZM465.788 260.438L467.296 261.421C472.066 254.1 480.743 250.853 488.804 252.642L489.195 250.885L489.585 249.128C480.107 247.024 469.895 250.837 464.28 259.456L465.788 260.438ZM489.195 250.885L490.949 251.288L493.551 239.963L491.797 239.559L490.043 239.156L487.44 250.482L489.195 250.885ZM491.797 239.559L493.552 239.962C493.91 238.404 494.405 237.036 495.206 235.919L493.744 234.87L492.281 233.821C491.086 235.487 490.452 237.376 490.043 239.156L491.797 239.559ZM493.744 234.87L495.206 235.919C497.675 232.477 503.79 225.945 514.722 225.945L514.722 224.145L514.722 222.345C502.15 222.345 495.088 229.908 492.281 233.821L493.744 234.87Z"
        fill="#6F6855" />
    <rect x="477.903" y="241.847" width="65.7372" height="44.3809" rx="22.1905"
        transform="rotate(33.0855 477.903 241.847)" fill="#E1DCD0" stroke="#6F6855"
        stroke-width="3.6" />
    <path
        d="M465.791 272.438C472.481 262.17 486.228 259.269 496.496 265.959L511.087 275.465C518.188 280.092 521.764 288.094 521.083 295.986C521.012 296.099 520.942 296.212 520.869 296.324C514.179 306.593 500.431 309.493 490.163 302.803L472.27 291.145C467.572 288.084 464.416 283.546 463.016 278.54C463.61 276.43 464.531 274.372 465.791 272.438Z"
        fill="#A8A292" />
    <path
        d="M465.791 272.438L464.534 271.619L464.534 271.619L465.791 272.438ZM496.496 265.959L495.677 267.216L495.677 267.216L496.496 265.959ZM511.087 275.465L511.906 274.208L511.906 274.208L511.087 275.465ZM521.083 295.986L522.354 296.782L522.546 296.475L522.577 296.115L521.083 295.986ZM520.869 296.324L522.126 297.143L522.126 297.143L520.869 296.324ZM490.163 302.803L490.982 301.546H490.982L490.163 302.803ZM472.27 291.145L471.451 292.402L471.451 292.402L472.27 291.145ZM463.016 278.54L461.572 278.134L461.458 278.539L461.571 278.944L463.016 278.54ZM465.791 272.438L467.048 273.257C473.286 263.683 486.103 260.978 495.677 267.216L496.496 265.959L497.315 264.702C486.353 257.56 471.677 260.657 464.534 271.619L465.791 272.438ZM496.496 265.959L495.677 267.216L510.268 276.722L511.087 275.465L511.906 274.208L497.315 264.702L496.496 265.959ZM511.087 275.465L510.268 276.722C516.887 281.034 520.224 288.494 519.589 295.857L521.083 295.986L522.577 296.115C523.304 287.694 519.489 279.149 511.906 274.208L511.087 275.465ZM521.083 295.986L519.812 295.189C519.733 295.316 519.676 295.408 519.612 295.506L520.869 296.324L522.126 297.143C522.209 297.016 522.292 296.881 522.354 296.782L521.083 295.986ZM520.869 296.324L519.612 295.506C513.374 305.08 500.556 307.784 490.982 301.546L490.163 302.803L489.344 304.06C500.307 311.202 514.984 308.106 522.126 297.143L520.869 296.324ZM490.163 302.803L490.982 301.546L473.088 289.888L472.27 291.145L471.451 292.402L489.344 304.06L490.163 302.803ZM472.27 291.145L473.088 289.888C468.707 287.034 465.766 282.805 464.46 278.136L463.016 278.54L461.571 278.944C463.066 284.288 466.436 289.134 471.451 292.402L472.27 291.145ZM463.016 278.54L464.459 278.947C465.013 276.981 465.871 275.062 467.048 273.257L465.791 272.438L464.534 271.619C463.19 273.681 462.207 275.878 461.572 278.134L463.016 278.54Z"
        fill="#6F6855" />
    <rect x="561.472" y="229.546" width="44.8981" height="71.2099" rx="19.2"
        transform="rotate(30 561.472 229.546)" fill="#FFFDFA" stroke="#6F6855" stroke-width="3.6" />
    <rect x="499.529" y="260.521" width="49.2634" height="78.0921" rx="22.5"
        transform="rotate(-34.7228 499.529 260.521)" fill="#E1DCD0" stroke="#6F6855"
        stroke-width="3.6" />
    <path
        d="M519.337 256.461C528.772 251.8 540.194 254.669 546.306 263.234L566.301 291.256C569.47 295.696 570.656 300.857 570.131 305.786C568.939 307.146 567.564 308.385 566.01 309.462L562.505 311.89C552.292 318.968 538.275 316.427 531.197 306.214L512.347 279.015C510.181 275.889 508.917 272.406 508.497 268.875C510.234 263.683 513.95 259.122 519.337 256.461Z"
        fill="#A8A292" />
    <path
        d="M519.337 256.461L518.673 255.116L518.673 255.116L519.337 256.461ZM546.306 263.234L547.527 262.363L547.527 262.363L546.306 263.234ZM566.301 291.256L565.08 292.127L565.08 292.127L566.301 291.256ZM570.131 305.786L571.259 306.774L571.572 306.417L571.623 305.945L570.131 305.786ZM566.01 309.462L565.155 308.229L566.01 309.462ZM562.505 311.89L563.36 313.123L563.36 313.123L562.505 311.89ZM531.197 306.214L529.964 307.068L529.964 307.068L531.197 306.214ZM512.347 279.015L513.58 278.16L512.347 279.015ZM508.497 268.875L507.074 268.399L506.968 268.718L507.007 269.052L508.497 268.875ZM519.337 256.461L520.001 257.805C528.776 253.471 539.4 256.139 545.085 264.106L546.306 263.234L547.527 262.363C540.987 253.199 528.767 250.129 518.673 255.116L519.337 256.461ZM546.306 263.234L545.085 264.106L565.08 292.127L566.301 291.256L567.522 290.385L547.527 262.363L546.306 263.234ZM566.301 291.256L565.08 292.127C568.026 296.256 569.127 301.047 568.639 305.627L570.131 305.786L571.623 305.945C572.185 300.667 570.913 295.136 567.522 290.385L566.301 291.256ZM570.131 305.786L569.003 304.797C567.891 306.067 566.607 307.223 565.155 308.229L566.01 309.462L566.864 310.695C568.52 309.547 569.988 308.226 571.259 306.774L570.131 305.786ZM566.01 309.462L565.155 308.229L561.651 310.658L562.505 311.89L563.36 313.123L566.864 310.695L566.01 309.462ZM562.505 311.89L561.651 310.658C552.119 317.264 539.036 314.891 532.43 305.359L531.197 306.214L529.964 307.068C537.514 317.962 552.466 320.673 563.36 313.123L562.505 311.89ZM531.197 306.214L532.43 305.359L513.58 278.16L512.347 279.015L511.114 279.869L529.964 307.068L531.197 306.214ZM512.347 279.015L513.58 278.16C511.557 275.241 510.378 271.992 509.986 268.698L508.497 268.875L507.007 269.052C507.456 272.82 508.805 276.537 511.114 279.869L512.347 279.015ZM508.497 268.875L509.919 269.351C511.535 264.52 514.989 260.281 520.001 257.805L519.337 256.461L518.673 255.116C512.91 257.962 508.932 262.846 507.074 268.399L508.497 268.875Z"
        fill="#6F6855" />
    <path
        d="M430.541 223.647C432.269 222.36 434.713 222.718 435.999 224.446L436 224.447L436.002 224.45C436.003 224.452 436.03 224.487 436.044 224.506C436.073 224.545 436.116 224.603 436.172 224.679C436.284 224.83 436.45 225.054 436.665 225.347C437.096 225.933 437.728 226.797 438.536 227.911C440.152 230.139 442.473 233.37 445.296 237.391C450.941 245.431 458.606 256.643 466.68 269.325C473.287 279.705 471.476 293.185 462.748 301.693C451.045 313.101 431.883 311.195 422.656 297.705L415.554 287.322C414.338 285.544 414.794 283.117 416.571 281.901C417.828 281.041 419.409 281.017 420.657 281.704L441.702 286.164C442.264 286.283 442.353 287.049 441.834 287.294L432.513 291.702C432.159 291.87 432.058 292.326 432.307 292.627L438.819 300.51C438.82 300.511 438.821 300.512 438.821 300.513C445.052 302.463 452.19 301.093 457.304 296.108C463.47 290.097 464.662 280.68 460.1 273.514C452.104 260.955 444.509 249.844 438.912 241.872C436.114 237.888 433.818 234.69 432.223 232.49C431.425 231.391 430.803 230.542 430.381 229.969C430.17 229.683 430.01 229.465 429.902 229.32C429.849 229.247 429.808 229.192 429.781 229.156C429.768 229.139 429.758 229.125 429.752 229.116C429.749 229.112 429.746 229.109 429.744 229.107L429.743 229.105C428.457 227.377 428.814 224.933 430.541 223.647Z"
        fill="#6F6855" />
    <path
        d="M430.541 223.647L429.645 222.444L429.645 222.444L430.541 223.647ZM435.999 224.446L434.796 225.341L434.861 225.429L434.938 225.506L435.999 224.446ZM436 224.447L437.342 223.776L437.233 223.558L437.061 223.386L436 224.447ZM436.002 224.45L434.66 225.121L434.718 225.236L434.793 225.339L436.002 224.45ZM436.044 224.506L434.84 225.4L434.84 225.4L436.044 224.506ZM436.172 224.679L437.378 223.787L437.378 223.787L436.172 224.679ZM436.665 225.347L437.873 224.458V224.458L436.665 225.347ZM438.536 227.911L439.75 227.031V227.031L438.536 227.911ZM445.296 237.391L446.524 236.529L445.296 237.391ZM466.68 269.325L467.945 268.52L467.945 268.52L466.68 269.325ZM462.748 301.693L463.795 302.767L463.795 302.767L462.748 301.693ZM422.656 297.705L423.894 296.858L423.894 296.858L422.656 297.705ZM415.554 287.322L414.316 288.168L414.316 288.168L415.554 287.322ZM416.571 281.901L415.725 280.662L415.724 280.663L416.571 281.901ZM420.657 281.704L419.934 283.018L420.129 283.126L420.346 283.172L420.657 281.704ZM441.702 286.164L442.013 284.697L442.013 284.697L441.702 286.164ZM441.834 287.294L442.475 288.65L442.475 288.65L441.834 287.294ZM432.513 291.702L431.871 290.346L431.871 290.347L432.513 291.702ZM432.307 292.627L431.15 293.583L431.15 293.583L432.307 292.627ZM438.819 300.51L439.976 299.555L439.976 299.555L438.819 300.51ZM438.821 300.513L437.659 301.462L437.944 301.81L438.373 301.944L438.821 300.513ZM457.304 296.108L458.351 297.182L458.351 297.182L457.304 296.108ZM460.1 273.514L461.365 272.708L461.365 272.708L460.1 273.514ZM438.912 241.872L440.14 241.01H440.14L438.912 241.872ZM432.223 232.49L433.437 231.61V231.61L432.223 232.49ZM430.381 229.969L431.589 229.08V229.08L430.381 229.969ZM429.902 229.32L431.108 228.427L431.108 228.427L429.902 229.32ZM429.781 229.156L430.986 228.262L430.986 228.262L429.781 229.156ZM429.752 229.116L430.956 228.222L430.956 228.221L429.752 229.116ZM429.744 229.107L428.403 229.778L428.462 229.896L428.541 230.003L429.744 229.107ZM429.743 229.105L431.085 228.434L431.025 228.315L430.946 228.209L429.743 229.105ZM430.541 223.647L431.437 224.85C432.5 224.058 434.004 224.278 434.796 225.341L435.999 224.446L437.202 223.55C435.421 221.158 432.037 220.663 429.645 222.444L430.541 223.647ZM435.999 224.446L434.938 225.506L434.939 225.507L436 224.447L437.061 223.386L437.06 223.385L435.999 224.446ZM436 224.447L434.658 225.117L434.66 225.121L436.002 224.45L437.344 223.78L437.342 223.776L436 224.447ZM436.002 224.45L434.793 225.339C434.798 225.345 434.801 225.349 434.802 225.35C434.803 225.352 434.804 225.353 434.805 225.354C434.806 225.356 434.807 225.357 434.808 225.358C434.809 225.36 434.811 225.362 434.812 225.364C434.815 225.368 434.819 225.372 434.822 225.378C434.831 225.389 434.837 225.397 434.84 225.4L436.044 224.506L437.248 223.612C437.242 223.603 437.235 223.594 437.23 223.587C437.224 223.58 437.219 223.573 437.214 223.566C437.209 223.56 437.205 223.554 437.202 223.551C437.201 223.549 437.2 223.548 437.2 223.547C437.199 223.547 437.2 223.548 437.2 223.548C437.201 223.549 437.202 223.55 437.203 223.551C437.203 223.552 437.206 223.556 437.211 223.562L436.002 224.45ZM436.044 224.506L434.84 225.4C434.868 225.438 434.909 225.493 434.966 225.571L436.172 224.679L437.378 223.787C437.323 223.713 437.278 223.652 437.248 223.612L436.044 224.506ZM436.172 224.679L434.966 225.571C435.078 225.723 435.243 225.945 435.457 226.236L436.665 225.347L437.873 224.458C437.656 224.163 437.489 223.938 437.378 223.787L436.172 224.679ZM436.665 225.347L435.457 226.236C435.886 226.819 436.515 227.68 437.322 228.792L438.536 227.911L439.75 227.031C438.941 225.914 438.307 225.048 437.873 224.458L436.665 225.347ZM438.536 227.911L437.322 228.792C438.934 231.015 441.25 234.239 444.068 238.253L445.296 237.391L446.524 236.529C443.695 232.501 441.37 229.264 439.75 227.031L438.536 227.911ZM445.296 237.391L444.068 238.253C449.704 246.28 457.355 257.472 465.414 270.131L466.68 269.325L467.945 268.52C459.856 255.814 452.178 244.583 446.524 236.529L445.296 237.391ZM466.68 269.325L465.414 270.131C471.628 279.892 469.937 292.59 461.701 300.619L462.748 301.693L463.795 302.767C473.015 293.78 474.947 279.518 467.945 268.52L466.68 269.325ZM462.748 301.693L461.701 300.619C450.665 311.376 432.595 309.579 423.894 296.858L422.656 297.705L421.418 298.552C431.171 312.811 451.425 314.825 463.795 302.767L462.748 301.693ZM422.656 297.705L423.894 296.858L416.792 286.475L415.554 287.322L414.316 288.168L421.418 298.552L422.656 297.705ZM415.554 287.322L416.792 286.475C416.044 285.381 416.324 283.887 417.418 283.139L416.571 281.901L415.724 280.663C413.263 282.346 412.632 285.707 414.316 288.168L415.554 287.322ZM416.571 281.901L417.418 283.139C418.19 282.611 419.162 282.593 419.934 283.018L420.657 281.704L421.381 280.39C419.656 279.441 417.466 279.471 415.725 280.662L416.571 281.901ZM420.657 281.704L420.346 283.172L441.391 287.632L441.702 286.164L442.013 284.697L420.968 280.237L420.657 281.704ZM441.702 286.164L441.391 287.632C440.546 287.453 440.416 286.306 441.193 285.938L441.834 287.294L442.475 288.65C444.291 287.792 443.982 285.114 442.013 284.697L441.702 286.164ZM441.834 287.294L441.193 285.938L431.871 290.346L432.513 291.702L433.154 293.058L442.475 288.65L441.834 287.294ZM432.513 291.702L431.871 290.347C430.634 290.932 430.278 292.526 431.15 293.583L432.307 292.627L433.463 291.672C433.837 292.125 433.684 292.807 433.155 293.058L432.513 291.702ZM432.307 292.627L431.15 293.583L437.663 301.465L438.819 300.51L439.976 299.555L433.463 291.672L432.307 292.627ZM438.819 300.51L437.662 301.465C437.638 301.436 437.619 301.409 437.602 301.387C437.586 301.364 437.573 301.344 437.563 301.329C437.553 301.314 437.545 301.301 437.54 301.294C437.538 301.29 437.536 301.286 437.535 301.285C437.534 301.284 437.534 301.283 437.533 301.282C437.533 301.282 437.533 301.282 437.533 301.282C437.533 301.281 437.533 301.281 437.533 301.281C437.533 301.281 437.534 301.282 437.535 301.284C437.536 301.286 437.537 301.289 437.54 301.293C437.544 301.3 437.552 301.312 437.561 301.327C437.571 301.342 437.584 301.362 437.6 301.384C437.616 301.407 437.636 301.433 437.659 301.462L438.821 300.513L439.983 299.564C440.006 299.593 440.026 299.619 440.042 299.641C440.058 299.663 440.07 299.682 440.08 299.697C440.09 299.712 440.097 299.724 440.101 299.731C440.104 299.735 440.105 299.738 440.106 299.739C440.107 299.741 440.108 299.742 440.108 299.742C440.108 299.742 440.107 299.741 440.107 299.741C440.107 299.74 440.106 299.739 440.106 299.738C440.104 299.736 440.102 299.733 440.1 299.729C440.095 299.721 440.087 299.708 440.077 299.692C440.067 299.677 440.053 299.657 440.037 299.634C440.021 299.611 440 299.585 439.976 299.555L438.819 300.51ZM438.821 300.513L438.373 301.944C445.101 304.05 452.821 302.572 458.351 297.182L457.304 296.108L456.257 295.034C451.559 299.613 445.003 300.876 439.269 299.081L438.821 300.513ZM457.304 296.108L458.351 297.182C465.01 290.69 466.32 280.492 461.365 272.708L460.1 273.514L458.834 274.319C463.003 280.868 461.93 289.503 456.257 295.034L457.304 296.108ZM460.1 273.514L461.365 272.708C453.354 260.126 445.746 248.995 440.14 241.01L438.912 241.872L437.684 242.734C443.272 250.693 450.854 261.785 458.834 274.319L460.1 273.514ZM438.912 241.872L440.14 241.01C437.337 237.019 435.036 233.814 433.437 231.61L432.223 232.49L431.008 233.371C432.6 235.565 434.892 238.756 437.684 242.734L438.912 241.872ZM432.223 232.49L433.437 231.61C432.637 230.507 432.012 229.655 431.589 229.08L430.381 229.969L429.172 230.858C429.593 231.429 430.214 232.275 431.008 233.371L432.223 232.49ZM430.381 229.969L431.589 229.08C431.379 228.794 431.217 228.574 431.108 228.427L429.902 229.32L428.697 230.212C428.803 230.355 428.962 230.571 429.172 230.858L430.381 229.969ZM429.902 229.32L431.108 228.427C431.054 228.354 431.01 228.295 430.986 228.262L429.781 229.156L428.577 230.051C428.606 230.09 428.644 230.14 428.697 230.212L429.902 229.32ZM429.781 229.156L430.986 228.262C430.984 228.26 430.982 228.257 430.978 228.252C430.976 228.25 430.973 228.245 430.97 228.241C430.967 228.237 430.962 228.23 430.956 228.222L429.752 229.116L428.548 230.011C428.545 230.007 428.544 230.005 428.545 230.007C428.546 230.009 428.547 230.01 428.551 230.015C428.556 230.023 428.566 230.036 428.577 230.051L429.781 229.156ZM429.752 229.116L430.956 228.221C430.943 228.204 430.931 228.19 430.923 228.178C430.914 228.168 430.907 228.159 430.904 228.155C430.902 228.153 430.9 228.151 430.901 228.152C430.901 228.152 430.901 228.152 430.902 228.153C430.903 228.154 430.904 228.155 430.905 228.157C430.907 228.16 430.912 228.166 430.919 228.174C430.922 228.178 430.926 228.183 430.93 228.189C430.935 228.195 430.941 228.202 430.947 228.21L429.744 229.107L428.541 230.003C428.548 230.012 428.554 230.019 428.558 230.025C428.563 230.032 428.567 230.037 428.571 230.041C428.578 230.05 428.583 230.056 428.586 230.06C428.589 230.064 428.591 230.067 428.592 230.067C428.593 230.068 428.592 230.067 428.591 230.066C428.589 230.064 428.584 230.057 428.577 230.048C428.569 230.039 428.56 230.027 428.548 230.011L429.752 229.116ZM429.744 229.107L431.086 228.436L431.085 228.434L429.743 229.105L428.402 229.776L428.403 229.778L429.744 229.107ZM429.743 229.105L430.946 228.209C430.154 227.145 430.375 225.641 431.437 224.85L430.541 223.647L429.645 222.444C427.253 224.225 426.759 227.609 428.54 230.001L429.743 229.105Z"
        fill="#FFFDFA" />
    <path
        d="M720.616 12C693.344 12 671.236 34.1086 671.235 61.3809C671.235 67.3613 672.3 73.0933 674.247 78.3984L663 102.381L682.777 93.1055C691.836 103.898 705.423 110.763 720.616 110.763C747.889 110.763 769.997 88.6533 769.997 61.3809C769.997 34.1086 747.889 12 720.616 12Z"
        fill="#26231B" />
    <path
        d="M720.616 12V10.2V12ZM671.235 61.3809H669.435V61.3808L671.235 61.3809ZM674.247 78.3984L675.937 77.7781L676.196 78.4829L675.877 79.1627L674.247 78.3984ZM663 102.381L663.764 104.011L659.256 106.125L661.37 101.617L663 102.381ZM682.777 93.1055L682.013 91.4758L683.266 90.8881L684.156 91.9483L682.777 93.1055ZM720.616 110.763V112.563V110.763ZM769.997 61.3809L771.797 61.3808V61.3809H769.997ZM720.616 12V13.8C694.338 13.8 673.036 35.1027 673.035 61.3809L671.235 61.3809L669.435 61.3808C669.436 33.1145 692.35 10.2 720.616 10.2V12ZM671.235 61.3809H673.035C673.035 67.1463 674.061 72.6685 675.937 77.7781L674.247 78.3984L672.557 79.0188C670.538 73.5181 669.435 67.5763 669.435 61.3809H671.235ZM674.247 78.3984L675.877 79.1627L664.63 103.145L663 102.381L661.37 101.617L672.617 77.6342L674.247 78.3984ZM663 102.381L662.236 100.751L682.013 91.4758L682.777 93.1055L683.542 94.7351L663.764 104.011L663 102.381ZM682.777 93.1055L684.156 91.9483C692.887 102.351 705.978 108.963 720.616 108.963V110.763V112.563C704.868 112.563 690.784 105.445 681.399 94.2626L682.777 93.1055ZM720.616 110.763V108.963C746.894 108.963 768.197 87.6592 768.197 61.3809H769.997H771.797C771.797 89.6473 748.883 112.563 720.616 112.563V110.763ZM769.997 61.3809L768.197 61.3809C768.197 35.1027 746.894 13.8 720.616 13.8V12V10.2C748.883 10.2 771.797 33.1145 771.797 61.3808L769.997 61.3809Z"
        fill="#E1DCD0" />
    <path
        d="M695.789 32.6614H711.596L710.121 73.0129H696.632L695.789 32.6614ZM711.175 78.2437V89.1322H695.578V78.2437H711.175Z"
        fill="#FFC249" stroke="#E1DCD0" stroke-width="1.5" />
    <path
        d="M756.568 40.6756C759.512 43.9954 760.369 47.9493 759.139 52.5375C758.036 56.6534 756.062 59.7041 753.216 61.6895C750.437 63.693 746.923 65.0657 742.675 65.8076L740.804 72.7911L724.914 68.5334L728.276 55.9833C730.954 55.9775 733.278 55.8048 735.249 55.4652C737.306 55.0762 738.911 54.3492 740.064 53.2841C740.79 52.4661 741.306 51.4835 741.613 50.3365C741.921 49.1894 741.836 48.1544 741.361 47.2314C740.97 46.259 740.033 45.5739 738.549 45.1762C737.739 44.9592 737.046 44.8459 736.47 44.8362C735.251 44.7987 733.91 44.9456 732.447 45.2769C730.984 45.6081 729.766 45.9688 728.794 46.3592L724.037 45.0846L727.346 32.7369C732.904 31.6952 738.483 31.9246 744.084 33.4252C749.482 34.8715 753.643 37.2883 756.568 40.6756ZM740.114 79.0065L736.914 90.9493L719.304 86.2306L722.504 74.2878L740.114 79.0065Z"
        fill="#FFC249" stroke="#E1DCD0" stroke-width="1.5" />
    <path d="M387.633 253.85C373.834 262.1 355.234 328.25 427.235 335.75" stroke="#FFFDFA"
        stroke-width="3" stroke-linecap="round" />
    <path d="M373.23 252.012C373.232 252.012 357.286 272.851 363.632 298.662" stroke="#FFFDFA"
        stroke-width="3" stroke-linecap="round" />
    <path d="M400.534 314.9C403.87 326 424.411 330.35 449.134 328.1" stroke="#FFFDFA"
        stroke-width="3" stroke-linecap="round" />
</svg>