<svg width="40" height="40" viewBox="0 0 40 40" fill="none" xmlns="http://www.w3.org/2000/svg">
<g id="&#232;&#175;&#132;&#232;&#174;&#186;">
<g id="Group 1171276380">
<path id="Subtract" d="M15.5 6.66666L15.5 5.91666H15.5V6.66666ZM25.0469 11.7721L24.9556 12.5165L26.4113 12.6951L25.7039 11.4104L25.0469 11.7721ZM23.333 11.6667V10.9167H23.333L23.333 11.6667ZM11.667 21.3844L10.917 21.3844V21.3844L11.667 21.3844ZM11.9902 23.654L11.7772 24.3731L13.0889 24.7616L12.7111 23.4468L11.9902 23.654ZM10.4473 23.0778L10.7598 22.396L10.7595 22.3959L10.4473 23.0778ZM9.94727 23.0749L9.63491 22.393L9.63489 22.393L9.94727 23.0749ZM6.69434 24.5651L7.00669 25.247L7.00671 25.2469L6.69434 24.5651ZM5.88965 23.8766L5.16763 23.6737L5.16762 23.6737L5.88965 23.8766ZM6.78613 20.6872L7.50815 20.8901L7.50816 20.8901L6.78613 20.6872ZM6.67676 20.152L6.08428 20.6119L6.08428 20.6119L6.67676 20.152ZM5 15.4128H4.25V15.4128L5 15.4128ZM15.5 6.66666L15.5 7.41666C19.5062 7.41673 22.8819 9.39528 24.3899 12.1339L25.0469 11.7721L25.7039 11.4104C23.8948 8.12493 19.9708 5.91673 15.5 5.91666L15.5 6.66666ZM25.0469 11.7721L25.1382 11.0277C24.5496 10.9555 23.947 10.9167 23.333 10.9167V11.6667V12.4167C23.8836 12.4167 24.4253 12.4515 24.9556 12.5165L25.0469 11.7721ZM23.333 11.6667L23.333 10.9167C16.6099 10.9168 10.917 15.481 10.917 21.3844L11.667 21.3844L12.417 21.3844C12.417 16.5544 17.17 12.4168 23.333 12.4167L23.333 11.6667ZM11.667 21.3844L10.917 21.3844C10.917 22.2397 11.0417 23.0687 11.2694 23.8611L11.9902 23.654L12.7111 23.4468C12.5201 22.7824 12.417 22.0927 12.417 21.3844L11.667 21.3844ZM11.9902 23.654L12.2032 22.9348C11.7003 22.7859 11.2175 22.6058 10.7598 22.396L10.4473 23.0778L10.1347 23.7596C10.66 24.0003 11.2095 24.2049 11.7772 24.3731L11.9902 23.654ZM10.4473 23.0778L10.7595 22.3959C10.4113 22.2364 10.0006 22.2255 9.63491 22.393L9.94727 23.0749L10.2596 23.7567C10.2114 23.7788 10.1658 23.7738 10.1351 23.7597L10.4473 23.0778ZM9.94727 23.0749L9.63489 22.393L6.38196 23.8832L6.69434 24.5651L7.00671 25.2469L10.2596 23.7567L9.94727 23.0749ZM6.69434 24.5651L6.38198 23.8832C6.51143 23.8239 6.64999 23.9432 6.61168 24.0795L5.88965 23.8766L5.16762 23.6737C4.8604 24.7669 5.9736 25.7202 7.00669 25.247L6.69434 24.5651ZM5.88965 23.8766L6.61167 24.0796L7.50815 20.8901L6.78613 20.6872L6.06411 20.4842L5.16763 23.6737L5.88965 23.8766ZM6.78613 20.6872L7.50816 20.8901C7.62822 20.4629 7.52418 20.0206 7.26923 19.6921L6.67676 20.152L6.08428 20.6119C6.06492 20.5869 6.048 20.5416 6.0641 20.4843L6.78613 20.6872ZM6.67676 20.152L7.26924 19.6922C6.3009 18.4445 5.75009 16.9772 5.75 15.4127L5 15.4128L4.25 15.4128C4.25011 17.3428 4.93266 19.1281 6.08428 20.6119L6.67676 20.152ZM5 15.4128H5.75C5.75 11.1194 9.98117 7.41666 15.5 7.41666V6.66666V5.91666C9.4211 5.91666 4.25 10.0459 4.25 15.4128H5Z" fill="#FFFDFA"/>
<g id="Group 1171276095">
<path id="Union" d="M23.333 11.6667L23.333 10.9167H23.333V11.6667ZM11.667 21.3845L10.917 21.3845V21.3845H11.667ZM23.333 31.1022V31.8522H23.333L23.333 31.1022ZM35 21.3845H35.75V21.3845L35 21.3845ZM33.0068 27.2121L33.7289 27.0092L33.0068 27.2121ZM33.2455 31.613L32.9332 32.2949L33.2455 31.613ZM28.9744 29.8895L29.2886 30.5705L28.9744 29.8895ZM29.4745 29.8861L29.7868 29.2042L29.4745 29.8861ZM23.333 11.6667L23.333 12.4167C17.17 12.4169 12.417 16.5544 12.417 21.3845H11.667H10.917C10.917 15.481 16.6099 10.9169 23.333 10.9167L23.333 11.6667ZM11.667 21.3845L12.417 21.3845C12.417 26.2145 17.17 30.3521 23.333 30.3522L23.333 31.1022L23.333 31.8522C16.6099 31.852 10.917 27.2879 10.917 21.3845L11.667 21.3845ZM23.333 31.1022V30.3522C25.2719 30.3522 27.0874 29.9339 28.6603 29.2084L28.9744 29.8895L29.2886 30.5705C27.5173 31.3876 25.4873 31.8522 23.333 31.8522V31.1022ZM29.4745 29.8861L29.7868 29.2042L33.5578 30.9311L33.2455 31.613L32.9332 32.2949L29.1622 30.568L29.4745 29.8861ZM34.0499 30.9248L33.3279 31.1277L32.2848 27.415L33.0068 27.2121L33.7289 27.0092L34.772 30.722L34.0499 30.9248ZM33.1166 26.6779L32.5257 26.216C33.6237 24.8113 34.25 23.1536 34.25 21.3845L35 21.3845L35.75 21.3845C35.75 23.5212 34.9905 25.4983 33.7075 27.1398L33.1166 26.6779ZM35 21.3845H34.25C34.25 16.5543 29.4963 12.4167 23.333 12.4167V11.6667V10.9167C30.0563 10.9167 35.75 15.4808 35.75 21.3845H35ZM33.0068 27.2121L32.2848 27.415C32.1648 26.988 32.2684 26.5452 32.5257 26.216L33.1166 26.6779L33.7075 27.1398C33.7282 27.1132 33.7449 27.0663 33.7289 27.0092L33.0068 27.2121ZM33.2455 31.613L33.5578 30.9311C33.4287 30.872 33.2895 30.991 33.3279 31.1277L34.0499 30.9248L34.772 30.722C35.0792 31.8154 33.9659 32.7678 32.9332 32.2949L33.2455 31.613ZM28.9744 29.8895L28.6603 29.2084C29.0096 29.0473 29.4211 29.0367 29.7868 29.2042L29.4745 29.8861L29.1622 30.568C29.2103 30.59 29.2565 30.5853 29.2886 30.5705L28.9744 29.8895Z" fill="#FFC249"/>
</g>
</g>
</g>
</svg>
