<svg width="40" height="40" viewBox="0 0 40 40" fill="none" xmlns="http://www.w3.org/2000/svg">
<g id="&#229;&#141;&#143;&#228;&#189;&#156;&#232;&#128;&#133;">
<g id="Group 1171276085">
<g id="Group 1171276076">
<g id="Group 1171276063">
<g id="Group 1171276061">
<circle id="Ellipse 740" cx="34.4742" cy="32.6323" r="2.19298" fill="#FFC249" stroke="#FFC249" stroke-width="0.833333"/>
<rect id="Rectangle 34624845" x="26.1406" y="21.6674" width="4.38596" height="4.38596" rx="0.833333" fill="#FFC249" stroke="#FFC249" stroke-width="0.5"/>
<path id="Polygon 5" d="M21.917 31.6303C22.2407 31.0908 23.0225 31.0908 23.3462 31.6303L24.5059 33.5632C24.8392 34.1187 24.4391 34.8253 23.7913 34.8253H21.4718C20.8241 34.8253 20.424 34.1187 20.7572 33.5632L21.917 31.6303Z" fill="#FFC249" stroke="#FFC249" stroke-width="1.33333"/>
</g>
</g>
<path id="Ellipse 742" d="M21.7539 30C21.7539 27.8477 22.7877 25.9371 24.3855 24.7368M32.2802 24.7368C33.6572 25.7712 34.6153 27.3332 34.8538 29.1228M24.9364 35.6355C25.9279 36.2344 27.0901 36.5789 28.3329 36.5789C29.814 36.5789 31.1806 36.0891 32.2802 35.2631" stroke="#FFFDFA" stroke-width="1.25" stroke-linejoin="round"/>
</g>
<g id="Mask group">
<mask id="mask0_8963_48878" style="mask-type:alpha" maskUnits="userSpaceOnUse" x="3" y="3" width="29" height="34">
<path id="Subtract" d="M31.667 20.5706C30.6243 20.2021 29.5028 20.0004 28.334 20.0003C22.8111 20.0003 18.334 24.4775 18.334 30.0003C18.3341 32.5617 19.2981 34.8972 20.8818 36.6664H3.33398V3.33334H31.667V20.5706Z" fill="#D9D9D9"/>
</mask>
<g mask="url(#mask0_8963_48878)">
<g id="Group 1171276075">
<path id="Ellipse 743" d="M18.335 5.75C21.6025 5.75018 24.251 8.39942 24.251 11.667C24.2508 14.9344 21.6024 17.5828 18.335 17.583C15.0674 17.583 12.4181 14.9345 12.418 11.667C12.418 8.39931 15.0673 5.75 18.335 5.75Z" stroke="#FFFDFA" stroke-width="1.5"/>
<path id="Subtract_2" d="M18.335 20.75C23.8352 20.7502 28.3868 24.8188 29.1416 30.1104C29.1968 30.4977 28.8748 30.9168 28.335 30.917H8.33496C7.7949 30.917 7.47307 30.4978 7.52832 30.1104C8.28318 24.8187 12.8346 20.75 18.335 20.75Z" stroke="#FFFDFA" stroke-width="1.5"/>
</g>
</g>
</g>
</g>
</g>
</svg>
