<svg width="40" height="40" viewBox="0 0 40 40" fill="none" xmlns="http://www.w3.org/2000/svg">
<g id="&#230;&#148;&#182;&#232;&#151;&#143;">
<path id="Star 2" d="M18.8113 10.3258C19.1855 9.17417 20.8147 9.17417 21.1889 10.3258L22.713 15.0164C22.8803 15.5314 23.3602 15.8801 23.9018 15.8801H28.8337C30.0446 15.8801 30.5481 17.4296 29.5685 18.1414L25.5784 21.0403C25.1403 21.3586 24.957 21.9228 25.1243 22.4378L26.6484 27.1284C27.0226 28.28 25.7045 29.2377 24.7248 28.5259L20.7348 25.627C20.2967 25.3087 19.7035 25.3087 19.2653 25.627L15.2753 28.5259C14.2957 29.2377 12.9776 28.28 13.3518 27.1284L14.8758 22.4378C15.0432 21.9228 14.8598 21.3586 14.4217 21.0403L10.4317 18.1414C9.45206 17.4296 9.95553 15.8801 11.1664 15.8801H16.0984C16.6399 15.8801 17.1199 15.5314 17.2872 15.0164L18.8113 10.3258Z" stroke="#FFC249" stroke-width="1.66667"/>
</g>
</svg>
