<svg width="56" height="56" viewBox="0 0 56 56" fill="none" xmlns="http://www.w3.org/2000/svg">
<g id="&#230;&#146;&#173;&#230;&#148;&#190;">
<circle id="Ellipse 1" cx="28.0002" cy="28" r="16.8" stroke="#FFFDFA" stroke-width="2"/>
<g id="Subtract">
<path d="M25.0733 21C25.2713 20.9999 25.4674 21.0503 25.6446 21.1475L34.292 26.7441C34.9223 27.0888 35.1784 27.9285 34.8643 28.6201C34.7407 28.8921 34.5399 29.1125 34.292 29.248V29.2549L25.6446 34.8516C25.0146 35.197 24.2484 34.9169 23.9336 34.2256C23.8442 34.0291 23.7977 33.8123 23.7988 33.5928V22.3994C23.7986 21.6268 24.3693 21.0007 25.0733 21Z" fill="#FFC249"/>
<path d="M25.0733 21L25.0728 20L25.0723 20L25.0733 21ZM25.6446 21.1475L26.1879 20.3079L26.1573 20.2882L26.1254 20.2707L25.6446 21.1475ZM34.292 26.7441L33.7487 27.5837L33.7797 27.6038L33.8122 27.6215L34.292 26.7441ZM34.8643 28.6201L35.7747 29.0338L35.7747 29.0337L34.8643 28.6201ZM34.292 29.248L33.8122 28.3707L33.292 28.6551V29.248H34.292ZM34.292 29.2549L34.8353 30.0944L35.292 29.7988V29.2549H34.292ZM25.6446 34.8516L26.1253 35.7284L26.1573 35.7109L26.1879 35.6911L25.6446 34.8516ZM23.9336 34.2256L23.0235 34.64L23.0235 34.6401L23.9336 34.2256ZM23.7988 33.5928L24.7988 33.5978V33.5928H23.7988ZM23.7988 22.3994L24.7988 22.3994L24.7988 22.3991L23.7988 22.3994ZM25.0733 21L25.0737 22C25.1011 22 25.132 22.0069 25.1637 22.0243L25.6446 21.1475L26.1254 20.2707C25.8029 20.0938 25.4415 19.9998 25.0728 20L25.0733 21ZM25.6446 21.1475L25.1012 21.987L33.7487 27.5837L34.292 26.7441L34.8353 25.9046L26.1879 20.3079L25.6446 21.1475ZM34.292 26.7441L33.8122 27.6215C33.9423 27.6927 34.0712 27.9481 33.9538 28.2065L34.8643 28.6201L35.7747 29.0337C36.2857 27.9089 35.9022 26.4849 34.7718 25.8668L34.292 26.7441ZM34.8643 28.6201L33.9539 28.2064C33.9143 28.2935 33.8587 28.3452 33.8122 28.3707L34.292 29.248L34.7718 30.1254C35.2212 29.8797 35.5671 29.4906 35.7747 29.0338L34.8643 28.6201ZM34.292 29.248H33.292V29.2549H34.292H35.292V29.248H34.292ZM34.292 29.2549L33.7487 28.4154L25.1012 34.012L25.6446 34.8516L26.1879 35.6911L34.8353 30.0944L34.292 29.2549ZM25.6446 34.8516L25.1638 33.9747C25.1093 34.0046 25.0614 34.0053 25.0144 33.9882C24.9645 33.9699 24.8938 33.9211 24.8437 33.8111L23.9336 34.2256L23.0235 34.6401C23.5549 35.8068 24.9352 36.3809 26.1253 35.7284L25.6446 34.8516ZM23.9336 34.2256L24.8437 33.8112C24.8148 33.7477 24.7985 33.6741 24.7988 33.5978L23.7988 33.5928L22.7989 33.5878C22.797 33.9505 22.8735 34.3106 23.0235 34.64L23.9336 34.2256ZM23.7988 33.5928H24.7988V22.3994H23.7988H22.7988V33.5928H23.7988ZM23.7988 22.3994L24.7988 22.3991C24.7988 22.2598 24.8499 22.1509 24.9112 22.0836C24.9712 22.0178 25.0297 22 25.0742 22L25.0733 21L25.0723 20C23.7317 20.0013 22.7984 21.1637 22.7988 22.3998L23.7988 22.3994Z" fill="#FFFDFA"/>
</g>
</g>
</svg>
