<svg width="42" height="42" viewBox="0 0 42 42" fill="none" xmlns="http://www.w3.org/2000/svg">
    <g id="Details">

        <g id="Group 1171276467">
            <circle id="Ellipse 4235" cx="21" cy="21.0003" r="13.3333" stroke="#FFFDFA"
                stroke-width="1.66667" />
            <path id="i"
                d="M20.9861 12.667C21.4636 12.667 21.8585 12.8195 22.1707 13.1246C22.5013 13.3938 22.6666 13.7707 22.6666 14.2552C22.6666 14.7039 22.5013 15.0897 22.1707 15.4128C21.8218 15.7179 21.4269 15.8704 20.9861 15.8704C20.5454 15.8704 20.1505 15.7179 19.8016 15.4128C19.4894 15.1077 19.3333 14.7218 19.3333 14.2552C19.3333 13.7527 19.4894 13.3759 19.8016 13.1246C20.1138 12.8195 20.5086 12.667 20.9861 12.667ZM19.8842 17.083H22.0881V29.3337H19.8842V17.083Z"
                fill="#FFC249" />
        </g>
    </g>
</svg>