<svg width="32" height="32" viewBox="0 0 32 32" fill="none" xmlns="http://www.w3.org/2000/svg">
<g id="read">
<g id="Group 1171276520">
<path id="Vector 887" d="M12 25.3332V18.6665" stroke="#FFFDFA" stroke-width="1.33333" stroke-linecap="round"/>
<path id="Vector 888" d="M16 25.3335L16 21.3335" stroke="#FFFDFA" stroke-width="1.33333" stroke-linecap="round"/>
<path id="Rectangle 34625704" d="M24.6663 14.6665L26.3703 23.7541C26.5241 24.5747 25.8946 25.3332 25.0598 25.3332H6.93958C6.10473 25.3332 5.47523 24.5747 5.62908 23.7541L7.33301 14.6665" stroke="#FFC249" stroke-width="1.33333"/>
<path id="Union" d="M18.667 7.99951L19.3337 7.99951L19.3337 7.99927L18.667 7.99951ZM18.667 10.6665H18.0003V11.3332H18.667V10.6665ZM26.667 11.9995L27.3337 11.9995L27.3337 11.9993L26.667 11.9995ZM26.667 13.3335L27.3337 13.3336V13.3335H26.667ZM5.33301 13.3335L4.66634 13.3335L4.66634 13.3336L5.33301 13.3335ZM5.33301 11.9995L4.66634 11.9993V11.9995H5.33301ZM13.333 10.6665V11.3332H13.9997V10.6665H13.333ZM13.333 7.99951L12.6663 7.99927V7.99951H13.333ZM17.333 6.6665V7.33317C17.7014 7.33317 18.0002 7.632 18.0003 7.99975L18.667 7.99951L19.3337 7.99927C19.3333 6.89472 18.437 5.99984 17.333 5.99984V6.6665ZM18.667 7.99951H18.0003V10.6665H18.667H19.3337V7.99951H18.667ZM18.667 10.6665V11.3332H25.333V10.6665V9.99984H18.667V10.6665ZM25.333 10.6665V11.3332C25.7014 11.3332 26.0002 11.632 26.0003 11.9998L26.667 11.9995L27.3337 11.9993C27.3333 10.8947 26.437 9.99984 25.333 9.99984V10.6665ZM26.667 11.9995H26.0003V13.3335H26.667H27.3337V11.9995H26.667ZM26.667 13.3335L26.0003 13.3334C26.0003 13.701 25.7017 13.9998 25.333 13.9998V14.6665V15.3332C26.437 15.3332 27.3335 14.4386 27.3337 13.3336L26.667 13.3335ZM25.333 14.6665V13.9998H6.66699V14.6665V15.3332H25.333V14.6665ZM6.66699 14.6665V13.9998C6.2983 13.9998 5.99972 13.701 5.99967 13.3334L5.33301 13.3335L4.66634 13.3336C4.66647 14.4386 5.56303 15.3332 6.66699 15.3332V14.6665ZM5.33301 13.3335H5.99967V11.9995H5.33301H4.66634V13.3335H5.33301ZM5.33301 11.9995L5.99967 11.9998C5.99981 11.632 6.29857 11.3332 6.66699 11.3332V10.6665V9.99984C5.56298 9.99984 4.66674 10.8947 4.66634 11.9993L5.33301 11.9995ZM6.66699 10.6665V11.3332H13.333V10.6665V9.99984H6.66699V10.6665ZM13.333 10.6665H13.9997V7.99951H13.333H12.6663V10.6665H13.333ZM13.333 7.99951L13.9997 7.99975C13.9998 7.632 14.2986 7.33317 14.667 7.33317V6.6665V5.99984C13.563 5.99984 12.6667 6.89472 12.6663 7.99927L13.333 7.99951ZM14.667 6.6665V7.33317H17.333V6.6665V5.99984H14.667V6.6665Z" fill="#FFFDFA"/>
</g>
</g>
</svg>
