<svg width="40" height="40" viewBox="0 0 40 40" fill="none" xmlns="http://www.w3.org/2000/svg">
<g id="&#230;&#150;&#176;&#229;&#187;&#186;&#229;&#136;&#155;&#228;&#189;&#156;&#231;&#137;&#136;">
<g id="Group 1171276148">
<g id="Group 1171276147">
<rect id="Rectangle 61" x="6.66699" y="15" width="26.6667" height="18.3333" rx="2.5" stroke="#FFFDFA" stroke-width="1.33333" stroke-linecap="round"/>
<path id="Rectangle 50" d="M6.66699 20L33.3337 20V17.5C33.3337 16.1193 32.2144 15 30.8337 15L9.16699 15C7.78628 15 6.66699 16.1193 6.66699 17.5V20Z" stroke="#FFFDFA" stroke-width="1.33333" stroke-linecap="round"/>
</g>
<path id="Rectangle 62" d="M7.10198 11.9481C7.34176 13.3079 8.63842 14.2158 9.99815 13.976L30.515 10.3584C31.8747 10.1186 32.7826 8.82196 32.5428 7.46223L32.1666 5.32849C32.1346 5.14719 31.9617 5.02613 31.7804 5.0581L6.99609 9.42825C6.8148 9.46021 6.69374 9.6331 6.72571 9.8144L7.10198 11.9481Z" stroke="#FFFDFA" stroke-width="1.33333" stroke-linecap="round"/>
<g id="Group 1171276498">
<path id="Line 210" d="M25.001 25H16.6676M11.6676 25H13.3343" stroke="#26BBFF" stroke-width="1.66667" stroke-linecap="round"/>
<path id="Line 211" d="M11.667 28.3335H28.3337" stroke="#FFC249" stroke-width="1.66667" stroke-linecap="round"/>
</g>
</g>
</g>
</svg>
