<svg width="40" height="40" viewBox="0 0 40 40" fill="none" xmlns="http://www.w3.org/2000/svg">
    <g id="&#229;&#150;&#156;&#230;&#172;&#162;">
        <path id="Vector 15"
            d="M10.7144 22.6718L19.2335 30.9247C19.4075 31.0931 19.4944 31.1774 19.5843 31.2291C19.8415 31.3771 20.1581 31.3771 20.4154 31.2291C20.5052 31.1774 20.5922 31.0931 20.7661 30.9247L29.2852 22.6718C31.5979 20.4314 31.8806 16.8197 29.9448 14.2467L29.47 13.6155C27.1052 10.4723 22.2422 10.9886 20.5901 14.5583C20.3573 15.0613 19.6424 15.0613 19.4096 14.5583C17.7575 10.9886 12.8945 10.4723 10.5297 13.6155L10.0548 14.2467C8.11903 16.8197 8.4018 20.4314 10.7144 22.6718Z"
            stroke="#FFC249" stroke-width="1.66667"
            fill="#FFC249"
        />
    </g>
</svg>