<svg width="40" height="40" viewBox="0 0 40 40" fill="none" xmlns="http://www.w3.org/2000/svg">
<g id="googel 1">
<g id="Group 1171276458">
<path id="Vector" d="M33.0948 17.4825C33.2534 18.3123 33.3332 19.1552 33.3332 20C33.3332 27.3638 27.3636 33.3333 19.9998 33.3333C12.6361 33.3333 6.6665 27.3638 6.6665 20C6.6665 12.6362 12.6361 6.66668 19.9998 6.66668C23.1201 6.66214 26.1424 7.75659 28.5362 9.75801L24.1795 13.3298C22.7961 12.4712 21.1807 12.0622 19.5555 12.1593C17.9302 12.2563 16.3749 12.8544 15.1035 13.8715C13.8321 14.8886 12.907 16.2746 12.4555 17.8389C12.004 19.4032 12.0482 21.069 12.5821 22.6071C13.116 24.1453 14.1133 25.4802 15.4369 26.4284C16.7605 27.3765 18.3454 27.8913 19.9735 27.9019C21.6016 27.9125 23.1931 27.4185 24.5289 26.4877C25.8648 25.5568 26.8794 24.235 27.4334 22.704H20.3728V17.4825H33.0948Z" fill="#FBBB00"/>
<path id="Vector_2" d="M20.0004 6.66668C23.1207 6.66214 26.1429 7.75659 28.5368 9.75801L24.1801 13.3298C23.1759 12.7064 22.0444 12.317 20.8694 12.1901C19.6943 12.0633 18.5058 12.2023 17.3917 12.597C16.2777 12.9916 15.2667 13.6318 14.4335 14.47C13.6003 15.3083 12.9663 16.3232 12.5785 17.4396L8.18115 13.825C10.4086 9.57031 14.8651 6.66668 20.0004 6.66668Z" fill="#F14336"/>
<path id="Vector_3" d="M28.3772 30.3722L24.0094 26.8188C25.5945 25.8871 26.8052 24.432 27.4331 22.704H20.3726V17.4825H33.0946C33.5494 19.8568 33.3509 22.3101 32.52 24.5803C31.6892 26.8505 30.2572 28.8524 28.3772 30.3722Z" fill="#518EF8"/>
<path id="Vector_4" opacity="0.79" d="M20.0223 27.9021C21.4242 27.904 22.801 27.5299 24.0092 26.8188L28.377 30.3722C26.0075 32.2921 23.0492 33.3378 19.9994 33.3333C14.9294 33.3333 10.5205 30.5035 8.26562 26.337L12.6345 22.7664C13.1948 24.2739 14.2029 25.574 15.5235 26.492C16.8441 27.4101 18.4139 27.9021 20.0223 27.9021Z" fill="#28B446"/>
</g>
</g>
</svg>
