<svg width="286" height="77" viewBox="0 0 286 77" fill="none" xmlns="http://www.w3.org/2000/svg">
<g id="Frame 1171277282">
<g id="&#233;&#187;&#152;&#232;&#174;&#164;&#229;&#164;&#180;&#229;&#131;&#143;">
<g id="&#233;&#187;&#152;&#232;&#174;&#164;&#229;&#164;&#180;&#229;&#131;&#143;_2">
<circle id="Ellipse 831" cx="38.5" cy="38.5003" r="37.5" fill="#26BBFF" stroke="#FFFDFA" stroke-width="1.875"/>
<path id="Union" d="M74.8731 24.0739C75.1064 21.6852 73.3445 19.5655 70.9534 19.3582L66.9381 19.0102C64.786 18.8236 62.8582 20.3976 62.3622 22.4591C62.3171 22.6465 62.0305 22.6919 61.9486 22.5174L61.7947 22.1898C61.3544 21.2525 60.2376 20.8497 59.3004 21.29C58.3631 21.7304 57.9603 22.8472 58.4006 23.7844L60.8582 29.0152C61.3948 30.1572 61.6267 31.4185 61.5315 32.6767L60.613 44.8103L60.1176 51.3545L72.1064 52.3937L72.7445 45.8619L74.6588 26.2665L74.8731 24.0739Z" fill="#FFFDFA"/>
<g id="Mask group">
<mask id="mask0_9126_267060" style="mask-type:alpha" maskUnits="userSpaceOnUse" x="1" y="1" width="75" height="76">
<circle id="Ellipse 831_2" cx="38.5" cy="38.5003" r="37.5" fill="#D9D9D9"/>
</mask>
<g mask="url(#mask0_9126_267060)">
<g id="Group 1171276285">
<g id="Group 1171276291">
<path id="Union_2" d="M3.03369 61.0335C4.1104 58.4195 6.96023 57.0108 9.69092 57.7425L12.4087 58.471C14.1838 58.9467 15.5432 60.2276 16.1802 61.8284L28.5601 78.3567C29.4624 79.5614 28.9506 81.2955 27.5386 81.8167L18.1479 85.2825C17.1339 85.6566 15.9976 85.2568 15.4409 84.3304L5.75146 68.2034C4.37169 67.6688 3.34825 67.0972 2.62646 66.6136C1.69127 65.9869 1.4829 64.799 1.91162 63.7581L3.03369 61.0335Z" fill="#FFFDFA"/>
<path id="Union_3" d="M3.14172 61.202C4.92297 58.202 7.536 57.1891 10.2667 57.9208L12.4095 58.4707C14.1858 58.9467 15.5463 60.229 16.1827 61.8313L28.5607 78.3567C29.463 79.5614 28.9511 81.2951 27.5391 81.8163L18.1487 85.2825C17.1346 85.6568 15.9977 85.257 15.441 84.3304L5.75251 68.2041C4.37244 67.6694 3.34913 67.0969 2.62726 66.6133C1.69209 65.9866 1.48353 64.7991 1.91223 63.7583L3.14172 61.202Z" stroke="#191816" stroke-width="1.5"/>
<g id="Group 1171276287">
<path id="Rectangle 34624683" d="M12.4278 62.8839C12.3263 62.364 12.5922 61.8419 13.0722 61.6181C13.6681 61.3403 14.3753 61.6163 14.6255 62.2243L16.684 67.2266C17.0897 68.2125 16.4918 69.323 15.4455 69.5273C14.5299 69.706 13.6428 69.1086 13.4641 68.193L12.4278 62.8839Z" fill="#FFFDFA"/>
<path id="Rectangle 34624682" d="M12.2354 61.7328L13.4458 67.9343C13.6237 68.8457 14.5068 69.4404 15.4183 69.2625C16.3297 69.0846 16.9244 68.2015 16.7465 67.29L16.3023 65.0144" stroke="#191816" stroke-width="1.5" stroke-linecap="round"/>
</g>
</g>
<g id="Group 1171276288">
<g id="Group 1171276290">
<path id="Polygon 6" d="M42.5076 29.5361C46.3673 27.3078 51.2045 27.7084 54.6449 30.5413L85.3129 55.7937C88.6471 58.5391 88.2139 63.7693 84.4736 65.9289L34.9793 94.5044C31.2389 96.6639 26.4929 94.4239 25.7824 90.1637L19.2471 50.9782C18.514 46.5823 20.5856 42.1928 24.4453 39.9644L42.5076 29.5361Z" fill="#FFFDFA" stroke="#191816" stroke-width="1.5"/>
<path id="Polygon 7" d="M42.5588 29.6249L24.4964 40.0532C20.6368 42.2816 18.5651 46.671 19.2982 51.067L20.3262 57.2308L23.5535 59.06C25.1183 59.9469 27.1064 59.267 27.8005 57.6076L30.3397 51.536C30.8211 50.3849 31.9647 49.652 33.2116 49.6953L44.4678 50.0865C45.6703 50.1283 46.7814 49.4476 47.2904 48.3573L49.7457 43.0976C50.1525 42.2262 50.9524 41.6026 51.8967 41.4207L57.427 40.3556C58.5435 40.1405 59.3631 39.182 59.402 38.0456L59.52 34.6022L54.6961 30.6301C51.2556 27.7972 46.4184 27.3966 42.5588 29.6249Z" fill="#FFC249" stroke="#191816" stroke-width="1.5"/>
</g>
<g id="Group 1171276289">
<rect id="Rectangle 113" x="39.625" y="56.655" width="3.75" height="9.375" rx="1.875" transform="rotate(-30 39.625 56.655)" fill="#191816"/>
<rect id="Rectangle 114" x="46.1191" y="52.905" width="3.75" height="9.375" rx="1.875" transform="rotate(-30 46.1191 52.905)" fill="#191816"/>
</g>
</g>
</g>
</g>
</g>
<path id="Union_4" d="M61.6767 35.9691L61.6767 32.3896C61.6767 31.3147 61.4397 30.253 60.9826 29.2801L58.4006 23.7845C57.9602 22.8472 58.3631 21.7304 59.3003 21.2901C59.9878 20.9671 61.2331 21.1747 62.1956 22.4127C62.3354 22.5925 63.091 22.422 63.1339 22.1983C63.6118 19.7092 65.755 18.8673 67.6977 19.0357L70.9533 19.3583C73.3445 19.5656 75.1064 21.6852 74.873 24.074L74.6587 26.2666L73.498 37.7481L72.7192 45.2503" stroke="#191816" stroke-width="1.5" stroke-linecap="round"/>
<g id="Group 1171276286">
<path id="Rectangle 34624681" d="M4.22729 60.921C4.14182 61.0561 4.06084 61.1852 3.98411 61.3085C3.12099 62.6952 1.26881 65.7041 2.62573 66.6133C3.70097 67.3337 5.44464 68.2518 8.04064 68.9474C10.5365 69.6162 13.2536 69.5196 14.2267 67.1007C14.3536 66.7852 14.4915 66.4723 14.6519 66.1724C14.9606 65.5952 15.4166 64.5298 15.2898 63.4522C15.1023 61.8585 15.1023 61.5772 11.821 59.9835C8.53976 58.3897 6.06496 58.0148 4.22729 60.921Z" fill="#FFFDFA"/>
<path id="Rectangle 34624680" d="M14.3899 66.6133C13.5982 69.5043 10.6944 69.6585 8.04057 68.9474C5.44457 68.2518 3.7009 67.3337 2.62566 66.6133C1.69046 65.9867 1.48176 64.7992 1.91048 63.7583C1.91048 63.7583 2.7838 61.4834 3.98376 59.9834C5.18372 58.4834 7.45221 56.6084 12.4078 58.4707" stroke="#191816" stroke-width="1.5" stroke-linecap="round"/>
</g>
<g id="Group 1171276294">
<path id="Vector" d="M54.5561 22.266L51.9807 21.5759L53.6978 14.132L56.7766 14.9569L54.5561 22.266ZM53.6886 25.3881L54.3052 23.0872L51.7874 22.4125L51.1708 24.7135L53.6886 25.3881Z" fill="#FFFDFA" stroke="#191816" stroke-width="0.46875"/>
<path id="Vector_2" d="M48.8746 20.646L46.2063 20.9788L44.9785 13.3204L48.1686 12.9225L48.8746 20.646ZM49.252 23.9143L48.9526 21.5143L46.3439 21.8397L46.6433 24.2397L49.252 23.9143Z" fill="#FFFDFA" stroke="#191816" stroke-width="0.46875"/>
<g id="Group 1171276293">
<path id="Vector_3" d="M37.5757 9.77688L39.0058 13.4028L35.5844 14.7522L34.1543 11.1263L37.5757 9.77688ZM39.4238 14.4627L43.5307 24.8755L40.1093 26.2249L36.0024 15.8121L39.4238 14.4627Z" fill="#FFFDFA" stroke="#191816" stroke-width="0.46875"/>
<path id="Vector_4" d="M36.4703 28.1527L32.9594 30.0224L30.2159 24.8708L26.1934 27.013L28.9464 32.1823L25.4179 34.0614L17.7604 19.6828L21.2889 17.8037L24.117 23.1141L28.1394 20.9718L25.3019 15.6438L28.8128 13.7741L36.4703 28.1527Z" fill="#FFFDFA" stroke="#191816" stroke-width="0.46875"/>
</g>
</g>
<path id="Ellipse 832" d="M75.9995 38.5004C75.9995 59.2111 59.2102 76.0004 38.4995 76.0004C31.6693 76.0004 25.2656 74.1744 19.75 70.9839" stroke="#FFFDFA" stroke-width="1.875" stroke-linecap="round"/>
<path id="Ellipse 833" d="M76.0001 38.5003C76.0001 59.211 59.2108 76.0003 38.5001 76.0003C29.8463 76.0003 21.877 73.069 15.5313 68.1451" stroke="#FFFDFA" stroke-width="1.875" stroke-linecap="round"/>
</g>
</g>
<g id="Frame 1171276442">
<g id="Group 1171276282">
<path id="Vector_5" d="M122.889 16.3566L112.298 44.2981V60.6541H99.7038V44.2981L88 16.3566H101.071L109.913 37.7103L117.864 16.3566H122.889Z" fill="#FFFDFA"/>
<g id="Group 1171276280">
<path id="Vector_6" d="M124.981 60.6542V32.9615L137.646 31.1153V60.6542H124.981Z" fill="#FFFDFA"/>
<ellipse id="Ellipse 828" cx="131.314" cy="22.8076" rx="6.33247" ry="6.46163" fill="#FFFDFA"/>
</g>
<path id="Subtract" d="M172.777 61.0923H161.169V58.2681C159.218 60.6479 156.116 61.8384 152.851 61.8384C145.642 61.8384 142.037 56.1914 142.037 44.898C142.037 33.2802 146.695 27.9821 153.486 27.982C156.497 27.982 159.388 29.3343 161.169 32.0386V18.1929L172.777 16.3462V61.0923ZM156.645 31.1158C153.931 31.1158 152.121 36.6538 152.121 44.9615C152.121 53.2693 153.931 58.8081 156.645 58.8081C159.358 58.8081 161.168 55.1154 161.168 44.9615C161.168 34.8076 159.358 31.1158 156.645 31.1158Z" fill="#FFFDFA"/>
<g id="Group 1171276281">
<path id="Subtract_2" d="M191.498 27.2635C193.091 27.0631 194.704 27.0632 196.297 27.2635L198.24 27.5076C204.701 28.3199 209.672 33.6405 210.079 40.1756C210.083 40.2003 210.346 41.5838 210.346 44.4763C210.346 47.3676 210.084 48.7512 210.079 48.7771C209.672 55.3122 204.701 60.6328 198.24 61.4451L196.297 61.6892C194.704 61.8895 193.091 61.8896 191.498 61.6892L189.555 61.4451C183.094 60.6327 178.122 55.3122 177.716 48.7771C177.711 48.7499 177.449 47.3663 177.449 44.4763C177.449 41.5852 177.711 40.2016 177.716 40.1756C178.122 33.6405 183.094 28.3199 189.555 27.5076L191.498 27.2635ZM193.897 29.156C190.995 29.1566 189.06 35.2847 189.06 44.4763C189.06 53.6678 190.995 59.7961 193.897 59.7967C196.8 59.7967 198.735 55.7109 198.735 44.4763C198.735 33.2415 196.8 29.156 193.897 29.156Z" fill="#FFFDFA"/>
<path id="Subtract_3" d="M225.709 27.7504C227.303 27.55 228.915 27.5501 230.509 27.7504L232.451 27.9945C238.912 28.8068 243.884 34.1266 244.29 40.6615C244.29 40.6615 244.558 42.0443 244.558 44.9633C244.558 47.8662 244.293 49.2491 244.29 49.264C243.884 55.7991 238.912 61.1197 232.451 61.932L230.509 62.1752C228.915 62.3755 227.303 62.3755 225.709 62.1752L223.767 61.932C217.306 61.1197 212.334 55.7991 211.928 49.264C211.925 49.2473 211.66 47.8642 211.66 44.9633C211.66 42.0443 211.928 40.6615 211.928 40.6615C212.334 34.1266 217.306 28.8069 223.767 27.9945L225.709 27.7504ZM228.109 29.6429C225.207 29.6429 223.272 35.7712 223.271 44.9633C223.271 54.1554 225.207 60.2836 228.109 60.2836C231.012 60.2834 232.947 56.1978 232.947 44.9633C232.947 33.7288 231.012 29.6431 228.109 29.6429Z" fill="#FFFDFA"/>
<path id="Subtract_4" d="M263.742 14.7078C265.624 14.4309 267.528 14.4309 269.411 14.7078L271.704 15.0457C279.333 16.1684 285.205 23.5214 285.685 32.5545C285.685 32.5545 286 34.466 286 38.5008C286 42.5353 285.685 44.4461 285.685 44.4461C285.205 53.4792 279.333 60.8331 271.704 61.9558L269.411 62.2928C267.528 62.5697 265.624 62.5697 263.742 62.2928L261.449 61.9558C253.819 60.8332 247.946 53.4793 247.466 44.4461C247.466 44.4461 247.151 42.5353 247.151 38.5008C247.151 34.466 247.466 32.5545 247.466 32.5545C247.946 23.5213 253.819 16.1683 261.449 15.0457L263.742 14.7078ZM266.579 17.323C263.151 17.3237 260.866 25.7943 260.866 38.4998C260.866 51.2052 263.151 59.6758 266.579 59.6765C270.007 59.6765 272.292 54.0293 272.292 38.4998C272.292 22.9702 270.007 17.323 266.579 17.323Z" fill="#FFFDFA"/>
</g>
</g>
</g>
</g>
</svg>
