<svg width="32" height="32" viewBox="0 0 32 32" fill="none" xmlns="http://www.w3.org/2000/svg">
<g id="&#231;&#167;&#175;&#229;&#136;&#134;1">
<g id="Group 1171275791">
<rect id="Rectangle 34624665" x="8" y="5.33325" width="8" height="5.33333" rx="1.33333" fill="#ED9E00" stroke="#FFFDFA" stroke-width="1.06667"/>
<g id="Group 1171275788">
<g id="Group 1171275824">
<rect id="Rectangle 34624672" x="14.6667" y="9.33325" width="13.3333" height="16" rx="2.13333" fill="#CCE5FF" stroke="#FFFDFA" stroke-width="1.06667"/>
<g id="Mask group">
<mask id="mask0_9493_187703" style="mask-type:alpha" maskUnits="userSpaceOnUse" x="14" y="9" width="14" height="17">
<rect id="Rectangle 34624671" x="15.2" y="9.86659" width="12.2667" height="14.9333" rx="1.6" fill="#D9D9D9" stroke="#FFFDFA" stroke-width="1.06667"/>
</mask>
<g mask="url(#mask0_9493_187703)">
<g id="Group 1171275793">
<g id="Subtract">
<mask id="path-4-inside-1_9493_187703" fill="white">
<path fill-rule="evenodd" clip-rule="evenodd" d="M-7.63814 12.2502C-7.63814 12.4802 -7.45164 12.6667 -7.22159 12.6667L33 12.6666C33.9204 12.6666 34.6666 11.9204 34.6666 11C34.6666 10.0796 33.9204 9.33342 33 9.33342L-7.22143 9.33358C-7.45157 9.33358 -7.63814 9.52014 -7.63814 9.75028C-7.63814 9.98042 -7.45157 10.167 -7.22143 10.167L-6.97076 10.167C-6.91963 10.167 -6.87816 10.2084 -6.87816 10.2596L-6.87816 11.7411C-6.87816 11.7922 -6.91963 11.8337 -6.97076 11.8337L-7.22159 11.8337C-7.45164 11.8337 -7.63814 12.0201 -7.63814 12.2502ZM34.1616 11.7411C34.1616 11.7922 34.1202 11.8337 34.069 11.8337L32.7342 11.8337C32.6831 11.8337 32.6416 11.7922 32.6416 11.7411L32.6416 10.2596C32.6416 10.2084 32.6831 10.167 32.7342 10.167L34.069 10.167C34.1202 10.167 34.1616 10.2084 34.1616 10.2596L34.1616 11.7411ZM31.3331 11.8337C31.3842 11.8337 31.4256 11.7922 31.4256 11.7411L31.4256 10.2596C31.4256 10.2084 31.3842 10.167 31.3331 10.167L29.9982 10.167C29.9471 10.167 29.9057 10.2084 29.9057 10.2596L29.9057 11.7411C29.9057 11.7922 29.9471 11.8337 29.9982 11.8337L31.3331 11.8337ZM28.6897 11.7411C28.6897 11.7922 28.6482 11.8337 28.5971 11.8337L27.2623 11.8337C27.2111 11.8337 27.1697 11.7922 27.1697 11.7411L27.1697 10.2596C27.1697 10.2084 27.2111 10.167 27.2623 10.167L28.5971 10.167C28.6482 10.167 28.6897 10.2084 28.6897 10.2596L28.6897 11.7411ZM25.8611 11.8337C25.9122 11.8337 25.9537 11.7922 25.9537 11.7411L25.9537 10.2596C25.9537 10.2084 25.9122 10.167 25.8611 10.167L24.5263 10.167C24.4751 10.167 24.4337 10.2084 24.4337 10.2596L24.4337 11.7411C24.4337 11.7922 24.4751 11.8337 24.5263 11.8337L25.8611 11.8337ZM23.2177 11.7411C23.2177 11.7922 23.1763 11.8337 23.1251 11.8337L21.7903 11.8337C21.7392 11.8337 21.6977 11.7922 21.6977 11.7411L21.6977 10.2596C21.6977 10.2084 21.7392 10.167 21.7903 10.167L23.1251 10.167C23.1763 10.167 23.2177 10.2084 23.2177 10.2596L23.2177 11.7411ZM20.3892 11.8337C20.4403 11.8337 20.4817 11.7922 20.4817 11.7411L20.4817 10.2596C20.4817 10.2084 20.4403 10.167 20.3892 10.167L19.0543 10.167C19.0032 10.167 18.9618 10.2084 18.9618 10.2596L18.9618 11.7411C18.9618 11.7922 19.0032 11.8337 19.0543 11.8337L20.3892 11.8337ZM17.7458 11.7411C17.7458 11.7922 17.7043 11.8337 17.6532 11.8337L16.3184 11.8337C16.2672 11.8337 16.2258 11.7922 16.2258 11.7411L16.2258 10.2596C16.2258 10.2084 16.2672 10.167 16.3184 10.167L17.6532 10.167C17.7043 10.167 17.7458 10.2084 17.7458 10.2596L17.7458 11.7411ZM14.9171 11.8337C14.9683 11.8337 15.0097 11.7922 15.0097 11.7411L15.0097 10.2596C15.0097 10.2084 14.9683 10.167 14.9171 10.167L13.5823 10.167C13.5312 10.167 13.4897 10.2084 13.4897 10.2596L13.4897 11.7411C13.4897 11.7922 13.5312 11.8337 13.5823 11.8337L14.9171 11.8337ZM12.2737 11.7411C12.2737 11.7922 12.2323 11.8337 12.1811 11.8337L10.8463 11.8337C10.7952 11.8337 10.7537 11.7922 10.7537 11.7411L10.7537 10.2596C10.7537 10.2084 10.7952 10.167 10.8463 10.167L12.1811 10.167C12.2323 10.167 12.2737 10.2084 12.2737 10.2596L12.2737 11.7411ZM9.44516 11.8337C9.4963 11.8337 9.53775 11.7922 9.53775 11.7411L9.53775 10.2596C9.53775 10.2084 9.4963 10.167 9.44516 10.167L8.11035 10.167C8.05922 10.167 8.01776 10.2084 8.01776 10.2596L8.01776 11.7411C8.01776 11.7922 8.05922 11.8337 8.11035 11.8337L9.44516 11.8337ZM6.80176 11.7411C6.80176 11.7922 6.7603 11.8337 6.70917 11.8337L5.37436 11.8337C5.32323 11.8337 5.28177 11.7922 5.28177 11.7411L5.28177 10.2596C5.28177 10.2084 5.32323 10.167 5.37436 10.167L6.70917 10.167C6.7603 10.167 6.80176 10.2084 6.80176 10.2596L6.80176 11.7411ZM3.97324 11.8337C4.02438 11.8337 4.06583 11.7922 4.06583 11.7411L4.06583 10.2596C4.06583 10.2084 4.02438 10.167 3.97324 10.167L2.63843 10.167C2.5873 10.167 2.54584 10.2084 2.54584 10.2596L2.54584 11.7411C2.54584 11.7922 2.5873 11.8337 2.63843 11.8337L3.97324 11.8337ZM1.32984 11.7411C1.32984 11.7922 1.28839 11.8337 1.23725 11.8337L-0.0975587 11.8337C-0.148691 11.8337 -0.190149 11.7922 -0.190149 11.7411L-0.190149 10.2596C-0.190149 10.2084 -0.148691 10.167 -0.0975586 10.167L1.23725 10.167C1.28839 10.167 1.32984 10.2084 1.32984 10.2596L1.32984 11.7411ZM-1.49874 11.8337C-1.4476 11.8337 -1.40614 11.7922 -1.40614 11.7411L-1.40614 10.2596C-1.40614 10.2084 -1.4476 10.167 -1.49873 10.167L-2.83355 10.167C-2.88468 10.167 -2.92614 10.2084 -2.92614 10.2596L-2.92614 11.7411C-2.92614 11.7922 -2.88468 11.8337 -2.83355 11.8337L-1.49874 11.8337ZM-4.14218 11.7411C-4.14218 11.7922 -4.18364 11.8337 -4.23477 11.8337L-5.56958 11.8337C-5.62071 11.8337 -5.66218 11.7922 -5.66218 11.7411L-5.66218 10.2596C-5.66218 10.2084 -5.62071 10.167 -5.56958 10.167L-4.23477 10.167C-4.18364 10.167 -4.14218 10.2084 -4.14218 10.2596L-4.14218 11.7411Z"/>
</mask>
<path fill-rule="evenodd" clip-rule="evenodd" d="M-7.63814 12.2502C-7.63814 12.4802 -7.45164 12.6667 -7.22159 12.6667L33 12.6666C33.9204 12.6666 34.6666 11.9204 34.6666 11C34.6666 10.0796 33.9204 9.33342 33 9.33342L-7.22143 9.33358C-7.45157 9.33358 -7.63814 9.52014 -7.63814 9.75028C-7.63814 9.98042 -7.45157 10.167 -7.22143 10.167L-6.97076 10.167C-6.91963 10.167 -6.87816 10.2084 -6.87816 10.2596L-6.87816 11.7411C-6.87816 11.7922 -6.91963 11.8337 -6.97076 11.8337L-7.22159 11.8337C-7.45164 11.8337 -7.63814 12.0201 -7.63814 12.2502ZM34.1616 11.7411C34.1616 11.7922 34.1202 11.8337 34.069 11.8337L32.7342 11.8337C32.6831 11.8337 32.6416 11.7922 32.6416 11.7411L32.6416 10.2596C32.6416 10.2084 32.6831 10.167 32.7342 10.167L34.069 10.167C34.1202 10.167 34.1616 10.2084 34.1616 10.2596L34.1616 11.7411ZM31.3331 11.8337C31.3842 11.8337 31.4256 11.7922 31.4256 11.7411L31.4256 10.2596C31.4256 10.2084 31.3842 10.167 31.3331 10.167L29.9982 10.167C29.9471 10.167 29.9057 10.2084 29.9057 10.2596L29.9057 11.7411C29.9057 11.7922 29.9471 11.8337 29.9982 11.8337L31.3331 11.8337ZM28.6897 11.7411C28.6897 11.7922 28.6482 11.8337 28.5971 11.8337L27.2623 11.8337C27.2111 11.8337 27.1697 11.7922 27.1697 11.7411L27.1697 10.2596C27.1697 10.2084 27.2111 10.167 27.2623 10.167L28.5971 10.167C28.6482 10.167 28.6897 10.2084 28.6897 10.2596L28.6897 11.7411ZM25.8611 11.8337C25.9122 11.8337 25.9537 11.7922 25.9537 11.7411L25.9537 10.2596C25.9537 10.2084 25.9122 10.167 25.8611 10.167L24.5263 10.167C24.4751 10.167 24.4337 10.2084 24.4337 10.2596L24.4337 11.7411C24.4337 11.7922 24.4751 11.8337 24.5263 11.8337L25.8611 11.8337ZM23.2177 11.7411C23.2177 11.7922 23.1763 11.8337 23.1251 11.8337L21.7903 11.8337C21.7392 11.8337 21.6977 11.7922 21.6977 11.7411L21.6977 10.2596C21.6977 10.2084 21.7392 10.167 21.7903 10.167L23.1251 10.167C23.1763 10.167 23.2177 10.2084 23.2177 10.2596L23.2177 11.7411ZM20.3892 11.8337C20.4403 11.8337 20.4817 11.7922 20.4817 11.7411L20.4817 10.2596C20.4817 10.2084 20.4403 10.167 20.3892 10.167L19.0543 10.167C19.0032 10.167 18.9618 10.2084 18.9618 10.2596L18.9618 11.7411C18.9618 11.7922 19.0032 11.8337 19.0543 11.8337L20.3892 11.8337ZM17.7458 11.7411C17.7458 11.7922 17.7043 11.8337 17.6532 11.8337L16.3184 11.8337C16.2672 11.8337 16.2258 11.7922 16.2258 11.7411L16.2258 10.2596C16.2258 10.2084 16.2672 10.167 16.3184 10.167L17.6532 10.167C17.7043 10.167 17.7458 10.2084 17.7458 10.2596L17.7458 11.7411ZM14.9171 11.8337C14.9683 11.8337 15.0097 11.7922 15.0097 11.7411L15.0097 10.2596C15.0097 10.2084 14.9683 10.167 14.9171 10.167L13.5823 10.167C13.5312 10.167 13.4897 10.2084 13.4897 10.2596L13.4897 11.7411C13.4897 11.7922 13.5312 11.8337 13.5823 11.8337L14.9171 11.8337ZM12.2737 11.7411C12.2737 11.7922 12.2323 11.8337 12.1811 11.8337L10.8463 11.8337C10.7952 11.8337 10.7537 11.7922 10.7537 11.7411L10.7537 10.2596C10.7537 10.2084 10.7952 10.167 10.8463 10.167L12.1811 10.167C12.2323 10.167 12.2737 10.2084 12.2737 10.2596L12.2737 11.7411ZM9.44516 11.8337C9.4963 11.8337 9.53775 11.7922 9.53775 11.7411L9.53775 10.2596C9.53775 10.2084 9.4963 10.167 9.44516 10.167L8.11035 10.167C8.05922 10.167 8.01776 10.2084 8.01776 10.2596L8.01776 11.7411C8.01776 11.7922 8.05922 11.8337 8.11035 11.8337L9.44516 11.8337ZM6.80176 11.7411C6.80176 11.7922 6.7603 11.8337 6.70917 11.8337L5.37436 11.8337C5.32323 11.8337 5.28177 11.7922 5.28177 11.7411L5.28177 10.2596C5.28177 10.2084 5.32323 10.167 5.37436 10.167L6.70917 10.167C6.7603 10.167 6.80176 10.2084 6.80176 10.2596L6.80176 11.7411ZM3.97324 11.8337C4.02438 11.8337 4.06583 11.7922 4.06583 11.7411L4.06583 10.2596C4.06583 10.2084 4.02438 10.167 3.97324 10.167L2.63843 10.167C2.5873 10.167 2.54584 10.2084 2.54584 10.2596L2.54584 11.7411C2.54584 11.7922 2.5873 11.8337 2.63843 11.8337L3.97324 11.8337ZM1.32984 11.7411C1.32984 11.7922 1.28839 11.8337 1.23725 11.8337L-0.0975587 11.8337C-0.148691 11.8337 -0.190149 11.7922 -0.190149 11.7411L-0.190149 10.2596C-0.190149 10.2084 -0.148691 10.167 -0.0975586 10.167L1.23725 10.167C1.28839 10.167 1.32984 10.2084 1.32984 10.2596L1.32984 11.7411ZM-1.49874 11.8337C-1.4476 11.8337 -1.40614 11.7922 -1.40614 11.7411L-1.40614 10.2596C-1.40614 10.2084 -1.4476 10.167 -1.49873 10.167L-2.83355 10.167C-2.88468 10.167 -2.92614 10.2084 -2.92614 10.2596L-2.92614 11.7411C-2.92614 11.7922 -2.88468 11.8337 -2.83355 11.8337L-1.49874 11.8337ZM-4.14218 11.7411C-4.14218 11.7922 -4.18364 11.8337 -4.23477 11.8337L-5.56958 11.8337C-5.62071 11.8337 -5.66218 11.7922 -5.66218 11.7411L-5.66218 10.2596C-5.66218 10.2084 -5.62071 10.167 -5.56958 10.167L-4.23477 10.167C-4.18364 10.167 -4.14218 10.2084 -4.14218 10.2596L-4.14218 11.7411Z" fill="#26BBFF" stroke="#26BBFF" stroke-width="0.853333" mask="url(#path-4-inside-1_9493_187703)"/>
</g>
<g id="Subtract_2">
<mask id="path-5-inside-2_9493_187703" fill="white">
<path fill-rule="evenodd" clip-rule="evenodd" d="M-7.3335 24.9167C-7.3335 25.1468 -7.14701 25.3332 -6.91696 25.3332L34.3333 25.3331C35.2537 25.3331 35.9999 24.5869 35.9999 23.6665C35.9999 22.7461 35.2537 21.9999 34.3333 21.9999L-6.91681 22.0001C-7.14694 22.0001 -7.3335 22.1866 -7.3335 22.4168C-7.3335 22.6469 -7.14694 22.8335 -6.9168 22.8335L-6.6051 22.8335C-6.54929 22.8335 -6.50404 22.8749 -6.50404 22.9261L-6.50404 24.4076C-6.50404 24.4587 -6.54929 24.5002 -6.6051 24.5002L-6.91696 24.5002C-7.14701 24.5002 -7.3335 24.6867 -7.3335 24.9167ZM35.2013 24.5002C35.2572 24.5002 35.3024 24.4587 35.3024 24.4076L35.3024 22.9261C35.3024 22.8749 35.2572 22.8335 35.2013 22.8335L33.7445 22.8335C33.6887 22.8335 33.6434 22.8749 33.6434 22.9261L33.6434 24.4076C33.6434 24.4587 33.6887 24.5002 33.7445 24.5002L35.2013 24.5002ZM32.3162 24.4076C32.3162 24.4587 32.271 24.5002 32.2152 24.5002L30.7583 24.5002C30.7025 24.5002 30.6572 24.4587 30.6572 24.4076L30.6572 22.9261C30.6572 22.8749 30.7025 22.8335 30.7583 22.8335L32.2152 22.8335C32.271 22.8335 32.3162 22.8749 32.3162 22.9261L32.3162 24.4076ZM29.229 24.5002C29.2848 24.5002 29.33 24.4587 29.33 24.4076L29.33 22.9261C29.33 22.8749 29.2848 22.8335 29.229 22.8335L27.7721 22.8335C27.7163 22.8335 27.6711 22.8749 27.6711 22.9261L27.6711 24.4076C27.6711 24.4587 27.7163 24.5002 27.7721 24.5002L29.229 24.5002ZM26.3439 24.4076C26.3439 24.4587 26.2987 24.5002 26.2429 24.5002L24.786 24.5002C24.7302 24.5002 24.6849 24.4587 24.6849 24.4076L24.6849 22.9261C24.6849 22.8749 24.7302 22.8335 24.786 22.8335L26.2429 22.8335C26.2987 22.8335 26.3439 22.8749 26.3439 22.9261L26.3439 24.4076ZM23.2567 24.5002C23.3125 24.5002 23.3577 24.4587 23.3577 24.4076L23.3577 22.9261C23.3577 22.8749 23.3125 22.8335 23.2567 22.8335L21.7998 22.8335C21.744 22.8335 21.6988 22.8749 21.6988 22.9261L21.6988 24.4076C21.6988 24.4587 21.744 24.5002 21.7998 24.5002L23.2567 24.5002ZM20.3716 24.4076C20.3716 24.4587 20.3263 24.5002 20.2705 24.5002L18.8137 24.5002C18.7578 24.5002 18.7126 24.4587 18.7126 24.4076L18.7126 22.9261C18.7126 22.8749 18.7578 22.8335 18.8137 22.8335L20.2705 22.8335C20.3263 22.8335 20.3716 22.8749 20.3716 22.9261L20.3716 24.4076ZM17.2843 24.5002C17.3401 24.5002 17.3854 24.4587 17.3854 24.4076L17.3854 22.9261C17.3854 22.8749 17.3401 22.8335 17.2843 22.8335L15.8274 22.8335C15.7716 22.8335 15.7264 22.8749 15.7264 22.9261L15.7264 24.4076C15.7264 24.4587 15.7716 24.5002 15.8274 24.5002L17.2843 24.5002ZM14.3992 24.4076C14.3992 24.4587 14.3539 24.5002 14.2981 24.5002L12.8412 24.5002C12.7854 24.5002 12.7402 24.4587 12.7402 24.4076L12.7402 22.9261C12.7402 22.8749 12.7854 22.8335 12.8412 22.8335L14.2981 22.8335C14.3539 22.8335 14.3992 22.8749 14.3992 22.9261L14.3992 24.4076ZM11.3119 24.5002C11.3678 24.5002 11.413 24.4587 11.413 24.4076L11.413 22.9261C11.413 22.8749 11.3678 22.8335 11.3119 22.8335L9.85508 22.8335C9.79927 22.8335 9.75401 22.8749 9.75401 22.9261L9.75401 24.4076C9.75401 24.4587 9.79927 24.5002 9.85508 24.5002L11.3119 24.5002ZM8.42682 24.4076C8.42682 24.4587 8.38157 24.5002 8.32577 24.5002L6.8689 24.5002C6.81309 24.5002 6.76783 24.4587 6.76783 24.4076L6.76783 22.9261C6.76783 22.8749 6.81309 22.8335 6.8689 22.8335L8.32577 22.8335C8.38157 22.8335 8.42682 22.8749 8.42682 22.9261L8.42682 24.4076ZM5.33965 24.5002C5.39546 24.5002 5.44071 24.4587 5.44071 24.4076L5.44071 22.9261C5.44071 22.8749 5.39546 22.8335 5.33966 22.8335L3.88278 22.8335C3.82698 22.8335 3.78173 22.8749 3.78173 22.9261L3.78173 24.4076C3.78173 24.4587 3.82697 24.5002 3.88278 24.5002L5.33965 24.5002ZM2.45454 24.4076C2.45454 24.4587 2.40929 24.5002 2.35348 24.5002L0.896609 24.5002C0.8408 24.5002 0.79555 24.4587 0.79555 24.4076L0.79555 22.9261C0.79555 22.8749 0.8408 22.8335 0.896609 22.8335L2.35348 22.8335C2.40929 22.8335 2.45454 22.8749 2.45454 22.9261L2.45454 24.4076ZM-0.632696 24.5002C-0.576887 24.5002 -0.531637 24.4587 -0.531637 24.4076L-0.531637 22.9261C-0.531637 22.8749 -0.576887 22.8335 -0.632696 22.8335L-2.08957 22.8335C-2.14538 22.8335 -2.19063 22.8749 -2.19063 22.9261L-2.19063 24.4076C-2.19063 24.4587 -2.14538 24.5002 -2.08957 24.5002L-0.632696 24.5002ZM-3.51787 24.4076C-3.51787 24.4587 -3.56312 24.5002 -3.61892 24.5002L-5.07579 24.5002C-5.1316 24.5002 -5.17685 24.4587 -5.17685 24.4076L-5.17685 22.9261C-5.17685 22.8749 -5.1316 22.8335 -5.07579 22.8335L-3.61892 22.8335C-3.56312 22.8335 -3.51787 22.8749 -3.51787 22.9261L-3.51787 24.4076Z"/>
</mask>
<path fill-rule="evenodd" clip-rule="evenodd" d="M-7.3335 24.9167C-7.3335 25.1468 -7.14701 25.3332 -6.91696 25.3332L34.3333 25.3331C35.2537 25.3331 35.9999 24.5869 35.9999 23.6665C35.9999 22.7461 35.2537 21.9999 34.3333 21.9999L-6.91681 22.0001C-7.14694 22.0001 -7.3335 22.1866 -7.3335 22.4168C-7.3335 22.6469 -7.14694 22.8335 -6.9168 22.8335L-6.6051 22.8335C-6.54929 22.8335 -6.50404 22.8749 -6.50404 22.9261L-6.50404 24.4076C-6.50404 24.4587 -6.54929 24.5002 -6.6051 24.5002L-6.91696 24.5002C-7.14701 24.5002 -7.3335 24.6867 -7.3335 24.9167ZM35.2013 24.5002C35.2572 24.5002 35.3024 24.4587 35.3024 24.4076L35.3024 22.9261C35.3024 22.8749 35.2572 22.8335 35.2013 22.8335L33.7445 22.8335C33.6887 22.8335 33.6434 22.8749 33.6434 22.9261L33.6434 24.4076C33.6434 24.4587 33.6887 24.5002 33.7445 24.5002L35.2013 24.5002ZM32.3162 24.4076C32.3162 24.4587 32.271 24.5002 32.2152 24.5002L30.7583 24.5002C30.7025 24.5002 30.6572 24.4587 30.6572 24.4076L30.6572 22.9261C30.6572 22.8749 30.7025 22.8335 30.7583 22.8335L32.2152 22.8335C32.271 22.8335 32.3162 22.8749 32.3162 22.9261L32.3162 24.4076ZM29.229 24.5002C29.2848 24.5002 29.33 24.4587 29.33 24.4076L29.33 22.9261C29.33 22.8749 29.2848 22.8335 29.229 22.8335L27.7721 22.8335C27.7163 22.8335 27.6711 22.8749 27.6711 22.9261L27.6711 24.4076C27.6711 24.4587 27.7163 24.5002 27.7721 24.5002L29.229 24.5002ZM26.3439 24.4076C26.3439 24.4587 26.2987 24.5002 26.2429 24.5002L24.786 24.5002C24.7302 24.5002 24.6849 24.4587 24.6849 24.4076L24.6849 22.9261C24.6849 22.8749 24.7302 22.8335 24.786 22.8335L26.2429 22.8335C26.2987 22.8335 26.3439 22.8749 26.3439 22.9261L26.3439 24.4076ZM23.2567 24.5002C23.3125 24.5002 23.3577 24.4587 23.3577 24.4076L23.3577 22.9261C23.3577 22.8749 23.3125 22.8335 23.2567 22.8335L21.7998 22.8335C21.744 22.8335 21.6988 22.8749 21.6988 22.9261L21.6988 24.4076C21.6988 24.4587 21.744 24.5002 21.7998 24.5002L23.2567 24.5002ZM20.3716 24.4076C20.3716 24.4587 20.3263 24.5002 20.2705 24.5002L18.8137 24.5002C18.7578 24.5002 18.7126 24.4587 18.7126 24.4076L18.7126 22.9261C18.7126 22.8749 18.7578 22.8335 18.8137 22.8335L20.2705 22.8335C20.3263 22.8335 20.3716 22.8749 20.3716 22.9261L20.3716 24.4076ZM17.2843 24.5002C17.3401 24.5002 17.3854 24.4587 17.3854 24.4076L17.3854 22.9261C17.3854 22.8749 17.3401 22.8335 17.2843 22.8335L15.8274 22.8335C15.7716 22.8335 15.7264 22.8749 15.7264 22.9261L15.7264 24.4076C15.7264 24.4587 15.7716 24.5002 15.8274 24.5002L17.2843 24.5002ZM14.3992 24.4076C14.3992 24.4587 14.3539 24.5002 14.2981 24.5002L12.8412 24.5002C12.7854 24.5002 12.7402 24.4587 12.7402 24.4076L12.7402 22.9261C12.7402 22.8749 12.7854 22.8335 12.8412 22.8335L14.2981 22.8335C14.3539 22.8335 14.3992 22.8749 14.3992 22.9261L14.3992 24.4076ZM11.3119 24.5002C11.3678 24.5002 11.413 24.4587 11.413 24.4076L11.413 22.9261C11.413 22.8749 11.3678 22.8335 11.3119 22.8335L9.85508 22.8335C9.79927 22.8335 9.75401 22.8749 9.75401 22.9261L9.75401 24.4076C9.75401 24.4587 9.79927 24.5002 9.85508 24.5002L11.3119 24.5002ZM8.42682 24.4076C8.42682 24.4587 8.38157 24.5002 8.32577 24.5002L6.8689 24.5002C6.81309 24.5002 6.76783 24.4587 6.76783 24.4076L6.76783 22.9261C6.76783 22.8749 6.81309 22.8335 6.8689 22.8335L8.32577 22.8335C8.38157 22.8335 8.42682 22.8749 8.42682 22.9261L8.42682 24.4076ZM5.33965 24.5002C5.39546 24.5002 5.44071 24.4587 5.44071 24.4076L5.44071 22.9261C5.44071 22.8749 5.39546 22.8335 5.33966 22.8335L3.88278 22.8335C3.82698 22.8335 3.78173 22.8749 3.78173 22.9261L3.78173 24.4076C3.78173 24.4587 3.82697 24.5002 3.88278 24.5002L5.33965 24.5002ZM2.45454 24.4076C2.45454 24.4587 2.40929 24.5002 2.35348 24.5002L0.896609 24.5002C0.8408 24.5002 0.79555 24.4587 0.79555 24.4076L0.79555 22.9261C0.79555 22.8749 0.8408 22.8335 0.896609 22.8335L2.35348 22.8335C2.40929 22.8335 2.45454 22.8749 2.45454 22.9261L2.45454 24.4076ZM-0.632696 24.5002C-0.576887 24.5002 -0.531637 24.4587 -0.531637 24.4076L-0.531637 22.9261C-0.531637 22.8749 -0.576887 22.8335 -0.632696 22.8335L-2.08957 22.8335C-2.14538 22.8335 -2.19063 22.8749 -2.19063 22.9261L-2.19063 24.4076C-2.19063 24.4587 -2.14538 24.5002 -2.08957 24.5002L-0.632696 24.5002ZM-3.51787 24.4076C-3.51787 24.4587 -3.56312 24.5002 -3.61892 24.5002L-5.07579 24.5002C-5.1316 24.5002 -5.17685 24.4587 -5.17685 24.4076L-5.17685 22.9261C-5.17685 22.8749 -5.1316 22.8335 -5.07579 22.8335L-3.61892 22.8335C-3.56312 22.8335 -3.51787 22.8749 -3.51787 22.9261L-3.51787 24.4076Z" fill="#26BBFF" stroke="#26BBFF" stroke-width="0.853333" mask="url(#path-5-inside-2_9493_187703)"/>
</g>
</g>
</g>
</g>
<rect id="Rectangle 34624673" x="14.6667" y="9.33325" width="13.3333" height="16" rx="2.13333" stroke="#FFFDFA" stroke-width="1.06667"/>
</g>
<rect id="Rectangle 34624667" x="4" y="8" width="16" height="18.6667" rx="1.33333" fill="#FFE6B5" stroke="#FFFDFA" stroke-width="1.06667"/>
<g id="Mask group_2">
<mask id="mask1_9493_187703" style="mask-type:alpha" maskUnits="userSpaceOnUse" x="3" y="7" width="18" height="21">
<rect id="Rectangle 34624668" x="4" y="8" width="16" height="18.6667" rx="1.33333" fill="white" stroke="#FFFDFA" stroke-width="1.06667"/>
</mask>
<g mask="url(#mask1_9493_187703)">
<rect id="Rectangle 34624671_2" x="4" y="10.6667" width="5.33333" height="16" rx="1.06667" fill="#191816"/>
<g id="Mask group_3">
<mask id="mask2_9493_187703" style="mask-type:alpha" maskUnits="userSpaceOnUse" x="2" y="7" width="8" height="21">
<rect id="Rectangle 34624670" x="2.66672" y="7.99878" width="6.16867" height="19.3103" rx="1.06667" fill="#D9D9D9" stroke="#FFFDFA" stroke-width="1.06667"/>
</mask>
<g mask="url(#mask2_9493_187703)">
<g id="Group 24">
<rect id="Rectangle 55" width="9.01155" height="1.58924" rx="0.794622" transform="matrix(-0.761743 0.64788 0.85793 0.513766 9.53134 7.99878)" fill="#ED9E00"/>
<rect id="Rectangle 56" width="9.01155" height="1.58924" rx="0.794622" transform="matrix(-0.761743 0.64788 0.85793 0.513766 9.53134 11.5732)" fill="#ED9E00"/>
<rect id="Rectangle 57" width="9.01155" height="1.58924" rx="0.794622" transform="matrix(-0.761743 0.64788 0.85793 0.513766 9.53177 15.1475)" fill="#ED9E00"/>
<rect id="Rectangle 58" width="9.01155" height="1.58924" rx="0.794622" transform="matrix(-0.761743 0.64788 0.85793 0.513766 9.53177 18.7217)" fill="#ED9E00"/>
<rect id="Rectangle 59" width="9.01155" height="1.58924" rx="0.794622" transform="matrix(-0.761743 0.64788 0.85793 0.513766 9.53177 22.2961)" fill="#ED9E00"/>
</g>
</g>
</g>
<rect id="Rectangle 34624670_2" x="2.66666" y="9.33325" width="6.16867" height="19.3103" rx="1.06667" stroke="#FFFDFA" stroke-width="1.06667"/>
<rect id="Rectangle 34624669" width="18.6667" height="6.66667" rx="1.06667" transform="matrix(1 0 0 -1 2.66666 29.3333)" fill="#FFC249" stroke="#FFFDFA" stroke-width="1.06667"/>
<rect id="Rectangle 34624663" x="2.66666" y="6.66675" width="18.6667" height="5.33333" rx="1.33333" fill="#FFC249" stroke="#FFFDFA" stroke-width="1.06667"/>
</g>
</g>
<rect id="Rectangle 34624666" x="4" y="8" width="16" height="18.6667" rx="1.33333" stroke="#FFFDFA" stroke-width="1.06667"/>
</g>
<g id="Group 1171275825">
<circle id="Ellipse 188" cx="18" cy="18.6667" r="0.666667" fill="#FFCCFF"/>
<circle id="Ellipse 190" cx="18" cy="20.6667" r="0.666667" fill="#CCE5FF"/>
<rect id="Rectangle 34624673_2" x="17.3333" y="13.3333" width="1.33333" height="4" rx="0.666667" fill="#26BBFF"/>
</g>
</g>
</g>
</svg>
