<svg width="32" height="32" viewBox="0 0 32 32" fill="none" xmlns="http://www.w3.org/2000/svg">
<g id="&#231;&#167;&#175;&#229;&#136;&#134;1">
<g id="Group 1171275791">
<rect id="Rectangle 34624665" x="8" y="5.33331" width="8" height="5.33333" rx="1.33333" fill="#ED9E00" stroke="#191816" stroke-width="1.06667"/>
<g id="Group 1171275788">
<g id="Group 1171275824">
<rect id="Rectangle 34624672" x="14.668" y="9.33328" width="13.3333" height="16" rx="2.13333" fill="#CCE5FF" stroke="#191816" stroke-width="1.06667"/>
<g id="Mask group">
<mask id="mask0_10428_211570" style="mask-type:alpha" maskUnits="userSpaceOnUse" x="14" y="9" width="15" height="17">
<rect id="Rectangle 34624671" x="15.2023" y="9.86659" width="12.2667" height="14.9333" rx="1.6" fill="#D9D9D9" stroke="#FFFDFA" stroke-width="1.06667"/>
</mask>
<g mask="url(#mask0_10428_211570)">
<g id="Group 1171275793">
<g id="Subtract">
<mask id="path-4-inside-1_10428_211570" fill="white">
<path fill-rule="evenodd" clip-rule="evenodd" d="M-7.63478 12.25C-7.63478 12.48 -7.44828 12.6665 -7.21823 12.6665L33.0033 12.6664C33.9238 12.6664 34.6699 11.9202 34.6699 10.9998C34.6699 10.0794 33.9238 9.3332 33.0033 9.33321L-7.21808 9.33336C-7.44821 9.33337 -7.63478 9.51993 -7.63478 9.75007C-7.63478 9.9802 -7.44821 10.1668 -7.21808 10.1668L-6.9674 10.1668C-6.91627 10.1668 -6.87481 10.2082 -6.87481 10.2594L-6.87481 11.7408C-6.87481 11.792 -6.91627 11.8334 -6.9674 11.8334L-7.21823 11.8334C-7.44829 11.8334 -7.63478 12.0199 -7.63478 12.25ZM34.165 11.7408C34.165 11.792 34.1235 11.8334 34.0724 11.8334L32.7376 11.8334C32.6865 11.8334 32.645 11.792 32.645 11.7408L32.645 10.2594C32.645 10.2082 32.6865 10.1668 32.7376 10.1668L34.0724 10.1668C34.1235 10.1668 34.165 10.2082 34.165 10.2594L34.165 11.7408ZM31.3364 11.8334C31.3876 11.8334 31.429 11.792 31.429 11.7408L31.429 10.2594C31.429 10.2082 31.3876 10.1668 31.3364 10.1668L30.0016 10.1668C29.9505 10.1668 29.909 10.2082 29.909 10.2594L29.909 11.7408C29.909 11.792 29.9505 11.8334 30.0016 11.8334L31.3364 11.8334ZM28.693 11.7408C28.693 11.792 28.6516 11.8334 28.6004 11.8334L27.2656 11.8334C27.2145 11.8334 27.173 11.792 27.173 11.7408L27.173 10.2594C27.173 10.2082 27.2145 10.1668 27.2656 10.1668L28.6004 10.1668C28.6516 10.1668 28.693 10.2082 28.693 10.2594L28.693 11.7408ZM25.8644 11.8334C25.9156 11.8334 25.957 11.792 25.957 11.7408L25.957 10.2594C25.957 10.2082 25.9156 10.1668 25.8644 10.1668L24.5296 10.1668C24.4785 10.1668 24.437 10.2082 24.437 10.2594L24.437 11.7408C24.437 11.792 24.4785 11.8334 24.5296 11.8334L25.8644 11.8334ZM23.2211 11.7408C23.2211 11.792 23.1796 11.8334 23.1285 11.8334L21.7937 11.8334C21.7426 11.8334 21.7011 11.792 21.7011 11.7408L21.7011 10.2594C21.7011 10.2082 21.7426 10.1668 21.7937 10.1668L23.1285 10.1668C23.1796 10.1668 23.2211 10.2082 23.2211 10.2594L23.2211 11.7408ZM20.3925 11.8334C20.4437 11.8334 20.4851 11.792 20.4851 11.7408L20.4851 10.2594C20.4851 10.2082 20.4437 10.1668 20.3925 10.1668L19.0577 10.1668C19.0066 10.1668 18.9651 10.2082 18.9651 10.2594L18.9651 11.7408C18.9651 11.792 19.0066 11.8334 19.0577 11.8334L20.3925 11.8334ZM17.7491 11.7408C17.7491 11.792 17.7077 11.8334 17.6565 11.8334L16.3217 11.8334C16.2706 11.8334 16.2291 11.792 16.2291 11.7408L16.2291 10.2594C16.2291 10.2082 16.2706 10.1668 16.3217 10.1668L17.6565 10.1668C17.7077 10.1668 17.7491 10.2082 17.7491 10.2594L17.7491 11.7408ZM14.9205 11.8334C14.9716 11.8334 15.0131 11.792 15.0131 11.7408L15.0131 10.2594C15.0131 10.2082 14.9716 10.1668 14.9205 10.1668L13.5857 10.1668C13.5345 10.1668 13.4931 10.2082 13.4931 10.2594L13.4931 11.7408C13.4931 11.792 13.5345 11.8334 13.5857 11.8334L14.9205 11.8334ZM12.2771 11.7408C12.2771 11.792 12.2356 11.8334 12.1845 11.8334L10.8497 11.8334C10.7986 11.8334 10.7571 11.792 10.7571 11.7408L10.7571 10.2594C10.7571 10.2082 10.7986 10.1668 10.8497 10.1668L12.1845 10.1668C12.2356 10.1668 12.2771 10.2082 12.2771 10.2594L12.2771 11.7408ZM9.44852 11.8334C9.49966 11.8334 9.54111 11.792 9.54111 11.7408L9.54111 10.2594C9.54111 10.2082 9.49966 10.1668 9.44852 10.1668L8.11371 10.1668C8.06258 10.1668 8.02111 10.2082 8.02111 10.2594L8.02111 11.7408C8.02111 11.792 8.06258 11.8334 8.11371 11.8334L9.44852 11.8334ZM6.80512 11.7408C6.80512 11.792 6.76366 11.8334 6.71253 11.8334L5.37772 11.8334C5.32659 11.8334 5.28512 11.792 5.28512 11.7408L5.28512 10.2594C5.28512 10.2082 5.32659 10.1668 5.37772 10.1668L6.71253 10.1668C6.76366 10.1668 6.80512 10.2082 6.80512 10.2594L6.80512 11.7408ZM3.9766 11.8334C4.02773 11.8334 4.06919 11.792 4.06919 11.7408L4.06919 10.2594C4.06919 10.2082 4.02773 10.1668 3.9766 10.1668L2.64179 10.1668C2.59065 10.1668 2.5492 10.2082 2.5492 10.2594L2.5492 11.7408C2.5492 11.792 2.59065 11.8334 2.64179 11.8334L3.9766 11.8334ZM1.3332 11.7408C1.3332 11.792 1.29174 11.8334 1.24061 11.8334L-0.094201 11.8334C-0.145335 11.8334 -0.186792 11.792 -0.186792 11.7408L-0.186792 10.2594C-0.186792 10.2082 -0.145335 10.1668 -0.0942008 10.1668L1.24061 10.1668C1.29174 10.1668 1.3332 10.2082 1.3332 10.2594L1.3332 11.7408ZM-1.49538 11.8334C-1.44424 11.8334 -1.40279 11.792 -1.40279 11.7408L-1.40279 10.2594C-1.40279 10.2082 -1.44424 10.1668 -1.49538 10.1668L-2.83019 10.1668C-2.88132 10.1668 -2.92278 10.2082 -2.92278 10.2594L-2.92278 11.7408C-2.92278 11.792 -2.88132 11.8334 -2.83019 11.8334L-1.49538 11.8334ZM-4.13882 11.7408C-4.13882 11.792 -4.18028 11.8334 -4.23141 11.8334L-5.56622 11.8334C-5.61735 11.8334 -5.65882 11.792 -5.65882 11.7408L-5.65882 10.2594C-5.65882 10.2082 -5.61735 10.1668 -5.56622 10.1668L-4.23141 10.1668C-4.18028 10.1668 -4.13882 10.2082 -4.13882 10.2594L-4.13882 11.7408Z"/>
</mask>
<path fill-rule="evenodd" clip-rule="evenodd" d="M-7.63478 12.25C-7.63478 12.48 -7.44828 12.6665 -7.21823 12.6665L33.0033 12.6664C33.9238 12.6664 34.6699 11.9202 34.6699 10.9998C34.6699 10.0794 33.9238 9.3332 33.0033 9.33321L-7.21808 9.33336C-7.44821 9.33337 -7.63478 9.51993 -7.63478 9.75007C-7.63478 9.9802 -7.44821 10.1668 -7.21808 10.1668L-6.9674 10.1668C-6.91627 10.1668 -6.87481 10.2082 -6.87481 10.2594L-6.87481 11.7408C-6.87481 11.792 -6.91627 11.8334 -6.9674 11.8334L-7.21823 11.8334C-7.44829 11.8334 -7.63478 12.0199 -7.63478 12.25ZM34.165 11.7408C34.165 11.792 34.1235 11.8334 34.0724 11.8334L32.7376 11.8334C32.6865 11.8334 32.645 11.792 32.645 11.7408L32.645 10.2594C32.645 10.2082 32.6865 10.1668 32.7376 10.1668L34.0724 10.1668C34.1235 10.1668 34.165 10.2082 34.165 10.2594L34.165 11.7408ZM31.3364 11.8334C31.3876 11.8334 31.429 11.792 31.429 11.7408L31.429 10.2594C31.429 10.2082 31.3876 10.1668 31.3364 10.1668L30.0016 10.1668C29.9505 10.1668 29.909 10.2082 29.909 10.2594L29.909 11.7408C29.909 11.792 29.9505 11.8334 30.0016 11.8334L31.3364 11.8334ZM28.693 11.7408C28.693 11.792 28.6516 11.8334 28.6004 11.8334L27.2656 11.8334C27.2145 11.8334 27.173 11.792 27.173 11.7408L27.173 10.2594C27.173 10.2082 27.2145 10.1668 27.2656 10.1668L28.6004 10.1668C28.6516 10.1668 28.693 10.2082 28.693 10.2594L28.693 11.7408ZM25.8644 11.8334C25.9156 11.8334 25.957 11.792 25.957 11.7408L25.957 10.2594C25.957 10.2082 25.9156 10.1668 25.8644 10.1668L24.5296 10.1668C24.4785 10.1668 24.437 10.2082 24.437 10.2594L24.437 11.7408C24.437 11.792 24.4785 11.8334 24.5296 11.8334L25.8644 11.8334ZM23.2211 11.7408C23.2211 11.792 23.1796 11.8334 23.1285 11.8334L21.7937 11.8334C21.7426 11.8334 21.7011 11.792 21.7011 11.7408L21.7011 10.2594C21.7011 10.2082 21.7426 10.1668 21.7937 10.1668L23.1285 10.1668C23.1796 10.1668 23.2211 10.2082 23.2211 10.2594L23.2211 11.7408ZM20.3925 11.8334C20.4437 11.8334 20.4851 11.792 20.4851 11.7408L20.4851 10.2594C20.4851 10.2082 20.4437 10.1668 20.3925 10.1668L19.0577 10.1668C19.0066 10.1668 18.9651 10.2082 18.9651 10.2594L18.9651 11.7408C18.9651 11.792 19.0066 11.8334 19.0577 11.8334L20.3925 11.8334ZM17.7491 11.7408C17.7491 11.792 17.7077 11.8334 17.6565 11.8334L16.3217 11.8334C16.2706 11.8334 16.2291 11.792 16.2291 11.7408L16.2291 10.2594C16.2291 10.2082 16.2706 10.1668 16.3217 10.1668L17.6565 10.1668C17.7077 10.1668 17.7491 10.2082 17.7491 10.2594L17.7491 11.7408ZM14.9205 11.8334C14.9716 11.8334 15.0131 11.792 15.0131 11.7408L15.0131 10.2594C15.0131 10.2082 14.9716 10.1668 14.9205 10.1668L13.5857 10.1668C13.5345 10.1668 13.4931 10.2082 13.4931 10.2594L13.4931 11.7408C13.4931 11.792 13.5345 11.8334 13.5857 11.8334L14.9205 11.8334ZM12.2771 11.7408C12.2771 11.792 12.2356 11.8334 12.1845 11.8334L10.8497 11.8334C10.7986 11.8334 10.7571 11.792 10.7571 11.7408L10.7571 10.2594C10.7571 10.2082 10.7986 10.1668 10.8497 10.1668L12.1845 10.1668C12.2356 10.1668 12.2771 10.2082 12.2771 10.2594L12.2771 11.7408ZM9.44852 11.8334C9.49966 11.8334 9.54111 11.792 9.54111 11.7408L9.54111 10.2594C9.54111 10.2082 9.49966 10.1668 9.44852 10.1668L8.11371 10.1668C8.06258 10.1668 8.02111 10.2082 8.02111 10.2594L8.02111 11.7408C8.02111 11.792 8.06258 11.8334 8.11371 11.8334L9.44852 11.8334ZM6.80512 11.7408C6.80512 11.792 6.76366 11.8334 6.71253 11.8334L5.37772 11.8334C5.32659 11.8334 5.28512 11.792 5.28512 11.7408L5.28512 10.2594C5.28512 10.2082 5.32659 10.1668 5.37772 10.1668L6.71253 10.1668C6.76366 10.1668 6.80512 10.2082 6.80512 10.2594L6.80512 11.7408ZM3.9766 11.8334C4.02773 11.8334 4.06919 11.792 4.06919 11.7408L4.06919 10.2594C4.06919 10.2082 4.02773 10.1668 3.9766 10.1668L2.64179 10.1668C2.59065 10.1668 2.5492 10.2082 2.5492 10.2594L2.5492 11.7408C2.5492 11.792 2.59065 11.8334 2.64179 11.8334L3.9766 11.8334ZM1.3332 11.7408C1.3332 11.792 1.29174 11.8334 1.24061 11.8334L-0.094201 11.8334C-0.145335 11.8334 -0.186792 11.792 -0.186792 11.7408L-0.186792 10.2594C-0.186792 10.2082 -0.145335 10.1668 -0.0942008 10.1668L1.24061 10.1668C1.29174 10.1668 1.3332 10.2082 1.3332 10.2594L1.3332 11.7408ZM-1.49538 11.8334C-1.44424 11.8334 -1.40279 11.792 -1.40279 11.7408L-1.40279 10.2594C-1.40279 10.2082 -1.44424 10.1668 -1.49538 10.1668L-2.83019 10.1668C-2.88132 10.1668 -2.92278 10.2082 -2.92278 10.2594L-2.92278 11.7408C-2.92278 11.792 -2.88132 11.8334 -2.83019 11.8334L-1.49538 11.8334ZM-4.13882 11.7408C-4.13882 11.792 -4.18028 11.8334 -4.23141 11.8334L-5.56622 11.8334C-5.61735 11.8334 -5.65882 11.792 -5.65882 11.7408L-5.65882 10.2594C-5.65882 10.2082 -5.61735 10.1668 -5.56622 10.1668L-4.23141 10.1668C-4.18028 10.1668 -4.13882 10.2082 -4.13882 10.2594L-4.13882 11.7408Z" fill="#26BBFF" stroke="#26BBFF" stroke-width="0.853333" mask="url(#path-4-inside-1_10428_211570)"/>
</g>
<g id="Subtract_2">
<mask id="path-5-inside-2_10428_211570" fill="white">
<path fill-rule="evenodd" clip-rule="evenodd" d="M-7.33045 24.9167C-7.33045 25.1467 -7.14396 25.3332 -6.91391 25.3332L34.3364 25.3331C35.2568 25.3331 36.0029 24.5869 36.0029 23.6665C36.0029 22.746 35.2568 21.9999 34.3363 21.9999L-6.91375 22.0001C-7.14389 22.0001 -7.33045 22.1866 -7.33045 22.4168C-7.33045 22.6469 -7.14389 22.8335 -6.91375 22.8335L-6.60205 22.8335C-6.54624 22.8335 -6.50098 22.8749 -6.50098 22.926L-6.50098 24.4075C-6.50098 24.4587 -6.54624 24.5001 -6.60205 24.5001L-6.91391 24.5001C-7.14396 24.5001 -7.33045 24.6866 -7.33045 24.9167ZM35.2044 24.5001C35.2602 24.5001 35.3054 24.4587 35.3054 24.4075L35.3054 22.926C35.3054 22.8749 35.2602 22.8335 35.2044 22.8335L33.7475 22.8335C33.6917 22.8335 33.6465 22.8749 33.6465 22.926L33.6465 24.4075C33.6465 24.4587 33.6917 24.5001 33.7475 24.5001L35.2044 24.5001ZM32.3193 24.4075C32.3193 24.4587 32.274 24.5001 32.2182 24.5001L30.7613 24.5001C30.7055 24.5001 30.6603 24.4587 30.6603 24.4075L30.6603 22.926C30.6603 22.8749 30.7055 22.8335 30.7613 22.8335L32.2182 22.8335C32.274 22.8335 32.3193 22.8749 32.3193 22.926L32.3193 24.4075ZM29.232 24.5001C29.2879 24.5001 29.3331 24.4587 29.3331 24.4075L29.3331 22.926C29.3331 22.8749 29.2879 22.8335 29.232 22.8335L27.7752 22.8335C27.7194 22.8335 27.6741 22.8749 27.6741 22.926L27.6741 24.4075C27.6741 24.4587 27.7194 24.5001 27.7752 24.5001L29.232 24.5001ZM26.347 24.4075C26.347 24.4587 26.3017 24.5001 26.2459 24.5001L24.789 24.5001C24.7332 24.5001 24.688 24.4587 24.688 24.4075L24.688 22.926C24.688 22.8749 24.7332 22.8335 24.789 22.8335L26.2459 22.8335C26.3017 22.8335 26.347 22.8749 26.347 22.926L26.347 24.4075ZM23.2597 24.5001C23.3156 24.5001 23.3608 24.4587 23.3608 24.4075L23.3608 22.926C23.3608 22.8749 23.3156 22.8335 23.2597 22.8335L21.8029 22.8335C21.7471 22.8335 21.7018 22.8749 21.7018 22.926L21.7018 24.4075C21.7018 24.4587 21.7471 24.5001 21.8029 24.5001L23.2597 24.5001ZM20.3746 24.4075C20.3746 24.4587 20.3294 24.5001 20.2736 24.5001L18.8167 24.5001C18.7609 24.5001 18.7156 24.4587 18.7156 24.4075L18.7156 22.926C18.7156 22.8749 18.7609 22.8335 18.8167 22.8335L20.2736 22.8335C20.3294 22.8335 20.3746 22.8749 20.3746 22.926L20.3746 24.4075ZM17.2873 24.5001C17.3432 24.5001 17.3884 24.4587 17.3884 24.4075L17.3884 22.926C17.3884 22.8749 17.3432 22.8335 17.2873 22.8335L15.8305 22.8335C15.7747 22.8335 15.7294 22.8749 15.7294 22.926L15.7294 24.4075C15.7294 24.4587 15.7747 24.5001 15.8305 24.5001L17.2873 24.5001ZM14.4022 24.4075C14.4022 24.4587 14.357 24.5001 14.3012 24.5001L12.8443 24.5001C12.7885 24.5001 12.7432 24.4587 12.7432 24.4075L12.7432 22.926C12.7432 22.8749 12.7885 22.8335 12.8443 22.8335L14.3012 22.8335C14.357 22.8335 14.4022 22.8749 14.4022 22.926L14.4022 24.4075ZM11.315 24.5001C11.3708 24.5001 11.4161 24.4587 11.4161 24.4075L11.4161 22.926C11.4161 22.8749 11.3708 22.8335 11.315 22.8335L9.85813 22.8335C9.80232 22.8335 9.75706 22.8749 9.75706 22.926L9.75706 24.4075C9.75706 24.4587 9.80232 24.5001 9.85813 24.5001L11.315 24.5001ZM8.42987 24.4075C8.42987 24.4587 8.38463 24.5001 8.32882 24.5001L6.87195 24.5001C6.81614 24.5001 6.77089 24.4587 6.77089 24.4075L6.77089 22.926C6.77089 22.8749 6.81614 22.8335 6.87195 22.8335L8.32882 22.8335C8.38463 22.8335 8.42987 22.8749 8.42987 22.926L8.42987 24.4075ZM5.34271 24.5001C5.39852 24.5001 5.44376 24.4587 5.44376 24.4075L5.44376 22.926C5.44376 22.8749 5.39852 22.8335 5.34271 22.8335L3.88584 22.8335C3.83003 22.8335 3.78478 22.8749 3.78478 22.926L3.78478 24.4075C3.78478 24.4587 3.83003 24.5001 3.88584 24.5001L5.34271 24.5001ZM2.45759 24.4075C2.45759 24.4587 2.41234 24.5001 2.35653 24.5001L0.89966 24.5001C0.843851 24.5001 0.798603 24.4587 0.798603 24.4075L0.798603 22.926C0.798603 22.8749 0.843851 22.8335 0.899661 22.8335L2.35653 22.8335C2.41234 22.8335 2.45759 22.8749 2.45759 22.926L2.45759 24.4075ZM-0.629644 24.5001C-0.573834 24.5001 -0.528586 24.4587 -0.528586 24.4075L-0.528586 22.926C-0.528586 22.8749 -0.573834 22.8335 -0.629644 22.8335L-2.08652 22.8335C-2.14233 22.8335 -2.18757 22.8749 -2.18757 22.926L-2.18757 24.4075C-2.18757 24.4587 -2.14233 24.5001 -2.08652 24.5001L-0.629644 24.5001ZM-3.51482 24.4075C-3.51482 24.4587 -3.56006 24.5001 -3.61587 24.5001L-5.07274 24.5001C-5.12855 24.5001 -5.1738 24.4587 -5.1738 24.4075L-5.1738 22.926C-5.1738 22.8749 -5.12855 22.8335 -5.07274 22.8335L-3.61587 22.8335C-3.56006 22.8335 -3.51482 22.8749 -3.51482 22.926L-3.51482 24.4075Z"/>
</mask>
<path fill-rule="evenodd" clip-rule="evenodd" d="M-7.33045 24.9167C-7.33045 25.1467 -7.14396 25.3332 -6.91391 25.3332L34.3364 25.3331C35.2568 25.3331 36.0029 24.5869 36.0029 23.6665C36.0029 22.746 35.2568 21.9999 34.3363 21.9999L-6.91375 22.0001C-7.14389 22.0001 -7.33045 22.1866 -7.33045 22.4168C-7.33045 22.6469 -7.14389 22.8335 -6.91375 22.8335L-6.60205 22.8335C-6.54624 22.8335 -6.50098 22.8749 -6.50098 22.926L-6.50098 24.4075C-6.50098 24.4587 -6.54624 24.5001 -6.60205 24.5001L-6.91391 24.5001C-7.14396 24.5001 -7.33045 24.6866 -7.33045 24.9167ZM35.2044 24.5001C35.2602 24.5001 35.3054 24.4587 35.3054 24.4075L35.3054 22.926C35.3054 22.8749 35.2602 22.8335 35.2044 22.8335L33.7475 22.8335C33.6917 22.8335 33.6465 22.8749 33.6465 22.926L33.6465 24.4075C33.6465 24.4587 33.6917 24.5001 33.7475 24.5001L35.2044 24.5001ZM32.3193 24.4075C32.3193 24.4587 32.274 24.5001 32.2182 24.5001L30.7613 24.5001C30.7055 24.5001 30.6603 24.4587 30.6603 24.4075L30.6603 22.926C30.6603 22.8749 30.7055 22.8335 30.7613 22.8335L32.2182 22.8335C32.274 22.8335 32.3193 22.8749 32.3193 22.926L32.3193 24.4075ZM29.232 24.5001C29.2879 24.5001 29.3331 24.4587 29.3331 24.4075L29.3331 22.926C29.3331 22.8749 29.2879 22.8335 29.232 22.8335L27.7752 22.8335C27.7194 22.8335 27.6741 22.8749 27.6741 22.926L27.6741 24.4075C27.6741 24.4587 27.7194 24.5001 27.7752 24.5001L29.232 24.5001ZM26.347 24.4075C26.347 24.4587 26.3017 24.5001 26.2459 24.5001L24.789 24.5001C24.7332 24.5001 24.688 24.4587 24.688 24.4075L24.688 22.926C24.688 22.8749 24.7332 22.8335 24.789 22.8335L26.2459 22.8335C26.3017 22.8335 26.347 22.8749 26.347 22.926L26.347 24.4075ZM23.2597 24.5001C23.3156 24.5001 23.3608 24.4587 23.3608 24.4075L23.3608 22.926C23.3608 22.8749 23.3156 22.8335 23.2597 22.8335L21.8029 22.8335C21.7471 22.8335 21.7018 22.8749 21.7018 22.926L21.7018 24.4075C21.7018 24.4587 21.7471 24.5001 21.8029 24.5001L23.2597 24.5001ZM20.3746 24.4075C20.3746 24.4587 20.3294 24.5001 20.2736 24.5001L18.8167 24.5001C18.7609 24.5001 18.7156 24.4587 18.7156 24.4075L18.7156 22.926C18.7156 22.8749 18.7609 22.8335 18.8167 22.8335L20.2736 22.8335C20.3294 22.8335 20.3746 22.8749 20.3746 22.926L20.3746 24.4075ZM17.2873 24.5001C17.3432 24.5001 17.3884 24.4587 17.3884 24.4075L17.3884 22.926C17.3884 22.8749 17.3432 22.8335 17.2873 22.8335L15.8305 22.8335C15.7747 22.8335 15.7294 22.8749 15.7294 22.926L15.7294 24.4075C15.7294 24.4587 15.7747 24.5001 15.8305 24.5001L17.2873 24.5001ZM14.4022 24.4075C14.4022 24.4587 14.357 24.5001 14.3012 24.5001L12.8443 24.5001C12.7885 24.5001 12.7432 24.4587 12.7432 24.4075L12.7432 22.926C12.7432 22.8749 12.7885 22.8335 12.8443 22.8335L14.3012 22.8335C14.357 22.8335 14.4022 22.8749 14.4022 22.926L14.4022 24.4075ZM11.315 24.5001C11.3708 24.5001 11.4161 24.4587 11.4161 24.4075L11.4161 22.926C11.4161 22.8749 11.3708 22.8335 11.315 22.8335L9.85813 22.8335C9.80232 22.8335 9.75706 22.8749 9.75706 22.926L9.75706 24.4075C9.75706 24.4587 9.80232 24.5001 9.85813 24.5001L11.315 24.5001ZM8.42987 24.4075C8.42987 24.4587 8.38463 24.5001 8.32882 24.5001L6.87195 24.5001C6.81614 24.5001 6.77089 24.4587 6.77089 24.4075L6.77089 22.926C6.77089 22.8749 6.81614 22.8335 6.87195 22.8335L8.32882 22.8335C8.38463 22.8335 8.42987 22.8749 8.42987 22.926L8.42987 24.4075ZM5.34271 24.5001C5.39852 24.5001 5.44376 24.4587 5.44376 24.4075L5.44376 22.926C5.44376 22.8749 5.39852 22.8335 5.34271 22.8335L3.88584 22.8335C3.83003 22.8335 3.78478 22.8749 3.78478 22.926L3.78478 24.4075C3.78478 24.4587 3.83003 24.5001 3.88584 24.5001L5.34271 24.5001ZM2.45759 24.4075C2.45759 24.4587 2.41234 24.5001 2.35653 24.5001L0.89966 24.5001C0.843851 24.5001 0.798603 24.4587 0.798603 24.4075L0.798603 22.926C0.798603 22.8749 0.843851 22.8335 0.899661 22.8335L2.35653 22.8335C2.41234 22.8335 2.45759 22.8749 2.45759 22.926L2.45759 24.4075ZM-0.629644 24.5001C-0.573834 24.5001 -0.528586 24.4587 -0.528586 24.4075L-0.528586 22.926C-0.528586 22.8749 -0.573834 22.8335 -0.629644 22.8335L-2.08652 22.8335C-2.14233 22.8335 -2.18757 22.8749 -2.18757 22.926L-2.18757 24.4075C-2.18757 24.4587 -2.14233 24.5001 -2.08652 24.5001L-0.629644 24.5001ZM-3.51482 24.4075C-3.51482 24.4587 -3.56006 24.5001 -3.61587 24.5001L-5.07274 24.5001C-5.12855 24.5001 -5.1738 24.4587 -5.1738 24.4075L-5.1738 22.926C-5.1738 22.8749 -5.12855 22.8335 -5.07274 22.8335L-3.61587 22.8335C-3.56006 22.8335 -3.51482 22.8749 -3.51482 22.926L-3.51482 24.4075Z" fill="#26BBFF" stroke="#26BBFF" stroke-width="0.853333" mask="url(#path-5-inside-2_10428_211570)"/>
</g>
</g>
</g>
</g>
<rect id="Rectangle 34624673" x="14.668" y="9.33328" width="13.3333" height="16" rx="2.13333" stroke="#191816" stroke-width="1.06667"/>
</g>
<rect id="Rectangle 34624667" x="4" y="7.99997" width="16" height="18.6667" rx="1.33333" fill="#FFE6B5" stroke="#191816" stroke-width="1.06667"/>
<g id="Mask group_2">
<mask id="mask1_10428_211570" style="mask-type:alpha" maskUnits="userSpaceOnUse" x="3" y="7" width="18" height="21">
<rect id="Rectangle 34624668" x="4" y="7.99997" width="16" height="18.6667" rx="1.33333" fill="white" stroke="#FFFDFA" stroke-width="1.06667"/>
</mask>
<g mask="url(#mask1_10428_211570)">
<rect id="Rectangle 34624671_2" x="4" y="10.6666" width="5.33333" height="16" rx="1.06667" fill="#FFFDFA"/>
<g id="Mask group_3">
<mask id="mask2_10428_211570" style="mask-type:alpha" maskUnits="userSpaceOnUse" x="2" y="7" width="8" height="21">
<rect id="Rectangle 34624670" x="2.66797" y="7.99881" width="6.16867" height="19.3103" rx="1.06667" fill="#D9D9D9" stroke="#FFFDFA" stroke-width="1.06667"/>
</mask>
<g mask="url(#mask2_10428_211570)">
<g id="Group 24">
<rect id="Rectangle 55" width="9.01155" height="1.58924" rx="0.794622" transform="matrix(-0.761743 0.64788 0.85793 0.513766 9.53223 7.99878)" fill="#ED9E00"/>
<rect id="Rectangle 56" width="9.01155" height="1.58924" rx="0.794622" transform="matrix(-0.761743 0.64788 0.85793 0.513766 9.53223 11.5732)" fill="#ED9E00"/>
<rect id="Rectangle 57" width="9.01155" height="1.58924" rx="0.794622" transform="matrix(-0.761743 0.64788 0.85793 0.513766 9.53223 15.1475)" fill="#ED9E00"/>
<rect id="Rectangle 58" width="9.01155" height="1.58924" rx="0.794622" transform="matrix(-0.761743 0.64788 0.85793 0.513766 9.53223 18.7219)" fill="#ED9E00"/>
<rect id="Rectangle 59" width="9.01155" height="1.58924" rx="0.794622" transform="matrix(-0.761743 0.64788 0.85793 0.513766 9.53223 22.2963)" fill="#ED9E00"/>
</g>
</g>
</g>
<rect id="Rectangle 34624670_2" x="2.66699" y="9.33331" width="6.16867" height="19.3103" rx="1.06667" stroke="#191816" stroke-width="1.06667"/>
<rect id="Rectangle 34624669" width="18.6667" height="6.66667" rx="1.06667" transform="matrix(1 0 0 -1 2.66699 29.3333)" fill="#FFC249" stroke="#191816" stroke-width="1.06667"/>
<rect id="Rectangle 34624663" x="2.66699" y="6.66663" width="18.6667" height="5.33333" rx="1.33333" fill="#FFC249" stroke="#191816" stroke-width="1.06667"/>
</g>
</g>
<rect id="Rectangle 34624666" x="4" y="7.99997" width="16" height="18.6667" rx="1.33333" stroke="#191816" stroke-width="1.06667"/>
</g>
<g id="Group 1171275825">
<circle id="Ellipse 188" cx="17.9987" cy="18.6666" r="0.666667" fill="#FFCCFF"/>
<circle id="Ellipse 190" cx="17.9987" cy="20.6666" r="0.666667" fill="#CCE5FF"/>
<rect id="Rectangle 34624673_2" x="17.332" y="13.3333" width="1.33333" height="4" rx="0.666667" fill="#26BBFF"/>
</g>
</g>
</g>
</svg>
