<svg width="36" height="36" viewBox="0 0 36 36" fill="none" xmlns="http://www.w3.org/2000/svg">
<g id="&#230;&#148;&#175;&#228;&#187;&#152;&#229;&#185;&#179;&#229;&#143;&#176;-&#230;&#148;&#175;&#228;&#187;&#152;&#229;&#174;&#157;" clip-path="url(#clip0_9292_173660)">
<g id="Group 1171276459">
<path id="Vector" d="M0 18C0 27.9643 8.03571 36 18 36C27.9643 36 36 27.9643 36 18C36 8.03571 27.9643 0 18 0C8.03571 0 0 8.03571 0 18Z" fill="#5A9EF7"/>
<g id="Group 1171276150">
<mask id="mask0_9292_173660" style="mask-type:alpha" maskUnits="userSpaceOnUse" x="0" y="0" width="36" height="36">
<path id="Vector_2" d="M0 18C0 27.9643 8.03571 36 18 36C27.9643 36 36 27.9643 36 18C36 8.03571 27.9643 0 18 0C8.03571 0 0 8.03571 0 18Z" fill="#5A9EF7"/>
</mask>
<g mask="url(#mask0_9292_173660)">
<path id="Vector_3" d="M23.8202 19.9946C23.8202 19.9946 24.606 18.8531 25.3918 16.5702C26.2562 14.2873 26.3348 12.9827 26.3348 12.9827L20.0485 12.9012V10.6998L27.6706 10.6183V8.9876H19.9699V5.40015H16.1981V8.9876H8.96892V10.6183L16.1196 10.5367V12.9827H10.4619V14.2873H22.2487C22.1701 15.1026 21.9344 15.8364 21.6986 16.5702C21.2272 17.7932 20.7557 18.9346 20.7557 18.9346C20.7557 18.9346 15.2552 16.8963 12.2692 16.8963C9.36182 16.8963 5.82579 18.1193 5.4329 21.6252C5.11858 25.1312 7.08304 27.088 9.91187 27.7402C12.6621 28.3925 15.2552 27.7402 17.534 26.5988C19.8127 25.4573 22.0129 22.8482 22.0129 22.8482L33.7211 28.8001C33.7211 28.8001 34.4283 27.6587 34.9784 26.5988C35.3713 25.865 35.6856 25.0496 35.9999 24.3158L23.8202 19.9946ZM11.7192 25.7834C7.55451 25.7834 6.76873 23.6636 6.76873 22.196C6.76873 20.7284 7.63309 19.0162 11.1691 18.7716C14.6266 18.527 19.4199 21.3806 19.4199 21.3806C19.4199 21.3806 15.8838 25.7834 11.7192 25.7834Z" fill="#FFFDFA"/>
</g>
</g>
</g>
</g>
<defs>
<clipPath id="clip0_9292_173660">
<rect width="36" height="36" fill="white"/>
</clipPath>
</defs>
</svg>
