<svg width="24" height="24" viewBox="0 0 24 24" fill="none" xmlns="http://www.w3.org/2000/svg">
<g id="cvc">
<path id="Rectangle 34625691" d="M20 14.625V7C20 5.89543 19.1046 5 18 5H6C4.89543 5 4 5.89543 4 7V17C4 18.1046 4.89543 19 6 19H11" stroke="#FFFDFA" stroke-linecap="round"/>
<circle id="Ellipse 4232" cx="7.5" cy="15.5" r="1.5" fill="#FFC249"/>
<line id="Line 206" x1="4" y1="8.5" x2="20" y2="8.5" stroke="#FFFDFA"/>
<g id="123">
<path id="Vector" d="M18.7784 15.3599C19.1235 15.3599 19.4013 15.4496 19.6118 15.629C19.8188 15.8085 19.9223 16.05 19.9223 16.3537C19.9223 16.7781 19.7222 17.0576 19.3219 17.1922C19.5358 17.2578 19.7015 17.3665 19.8188 17.5183C19.9396 17.6701 20 17.853 20 18.067C20 18.3983 19.8844 18.6709 19.6532 18.8848C19.4151 19.0953 19.1149 19.2006 18.7525 19.2006C18.4247 19.2006 18.1504 19.1143 17.9295 18.9417C17.6638 18.7382 17.5154 18.4259 17.4844 18.0049H17.8053C17.8191 18.3189 17.9295 18.5587 18.1366 18.7243C18.3022 18.8589 18.5058 18.9262 18.7474 18.9262C19.0269 18.9262 19.2563 18.8451 19.4358 18.6829C19.6014 18.5208 19.6842 18.3189 19.6842 18.0773C19.6842 17.8496 19.6049 17.6667 19.4461 17.5287C19.2943 17.3975 19.0855 17.332 18.8198 17.332H18.4937V17.0732H18.7888C19.0476 17.0732 19.2512 17.0128 19.3995 16.892C19.5376 16.7643 19.6066 16.5901 19.6066 16.3692C19.6066 16.1518 19.5358 15.9758 19.3944 15.8412C19.246 15.7067 19.0407 15.6394 18.7784 15.6394C18.5161 15.6394 18.3108 15.7136 18.1624 15.8619C18.0072 16.0069 17.914 16.2122 17.8829 16.4779H17.5672C17.5983 16.1328 17.7259 15.8585 17.9502 15.6549C18.1642 15.4582 18.4402 15.3599 18.7784 15.3599Z" fill="white" stroke="#FFFDFA" stroke-width="0.2"/>
<path id="Vector_2" d="M15.6849 15.3599C16.0197 15.3599 16.294 15.4565 16.508 15.6497C16.7253 15.8395 16.834 16.0949 16.834 16.4158C16.834 16.7333 16.7115 17.0231 16.4665 17.2854C16.3458 17.4131 16.0904 17.6098 15.7005 17.8755C15.176 18.2309 14.8844 18.5518 14.8257 18.8382H16.8392V19.1281H14.4375C14.4375 18.8106 14.56 18.5173 14.805 18.2481C14.9568 18.0756 15.2156 17.8634 15.5814 17.6115C15.892 17.3906 16.1008 17.2267 16.2077 17.1197C16.4113 16.8989 16.5131 16.6625 16.5131 16.4106C16.5131 16.1656 16.4372 15.9758 16.2854 15.8412C16.137 15.7067 15.9351 15.6394 15.6798 15.6394C15.4106 15.6394 15.1984 15.7291 15.0431 15.9085C14.8775 16.088 14.7947 16.3502 14.7947 16.6953H14.4737C14.4737 16.2812 14.5876 15.9551 14.8154 15.717C15.0328 15.4789 15.3226 15.3599 15.6849 15.3599Z" fill="white" stroke="#FFFDFA" stroke-width="0.2"/>
<path id="Vector_3" d="M12.7936 15.4326V19.1284H12.4779V15.826C12.2398 16.0848 11.9448 16.266 11.5928 16.3695V16.0486C11.7688 15.9968 11.9396 15.9192 12.1052 15.8157C12.2674 15.7087 12.4123 15.581 12.54 15.4326H12.7936Z" fill="white" stroke="#FFFDFA" stroke-width="0.2"/>
</g>
</g>
</svg>
