<svg width="480" height="28" viewBox="0 0 480 28" fill="none" xmlns="http://www.w3.org/2000/svg">
<g id="Frame 1171277988">
<line id="Line 198" y1="13.5" x2="200" y2="13.5" stroke="#534B36"/>
<path id="OR" d="M228.64 6.44C230.733 6.44 232.4 7.16 233.64 8.6C234.8 9.96 235.38 11.7133 235.38 13.86C235.38 16.02 234.8 17.78 233.64 19.14C232.4 20.5667 230.727 21.28 228.62 21.28C226.5 21.28 224.827 20.56 223.6 19.12C222.44 17.76 221.86 16.0067 221.86 13.86C221.86 11.7133 222.44 9.96 223.6 8.6C224.84 7.16 226.52 6.44 228.64 6.44ZM228.64 7.56C226.893 7.56 225.52 8.16 224.52 9.36C223.56 10.52 223.08 12.02 223.08 13.86C223.08 15.74 223.553 17.24 224.5 18.36C225.5 19.56 226.873 20.16 228.62 20.16C230.353 20.16 231.72 19.5667 232.72 18.38C233.68 17.2333 234.16 15.7267 234.16 13.86C234.16 11.9667 233.68 10.46 232.72 9.34C231.733 8.15333 230.373 7.56 228.64 7.56ZM238.694 6.72H244.734C246.161 6.72 247.268 7.05333 248.054 7.72C248.868 8.41333 249.274 9.38667 249.274 10.64C249.274 11.4533 249.048 12.18 248.594 12.82C248.114 13.46 247.441 13.88 246.574 14.08V14.12C248.014 14.44 248.814 15.32 248.974 16.76L249.174 18.9C249.254 19.7933 249.488 20.4933 249.874 21H248.534C248.241 20.5333 248.054 19.8867 247.974 19.06L247.794 17.1C247.714 16.22 247.388 15.5867 246.814 15.2C246.294 14.84 245.568 14.66 244.634 14.66H239.914V21H238.694V6.72ZM239.914 7.8V13.58H244.614C245.721 13.58 246.588 13.3067 247.214 12.76C247.774 12.24 248.054 11.5467 248.054 10.68C248.054 9.73333 247.781 9.02 247.234 8.54C246.688 8.04667 245.808 7.8 244.594 7.8H239.914Z" fill="#A8A292"/>
<line id="Line 199" x1="272" y1="13.5" x2="472" y2="13.5" stroke="#534B36"/>
</g>
</svg>
