<svg width="40" height="40" viewBox="0 0 40 40" fill="none" xmlns="http://www.w3.org/2000/svg">
<g id="&#229;&#183;&#165;&#228;&#189;&#156;&#229;&#143;&#176;">
<g id="Frame 1171275882">
<g id="Group 26">
<rect id="Rectangle 61" x="5" y="12" width="30" height="20" rx="1" fill="#423C2B" stroke="#E1DCD0" stroke-linecap="round"/>
<g id="Group 23">
<rect id="Rectangle 49" x="5.25" y="8.25" width="29.5" height="3.5" rx="0.75" fill="#A8A292" stroke="#423C2B" stroke-width="0.5" stroke-linecap="round"/>
<g id="Mask group">
<mask id="mask0_792_17137" style="mask-type:alpha" maskUnits="userSpaceOnUse" x="5" y="8" width="30" height="4">
<rect id="Rectangle 50" x="5.25" y="8.25" width="29.5" height="3.5" rx="0.75" fill="#D9D9D9" stroke="#322D20" stroke-width="0.5" stroke-linecap="round"/>
</mask>
<g mask="url(#mask0_792_17137)">
<g id="Group 24">
<rect id="Rectangle 55" x="0.477208" y="13.0476" width="14.5" height="2" rx="0.75" transform="rotate(-40 0.477208 13.0476)" fill="#423C2B" stroke="#423C2B" stroke-width="0.5" stroke-linecap="round"/>
<rect id="Rectangle 56" x="7.512" y="13.4589" width="14.5" height="2" rx="0.75" transform="rotate(-40 7.512 13.4589)" fill="#423C2B" stroke="#423C2B" stroke-width="0.5" stroke-linecap="round"/>
<rect id="Rectangle 57" x="14.5468" y="13.8701" width="14.5" height="2" rx="0.75" transform="rotate(-40 14.5468 13.8701)" fill="#423C2B" stroke="#423C2B" stroke-width="0.5" stroke-linecap="round"/>
<rect id="Rectangle 58" x="21.5816" y="14.2814" width="14.5" height="2" rx="0.75" transform="rotate(-40 21.5816 14.2814)" fill="#423C2B" stroke="#423C2B" stroke-width="0.5" stroke-linecap="round"/>
<rect id="Rectangle 59" x="28.6164" y="14.6926" width="14.5" height="2" rx="0.75" transform="rotate(-40 28.6164 14.6926)" fill="#423C2B" stroke="#423C2B" stroke-width="0.5" stroke-linecap="round"/>
</g>
</g>
</g>
<rect id="Rectangle 50_2" x="5" y="8" width="30" height="4" rx="1" stroke="#E1DCD0" stroke-linecap="round"/>
</g>
<g id="Group 24_2">
<rect id="Rectangle 49_2" x="-0.25" y="0.25" width="29.5" height="3.5" rx="0.75" transform="matrix(-1 0 0 1 34.5 12)" fill="#A8A292" stroke="#423C2B" stroke-width="0.5" stroke-linecap="round"/>
<g id="Mask group_2">
<mask id="mask1_792_17137" style="mask-type:alpha" maskUnits="userSpaceOnUse" x="5" y="12" width="30" height="4">
<rect id="Rectangle 50_3" x="-0.25" y="0.25" width="29.5" height="3.5" rx="0.75" transform="matrix(-1 0 0 1 34.5 12)" fill="#D9D9D9" stroke="#322D20" stroke-width="0.5" stroke-linecap="round"/>
</mask>
<g mask="url(#mask1_792_17137)">
<g id="Group 24_3">
<rect id="Rectangle 55_2" x="-0.352208" y="0.0308142" width="14.5" height="2" rx="0.75" transform="matrix(-0.766044 -0.642788 -0.642788 0.766044 39.2728 16.7976)" fill="#423C2B" stroke="#423C2B" stroke-width="0.5" stroke-linecap="round"/>
<rect id="Rectangle 56_2" x="-0.352208" y="0.0308142" width="14.5" height="2" rx="0.75" transform="matrix(-0.766044 -0.642788 -0.642788 0.766044 32.238 17.2089)" fill="#423C2B" stroke="#423C2B" stroke-width="0.5" stroke-linecap="round"/>
<rect id="Rectangle 57_2" x="-0.352208" y="0.0308142" width="14.5" height="2" rx="0.75" transform="matrix(-0.766044 -0.642788 -0.642788 0.766044 25.2032 17.6201)" fill="#423C2B" stroke="#423C2B" stroke-width="0.5" stroke-linecap="round"/>
<rect id="Rectangle 58_2" x="-0.352208" y="0.0308142" width="14.5" height="2" rx="0.75" transform="matrix(-0.766044 -0.642788 -0.642788 0.766044 18.1684 18.0314)" fill="#423C2B" stroke="#423C2B" stroke-width="0.5" stroke-linecap="round"/>
<rect id="Rectangle 59_2" x="-0.352208" y="0.0308142" width="14.5" height="2" rx="0.75" transform="matrix(-0.766044 -0.642788 -0.642788 0.766044 11.1336 18.4426)" fill="#423C2B" stroke="#423C2B" stroke-width="0.5" stroke-linecap="round"/>
</g>
</g>
</g>
<rect id="Rectangle 50_4" width="30" height="4" rx="1" transform="matrix(-1 0 0 1 35 12)" stroke="#E1DCD0" stroke-linecap="round"/>
</g>
<g id="Group 1171275815">
<rect id="Rectangle 34624688" x="9" y="26" width="22" height="1" rx="0.5" fill="#E1DCD0"/>
<rect id="Rectangle 34624687" x="9" y="20" width="22" height="1" rx="0.5" fill="#E1DCD0"/>
</g>
</g>
</g>
</g>
</svg>
