<svg width="40" height="40" viewBox="0 0 40 40" fill="none" xmlns="http://www.w3.org/2000/svg">
<g id="&#233;&#166;&#150;&#233;&#161;&#181;" clip-path="url(#clip0_792_17135)">
<g id="Frame 1171275817">
<g id="Frame 1171275812">
<g clip-path="url(#clip1_792_17135)">
<rect id="Rectangle 34624678" x="5" y="8" width="30" height="24" rx="1" fill="#423C2B"/>
<path id="Subtract" fill-rule="evenodd" clip-rule="evenodd" d="M8.99974 -58L9 135L5.00026 135L5 -58L8.99974 -58ZM7.8889 -56.2253C7.95027 -56.2253 8.00001 -56.1756 8.00001 -56.1144L8.00001 -54.5615C8.00001 -54.5002 7.95027 -54.4506 7.8889 -54.4506L6.11115 -54.4506C6.04978 -54.4506 6.00004 -54.5002 6.00004 -54.5615L6.00004 -56.1144C6.00004 -56.1756 6.04978 -56.2253 6.11115 -56.2253L7.8889 -56.2253ZM8.00001 -52.6759C8.00001 -52.7371 7.95027 -52.7868 7.8889 -52.7868L6.11115 -52.7868C6.04978 -52.7868 6.00004 -52.7371 6.00004 -52.6759L6.00004 -51.123C6.00004 -51.0617 6.04978 -51.0121 6.11115 -51.0121L7.8889 -51.0121C7.95027 -51.0121 8.00001 -51.0617 8.00001 -51.123L8.00001 -52.6759ZM7.8889 -49.3483C7.95027 -49.3483 8.00001 -49.2986 8.00001 -49.2374L8.00001 -47.6845C8.00001 -47.6232 7.95027 -47.5736 7.8889 -47.5736L6.11115 -47.5736C6.04979 -47.5736 6.00004 -47.6232 6.00004 -47.6845L6.00004 -49.2374C6.00004 -49.2986 6.04979 -49.3483 6.11115 -49.3483L7.8889 -49.3483ZM8.00001 -45.7988C8.00001 -45.8601 7.95027 -45.9098 7.8889 -45.9098L6.11115 -45.9098C6.04979 -45.9098 6.00004 -45.8601 6.00004 -45.7988L6.00004 -44.246C6.00004 -44.1847 6.04979 -44.1351 6.11115 -44.1351L7.8889 -44.1351C7.95027 -44.1351 8.00001 -44.1847 8.00001 -44.246L8.00001 -45.7988ZM7.8889 -42.4713C7.95027 -42.4713 8.00001 -42.4216 8.00001 -42.3603L8.00001 -40.8075C8.00001 -40.7462 7.95027 -40.6966 7.8889 -40.6966L6.11115 -40.6966C6.04979 -40.6966 6.00004 -40.7462 6.00004 -40.8075L6.00004 -42.3603C6.00004 -42.4216 6.04979 -42.4713 6.11115 -42.4713L7.8889 -42.4713ZM8.00001 -38.9218C8.00001 -38.9831 7.95027 -39.0328 7.8889 -39.0328L6.11115 -39.0328C6.04979 -39.0328 6.00004 -38.9831 6.00004 -38.9218L6.00004 -37.369C6.00004 -37.3077 6.04979 -37.258 6.11115 -37.258L7.88891 -37.258C7.95027 -37.258 8.00001 -37.3077 8.00001 -37.369L8.00001 -38.9218ZM7.88891 -35.5943C7.95027 -35.5943 8.00002 -35.5446 8.00002 -35.4833L8.00002 -33.9305C8.00002 -33.8692 7.95027 -33.8195 7.88891 -33.8195L6.11115 -33.8195C6.04979 -33.8195 6.00004 -33.8692 6.00004 -33.9305L6.00004 -35.4833C6.00004 -35.5446 6.04979 -35.5943 6.11115 -35.5943L7.88891 -35.5943ZM8.00002 -32.0448C8.00002 -32.1061 7.95027 -32.1557 7.88891 -32.1557L6.11115 -32.1557C6.04979 -32.1557 6.00004 -32.1061 6.00004 -32.0448L6.00004 -30.492C6.00004 -30.4307 6.04979 -30.381 6.11115 -30.381L7.88891 -30.381C7.95027 -30.381 8.00002 -30.4307 8.00002 -30.492L8.00002 -32.0448ZM7.88891 -28.7172C7.95027 -28.7172 8.00002 -28.6676 8.00002 -28.6063L8.00002 -27.0534C8.00002 -26.9922 7.95027 -26.9425 7.88891 -26.9425L6.11115 -26.9425C6.04979 -26.9425 6.00004 -26.9922 6.00004 -27.0534L6.00004 -28.6063C6.00004 -28.6676 6.04979 -28.7172 6.11115 -28.7172L7.88891 -28.7172ZM8.00002 -25.1678C8.00002 -25.2291 7.95027 -25.2787 7.88891 -25.2787L6.11115 -25.2787C6.04979 -25.2787 6.00004 -25.2291 6.00004 -25.1678L6.00004 -23.6149C6.00004 -23.5537 6.04979 -23.504 6.11115 -23.504L7.88891 -23.504C7.95027 -23.504 8.00002 -23.5537 8.00002 -23.6149L8.00002 -25.1678ZM7.88891 -21.8402C7.95027 -21.8402 8.00002 -21.7906 8.00002 -21.7293L8.00002 -20.1764C8.00002 -20.1152 7.95027 -20.0655 7.88891 -20.0655L6.11115 -20.0655C6.04979 -20.0655 6.00004 -20.1152 6.00004 -20.1764L6.00004 -21.7293C6.00004 -21.7906 6.04979 -21.8402 6.11115 -21.8402L7.88891 -21.8402ZM8.00002 -18.2908C8.00002 -18.3521 7.95027 -18.4017 7.88891 -18.4017L6.11115 -18.4017C6.04979 -18.4017 6.00004 -18.3521 6.00004 -18.2908L6.00004 -16.7379C6.00004 -16.6767 6.04979 -16.627 6.11115 -16.627L7.88891 -16.627C7.95027 -16.627 8.00002 -16.6767 8.00002 -16.7379L8.00002 -18.2908ZM7.88891 -14.9632C7.95027 -14.9632 8.00002 -14.9136 8.00002 -14.8523L8.00002 -13.2994C8.00002 -13.2382 7.95027 -13.1885 7.88891 -13.1885L6.11115 -13.1885C6.04979 -13.1885 6.00004 -13.2382 6.00004 -13.2994L6.00004 -14.8523C6.00004 -14.9136 6.04979 -14.9632 6.11115 -14.9632L7.88891 -14.9632ZM8.00002 -11.4138C8.00002 -11.475 7.95027 -11.5247 7.88891 -11.5247L6.11115 -11.5247C6.04979 -11.5247 6.00004 -11.475 6.00004 -11.4138L6.00004 -9.86092C6.00004 -9.79966 6.04979 -9.75 6.11115 -9.75L7.88891 -9.75C7.95027 -9.75 8.00002 -9.79966 8.00002 -9.86092L8.00002 -11.4138ZM7.88891 -8.0862C7.95027 -8.0862 8.00002 -8.03654 8.00002 -7.97529L8.00002 -6.42241C8.00002 -6.36116 7.95027 -6.31149 7.88891 -6.31149L6.11115 -6.31149C6.04979 -6.31149 6.00004 -6.36116 6.00004 -6.42241L6.00004 -7.97529C6.00004 -8.03654 6.04979 -8.0862 6.11115 -8.0862L7.88891 -8.0862ZM8.00002 -4.53678C8.00002 -4.59804 7.95027 -4.6477 7.88891 -4.6477L6.11115 -4.6477C6.04979 -4.6477 6.00004 -4.59804 6.00004 -4.53678L6.00004 -2.98391C6.00004 -2.92265 6.04979 -2.87299 6.11115 -2.87299L7.88891 -2.87299C7.95027 -2.87299 8.00002 -2.92265 8.00002 -2.98391L8.00002 -4.53678ZM7.88891 -1.2092C7.95027 -1.2092 8.00002 -1.15954 8.00002 -1.09828L8.00002 0.454594C8.00002 0.515854 7.95027 0.565514 7.88891 0.565514L6.11115 0.565514C6.04979 0.565514 6.00004 0.515854 6.00004 0.454594L6.00004 -1.09828C6.00004 -1.15954 6.04979 -1.2092 6.11115 -1.2092L7.88891 -1.2092ZM8.00002 2.34023C8.00002 2.27897 7.95027 2.22931 7.88891 2.22931L6.11115 2.22931C6.04979 2.22931 6.00004 2.27897 6.00004 2.34023L6.00004 3.8931C6.00004 3.95436 6.04979 4.00402 6.11115 4.00402L7.88891 4.00402C7.95027 4.00402 8.00002 3.95436 8.00002 3.8931L8.00002 2.34023ZM7.88891 5.66782C7.95027 5.66782 8.00002 5.71748 8.00002 5.77874L8.00002 7.33162C8.00002 7.39288 7.95027 7.44253 7.88891 7.44253L6.11115 7.44253C6.04979 7.44253 6.00005 7.39288 6.00005 7.33162L6.00005 5.77874C6.00005 5.71748 6.04979 5.66782 6.11115 5.66782L7.88891 5.66782ZM8.00002 9.21724C8.00002 9.15598 7.95027 9.10633 7.88891 9.10633L6.11116 9.10633C6.04979 9.10633 6.00005 9.15598 6.00005 9.21724L6.00005 10.7701C6.00005 10.8314 6.04979 10.881 6.11116 10.881L7.88891 10.881C7.95027 10.881 8.00002 10.8314 8.00002 10.7701L8.00002 9.21724ZM7.88891 12.5448C7.95027 12.5448 8.00002 12.5945 8.00002 12.6557L8.00002 14.2086C8.00002 14.2699 7.95027 14.3195 7.88891 14.3195L6.11116 14.3195C6.04979 14.3195 6.00005 14.2699 6.00005 14.2086L6.00005 12.6557C6.00005 12.5945 6.04979 12.5448 6.11116 12.5448L7.88891 12.5448ZM8.00002 16.0943C8.00002 16.033 7.95027 15.9833 7.88891 15.9833L6.11116 15.9833C6.04979 15.9833 6.00005 16.033 6.00005 16.0943L6.00005 17.6471C6.00005 17.7084 6.04979 17.7581 6.11116 17.7581L7.88891 17.7581C7.95027 17.7581 8.00002 17.7084 8.00002 17.6471L8.00002 16.0943ZM7.88891 19.4218C7.95027 19.4218 8.00002 19.4715 8.00002 19.5328L8.00002 21.0856C8.00002 21.1469 7.95028 21.1966 7.88891 21.1966L6.11116 21.1966C6.04979 21.1966 6.00005 21.1469 6.00005 21.0856L6.00005 19.5328C6.00005 19.4715 6.04979 19.4218 6.11116 19.4218L7.88891 19.4218ZM8.00002 22.9713C8.00002 22.91 7.95028 22.8603 7.88891 22.8603L6.11116 22.8603C6.04979 22.8603 6.00005 22.91 6.00005 22.9713L6.00005 24.5241C6.00005 24.5854 6.04979 24.6351 6.11116 24.6351L7.88891 24.6351C7.95028 24.6351 8.00002 24.5854 8.00002 24.5241L8.00002 22.9713ZM7.88891 26.2989C7.95028 26.2989 8.00002 26.3485 8.00002 26.4098L8.00002 27.9626C8.00002 28.0239 7.95028 28.0736 7.88891 28.0736L6.11116 28.0736C6.04979 28.0736 6.00005 28.0239 6.00005 27.9626L6.00005 26.4098C6.00005 26.3485 6.04979 26.2989 6.11116 26.2989L7.88891 26.2989ZM8.00002 29.8483C8.00002 29.787 7.95028 29.7374 7.88891 29.7374L6.11116 29.7374C6.04979 29.7374 6.00005 29.787 6.00005 29.8483L6.00005 31.4012C6.00005 31.4624 6.04979 31.5121 6.11116 31.5121L7.88891 31.5121C7.95028 31.5121 8.00002 31.4624 8.00002 31.4012L8.00002 29.8483ZM7.88891 33.1759C7.95028 33.1759 8.00002 33.2255 8.00002 33.2868L8.00002 34.8397C8.00002 34.9009 7.95028 34.9506 7.88891 34.9506L6.11116 34.9506C6.04979 34.9506 6.00005 34.9009 6.00005 34.8397L6.00005 33.2868C6.00005 33.2255 6.04979 33.1759 6.11116 33.1759L7.88891 33.1759ZM8.00002 36.7253C8.00002 36.664 7.95028 36.6144 7.88891 36.6144L6.11116 36.6144C6.04979 36.6144 6.00005 36.664 6.00005 36.7253L6.00005 38.2782C6.00005 38.3394 6.04979 38.3891 6.11116 38.3891L7.88891 38.3891C7.95028 38.3891 8.00002 38.3394 8.00002 38.2782L8.00002 36.7253ZM7.88891 40.0529C7.95028 40.0529 8.00002 40.1025 8.00002 40.1638L8.00002 41.7167C8.00002 41.7779 7.95028 41.8276 7.88891 41.8276L6.11116 41.8276C6.04979 41.8276 6.00005 41.7779 6.00005 41.7167L6.00005 40.1638C6.00005 40.1025 6.04979 40.0529 6.11116 40.0529L7.88891 40.0529ZM8.00002 43.6023C8.00002 43.541 7.95028 43.4914 7.88891 43.4914L6.11116 43.4914C6.04979 43.4914 6.00005 43.541 6.00005 43.6023L6.00005 45.1552C6.00005 45.2164 6.04979 45.2661 6.11116 45.2661L7.88891 45.2661C7.95028 45.2661 8.00002 45.2164 8.00002 45.1552L8.00002 43.6023ZM7.88891 46.9299C7.95028 46.9299 8.00002 46.9795 8.00002 47.0408L8.00002 48.5937C8.00002 48.6549 7.95028 48.7046 7.88891 48.7046L6.11116 48.7046C6.04979 48.7046 6.00005 48.6549 6.00005 48.5937L6.00005 47.0408C6.00005 46.9795 6.04979 46.9299 6.11116 46.9299L7.88891 46.9299ZM8.00002 50.4793C8.00002 50.418 7.95028 50.3684 7.88891 50.3684L6.11116 50.3684C6.04979 50.3684 6.00005 50.418 6.00005 50.4793L6.00005 52.0322C6.00005 52.0935 6.0498 52.1431 6.11116 52.1431L7.88891 52.1431C7.95028 52.1431 8.00002 52.0935 8.00002 52.0322L8.00002 50.4793ZM7.88891 53.8069C7.95028 53.8069 8.00002 53.8566 8.00002 53.9178L8.00002 55.4707C8.00002 55.532 7.95028 55.5816 7.88891 55.5816L6.11116 55.5816C6.0498 55.5816 6.00005 55.532 6.00005 55.4707L6.00005 53.9178C6.00005 53.8566 6.0498 53.8069 6.11116 53.8069L7.88891 53.8069ZM8.00002 57.3563C8.00002 57.2951 7.95028 57.2454 7.88891 57.2454L6.11116 57.2454C6.0498 57.2454 6.00005 57.2951 6.00005 57.3563L6.00005 58.9092C6.00005 58.9704 6.0498 59.0201 6.11116 59.0201L7.88891 59.0201C7.95028 59.0201 8.00002 58.9704 8.00002 58.9092L8.00002 57.3563ZM7.88891 60.6839C7.95028 60.6839 8.00002 60.7336 8.00002 60.7948L8.00002 62.3477C8.00002 62.409 7.95028 62.4586 7.88892 62.4586L6.11116 62.4586C6.0498 62.4586 6.00005 62.409 6.00005 62.3477L6.00005 60.7948C6.00005 60.7336 6.0498 60.6839 6.11116 60.6839L7.88891 60.6839ZM8.00002 64.2333C8.00002 64.1721 7.95028 64.1224 7.88892 64.1224L6.11116 64.1224C6.0498 64.1224 6.00005 64.1721 6.00005 64.2333L6.00005 65.7862C6.00005 65.8475 6.0498 65.8971 6.11116 65.8971L7.88892 65.8971C7.95028 65.8971 8.00003 65.8475 8.00003 65.7862L8.00002 64.2333ZM7.88892 67.5609C7.95028 67.5609 8.00003 67.6106 8.00003 67.6718L8.00003 69.2247C8.00003 69.286 7.95028 69.3356 7.88892 69.3356L6.11116 69.3356C6.0498 69.3356 6.00005 69.286 6.00005 69.2247L6.00005 67.6718C6.00005 67.6106 6.0498 67.5609 6.11116 67.5609L7.88892 67.5609ZM8.00003 71.1104C8.00003 71.0491 7.95028 70.9994 7.88892 70.9994L6.11116 70.9994C6.0498 70.9994 6.00005 71.0491 6.00005 71.1104L6.00005 72.6632C6.00005 72.7245 6.0498 72.7741 6.11116 72.7741L7.88892 72.7741C7.95028 72.7741 8.00003 72.7245 8.00003 72.6632L8.00003 71.1104ZM7.88892 74.4379C7.95028 74.4379 8.00003 74.4876 8.00003 74.5489L8.00003 76.1017C8.00003 76.163 7.95028 76.2127 7.88892 76.2127L6.11116 76.2127C6.0498 76.2127 6.00005 76.163 6.00005 76.1017L6.00005 74.5489C6.00005 74.4876 6.0498 74.4379 6.11116 74.4379L7.88892 74.4379ZM8.00003 77.9874C8.00003 77.9261 7.95028 77.8764 7.88892 77.8764L6.11116 77.8764C6.0498 77.8764 6.00005 77.9261 6.00005 77.9874L6.00005 79.5402C6.00005 79.6015 6.0498 79.6512 6.11116 79.6512L7.88892 79.6512C7.95028 79.6512 8.00003 79.6015 8.00003 79.5402L8.00003 77.9874ZM7.88892 81.3149C7.95028 81.3149 8.00003 81.3646 8.00003 81.4259L8.00003 82.9788C8.00003 83.04 7.95028 83.0897 7.88892 83.0897L6.11116 83.0897C6.0498 83.0897 6.00005 83.04 6.00005 82.9788L6.00005 81.4259C6.00005 81.3646 6.0498 81.3149 6.11116 81.3149L7.88892 81.3149ZM8.00003 84.8644C8.00003 84.8031 7.95028 84.7535 7.88892 84.7535L6.11116 84.7535C6.0498 84.7535 6.00005 84.8031 6.00005 84.8644L6.00005 86.4172C6.00005 86.4785 6.0498 86.5282 6.11116 86.5282L7.88892 86.5282C7.95028 86.5282 8.00003 86.4785 8.00003 86.4172L8.00003 84.8644ZM7.88892 88.192C7.95028 88.192 8.00003 88.2416 8.00003 88.3029L8.00003 89.8557C8.00003 89.917 7.95028 89.9667 7.88892 89.9667L6.11116 89.9667C6.0498 89.9667 6.00005 89.917 6.00005 89.8557L6.00005 88.3029C6.00005 88.2416 6.0498 88.192 6.11116 88.192L7.88892 88.192ZM8.00003 91.7414C8.00003 91.6801 7.95028 91.6305 7.88892 91.6305L6.11116 91.6305C6.0498 91.6305 6.00005 91.6801 6.00005 91.7414L6.00005 93.2943C6.00005 93.3555 6.0498 93.4052 6.11116 93.4052L7.88892 93.4052C7.95028 93.4052 8.00003 93.3555 8.00003 93.2943L8.00003 91.7414ZM7.88892 95.069C7.95028 95.069 8.00003 95.1186 8.00003 95.1799L8.00003 96.7328C8.00003 96.794 7.95028 96.8437 7.88892 96.8437L6.11116 96.8437C6.0498 96.8437 6.00005 96.794 6.00005 96.7328L6.00005 95.1799C6.00005 95.1186 6.0498 95.069 6.11116 95.069L7.88892 95.069ZM8.00003 98.6184C8.00003 98.5572 7.95028 98.5075 7.88892 98.5075L6.11116 98.5075C6.0498 98.5075 6.00005 98.5572 6.00005 98.6184L6.00005 100.171C6.00005 100.233 6.0498 100.282 6.11116 100.282L7.88892 100.282C7.95028 100.282 8.00003 100.233 8.00003 100.171L8.00003 98.6184ZM7.88892 101.946C7.95028 101.946 8.00003 101.996 8.00003 102.057L8.00003 103.61C8.00003 103.671 7.95028 103.721 7.88892 103.721L6.11116 103.721C6.0498 103.721 6.00005 103.671 6.00005 103.61L6.00005 102.057C6.00005 101.996 6.0498 101.946 6.11116 101.946L7.88892 101.946ZM8.00003 105.495C8.00003 105.434 7.95028 105.384 7.88892 105.384L6.11116 105.384C6.0498 105.384 6.00005 105.434 6.00005 105.495L6.00005 107.048C6.00005 107.11 6.0498 107.159 6.11116 107.159L7.88892 107.159C7.95028 107.159 8.00003 107.11 8.00003 107.048L8.00003 105.495ZM7.88892 108.823C7.95028 108.823 8.00003 108.873 8.00003 108.934L8.00003 110.487C8.00003 110.548 7.95028 110.598 7.88892 110.598L6.11117 110.598C6.0498 110.598 6.00006 110.548 6.00006 110.487L6.00006 108.934C6.00006 108.873 6.0498 108.823 6.11117 108.823L7.88892 108.823ZM8.00003 112.372C8.00003 112.311 7.95028 112.261 7.88892 112.261L6.11117 112.261C6.0498 112.261 6.00006 112.311 6.00006 112.372L6.00006 113.925C6.00006 113.987 6.0498 114.036 6.11117 114.036L7.88892 114.036C7.95028 114.036 8.00003 113.987 8.00003 113.925L8.00003 112.372ZM7.88892 115.7C7.95028 115.7 8.00003 115.75 8.00003 115.811L8.00003 117.364C8.00003 117.425 7.95028 117.475 7.88892 117.475L6.11117 117.475C6.0498 117.475 6.00006 117.425 6.00006 117.364L6.00006 115.811C6.00006 115.75 6.0498 115.7 6.11117 115.7L7.88892 115.7ZM8.00003 119.249C8.00003 119.188 7.95028 119.139 7.88892 119.139L6.11117 119.139C6.0498 119.139 6.00006 119.188 6.00006 119.249L6.00006 120.802C6.00006 120.864 6.0498 120.913 6.11117 120.913L7.88892 120.913C7.95029 120.913 8.00003 120.864 8.00003 120.802L8.00003 119.249ZM7.88892 122.577C7.95029 122.577 8.00003 122.627 8.00003 122.688L8.00003 124.241C8.00003 124.302 7.95029 124.352 7.88892 124.352L6.11117 124.352C6.0498 124.352 6.00006 124.302 6.00006 124.241L6.00006 122.688C6.00006 122.627 6.0498 122.577 6.11117 122.577L7.88892 122.577ZM8.00003 126.126C8.00003 126.065 7.95029 126.016 7.88892 126.016L6.11117 126.016C6.0498 126.016 6.00006 126.065 6.00006 126.126L6.00006 127.679C6.00006 127.741 6.0498 127.79 6.11117 127.79L7.88892 127.79C7.95029 127.79 8.00003 127.741 8.00003 127.679L8.00003 126.126ZM7.88892 129.454C7.95029 129.454 8.00003 129.504 8.00003 129.565L8.00003 131.118C8.00003 131.179 7.95029 131.229 7.88892 131.229L6.11117 131.229C6.0498 131.229 6.00006 131.179 6.00006 131.118L6.00006 129.565C6.00006 129.504 6.0498 129.454 6.11117 129.454L7.88892 129.454ZM8.00003 133.003C8.00003 132.942 7.95029 132.893 7.88892 132.893L6.11117 132.893C6.0498 132.893 6.00006 132.942 6.00006 133.003L6.00006 134.556C6.00006 134.618 6.0498 134.667 6.11117 134.667L7.88892 134.667C7.95029 134.667 8.00003 134.618 8.00003 134.556L8.00003 133.003Z" fill="#A8A292"/>
<path id="Subtract_2" fill-rule="evenodd" clip-rule="evenodd" d="M34.9997 -59L35 134L31.0003 134L31 -59L34.9997 -59ZM33.8889 -57.2253C33.9503 -57.2253 34 -57.1756 34 -57.1144L34 -55.5615C34 -55.5002 33.9503 -55.4506 33.8889 -55.4506L32.1111 -55.4506C32.0498 -55.4506 32 -55.5002 32 -55.5615L32 -57.1144C32 -57.1756 32.0498 -57.2253 32.1111 -57.2253L33.8889 -57.2253ZM34 -53.6759C34 -53.7371 33.9503 -53.7868 33.8889 -53.7868L32.1111 -53.7868C32.0498 -53.7868 32 -53.7371 32 -53.6759L32 -52.123C32 -52.0617 32.0498 -52.0121 32.1111 -52.0121L33.8889 -52.0121C33.9503 -52.0121 34 -52.0617 34 -52.123L34 -53.6759ZM33.8889 -50.3483C33.9503 -50.3483 34 -50.2986 34 -50.2374L34 -48.6845C34 -48.6232 33.9503 -48.5736 33.8889 -48.5736L32.1111 -48.5736C32.0498 -48.5736 32 -48.6232 32 -48.6845L32 -50.2374C32 -50.2986 32.0498 -50.3483 32.1111 -50.3483L33.8889 -50.3483ZM34 -46.7988C34 -46.8601 33.9503 -46.9098 33.8889 -46.9098L32.1111 -46.9098C32.0498 -46.9098 32 -46.8601 32 -46.7988L32 -45.246C32 -45.1847 32.0498 -45.1351 32.1111 -45.1351L33.8889 -45.1351C33.9503 -45.1351 34 -45.1847 34 -45.246L34 -46.7988ZM33.8889 -43.4713C33.9503 -43.4713 34 -43.4216 34 -43.3603L34 -41.8075C34 -41.7462 33.9503 -41.6966 33.8889 -41.6966L32.1112 -41.6966C32.0498 -41.6966 32 -41.7462 32 -41.8075L32 -43.3603C32 -43.4216 32.0498 -43.4713 32.1112 -43.4713L33.8889 -43.4713ZM34 -39.9218C34 -39.9831 33.9503 -40.0328 33.8889 -40.0328L32.1112 -40.0328C32.0498 -40.0328 32 -39.9831 32 -39.9218L32 -38.369C32 -38.3077 32.0498 -38.258 32.1112 -38.258L33.8889 -38.258C33.9503 -38.258 34 -38.3077 34 -38.369L34 -39.9218ZM33.8889 -36.5943C33.9503 -36.5943 34 -36.5446 34 -36.4833L34 -34.9305C34 -34.8692 33.9503 -34.8195 33.8889 -34.8195L32.1112 -34.8195C32.0498 -34.8195 32 -34.8692 32 -34.9305L32 -36.4833C32 -36.5446 32.0498 -36.5943 32.1112 -36.5943L33.8889 -36.5943ZM34 -33.0448C34 -33.1061 33.9503 -33.1557 33.8889 -33.1557L32.1112 -33.1557C32.0498 -33.1557 32 -33.1061 32 -33.0448L32 -31.492C32 -31.4307 32.0498 -31.381 32.1112 -31.381L33.8889 -31.381C33.9503 -31.381 34 -31.4307 34 -31.492L34 -33.0448ZM33.8889 -29.7172C33.9503 -29.7172 34 -29.6676 34 -29.6063L34 -28.0534C34 -27.9922 33.9503 -27.9425 33.8889 -27.9425L32.1112 -27.9425C32.0498 -27.9425 32 -27.9922 32 -28.0534L32 -29.6063C32 -29.6676 32.0498 -29.7172 32.1112 -29.7172L33.8889 -29.7172ZM34 -26.1678C34 -26.2291 33.9503 -26.2787 33.8889 -26.2787L32.1112 -26.2787C32.0498 -26.2787 32 -26.2291 32 -26.1678L32 -24.6149C32 -24.5537 32.0498 -24.504 32.1112 -24.504L33.8889 -24.504C33.9503 -24.504 34 -24.5537 34 -24.6149L34 -26.1678ZM33.8889 -22.8402C33.9503 -22.8402 34 -22.7906 34 -22.7293L34 -21.1764C34 -21.1152 33.9503 -21.0655 33.8889 -21.0655L32.1112 -21.0655C32.0498 -21.0655 32 -21.1152 32 -21.1764L32 -22.7293C32 -22.7906 32.0498 -22.8402 32.1112 -22.8402L33.8889 -22.8402ZM34 -19.2908C34 -19.3521 33.9503 -19.4017 33.8889 -19.4017L32.1112 -19.4017C32.0498 -19.4017 32 -19.3521 32 -19.2908L32 -17.7379C32 -17.6767 32.0498 -17.627 32.1112 -17.627L33.8889 -17.627C33.9503 -17.627 34 -17.6767 34 -17.7379L34 -19.2908ZM33.8889 -15.9632C33.9503 -15.9632 34 -15.9136 34 -15.8523L34 -14.2994C34 -14.2382 33.9503 -14.1885 33.8889 -14.1885L32.1112 -14.1885C32.0498 -14.1885 32 -14.2382 32 -14.2994L32 -15.8523C32 -15.9136 32.0498 -15.9632 32.1112 -15.9632L33.8889 -15.9632ZM34 -12.4138C34 -12.4751 33.9503 -12.5247 33.8889 -12.5247L32.1112 -12.5247C32.0498 -12.5247 32 -12.4751 32 -12.4138L32 -10.8609C32 -10.7997 32.0498 -10.75 32.1112 -10.75L33.8889 -10.75C33.9503 -10.75 34 -10.7997 34 -10.8609L34 -12.4138ZM33.8889 -9.0862C33.9503 -9.0862 34 -9.03654 34 -8.97529L34 -7.42241C34 -7.36116 33.9503 -7.31149 33.8889 -7.31149L32.1112 -7.31149C32.0498 -7.31149 32 -7.36116 32 -7.42241L32 -8.97529C32 -9.03654 32.0498 -9.0862 32.1112 -9.0862L33.8889 -9.0862ZM34 -5.53678C34 -5.59804 33.9503 -5.6477 33.8889 -5.6477L32.1112 -5.6477C32.0498 -5.6477 32 -5.59804 32 -5.53678L32 -3.98391C32 -3.92265 32.0498 -3.87299 32.1112 -3.87299L33.8889 -3.87299C33.9503 -3.87299 34 -3.92265 34 -3.98391L34 -5.53678ZM33.8889 -2.2092C33.9503 -2.2092 34 -2.15954 34 -2.09828L34 -0.545406C34 -0.484142 33.9503 -0.434486 33.8889 -0.434486L32.1112 -0.434486C32.0498 -0.434486 32 -0.484142 32 -0.545406L32 -2.09828C32 -2.15954 32.0498 -2.2092 32.1112 -2.2092L33.8889 -2.2092ZM34 1.34023C34 1.27897 33.9503 1.22931 33.8889 1.22931L32.1112 1.22931C32.0498 1.22931 32 1.27897 32 1.34023L32 2.8931C32 2.95436 32.0498 3.00402 32.1112 3.00402L33.8889 3.00402C33.9503 3.00402 34 2.95436 34 2.8931L34 1.34023ZM33.8889 4.66782C33.9503 4.66782 34 4.71748 34 4.77874L34 6.33162C34 6.39287 33.9503 6.44253 33.8889 6.44253L32.1112 6.44253C32.0498 6.44253 32 6.39287 32 6.33162L32 4.77874C32 4.71748 32.0498 4.66782 32.1112 4.66782L33.8889 4.66782ZM34 8.21724C34 8.15599 33.9503 8.10633 33.8889 8.10633L32.1112 8.10633C32.0498 8.10633 32 8.15599 32 8.21724L32 9.77012C32 9.83138 32.0498 9.88104 32.1112 9.88104L33.8889 9.88104C33.9503 9.88104 34 9.83138 34 9.77012L34 8.21724ZM33.8889 11.5448C33.9503 11.5448 34 11.5945 34 11.6557L34 13.2086C34 13.2699 33.9503 13.3195 33.8889 13.3195L32.1112 13.3195C32.0498 13.3195 32 13.2699 32 13.2086L32 11.6557C32 11.5945 32.0498 11.5448 32.1112 11.5448L33.8889 11.5448ZM34 15.0943C34 15.033 33.9503 14.9833 33.8889 14.9833L32.1112 14.9833C32.0498 14.9833 32 15.033 32 15.0943L32 16.6471C32 16.7084 32.0498 16.7581 32.1112 16.7581L33.8889 16.7581C33.9503 16.7581 34 16.7084 34 16.6471L34 15.0943ZM33.8889 18.4218C33.9503 18.4218 34 18.4715 34 18.5328L34 20.0856C34 20.1469 33.9503 20.1966 33.8889 20.1966L32.1112 20.1966C32.0498 20.1966 32 20.1469 32 20.0856L32 18.5328C32 18.4715 32.0498 18.4218 32.1112 18.4218L33.8889 18.4218ZM34 21.9713C34 21.91 33.9503 21.8603 33.8889 21.8603L32.1112 21.8603C32.0498 21.8603 32 21.91 32 21.9713L32 23.5241C32 23.5854 32.0498 23.6351 32.1112 23.6351L33.8889 23.6351C33.9503 23.6351 34 23.5854 34 23.5241L34 21.9713ZM33.8889 25.2989C33.9503 25.2989 34 25.3485 34 25.4098L34 26.9626C34 27.0239 33.9503 27.0736 33.8889 27.0736L32.1112 27.0736C32.0498 27.0736 32 27.0239 32 26.9626L32 25.4098C32 25.3485 32.0498 25.2989 32.1112 25.2989L33.8889 25.2989ZM34 28.8483C34 28.787 33.9503 28.7374 33.8889 28.7374L32.1112 28.7374C32.0498 28.7374 32 28.787 32 28.8483L32 30.4012C32 30.4624 32.0498 30.5121 32.1112 30.5121L33.8889 30.5121C33.9503 30.5121 34 30.4624 34 30.4012L34 28.8483ZM33.8889 32.1759C33.9503 32.1759 34 32.2255 34 32.2868L34 33.8397C34 33.9009 33.9503 33.9506 33.8889 33.9506L32.1112 33.9506C32.0498 33.9506 32 33.9009 32 33.8397L32 32.2868C32 32.2255 32.0498 32.1759 32.1112 32.1759L33.8889 32.1759ZM34 35.7253C34 35.664 33.9503 35.6144 33.8889 35.6144L32.1112 35.6144C32.0498 35.6144 32 35.664 32 35.7253L32 37.2782C32 37.3394 32.0498 37.3891 32.1112 37.3891L33.8889 37.3891C33.9503 37.3891 34 37.3394 34 37.2782L34 35.7253ZM33.8889 39.0529C33.9503 39.0529 34 39.1025 34 39.1638L34 40.7167C34 40.7779 33.9503 40.8276 33.8889 40.8276L32.1112 40.8276C32.0498 40.8276 32 40.7779 32 40.7167L32 39.1638C32 39.1025 32.0498 39.0529 32.1112 39.0529L33.8889 39.0529ZM34 42.6023C34 42.541 33.9503 42.4914 33.8889 42.4914L32.1112 42.4914C32.0498 42.4914 32 42.541 32 42.6023L32 44.1552C32 44.2164 32.0498 44.2661 32.1112 44.2661L33.8889 44.2661C33.9503 44.2661 34 44.2164 34 44.1552L34 42.6023ZM33.8889 45.9299C33.9503 45.9299 34 45.9795 34 46.0408L34 47.5937C34 47.6549 33.9503 47.7046 33.8889 47.7046L32.1112 47.7046C32.0498 47.7046 32 47.6549 32 47.5937L32 46.0408C32 45.9795 32.0498 45.9299 32.1112 45.9299L33.8889 45.9299ZM34 49.4793C34 49.4181 33.9503 49.3684 33.8889 49.3684L32.1112 49.3684C32.0498 49.3684 32 49.4181 32 49.4793L32 51.0322C32 51.0934 32.0498 51.1431 32.1112 51.1431L33.8889 51.1431C33.9503 51.1431 34 51.0934 34 51.0322L34 49.4793ZM33.8889 52.8069C33.9503 52.8069 34 52.8566 34 52.9178L34 54.4707C34 54.532 33.9503 54.5816 33.8889 54.5816L32.1112 54.5816C32.0498 54.5816 32.0001 54.532 32.0001 54.4707L32.0001 52.9178C32.0001 52.8566 32.0498 52.8069 32.1112 52.8069L33.8889 52.8069ZM34 56.3563C34 56.2951 33.9503 56.2454 33.8889 56.2454L32.1112 56.2454C32.0498 56.2454 32.0001 56.2951 32.0001 56.3563L32.0001 57.9092C32.0001 57.9704 32.0498 58.0201 32.1112 58.0201L33.8889 58.0201C33.9503 58.0201 34 57.9704 34 57.9092L34 56.3563ZM33.8889 59.6839C33.9503 59.6839 34 59.7336 34 59.7948L34 61.3477C34 61.409 33.9503 61.4586 33.8889 61.4586L32.1112 61.4586C32.0498 61.4586 32.0001 61.409 32.0001 61.3477L32.0001 59.7948C32.0001 59.7336 32.0498 59.6839 32.1112 59.6839L33.8889 59.6839ZM34 63.2333C34 63.1721 33.9503 63.1224 33.8889 63.1224L32.1112 63.1224C32.0498 63.1224 32.0001 63.1721 32.0001 63.2333L32.0001 64.7862C32.0001 64.8475 32.0498 64.8971 32.1112 64.8971L33.8889 64.8971C33.9503 64.8971 34 64.8475 34 64.7862L34 63.2333ZM33.8889 66.5609C33.9503 66.5609 34 66.6106 34 66.6718L34 68.2247C34 68.286 33.9503 68.3356 33.8889 68.3356L32.1112 68.3356C32.0498 68.3356 32.0001 68.286 32.0001 68.2247L32.0001 66.6718C32.0001 66.6106 32.0498 66.5609 32.1112 66.5609L33.8889 66.5609ZM34 70.1104C34 70.0491 33.9503 69.9994 33.8889 69.9994L32.1112 69.9994C32.0498 69.9994 32.0001 70.0491 32.0001 70.1104L32.0001 71.6632C32.0001 71.7245 32.0498 71.7741 32.1112 71.7741L33.8889 71.7741C33.9503 71.7741 34 71.7245 34 71.6632L34 70.1104ZM33.8889 73.4379C33.9503 73.4379 34 73.4876 34 73.5489L34 75.1017C34 75.163 33.9503 75.2127 33.8889 75.2127L32.1112 75.2127C32.0498 75.2127 32.0001 75.163 32.0001 75.1017L32.0001 73.5489C32.0001 73.4876 32.0498 73.4379 32.1112 73.4379L33.8889 73.4379ZM34 76.9874C34 76.9261 33.9503 76.8764 33.8889 76.8764L32.1112 76.8764C32.0498 76.8764 32.0001 76.9261 32.0001 76.9874L32.0001 78.5402C32.0001 78.6015 32.0498 78.6512 32.1112 78.6512L33.8889 78.6512C33.9503 78.6512 34 78.6015 34 78.5402L34 76.9874ZM33.8889 80.3149C33.9503 80.3149 34 80.3646 34 80.4259L34 81.9788C34 82.04 33.9503 82.0897 33.8889 82.0897L32.1112 82.0897C32.0498 82.0897 32.0001 82.04 32.0001 81.9788L32.0001 80.4259C32.0001 80.3646 32.0498 80.3149 32.1112 80.3149L33.8889 80.3149ZM34 83.8644C34 83.8031 33.9503 83.7535 33.8889 83.7535L32.1112 83.7535C32.0498 83.7535 32.0001 83.8031 32.0001 83.8644L32.0001 85.4172C32.0001 85.4785 32.0498 85.5282 32.1112 85.5282L33.8889 85.5282C33.9503 85.5282 34 85.4785 34 85.4172L34 83.8644ZM33.8889 87.192C33.9503 87.192 34 87.2416 34 87.3029L34 88.8557C34 88.917 33.9503 88.9667 33.8889 88.9667L32.1112 88.9667C32.0498 88.9667 32.0001 88.917 32.0001 88.8557L32.0001 87.3029C32.0001 87.2416 32.0498 87.192 32.1112 87.192L33.8889 87.192ZM34 90.7414C34 90.6801 33.9503 90.6305 33.8889 90.6305L32.1112 90.6305C32.0498 90.6305 32.0001 90.6801 32.0001 90.7414L32.0001 92.2943C32.0001 92.3555 32.0498 92.4052 32.1112 92.4052L33.8889 92.4052C33.9503 92.4052 34 92.3555 34 92.2943L34 90.7414ZM33.8889 94.069C33.9503 94.069 34 94.1186 34 94.1799L34 95.7328C34 95.794 33.9503 95.8437 33.8889 95.8437L32.1112 95.8437C32.0498 95.8437 32.0001 95.794 32.0001 95.7328L32.0001 94.1799C32.0001 94.1186 32.0498 94.069 32.1112 94.069L33.8889 94.069ZM34 97.6184C34 97.5572 33.9503 97.5075 33.8889 97.5075L32.1112 97.5075C32.0498 97.5075 32.0001 97.5572 32.0001 97.6184L32.0001 99.1713C32.0001 99.2325 32.0498 99.2822 32.1112 99.2822L33.8889 99.2822C33.9503 99.2822 34 99.2325 34 99.1713L34 97.6184ZM33.8889 100.946C33.9503 100.946 34 100.996 34 101.057L34 102.61C34 102.671 33.9503 102.721 33.8889 102.721L32.1112 102.721C32.0498 102.721 32.0001 102.671 32.0001 102.61L32.0001 101.057C32.0001 100.996 32.0498 100.946 32.1112 100.946L33.8889 100.946ZM34 104.495C34 104.434 33.9503 104.384 33.8889 104.384L32.1112 104.384C32.0498 104.384 32.0001 104.434 32.0001 104.495L32.0001 106.048C32.0001 106.11 32.0498 106.159 32.1112 106.159L33.8889 106.159C33.9503 106.159 34 106.11 34 106.048L34 104.495ZM33.8889 107.823C33.9503 107.823 34 107.873 34 107.934L34 109.487C34 109.548 33.9503 109.598 33.8889 109.598L32.1112 109.598C32.0498 109.598 32.0001 109.548 32.0001 109.487L32.0001 107.934C32.0001 107.873 32.0498 107.823 32.1112 107.823L33.8889 107.823ZM34 111.372C34 111.311 33.9503 111.261 33.8889 111.261L32.1112 111.261C32.0498 111.261 32.0001 111.311 32.0001 111.372L32.0001 112.925C32.0001 112.987 32.0498 113.036 32.1112 113.036L33.8889 113.036C33.9503 113.036 34 112.987 34 112.925L34 111.372ZM33.8889 114.7C33.9503 114.7 34 114.75 34 114.811L34 116.364C34 116.425 33.9503 116.475 33.8889 116.475L32.1112 116.475C32.0498 116.475 32.0001 116.425 32.0001 116.364L32.0001 114.811C32.0001 114.75 32.0498 114.7 32.1112 114.7L33.8889 114.7ZM34 118.249C34 118.188 33.9503 118.139 33.8889 118.139L32.1112 118.139C32.0498 118.139 32.0001 118.188 32.0001 118.249L32.0001 119.802C32.0001 119.864 32.0498 119.913 32.1112 119.913L33.8889 119.913C33.9503 119.913 34 119.864 34 119.802L34 118.249ZM33.8889 121.577C33.9503 121.577 34 121.627 34 121.688L34 123.241C34 123.302 33.9503 123.352 33.8889 123.352L32.1112 123.352C32.0498 123.352 32.0001 123.302 32.0001 123.241L32.0001 121.688C32.0001 121.627 32.0498 121.577 32.1112 121.577L33.8889 121.577ZM34 125.126C34 125.065 33.9503 125.016 33.8889 125.016L32.1112 125.016C32.0498 125.016 32.0001 125.065 32.0001 125.126L32.0001 126.679C32.0001 126.741 32.0498 126.79 32.1112 126.79L33.8889 126.79C33.9503 126.79 34 126.741 34 126.679L34 125.126ZM33.8889 128.454C33.9503 128.454 34 128.504 34 128.565L34 130.118C34 130.179 33.9503 130.229 33.8889 130.229L32.1112 130.229C32.0498 130.229 32.0001 130.179 32.0001 130.118L32.0001 128.565C32.0001 128.504 32.0498 128.454 32.1112 128.454L33.8889 128.454ZM34 132.003C34 131.942 33.9503 131.893 33.8889 131.893L32.1112 131.893C32.0498 131.893 32.0001 131.942 32.0001 132.003L32.0001 133.556C32.0001 133.618 32.0498 133.667 32.1112 133.667L33.8889 133.667C33.9503 133.667 34 133.618 34 133.556L34 132.003Z" fill="#A8A292"/>
<path id="Polygon 4" d="M24.5 19.134C25.1667 19.5189 25.1667 20.4811 24.5 20.866L18.5 24.3301C17.8333 24.715 17 24.2339 17 23.4641L17 16.5359C17 15.7661 17.8333 15.285 18.5 15.6699L24.5 19.134Z" fill="#E1DCD0"/>
<path id="Polygon 5" d="M24.5 19.134C25.1667 19.5189 25.1667 20.4811 24.5 20.866L18.5 24.3301C17.8333 24.715 17 24.2339 17 23.4641L17 16.5359C17 15.7661 17.8333 15.285 18.5 15.6699L24.5 19.134Z" fill="#E1DCD0"/>
<path id="Polygon 3" d="M24.5 19.134C25.1667 19.5189 25.1667 20.4811 24.5 20.866L18.5 24.3301C17.8333 24.715 17 24.2339 17 23.4641L17 16.5359C17 15.7661 17.8333 15.285 18.5 15.6699L24.5 19.134Z" fill="#E1DCD0"/>
</g>
<rect x="5" y="8" width="30" height="24" rx="1" stroke="#E1DCD0"/>
</g>
</g>
</g>
<defs>
<clipPath id="clip0_792_17135">
<rect width="40" height="40" fill="white"/>
</clipPath>
<clipPath id="clip1_792_17135">
<rect x="5" y="8" width="30" height="24" rx="1" fill="white"/>
</clipPath>
</defs>
</svg>
