<svg width="40" height="40" viewBox="0 0 40 40" fill="none" xmlns="http://www.w3.org/2000/svg">
<g id="&#231;&#129;&#181;&#230;&#132;&#159;&#233;&#155;&#134;" clip-path="url(#clip0_792_17139)">
<g id="Frame 1171275752">
<g id="Group 1171275876">
<g id="Group 1171275751">
<g id="Intersect">
<path fill-rule="evenodd" clip-rule="evenodd" d="M22.0001 10.64C22.0001 10.5074 21.892 10.4018 21.761 10.3822C20.9907 10.2668 20.4001 9.60233 20.4001 8.79995V8.24C20.4001 8.10745 20.2927 8 20.1601 8H11C9.88483 8 9.32724 8 8.86357 8.09223C6.95945 8.47098 5.47098 9.95945 5.09223 11.8636C5 12.3272 5 12.8848 5 14V14.6579C5 15.3991 5.60749 16 6.34872 16C8.55786 16 10.3684 17.7909 10.3684 20C10.3684 22.2091 8.55786 24 6.34872 24C5.60749 24 5 24.6009 5 25.3421V26C5 27.1152 5 27.6728 5.09223 28.1364C5.47098 30.0405 6.95945 31.529 8.86357 31.9078C9.32724 32 9.88483 32 11 32H20.1601C20.2927 32 20.4001 31.8925 20.4001 31.76V31.2C20.4001 30.3976 20.9907 29.7331 21.761 29.6177C21.892 29.5981 22.0001 29.4925 22.0001 29.36V26.64C22.0001 26.5074 21.892 26.4018 21.761 26.3822C20.9907 26.2668 20.4001 25.6023 20.4001 24.8V23.2C20.4001 22.3976 20.9907 21.7331 21.761 21.6177C21.892 21.5981 22.0001 21.4925 22.0001 21.36V18.64C22.0001 18.5074 21.892 18.4018 21.761 18.3822C20.9907 18.2668 20.4001 17.6023 20.4001 16.8V15.2C20.4001 14.3976 20.9907 13.7331 21.761 13.6177C21.892 13.5981 22.0001 13.4925 22.0001 13.36V10.64Z" fill="#423C2B"/>
<path d="M8.86357 8.09223L8.96111 8.58262L8.86357 8.09223ZM5.09223 11.8636L5.58262 11.9611L5.09223 11.8636ZM5.09223 28.1364L4.60184 28.234H4.60184L5.09223 28.1364ZM8.86357 31.9078L8.76602 32.3982H8.76602L8.86357 31.9078ZM21.761 13.6177L21.6868 13.1232L21.761 13.6177ZM21.761 18.3822L21.8351 17.8877L21.761 18.3822ZM21.761 26.3822L21.6868 26.8767L21.761 26.3822ZM21.761 29.6177L21.6868 29.1232L21.761 29.6177ZM21.761 21.6177L21.6868 21.1232L21.761 21.6177ZM21.761 10.3822L21.8351 9.88772L21.761 10.3822ZM21.8351 9.88772C21.306 9.80842 20.9001 9.35114 20.9001 8.79995H19.9001C19.9001 9.85352 20.6755 10.7251 21.6868 10.8767L21.8351 9.88772ZM20.9001 8.79995V8.24H19.9001V8.79995H20.9001ZM20.1601 7.5H11V8.5H20.1601V7.5ZM11 7.5C9.90879 7.5 9.29017 7.49758 8.76602 7.60184L8.96111 8.58262C9.36431 8.50242 9.86086 8.5 11 8.5V7.5ZM8.76602 7.60184C6.66356 8.02004 5.02004 9.66356 4.60184 11.766L5.58262 11.9611C5.92192 10.2553 7.25534 8.92192 8.96111 8.58262L8.76602 7.60184ZM4.60184 11.766C4.49758 12.2902 4.5 12.9088 4.5 14H5.5C5.5 12.8609 5.50242 12.3643 5.58262 11.9611L4.60184 11.766ZM4.5 14V14.6579H5.5V14H4.5ZM4.5 14.6579C4.5 15.6785 5.33455 16.5 6.34872 16.5V15.5C5.88043 15.5 5.5 15.1198 5.5 14.6579H4.5ZM6.34872 16.5C8.28492 16.5 9.86842 18.0702 9.86842 20H10.8684C10.8684 17.5115 8.8308 15.5 6.34872 15.5V16.5ZM9.86842 20C9.86842 21.9298 8.28492 23.5 6.34872 23.5V24.5C8.8308 24.5 10.8684 22.4885 10.8684 20H9.86842ZM6.34872 23.5C5.33455 23.5 4.5 24.3215 4.5 25.3421H5.5C5.5 24.8802 5.88043 24.5 6.34872 24.5V23.5ZM4.5 25.3421V26H5.5V25.3421H4.5ZM4.5 26C4.5 27.0912 4.49758 27.7098 4.60184 28.234L5.58262 28.0389C5.50242 27.6357 5.5 27.1391 5.5 26H4.5ZM4.60184 28.234C5.02004 30.3364 6.66356 31.98 8.76602 32.3982L8.96111 31.4174C7.25534 31.0781 5.92192 29.7447 5.58262 28.0389L4.60184 28.234ZM8.76602 32.3982C9.29017 32.5024 9.90879 32.5 11 32.5V31.5C9.86086 31.5 9.36431 31.4976 8.96111 31.4174L8.76602 32.3982ZM11 32.5H20.1601V31.5H11V32.5ZM20.9001 31.76V31.2H19.9001V31.76H20.9001ZM20.9001 31.2C20.9001 30.6488 21.306 30.1915 21.8351 30.1122L21.6868 29.1232C20.6755 29.2748 19.9001 30.1464 19.9001 31.2H20.9001ZM21.5001 26.64V29.36H22.5001V26.64H21.5001ZM19.9001 24.8C19.9001 25.8535 20.6755 26.7251 21.6868 26.8767L21.8351 25.8877C21.306 25.8084 20.9001 25.3511 20.9001 24.8H19.9001ZM19.9001 23.2V24.8H20.9001V23.2H19.9001ZM21.6868 21.1232C20.6755 21.2748 19.9001 22.1464 19.9001 23.2H20.9001C20.9001 22.6488 21.306 22.1915 21.8351 22.1122L21.6868 21.1232ZM21.5001 18.64V21.36H22.5001V18.64H21.5001ZM19.9001 16.8C19.9001 17.8535 20.6755 18.7251 21.6868 18.8767L21.8351 17.8877C21.306 17.8084 20.9001 17.3511 20.9001 16.8H19.9001ZM19.9001 15.2V16.8H20.9001V15.2H19.9001ZM21.6868 13.1232C20.6755 13.2748 19.9001 14.1464 19.9001 15.2H20.9001C20.9001 14.6488 21.306 14.1915 21.8351 14.1122L21.6868 13.1232ZM21.5001 10.64V13.36H22.5001V10.64H21.5001ZM21.8351 14.1122C22.1645 14.0628 22.5001 13.7842 22.5001 13.36H21.5001C21.5001 13.2848 21.532 13.2237 21.5682 13.1857C21.6026 13.1498 21.6443 13.1296 21.6868 13.1232L21.8351 14.1122ZM22.5001 18.64C22.5001 18.2157 22.1645 17.9371 21.8351 17.8877L21.6868 18.8767C21.6443 18.8703 21.6026 18.8501 21.5682 18.8142C21.532 18.7762 21.5001 18.7151 21.5001 18.64H22.5001ZM22.5001 26.64C22.5001 26.2157 22.1645 25.9371 21.8351 25.8877L21.6868 26.8767C21.6443 26.8703 21.6026 26.8501 21.5682 26.8142C21.532 26.7763 21.5001 26.7151 21.5001 26.64H22.5001ZM21.8351 30.1122C22.1645 30.0628 22.5001 29.7842 22.5001 29.36H21.5001C21.5001 29.2848 21.532 29.2237 21.5682 29.1857C21.6026 29.1498 21.6443 29.1296 21.6868 29.1232L21.8351 30.1122ZM20.1601 32.5C20.5688 32.5 20.9001 32.1687 20.9001 31.76H19.9001C19.9001 31.6164 20.0165 31.5 20.1601 31.5V32.5ZM20.9001 8.24C20.9001 7.83131 20.5688 7.5 20.1601 7.5V8.5C20.0165 8.5 19.9001 8.38359 19.9001 8.24H20.9001ZM21.8351 22.1122C22.1645 22.0628 22.5001 21.7842 22.5001 21.36H21.5001C21.5001 21.2848 21.532 21.2237 21.5682 21.1857C21.6026 21.1498 21.6443 21.1296 21.6868 21.1232L21.8351 22.1122ZM21.6868 10.8767C21.6443 10.8703 21.6026 10.8501 21.5682 10.8142C21.532 10.7762 21.5001 10.7151 21.5001 10.64H22.5001C22.5001 10.2157 22.1645 9.9371 21.8351 9.88772L21.6868 10.8767Z" fill="#E1DCD0"/>
</g>
<g id="Intersect_2">
<path fill-rule="evenodd" clip-rule="evenodd" d="M25 29.36C25 29.4925 25.1081 29.5981 25.2391 29.6177C26.0093 29.7332 26.5999 30.3976 26.5999 31.2V31.76C26.5999 31.8925 26.7073 32 26.8399 32H28.9999C30.1151 32 30.6727 32 31.1363 31.9078C33.0405 31.529 34.5289 30.0405 34.9077 28.1364C34.9999 27.6728 34.9999 27.1152 34.9999 26V25.3636C34.9999 24.6105 34.3894 24 33.6363 24H33.5454C31.3362 24 29.5454 22.2091 29.5454 20C29.5454 17.7909 31.3362 16 33.5453 16H33.6363C34.3894 16 34.9999 15.3895 34.9999 14.6364V14C34.9999 12.8848 34.9999 12.3272 34.9077 11.8636C34.5289 9.95945 33.0405 8.47098 31.1363 8.09223C30.6727 8 30.1151 8 28.9999 8H26.8399C26.7073 8 26.5999 8.10745 26.5999 8.24V8.79995C26.5999 9.60229 26.0093 10.2667 25.2391 10.3822C25.1081 10.4018 25 10.5074 25 10.6399V13.36C25 13.4925 25.1081 13.5981 25.2391 13.6177C26.0093 13.7332 26.5999 14.3976 26.5999 15.2V16.8C26.5999 17.6023 26.0093 18.2667 25.2391 18.3822C25.1081 18.4018 25 18.5074 25 18.6399V21.36C25 21.4925 25.1081 21.5981 25.2391 21.6177C26.0093 21.7332 26.5999 22.3976 26.5999 23.2V24.8C26.5999 25.6023 26.0093 26.2667 25.2391 26.3822C25.1081 26.4018 25 26.5074 25 26.6399V29.36Z" fill="#E1DCD0"/>
<path d="M31.1363 31.9078L31.2339 32.3982H31.2339L31.1363 31.9078ZM34.9077 28.1364L35.3981 28.234V28.234L34.9077 28.1364ZM34.9077 11.8636L35.3981 11.766V11.766L34.9077 11.8636ZM31.1363 8.09223L31.2339 7.60184L31.2339 7.60184L31.1363 8.09223ZM25.2391 26.3822L25.3133 26.8767L25.2391 26.3822ZM25.2391 21.6177L25.3133 21.1233L25.2391 21.6177ZM25.2391 13.6177L25.165 14.1122L25.2391 13.6177ZM25.2391 18.3822L25.3133 18.8767L25.2391 18.3822ZM25.2391 10.3822L25.3133 10.8767L25.2391 10.3822ZM25.2391 29.6177L25.3133 29.1233L25.2391 29.6177ZM25.165 30.1122C25.694 30.1915 26.0999 30.6488 26.0999 31.2H27.0999C27.0999 30.1464 26.3246 29.2749 25.3133 29.1233L25.165 30.1122ZM26.0999 31.2V31.76H27.0999V31.2H26.0999ZM26.8399 32.5H28.9999V31.5H26.8399V32.5ZM28.9999 32.5C30.0911 32.5 30.7097 32.5024 31.2339 32.3982L31.0388 31.4174C30.6356 31.4976 30.139 31.5 28.9999 31.5V32.5ZM31.2339 32.3982C33.3363 31.98 34.9799 30.3364 35.3981 28.234L34.4173 28.0389C34.078 29.7447 32.7446 31.0781 31.0388 31.4174L31.2339 32.3982ZM35.3981 28.234C35.5023 27.7098 35.4999 27.0912 35.4999 26H34.4999C34.4999 27.1391 34.4975 27.6357 34.4173 28.0389L35.3981 28.234ZM35.4999 26V25.3636H34.4999V26H35.4999ZM35.4999 25.3636C35.4999 24.3344 34.6655 23.5 33.6363 23.5V24.5C34.1132 24.5 34.4999 24.8867 34.4999 25.3636H35.4999ZM33.6363 23.5H33.5454V24.5H33.6363V23.5ZM33.5454 23.5C31.6124 23.5 30.0454 21.933 30.0454 20H29.0454C29.0454 22.4853 31.0601 24.5 33.5454 24.5V23.5ZM30.0454 20C30.0454 18.067 31.6124 16.5 33.5453 16.5V15.5C31.0601 15.5 29.0454 17.5147 29.0454 20H30.0454ZM33.5453 16.5H33.6363V15.5H33.5453V16.5ZM33.6363 16.5C34.6655 16.5 35.4999 15.6656 35.4999 14.6364H34.4999C34.4999 15.1133 34.1132 15.5 33.6363 15.5V16.5ZM35.4999 14.6364V14H34.4999V14.6364H35.4999ZM35.4999 14C35.4999 12.9088 35.5023 12.2902 35.3981 11.766L34.4173 11.9611C34.4975 12.3643 34.4999 12.8609 34.4999 14H35.4999ZM35.3981 11.766C34.9799 9.66356 33.3363 8.02004 31.2339 7.60184L31.0388 8.58262C32.7446 8.92192 34.078 10.2553 34.4173 11.9611L35.3981 11.766ZM31.2339 7.60184C30.7097 7.49758 30.0911 7.5 28.9999 7.5V8.5C30.139 8.5 30.6356 8.50242 31.0388 8.58262L31.2339 7.60184ZM28.9999 7.5H26.8399V8.5H28.9999V7.5ZM26.0999 8.24V8.79995H27.0999V8.24H26.0999ZM26.0999 8.79995C26.0999 9.35111 25.694 9.80838 25.165 9.88771L25.3133 10.8767C26.3246 10.725 27.0999 9.85347 27.0999 8.79995H26.0999ZM25.5 13.36V10.6399H24.5V13.36H25.5ZM27.0999 15.2C27.0999 14.1464 26.3246 13.2749 25.3133 13.1233L25.165 14.1122C25.694 14.1915 26.0999 14.6488 26.0999 15.2H27.0999ZM27.0999 16.8V15.2H26.0999V16.8H27.0999ZM25.3133 18.8767C26.3246 18.725 27.0999 17.8535 27.0999 16.8H26.0999C26.0999 17.3511 25.694 17.8084 25.165 17.8877L25.3133 18.8767ZM25.5 21.36V18.6399H24.5V21.36H25.5ZM27.0999 23.2C27.0999 22.1464 26.3246 21.2749 25.3133 21.1233L25.165 22.1122C25.694 22.1915 26.0999 22.6488 26.0999 23.2H27.0999ZM27.0999 24.8V23.2H26.0999V24.8H27.0999ZM25.3133 26.8767C26.3246 26.725 27.0999 25.8535 27.0999 24.8H26.0999C26.0999 25.3511 25.694 25.8084 25.165 25.8877L25.3133 26.8767ZM25.5 29.36V26.6399H24.5V29.36H25.5ZM25.165 25.8877C24.8355 25.9371 24.5 26.2157 24.5 26.6399H25.5C25.5 26.7151 25.4682 26.7762 25.4319 26.8142C25.3976 26.8501 25.3558 26.8703 25.3133 26.8767L25.165 25.8877ZM24.5 21.36C24.5 21.7842 24.8355 22.0628 25.165 22.1122L25.3133 21.1233C25.3558 21.1296 25.3976 21.1498 25.4319 21.1857C25.4682 21.2237 25.5 21.2848 25.5 21.36H24.5ZM24.5 13.36C24.5 13.7842 24.8355 14.0628 25.165 14.1122L25.3133 13.1233C25.3558 13.1296 25.3976 13.1498 25.4319 13.1857C25.4682 13.2237 25.5 13.2848 25.5 13.36H24.5ZM26.8399 7.5C26.4312 7.5 26.0999 7.83131 26.0999 8.24H27.0999C27.0999 8.38359 26.9835 8.5 26.8399 8.5V7.5ZM25.165 17.8877C24.8355 17.9371 24.5 18.2157 24.5 18.6399H25.5C25.5 18.7151 25.4682 18.7762 25.4319 18.8142C25.3976 18.8501 25.3558 18.8703 25.3133 18.8767L25.165 17.8877ZM26.0999 31.76C26.0999 32.1687 26.4312 32.5 26.8399 32.5V31.5C26.9835 31.5 27.0999 31.6164 27.0999 31.76H26.0999ZM25.165 9.88771C24.8355 9.93711 24.5 10.2157 24.5 10.6399H25.5C25.5 10.7151 25.4682 10.7762 25.4319 10.8142C25.3976 10.8501 25.3558 10.8703 25.3133 10.8767L25.165 9.88771ZM25.3133 29.1233C25.3558 29.1296 25.3976 29.1498 25.4319 29.1857C25.4682 29.2237 25.5 29.2848 25.5 29.36H24.5C24.5 29.7842 24.8355 30.0628 25.165 30.1122L25.3133 29.1233Z" fill="#A8A292"/>
</g>
</g>
</g>
</g>
</g>
<defs>
<clipPath id="clip0_792_17139">
<rect width="40" height="40" fill="white"/>
</clipPath>
</defs>
</svg>
