<svg width="44" height="44" viewBox="0 0 44 44" fill="none" xmlns="http://www.w3.org/2000/svg">
<g id="&#233;&#128;&#154;&#231;&#159;&#165;">
<g id="Group 1171275914">
<path id="Rectangle 1" d="M13.482 17.4028C13.482 12.7276 17.2721 8.9375 21.9474 8.9375V8.9375C26.6227 8.9375 30.4127 12.7276 30.4127 17.4028V19.8861C30.4127 22.3348 31.2336 24.7128 32.7442 26.6401L33.0605 27.0436C33.2532 27.2895 33.3496 27.4124 33.3993 27.4996C33.8798 28.3406 33.3634 29.4015 32.4051 29.5421C32.3058 29.5567 32.1496 29.5567 31.8372 29.5567H12.0575C11.7451 29.5567 11.5889 29.5567 11.4896 29.5421C10.5313 29.4015 10.0149 28.3406 10.4954 27.4996C10.5452 27.4124 10.6415 27.2895 10.8343 27.0436L11.1506 26.6401C12.6611 24.7128 13.482 22.3348 13.482 19.8861V17.4028Z" fill="#FFC249"/>
<path id="Subtract" d="M22.4794 8.95361C26.9069 9.22817 30.413 12.9053 30.413 17.4019V19.8843C30.413 22.333 31.2335 24.7119 32.7441 26.6392L33.0605 27.0425C33.2532 27.2883 33.3496 27.4114 33.3994 27.4985C33.8796 28.3395 33.3634 29.3999 32.4052 29.5405C32.3059 29.5551 32.1492 29.5552 31.8369 29.5552H12.0576C11.7456 29.5552 11.5895 29.555 11.4902 29.5405C10.532 29.3999 10.015 28.3395 10.4951 27.4985C10.5448 27.4114 10.6414 27.2881 10.8339 27.0425L11.0156 26.811H26.4199C27.4347 26.811 27.9422 26.8112 28.2812 26.5942C28.5559 26.4183 28.759 26.1503 28.8544 25.8384C28.9721 25.4534 28.836 24.9644 28.5624 23.9868L28.3339 23.1714C28.3079 23.0783 28.2947 23.0314 28.2822 22.9849C28.0346 22.0691 27.9067 21.1249 27.9013 20.1763C27.901 20.1282 27.901 20.0795 27.9013 19.9829L27.9091 17.1851C27.9202 13.4886 25.6796 10.3124 22.4794 8.95361Z" fill="#ED9E00"/>
<path id="Subtract_2" d="M21.9479 8.25C24.4373 8.25013 26.6928 9.24561 28.3424 10.8587C28.6257 11.1357 28.5087 11.6053 28.1814 11.8286V11.8286C27.9126 12.0119 27.5459 11.9954 27.3104 11.771C25.9152 10.4416 24.0271 9.62513 21.9479 9.625C17.6523 9.625 14.1696 13.1077 14.1696 17.4033V19.8857C14.1696 22.4882 13.2974 25.0162 11.692 27.0645L11.3756 27.4678C11.2775 27.5929 11.21 27.6787 11.1608 27.7441C11.1369 27.7759 11.1208 27.7994 11.109 27.8164C11.0981 27.8322 11.0931 27.8398 11.0924 27.8408C10.8525 28.2612 11.1106 28.7919 11.5895 28.8623C11.5911 28.8624 11.6002 28.8631 11.6188 28.8643C11.6394 28.8655 11.668 28.8664 11.7076 28.8672C11.7896 28.8688 11.8993 28.8691 12.0582 28.8691H31.8375C31.9962 28.8691 32.1053 28.8688 32.1871 28.8672C32.227 28.8664 32.2563 28.8655 32.277 28.8643C32.295 28.8631 32.3036 28.8625 32.3053 28.8623C32.7842 28.7918 33.0424 28.2612 32.8024 27.8408C32.8023 27.8406 32.7983 27.8332 32.7867 27.8164C32.775 27.7994 32.758 27.776 32.734 27.7441C32.6848 27.6787 32.618 27.5927 32.5201 27.4678L32.2037 27.0645C30.5983 25.0162 29.7252 22.4882 29.7252 19.8857V19.1412C29.7252 18.7802 30.0518 18.5107 30.4127 18.5107V18.5107V18.5107C30.7737 18.5107 31.1002 18.7802 31.1002 19.1412V19.8857C31.1002 22.1807 31.8701 24.4096 33.2858 26.2158L33.6022 26.6191C33.7747 26.8392 33.915 27.0153 33.9967 27.1582C34.7172 28.4195 33.9426 30.0114 32.5055 30.2227C32.3426 30.2466 32.1172 30.2441 31.8375 30.2441H12.0582C11.7787 30.2441 11.5532 30.2465 11.3903 30.2227C9.95281 30.0117 9.17834 28.4197 9.89905 27.1582C9.98079 27.0153 10.1211 26.8391 10.2936 26.6191L10.61 26.2158C12.0255 24.4096 12.7946 22.1805 12.7946 19.8857V17.4033C12.7946 12.3483 16.8929 8.25 21.9479 8.25Z" fill="#FFFDFA"/>
<circle id="Ellipse 6" cx="30.9375" cy="14.4375" r="2.0625" fill="#26BBFF"/>
<path id="Ellipse 45" d="M18.0156 33.2022C18.2506 33.9331 18.7685 34.579 19.4889 35.0397C20.2093 35.5003 21.0919 35.75 22 35.75C22.9081 35.75 23.7907 35.5003 24.5111 35.0397C25.2315 34.579 25.7494 33.9331 25.9844 33.2022" stroke="#26BBFF" stroke-width="1.375" stroke-linecap="round"/>
</g>
</g>
</svg>
