<svg width="24" height="24" viewBox="0 0 24 24" fill="none" xmlns="http://www.w3.org/2000/svg">
<g id="&#232;&#174;&#190;&#231;&#189;&#174;">
<g id="Group 1171275965">
<path id="Star 2" d="M5.08168 13.9445C4.55297 12.9941 4.28862 12.5188 4.28862 12C4.28862 11.4812 4.55298 11.0059 5.08169 10.0555L5.94475 8.504L6.85685 6.98081C7.4156 6.04772 7.69498 5.58117 8.14431 5.32175C8.59364 5.06233 9.13737 5.05366 10.2248 5.03631L12 5.008L13.7752 5.03631C14.8626 5.05366 15.4064 5.06233 15.8557 5.32175C16.305 5.58117 16.5844 6.04772 17.1431 6.98081L18.0552 8.504L18.9183 10.0555C19.447 11.0059 19.7114 11.4812 19.7114 12C19.7114 12.5188 19.447 12.9941 18.9183 13.9445L18.0552 15.496L17.1431 17.0192C16.5844 17.9523 16.305 18.4188 15.8557 18.6782C15.4064 18.9377 14.8626 18.9463 13.7752 18.9637L12 18.992L10.2248 18.9637C9.13737 18.9463 8.59364 18.9377 8.14431 18.6783C7.69498 18.4188 7.4156 17.9523 6.85685 17.0192L5.94475 15.496L5.08168 13.9445Z" stroke="#FFE6B5" stroke-width="1.2"/>
<circle id="Ellipse 5" cx="12.0001" cy="12" r="2.4" stroke="#FFE6B5" stroke-width="1.2"/>
</g>
</g>
</svg>
