<svg width="25" height="28" viewBox="0 0 25 28" fill="none" xmlns="http://www.w3.org/2000/svg">
<g filter="url(#filter0_d_16901_169886)">
<path d="M15.6904 7C14.5075 5.76733 12.8434 5 11 5C7.41015 5 4.5 7.91015 4.5 11.5C4.5 14.7498 6.88491 17.4425 10 17.9236" stroke="#FFFDFA" stroke-linecap="round" stroke-dasharray="2 2"/>
<mask id="path-3-outside-1_16901_169886" maskUnits="userSpaceOnUse" x="13.5002" y="5.13397" width="7.9641" height="9.79423" fill="black">
<rect fill="white" x="13.5002" y="5.13397" width="7.9641" height="9.79423"/>
<path d="M19.4056 7.1001C19.7882 7.321 19.9192 7.81004 19.6984 8.19265L16.6984 13.3888C16.6431 13.4845 16.5205 13.5173 16.4249 13.4621L15.0396 12.6623C14.9439 12.607 14.9111 12.4845 14.9663 12.3888L17.9663 7.19265C18.1872 6.81019 18.6763 6.67925 19.0589 6.8999L19.4056 7.1001Z"/>
</mask>
<path d="M19.4056 7.1001L19.9056 6.23409L19.9056 6.23407L19.4056 7.1001ZM19.6984 8.19265L20.5644 8.69265L20.5644 8.69254L19.6984 8.19265ZM16.6984 13.3888L17.5644 13.8888L16.6984 13.3888ZM16.4249 13.4621L15.9249 14.3281L16.4249 13.4621ZM15.0396 12.6623L15.5396 11.7962L15.0396 12.6623ZM14.9663 12.3888L14.1003 11.8888L14.9663 12.3888ZM17.9663 7.19265L17.1003 6.69254L17.1003 6.69265L17.9663 7.19265ZM19.0589 6.8999L19.5589 6.03388L19.5585 6.03366L19.0589 6.8999ZM19.4056 7.1001L18.9056 7.9661C18.8098 7.91082 18.7771 7.78832 18.8323 7.69276L19.6984 8.19265L20.5644 8.69254C21.0613 7.83176 20.7666 6.73119 19.9056 6.23409L19.4056 7.1001ZM19.6984 8.19265L18.8323 7.69265L15.8323 12.8888L16.6984 13.3888L17.5644 13.8888L20.5644 8.69265L19.6984 8.19265ZM16.6984 13.3888L15.8323 12.8888C16.0532 12.5062 16.5423 12.3751 16.9249 12.5961L16.4249 13.4621L15.9249 14.3281C16.4988 14.6595 17.233 14.4628 17.5644 13.8888L16.6984 13.3888ZM16.4249 13.4621L16.9249 12.5961L15.5396 11.7962L15.0396 12.6623L14.5396 13.5283L15.9249 14.3281L16.4249 13.4621ZM15.0396 12.6623L15.5396 11.7962C15.9222 12.0172 16.0532 12.5062 15.8323 12.8888L14.9663 12.3888L14.1003 11.8888C13.7689 12.4628 13.9656 13.1969 14.5396 13.5283L15.0396 12.6623ZM14.9663 12.3888L15.8323 12.8888L18.8323 7.69265L17.9663 7.19265L17.1003 6.69265L14.1003 11.8888L14.9663 12.3888ZM17.9663 7.19265L18.8323 7.69276C18.7768 7.78874 18.6545 7.82111 18.5592 7.76615L19.0589 6.8999L19.5585 6.03366C18.6981 5.5374 17.5975 5.83164 17.1003 6.69254L17.9663 7.19265ZM19.0589 6.8999L18.5589 7.76593L18.9056 7.96612L19.4056 7.1001L19.9056 6.23407L19.5589 6.03388L19.0589 6.8999Z" fill="#FFFDFA" mask="url(#path-3-outside-1_16901_169886)"/>
<path d="M19.6556 6.66708C20.2772 7.02608 20.4902 7.82095 20.1314 8.44265L18.0513 12.0455C17.9022 12.3037 17.5719 12.3922 17.3136 12.2431L15.6509 11.2832C15.3926 11.134 15.3041 10.8037 15.4532 10.5455L17.5333 6.94265L17.6056 6.83105C17.991 6.29675 18.726 6.13049 19.3089 6.46689L19.6556 6.66708Z" stroke="#FFFDFA"/>
<path d="M11.9238 16.0146C12.0171 16.4546 12.2946 16.9192 12.8299 17.4297C13.286 17.8647 13.9256 18.1022 14.6031 18.1885C13.2951 18.8212 11.1557 19.0404 11.4738 18.4894C11.8263 17.8787 11.7508 16.9413 11.9238 16.0146Z" fill="#FFFDFA"/>
<path d="M15.4763 17.5048C14.8332 18.6187 11.0591 19.2086 11.4744 18.4892C11.8897 17.7699 11.7086 16.5968 12.0428 15.5224C12.3769 14.448 13.7694 14.2382 14.7473 14.8028C15.7252 15.3674 16.1195 16.3909 15.4763 17.5048Z" stroke="#FFFDFA"/>
</g>
<defs>
<filter id="filter0_d_16901_169886" x="-3.5" y="0" width="32" height="32" filterUnits="userSpaceOnUse" color-interpolation-filters="sRGB">
<feFlood flood-opacity="0" result="BackgroundImageFix"/>
<feColorMatrix in="SourceAlpha" type="matrix" values="0 0 0 0 0 0 0 0 0 0 0 0 0 0 0 0 0 0 127 0" result="hardAlpha"/>
<feOffset dy="4"/>
<feGaussianBlur stdDeviation="2"/>
<feComposite in2="hardAlpha" operator="out"/>
<feColorMatrix type="matrix" values="0 0 0 0 0 0 0 0 0 0 0 0 0 0 0 0 0 0 0.25 0"/>
<feBlend mode="normal" in2="BackgroundImageFix" result="effect1_dropShadow_16901_169886"/>
<feBlend mode="normal" in="SourceGraphic" in2="effect1_dropShadow_16901_169886" result="shape"/>
</filter>
</defs>
</svg>
