<svg width="24" height="24" viewBox="0 0 24 24" fill="none" xmlns="http://www.w3.org/2000/svg">
<path d="M15.1904 7C14.0075 5.76733 12.3434 5 10.5 5C6.91015 5 4 7.91015 4 11.5C4 14.7498 6.38491 17.4425 9.5 17.9236" stroke="#FFC249" stroke-linecap="round" stroke-dasharray="2 2"/>
<mask id="path-3-outside-1_16901_170040" maskUnits="userSpaceOnUse" x="13.0002" y="5.13397" width="7.9641" height="9.79423" fill="black">
<rect fill="white" x="13.0002" y="5.13397" width="7.9641" height="9.79423"/>
<path d="M18.9056 7.1001C19.2882 7.321 19.4192 7.81004 19.1984 8.19265L16.1984 13.3888C16.1431 13.4845 16.0205 13.5173 15.9249 13.4621L14.5396 12.6623C14.4439 12.607 14.4111 12.4845 14.4663 12.3888L17.4663 7.19265C17.6872 6.81019 18.1763 6.67925 18.5589 6.8999L18.9056 7.1001Z"/>
</mask>
<path d="M18.9056 7.1001C19.2882 7.321 19.4192 7.81004 19.1984 8.19265L16.1984 13.3888C16.1431 13.4845 16.0205 13.5173 15.9249 13.4621L14.5396 12.6623C14.4439 12.607 14.4111 12.4845 14.4663 12.3888L17.4663 7.19265C17.6872 6.81019 18.1763 6.67925 18.5589 6.8999L18.9056 7.1001Z" fill="#FFC249"/>
<path d="M18.9056 7.1001L19.4056 6.23409L19.4056 6.23407L18.9056 7.1001ZM19.1984 8.19265L20.0644 8.69265L20.0644 8.69254L19.1984 8.19265ZM16.1984 13.3888L15.3323 12.8888L16.1984 13.3888ZM14.4663 12.3888L15.3323 12.8888L14.4663 12.3888ZM17.4663 7.19265L16.6003 6.69254L16.6003 6.69265L17.4663 7.19265ZM18.5589 6.8999L19.0589 6.03388L19.0585 6.03366L18.5589 6.8999ZM18.9056 7.1001L18.4056 7.9661C18.3098 7.91082 18.2771 7.78832 18.3323 7.69276L19.1984 8.19265L20.0644 8.69254C20.5613 7.83176 20.2666 6.73119 19.4056 6.23409L18.9056 7.1001ZM19.1984 8.19265L18.3323 7.69265L15.3323 12.8888L16.1984 13.3888L17.0644 13.8888L20.0644 8.69265L19.1984 8.19265ZM16.1984 13.3888L15.3323 12.8888C15.5532 12.5062 16.0423 12.3751 16.4249 12.5961L15.9249 13.4621L15.4249 14.3281C15.9988 14.6595 16.733 14.4628 17.0644 13.8888L16.1984 13.3888ZM15.9249 13.4621L16.4249 12.5961L15.0396 11.7962L14.5396 12.6623L14.0396 13.5283L15.4249 14.3281L15.9249 13.4621ZM14.5396 12.6623L15.0396 11.7962C15.4222 12.0172 15.5532 12.5062 15.3323 12.8888L14.4663 12.3888L13.6003 11.8888C13.2689 12.4628 13.4656 13.1969 14.0396 13.5283L14.5396 12.6623ZM14.4663 12.3888L15.3323 12.8888L18.3323 7.69265L17.4663 7.19265L16.6003 6.69265L13.6003 11.8888L14.4663 12.3888ZM17.4663 7.19265L18.3323 7.69276C18.2768 7.78874 18.1545 7.82111 18.0592 7.76615L18.5589 6.8999L19.0585 6.03366C18.1981 5.5374 17.0975 5.83164 16.6003 6.69254L17.4663 7.19265ZM18.5589 6.8999L18.0589 7.76593L18.4056 7.96612L18.9056 7.1001L19.4056 6.23407L19.0589 6.03388L18.5589 6.8999Z" fill="#FFFDFA" mask="url(#path-3-outside-1_16901_170040)"/>
<path d="M15.2662 11.0033C15.3214 10.9076 15.4438 10.8748 15.5394 10.9301L16.9251 11.7301C17.0207 11.7853 17.0535 11.9076 16.9983 12.0033L16.1983 13.3889C16.143 13.4846 16.0207 13.5174 15.9251 13.4621L14.5394 12.6621C14.4438 12.6069 14.411 12.4846 14.4662 12.3889L15.2662 11.0033Z" fill="#FFC249"/>
<path d="M19.1556 6.66708C19.7772 7.02608 19.9902 7.82095 19.6314 8.44265L17.5513 12.0455C17.4022 12.3037 17.0719 12.3922 16.8136 12.2431L15.1509 11.2832C14.8926 11.134 14.8041 10.8037 14.9532 10.5455L17.0333 6.94265L17.1056 6.83105C17.491 6.29675 18.226 6.13049 18.8089 6.46689L19.1556 6.66708Z" fill="#CCE5FF" stroke="#FFFDFA"/>
<path d="M14.9763 17.5048C14.3332 18.6187 10.5591 19.2086 10.9744 18.4892C11.3897 17.7699 11.2086 16.5968 11.5428 15.5224C11.8769 14.448 13.2694 14.2382 14.2473 14.8028C15.2252 15.3674 15.6195 16.3909 14.9763 17.5048Z" fill="#FFE6B5"/>
<path d="M11.4238 16.0146C11.5171 16.4546 11.7946 16.9192 12.3299 17.4297C12.786 17.8647 13.4256 18.1022 14.1031 18.1885C12.7951 18.8212 10.6557 19.0404 10.9738 18.4894C11.3263 17.8787 11.2508 16.9413 11.4238 16.0146Z" fill="#26BBFF"/>
<path d="M14.9763 17.5048C14.3332 18.6187 10.5591 19.2086 10.9744 18.4892C11.3897 17.7699 11.2086 16.5968 11.5428 15.5224C11.8769 14.448 13.2694 14.2382 14.2473 14.8028C15.2252 15.3674 15.6195 16.3909 14.9763 17.5048Z" stroke="#FFFDFA"/>
</svg>
