<svg width="24" height="24" viewBox="0 0 24 24" fill="none" xmlns="http://www.w3.org/2000/svg">
<path d="M5.99966 12.0002C4.04942 13.8709 3.08659 15.6125 3.66732 16.5885C4.06518 17.2571 5.12452 17.4606 6.58013 17.2583" stroke="#FFC249"/>
<circle cx="12.5" cy="11.5" r="6.5" stroke="#FFFDFA"/>
<path d="M15.4368 5.86332C17.8325 5.22936 19.7107 5.37168 20.3342 6.4196C21.3869 8.1888 18.4646 11.8694 13.8071 14.6404C12.3947 15.4807 10.9848 16.1409 9.67658 16.6035" stroke="#FFFDFA"/>
<path d="M7.94141 14.8262C8.88261 14.8262 9.64551 15.5891 9.64551 16.5303C9.64543 17.4714 8.88256 18.2343 7.94141 18.2344C7.0002 18.2344 6.23739 17.4715 6.2373 16.5303C6.2373 15.589 7.00015 14.8262 7.94141 14.8262Z" fill="#FFC249" stroke="#FFFDFA" stroke-width="0.666667"/>
</svg>
