<svg width="24" height="24" viewBox="0 0 24 24" fill="none" xmlns="http://www.w3.org/2000/svg">
<path d="M4.5 6.5H15.5C17.7091 6.5 19.5 8.29086 19.5 10.5V12.5" stroke="#FFFDFA" stroke-linecap="round"/>
<path d="M8.5 4.5L4.5 6.5H8.5V4.5Z" fill="#FFFDFA" stroke="#FFFDFA" stroke-linejoin="round"/>
<path d="M19.5 17.5H8.5C6.29086 17.5 4.5 15.7091 4.5 13.5V11.5" stroke="#FFFDFA" stroke-linecap="round"/>
<path d="M15.5 19.5L19.5 17.5H15.5V19.5Z" fill="#FFFDFA" stroke="#FFFDFA" stroke-linejoin="round"/>
<path d="M11.8124 9.0069C11.8769 8.83278 12.1231 8.83278 12.1876 9.0069L12.4666 9.76096C12.7705 10.5821 13.4179 11.2295 14.239 11.5334L14.9931 11.8124C15.1672 11.8769 15.1672 12.1231 14.9931 12.1876L14.239 12.4666C13.4179 12.7705 12.7705 13.4179 12.4666 14.239L12.1876 14.9931C12.1231 15.1672 11.8769 15.1672 11.8124 14.9931L11.5334 14.239C11.2295 13.4179 10.5821 12.7705 9.76096 12.4666L9.0069 12.1876C8.83278 12.1231 8.83278 11.8769 9.0069 11.8124L9.76096 11.5334C10.5821 11.2295 11.2295 10.5821 11.5334 9.76096L11.8124 9.0069Z" fill="#FFC249"/>
</svg>
