<svg width="24" height="24" viewBox="0 0 24 24" fill="none" xmlns="http://www.w3.org/2000/svg">
<path d="M12.9287 9.0625V4.63916C12.9287 4.57079 12.9958 4.52258 13.0606 4.54439L14.3216 4.96875L16.1787 7.3125L18.0359 9.65625L18.4568 10.9311C18.4781 10.9958 18.43 11.0625 18.3618 11.0625H14.9287C13.8241 11.0625 12.9287 10.1671 12.9287 9.0625Z" fill="#FFC249"/>
<path d="M5.5 6.5C5.5 5.39543 6.39543 4.5 7.5 4.5H12.9147C13.5115 4.5 14.0772 4.76657 14.4571 5.22687L18.0424 9.57066C18.3382 9.929 18.5 10.3791 18.5 10.8438V17.5C18.5 18.6046 17.6046 19.5 16.5 19.5H7.5C6.39543 19.5 5.5 18.6046 5.5 17.5V6.5Z" stroke="#FFFDFA"/>
<rect x="7.35742" y="15.75" width="5.57143" height="1.40625" rx="0.703125" fill="#FFC249"/>
</svg>
