<svg width="24" height="24" viewBox="0 0 24 24" fill="none" xmlns="http://www.w3.org/2000/svg">
<path d="M13.6825 18.0005H6.4C5.07452 18.0005 4 16.926 4 15.6005V8.40049C4 7.07501 5.07452 6.00049 6.4 6.00049H17.6C18.9255 6.00049 20 7.07501 20 8.40049V10.4449" stroke="white" stroke-linecap="round"/>
<mask id="mask0_16190_147158" style="mask-type:alpha" maskUnits="userSpaceOnUse" x="4" y="6" width="16" height="12">
<path d="M16.7998 6.6001C18.1253 6.6001 19.2002 7.67501 19.2002 9.00049V11.2026C19.2002 11.6912 19.0487 12.1662 18.7715 12.5669C18.6393 12.6615 18.4966 12.7426 18.3428 12.8032L18.2998 12.8198C18.1638 12.8735 18.0446 12.9551 17.9473 13.0562L17.8467 12.8003C17.696 12.4186 17.3274 12.1676 16.917 12.1675C16.5577 12.1675 16.2299 12.3596 16.0527 12.6636L15.9863 12.8003L15.6396 13.6802C15.4364 14.1956 15.0281 14.6038 14.5127 14.8071L13.6328 15.1538C13.2509 15.3045 13 15.6739 13 16.0845C13.0001 16.4949 13.2511 16.8634 13.6328 17.0142L13.8564 17.1021C13.503 17.2963 13.106 17.3999 12.7012 17.3999H7.2002C5.87484 17.3999 4.80002 16.3258 4.7998 15.0005V9.00049C4.7998 7.675 5.87471 6.6001 7.2002 6.6001H16.7998Z" fill="#D9D9D9"/>
</mask>
<g mask="url(#mask0_16190_147158)">
<ellipse cx="16.4996" cy="8.90051" rx="0.900004" ry="0.900022" fill="#FFFDFA"/>
<path d="M13.0732 10.5369C13.5125 10.0193 14.3107 10.0193 14.75 10.5369L16.5098 12.6091C17.116 13.3237 16.6081 14.4207 15.6709 14.4207H12.1523C11.2153 14.4204 10.708 13.3236 11.3145 12.6091L13.0732 10.5369Z" stroke="#FFFDFA"/>
<path d="M10.493 9.23739C10.7255 8.92152 11.1945 8.92152 11.4271 9.23739L14.8044 13.8247C15.0893 14.2116 14.8153 14.7606 14.3373 14.7606H7.58269C7.10471 14.7606 6.83077 14.2116 7.11566 13.8247L10.493 9.23739Z" fill="#FFC249" stroke="#FFC249"/>
</g>
<path d="M16.9167 13.1672L17.2636 14.0469C17.5685 14.82 18.1805 15.4321 18.9537 15.737L19.8333 16.0839L18.9537 16.4308C18.1805 16.7358 17.5685 17.3478 17.2636 18.1209L16.9167 19.0006L16.5697 18.1209C16.2648 17.3478 15.6528 16.7358 14.8796 16.4308L14 16.0839L14.8796 15.737C15.6528 15.432 16.2648 14.82 16.5697 14.0469L16.9167 13.1672Z" fill="#FFC249"/>
<path d="M20.417 12.0005L20.4339 12.0434C20.7389 12.8166 21.3509 13.4286 22.124 13.7336L22.167 13.7505L22.124 13.7674C21.3509 14.0724 20.7389 14.6844 20.4339 15.4575L20.417 15.5005L20.4001 15.4575C20.0951 14.6844 19.4831 14.0724 18.7099 13.7674L18.667 13.7505L18.7099 13.7336C19.4831 13.4286 20.0951 12.8166 20.4001 12.0434L20.417 12.0005Z" fill="#FFFDFA"/>
</svg>
