<svg width="24" height="24" viewBox="0 0 24 24" fill="none" xmlns="http://www.w3.org/2000/svg">
<path d="M17.7143 4.5C18.9767 4.5 20 5.52335 20 6.78571V14.7857C20 16.0481 18.9767 17.0714 17.7143 17.0714H12.0414C12.0149 17.0714 11.9895 17.082 11.9707 17.1007L9.42498 19.6464C9.11 19.9614 8.57143 19.7383 8.57143 19.2929V17.1714C8.57143 17.1162 8.52666 17.0714 8.47143 17.0714H6.28571C5.02335 17.0714 4 16.0481 4 14.7857V6.78571C4 5.52335 5.02335 4.5 6.28571 4.5H17.7143Z" stroke="#FFFDFA" stroke-linejoin="round"/>
<circle cx="7.42801" cy="9.07059" r="1.14286" fill="#FFC249"/>
<circle cx="11.428" cy="9.07059" r="1.14286" fill="#FFC249"/>
<circle cx="15.428" cy="9.07059" r="1.14286" fill="#FFC249"/>
</svg>
