<svg width="24" height="24" viewBox="0 0 24 24" fill="none" xmlns="http://www.w3.org/2000/svg">
<path d="M13.4004 5.8667L17.1337 9.60003" stroke="#FFC249"/>
<path d="M15.7695 3.91406C16.1296 3.91415 16.4218 4.06617 16.6846 4.2666C16.936 4.4584 17.2138 4.73721 17.5371 5.06055L17.9395 5.46289C18.2628 5.78623 18.5416 6.06405 18.7334 6.31543C18.9338 6.5782 19.0859 6.87036 19.0859 7.23047C19.0859 7.59083 18.934 7.88358 18.7334 8.14648C18.5416 8.39787 18.2628 8.67569 17.9395 8.99902L10.0527 16.8848C9.87687 17.0606 9.72614 17.2171 9.53516 17.3252C9.3442 17.4333 9.13284 17.4827 8.8916 17.543L5.92969 18.2832C5.7655 18.3243 5.587 18.3702 5.43848 18.3848C5.28374 18.3999 5.02289 18.3959 4.81348 18.1865C4.60407 17.9771 4.6001 17.7163 4.61523 17.5615C4.62976 17.413 4.67575 17.2345 4.7168 17.0703L5.45703 14.1084C5.51734 13.8672 5.56672 13.6558 5.6748 13.4648C5.78294 13.2739 5.93937 13.1231 6.11523 12.9473L14.002 5.06055C14.3252 4.73734 14.6022 4.45834 14.8535 4.2666C15.1164 4.06602 15.4092 3.91406 15.7695 3.91406Z" stroke="#FFFDFA"/>
<path d="M9 19H19" stroke="#FFC249" stroke-linecap="round"/>
</svg>
