<svg width="24" height="24" viewBox="0 0 24 24" fill="none" xmlns="http://www.w3.org/2000/svg">
<mask id="mask0_16190_147159" style="mask-type:alpha" maskUnits="userSpaceOnUse" x="4" y="5" width="14" height="14">
<path d="M17.9004 13.7178C17.6077 14.3002 17.1116 14.7588 16.5 15C16.5823 15.0325 16.6623 15.0693 16.7402 15.1094L15.8252 16.0244C15.572 15.7526 15.3687 15.4338 15.2295 15.0811L15 14.5L14.7705 15.0811C14.4656 15.8539 13.8539 16.4656 13.0811 16.7705L12.5 17L13.0811 17.2295C13.4338 17.3687 13.7526 17.572 14.0244 17.8252L12.9502 18.9004H4.7002V5.7002H17.9004V13.7178Z" fill="#D9D9D9"/>
</mask>
<g mask="url(#mask0_16190_147159)">
<path d="M14.5708 9.64251C15.2182 10.0309 15.2182 10.9691 14.5708 11.3575L12.5145 12.5913C11.848 12.9912 11 12.5111 11 11.7338L11 9.26619C11 8.4889 11.848 8.00878 12.5145 8.4087L14.5708 9.64251Z" stroke="#FFFDFA"/>
<path d="M14.6432 11.277C15.2699 11.6687 15.2699 12.5813 14.6432 12.973L10.53 15.5438C9.86395 15.96 9 15.4812 9 14.6958V9.55425C9 8.76881 9.86395 8.28997 10.53 8.70625L14.6432 11.277Z" fill="#FFC249"/>
</g>
<path d="M19.5 12C19.5 7.85786 16.1421 4.5 12 4.5C7.85786 4.5 4.5 7.85786 4.5 12C4.5 16.1421 7.85786 19.5 12 19.5" stroke="#FFFDFA" stroke-linecap="round"/>
<path d="M15 14.5L15.2291 15.0808C15.534 15.854 16.146 16.466 16.9192 16.7709L17.5 17L16.9192 17.2291C16.146 17.534 15.534 18.146 15.2291 18.9192L15 19.5L14.7709 18.9192C14.466 18.146 13.854 17.534 13.0808 17.2291L12.5 17L13.0808 16.7709C13.854 16.466 14.466 15.854 14.7709 15.0808L15 14.5Z" fill="#FFC249"/>
<path d="M18 13.5C18.2706 14.1862 18.8138 14.7294 19.5 15C18.8138 15.2706 18.2706 15.8138 18 16.5C17.7294 15.8138 17.1862 15.2706 16.5 15C17.1862 14.7294 17.7294 14.1862 18 13.5Z" fill="#26BBFF"/>
</svg>
